M48
;GenerationSoftware,Autodesk,EAGLE,9.6.2*%
;CreationDate,2021-04-05T01:34:45Z*%
FMAT,2
ICI,OFF
METRIC,TZ,000.000
T5C0.350
T4C0.813
T3C1.016
T2C1.200
T1C2.000
%
G90
M71
T1
X57785Y62865
X18232Y11720
T2
X55880Y15240
X20320Y45720
X20320Y48260
X20320Y53340
X20320Y20320
X20320Y43180
X20320Y40640
X20320Y38100
X20320Y33020
X20320Y30480
X20320Y27940
X20320Y25400
X20320Y22860
X20320Y50800
X20320Y55880
X20320Y17780
X20320Y15240
X55880Y55880
X55880Y53340
X55880Y50800
X55880Y48260
X55880Y45720
X55880Y43180
X55880Y40640
X55880Y38100
X55880Y22860
X55880Y20320
X55880Y17780
X55880Y33020
X55880Y30480
X55880Y27940
X55880Y25400
T3
X44450Y55880
X29210Y55880
X31750Y55880
X35560Y55880
X38100Y55880
X40640Y55880
X26670Y55880
X46990Y55880
X49530Y55880
X46990Y52070
X46990Y49530
X46990Y46990
X46990Y44450
X49530Y52070
X49530Y49530
X49530Y46990
X49530Y44450
T4
X33020Y31750
X33020Y34290
X33020Y36830
X33020Y39370
X33020Y41910
X33020Y44450
X33020Y46990
X33020Y49530
X33020Y26670
X20320Y60960
X22860Y60960
X25400Y60960
X27940Y60960
X30480Y60960
X33020Y60960
X36830Y44450
X36830Y41910
X36830Y39370
X36830Y34290
X36830Y31750
X36830Y29210
X36830Y26670
X36830Y24130
X36830Y21590
X25400Y49530
X25400Y46990
X25400Y44450
X25400Y41910
X25400Y39370
X25400Y36830
X25400Y31750
X25400Y34290
X25400Y29210
X25400Y26670
X25400Y24130
X25400Y21590
X25400Y19050
X25400Y16510
X33020Y16510
X33020Y19050
X33020Y21590
X33020Y24130
X36830Y36830
X33020Y29210
T5
X30480Y33223
X22250Y44196
X35509Y25298
X38710Y44958
M30