M48
;GenerationSoftware,Autodesk,EAGLE,9.4.2*%
;CreationDate,2019-07-14T04:28:49Z*%
FMAT,2
ICI,OFF
METRIC,TZ,000.000
T5C0.350
T4C0.813
T3C1.016
T2C1.200
T1C2.000
%
G90
M71
T1
X18232Y11720
X57785Y62865
T2
X20320Y36830
X20320Y49530
X20320Y52070
X55880Y46990
X55880Y39370
X55880Y36830
X55880Y34290
X55880Y31750
X55880Y52070
X55880Y24130
X55880Y21590
X55880Y19050
X20320Y54610
X20320Y46990
X20320Y44450
X20320Y41910
X20320Y39370
X55880Y16510
X20320Y34290
X20320Y31750
X20320Y29210
X20320Y26670
X20320Y24130
X20320Y21590
X20320Y19050
X20320Y16510
X55880Y54610
X55880Y49530
T3
X26670Y55880
X29210Y55880
X31750Y55880
X35560Y55880
X38100Y55880
X44450Y55880
X46990Y55880
X49530Y55880
X40640Y55880
T4
X25400Y26670
X25400Y24130
X25400Y21590
X25400Y19050
X36830Y44450
X33020Y16510
X33020Y19050
X33020Y21590
X33020Y24130
X33020Y26670
X33020Y29210
X33020Y31750
X33020Y34290
X33020Y36830
X33020Y39370
X33020Y41910
X33020Y44450
X33020Y46990
X33020Y49530
X20320Y60960
X22860Y60960
X25400Y60960
X27940Y60960
X30480Y60960
X33020Y60960
X36830Y41910
X36830Y39370
X36830Y36830
X36830Y34290
X36830Y31750
X36830Y29210
X36830Y26670
X36830Y24130
X25400Y16510
X36830Y21590
X25400Y49530
X25400Y46990
X25400Y44450
X25400Y41910
X25400Y39370
X25400Y36830
X25400Y34290
X25400Y31750
X25400Y29210
T5
X39472Y53035
X39472Y25451
X45720Y38557
M30