M48
;GenerationSoftware,Autodesk,EAGLE,9.6.2*%
;CreationDate,2022-12-29T04:12:54Z*%
FMAT,2
ICI,OFF
METRIC,TZ,000.000
T5C0.813
T4C0.914
T3C1.016
T2C1.200
T1C2.000
%
G90
M71
T1
X57785Y62865
X17780Y11430
T2
X41910Y13970
X34290Y13970
X36830Y13970
X39370Y13970
T3
X35560Y24130
X38100Y24130
X40640Y24130
T4
X24330Y48280
X26870Y45740
X24330Y45740
X26870Y43200
X24330Y43200
X26870Y40660
X24330Y40660
X26870Y38120
X24330Y38120
X26870Y35580
X24330Y35580
X26870Y33040
X24330Y33040
X26870Y30500
X24330Y30500
X26870Y27960
X24330Y27960
X26870Y25420
X24330Y25420
X26870Y22880
X24330Y22880
X26870Y20340
X24330Y20340
X26870Y17800
X24330Y17800
X26870Y15260
X24330Y15260
X26870Y12720
X24330Y12720
X51870Y55900
X49330Y55900
X51870Y53360
X49330Y53360
X51870Y50820
X49330Y50820
X51870Y48280
X49330Y48280
X51870Y45740
X49330Y45740
X51870Y43200
X49330Y43200
X51870Y40660
X49330Y40660
X51870Y38120
X49330Y38120
X51870Y35580
X49330Y35580
X51870Y33040
X49330Y33040
X51870Y30500
X49330Y30500
X51870Y27960
X49330Y27960
X51870Y25420
X49330Y25420
X51870Y22880
X49330Y22880
X51870Y20340
X49330Y20340
X51870Y17800
X49330Y17800
X51870Y15260
X49330Y15260
X51870Y12720
X49330Y12720
X26870Y55900
X24330Y55900
X26870Y53360
X24330Y53360
X26870Y50820
X24330Y50820
X26870Y48280
T5
X41910Y33020
X41910Y45720
X34290Y45720
X41910Y35560
X41910Y38100
X41910Y43180
X41910Y40640
X25400Y60960
X34290Y40640
X34290Y38100
X34290Y35560
X34290Y33020
X34290Y30480
X22860Y60960
X20320Y60960
X27940Y60960
X30480Y60960
X33020Y60960
X41910Y30480
X34290Y43180
M30