M48
;GenerationSoftware,Autodesk,EAGLE,9.6.2*%
;CreationDate,2021-04-03T21:18:58Z*%
FMAT,2
ICI,OFF
METRIC,TZ,000.000
T5C0.813
T4C0.914
T3C1.016
T2C1.200
T1C2.000
%
G90
M71
T1
X57785Y62865
X17780Y11430
T2
X41910Y13970
X34290Y13970
X36830Y13970
X39370Y13970
T3
X35560Y24130
X38100Y24130
X40640Y24130
T4
X51870Y22840
X49330Y25380
X51870Y25380
X49330Y27920
X51870Y27920
X49330Y30460
X51870Y30460
X49330Y33000
X51870Y33000
X49330Y35540
X51870Y35540
X49330Y38080
X51870Y38080
X49330Y40620
X51870Y40620
X49330Y43160
X51870Y43160
X49330Y45700
X51870Y45700
X49330Y48240
X51870Y48240
X49330Y50780
X51870Y50780
X49330Y53320
X51870Y53320
X49330Y55860
X51870Y55860
X49330Y58400
X51870Y58400
X24330Y15220
X26870Y15220
X24330Y17760
X26870Y17760
X24330Y20300
X26870Y20300
X24330Y22840
X26870Y22840
X24330Y25380
X26870Y25380
X24330Y27920
X26870Y27920
X24330Y30460
X26870Y30460
X24330Y33000
X26870Y33000
X24330Y35540
X26870Y35540
X24330Y38080
X26870Y38080
X24330Y40620
X26870Y40620
X24330Y43160
X26870Y43160
X24330Y45700
X26870Y45700
X24330Y48240
X26870Y48240
X24330Y50780
X26870Y50780
X24330Y53320
X26870Y53320
X24330Y55860
X26870Y55860
X24330Y58400
X26870Y58400
X49330Y15220
X51870Y15220
X49330Y17760
X51870Y17760
X49330Y20300
X51870Y20300
X49330Y22840
T5
X41910Y33020
X41910Y45720
X34290Y45720
X41910Y35560
X41910Y38100
X41910Y43180
X41910Y40640
X25400Y60960
X34290Y40640
X34290Y38100
X34290Y35560
X34290Y33020
X34290Y30480
X22860Y60960
X20320Y60960
X27940Y60960
X30480Y60960
X33020Y60960
X41910Y30480
X34290Y43180
M30