G04 EAGLE Gerber RS-274X export*
G75*
%MOMM*%
%FSLAX34Y34*%
%LPD*%
%INBottom Copper*%
%IPPOS*%
%AMOC8*
5,1,8,0,0,1.08239X$1,22.5*%
G01*
%ADD10C,1.524000*%
%ADD11C,1.320800*%
%ADD12C,1.800000*%
%ADD13P,1.649562X8X292.500000*%
%ADD14C,0.152400*%
%ADD15C,0.756400*%

G36*
X582698Y111764D02*
X582698Y111764D01*
X582717Y111762D01*
X582819Y111784D01*
X582921Y111800D01*
X582938Y111810D01*
X582958Y111814D01*
X583047Y111867D01*
X583138Y111916D01*
X583152Y111930D01*
X583169Y111940D01*
X583236Y112019D01*
X583308Y112094D01*
X583316Y112112D01*
X583329Y112127D01*
X583368Y112223D01*
X583411Y112317D01*
X583413Y112337D01*
X583421Y112355D01*
X583439Y112522D01*
X583439Y608004D01*
X583432Y608049D01*
X583434Y608095D01*
X583412Y608170D01*
X583400Y608247D01*
X583378Y608287D01*
X583365Y608332D01*
X583321Y608396D01*
X583284Y608464D01*
X583251Y608496D01*
X583225Y608534D01*
X583162Y608580D01*
X583106Y608634D01*
X583065Y608653D01*
X583028Y608680D01*
X582953Y608704D01*
X582883Y608737D01*
X582837Y608742D01*
X582794Y608756D01*
X582716Y608756D01*
X582639Y608764D01*
X582594Y608755D01*
X582548Y608754D01*
X582417Y608716D01*
X582398Y608712D01*
X582394Y608709D01*
X582387Y608707D01*
X581860Y608489D01*
X573840Y608489D01*
X566430Y611559D01*
X560759Y617230D01*
X557689Y624640D01*
X557689Y632660D01*
X559233Y636387D01*
X559243Y636431D01*
X559263Y636473D01*
X559271Y636550D01*
X559289Y636626D01*
X559285Y636672D01*
X559290Y636717D01*
X559273Y636794D01*
X559266Y636871D01*
X559247Y636913D01*
X559238Y636958D01*
X559198Y637025D01*
X559166Y637096D01*
X559135Y637130D01*
X559111Y637169D01*
X559052Y637220D01*
X559000Y637277D01*
X558959Y637299D01*
X558924Y637329D01*
X558852Y637358D01*
X558784Y637395D01*
X558739Y637404D01*
X558696Y637421D01*
X558560Y637436D01*
X558542Y637439D01*
X558537Y637438D01*
X558530Y637439D01*
X176022Y637439D01*
X176002Y637436D01*
X175983Y637438D01*
X175881Y637416D01*
X175779Y637400D01*
X175762Y637390D01*
X175742Y637386D01*
X175653Y637333D01*
X175562Y637284D01*
X175548Y637270D01*
X175531Y637260D01*
X175464Y637181D01*
X175392Y637106D01*
X175384Y637088D01*
X175371Y637073D01*
X175332Y636977D01*
X175289Y636883D01*
X175287Y636863D01*
X175279Y636845D01*
X175261Y636678D01*
X175261Y494276D01*
X175272Y494206D01*
X175274Y494134D01*
X175292Y494085D01*
X175300Y494034D01*
X175334Y493970D01*
X175359Y493903D01*
X175391Y493862D01*
X175416Y493816D01*
X175468Y493767D01*
X175512Y493711D01*
X175556Y493683D01*
X175594Y493647D01*
X175659Y493617D01*
X175719Y493578D01*
X175770Y493565D01*
X175817Y493543D01*
X175888Y493535D01*
X175958Y493518D01*
X176010Y493522D01*
X176061Y493516D01*
X176132Y493531D01*
X176203Y493537D01*
X176251Y493557D01*
X176302Y493568D01*
X176363Y493605D01*
X176429Y493633D01*
X176485Y493678D01*
X176513Y493695D01*
X176528Y493712D01*
X176560Y493738D01*
X177322Y494500D01*
X177375Y494574D01*
X177435Y494644D01*
X177447Y494674D01*
X177466Y494700D01*
X177493Y494787D01*
X177527Y494872D01*
X177531Y494913D01*
X177538Y494935D01*
X177537Y494967D01*
X177545Y495039D01*
X177545Y566351D01*
X194125Y582931D01*
X276106Y582931D01*
X276176Y582942D01*
X276248Y582944D01*
X276297Y582962D01*
X276348Y582970D01*
X276412Y583004D01*
X276479Y583029D01*
X276520Y583061D01*
X276566Y583086D01*
X276615Y583137D01*
X276671Y583182D01*
X276699Y583226D01*
X276735Y583264D01*
X276765Y583329D01*
X276804Y583389D01*
X276817Y583440D01*
X276839Y583487D01*
X276847Y583558D01*
X276864Y583628D01*
X276860Y583680D01*
X276866Y583731D01*
X276851Y583802D01*
X276845Y583873D01*
X276825Y583921D01*
X276814Y583972D01*
X276777Y584033D01*
X276749Y584099D01*
X276704Y584155D01*
X276687Y584183D01*
X276670Y584198D01*
X276644Y584230D01*
X262163Y598711D01*
X262126Y598738D01*
X262095Y598772D01*
X262026Y598809D01*
X261963Y598855D01*
X261919Y598868D01*
X261879Y598890D01*
X261802Y598904D01*
X261728Y598927D01*
X261682Y598926D01*
X261637Y598934D01*
X261560Y598923D01*
X261482Y598921D01*
X261439Y598905D01*
X261394Y598898D01*
X261324Y598863D01*
X261251Y598836D01*
X261215Y598808D01*
X261174Y598787D01*
X261120Y598731D01*
X261059Y598683D01*
X261034Y598644D01*
X261002Y598611D01*
X260936Y598491D01*
X260926Y598476D01*
X260925Y598471D01*
X260921Y598464D01*
X260891Y598391D01*
X258605Y596105D01*
X255617Y594867D01*
X252383Y594867D01*
X249395Y596105D01*
X247109Y598391D01*
X245871Y601379D01*
X245871Y617821D01*
X247109Y620809D01*
X249395Y623095D01*
X252383Y624333D01*
X255617Y624333D01*
X258605Y623095D01*
X260891Y620809D01*
X262129Y617821D01*
X262129Y605528D01*
X262143Y605438D01*
X262151Y605347D01*
X262163Y605318D01*
X262168Y605286D01*
X262211Y605205D01*
X262247Y605121D01*
X262273Y605089D01*
X262284Y605068D01*
X262307Y605046D01*
X262352Y604990D01*
X284188Y583154D01*
X284262Y583101D01*
X284332Y583041D01*
X284362Y583029D01*
X284388Y583010D01*
X284475Y582983D01*
X284560Y582949D01*
X284601Y582945D01*
X284623Y582938D01*
X284655Y582939D01*
X284727Y582931D01*
X297442Y582931D01*
X297512Y582942D01*
X297584Y582944D01*
X297633Y582962D01*
X297684Y582970D01*
X297748Y583004D01*
X297815Y583029D01*
X297856Y583061D01*
X297902Y583086D01*
X297951Y583137D01*
X298007Y583182D01*
X298035Y583226D01*
X298071Y583264D01*
X298101Y583329D01*
X298140Y583389D01*
X298153Y583440D01*
X298175Y583487D01*
X298183Y583558D01*
X298200Y583628D01*
X298196Y583680D01*
X298202Y583731D01*
X298187Y583802D01*
X298181Y583873D01*
X298161Y583921D01*
X298150Y583972D01*
X298113Y584033D01*
X298085Y584099D01*
X298040Y584155D01*
X298023Y584183D01*
X298006Y584198D01*
X297980Y584230D01*
X285593Y596617D01*
X285577Y596628D01*
X285565Y596644D01*
X285477Y596700D01*
X285393Y596760D01*
X285374Y596766D01*
X285358Y596777D01*
X285257Y596802D01*
X285158Y596833D01*
X285138Y596832D01*
X285119Y596837D01*
X285016Y596829D01*
X284912Y596826D01*
X284894Y596820D01*
X284874Y596818D01*
X284779Y596778D01*
X284681Y596742D01*
X284666Y596729D01*
X284648Y596722D01*
X284517Y596617D01*
X284005Y596105D01*
X281017Y594867D01*
X277783Y594867D01*
X274795Y596105D01*
X272509Y598391D01*
X271271Y601379D01*
X271271Y617821D01*
X272509Y620809D01*
X274795Y623095D01*
X277783Y624333D01*
X281017Y624333D01*
X284005Y623095D01*
X286291Y620809D01*
X287529Y617821D01*
X287529Y601464D01*
X287543Y601374D01*
X287551Y601283D01*
X287563Y601254D01*
X287568Y601222D01*
X287611Y601141D01*
X287647Y601057D01*
X287673Y601025D01*
X287684Y601004D01*
X287707Y600982D01*
X287752Y600926D01*
X302476Y586202D01*
X302550Y586149D01*
X302620Y586089D01*
X302650Y586077D01*
X302676Y586058D01*
X302763Y586031D01*
X302848Y585997D01*
X302889Y585993D01*
X302911Y585986D01*
X302943Y585987D01*
X303015Y585979D01*
X410903Y585979D01*
X433579Y563303D01*
X433579Y510279D01*
X433593Y510188D01*
X433601Y510098D01*
X433613Y510068D01*
X433618Y510036D01*
X433661Y509955D01*
X433697Y509871D01*
X433723Y509839D01*
X433734Y509818D01*
X433757Y509796D01*
X433802Y509740D01*
X464766Y478776D01*
X464783Y478764D01*
X464795Y478748D01*
X464882Y478692D01*
X464966Y478632D01*
X464985Y478626D01*
X465002Y478615D01*
X465102Y478590D01*
X465201Y478560D01*
X465221Y478560D01*
X465240Y478555D01*
X465343Y478563D01*
X465447Y478566D01*
X465466Y478573D01*
X465486Y478574D01*
X465581Y478615D01*
X465678Y478650D01*
X465694Y478663D01*
X465712Y478671D01*
X465843Y478776D01*
X466112Y479045D01*
X473688Y479045D01*
X479045Y473688D01*
X479045Y466112D01*
X473688Y460755D01*
X466112Y460755D01*
X460755Y466112D01*
X460755Y473688D01*
X461532Y474465D01*
X461544Y474481D01*
X461560Y474494D01*
X461616Y474581D01*
X461676Y474665D01*
X461682Y474684D01*
X461693Y474701D01*
X461718Y474801D01*
X461748Y474900D01*
X461748Y474920D01*
X461753Y474939D01*
X461745Y475042D01*
X461742Y475146D01*
X461735Y475165D01*
X461734Y475184D01*
X461693Y475279D01*
X461658Y475377D01*
X461645Y475392D01*
X461637Y475411D01*
X461532Y475542D01*
X429005Y508069D01*
X429005Y561093D01*
X428991Y561184D01*
X428983Y561274D01*
X428971Y561304D01*
X428966Y561336D01*
X428923Y561417D01*
X428887Y561501D01*
X428861Y561533D01*
X428850Y561554D01*
X428827Y561576D01*
X428782Y561632D01*
X409232Y581182D01*
X409158Y581235D01*
X409088Y581295D01*
X409058Y581307D01*
X409032Y581326D01*
X408945Y581353D01*
X408860Y581387D01*
X408819Y581391D01*
X408797Y581398D01*
X408765Y581397D01*
X408693Y581405D01*
X328922Y581405D01*
X328852Y581394D01*
X328780Y581392D01*
X328731Y581374D01*
X328680Y581366D01*
X328616Y581332D01*
X328549Y581307D01*
X328508Y581275D01*
X328462Y581250D01*
X328413Y581198D01*
X328357Y581154D01*
X328329Y581110D01*
X328293Y581072D01*
X328263Y581007D01*
X328224Y580947D01*
X328211Y580896D01*
X328189Y580849D01*
X328181Y580778D01*
X328164Y580708D01*
X328168Y580656D01*
X328162Y580605D01*
X328177Y580534D01*
X328183Y580463D01*
X328203Y580415D01*
X328214Y580364D01*
X328251Y580303D01*
X328279Y580237D01*
X328324Y580181D01*
X328341Y580153D01*
X328358Y580138D01*
X328384Y580106D01*
X342100Y566390D01*
X343663Y564827D01*
X343663Y546855D01*
X343677Y546764D01*
X343685Y546674D01*
X343697Y546644D01*
X343702Y546612D01*
X343745Y546531D01*
X343781Y546447D01*
X343807Y546415D01*
X343818Y546394D01*
X343841Y546372D01*
X343886Y546316D01*
X442684Y447518D01*
X442758Y447465D01*
X442828Y447405D01*
X442858Y447393D01*
X442884Y447374D01*
X442971Y447347D01*
X443056Y447313D01*
X443097Y447309D01*
X443119Y447302D01*
X443151Y447303D01*
X443223Y447295D01*
X459994Y447295D01*
X460014Y447298D01*
X460033Y447296D01*
X460135Y447318D01*
X460237Y447334D01*
X460254Y447344D01*
X460274Y447348D01*
X460363Y447401D01*
X460454Y447450D01*
X460468Y447464D01*
X460485Y447474D01*
X460552Y447553D01*
X460624Y447628D01*
X460632Y447646D01*
X460645Y447661D01*
X460684Y447757D01*
X460727Y447851D01*
X460729Y447871D01*
X460737Y447889D01*
X460755Y448056D01*
X460755Y448288D01*
X466112Y453645D01*
X473688Y453645D01*
X479045Y448288D01*
X479045Y440712D01*
X473688Y435355D01*
X466112Y435355D01*
X460755Y440712D01*
X460755Y441960D01*
X460752Y441980D01*
X460754Y441999D01*
X460732Y442101D01*
X460716Y442203D01*
X460706Y442220D01*
X460702Y442240D01*
X460649Y442329D01*
X460600Y442420D01*
X460586Y442434D01*
X460576Y442451D01*
X460497Y442518D01*
X460422Y442590D01*
X460404Y442598D01*
X460389Y442611D01*
X460293Y442650D01*
X460199Y442693D01*
X460179Y442695D01*
X460161Y442703D01*
X459994Y442721D01*
X441013Y442721D01*
X439450Y444284D01*
X433354Y450380D01*
X433338Y450391D01*
X433326Y450407D01*
X433238Y450463D01*
X433155Y450523D01*
X433136Y450529D01*
X433119Y450540D01*
X433018Y450565D01*
X432919Y450596D01*
X432900Y450595D01*
X432880Y450600D01*
X432777Y450592D01*
X432674Y450589D01*
X432655Y450582D01*
X432635Y450581D01*
X432540Y450541D01*
X432443Y450505D01*
X432427Y450492D01*
X432409Y450485D01*
X432278Y450380D01*
X381537Y399639D01*
X381525Y399623D01*
X381510Y399611D01*
X381454Y399523D01*
X381394Y399439D01*
X381388Y399420D01*
X381377Y399404D01*
X381352Y399303D01*
X381321Y399204D01*
X381322Y399184D01*
X381317Y399165D01*
X381325Y399062D01*
X381328Y398959D01*
X381334Y398940D01*
X381336Y398920D01*
X381376Y398825D01*
X381412Y398727D01*
X381425Y398712D01*
X381432Y398694D01*
X381537Y398563D01*
X381795Y398305D01*
X383033Y395317D01*
X383033Y392083D01*
X381795Y389095D01*
X379509Y386809D01*
X376521Y385571D01*
X364737Y385571D01*
X364646Y385557D01*
X364556Y385549D01*
X364526Y385537D01*
X364494Y385532D01*
X364413Y385489D01*
X364329Y385453D01*
X364297Y385427D01*
X364276Y385416D01*
X364254Y385393D01*
X364198Y385348D01*
X351506Y372656D01*
X351453Y372582D01*
X351393Y372512D01*
X351381Y372482D01*
X351362Y372456D01*
X351335Y372369D01*
X351326Y372346D01*
X351311Y372313D01*
X351310Y372306D01*
X351301Y372284D01*
X351297Y372243D01*
X351290Y372221D01*
X351291Y372189D01*
X351283Y372117D01*
X351283Y361765D01*
X342323Y352805D01*
X319779Y352805D01*
X319688Y352791D01*
X319598Y352783D01*
X319568Y352771D01*
X319536Y352766D01*
X319455Y352723D01*
X319371Y352687D01*
X319339Y352661D01*
X319318Y352650D01*
X319296Y352627D01*
X319240Y352582D01*
X313406Y346748D01*
X313361Y346686D01*
X313331Y346654D01*
X313325Y346642D01*
X313293Y346604D01*
X313281Y346574D01*
X313262Y346548D01*
X313235Y346461D01*
X313201Y346376D01*
X313197Y346335D01*
X313190Y346313D01*
X313191Y346281D01*
X313183Y346209D01*
X313183Y267277D01*
X311620Y265714D01*
X267491Y221585D01*
X267479Y221569D01*
X267464Y221556D01*
X267408Y221469D01*
X267348Y221385D01*
X267342Y221366D01*
X267331Y221350D01*
X267306Y221249D01*
X267275Y221150D01*
X267276Y221130D01*
X267271Y221111D01*
X267279Y221008D01*
X267282Y220905D01*
X267288Y220886D01*
X267290Y220866D01*
X267331Y220771D01*
X267366Y220673D01*
X267379Y220658D01*
X267386Y220640D01*
X267491Y220509D01*
X267495Y220504D01*
X268733Y217517D01*
X268733Y214283D01*
X267495Y211295D01*
X265209Y209009D01*
X262221Y207771D01*
X245779Y207771D01*
X242791Y209009D01*
X240505Y211295D01*
X239267Y214283D01*
X239267Y217517D01*
X240505Y220505D01*
X242791Y222791D01*
X245779Y224029D01*
X262221Y224029D01*
X262632Y223858D01*
X262746Y223832D01*
X262859Y223803D01*
X262865Y223804D01*
X262871Y223802D01*
X262988Y223813D01*
X263104Y223822D01*
X263110Y223825D01*
X263116Y223825D01*
X263224Y223873D01*
X263331Y223919D01*
X263336Y223923D01*
X263341Y223925D01*
X263355Y223938D01*
X263462Y224023D01*
X308386Y268948D01*
X308439Y269022D01*
X308499Y269092D01*
X308511Y269122D01*
X308530Y269148D01*
X308557Y269235D01*
X308591Y269320D01*
X308595Y269361D01*
X308602Y269383D01*
X308601Y269415D01*
X308609Y269487D01*
X308609Y326699D01*
X308598Y326769D01*
X308596Y326841D01*
X308578Y326890D01*
X308570Y326941D01*
X308536Y327005D01*
X308511Y327072D01*
X308479Y327113D01*
X308454Y327159D01*
X308402Y327208D01*
X308358Y327264D01*
X308314Y327292D01*
X308276Y327328D01*
X308211Y327358D01*
X308151Y327397D01*
X308100Y327410D01*
X308053Y327432D01*
X307982Y327440D01*
X307912Y327457D01*
X307860Y327453D01*
X307809Y327459D01*
X307738Y327444D01*
X307667Y327438D01*
X307619Y327418D01*
X307568Y327407D01*
X307507Y327370D01*
X307441Y327342D01*
X307385Y327297D01*
X307357Y327280D01*
X307342Y327263D01*
X307310Y327237D01*
X306998Y326925D01*
X302602Y326925D01*
X299493Y330034D01*
X299493Y334430D01*
X302290Y337227D01*
X302343Y337301D01*
X302403Y337371D01*
X302415Y337401D01*
X302434Y337427D01*
X302461Y337514D01*
X302495Y337599D01*
X302499Y337640D01*
X302506Y337662D01*
X302505Y337694D01*
X302513Y337765D01*
X302513Y346895D01*
X316045Y360427D01*
X318136Y360427D01*
X318206Y360438D01*
X318278Y360440D01*
X318327Y360458D01*
X318378Y360466D01*
X318442Y360500D01*
X318509Y360525D01*
X318550Y360557D01*
X318596Y360582D01*
X318645Y360634D01*
X318701Y360678D01*
X318729Y360722D01*
X318765Y360760D01*
X318795Y360825D01*
X318834Y360885D01*
X318847Y360936D01*
X318869Y360983D01*
X318877Y361054D01*
X318894Y361124D01*
X318890Y361176D01*
X318896Y361227D01*
X318881Y361298D01*
X318875Y361369D01*
X318855Y361417D01*
X318844Y361468D01*
X318807Y361529D01*
X318779Y361595D01*
X318734Y361651D01*
X318717Y361679D01*
X318700Y361694D01*
X318674Y361726D01*
X316705Y363695D01*
X315467Y366683D01*
X315467Y369917D01*
X316705Y372905D01*
X318991Y375191D01*
X321979Y376429D01*
X338421Y376429D01*
X338832Y376258D01*
X338946Y376232D01*
X339059Y376203D01*
X339065Y376204D01*
X339071Y376202D01*
X339188Y376213D01*
X339304Y376222D01*
X339310Y376225D01*
X339316Y376225D01*
X339424Y376273D01*
X339531Y376319D01*
X339536Y376323D01*
X339541Y376325D01*
X339555Y376338D01*
X339662Y376423D01*
X346486Y383248D01*
X346539Y383322D01*
X346599Y383392D01*
X346611Y383422D01*
X346630Y383448D01*
X346657Y383535D01*
X346691Y383620D01*
X346695Y383661D01*
X346702Y383683D01*
X346701Y383715D01*
X346709Y383787D01*
X346709Y401074D01*
X346698Y401144D01*
X346696Y401216D01*
X346678Y401265D01*
X346670Y401316D01*
X346636Y401380D01*
X346611Y401447D01*
X346579Y401488D01*
X346554Y401534D01*
X346503Y401583D01*
X346458Y401639D01*
X346414Y401667D01*
X346376Y401703D01*
X346311Y401733D01*
X346251Y401772D01*
X346200Y401785D01*
X346153Y401807D01*
X346082Y401815D01*
X346012Y401832D01*
X345960Y401828D01*
X345909Y401834D01*
X345838Y401819D01*
X345767Y401813D01*
X345719Y401793D01*
X345668Y401782D01*
X345607Y401745D01*
X345541Y401717D01*
X345485Y401672D01*
X345457Y401655D01*
X345442Y401638D01*
X345410Y401612D01*
X343437Y399639D01*
X343425Y399623D01*
X343410Y399611D01*
X343354Y399523D01*
X343294Y399439D01*
X343288Y399420D01*
X343277Y399404D01*
X343252Y399303D01*
X343221Y399204D01*
X343222Y399184D01*
X343217Y399165D01*
X343225Y399062D01*
X343228Y398958D01*
X343234Y398940D01*
X343236Y398920D01*
X343276Y398825D01*
X343312Y398727D01*
X343325Y398712D01*
X343332Y398694D01*
X343437Y398563D01*
X343695Y398305D01*
X344933Y395317D01*
X344933Y392083D01*
X343695Y389095D01*
X341409Y386809D01*
X338421Y385571D01*
X321979Y385571D01*
X318991Y386809D01*
X316705Y389095D01*
X315467Y392083D01*
X315467Y395317D01*
X316705Y398305D01*
X318991Y400591D01*
X321979Y401829D01*
X338421Y401829D01*
X338473Y401807D01*
X338587Y401781D01*
X338700Y401752D01*
X338706Y401753D01*
X338712Y401751D01*
X338829Y401762D01*
X338945Y401771D01*
X338951Y401774D01*
X338957Y401774D01*
X339065Y401822D01*
X339171Y401867D01*
X339177Y401872D01*
X339182Y401874D01*
X339196Y401887D01*
X339302Y401972D01*
X346486Y409156D01*
X346539Y409230D01*
X346599Y409300D01*
X346611Y409330D01*
X346630Y409356D01*
X346657Y409443D01*
X346691Y409528D01*
X346695Y409569D01*
X346702Y409591D01*
X346701Y409623D01*
X346709Y409695D01*
X346709Y414789D01*
X346695Y414879D01*
X346687Y414970D01*
X346675Y415000D01*
X346670Y415032D01*
X346627Y415113D01*
X346591Y415197D01*
X346565Y415229D01*
X346554Y415250D01*
X346531Y415272D01*
X346486Y415328D01*
X345562Y416252D01*
X345525Y416279D01*
X345494Y416313D01*
X345426Y416350D01*
X345362Y416396D01*
X345319Y416409D01*
X345278Y416431D01*
X345202Y416445D01*
X345127Y416468D01*
X345081Y416467D01*
X345036Y416475D01*
X344959Y416464D01*
X344881Y416462D01*
X344838Y416446D01*
X344793Y416439D01*
X344724Y416404D01*
X344650Y416377D01*
X344615Y416348D01*
X344574Y416328D01*
X344519Y416272D01*
X344458Y416223D01*
X344434Y416185D01*
X344401Y416152D01*
X344335Y416032D01*
X344325Y416016D01*
X344324Y416012D01*
X344320Y416005D01*
X343695Y414495D01*
X341409Y412209D01*
X338421Y410971D01*
X321979Y410971D01*
X318991Y412209D01*
X316705Y414495D01*
X315467Y417483D01*
X315467Y420717D01*
X315638Y421128D01*
X315664Y421242D01*
X315693Y421355D01*
X315692Y421361D01*
X315694Y421367D01*
X315683Y421484D01*
X315674Y421600D01*
X315671Y421606D01*
X315671Y421612D01*
X315623Y421720D01*
X315577Y421827D01*
X315573Y421832D01*
X315571Y421837D01*
X315558Y421851D01*
X315473Y421958D01*
X308648Y428782D01*
X308574Y428835D01*
X308504Y428895D01*
X308474Y428907D01*
X308448Y428926D01*
X308361Y428953D01*
X308276Y428987D01*
X308235Y428991D01*
X308213Y428998D01*
X308181Y428997D01*
X308109Y429005D01*
X241369Y429005D01*
X230662Y439712D01*
X230604Y439754D01*
X230552Y439803D01*
X230505Y439825D01*
X230463Y439855D01*
X230394Y439876D01*
X230329Y439907D01*
X230277Y439912D01*
X230227Y439928D01*
X230156Y439926D01*
X230085Y439934D01*
X230034Y439923D01*
X229982Y439921D01*
X229914Y439897D01*
X229844Y439882D01*
X229799Y439855D01*
X229751Y439837D01*
X229695Y439792D01*
X229633Y439755D01*
X229599Y439716D01*
X229559Y439683D01*
X229520Y439623D01*
X229473Y439568D01*
X229454Y439520D01*
X229426Y439476D01*
X229408Y439407D01*
X229381Y439340D01*
X229373Y439269D01*
X229365Y439238D01*
X229367Y439214D01*
X229363Y439174D01*
X229363Y399026D01*
X229374Y398956D01*
X229376Y398884D01*
X229394Y398835D01*
X229402Y398784D01*
X229436Y398720D01*
X229461Y398653D01*
X229493Y398612D01*
X229518Y398566D01*
X229570Y398517D01*
X229614Y398461D01*
X229658Y398433D01*
X229696Y398397D01*
X229761Y398367D01*
X229821Y398328D01*
X229872Y398315D01*
X229919Y398293D01*
X229990Y398285D01*
X230060Y398268D01*
X230112Y398272D01*
X230163Y398266D01*
X230234Y398281D01*
X230305Y398287D01*
X230353Y398307D01*
X230404Y398318D01*
X230465Y398355D01*
X230531Y398383D01*
X230587Y398428D01*
X230615Y398445D01*
X230630Y398462D01*
X230662Y398488D01*
X241369Y409195D01*
X245625Y409195D01*
X245715Y409209D01*
X245806Y409217D01*
X245836Y409229D01*
X245868Y409234D01*
X245949Y409277D01*
X246033Y409313D01*
X246065Y409339D01*
X246086Y409350D01*
X246108Y409373D01*
X246164Y409418D01*
X246418Y409672D01*
X246460Y409730D01*
X246509Y409782D01*
X246531Y409829D01*
X246561Y409871D01*
X246582Y409940D01*
X246613Y410005D01*
X246618Y410057D01*
X246634Y410107D01*
X246632Y410178D01*
X246640Y410249D01*
X246629Y410300D01*
X246627Y410352D01*
X246603Y410420D01*
X246588Y410490D01*
X246561Y410535D01*
X246543Y410583D01*
X246498Y410639D01*
X246461Y410701D01*
X246422Y410735D01*
X246389Y410775D01*
X246329Y410814D01*
X246274Y410861D01*
X246226Y410880D01*
X246182Y410908D01*
X246113Y410926D01*
X246046Y410953D01*
X245975Y410961D01*
X245944Y410969D01*
X245920Y410967D01*
X245880Y410971D01*
X245779Y410971D01*
X242791Y412209D01*
X240505Y414495D01*
X239267Y417483D01*
X239267Y420717D01*
X240505Y423705D01*
X242791Y425991D01*
X245779Y427229D01*
X262221Y427229D01*
X265209Y425991D01*
X267495Y423705D01*
X268733Y420717D01*
X268733Y417483D01*
X267495Y414495D01*
X265209Y412209D01*
X262221Y410971D01*
X254501Y410971D01*
X254410Y410957D01*
X254320Y410949D01*
X254290Y410937D01*
X254258Y410932D01*
X254177Y410889D01*
X254093Y410853D01*
X254061Y410827D01*
X254040Y410816D01*
X254018Y410793D01*
X253962Y410748D01*
X247835Y404621D01*
X243579Y404621D01*
X243488Y404607D01*
X243398Y404599D01*
X243368Y404587D01*
X243336Y404582D01*
X243255Y404539D01*
X243171Y404503D01*
X243139Y404477D01*
X243118Y404466D01*
X243096Y404443D01*
X243040Y404398D01*
X232634Y393992D01*
X232581Y393918D01*
X232521Y393848D01*
X232509Y393818D01*
X232490Y393792D01*
X232463Y393705D01*
X232429Y393620D01*
X232425Y393579D01*
X232418Y393557D01*
X232419Y393525D01*
X232411Y393453D01*
X232411Y376166D01*
X232422Y376096D01*
X232424Y376024D01*
X232442Y375975D01*
X232450Y375924D01*
X232484Y375860D01*
X232509Y375793D01*
X232541Y375752D01*
X232566Y375706D01*
X232618Y375657D01*
X232662Y375601D01*
X232706Y375573D01*
X232744Y375537D01*
X232809Y375507D01*
X232869Y375468D01*
X232920Y375455D01*
X232967Y375433D01*
X233038Y375425D01*
X233108Y375408D01*
X233160Y375412D01*
X233211Y375406D01*
X233282Y375421D01*
X233353Y375427D01*
X233401Y375447D01*
X233452Y375458D01*
X233513Y375495D01*
X233579Y375523D01*
X233635Y375568D01*
X233663Y375585D01*
X233678Y375602D01*
X233710Y375628D01*
X241369Y383287D01*
X245625Y383287D01*
X245715Y383301D01*
X245806Y383309D01*
X245836Y383321D01*
X245868Y383326D01*
X245949Y383369D01*
X246033Y383405D01*
X246065Y383431D01*
X246086Y383442D01*
X246108Y383465D01*
X246164Y383510D01*
X246926Y384272D01*
X246968Y384330D01*
X247017Y384382D01*
X247039Y384429D01*
X247069Y384471D01*
X247090Y384540D01*
X247121Y384605D01*
X247126Y384657D01*
X247142Y384707D01*
X247140Y384778D01*
X247148Y384849D01*
X247137Y384900D01*
X247135Y384952D01*
X247111Y385020D01*
X247096Y385090D01*
X247069Y385135D01*
X247051Y385183D01*
X247006Y385239D01*
X246969Y385301D01*
X246930Y385335D01*
X246897Y385375D01*
X246837Y385414D01*
X246782Y385461D01*
X246734Y385480D01*
X246690Y385508D01*
X246621Y385526D01*
X246554Y385553D01*
X246483Y385561D01*
X246452Y385569D01*
X246428Y385567D01*
X246388Y385571D01*
X245779Y385571D01*
X242791Y386809D01*
X240505Y389095D01*
X239267Y392083D01*
X239267Y395317D01*
X240505Y398305D01*
X242791Y400591D01*
X245779Y401829D01*
X262221Y401829D01*
X265209Y400591D01*
X267495Y398305D01*
X268733Y395317D01*
X268733Y392083D01*
X267495Y389095D01*
X265209Y386809D01*
X262221Y385571D01*
X255008Y385571D01*
X254918Y385557D01*
X254827Y385549D01*
X254798Y385537D01*
X254766Y385532D01*
X254685Y385489D01*
X254601Y385453D01*
X254569Y385427D01*
X254548Y385416D01*
X254526Y385393D01*
X254470Y385348D01*
X249398Y380276D01*
X247835Y378713D01*
X243579Y378713D01*
X243488Y378699D01*
X243398Y378691D01*
X243368Y378679D01*
X243336Y378674D01*
X243255Y378631D01*
X243171Y378595D01*
X243139Y378569D01*
X243118Y378558D01*
X243096Y378535D01*
X243040Y378490D01*
X235682Y371132D01*
X235629Y371058D01*
X235594Y371018D01*
X235590Y371014D01*
X235590Y371013D01*
X235569Y370988D01*
X235557Y370958D01*
X235538Y370932D01*
X235511Y370845D01*
X235507Y370833D01*
X235487Y370791D01*
X235486Y370782D01*
X235477Y370760D01*
X235473Y370719D01*
X235466Y370697D01*
X235467Y370665D01*
X235459Y370593D01*
X235459Y252037D01*
X220091Y236669D01*
X220080Y236653D01*
X220064Y236641D01*
X220008Y236553D01*
X219948Y236470D01*
X219942Y236451D01*
X219931Y236434D01*
X219906Y236333D01*
X219875Y236235D01*
X219876Y236215D01*
X219871Y236195D01*
X219879Y236092D01*
X219882Y235989D01*
X219889Y235970D01*
X219890Y235950D01*
X219931Y235855D01*
X219966Y235758D01*
X219979Y235742D01*
X219987Y235724D01*
X220091Y235593D01*
X221122Y234562D01*
X222725Y230693D01*
X222725Y226507D01*
X221122Y222638D01*
X218478Y219994D01*
X218437Y219936D01*
X218387Y219884D01*
X218365Y219837D01*
X218335Y219795D01*
X218314Y219726D01*
X218284Y219661D01*
X218278Y219609D01*
X218263Y219559D01*
X218264Y219488D01*
X218257Y219417D01*
X218268Y219366D01*
X218269Y219314D01*
X218294Y219246D01*
X218309Y219176D01*
X218336Y219131D01*
X218353Y219083D01*
X218398Y219027D01*
X218435Y218965D01*
X218475Y218931D01*
X218507Y218891D01*
X218567Y218852D01*
X218622Y218805D01*
X218670Y218786D01*
X218714Y218758D01*
X218783Y218740D01*
X218850Y218713D01*
X218921Y218705D01*
X218953Y218697D01*
X218976Y218699D01*
X219017Y218695D01*
X221927Y218695D01*
X229363Y211259D01*
X229363Y194811D01*
X229377Y194720D01*
X229385Y194630D01*
X229397Y194600D01*
X229402Y194568D01*
X229445Y194487D01*
X229481Y194403D01*
X229507Y194371D01*
X229518Y194350D01*
X229541Y194328D01*
X229586Y194272D01*
X243040Y180818D01*
X243114Y180765D01*
X243184Y180705D01*
X243214Y180693D01*
X243240Y180674D01*
X243327Y180647D01*
X243412Y180613D01*
X243453Y180609D01*
X243475Y180602D01*
X243507Y180603D01*
X243579Y180595D01*
X304223Y180595D01*
X305786Y179032D01*
X315433Y169385D01*
X315470Y169358D01*
X315501Y169324D01*
X315570Y169287D01*
X315633Y169241D01*
X315677Y169228D01*
X315717Y169206D01*
X315793Y169192D01*
X315868Y169169D01*
X315914Y169170D01*
X315959Y169162D01*
X316036Y169173D01*
X316114Y169175D01*
X316157Y169191D01*
X316202Y169198D01*
X316272Y169233D01*
X316345Y169260D01*
X316381Y169288D01*
X316422Y169309D01*
X316476Y169365D01*
X316537Y169413D01*
X316562Y169452D01*
X316594Y169485D01*
X316660Y169605D01*
X316670Y169620D01*
X316671Y169625D01*
X316675Y169632D01*
X316705Y169705D01*
X318991Y171991D01*
X321979Y173229D01*
X338421Y173229D01*
X341409Y171991D01*
X343695Y169705D01*
X344933Y166717D01*
X344933Y163483D01*
X343695Y160495D01*
X341409Y158209D01*
X338421Y156971D01*
X321979Y156971D01*
X318991Y158209D01*
X316705Y160495D01*
X315519Y163359D01*
X315457Y163459D01*
X315397Y163559D01*
X315392Y163563D01*
X315389Y163568D01*
X315299Y163643D01*
X315210Y163719D01*
X315204Y163721D01*
X315199Y163725D01*
X315091Y163767D01*
X314982Y163811D01*
X314974Y163812D01*
X314970Y163813D01*
X314952Y163814D01*
X314815Y163829D01*
X314521Y163829D01*
X302552Y175798D01*
X302478Y175851D01*
X302408Y175911D01*
X302378Y175923D01*
X302352Y175942D01*
X302265Y175969D01*
X302180Y176003D01*
X302139Y176007D01*
X302117Y176014D01*
X302085Y176013D01*
X302013Y176021D01*
X241369Y176021D01*
X224789Y192601D01*
X224789Y209049D01*
X224775Y209140D01*
X224767Y209230D01*
X224755Y209260D01*
X224750Y209292D01*
X224707Y209373D01*
X224671Y209457D01*
X224645Y209489D01*
X224634Y209510D01*
X224611Y209532D01*
X224566Y209588D01*
X220256Y213898D01*
X220182Y213951D01*
X220112Y214011D01*
X220082Y214023D01*
X220056Y214042D01*
X219969Y214069D01*
X219884Y214103D01*
X219843Y214107D01*
X219821Y214114D01*
X219789Y214113D01*
X219717Y214121D01*
X217163Y214121D01*
X217067Y214106D01*
X216970Y214096D01*
X216946Y214086D01*
X216920Y214082D01*
X216835Y214036D01*
X216745Y213996D01*
X216726Y213979D01*
X216703Y213966D01*
X216636Y213896D01*
X216564Y213830D01*
X216552Y213807D01*
X216534Y213788D01*
X216493Y213700D01*
X216446Y213614D01*
X216441Y213589D01*
X216430Y213565D01*
X216419Y213468D01*
X216402Y213372D01*
X216406Y213346D01*
X216403Y213321D01*
X216424Y213225D01*
X216438Y213129D01*
X216450Y213106D01*
X216455Y213080D01*
X216505Y212997D01*
X216549Y212910D01*
X216568Y212891D01*
X216581Y212869D01*
X216655Y212806D01*
X216725Y212738D01*
X216754Y212722D01*
X216768Y212709D01*
X216799Y212697D01*
X216872Y212657D01*
X218162Y212122D01*
X221122Y209162D01*
X222725Y205293D01*
X222725Y201107D01*
X221122Y197238D01*
X218162Y194278D01*
X214293Y192675D01*
X192107Y192675D01*
X188238Y194278D01*
X185278Y197238D01*
X183675Y201107D01*
X183675Y205293D01*
X185278Y209162D01*
X187414Y211298D01*
X187455Y211356D01*
X187505Y211408D01*
X187527Y211455D01*
X187557Y211497D01*
X187578Y211566D01*
X187608Y211631D01*
X187614Y211683D01*
X187629Y211733D01*
X187628Y211804D01*
X187635Y211875D01*
X187624Y211926D01*
X187623Y211978D01*
X187598Y212046D01*
X187583Y212116D01*
X187556Y212161D01*
X187539Y212209D01*
X187494Y212265D01*
X187457Y212327D01*
X187417Y212361D01*
X187385Y212401D01*
X187325Y212440D01*
X187270Y212487D01*
X187222Y212506D01*
X187178Y212534D01*
X187109Y212552D01*
X187042Y212579D01*
X186971Y212587D01*
X186939Y212595D01*
X186916Y212593D01*
X186875Y212597D01*
X186505Y212597D01*
X177545Y221557D01*
X177545Y317253D01*
X177531Y317343D01*
X177523Y317434D01*
X177511Y317464D01*
X177506Y317496D01*
X177463Y317577D01*
X177427Y317661D01*
X177401Y317693D01*
X177390Y317714D01*
X177367Y317736D01*
X177322Y317792D01*
X176560Y318554D01*
X176502Y318596D01*
X176450Y318645D01*
X176403Y318667D01*
X176361Y318697D01*
X176292Y318718D01*
X176227Y318749D01*
X176175Y318754D01*
X176125Y318770D01*
X176054Y318768D01*
X175983Y318776D01*
X175932Y318765D01*
X175880Y318763D01*
X175812Y318739D01*
X175742Y318724D01*
X175697Y318697D01*
X175649Y318679D01*
X175593Y318634D01*
X175531Y318597D01*
X175497Y318558D01*
X175457Y318525D01*
X175418Y318465D01*
X175371Y318410D01*
X175352Y318362D01*
X175324Y318318D01*
X175306Y318249D01*
X175279Y318182D01*
X175271Y318111D01*
X175263Y318080D01*
X175265Y318056D01*
X175261Y318016D01*
X175261Y137242D01*
X175268Y137197D01*
X175266Y137151D01*
X175288Y137076D01*
X175300Y136999D01*
X175322Y136959D01*
X175335Y136914D01*
X175379Y136850D01*
X175416Y136782D01*
X175449Y136750D01*
X175475Y136712D01*
X175537Y136666D01*
X175594Y136612D01*
X175636Y136593D01*
X175672Y136566D01*
X175746Y136542D01*
X175817Y136509D01*
X175863Y136504D01*
X175906Y136489D01*
X175984Y136490D01*
X176061Y136482D01*
X176106Y136491D01*
X176152Y136492D01*
X176284Y136530D01*
X176302Y136534D01*
X176306Y136536D01*
X176313Y136539D01*
X178306Y137364D01*
X186326Y137364D01*
X193736Y134295D01*
X199408Y128623D01*
X202477Y121213D01*
X202477Y113193D01*
X202320Y112813D01*
X202309Y112769D01*
X202290Y112727D01*
X202281Y112650D01*
X202263Y112574D01*
X202268Y112528D01*
X202263Y112483D01*
X202279Y112406D01*
X202286Y112329D01*
X202305Y112287D01*
X202315Y112242D01*
X202355Y112175D01*
X202386Y112104D01*
X202418Y112070D01*
X202441Y112031D01*
X202500Y111980D01*
X202553Y111923D01*
X202593Y111901D01*
X202628Y111871D01*
X202700Y111842D01*
X202768Y111805D01*
X202813Y111796D01*
X202856Y111779D01*
X202992Y111764D01*
X203010Y111761D01*
X203015Y111762D01*
X203023Y111761D01*
X582678Y111761D01*
X582698Y111764D01*
G37*
G36*
X378304Y407685D02*
X378304Y407685D01*
X378394Y407693D01*
X378424Y407705D01*
X378456Y407710D01*
X378537Y407753D01*
X378621Y407789D01*
X378653Y407815D01*
X378674Y407826D01*
X378696Y407849D01*
X378752Y407894D01*
X381662Y410804D01*
X381690Y410843D01*
X381726Y410877D01*
X381762Y410943D01*
X381805Y411003D01*
X381820Y411050D01*
X381843Y411093D01*
X381856Y411167D01*
X381878Y411238D01*
X381876Y411287D01*
X381885Y411336D01*
X381873Y411409D01*
X381871Y411484D01*
X381854Y411530D01*
X381847Y411579D01*
X381812Y411645D01*
X381787Y411715D01*
X381756Y411754D01*
X381734Y411797D01*
X381680Y411849D01*
X381633Y411907D01*
X381592Y411934D01*
X381557Y411968D01*
X381489Y412000D01*
X381426Y412040D01*
X381379Y412052D01*
X381334Y412073D01*
X381260Y412082D01*
X381188Y412100D01*
X381139Y412097D01*
X381090Y412102D01*
X381017Y412087D01*
X380942Y412081D01*
X380897Y412062D01*
X380849Y412052D01*
X380738Y411994D01*
X380716Y411985D01*
X380709Y411979D01*
X380700Y411975D01*
X379236Y410996D01*
X377571Y410307D01*
X375805Y409955D01*
X369823Y409955D01*
X369823Y417577D01*
X383925Y417577D01*
X383697Y416433D01*
X383008Y414768D01*
X382029Y413304D01*
X382009Y413259D01*
X381980Y413219D01*
X381958Y413148D01*
X381927Y413080D01*
X381922Y413031D01*
X381908Y412984D01*
X381910Y412909D01*
X381902Y412835D01*
X381913Y412787D01*
X381914Y412738D01*
X381940Y412668D01*
X381957Y412595D01*
X381982Y412553D01*
X381999Y412507D01*
X382046Y412449D01*
X382084Y412385D01*
X382122Y412353D01*
X382153Y412315D01*
X382215Y412275D01*
X382273Y412227D01*
X382318Y412209D01*
X382359Y412182D01*
X382432Y412164D01*
X382501Y412137D01*
X382550Y412134D01*
X382598Y412122D01*
X382672Y412128D01*
X382747Y412124D01*
X382794Y412137D01*
X382843Y412141D01*
X382912Y412170D01*
X382984Y412191D01*
X383024Y412218D01*
X383069Y412238D01*
X383167Y412316D01*
X383187Y412329D01*
X383193Y412337D01*
X383200Y412342D01*
X390682Y419824D01*
X390735Y419898D01*
X390795Y419968D01*
X390807Y419998D01*
X390826Y420024D01*
X390853Y420111D01*
X390887Y420196D01*
X390891Y420237D01*
X390898Y420259D01*
X390897Y420291D01*
X390905Y420362D01*
X390905Y444047D01*
X390894Y444117D01*
X390892Y444189D01*
X390874Y444238D01*
X390866Y444289D01*
X390832Y444353D01*
X390807Y444420D01*
X390775Y444461D01*
X390750Y444507D01*
X390698Y444556D01*
X390654Y444612D01*
X390610Y444640D01*
X390572Y444676D01*
X390507Y444706D01*
X390447Y444745D01*
X390396Y444758D01*
X390349Y444780D01*
X390278Y444788D01*
X390208Y444805D01*
X390156Y444801D01*
X390105Y444807D01*
X390034Y444792D01*
X389963Y444786D01*
X389915Y444766D01*
X389864Y444755D01*
X389803Y444718D01*
X389737Y444690D01*
X389681Y444645D01*
X389653Y444628D01*
X389638Y444611D01*
X389606Y444585D01*
X389294Y444273D01*
X384898Y444273D01*
X384332Y444839D01*
X384274Y444881D01*
X384222Y444930D01*
X384175Y444952D01*
X384133Y444982D01*
X384064Y445004D01*
X383999Y445034D01*
X383947Y445039D01*
X383897Y445055D01*
X383826Y445053D01*
X383755Y445061D01*
X383704Y445050D01*
X383652Y445048D01*
X383584Y445024D01*
X383514Y445009D01*
X383469Y444982D01*
X383421Y444964D01*
X383365Y444919D01*
X383303Y444882D01*
X383269Y444843D01*
X383229Y444810D01*
X383190Y444750D01*
X383143Y444695D01*
X383124Y444647D01*
X383096Y444603D01*
X383078Y444534D01*
X383051Y444467D01*
X383043Y444396D01*
X383035Y444365D01*
X383037Y444342D01*
X383033Y444301D01*
X383033Y442883D01*
X381795Y439895D01*
X379509Y437609D01*
X376521Y436371D01*
X360079Y436371D01*
X357091Y437609D01*
X354805Y439895D01*
X353567Y442883D01*
X353567Y446117D01*
X354805Y449105D01*
X357091Y451391D01*
X360079Y452629D01*
X376521Y452629D01*
X379509Y451391D01*
X380490Y450410D01*
X380548Y450368D01*
X380600Y450319D01*
X380647Y450297D01*
X380689Y450266D01*
X380758Y450245D01*
X380823Y450215D01*
X380875Y450209D01*
X380925Y450194D01*
X380996Y450196D01*
X381067Y450188D01*
X381118Y450199D01*
X381170Y450200D01*
X381238Y450225D01*
X381308Y450240D01*
X381353Y450267D01*
X381401Y450285D01*
X381457Y450330D01*
X381519Y450367D01*
X381553Y450406D01*
X381593Y450439D01*
X381632Y450499D01*
X381679Y450553D01*
X381698Y450602D01*
X381726Y450646D01*
X381744Y450715D01*
X381771Y450782D01*
X381779Y450853D01*
X381787Y450884D01*
X381785Y450907D01*
X381789Y450948D01*
X381789Y451338D01*
X381775Y451428D01*
X381767Y451519D01*
X381755Y451548D01*
X381750Y451580D01*
X381707Y451661D01*
X381671Y451745D01*
X381645Y451777D01*
X381634Y451798D01*
X381611Y451820D01*
X381566Y451876D01*
X352844Y480598D01*
X352770Y480651D01*
X352700Y480711D01*
X352670Y480723D01*
X352644Y480742D01*
X352557Y480769D01*
X352472Y480803D01*
X352431Y480807D01*
X352409Y480814D01*
X352377Y480813D01*
X352305Y480821D01*
X290137Y480821D01*
X244640Y526318D01*
X244566Y526371D01*
X244496Y526431D01*
X244466Y526443D01*
X244440Y526462D01*
X244353Y526489D01*
X244268Y526523D01*
X244227Y526527D01*
X244205Y526534D01*
X244173Y526533D01*
X244101Y526541D01*
X224605Y526541D01*
X222685Y528461D01*
X222648Y528488D01*
X222617Y528521D01*
X222549Y528559D01*
X222486Y528604D01*
X222442Y528618D01*
X222401Y528640D01*
X222325Y528654D01*
X222250Y528677D01*
X222205Y528676D01*
X222159Y528684D01*
X222082Y528672D01*
X222005Y528670D01*
X221961Y528655D01*
X221916Y528648D01*
X221847Y528613D01*
X221774Y528586D01*
X221738Y528557D01*
X221697Y528536D01*
X221642Y528481D01*
X221582Y528432D01*
X221557Y528394D01*
X221525Y528361D01*
X221459Y528241D01*
X221449Y528225D01*
X221447Y528220D01*
X221444Y528214D01*
X221122Y527438D01*
X218162Y524478D01*
X214293Y522875D01*
X192107Y522875D01*
X188238Y524478D01*
X185278Y527438D01*
X183675Y531307D01*
X183675Y535493D01*
X185278Y539362D01*
X188238Y542322D01*
X192107Y543925D01*
X214293Y543925D01*
X218162Y542322D01*
X221122Y539362D01*
X222725Y535493D01*
X222725Y535205D01*
X222739Y535114D01*
X222747Y535024D01*
X222759Y534994D01*
X222764Y534962D01*
X222807Y534881D01*
X222843Y534797D01*
X222869Y534765D01*
X222880Y534744D01*
X222903Y534722D01*
X222948Y534666D01*
X226276Y531338D01*
X226350Y531285D01*
X226420Y531225D01*
X226450Y531213D01*
X226476Y531194D01*
X226563Y531167D01*
X226648Y531133D01*
X226689Y531129D01*
X226711Y531122D01*
X226743Y531123D01*
X226815Y531115D01*
X246311Y531115D01*
X291808Y485618D01*
X291882Y485565D01*
X291952Y485505D01*
X291982Y485493D01*
X292008Y485474D01*
X292095Y485447D01*
X292180Y485413D01*
X292221Y485409D01*
X292243Y485402D01*
X292275Y485403D01*
X292347Y485395D01*
X354515Y485395D01*
X356078Y483832D01*
X384800Y455110D01*
X384874Y455057D01*
X384944Y454997D01*
X384974Y454985D01*
X385000Y454966D01*
X385087Y454939D01*
X385172Y454905D01*
X385213Y454901D01*
X385235Y454894D01*
X385267Y454895D01*
X385338Y454887D01*
X389294Y454887D01*
X389606Y454575D01*
X389664Y454533D01*
X389716Y454484D01*
X389763Y454462D01*
X389805Y454432D01*
X389874Y454410D01*
X389939Y454380D01*
X389991Y454375D01*
X390041Y454359D01*
X390112Y454361D01*
X390183Y454353D01*
X390234Y454364D01*
X390286Y454366D01*
X390354Y454390D01*
X390424Y454405D01*
X390469Y454432D01*
X390517Y454450D01*
X390573Y454495D01*
X390635Y454532D01*
X390669Y454571D01*
X390709Y454604D01*
X390748Y454664D01*
X390795Y454719D01*
X390814Y454767D01*
X390842Y454811D01*
X390860Y454880D01*
X390887Y454947D01*
X390895Y455018D01*
X390903Y455049D01*
X390901Y455072D01*
X390905Y455113D01*
X390905Y455937D01*
X390891Y456028D01*
X390883Y456118D01*
X390871Y456148D01*
X390866Y456180D01*
X390823Y456261D01*
X390787Y456345D01*
X390761Y456377D01*
X390750Y456398D01*
X390727Y456420D01*
X390682Y456476D01*
X311696Y535462D01*
X311622Y535515D01*
X311552Y535575D01*
X311522Y535587D01*
X311496Y535606D01*
X311409Y535633D01*
X311324Y535667D01*
X311283Y535671D01*
X311261Y535678D01*
X311229Y535677D01*
X311157Y535685D01*
X235273Y535685D01*
X220159Y550799D01*
X220143Y550810D01*
X220131Y550826D01*
X220057Y550873D01*
X220036Y550892D01*
X220023Y550897D01*
X219960Y550942D01*
X219941Y550948D01*
X219924Y550959D01*
X219823Y550984D01*
X219725Y551015D01*
X219705Y551014D01*
X219685Y551019D01*
X219582Y551011D01*
X219479Y551008D01*
X219460Y551001D01*
X219440Y551000D01*
X219345Y550959D01*
X219248Y550924D01*
X219232Y550911D01*
X219214Y550903D01*
X219148Y550850D01*
X219141Y550847D01*
X219135Y550840D01*
X219083Y550799D01*
X218162Y549878D01*
X214293Y548275D01*
X192107Y548275D01*
X188238Y549878D01*
X185278Y552838D01*
X183675Y556707D01*
X183675Y560893D01*
X185278Y564762D01*
X188238Y567722D01*
X192107Y569325D01*
X214293Y569325D01*
X218162Y567722D01*
X221122Y564762D01*
X222725Y560893D01*
X222725Y556707D01*
X222332Y555758D01*
X222305Y555645D01*
X222277Y555531D01*
X222277Y555525D01*
X222276Y555519D01*
X222287Y555402D01*
X222296Y555286D01*
X222298Y555280D01*
X222299Y555274D01*
X222347Y555167D01*
X222392Y555060D01*
X222397Y555054D01*
X222399Y555049D01*
X222412Y555036D01*
X222497Y554929D01*
X236944Y540482D01*
X237018Y540429D01*
X237088Y540369D01*
X237118Y540357D01*
X237144Y540338D01*
X237231Y540311D01*
X237316Y540277D01*
X237357Y540273D01*
X237379Y540266D01*
X237411Y540267D01*
X237483Y540259D01*
X313367Y540259D01*
X314930Y538696D01*
X395479Y458147D01*
X395479Y421886D01*
X395490Y421816D01*
X395492Y421744D01*
X395510Y421695D01*
X395518Y421644D01*
X395552Y421580D01*
X395577Y421513D01*
X395609Y421472D01*
X395634Y421426D01*
X395686Y421377D01*
X395730Y421321D01*
X395774Y421293D01*
X395812Y421257D01*
X395877Y421227D01*
X395937Y421188D01*
X395988Y421175D01*
X396035Y421153D01*
X396106Y421145D01*
X396176Y421128D01*
X396228Y421132D01*
X396279Y421126D01*
X396350Y421141D01*
X396421Y421147D01*
X396469Y421167D01*
X396520Y421178D01*
X396581Y421215D01*
X396647Y421243D01*
X396703Y421288D01*
X396731Y421305D01*
X396746Y421322D01*
X396778Y421348D01*
X429044Y453614D01*
X429055Y453630D01*
X429071Y453642D01*
X429127Y453730D01*
X429187Y453813D01*
X429193Y453832D01*
X429204Y453849D01*
X429229Y453950D01*
X429260Y454049D01*
X429259Y454068D01*
X429264Y454088D01*
X429256Y454191D01*
X429253Y454294D01*
X429246Y454313D01*
X429245Y454333D01*
X429204Y454428D01*
X429169Y454525D01*
X429156Y454541D01*
X429149Y454559D01*
X429044Y454690D01*
X339089Y544645D01*
X339089Y562617D01*
X339075Y562708D01*
X339067Y562798D01*
X339055Y562828D01*
X339050Y562860D01*
X339007Y562941D01*
X338971Y563025D01*
X338945Y563057D01*
X338934Y563078D01*
X338911Y563100D01*
X338866Y563156D01*
X323888Y578134D01*
X323814Y578187D01*
X323744Y578247D01*
X323714Y578259D01*
X323688Y578278D01*
X323601Y578305D01*
X323516Y578339D01*
X323475Y578343D01*
X323453Y578350D01*
X323421Y578349D01*
X323349Y578357D01*
X283202Y578357D01*
X283132Y578346D01*
X283060Y578344D01*
X283011Y578326D01*
X282960Y578318D01*
X282896Y578284D01*
X282829Y578259D01*
X282788Y578227D01*
X282742Y578202D01*
X282693Y578150D01*
X282637Y578106D01*
X282609Y578062D01*
X282573Y578024D01*
X282543Y577959D01*
X282504Y577899D01*
X282491Y577848D01*
X282469Y577801D01*
X282461Y577730D01*
X282444Y577660D01*
X282448Y577608D01*
X282442Y577557D01*
X282457Y577486D01*
X282463Y577415D01*
X282483Y577367D01*
X282494Y577316D01*
X282531Y577255D01*
X282559Y577189D01*
X282604Y577133D01*
X282621Y577105D01*
X282638Y577090D01*
X282664Y577058D01*
X285696Y574026D01*
X285713Y574014D01*
X285725Y573998D01*
X285812Y573942D01*
X285896Y573882D01*
X285915Y573876D01*
X285932Y573865D01*
X286032Y573840D01*
X286131Y573810D01*
X286151Y573810D01*
X286170Y573805D01*
X286273Y573813D01*
X286377Y573816D01*
X286396Y573823D01*
X286416Y573824D01*
X286511Y573865D01*
X286608Y573900D01*
X286624Y573913D01*
X286642Y573921D01*
X286773Y574026D01*
X286920Y574173D01*
X290281Y575565D01*
X293919Y575565D01*
X297280Y574173D01*
X299853Y571600D01*
X301245Y568239D01*
X301245Y549361D01*
X299853Y546000D01*
X297280Y543427D01*
X293919Y542035D01*
X290281Y542035D01*
X286920Y543427D01*
X284347Y546000D01*
X282955Y549361D01*
X282955Y568239D01*
X283364Y569226D01*
X283391Y569340D01*
X283419Y569453D01*
X283419Y569459D01*
X283420Y569465D01*
X283409Y569581D01*
X283400Y569698D01*
X283398Y569704D01*
X283397Y569710D01*
X283349Y569818D01*
X283304Y569924D01*
X283299Y569930D01*
X283297Y569935D01*
X283284Y569949D01*
X283199Y570055D01*
X275120Y578134D01*
X275046Y578187D01*
X274976Y578247D01*
X274946Y578259D01*
X274920Y578278D01*
X274833Y578305D01*
X274748Y578339D01*
X274707Y578343D01*
X274685Y578350D01*
X274653Y578349D01*
X274581Y578357D01*
X196335Y578357D01*
X196244Y578343D01*
X196154Y578335D01*
X196124Y578323D01*
X196092Y578318D01*
X196011Y578275D01*
X195927Y578239D01*
X195895Y578213D01*
X195874Y578202D01*
X195852Y578179D01*
X195796Y578134D01*
X182342Y564680D01*
X182289Y564606D01*
X182229Y564536D01*
X182217Y564506D01*
X182198Y564480D01*
X182171Y564393D01*
X182137Y564308D01*
X182133Y564267D01*
X182126Y564245D01*
X182127Y564213D01*
X182119Y564141D01*
X182119Y496562D01*
X182130Y496492D01*
X182132Y496420D01*
X182150Y496371D01*
X182158Y496320D01*
X182192Y496256D01*
X182217Y496189D01*
X182249Y496148D01*
X182274Y496102D01*
X182326Y496053D01*
X182370Y495997D01*
X182414Y495969D01*
X182452Y495933D01*
X182517Y495903D01*
X182577Y495864D01*
X182628Y495851D01*
X182675Y495829D01*
X182746Y495821D01*
X182816Y495804D01*
X182868Y495808D01*
X182919Y495802D01*
X182990Y495817D01*
X183061Y495823D01*
X183109Y495843D01*
X183160Y495854D01*
X183221Y495891D01*
X183287Y495919D01*
X183343Y495964D01*
X183371Y495981D01*
X183386Y495998D01*
X183418Y496024D01*
X184981Y497587D01*
X188010Y497587D01*
X188106Y497602D01*
X188203Y497612D01*
X188227Y497622D01*
X188253Y497626D01*
X188339Y497672D01*
X188428Y497712D01*
X188447Y497729D01*
X188470Y497742D01*
X188537Y497812D01*
X188609Y497878D01*
X188622Y497901D01*
X188640Y497920D01*
X188681Y498008D01*
X188728Y498094D01*
X188732Y498119D01*
X188743Y498143D01*
X188754Y498240D01*
X188772Y498336D01*
X188768Y498362D01*
X188771Y498387D01*
X188750Y498483D01*
X188736Y498579D01*
X188724Y498602D01*
X188718Y498628D01*
X188668Y498712D01*
X188624Y498798D01*
X188606Y498817D01*
X188592Y498839D01*
X188518Y498902D01*
X188449Y498970D01*
X188420Y498986D01*
X188405Y498999D01*
X188375Y499011D01*
X188302Y499051D01*
X188238Y499078D01*
X185278Y502038D01*
X183675Y505907D01*
X183675Y510093D01*
X185278Y513962D01*
X188238Y516922D01*
X192107Y518525D01*
X214293Y518525D01*
X218162Y516922D01*
X221122Y513962D01*
X222725Y510093D01*
X222725Y505906D01*
X222481Y505318D01*
X222454Y505205D01*
X222426Y505091D01*
X222426Y505084D01*
X222425Y505078D01*
X222436Y504962D01*
X222445Y504845D01*
X222447Y504840D01*
X222448Y504833D01*
X222496Y504726D01*
X222541Y504619D01*
X222546Y504613D01*
X222548Y504609D01*
X222560Y504595D01*
X222646Y504488D01*
X241516Y485618D01*
X241590Y485565D01*
X241660Y485505D01*
X241690Y485493D01*
X241716Y485474D01*
X241803Y485447D01*
X241888Y485413D01*
X241929Y485409D01*
X241951Y485402D01*
X241983Y485403D01*
X242055Y485395D01*
X266123Y485395D01*
X291808Y459710D01*
X291882Y459657D01*
X291952Y459597D01*
X291982Y459585D01*
X292008Y459566D01*
X292095Y459539D01*
X292180Y459505D01*
X292221Y459501D01*
X292243Y459494D01*
X292275Y459495D01*
X292347Y459487D01*
X342323Y459487D01*
X351283Y450527D01*
X351283Y440175D01*
X351297Y440084D01*
X351305Y439994D01*
X351317Y439964D01*
X351322Y439932D01*
X351365Y439851D01*
X351401Y439767D01*
X351427Y439735D01*
X351438Y439714D01*
X351461Y439692D01*
X351506Y439636D01*
X354331Y436811D01*
X354331Y426505D01*
X354342Y426434D01*
X354344Y426363D01*
X354362Y426314D01*
X354370Y426262D01*
X354404Y426199D01*
X354429Y426132D01*
X354461Y426091D01*
X354486Y426045D01*
X354537Y425996D01*
X354582Y425940D01*
X354626Y425911D01*
X354664Y425876D01*
X354729Y425845D01*
X354789Y425807D01*
X354840Y425794D01*
X354887Y425772D01*
X354958Y425764D01*
X355028Y425747D01*
X355080Y425751D01*
X355131Y425745D01*
X355202Y425760D01*
X355273Y425766D01*
X355321Y425786D01*
X355372Y425797D01*
X355433Y425834D01*
X355499Y425862D01*
X355555Y425907D01*
X355583Y425923D01*
X355598Y425941D01*
X355630Y425967D01*
X355867Y426203D01*
X357364Y427204D01*
X359029Y427893D01*
X360795Y428245D01*
X366777Y428245D01*
X366777Y419862D01*
X366780Y419842D01*
X366778Y419823D01*
X366800Y419721D01*
X366817Y419619D01*
X366826Y419602D01*
X366830Y419582D01*
X366883Y419493D01*
X366932Y419402D01*
X366946Y419388D01*
X366956Y419371D01*
X367035Y419304D01*
X367110Y419233D01*
X367128Y419224D01*
X367143Y419211D01*
X367239Y419173D01*
X367333Y419129D01*
X367353Y419127D01*
X367371Y419119D01*
X367538Y419101D01*
X368301Y419101D01*
X368301Y419099D01*
X367538Y419099D01*
X367518Y419096D01*
X367499Y419098D01*
X367397Y419076D01*
X367295Y419059D01*
X367278Y419050D01*
X367258Y419046D01*
X367169Y418993D01*
X367078Y418944D01*
X367064Y418930D01*
X367047Y418920D01*
X366980Y418841D01*
X366909Y418766D01*
X366900Y418748D01*
X366887Y418733D01*
X366848Y418637D01*
X366805Y418543D01*
X366803Y418523D01*
X366795Y418505D01*
X366777Y418338D01*
X366777Y409955D01*
X360795Y409955D01*
X359029Y410307D01*
X357364Y410996D01*
X355867Y411997D01*
X355630Y412233D01*
X355572Y412275D01*
X355520Y412324D01*
X355501Y412333D01*
X355488Y412344D01*
X355460Y412356D01*
X355431Y412377D01*
X355362Y412398D01*
X355297Y412428D01*
X355274Y412431D01*
X355260Y412436D01*
X355225Y412440D01*
X355195Y412449D01*
X355152Y412448D01*
X355094Y412454D01*
X355092Y412454D01*
X355078Y412452D01*
X355053Y412455D01*
X355002Y412444D01*
X354950Y412443D01*
X354892Y412422D01*
X354849Y412415D01*
X354837Y412408D01*
X354812Y412403D01*
X354767Y412376D01*
X354719Y412358D01*
X354672Y412321D01*
X354632Y412300D01*
X354622Y412289D01*
X354601Y412277D01*
X354567Y412237D01*
X354527Y412205D01*
X354495Y412156D01*
X354462Y412121D01*
X354456Y412107D01*
X354441Y412090D01*
X354422Y412041D01*
X354394Y411998D01*
X354380Y411944D01*
X354359Y411898D01*
X354357Y411881D01*
X354349Y411862D01*
X354341Y411790D01*
X354333Y411759D01*
X354335Y411736D01*
X354331Y411695D01*
X354331Y408432D01*
X354334Y408412D01*
X354332Y408393D01*
X354354Y408291D01*
X354370Y408189D01*
X354380Y408172D01*
X354384Y408152D01*
X354437Y408063D01*
X354486Y407972D01*
X354500Y407958D01*
X354510Y407941D01*
X354589Y407874D01*
X354664Y407802D01*
X354682Y407794D01*
X354697Y407781D01*
X354793Y407742D01*
X354887Y407699D01*
X354907Y407697D01*
X354925Y407689D01*
X355092Y407671D01*
X378213Y407671D01*
X378304Y407685D01*
G37*
%LPC*%
G36*
X245779Y182371D02*
X245779Y182371D01*
X242791Y183609D01*
X240505Y185895D01*
X239267Y188883D01*
X239267Y192117D01*
X240505Y195105D01*
X242791Y197391D01*
X245779Y198629D01*
X252991Y198629D01*
X253082Y198643D01*
X253172Y198651D01*
X253202Y198663D01*
X253234Y198668D01*
X253315Y198711D01*
X253399Y198747D01*
X253431Y198773D01*
X253452Y198784D01*
X253474Y198807D01*
X253530Y198852D01*
X259657Y204979D01*
X265437Y204979D01*
X265528Y204993D01*
X265618Y205001D01*
X265648Y205013D01*
X265680Y205018D01*
X265761Y205061D01*
X265845Y205097D01*
X265877Y205123D01*
X265898Y205134D01*
X265920Y205157D01*
X265976Y205202D01*
X316006Y255232D01*
X317569Y256795D01*
X341637Y256795D01*
X341728Y256809D01*
X341818Y256817D01*
X341848Y256829D01*
X341880Y256834D01*
X341961Y256877D01*
X342045Y256913D01*
X342077Y256939D01*
X342098Y256950D01*
X342120Y256973D01*
X342176Y257018D01*
X346486Y261328D01*
X346539Y261402D01*
X346599Y261472D01*
X346611Y261502D01*
X346630Y261528D01*
X346657Y261615D01*
X346691Y261700D01*
X346695Y261741D01*
X346702Y261763D01*
X346701Y261795D01*
X346709Y261867D01*
X346709Y348419D01*
X358130Y359839D01*
X358156Y359877D01*
X358190Y359908D01*
X358228Y359976D01*
X358273Y360039D01*
X358287Y360083D01*
X358309Y360123D01*
X358323Y360200D01*
X358345Y360274D01*
X358344Y360320D01*
X358352Y360365D01*
X358341Y360442D01*
X358339Y360520D01*
X358323Y360563D01*
X358317Y360609D01*
X358281Y360678D01*
X358255Y360751D01*
X358226Y360787D01*
X358205Y360828D01*
X358150Y360882D01*
X358101Y360943D01*
X358062Y360968D01*
X358030Y361000D01*
X357910Y361066D01*
X357894Y361076D01*
X357889Y361077D01*
X357883Y361081D01*
X357091Y361409D01*
X354805Y363695D01*
X353567Y366683D01*
X353567Y369917D01*
X354805Y372905D01*
X357091Y375191D01*
X360079Y376429D01*
X376521Y376429D01*
X379509Y375191D01*
X381795Y372905D01*
X383033Y369917D01*
X383033Y366683D01*
X381795Y363695D01*
X379509Y361409D01*
X376521Y360171D01*
X365245Y360171D01*
X365154Y360157D01*
X365064Y360149D01*
X365034Y360137D01*
X365002Y360132D01*
X364921Y360089D01*
X364837Y360053D01*
X364805Y360027D01*
X364784Y360016D01*
X364762Y359993D01*
X364706Y359948D01*
X351506Y346748D01*
X351461Y346686D01*
X351431Y346654D01*
X351425Y346642D01*
X351393Y346604D01*
X351381Y346574D01*
X351362Y346548D01*
X351335Y346461D01*
X351301Y346376D01*
X351297Y346335D01*
X351290Y346313D01*
X351291Y346281D01*
X351283Y346209D01*
X351283Y278630D01*
X351294Y278560D01*
X351296Y278488D01*
X351314Y278439D01*
X351322Y278388D01*
X351356Y278324D01*
X351381Y278257D01*
X351413Y278216D01*
X351438Y278170D01*
X351490Y278121D01*
X351534Y278065D01*
X351578Y278037D01*
X351616Y278001D01*
X351681Y277971D01*
X351741Y277932D01*
X351792Y277919D01*
X351839Y277897D01*
X351910Y277889D01*
X351980Y277872D01*
X352032Y277876D01*
X352083Y277870D01*
X352154Y277885D01*
X352225Y277891D01*
X352273Y277911D01*
X352324Y277922D01*
X352385Y277959D01*
X352451Y277987D01*
X352507Y278032D01*
X352535Y278049D01*
X352550Y278066D01*
X352582Y278092D01*
X354106Y279616D01*
X355669Y281179D01*
X369069Y281179D01*
X369160Y281193D01*
X369250Y281201D01*
X369280Y281213D01*
X369312Y281218D01*
X369393Y281261D01*
X369477Y281297D01*
X369509Y281323D01*
X369530Y281334D01*
X369552Y281357D01*
X369608Y281402D01*
X370869Y282663D01*
X370877Y282671D01*
X370919Y282729D01*
X370969Y282782D01*
X370991Y282828D01*
X371021Y282870D01*
X371042Y282939D01*
X371073Y283005D01*
X371078Y283056D01*
X371094Y283105D01*
X371092Y283177D01*
X371100Y283249D01*
X371089Y283300D01*
X371088Y283351D01*
X371063Y283419D01*
X371048Y283490D01*
X371021Y283534D01*
X371004Y283582D01*
X370958Y283639D01*
X370921Y283701D01*
X370882Y283734D01*
X370850Y283774D01*
X370789Y283814D01*
X370734Y283861D01*
X370687Y283880D01*
X370644Y283908D01*
X370574Y283926D01*
X370506Y283953D01*
X370436Y283961D01*
X370405Y283968D01*
X370382Y283967D01*
X370340Y283971D01*
X360079Y283971D01*
X357091Y285209D01*
X354805Y287495D01*
X353567Y290483D01*
X353567Y293717D01*
X354805Y296705D01*
X357091Y298991D01*
X360079Y300229D01*
X376521Y300229D01*
X379509Y298991D01*
X381795Y296705D01*
X383033Y293717D01*
X383033Y292092D01*
X383044Y292022D01*
X383046Y291950D01*
X383064Y291901D01*
X383072Y291850D01*
X383106Y291786D01*
X383131Y291719D01*
X383163Y291678D01*
X383188Y291632D01*
X383240Y291583D01*
X383284Y291527D01*
X383328Y291499D01*
X383366Y291463D01*
X383431Y291433D01*
X383491Y291394D01*
X383542Y291381D01*
X383589Y291359D01*
X383660Y291351D01*
X383730Y291334D01*
X383782Y291338D01*
X383833Y291332D01*
X383904Y291347D01*
X383975Y291353D01*
X384023Y291373D01*
X384074Y291384D01*
X384135Y291421D01*
X384201Y291449D01*
X384257Y291494D01*
X384285Y291511D01*
X384300Y291528D01*
X384332Y291554D01*
X506506Y413728D01*
X506559Y413802D01*
X506619Y413872D01*
X506631Y413902D01*
X506650Y413928D01*
X506677Y414015D01*
X506711Y414100D01*
X506715Y414141D01*
X506722Y414163D01*
X506721Y414195D01*
X506729Y414267D01*
X506729Y524517D01*
X506715Y524608D01*
X506707Y524698D01*
X506695Y524728D01*
X506690Y524760D01*
X506647Y524841D01*
X506611Y524925D01*
X506585Y524957D01*
X506574Y524978D01*
X506551Y525000D01*
X506506Y525056D01*
X497624Y533938D01*
X497550Y533991D01*
X497480Y534051D01*
X497450Y534063D01*
X497424Y534082D01*
X497337Y534109D01*
X497252Y534143D01*
X497211Y534147D01*
X497189Y534154D01*
X497157Y534153D01*
X497085Y534161D01*
X485209Y534161D01*
X476050Y543320D01*
X476034Y543331D01*
X476023Y543346D01*
X475939Y543400D01*
X475861Y543458D01*
X475855Y543460D01*
X475850Y543464D01*
X475832Y543470D01*
X475816Y543480D01*
X475720Y543504D01*
X475627Y543535D01*
X475621Y543534D01*
X475615Y543536D01*
X475596Y543536D01*
X475578Y543541D01*
X475479Y543533D01*
X475381Y543532D01*
X475374Y543530D01*
X475369Y543530D01*
X475351Y543523D01*
X475332Y543522D01*
X475302Y543509D01*
X475220Y543485D01*
X471719Y542035D01*
X468081Y542035D01*
X464720Y543427D01*
X462147Y546000D01*
X460755Y549361D01*
X460755Y568239D01*
X462147Y571600D01*
X464720Y574173D01*
X468081Y575565D01*
X471719Y575565D01*
X475080Y574173D01*
X477653Y571600D01*
X479045Y568239D01*
X479045Y549361D01*
X478487Y548015D01*
X478461Y547902D01*
X478432Y547788D01*
X478433Y547782D01*
X478431Y547776D01*
X478442Y547659D01*
X478451Y547543D01*
X478454Y547537D01*
X478454Y547531D01*
X478502Y547423D01*
X478547Y547317D01*
X478552Y547311D01*
X478554Y547306D01*
X478567Y547292D01*
X478652Y547186D01*
X486880Y538958D01*
X486954Y538905D01*
X487024Y538845D01*
X487054Y538833D01*
X487080Y538814D01*
X487167Y538787D01*
X487252Y538753D01*
X487293Y538749D01*
X487315Y538742D01*
X487347Y538743D01*
X487419Y538735D01*
X499295Y538735D01*
X511303Y526727D01*
X511303Y415790D01*
X511314Y415720D01*
X511316Y415648D01*
X511334Y415599D01*
X511342Y415548D01*
X511376Y415484D01*
X511401Y415417D01*
X511433Y415376D01*
X511458Y415330D01*
X511510Y415281D01*
X511554Y415225D01*
X511598Y415197D01*
X511636Y415161D01*
X511701Y415131D01*
X511761Y415092D01*
X511812Y415079D01*
X511859Y415057D01*
X511930Y415049D01*
X512000Y415032D01*
X512052Y415036D01*
X512103Y415030D01*
X512174Y415045D01*
X512245Y415051D01*
X512293Y415071D01*
X512344Y415082D01*
X512405Y415119D01*
X512471Y415147D01*
X512527Y415192D01*
X512555Y415209D01*
X512570Y415226D01*
X512602Y415252D01*
X530890Y433540D01*
X530943Y433614D01*
X531003Y433684D01*
X531015Y433714D01*
X531034Y433740D01*
X531061Y433827D01*
X531095Y433912D01*
X531099Y433953D01*
X531106Y433975D01*
X531105Y434007D01*
X531113Y434079D01*
X531113Y514535D01*
X541909Y525331D01*
X541920Y525347D01*
X541936Y525359D01*
X541992Y525446D01*
X542052Y525530D01*
X542058Y525549D01*
X542069Y525566D01*
X542094Y525667D01*
X542125Y525765D01*
X542124Y525785D01*
X542129Y525805D01*
X542121Y525908D01*
X542118Y526011D01*
X542111Y526030D01*
X542110Y526050D01*
X542070Y526142D01*
X542066Y526161D01*
X542059Y526173D01*
X542034Y526242D01*
X542021Y526258D01*
X542013Y526276D01*
X541950Y526356D01*
X541940Y526372D01*
X541930Y526380D01*
X541909Y526407D01*
X540878Y527438D01*
X539275Y531307D01*
X539275Y535493D01*
X540878Y539362D01*
X543838Y542322D01*
X547707Y543925D01*
X569893Y543925D01*
X573762Y542322D01*
X576722Y539362D01*
X578325Y535493D01*
X578325Y531307D01*
X576722Y527438D01*
X573762Y524478D01*
X569893Y522875D01*
X547707Y522875D01*
X546914Y523204D01*
X546800Y523230D01*
X546687Y523259D01*
X546681Y523258D01*
X546675Y523260D01*
X546558Y523249D01*
X546442Y523240D01*
X546436Y523237D01*
X546430Y523237D01*
X546322Y523189D01*
X546215Y523143D01*
X546210Y523139D01*
X546205Y523137D01*
X546191Y523124D01*
X546084Y523039D01*
X535910Y512864D01*
X535857Y512790D01*
X535797Y512720D01*
X535785Y512690D01*
X535766Y512664D01*
X535739Y512577D01*
X535705Y512492D01*
X535701Y512451D01*
X535694Y512429D01*
X535695Y512397D01*
X535687Y512325D01*
X535687Y470654D01*
X535698Y470584D01*
X535700Y470512D01*
X535718Y470463D01*
X535726Y470412D01*
X535760Y470348D01*
X535785Y470281D01*
X535817Y470240D01*
X535842Y470194D01*
X535894Y470145D01*
X535938Y470089D01*
X535982Y470061D01*
X536020Y470025D01*
X536085Y469995D01*
X536145Y469956D01*
X536196Y469943D01*
X536243Y469921D01*
X536314Y469913D01*
X536384Y469896D01*
X536436Y469900D01*
X536487Y469894D01*
X536558Y469909D01*
X536629Y469915D01*
X536677Y469935D01*
X536728Y469946D01*
X536789Y469983D01*
X536855Y470011D01*
X536911Y470056D01*
X536939Y470073D01*
X536954Y470090D01*
X536986Y470116D01*
X541655Y474785D01*
X541666Y474801D01*
X541682Y474813D01*
X541738Y474900D01*
X541798Y474984D01*
X541804Y475003D01*
X541815Y475020D01*
X541840Y475120D01*
X541871Y475219D01*
X541870Y475239D01*
X541875Y475259D01*
X541867Y475362D01*
X541864Y475465D01*
X541857Y475484D01*
X541856Y475504D01*
X541815Y475599D01*
X541780Y475696D01*
X541767Y475712D01*
X541759Y475730D01*
X541655Y475861D01*
X540878Y476638D01*
X539275Y480507D01*
X539275Y484693D01*
X540878Y488562D01*
X543838Y491522D01*
X547707Y493125D01*
X569893Y493125D01*
X573762Y491522D01*
X576722Y488562D01*
X578325Y484693D01*
X578325Y480507D01*
X576722Y476638D01*
X573762Y473678D01*
X569893Y472075D01*
X547707Y472075D01*
X546555Y472552D01*
X546488Y472568D01*
X546471Y472575D01*
X546448Y472577D01*
X546441Y472579D01*
X546328Y472608D01*
X546321Y472607D01*
X546315Y472608D01*
X546199Y472597D01*
X546082Y472588D01*
X546077Y472586D01*
X546070Y472585D01*
X545963Y472538D01*
X545856Y472492D01*
X545850Y472487D01*
X545846Y472485D01*
X545832Y472473D01*
X545794Y472443D01*
X545786Y472438D01*
X545778Y472429D01*
X545725Y472387D01*
X539458Y466120D01*
X539447Y466104D01*
X539431Y466092D01*
X539375Y466004D01*
X539315Y465921D01*
X539309Y465902D01*
X539298Y465885D01*
X539273Y465784D01*
X539242Y465685D01*
X539243Y465666D01*
X539238Y465646D01*
X539246Y465543D01*
X539249Y465440D01*
X539256Y465421D01*
X539257Y465401D01*
X539298Y465306D01*
X539333Y465209D01*
X539346Y465193D01*
X539353Y465175D01*
X539458Y465044D01*
X539856Y464646D01*
X539921Y464599D01*
X539980Y464545D01*
X540020Y464528D01*
X540056Y464502D01*
X540132Y464479D01*
X540205Y464447D01*
X540249Y464443D01*
X540291Y464430D01*
X540371Y464432D01*
X540450Y464425D01*
X540493Y464435D01*
X540537Y464436D01*
X540612Y464463D01*
X540689Y464482D01*
X540727Y464505D01*
X540768Y464521D01*
X540830Y464570D01*
X540898Y464613D01*
X540937Y464656D01*
X540960Y464674D01*
X540972Y464693D01*
X542282Y466003D01*
X543751Y467071D01*
X545370Y467895D01*
X547098Y468457D01*
X548892Y468741D01*
X557277Y468741D01*
X557277Y457962D01*
X557280Y457942D01*
X557278Y457923D01*
X557300Y457821D01*
X557317Y457719D01*
X557326Y457702D01*
X557330Y457682D01*
X557383Y457593D01*
X557432Y457502D01*
X557446Y457488D01*
X557456Y457471D01*
X557535Y457404D01*
X557610Y457333D01*
X557628Y457324D01*
X557643Y457311D01*
X557739Y457273D01*
X557833Y457229D01*
X557853Y457227D01*
X557871Y457219D01*
X558038Y457201D01*
X558801Y457201D01*
X558801Y457199D01*
X558038Y457199D01*
X558018Y457196D01*
X557999Y457198D01*
X557897Y457176D01*
X557795Y457159D01*
X557778Y457150D01*
X557758Y457146D01*
X557669Y457093D01*
X557578Y457044D01*
X557564Y457030D01*
X557547Y457020D01*
X557480Y456941D01*
X557409Y456866D01*
X557400Y456848D01*
X557387Y456833D01*
X557348Y456737D01*
X557305Y456643D01*
X557303Y456623D01*
X557295Y456605D01*
X557277Y456438D01*
X557277Y445659D01*
X548892Y445659D01*
X547098Y445943D01*
X545370Y446505D01*
X543751Y447329D01*
X542282Y448397D01*
X540997Y449682D01*
X540112Y450900D01*
X540106Y450906D01*
X540102Y450913D01*
X540019Y450992D01*
X539937Y451073D01*
X539930Y451077D01*
X539924Y451082D01*
X539819Y451131D01*
X539716Y451182D01*
X539708Y451183D01*
X539701Y451186D01*
X539587Y451199D01*
X539472Y451214D01*
X539464Y451212D01*
X539457Y451213D01*
X539344Y451189D01*
X539231Y451167D01*
X539224Y451163D01*
X539216Y451161D01*
X539118Y451102D01*
X539017Y451045D01*
X539012Y451039D01*
X539005Y451035D01*
X538930Y450947D01*
X538853Y450861D01*
X538850Y450854D01*
X538845Y450848D01*
X538802Y450740D01*
X538757Y450635D01*
X538756Y450627D01*
X538753Y450620D01*
X538735Y450453D01*
X538735Y440175D01*
X538749Y440085D01*
X538757Y439994D01*
X538769Y439964D01*
X538774Y439932D01*
X538817Y439851D01*
X538853Y439767D01*
X538879Y439735D01*
X538890Y439714D01*
X538913Y439692D01*
X538958Y439636D01*
X539642Y438951D01*
X539707Y438905D01*
X539766Y438851D01*
X539806Y438834D01*
X539842Y438808D01*
X539918Y438784D01*
X539991Y438752D01*
X540035Y438748D01*
X540077Y438735D01*
X540157Y438738D01*
X540236Y438730D01*
X540279Y438741D01*
X540323Y438742D01*
X540398Y438769D01*
X540475Y438788D01*
X540513Y438811D01*
X540554Y438826D01*
X540616Y438876D01*
X540684Y438918D01*
X540723Y438962D01*
X540746Y438980D01*
X540761Y439003D01*
X540797Y439042D01*
X540997Y439318D01*
X542282Y440603D01*
X543751Y441671D01*
X545370Y442495D01*
X547098Y443057D01*
X548892Y443341D01*
X557277Y443341D01*
X557277Y432562D01*
X557280Y432542D01*
X557278Y432523D01*
X557300Y432421D01*
X557317Y432319D01*
X557326Y432302D01*
X557330Y432282D01*
X557383Y432193D01*
X557432Y432102D01*
X557446Y432088D01*
X557456Y432071D01*
X557535Y432004D01*
X557610Y431933D01*
X557628Y431924D01*
X557643Y431911D01*
X557739Y431873D01*
X557833Y431829D01*
X557853Y431827D01*
X557871Y431819D01*
X558038Y431801D01*
X558801Y431801D01*
X558801Y431799D01*
X558038Y431799D01*
X558018Y431796D01*
X557999Y431798D01*
X557897Y431776D01*
X557795Y431759D01*
X557778Y431750D01*
X557758Y431746D01*
X557669Y431693D01*
X557578Y431644D01*
X557564Y431630D01*
X557547Y431620D01*
X557480Y431541D01*
X557409Y431466D01*
X557400Y431448D01*
X557387Y431433D01*
X557348Y431337D01*
X557305Y431243D01*
X557303Y431223D01*
X557295Y431205D01*
X557277Y431038D01*
X557277Y420259D01*
X548892Y420259D01*
X547098Y420543D01*
X545370Y421105D01*
X543751Y421929D01*
X542282Y422997D01*
X540997Y424282D01*
X539929Y425751D01*
X539105Y427370D01*
X538668Y428713D01*
X538634Y428780D01*
X538608Y428851D01*
X538578Y428889D01*
X538556Y428932D01*
X538501Y428984D01*
X538454Y429043D01*
X538413Y429069D01*
X538379Y429103D01*
X538311Y429135D01*
X538247Y429176D01*
X538200Y429188D01*
X538157Y429209D01*
X538082Y429218D01*
X538009Y429236D01*
X537961Y429233D01*
X537913Y429238D01*
X537839Y429223D01*
X537763Y429217D01*
X537719Y429198D01*
X537672Y429189D01*
X537607Y429151D01*
X537537Y429121D01*
X537486Y429080D01*
X537459Y429065D01*
X537443Y429045D01*
X537406Y429016D01*
X535910Y427520D01*
X535857Y427446D01*
X535797Y427376D01*
X535785Y427346D01*
X535766Y427320D01*
X535739Y427233D01*
X535705Y427148D01*
X535701Y427107D01*
X535694Y427085D01*
X535695Y427053D01*
X535687Y426981D01*
X535687Y375481D01*
X534124Y373918D01*
X381791Y221585D01*
X381779Y221569D01*
X381764Y221556D01*
X381708Y221469D01*
X381648Y221385D01*
X381642Y221366D01*
X381631Y221350D01*
X381606Y221249D01*
X381575Y221150D01*
X381576Y221130D01*
X381571Y221111D01*
X381579Y221008D01*
X381582Y220904D01*
X381588Y220886D01*
X381590Y220866D01*
X381630Y220771D01*
X381666Y220673D01*
X381679Y220658D01*
X381686Y220640D01*
X381791Y220509D01*
X381795Y220504D01*
X383033Y217517D01*
X383033Y214283D01*
X381795Y211295D01*
X379509Y209009D01*
X376521Y207771D01*
X360079Y207771D01*
X357091Y209009D01*
X354805Y211295D01*
X353567Y214283D01*
X353567Y217517D01*
X354805Y220505D01*
X357091Y222791D01*
X360079Y224029D01*
X376521Y224029D01*
X376932Y223858D01*
X377046Y223832D01*
X377159Y223803D01*
X377165Y223804D01*
X377171Y223802D01*
X377288Y223813D01*
X377404Y223822D01*
X377410Y223825D01*
X377416Y223825D01*
X377524Y223873D01*
X377631Y223919D01*
X377636Y223923D01*
X377641Y223925D01*
X377655Y223938D01*
X377762Y224023D01*
X530890Y377152D01*
X530943Y377226D01*
X531003Y377296D01*
X531015Y377326D01*
X531034Y377352D01*
X531061Y377439D01*
X531095Y377524D01*
X531099Y377565D01*
X531106Y377587D01*
X531105Y377619D01*
X531113Y377691D01*
X531113Y425458D01*
X531102Y425528D01*
X531100Y425600D01*
X531082Y425649D01*
X531074Y425700D01*
X531040Y425764D01*
X531015Y425831D01*
X530983Y425872D01*
X530958Y425918D01*
X530906Y425967D01*
X530862Y426023D01*
X530818Y426051D01*
X530780Y426087D01*
X530715Y426117D01*
X530655Y426156D01*
X530604Y426169D01*
X530557Y426191D01*
X530486Y426199D01*
X530416Y426216D01*
X530364Y426212D01*
X530313Y426218D01*
X530242Y426203D01*
X530171Y426197D01*
X530123Y426177D01*
X530072Y426166D01*
X530011Y426129D01*
X529945Y426101D01*
X529889Y426056D01*
X529861Y426039D01*
X529846Y426022D01*
X529814Y425996D01*
X380423Y276605D01*
X376167Y276605D01*
X376077Y276591D01*
X375986Y276583D01*
X375956Y276571D01*
X375924Y276566D01*
X375843Y276523D01*
X375759Y276487D01*
X375727Y276461D01*
X375706Y276450D01*
X375684Y276427D01*
X375628Y276382D01*
X375374Y276128D01*
X375332Y276070D01*
X375283Y276018D01*
X375261Y275971D01*
X375231Y275929D01*
X375210Y275860D01*
X375179Y275795D01*
X375174Y275743D01*
X375158Y275693D01*
X375160Y275622D01*
X375152Y275551D01*
X375163Y275500D01*
X375165Y275448D01*
X375189Y275380D01*
X375204Y275310D01*
X375231Y275265D01*
X375249Y275217D01*
X375294Y275161D01*
X375331Y275099D01*
X375370Y275065D01*
X375403Y275025D01*
X375463Y274986D01*
X375518Y274939D01*
X375566Y274920D01*
X375610Y274892D01*
X375679Y274874D01*
X375746Y274847D01*
X375817Y274839D01*
X375848Y274831D01*
X375872Y274833D01*
X375912Y274829D01*
X376521Y274829D01*
X379509Y273591D01*
X381795Y271305D01*
X383033Y268317D01*
X383033Y265083D01*
X381795Y262095D01*
X379509Y259809D01*
X376521Y258571D01*
X360079Y258571D01*
X358375Y259277D01*
X358280Y259299D01*
X358187Y259328D01*
X358161Y259327D01*
X358135Y259333D01*
X358039Y259324D01*
X357941Y259322D01*
X357916Y259313D01*
X357890Y259310D01*
X357802Y259271D01*
X357710Y259237D01*
X357690Y259221D01*
X357666Y259210D01*
X357594Y259144D01*
X357518Y259084D01*
X357504Y259062D01*
X357485Y259044D01*
X357438Y258959D01*
X357385Y258877D01*
X357379Y258851D01*
X357366Y258828D01*
X357349Y258732D01*
X357325Y258638D01*
X357327Y258612D01*
X357322Y258586D01*
X357337Y258490D01*
X357344Y258393D01*
X357354Y258369D01*
X357358Y258343D01*
X357402Y258256D01*
X357440Y258167D01*
X357461Y258141D01*
X357470Y258124D01*
X357493Y258101D01*
X357545Y258036D01*
X360399Y255182D01*
X360399Y250786D01*
X360341Y250728D01*
X360299Y250670D01*
X360250Y250618D01*
X360228Y250571D01*
X360198Y250529D01*
X360176Y250460D01*
X360146Y250395D01*
X360141Y250343D01*
X360125Y250293D01*
X360127Y250222D01*
X360119Y250151D01*
X360130Y250100D01*
X360132Y250048D01*
X360156Y249980D01*
X360171Y249910D01*
X360198Y249865D01*
X360216Y249817D01*
X360261Y249761D01*
X360298Y249699D01*
X360337Y249665D01*
X360370Y249625D01*
X360430Y249586D01*
X360485Y249539D01*
X360533Y249520D01*
X360577Y249492D01*
X360646Y249474D01*
X360713Y249447D01*
X360784Y249439D01*
X360815Y249431D01*
X360838Y249433D01*
X360879Y249429D01*
X376521Y249429D01*
X379509Y248191D01*
X381795Y245905D01*
X383033Y242917D01*
X383033Y239683D01*
X381795Y236695D01*
X379509Y234409D01*
X376521Y233171D01*
X360079Y233171D01*
X357091Y234409D01*
X355630Y235870D01*
X355572Y235912D01*
X355520Y235961D01*
X355473Y235983D01*
X355431Y236014D01*
X355362Y236035D01*
X355297Y236065D01*
X355245Y236071D01*
X355195Y236086D01*
X355124Y236084D01*
X355053Y236092D01*
X355002Y236081D01*
X354950Y236080D01*
X354882Y236055D01*
X354812Y236040D01*
X354767Y236013D01*
X354719Y235995D01*
X354663Y235950D01*
X354601Y235913D01*
X354567Y235874D01*
X354527Y235841D01*
X354488Y235781D01*
X354441Y235727D01*
X354422Y235678D01*
X354394Y235634D01*
X354376Y235565D01*
X354349Y235498D01*
X354341Y235427D01*
X354333Y235396D01*
X354335Y235373D01*
X354331Y235332D01*
X354331Y227653D01*
X351506Y224828D01*
X351453Y224754D01*
X351393Y224684D01*
X351381Y224654D01*
X351362Y224628D01*
X351335Y224541D01*
X351301Y224456D01*
X351297Y224415D01*
X351290Y224393D01*
X351291Y224361D01*
X351283Y224289D01*
X351283Y209365D01*
X342323Y200405D01*
X338067Y200405D01*
X337977Y200391D01*
X337886Y200383D01*
X337856Y200371D01*
X337824Y200366D01*
X337743Y200323D01*
X337659Y200287D01*
X337627Y200261D01*
X337606Y200250D01*
X337584Y200227D01*
X337528Y200182D01*
X337274Y199928D01*
X337232Y199870D01*
X337183Y199818D01*
X337161Y199771D01*
X337131Y199729D01*
X337110Y199660D01*
X337079Y199595D01*
X337074Y199543D01*
X337058Y199493D01*
X337060Y199422D01*
X337052Y199351D01*
X337063Y199300D01*
X337065Y199248D01*
X337089Y199180D01*
X337104Y199110D01*
X337131Y199065D01*
X337149Y199017D01*
X337194Y198961D01*
X337231Y198899D01*
X337270Y198865D01*
X337303Y198825D01*
X337363Y198786D01*
X337418Y198739D01*
X337466Y198720D01*
X337510Y198692D01*
X337579Y198674D01*
X337646Y198647D01*
X337717Y198639D01*
X337748Y198631D01*
X337772Y198633D01*
X337812Y198629D01*
X338421Y198629D01*
X341409Y197391D01*
X343695Y195105D01*
X344933Y192117D01*
X344933Y188883D01*
X343695Y185895D01*
X341409Y183609D01*
X338421Y182371D01*
X321979Y182371D01*
X318991Y183609D01*
X316705Y185895D01*
X315467Y188883D01*
X315467Y192117D01*
X316705Y195105D01*
X318991Y197391D01*
X321979Y198629D01*
X329192Y198629D01*
X329282Y198643D01*
X329373Y198651D01*
X329402Y198663D01*
X329434Y198668D01*
X329515Y198711D01*
X329599Y198747D01*
X329631Y198773D01*
X329652Y198784D01*
X329674Y198807D01*
X329730Y198852D01*
X334294Y203416D01*
X335857Y204979D01*
X340113Y204979D01*
X340204Y204993D01*
X340294Y205001D01*
X340324Y205013D01*
X340356Y205018D01*
X340437Y205061D01*
X340521Y205097D01*
X340553Y205123D01*
X340574Y205134D01*
X340596Y205157D01*
X340652Y205202D01*
X346486Y211036D01*
X346539Y211110D01*
X346599Y211180D01*
X346611Y211210D01*
X346630Y211236D01*
X346657Y211323D01*
X346691Y211408D01*
X346695Y211449D01*
X346702Y211471D01*
X346701Y211503D01*
X346709Y211575D01*
X346709Y222766D01*
X346698Y222836D01*
X346696Y222908D01*
X346678Y222957D01*
X346670Y223008D01*
X346636Y223072D01*
X346611Y223139D01*
X346579Y223180D01*
X346554Y223226D01*
X346503Y223275D01*
X346458Y223331D01*
X346414Y223359D01*
X346376Y223395D01*
X346311Y223425D01*
X346251Y223464D01*
X346200Y223477D01*
X346153Y223499D01*
X346082Y223507D01*
X346012Y223524D01*
X345960Y223520D01*
X345909Y223526D01*
X345838Y223511D01*
X345767Y223505D01*
X345719Y223485D01*
X345668Y223474D01*
X345607Y223437D01*
X345541Y223409D01*
X345485Y223364D01*
X345457Y223347D01*
X345442Y223330D01*
X345410Y223304D01*
X343691Y221585D01*
X343679Y221569D01*
X343664Y221556D01*
X343608Y221469D01*
X343548Y221385D01*
X343542Y221366D01*
X343531Y221350D01*
X343506Y221249D01*
X343475Y221150D01*
X343476Y221130D01*
X343471Y221111D01*
X343479Y221008D01*
X343482Y220904D01*
X343488Y220886D01*
X343490Y220866D01*
X343530Y220771D01*
X343566Y220673D01*
X343579Y220658D01*
X343586Y220640D01*
X343691Y220509D01*
X343695Y220504D01*
X344933Y217517D01*
X344933Y214283D01*
X343695Y211295D01*
X341409Y209009D01*
X338421Y207771D01*
X321979Y207771D01*
X318991Y209009D01*
X316705Y211295D01*
X315467Y214283D01*
X315467Y217517D01*
X316705Y220505D01*
X318991Y222791D01*
X321979Y224029D01*
X338421Y224029D01*
X338832Y223858D01*
X338946Y223832D01*
X339059Y223803D01*
X339065Y223804D01*
X339071Y223802D01*
X339188Y223813D01*
X339304Y223822D01*
X339310Y223825D01*
X339316Y223825D01*
X339424Y223873D01*
X339531Y223919D01*
X339536Y223923D01*
X339541Y223925D01*
X339555Y223938D01*
X339662Y224023D01*
X346486Y230848D01*
X346539Y230922D01*
X346599Y230992D01*
X346611Y231022D01*
X346630Y231048D01*
X346657Y231135D01*
X346691Y231220D01*
X346695Y231261D01*
X346702Y231283D01*
X346701Y231315D01*
X346709Y231387D01*
X346709Y253246D01*
X346698Y253316D01*
X346696Y253388D01*
X346678Y253437D01*
X346670Y253488D01*
X346636Y253552D01*
X346611Y253619D01*
X346579Y253660D01*
X346554Y253706D01*
X346502Y253755D01*
X346458Y253811D01*
X346414Y253839D01*
X346376Y253875D01*
X346311Y253905D01*
X346251Y253944D01*
X346200Y253957D01*
X346153Y253979D01*
X346082Y253987D01*
X346012Y254004D01*
X345960Y254000D01*
X345909Y254006D01*
X345838Y253991D01*
X345767Y253985D01*
X345719Y253965D01*
X345668Y253954D01*
X345607Y253917D01*
X345541Y253889D01*
X345485Y253844D01*
X345457Y253827D01*
X345442Y253810D01*
X345410Y253784D01*
X343847Y252221D01*
X319778Y252221D01*
X319688Y252207D01*
X319597Y252199D01*
X319568Y252187D01*
X319536Y252182D01*
X319455Y252139D01*
X319371Y252103D01*
X319339Y252077D01*
X319318Y252066D01*
X319296Y252043D01*
X319240Y251998D01*
X267647Y200405D01*
X261867Y200405D01*
X261777Y200391D01*
X261686Y200383D01*
X261656Y200371D01*
X261624Y200366D01*
X261543Y200323D01*
X261459Y200287D01*
X261427Y200261D01*
X261406Y200250D01*
X261384Y200227D01*
X261328Y200182D01*
X261074Y199928D01*
X261032Y199870D01*
X260983Y199818D01*
X260961Y199771D01*
X260931Y199729D01*
X260910Y199660D01*
X260879Y199595D01*
X260874Y199543D01*
X260858Y199493D01*
X260860Y199422D01*
X260852Y199351D01*
X260863Y199300D01*
X260865Y199248D01*
X260889Y199180D01*
X260904Y199110D01*
X260931Y199065D01*
X260949Y199017D01*
X260994Y198961D01*
X261031Y198899D01*
X261070Y198865D01*
X261103Y198825D01*
X261163Y198786D01*
X261218Y198739D01*
X261266Y198720D01*
X261310Y198692D01*
X261379Y198674D01*
X261446Y198647D01*
X261517Y198639D01*
X261548Y198631D01*
X261572Y198633D01*
X261612Y198629D01*
X262221Y198629D01*
X265209Y197391D01*
X267495Y195105D01*
X268733Y192117D01*
X268733Y188883D01*
X267495Y185895D01*
X265209Y183609D01*
X262221Y182371D01*
X245779Y182371D01*
G37*
%LPD*%
%LPC*%
G36*
X547707Y218075D02*
X547707Y218075D01*
X543838Y219678D01*
X540878Y222638D01*
X539275Y226507D01*
X539275Y230693D01*
X540878Y234562D01*
X543838Y237522D01*
X547707Y239125D01*
X569893Y239125D01*
X573762Y237522D01*
X576722Y234562D01*
X578325Y230693D01*
X578325Y226507D01*
X576722Y222638D01*
X573762Y219678D01*
X569893Y218075D01*
X547707Y218075D01*
G37*
%LPD*%
%LPC*%
G36*
X192107Y141875D02*
X192107Y141875D01*
X188238Y143478D01*
X185278Y146438D01*
X183675Y150307D01*
X183675Y154493D01*
X185278Y158362D01*
X188238Y161322D01*
X192107Y162925D01*
X214293Y162925D01*
X218162Y161322D01*
X221122Y158362D01*
X222725Y154493D01*
X222725Y150307D01*
X221122Y146438D01*
X218162Y143478D01*
X214293Y141875D01*
X192107Y141875D01*
G37*
%LPD*%
%LPC*%
G36*
X547707Y497475D02*
X547707Y497475D01*
X543838Y499078D01*
X540878Y502038D01*
X539275Y505907D01*
X539275Y510093D01*
X540878Y513962D01*
X543838Y516922D01*
X547707Y518525D01*
X569893Y518525D01*
X573762Y516922D01*
X576722Y513962D01*
X578325Y510093D01*
X578325Y505907D01*
X576722Y502038D01*
X573762Y499078D01*
X569893Y497475D01*
X547707Y497475D01*
G37*
%LPD*%
%LPC*%
G36*
X547707Y141875D02*
X547707Y141875D01*
X543838Y143478D01*
X540878Y146438D01*
X539275Y150307D01*
X539275Y154493D01*
X540878Y158362D01*
X543838Y161322D01*
X547707Y162925D01*
X569893Y162925D01*
X573762Y161322D01*
X576722Y158362D01*
X578325Y154493D01*
X578325Y150307D01*
X576722Y146438D01*
X573762Y143478D01*
X569893Y141875D01*
X547707Y141875D01*
G37*
%LPD*%
%LPC*%
G36*
X192107Y167275D02*
X192107Y167275D01*
X188238Y168878D01*
X185278Y171838D01*
X183675Y175707D01*
X183675Y179893D01*
X185278Y183762D01*
X188238Y186722D01*
X192107Y188325D01*
X214293Y188325D01*
X218162Y186722D01*
X221122Y183762D01*
X222725Y179893D01*
X222725Y175707D01*
X221122Y171838D01*
X218162Y168878D01*
X214293Y167275D01*
X192107Y167275D01*
G37*
%LPD*%
%LPC*%
G36*
X547707Y167275D02*
X547707Y167275D01*
X543838Y168878D01*
X540878Y171838D01*
X539275Y175707D01*
X539275Y179893D01*
X540878Y183762D01*
X543838Y186722D01*
X547707Y188325D01*
X569893Y188325D01*
X573762Y186722D01*
X576722Y183762D01*
X578325Y179893D01*
X578325Y175707D01*
X576722Y171838D01*
X573762Y168878D01*
X569893Y167275D01*
X547707Y167275D01*
G37*
%LPD*%
%LPC*%
G36*
X547707Y548275D02*
X547707Y548275D01*
X543838Y549878D01*
X540878Y552838D01*
X539275Y556707D01*
X539275Y560893D01*
X540878Y564762D01*
X543838Y567722D01*
X547707Y569325D01*
X569893Y569325D01*
X573762Y567722D01*
X576722Y564762D01*
X578325Y560893D01*
X578325Y556707D01*
X576722Y552838D01*
X573762Y549878D01*
X569893Y548275D01*
X547707Y548275D01*
G37*
%LPD*%
%LPC*%
G36*
X547707Y192675D02*
X547707Y192675D01*
X543838Y194278D01*
X540878Y197238D01*
X539275Y201107D01*
X539275Y205293D01*
X540878Y209162D01*
X543838Y212122D01*
X547707Y213725D01*
X569893Y213725D01*
X573762Y212122D01*
X576722Y209162D01*
X578325Y205293D01*
X578325Y201107D01*
X576722Y197238D01*
X573762Y194278D01*
X569893Y192675D01*
X547707Y192675D01*
G37*
%LPD*%
%LPC*%
G36*
X442681Y542035D02*
X442681Y542035D01*
X439320Y543427D01*
X436747Y546000D01*
X435355Y549361D01*
X435355Y568239D01*
X436747Y571600D01*
X439320Y574173D01*
X442681Y575565D01*
X446319Y575565D01*
X449680Y574173D01*
X452253Y571600D01*
X453645Y568239D01*
X453645Y549361D01*
X452253Y546000D01*
X449680Y543427D01*
X446319Y542035D01*
X442681Y542035D01*
G37*
%LPD*%
%LPC*%
G36*
X379181Y542035D02*
X379181Y542035D01*
X375820Y543427D01*
X373247Y546000D01*
X371855Y549361D01*
X371855Y568239D01*
X373247Y571600D01*
X375820Y574173D01*
X379181Y575565D01*
X382819Y575565D01*
X386180Y574173D01*
X388753Y571600D01*
X390145Y568239D01*
X390145Y549361D01*
X388753Y546000D01*
X386180Y543427D01*
X382819Y542035D01*
X379181Y542035D01*
G37*
%LPD*%
%LPC*%
G36*
X264881Y542035D02*
X264881Y542035D01*
X261520Y543427D01*
X258947Y546000D01*
X257555Y549361D01*
X257555Y568239D01*
X258947Y571600D01*
X261520Y574173D01*
X264881Y575565D01*
X268519Y575565D01*
X271880Y574173D01*
X274453Y571600D01*
X275845Y568239D01*
X275845Y549361D01*
X274453Y546000D01*
X271880Y543427D01*
X268519Y542035D01*
X264881Y542035D01*
G37*
%LPD*%
%LPC*%
G36*
X353781Y542035D02*
X353781Y542035D01*
X350420Y543427D01*
X347847Y546000D01*
X346455Y549361D01*
X346455Y568239D01*
X347847Y571600D01*
X350420Y574173D01*
X353781Y575565D01*
X357419Y575565D01*
X360780Y574173D01*
X363353Y571600D01*
X364745Y568239D01*
X364745Y549361D01*
X363353Y546000D01*
X360780Y543427D01*
X357419Y542035D01*
X353781Y542035D01*
G37*
%LPD*%
%LPC*%
G36*
X321979Y461771D02*
X321979Y461771D01*
X318991Y463009D01*
X316705Y465295D01*
X315467Y468283D01*
X315467Y471517D01*
X316705Y474505D01*
X318991Y476791D01*
X321979Y478029D01*
X338421Y478029D01*
X341409Y476791D01*
X343695Y474505D01*
X344933Y471517D01*
X344933Y468283D01*
X343695Y465295D01*
X341409Y463009D01*
X338421Y461771D01*
X321979Y461771D01*
G37*
%LPD*%
%LPC*%
G36*
X245779Y360171D02*
X245779Y360171D01*
X242791Y361409D01*
X240505Y363695D01*
X239267Y366683D01*
X239267Y369917D01*
X240505Y372905D01*
X242791Y375191D01*
X245779Y376429D01*
X262221Y376429D01*
X265209Y375191D01*
X267495Y372905D01*
X268733Y369917D01*
X268733Y366683D01*
X267495Y363695D01*
X265209Y361409D01*
X262221Y360171D01*
X245779Y360171D01*
G37*
%LPD*%
%LPC*%
G36*
X303183Y594867D02*
X303183Y594867D01*
X300195Y596105D01*
X297909Y598391D01*
X296671Y601379D01*
X296671Y617821D01*
X297909Y620809D01*
X300195Y623095D01*
X303183Y624333D01*
X306417Y624333D01*
X309405Y623095D01*
X311691Y620809D01*
X312929Y617821D01*
X312929Y601379D01*
X311691Y598391D01*
X309405Y596105D01*
X306417Y594867D01*
X303183Y594867D01*
G37*
%LPD*%
%LPC*%
G36*
X201583Y594867D02*
X201583Y594867D01*
X198595Y596105D01*
X196309Y598391D01*
X195071Y601379D01*
X195071Y617821D01*
X196309Y620809D01*
X198595Y623095D01*
X201583Y624333D01*
X204817Y624333D01*
X207805Y623095D01*
X210091Y620809D01*
X211329Y617821D01*
X211329Y601379D01*
X210091Y598391D01*
X207805Y596105D01*
X204817Y594867D01*
X201583Y594867D01*
G37*
%LPD*%
%LPC*%
G36*
X360079Y334771D02*
X360079Y334771D01*
X357091Y336009D01*
X354805Y338295D01*
X353567Y341283D01*
X353567Y344517D01*
X354805Y347505D01*
X357091Y349791D01*
X360079Y351029D01*
X376521Y351029D01*
X379509Y349791D01*
X381795Y347505D01*
X383033Y344517D01*
X383033Y341283D01*
X381795Y338295D01*
X379509Y336009D01*
X376521Y334771D01*
X360079Y334771D01*
G37*
%LPD*%
%LPC*%
G36*
X245779Y156971D02*
X245779Y156971D01*
X242791Y158209D01*
X240505Y160495D01*
X239267Y163483D01*
X239267Y166717D01*
X240505Y169705D01*
X242791Y171991D01*
X245779Y173229D01*
X262221Y173229D01*
X265209Y171991D01*
X267495Y169705D01*
X268733Y166717D01*
X268733Y163483D01*
X267495Y160495D01*
X265209Y158209D01*
X262221Y156971D01*
X245779Y156971D01*
G37*
%LPD*%
%LPC*%
G36*
X321979Y283971D02*
X321979Y283971D01*
X318991Y285209D01*
X316705Y287495D01*
X315467Y290483D01*
X315467Y293717D01*
X316705Y296705D01*
X318991Y298991D01*
X321979Y300229D01*
X338421Y300229D01*
X341409Y298991D01*
X343695Y296705D01*
X344933Y293717D01*
X344933Y290483D01*
X343695Y287495D01*
X341409Y285209D01*
X338421Y283971D01*
X321979Y283971D01*
G37*
%LPD*%
%LPC*%
G36*
X245779Y233171D02*
X245779Y233171D01*
X242791Y234409D01*
X240505Y236695D01*
X239267Y239683D01*
X239267Y242917D01*
X240505Y245905D01*
X242791Y248191D01*
X245779Y249429D01*
X262221Y249429D01*
X265209Y248191D01*
X267495Y245905D01*
X268733Y242917D01*
X268733Y239683D01*
X267495Y236695D01*
X265209Y234409D01*
X262221Y233171D01*
X245779Y233171D01*
G37*
%LPD*%
%LPC*%
G36*
X328583Y594867D02*
X328583Y594867D01*
X325595Y596105D01*
X323309Y598391D01*
X322071Y601379D01*
X322071Y617821D01*
X323309Y620809D01*
X325595Y623095D01*
X328583Y624333D01*
X331817Y624333D01*
X334805Y623095D01*
X337091Y620809D01*
X338329Y617821D01*
X338329Y601379D01*
X337091Y598391D01*
X334805Y596105D01*
X331817Y594867D01*
X328583Y594867D01*
G37*
%LPD*%
%LPC*%
G36*
X321979Y258571D02*
X321979Y258571D01*
X318991Y259809D01*
X316705Y262095D01*
X315467Y265083D01*
X315467Y268317D01*
X316705Y271305D01*
X318991Y273591D01*
X321979Y274829D01*
X338421Y274829D01*
X341409Y273591D01*
X343695Y271305D01*
X344933Y268317D01*
X344933Y265083D01*
X343695Y262095D01*
X341409Y259809D01*
X338421Y258571D01*
X321979Y258571D01*
G37*
%LPD*%
%LPC*%
G36*
X245779Y283971D02*
X245779Y283971D01*
X242791Y285209D01*
X240505Y287495D01*
X239267Y290483D01*
X239267Y293717D01*
X240505Y296705D01*
X242791Y298991D01*
X245779Y300229D01*
X262221Y300229D01*
X265209Y298991D01*
X267495Y296705D01*
X268733Y293717D01*
X268733Y290483D01*
X267495Y287495D01*
X265209Y285209D01*
X262221Y283971D01*
X245779Y283971D01*
G37*
%LPD*%
%LPC*%
G36*
X321979Y233171D02*
X321979Y233171D01*
X318991Y234409D01*
X316705Y236695D01*
X315467Y239683D01*
X315467Y242917D01*
X316705Y245905D01*
X318991Y248191D01*
X321979Y249429D01*
X338421Y249429D01*
X341409Y248191D01*
X343695Y245905D01*
X344933Y242917D01*
X344933Y239683D01*
X343695Y236695D01*
X341409Y234409D01*
X338421Y233171D01*
X321979Y233171D01*
G37*
%LPD*%
%LPC*%
G36*
X360079Y309371D02*
X360079Y309371D01*
X357091Y310609D01*
X354805Y312895D01*
X353567Y315883D01*
X353567Y319117D01*
X354805Y322105D01*
X357091Y324391D01*
X360079Y325629D01*
X376521Y325629D01*
X379509Y324391D01*
X381795Y322105D01*
X383033Y319117D01*
X383033Y315883D01*
X381795Y312895D01*
X379509Y310609D01*
X376521Y309371D01*
X360079Y309371D01*
G37*
%LPD*%
%LPC*%
G36*
X321979Y309371D02*
X321979Y309371D01*
X318991Y310609D01*
X316705Y312895D01*
X315467Y315883D01*
X315467Y319117D01*
X316705Y322105D01*
X318991Y324391D01*
X321979Y325629D01*
X338421Y325629D01*
X341409Y324391D01*
X343695Y322105D01*
X344933Y319117D01*
X344933Y315883D01*
X343695Y312895D01*
X341409Y310609D01*
X338421Y309371D01*
X321979Y309371D01*
G37*
%LPD*%
%LPC*%
G36*
X245779Y309371D02*
X245779Y309371D01*
X242791Y310609D01*
X240505Y312895D01*
X239267Y315883D01*
X239267Y319117D01*
X240505Y322105D01*
X242791Y324391D01*
X245779Y325629D01*
X262221Y325629D01*
X265209Y324391D01*
X267495Y322105D01*
X268733Y319117D01*
X268733Y315883D01*
X267495Y312895D01*
X265209Y310609D01*
X262221Y309371D01*
X245779Y309371D01*
G37*
%LPD*%
%LPC*%
G36*
X321979Y334771D02*
X321979Y334771D01*
X318991Y336009D01*
X316705Y338295D01*
X315467Y341283D01*
X315467Y344517D01*
X316705Y347505D01*
X318991Y349791D01*
X321979Y351029D01*
X338421Y351029D01*
X341409Y349791D01*
X343695Y347505D01*
X344933Y344517D01*
X344933Y341283D01*
X343695Y338295D01*
X341409Y336009D01*
X338421Y334771D01*
X321979Y334771D01*
G37*
%LPD*%
%LPC*%
G36*
X245779Y334771D02*
X245779Y334771D01*
X242791Y336009D01*
X240505Y338295D01*
X239267Y341283D01*
X239267Y344517D01*
X240505Y347505D01*
X242791Y349791D01*
X245779Y351029D01*
X262221Y351029D01*
X265209Y349791D01*
X267495Y347505D01*
X268733Y344517D01*
X268733Y341283D01*
X267495Y338295D01*
X265209Y336009D01*
X262221Y334771D01*
X245779Y334771D01*
G37*
%LPD*%
%LPC*%
G36*
X321979Y487171D02*
X321979Y487171D01*
X318991Y488409D01*
X316705Y490695D01*
X315467Y493683D01*
X315467Y496917D01*
X316705Y499905D01*
X318991Y502191D01*
X321979Y503429D01*
X338421Y503429D01*
X341409Y502191D01*
X343695Y499905D01*
X344933Y496917D01*
X344933Y493683D01*
X343695Y490695D01*
X341409Y488409D01*
X338421Y487171D01*
X321979Y487171D01*
G37*
%LPD*%
%LPC*%
G36*
X245779Y487171D02*
X245779Y487171D01*
X242791Y488409D01*
X240505Y490695D01*
X239267Y493683D01*
X239267Y496917D01*
X240505Y499905D01*
X242791Y502191D01*
X245779Y503429D01*
X262221Y503429D01*
X265209Y502191D01*
X267495Y499905D01*
X268733Y496917D01*
X268733Y493683D01*
X267495Y490695D01*
X265209Y488409D01*
X262221Y487171D01*
X245779Y487171D01*
G37*
%LPD*%
%LPC*%
G36*
X491512Y486155D02*
X491512Y486155D01*
X486155Y491512D01*
X486155Y499088D01*
X491512Y504445D01*
X499088Y504445D01*
X504445Y499088D01*
X504445Y491512D01*
X499088Y486155D01*
X491512Y486155D01*
G37*
%LPD*%
%LPC*%
G36*
X466112Y486155D02*
X466112Y486155D01*
X460755Y491512D01*
X460755Y499088D01*
X466112Y504445D01*
X473688Y504445D01*
X479045Y499088D01*
X479045Y491512D01*
X473688Y486155D01*
X466112Y486155D01*
G37*
%LPD*%
%LPC*%
G36*
X491512Y511555D02*
X491512Y511555D01*
X486155Y516912D01*
X486155Y524488D01*
X491512Y529845D01*
X499088Y529845D01*
X504445Y524488D01*
X504445Y516912D01*
X499088Y511555D01*
X491512Y511555D01*
G37*
%LPD*%
%LPC*%
G36*
X491512Y460755D02*
X491512Y460755D01*
X486155Y466112D01*
X486155Y473688D01*
X491512Y479045D01*
X499088Y479045D01*
X504445Y473688D01*
X504445Y466112D01*
X499088Y460755D01*
X491512Y460755D01*
G37*
%LPD*%
%LPC*%
G36*
X491512Y435355D02*
X491512Y435355D01*
X486155Y440712D01*
X486155Y448288D01*
X491512Y453645D01*
X499088Y453645D01*
X504445Y448288D01*
X504445Y440712D01*
X499088Y435355D01*
X491512Y435355D01*
G37*
%LPD*%
%LPC*%
G36*
X560323Y433323D02*
X560323Y433323D01*
X560323Y443341D01*
X568708Y443341D01*
X570502Y443057D01*
X572230Y442495D01*
X573849Y441671D01*
X575318Y440603D01*
X576603Y439318D01*
X577671Y437849D01*
X578495Y436230D01*
X579057Y434502D01*
X579243Y433323D01*
X560323Y433323D01*
G37*
%LPD*%
%LPC*%
G36*
X560323Y382523D02*
X560323Y382523D01*
X560323Y392541D01*
X568708Y392541D01*
X570502Y392257D01*
X572230Y391695D01*
X573849Y390871D01*
X575318Y389803D01*
X576603Y388518D01*
X577671Y387049D01*
X578495Y385430D01*
X579057Y383702D01*
X579243Y382523D01*
X560323Y382523D01*
G37*
%LPD*%
%LPC*%
G36*
X560323Y280923D02*
X560323Y280923D01*
X560323Y290941D01*
X568708Y290941D01*
X570502Y290657D01*
X572230Y290095D01*
X573849Y289271D01*
X575318Y288203D01*
X576603Y286918D01*
X577671Y285449D01*
X578495Y283830D01*
X579057Y282102D01*
X579243Y280923D01*
X560323Y280923D01*
G37*
%LPD*%
%LPC*%
G36*
X560323Y407923D02*
X560323Y407923D01*
X560323Y417941D01*
X568708Y417941D01*
X570502Y417657D01*
X572230Y417095D01*
X573849Y416271D01*
X575318Y415203D01*
X576603Y413918D01*
X577671Y412449D01*
X578495Y410830D01*
X579057Y409102D01*
X579243Y407923D01*
X560323Y407923D01*
G37*
%LPD*%
%LPC*%
G36*
X560323Y306323D02*
X560323Y306323D01*
X560323Y316341D01*
X568708Y316341D01*
X570502Y316057D01*
X572230Y315495D01*
X573849Y314671D01*
X575318Y313603D01*
X576603Y312318D01*
X577671Y310849D01*
X578495Y309230D01*
X579057Y307502D01*
X579243Y306323D01*
X560323Y306323D01*
G37*
%LPD*%
%LPC*%
G36*
X560323Y331723D02*
X560323Y331723D01*
X560323Y341741D01*
X568708Y341741D01*
X570502Y341457D01*
X572230Y340895D01*
X573849Y340071D01*
X575318Y339003D01*
X576603Y337718D01*
X577671Y336249D01*
X578495Y334630D01*
X579057Y332902D01*
X579243Y331723D01*
X560323Y331723D01*
G37*
%LPD*%
%LPC*%
G36*
X560323Y458723D02*
X560323Y458723D01*
X560323Y468741D01*
X568708Y468741D01*
X570502Y468457D01*
X572230Y467895D01*
X573849Y467071D01*
X575318Y466003D01*
X576603Y464718D01*
X577671Y463249D01*
X578495Y461630D01*
X579057Y459902D01*
X579243Y458723D01*
X560323Y458723D01*
G37*
%LPD*%
%LPC*%
G36*
X560323Y255523D02*
X560323Y255523D01*
X560323Y265541D01*
X568708Y265541D01*
X570502Y265257D01*
X572230Y264695D01*
X573849Y263871D01*
X575318Y262803D01*
X576603Y261518D01*
X577671Y260049D01*
X578495Y258430D01*
X579057Y256702D01*
X579243Y255523D01*
X560323Y255523D01*
G37*
%LPD*%
%LPC*%
G36*
X538357Y382523D02*
X538357Y382523D01*
X538543Y383702D01*
X539105Y385430D01*
X539929Y387049D01*
X540997Y388518D01*
X542282Y389803D01*
X543751Y390871D01*
X545370Y391695D01*
X547098Y392257D01*
X548892Y392541D01*
X557277Y392541D01*
X557277Y382523D01*
X538357Y382523D01*
G37*
%LPD*%
%LPC*%
G36*
X538357Y306323D02*
X538357Y306323D01*
X538543Y307502D01*
X539105Y309230D01*
X539929Y310849D01*
X540997Y312318D01*
X542282Y313603D01*
X543751Y314671D01*
X545370Y315495D01*
X547098Y316057D01*
X548892Y316341D01*
X557277Y316341D01*
X557277Y306323D01*
X538357Y306323D01*
G37*
%LPD*%
%LPC*%
G36*
X538357Y280923D02*
X538357Y280923D01*
X538543Y282102D01*
X539105Y283830D01*
X539929Y285449D01*
X540997Y286918D01*
X542282Y288203D01*
X543751Y289271D01*
X545370Y290095D01*
X547098Y290657D01*
X548892Y290941D01*
X557277Y290941D01*
X557277Y280923D01*
X538357Y280923D01*
G37*
%LPD*%
%LPC*%
G36*
X538357Y255523D02*
X538357Y255523D01*
X538543Y256702D01*
X539105Y258430D01*
X539929Y260049D01*
X540997Y261518D01*
X542282Y262803D01*
X543751Y263871D01*
X545370Y264695D01*
X547098Y265257D01*
X548892Y265541D01*
X557277Y265541D01*
X557277Y255523D01*
X538357Y255523D01*
G37*
%LPD*%
%LPC*%
G36*
X538357Y407923D02*
X538357Y407923D01*
X538543Y409102D01*
X539105Y410830D01*
X539929Y412449D01*
X540997Y413918D01*
X542282Y415203D01*
X543751Y416271D01*
X545370Y417095D01*
X547098Y417657D01*
X548892Y417941D01*
X557277Y417941D01*
X557277Y407923D01*
X538357Y407923D01*
G37*
%LPD*%
%LPC*%
G36*
X538357Y331723D02*
X538357Y331723D01*
X538543Y332902D01*
X539105Y334630D01*
X539929Y336249D01*
X540997Y337718D01*
X542282Y339003D01*
X543751Y340071D01*
X545370Y340895D01*
X547098Y341457D01*
X548892Y341741D01*
X557277Y341741D01*
X557277Y331723D01*
X538357Y331723D01*
G37*
%LPD*%
%LPC*%
G36*
X560323Y369459D02*
X560323Y369459D01*
X560323Y379477D01*
X579243Y379477D01*
X579057Y378298D01*
X578495Y376570D01*
X577671Y374951D01*
X576603Y373482D01*
X575318Y372197D01*
X573849Y371129D01*
X572230Y370305D01*
X570502Y369743D01*
X568708Y369459D01*
X560323Y369459D01*
G37*
%LPD*%
%LPC*%
G36*
X560323Y242459D02*
X560323Y242459D01*
X560323Y252477D01*
X579243Y252477D01*
X579057Y251298D01*
X578495Y249570D01*
X577671Y247951D01*
X576603Y246482D01*
X575318Y245197D01*
X573849Y244129D01*
X572230Y243305D01*
X570502Y242743D01*
X568708Y242459D01*
X560323Y242459D01*
G37*
%LPD*%
%LPC*%
G36*
X560323Y420259D02*
X560323Y420259D01*
X560323Y430277D01*
X579243Y430277D01*
X579057Y429098D01*
X578495Y427370D01*
X577671Y425751D01*
X576603Y424282D01*
X575318Y422997D01*
X573849Y421929D01*
X572230Y421105D01*
X570502Y420543D01*
X568708Y420259D01*
X560323Y420259D01*
G37*
%LPD*%
%LPC*%
G36*
X560323Y445659D02*
X560323Y445659D01*
X560323Y455677D01*
X579243Y455677D01*
X579057Y454498D01*
X578495Y452770D01*
X577671Y451151D01*
X576603Y449682D01*
X575318Y448397D01*
X573849Y447329D01*
X572230Y446505D01*
X570502Y445943D01*
X568708Y445659D01*
X560323Y445659D01*
G37*
%LPD*%
%LPC*%
G36*
X560323Y267859D02*
X560323Y267859D01*
X560323Y277877D01*
X579243Y277877D01*
X579057Y276698D01*
X578495Y274970D01*
X577671Y273351D01*
X576603Y271882D01*
X575318Y270597D01*
X573849Y269529D01*
X572230Y268705D01*
X570502Y268143D01*
X568708Y267859D01*
X560323Y267859D01*
G37*
%LPD*%
%LPC*%
G36*
X560323Y318659D02*
X560323Y318659D01*
X560323Y328677D01*
X579243Y328677D01*
X579057Y327498D01*
X578495Y325770D01*
X577671Y324151D01*
X576603Y322682D01*
X575318Y321397D01*
X573849Y320329D01*
X572230Y319505D01*
X570502Y318943D01*
X568708Y318659D01*
X560323Y318659D01*
G37*
%LPD*%
%LPC*%
G36*
X560323Y394859D02*
X560323Y394859D01*
X560323Y404877D01*
X579243Y404877D01*
X579057Y403698D01*
X578495Y401970D01*
X577671Y400351D01*
X576603Y398882D01*
X575318Y397597D01*
X573849Y396529D01*
X572230Y395705D01*
X570502Y395143D01*
X568708Y394859D01*
X560323Y394859D01*
G37*
%LPD*%
%LPC*%
G36*
X560323Y293259D02*
X560323Y293259D01*
X560323Y303277D01*
X579243Y303277D01*
X579057Y302098D01*
X578495Y300370D01*
X577671Y298751D01*
X576603Y297282D01*
X575318Y295997D01*
X573849Y294929D01*
X572230Y294105D01*
X570502Y293543D01*
X568708Y293259D01*
X560323Y293259D01*
G37*
%LPD*%
%LPC*%
G36*
X548892Y369459D02*
X548892Y369459D01*
X547098Y369743D01*
X545370Y370305D01*
X543751Y371129D01*
X542282Y372197D01*
X540997Y373482D01*
X539929Y374951D01*
X539105Y376570D01*
X538543Y378298D01*
X538357Y379477D01*
X557277Y379477D01*
X557277Y369459D01*
X548892Y369459D01*
G37*
%LPD*%
%LPC*%
G36*
X548892Y242459D02*
X548892Y242459D01*
X547098Y242743D01*
X545370Y243305D01*
X543751Y244129D01*
X542282Y245197D01*
X540997Y246482D01*
X539929Y247951D01*
X539105Y249570D01*
X538543Y251298D01*
X538357Y252477D01*
X557277Y252477D01*
X557277Y242459D01*
X548892Y242459D01*
G37*
%LPD*%
%LPC*%
G36*
X548892Y318659D02*
X548892Y318659D01*
X547098Y318943D01*
X545370Y319505D01*
X543751Y320329D01*
X542282Y321397D01*
X540997Y322682D01*
X539929Y324151D01*
X539105Y325770D01*
X538543Y327498D01*
X538357Y328677D01*
X557277Y328677D01*
X557277Y318659D01*
X548892Y318659D01*
G37*
%LPD*%
%LPC*%
G36*
X548892Y267859D02*
X548892Y267859D01*
X547098Y268143D01*
X545370Y268705D01*
X543751Y269529D01*
X542282Y270597D01*
X540997Y271882D01*
X539929Y273351D01*
X539105Y274970D01*
X538543Y276698D01*
X538357Y277877D01*
X557277Y277877D01*
X557277Y267859D01*
X548892Y267859D01*
G37*
%LPD*%
%LPC*%
G36*
X548892Y394859D02*
X548892Y394859D01*
X547098Y395143D01*
X545370Y395705D01*
X543751Y396529D01*
X542282Y397597D01*
X540997Y398882D01*
X539929Y400351D01*
X539105Y401970D01*
X538543Y403698D01*
X538357Y404877D01*
X557277Y404877D01*
X557277Y394859D01*
X548892Y394859D01*
G37*
%LPD*%
%LPC*%
G36*
X548892Y293259D02*
X548892Y293259D01*
X547098Y293543D01*
X545370Y294105D01*
X543751Y294929D01*
X542282Y295997D01*
X540997Y297282D01*
X539929Y298751D01*
X539105Y300370D01*
X538543Y302098D01*
X538357Y303277D01*
X557277Y303277D01*
X557277Y293259D01*
X548892Y293259D01*
G37*
%LPD*%
%LPC*%
G36*
X315121Y541269D02*
X315121Y541269D01*
X314042Y541620D01*
X313975Y541630D01*
X313910Y541650D01*
X313854Y541649D01*
X313844Y541650D01*
X313820Y541671D01*
X313816Y541672D01*
X313813Y541675D01*
X313660Y541744D01*
X313600Y541764D01*
X312175Y542490D01*
X310881Y543430D01*
X309750Y544561D01*
X308810Y545855D01*
X308084Y547280D01*
X307589Y548801D01*
X307339Y550380D01*
X307339Y557277D01*
X315977Y557277D01*
X315977Y541134D01*
X315121Y541269D01*
G37*
%LPD*%
%LPC*%
G36*
X496823Y560323D02*
X496823Y560323D01*
X496823Y576466D01*
X497679Y576331D01*
X499200Y575836D01*
X500625Y575110D01*
X501919Y574170D01*
X503050Y573039D01*
X503990Y571745D01*
X504716Y570320D01*
X505211Y568799D01*
X505461Y567220D01*
X505461Y560323D01*
X496823Y560323D01*
G37*
%LPD*%
%LPC*%
G36*
X407923Y560323D02*
X407923Y560323D01*
X407923Y576466D01*
X408779Y576331D01*
X410300Y575836D01*
X411725Y575110D01*
X413019Y574170D01*
X414150Y573039D01*
X415090Y571745D01*
X415816Y570320D01*
X416311Y568799D01*
X416561Y567220D01*
X416561Y560323D01*
X407923Y560323D01*
G37*
%LPD*%
%LPC*%
G36*
X319023Y560323D02*
X319023Y560323D01*
X319023Y576466D01*
X319879Y576331D01*
X321400Y575836D01*
X322825Y575110D01*
X324119Y574170D01*
X325250Y573039D01*
X326190Y571745D01*
X326916Y570320D01*
X327411Y568799D01*
X327661Y567220D01*
X327661Y560323D01*
X319023Y560323D01*
G37*
%LPD*%
%LPC*%
G36*
X496823Y557277D02*
X496823Y557277D01*
X505461Y557277D01*
X505461Y550380D01*
X505211Y548801D01*
X504716Y547280D01*
X503990Y545855D01*
X503050Y544561D01*
X501919Y543430D01*
X500625Y542490D01*
X499200Y541764D01*
X497679Y541269D01*
X496823Y541134D01*
X496823Y557277D01*
G37*
%LPD*%
%LPC*%
G36*
X319023Y557277D02*
X319023Y557277D01*
X327661Y557277D01*
X327661Y550380D01*
X327411Y548801D01*
X326916Y547280D01*
X326190Y545855D01*
X325250Y544561D01*
X324119Y543430D01*
X322825Y542490D01*
X321400Y541764D01*
X319879Y541269D01*
X319023Y541134D01*
X319023Y557277D01*
G37*
%LPD*%
%LPC*%
G36*
X407923Y557277D02*
X407923Y557277D01*
X416561Y557277D01*
X416561Y550380D01*
X416311Y548801D01*
X415816Y547280D01*
X415090Y545855D01*
X414150Y544561D01*
X413019Y543430D01*
X411725Y542490D01*
X410300Y541764D01*
X408779Y541269D01*
X407923Y541134D01*
X407923Y557277D01*
G37*
%LPD*%
%LPC*%
G36*
X307339Y560323D02*
X307339Y560323D01*
X307339Y567220D01*
X307589Y568799D01*
X308084Y570320D01*
X308810Y571745D01*
X309750Y573039D01*
X310881Y574170D01*
X312175Y575110D01*
X313600Y575836D01*
X315121Y576331D01*
X315977Y576466D01*
X315977Y560323D01*
X307339Y560323D01*
G37*
%LPD*%
%LPC*%
G36*
X485139Y560323D02*
X485139Y560323D01*
X485139Y567220D01*
X485389Y568799D01*
X485884Y570320D01*
X486610Y571745D01*
X487550Y573039D01*
X488681Y574170D01*
X489975Y575110D01*
X491400Y575836D01*
X492921Y576331D01*
X493777Y576466D01*
X493777Y560323D01*
X485139Y560323D01*
G37*
%LPD*%
%LPC*%
G36*
X396239Y560323D02*
X396239Y560323D01*
X396239Y567220D01*
X396489Y568799D01*
X396984Y570320D01*
X397710Y571745D01*
X398650Y573039D01*
X399781Y574170D01*
X401075Y575110D01*
X402500Y575836D01*
X404021Y576331D01*
X404877Y576466D01*
X404877Y560323D01*
X396239Y560323D01*
G37*
%LPD*%
%LPC*%
G36*
X492921Y541269D02*
X492921Y541269D01*
X491400Y541764D01*
X489975Y542490D01*
X488681Y543430D01*
X487550Y544561D01*
X486610Y545855D01*
X485884Y547280D01*
X485389Y548801D01*
X485139Y550380D01*
X485139Y557277D01*
X493777Y557277D01*
X493777Y541134D01*
X492921Y541269D01*
G37*
%LPD*%
%LPC*%
G36*
X404021Y541269D02*
X404021Y541269D01*
X402500Y541764D01*
X401075Y542490D01*
X399781Y543430D01*
X398650Y544561D01*
X397710Y545855D01*
X396984Y547280D01*
X396489Y548801D01*
X396239Y550380D01*
X396239Y557277D01*
X404877Y557277D01*
X404877Y541134D01*
X404021Y541269D01*
G37*
%LPD*%
%LPC*%
G36*
X255523Y268223D02*
X255523Y268223D01*
X255523Y275845D01*
X261505Y275845D01*
X263271Y275493D01*
X264936Y274804D01*
X266434Y273803D01*
X267707Y272530D01*
X268708Y271032D01*
X269397Y269367D01*
X269625Y268223D01*
X255523Y268223D01*
G37*
%LPD*%
%LPC*%
G36*
X369823Y420623D02*
X369823Y420623D01*
X369823Y428245D01*
X375805Y428245D01*
X377571Y427893D01*
X379236Y427204D01*
X380734Y426203D01*
X382007Y424930D01*
X383008Y423432D01*
X383697Y421767D01*
X383925Y420623D01*
X369823Y420623D01*
G37*
%LPD*%
%LPC*%
G36*
X230123Y611123D02*
X230123Y611123D01*
X230123Y625225D01*
X231267Y624997D01*
X232932Y624308D01*
X234430Y623307D01*
X235703Y622034D01*
X236704Y620536D01*
X237393Y618871D01*
X237745Y617105D01*
X237745Y611123D01*
X230123Y611123D01*
G37*
%LPD*%
%LPC*%
G36*
X238375Y268223D02*
X238375Y268223D01*
X238603Y269367D01*
X239292Y271032D01*
X240293Y272530D01*
X241566Y273803D01*
X243064Y274804D01*
X244729Y275493D01*
X246495Y275845D01*
X252477Y275845D01*
X252477Y268223D01*
X238375Y268223D01*
G37*
%LPD*%
%LPC*%
G36*
X230123Y608077D02*
X230123Y608077D01*
X237745Y608077D01*
X237745Y602095D01*
X237393Y600329D01*
X236704Y598664D01*
X235703Y597166D01*
X234430Y595893D01*
X232932Y594892D01*
X231267Y594203D01*
X230123Y593975D01*
X230123Y608077D01*
G37*
%LPD*%
%LPC*%
G36*
X255523Y257555D02*
X255523Y257555D01*
X255523Y265177D01*
X269625Y265177D01*
X269397Y264033D01*
X268708Y262368D01*
X267707Y260870D01*
X266434Y259597D01*
X264936Y258596D01*
X263271Y257907D01*
X261505Y257555D01*
X255523Y257555D01*
G37*
%LPD*%
%LPC*%
G36*
X219455Y611123D02*
X219455Y611123D01*
X219455Y617105D01*
X219807Y618871D01*
X220496Y620536D01*
X221497Y622034D01*
X222770Y623307D01*
X224268Y624308D01*
X225933Y624997D01*
X227077Y625225D01*
X227077Y611123D01*
X219455Y611123D01*
G37*
%LPD*%
%LPC*%
G36*
X225933Y594203D02*
X225933Y594203D01*
X224268Y594892D01*
X222770Y595893D01*
X221497Y597166D01*
X220496Y598664D01*
X219807Y600329D01*
X219455Y602095D01*
X219455Y608077D01*
X227077Y608077D01*
X227077Y593975D01*
X225933Y594203D01*
G37*
%LPD*%
%LPC*%
G36*
X246495Y257555D02*
X246495Y257555D01*
X244729Y257907D01*
X243064Y258596D01*
X241566Y259597D01*
X240293Y260870D01*
X239292Y262368D01*
X238603Y264033D01*
X238375Y265177D01*
X252477Y265177D01*
X252477Y257555D01*
X246495Y257555D01*
G37*
%LPD*%
%LPC*%
G36*
X471423Y522223D02*
X471423Y522223D01*
X471423Y530861D01*
X474109Y530861D01*
X480061Y524909D01*
X480061Y522223D01*
X471423Y522223D01*
G37*
%LPD*%
%LPC*%
G36*
X459739Y522223D02*
X459739Y522223D01*
X459739Y524909D01*
X465691Y530861D01*
X468377Y530861D01*
X468377Y522223D01*
X459739Y522223D01*
G37*
%LPD*%
%LPC*%
G36*
X471423Y510539D02*
X471423Y510539D01*
X471423Y519177D01*
X480061Y519177D01*
X480061Y516491D01*
X474109Y510539D01*
X471423Y510539D01*
G37*
%LPD*%
%LPC*%
G36*
X465691Y510539D02*
X465691Y510539D01*
X459739Y516491D01*
X459739Y519177D01*
X468377Y519177D01*
X468377Y510539D01*
X465691Y510539D01*
G37*
%LPD*%
%LPC*%
G36*
X558799Y330199D02*
X558799Y330199D01*
X558799Y330201D01*
X558801Y330201D01*
X558801Y330199D01*
X558799Y330199D01*
G37*
%LPD*%
%LPC*%
G36*
X558799Y304799D02*
X558799Y304799D01*
X558799Y304801D01*
X558801Y304801D01*
X558801Y304799D01*
X558799Y304799D01*
G37*
%LPD*%
%LPC*%
G36*
X558799Y406399D02*
X558799Y406399D01*
X558799Y406401D01*
X558801Y406401D01*
X558801Y406399D01*
X558799Y406399D01*
G37*
%LPD*%
%LPC*%
G36*
X253999Y266699D02*
X253999Y266699D01*
X253999Y266701D01*
X254001Y266701D01*
X254001Y266699D01*
X253999Y266699D01*
G37*
%LPD*%
%LPC*%
G36*
X406399Y558799D02*
X406399Y558799D01*
X406399Y558801D01*
X406401Y558801D01*
X406401Y558799D01*
X406399Y558799D01*
G37*
%LPD*%
%LPC*%
G36*
X469899Y520699D02*
X469899Y520699D01*
X469899Y520701D01*
X469901Y520701D01*
X469901Y520699D01*
X469899Y520699D01*
G37*
%LPD*%
%LPC*%
G36*
X558799Y253999D02*
X558799Y253999D01*
X558799Y254001D01*
X558801Y254001D01*
X558801Y253999D01*
X558799Y253999D01*
G37*
%LPD*%
%LPC*%
G36*
X558799Y380999D02*
X558799Y380999D01*
X558799Y381001D01*
X558801Y381001D01*
X558801Y380999D01*
X558799Y380999D01*
G37*
%LPD*%
%LPC*%
G36*
X495299Y558799D02*
X495299Y558799D01*
X495299Y558801D01*
X495301Y558801D01*
X495301Y558799D01*
X495299Y558799D01*
G37*
%LPD*%
%LPC*%
G36*
X317499Y558799D02*
X317499Y558799D01*
X317499Y558801D01*
X317501Y558801D01*
X317501Y558799D01*
X317499Y558799D01*
G37*
%LPD*%
%LPC*%
G36*
X228599Y609599D02*
X228599Y609599D01*
X228599Y609601D01*
X228601Y609601D01*
X228601Y609599D01*
X228599Y609599D01*
G37*
%LPD*%
%LPC*%
G36*
X558799Y279399D02*
X558799Y279399D01*
X558799Y279401D01*
X558801Y279401D01*
X558801Y279399D01*
X558799Y279399D01*
G37*
%LPD*%
D10*
X266700Y551180D02*
X266700Y566420D01*
X292100Y566420D02*
X292100Y551180D01*
X317500Y551180D02*
X317500Y566420D01*
X355600Y566420D02*
X355600Y551180D01*
X381000Y551180D02*
X381000Y566420D01*
X406400Y566420D02*
X406400Y551180D01*
X444500Y551180D02*
X444500Y566420D01*
X469900Y566420D02*
X469900Y551180D01*
X495300Y551180D02*
X495300Y566420D01*
D11*
X203200Y602996D02*
X203200Y616204D01*
X228600Y616204D02*
X228600Y602996D01*
X254000Y602996D02*
X254000Y616204D01*
X279400Y616204D02*
X279400Y602996D01*
X304800Y602996D02*
X304800Y616204D01*
X330200Y616204D02*
X330200Y602996D01*
X361696Y444500D02*
X374904Y444500D01*
X374904Y419100D02*
X361696Y419100D01*
X361696Y393700D02*
X374904Y393700D01*
X374904Y368300D02*
X361696Y368300D01*
X361696Y342900D02*
X374904Y342900D01*
X374904Y317500D02*
X361696Y317500D01*
X361696Y292100D02*
X374904Y292100D01*
X374904Y266700D02*
X361696Y266700D01*
X361696Y241300D02*
X374904Y241300D01*
X374904Y215900D02*
X361696Y215900D01*
X260604Y495300D02*
X247396Y495300D01*
X247396Y469900D02*
X260604Y469900D01*
X260604Y444500D02*
X247396Y444500D01*
X247396Y419100D02*
X260604Y419100D01*
X260604Y393700D02*
X247396Y393700D01*
X247396Y368300D02*
X260604Y368300D01*
X260604Y342900D02*
X247396Y342900D01*
X247396Y317500D02*
X260604Y317500D01*
X260604Y292100D02*
X247396Y292100D01*
X247396Y266700D02*
X260604Y266700D01*
X260604Y241300D02*
X247396Y241300D01*
X247396Y215900D02*
X260604Y215900D01*
X260604Y190500D02*
X247396Y190500D01*
X247396Y165100D02*
X260604Y165100D01*
X323596Y165100D02*
X336804Y165100D01*
X336804Y190500D02*
X323596Y190500D01*
X323596Y215900D02*
X336804Y215900D01*
X336804Y241300D02*
X323596Y241300D01*
X323596Y266700D02*
X336804Y266700D01*
X336804Y292100D02*
X323596Y292100D01*
X323596Y317500D02*
X336804Y317500D01*
X336804Y342900D02*
X323596Y342900D01*
X323596Y368300D02*
X336804Y368300D01*
X336804Y393700D02*
X323596Y393700D01*
X323596Y419100D02*
X336804Y419100D01*
X336804Y444500D02*
X323596Y444500D01*
X323596Y469900D02*
X336804Y469900D01*
X336804Y495300D02*
X323596Y495300D01*
D12*
X212200Y558800D02*
X194200Y558800D01*
X194200Y533400D02*
X212200Y533400D01*
X212200Y508000D02*
X194200Y508000D01*
X194200Y482600D02*
X212200Y482600D01*
X212200Y457200D02*
X194200Y457200D01*
X194200Y431800D02*
X212200Y431800D01*
X212200Y406400D02*
X194200Y406400D01*
X194200Y381000D02*
X212200Y381000D01*
X212200Y330200D02*
X194200Y330200D01*
X194200Y304800D02*
X212200Y304800D01*
X212200Y279400D02*
X194200Y279400D01*
X194200Y254000D02*
X212200Y254000D01*
X212200Y228600D02*
X194200Y228600D01*
X194200Y203200D02*
X212200Y203200D01*
X212200Y177800D02*
X194200Y177800D01*
X194200Y152400D02*
X212200Y152400D01*
X549800Y558800D02*
X567800Y558800D01*
X567800Y533400D02*
X549800Y533400D01*
X549800Y508000D02*
X567800Y508000D01*
X567800Y482600D02*
X549800Y482600D01*
X549800Y457200D02*
X567800Y457200D01*
X567800Y431800D02*
X549800Y431800D01*
X549800Y406400D02*
X567800Y406400D01*
X567800Y381000D02*
X549800Y381000D01*
X549800Y228600D02*
X567800Y228600D01*
X567800Y203200D02*
X549800Y203200D01*
X549800Y177800D02*
X567800Y177800D01*
X567800Y152400D02*
X549800Y152400D01*
X549800Y330200D02*
X567800Y330200D01*
X567800Y304800D02*
X549800Y304800D01*
X549800Y279400D02*
X567800Y279400D01*
X567800Y254000D02*
X549800Y254000D01*
D13*
X469900Y520700D03*
X469900Y495300D03*
X469900Y469900D03*
X469900Y444500D03*
X495300Y520700D03*
X495300Y495300D03*
X495300Y469900D03*
X495300Y444500D03*
D14*
X259080Y216408D02*
X254508Y216408D01*
X259080Y216408D02*
X310896Y268224D01*
X310896Y347472D01*
X318516Y355092D01*
X341376Y355092D01*
X348996Y362712D01*
X348996Y373380D01*
X368808Y393192D01*
X254508Y216408D02*
X254000Y215900D01*
X368808Y393192D02*
X368300Y393700D01*
X283464Y580644D02*
X254508Y609600D01*
X283464Y580644D02*
X324612Y580644D01*
X341376Y563880D01*
X341376Y545592D01*
X432816Y454152D02*
X441960Y445008D01*
X432816Y454152D02*
X341376Y545592D01*
X441960Y445008D02*
X469392Y445008D01*
X254508Y609600D02*
X254000Y609600D01*
X469392Y445008D02*
X469900Y444500D01*
X373380Y394716D02*
X368808Y394716D01*
X373380Y394716D02*
X432816Y454152D01*
X368808Y394716D02*
X368300Y393700D01*
X254508Y196596D02*
X254508Y190500D01*
X254508Y196596D02*
X260604Y202692D01*
X266700Y202692D01*
X318516Y254508D01*
X342900Y254508D01*
X348996Y260604D01*
X348996Y347472D01*
X368808Y367284D01*
X254508Y190500D02*
X254000Y190500D01*
X368808Y367284D02*
X368300Y368300D01*
X280416Y605028D02*
X280416Y609600D01*
X280416Y605028D02*
X301752Y583692D01*
X409956Y583692D01*
X431292Y562356D01*
X431292Y509016D01*
X469392Y470916D01*
X280416Y609600D02*
X279400Y609600D01*
X469392Y470916D02*
X469900Y469900D01*
X329184Y166116D02*
X315468Y166116D01*
X303276Y178308D01*
X242316Y178308D01*
X227076Y193548D01*
X227076Y210312D01*
X220980Y216408D01*
X190500Y216408D01*
X188976Y214884D01*
X187452Y214884D01*
X179832Y222504D01*
X179832Y318516D01*
X176784Y321564D01*
X176784Y490728D01*
X179832Y493776D01*
X179832Y565404D01*
X195072Y580644D01*
X275844Y580644D01*
X291084Y565404D01*
X291084Y559308D01*
X329184Y166116D02*
X330200Y165100D01*
X292100Y558800D02*
X291084Y559308D01*
X330708Y196596D02*
X330708Y190500D01*
X330708Y196596D02*
X336804Y202692D01*
X341376Y202692D01*
X348996Y210312D01*
X348996Y225552D01*
X352044Y228600D01*
X352044Y249936D01*
X355092Y252984D01*
X330708Y190500D02*
X330200Y190500D01*
D15*
X355092Y252984D03*
D14*
X335280Y216408D02*
X330708Y216408D01*
X335280Y216408D02*
X348996Y230124D01*
X348996Y256032D01*
X352044Y259080D01*
X352044Y274320D01*
X356616Y278892D01*
X370332Y278892D01*
X373380Y281940D01*
X377952Y281940D01*
X509016Y413004D01*
X509016Y525780D01*
X498348Y536448D01*
X486156Y536448D01*
X470916Y551688D01*
X470916Y557784D01*
X330708Y216408D02*
X330200Y215900D01*
X470916Y557784D02*
X469900Y558800D01*
X304800Y345948D02*
X304800Y332232D01*
X304800Y345948D02*
X316992Y358140D01*
X339852Y358140D01*
X345948Y364236D01*
X345948Y374904D01*
X352044Y381000D01*
X352044Y402336D01*
X355092Y405384D01*
X379476Y405384D01*
X393192Y419100D01*
X393192Y457200D01*
X312420Y537972D01*
X236220Y537972D01*
X216408Y557784D01*
X204216Y557784D01*
X203200Y558800D01*
D15*
X304800Y332232D03*
D14*
X387096Y449580D02*
X353568Y483108D01*
X291084Y483108D01*
X245364Y528828D01*
X225552Y528828D01*
X220980Y533400D01*
X203200Y533400D01*
D15*
X387096Y449580D03*
D14*
X335280Y368808D02*
X330708Y368808D01*
X335280Y368808D02*
X348996Y382524D01*
X348996Y403860D01*
X352044Y406908D01*
X352044Y435864D01*
X348996Y438912D01*
X348996Y449580D01*
X341376Y457200D01*
X291084Y457200D01*
X265176Y483108D01*
X240792Y483108D01*
X216408Y507492D01*
X204216Y507492D01*
X330708Y368808D02*
X330200Y368300D01*
X204216Y507492D02*
X203200Y508000D01*
X330708Y394716D02*
X335280Y394716D01*
X348996Y408432D01*
X348996Y416052D01*
X347472Y417576D01*
X347472Y420624D01*
X348996Y422148D01*
X348996Y425196D01*
X342900Y431292D01*
X313944Y431292D01*
X291084Y454152D01*
X268224Y454152D01*
X265176Y457200D01*
X240792Y457200D01*
X216408Y481584D01*
X204216Y481584D01*
X330708Y394716D02*
X330200Y393700D01*
X204216Y481584D02*
X203200Y482600D01*
X321564Y419100D02*
X330200Y419100D01*
X321564Y419100D02*
X309372Y431292D01*
X242316Y431292D01*
X216408Y457200D01*
X203200Y457200D01*
X222504Y441960D02*
X224028Y441960D01*
X227076Y438912D01*
X227076Y359664D01*
X204216Y336804D01*
X204216Y330708D01*
X203200Y330200D01*
D15*
X222504Y441960D03*
D14*
X248412Y470916D02*
X252984Y470916D01*
X248412Y470916D02*
X224028Y495300D01*
X185928Y495300D01*
X179832Y489204D01*
X179832Y323088D01*
X198120Y304800D01*
X203200Y304800D01*
X254000Y469900D02*
X252984Y470916D01*
X252984Y419100D02*
X252984Y413004D01*
X246888Y406908D01*
X242316Y406908D01*
X230124Y394716D01*
X230124Y275844D01*
X208788Y254508D01*
X204216Y254508D01*
X252984Y419100D02*
X254000Y419100D01*
X204216Y254508D02*
X203200Y254000D01*
X252984Y387096D02*
X252984Y393192D01*
X252984Y387096D02*
X246888Y381000D01*
X242316Y381000D01*
X233172Y371856D01*
X233172Y252984D01*
X208788Y228600D01*
X203200Y228600D01*
X252984Y393192D02*
X254000Y393700D01*
X368808Y272796D02*
X368808Y266700D01*
X368808Y272796D02*
X374904Y278892D01*
X379476Y278892D01*
X533400Y432816D01*
X533400Y513588D01*
X553212Y533400D01*
X558800Y533400D01*
X368808Y266700D02*
X368300Y266700D01*
X368808Y216408D02*
X373380Y216408D01*
X533400Y376428D01*
X533400Y428244D01*
X537972Y432816D01*
X537972Y437388D01*
X536448Y438912D01*
X536448Y458724D01*
X537972Y460248D01*
X537972Y463296D01*
X536448Y464820D01*
X536448Y466344D01*
X551688Y481584D01*
X557784Y481584D01*
X368808Y216408D02*
X368300Y215900D01*
X557784Y481584D02*
X558800Y482600D01*
M02*
