G04 EAGLE Gerber RS-274X export*
G75*
%MOMM*%
%FSLAX34Y34*%
%LPD*%
%INTop Copper*%
%IPPOS*%
%AMOC8*
5,1,8,0,0,1.08239X$1,22.5*%
G01*
%ADD10C,1.524000*%
%ADD11C,1.320800*%
%ADD12C,1.800000*%
%ADD13C,0.152400*%
%ADD14C,0.756400*%

G36*
X582698Y111764D02*
X582698Y111764D01*
X582717Y111762D01*
X582819Y111784D01*
X582921Y111800D01*
X582938Y111810D01*
X582958Y111814D01*
X583047Y111867D01*
X583138Y111916D01*
X583152Y111930D01*
X583169Y111940D01*
X583236Y112019D01*
X583308Y112094D01*
X583316Y112112D01*
X583329Y112127D01*
X583368Y112223D01*
X583411Y112317D01*
X583413Y112337D01*
X583421Y112355D01*
X583439Y112522D01*
X583439Y608004D01*
X583432Y608049D01*
X583434Y608095D01*
X583412Y608170D01*
X583400Y608247D01*
X583378Y608287D01*
X583365Y608332D01*
X583321Y608396D01*
X583284Y608464D01*
X583251Y608496D01*
X583225Y608534D01*
X583162Y608580D01*
X583106Y608634D01*
X583065Y608653D01*
X583028Y608680D01*
X582953Y608704D01*
X582883Y608737D01*
X582837Y608742D01*
X582794Y608756D01*
X582716Y608756D01*
X582639Y608764D01*
X582594Y608755D01*
X582548Y608754D01*
X582417Y608716D01*
X582398Y608712D01*
X582394Y608709D01*
X582387Y608707D01*
X581860Y608489D01*
X573840Y608489D01*
X566430Y611559D01*
X560759Y617230D01*
X557689Y624640D01*
X557689Y632660D01*
X559233Y636387D01*
X559243Y636431D01*
X559263Y636473D01*
X559271Y636550D01*
X559289Y636626D01*
X559285Y636672D01*
X559290Y636717D01*
X559273Y636794D01*
X559266Y636871D01*
X559247Y636913D01*
X559238Y636958D01*
X559198Y637025D01*
X559166Y637096D01*
X559135Y637130D01*
X559111Y637169D01*
X559052Y637220D01*
X559000Y637277D01*
X558959Y637299D01*
X558924Y637329D01*
X558852Y637358D01*
X558784Y637395D01*
X558739Y637404D01*
X558696Y637421D01*
X558560Y637436D01*
X558542Y637439D01*
X558537Y637438D01*
X558530Y637439D01*
X176022Y637439D01*
X176002Y637436D01*
X175983Y637438D01*
X175881Y637416D01*
X175779Y637400D01*
X175762Y637390D01*
X175742Y637386D01*
X175653Y637333D01*
X175562Y637284D01*
X175548Y637270D01*
X175531Y637260D01*
X175464Y637181D01*
X175392Y637106D01*
X175384Y637088D01*
X175371Y637073D01*
X175332Y636977D01*
X175289Y636883D01*
X175287Y636863D01*
X175279Y636845D01*
X175261Y636678D01*
X175261Y137242D01*
X175268Y137197D01*
X175266Y137151D01*
X175288Y137076D01*
X175300Y136999D01*
X175322Y136959D01*
X175335Y136914D01*
X175379Y136850D01*
X175416Y136782D01*
X175449Y136750D01*
X175475Y136712D01*
X175537Y136666D01*
X175594Y136612D01*
X175636Y136593D01*
X175672Y136566D01*
X175746Y136542D01*
X175817Y136509D01*
X175863Y136504D01*
X175906Y136489D01*
X175984Y136490D01*
X176061Y136482D01*
X176106Y136491D01*
X176152Y136492D01*
X176284Y136530D01*
X176302Y136534D01*
X176306Y136536D01*
X176313Y136539D01*
X178306Y137364D01*
X186326Y137364D01*
X193736Y134295D01*
X199408Y128623D01*
X202477Y121213D01*
X202477Y113193D01*
X202320Y112813D01*
X202309Y112769D01*
X202290Y112727D01*
X202281Y112650D01*
X202263Y112574D01*
X202268Y112528D01*
X202263Y112483D01*
X202279Y112406D01*
X202286Y112329D01*
X202305Y112287D01*
X202315Y112242D01*
X202355Y112175D01*
X202386Y112104D01*
X202418Y112070D01*
X202441Y112031D01*
X202500Y111980D01*
X202553Y111923D01*
X202593Y111901D01*
X202628Y111871D01*
X202700Y111842D01*
X202768Y111805D01*
X202813Y111796D01*
X202856Y111779D01*
X202992Y111764D01*
X203010Y111761D01*
X203015Y111762D01*
X203023Y111761D01*
X582678Y111761D01*
X582698Y111764D01*
G37*
%LPC*%
G36*
X547707Y141875D02*
X547707Y141875D01*
X543838Y143478D01*
X540878Y146438D01*
X539275Y150307D01*
X539275Y154493D01*
X540878Y158362D01*
X543838Y161322D01*
X547707Y162925D01*
X556260Y162925D01*
X556280Y162928D01*
X556299Y162926D01*
X556401Y162948D01*
X556503Y162964D01*
X556520Y162974D01*
X556540Y162978D01*
X556629Y163031D01*
X556720Y163080D01*
X556734Y163094D01*
X556751Y163104D01*
X556818Y163183D01*
X556890Y163258D01*
X556898Y163276D01*
X556911Y163291D01*
X556950Y163387D01*
X556993Y163481D01*
X556995Y163501D01*
X557003Y163519D01*
X557021Y163686D01*
X557021Y166514D01*
X557018Y166534D01*
X557020Y166553D01*
X556998Y166655D01*
X556982Y166757D01*
X556972Y166774D01*
X556968Y166794D01*
X556915Y166883D01*
X556866Y166974D01*
X556852Y166988D01*
X556842Y167005D01*
X556763Y167072D01*
X556688Y167144D01*
X556670Y167152D01*
X556655Y167165D01*
X556559Y167204D01*
X556465Y167247D01*
X556445Y167249D01*
X556427Y167257D01*
X556260Y167275D01*
X547707Y167275D01*
X543838Y168878D01*
X540878Y171838D01*
X539275Y175707D01*
X539275Y179893D01*
X540878Y183762D01*
X543838Y186722D01*
X547707Y188325D01*
X556260Y188325D01*
X556280Y188328D01*
X556299Y188326D01*
X556401Y188348D01*
X556503Y188364D01*
X556520Y188374D01*
X556540Y188378D01*
X556629Y188431D01*
X556720Y188480D01*
X556734Y188494D01*
X556751Y188504D01*
X556818Y188583D01*
X556890Y188658D01*
X556898Y188676D01*
X556911Y188691D01*
X556950Y188787D01*
X556993Y188881D01*
X556995Y188901D01*
X557003Y188919D01*
X557021Y189086D01*
X557021Y191914D01*
X557018Y191934D01*
X557020Y191953D01*
X556998Y192055D01*
X556982Y192157D01*
X556972Y192174D01*
X556968Y192194D01*
X556915Y192283D01*
X556866Y192374D01*
X556852Y192388D01*
X556842Y192405D01*
X556763Y192472D01*
X556688Y192544D01*
X556670Y192552D01*
X556655Y192565D01*
X556559Y192604D01*
X556465Y192647D01*
X556445Y192649D01*
X556427Y192657D01*
X556260Y192675D01*
X547707Y192675D01*
X543838Y194278D01*
X540878Y197238D01*
X539275Y201107D01*
X539275Y205293D01*
X540878Y209162D01*
X543838Y212122D01*
X547707Y213725D01*
X556260Y213725D01*
X556280Y213728D01*
X556299Y213726D01*
X556401Y213748D01*
X556503Y213764D01*
X556520Y213774D01*
X556540Y213778D01*
X556629Y213831D01*
X556720Y213880D01*
X556734Y213894D01*
X556751Y213904D01*
X556818Y213983D01*
X556890Y214058D01*
X556898Y214076D01*
X556911Y214091D01*
X556950Y214187D01*
X556993Y214281D01*
X556995Y214301D01*
X557003Y214319D01*
X557021Y214486D01*
X557021Y217314D01*
X557018Y217334D01*
X557020Y217353D01*
X556998Y217455D01*
X556982Y217557D01*
X556972Y217574D01*
X556968Y217594D01*
X556915Y217683D01*
X556866Y217774D01*
X556852Y217788D01*
X556842Y217805D01*
X556763Y217872D01*
X556688Y217944D01*
X556670Y217952D01*
X556655Y217965D01*
X556559Y218004D01*
X556465Y218047D01*
X556445Y218049D01*
X556427Y218057D01*
X556260Y218075D01*
X547707Y218075D01*
X543838Y219678D01*
X540878Y222638D01*
X539275Y226507D01*
X539275Y226795D01*
X539261Y226886D01*
X539253Y226976D01*
X539241Y227006D01*
X539236Y227038D01*
X539193Y227119D01*
X539157Y227203D01*
X539131Y227235D01*
X539120Y227256D01*
X539097Y227278D01*
X539052Y227334D01*
X535724Y230662D01*
X535650Y230715D01*
X535580Y230775D01*
X535550Y230787D01*
X535524Y230806D01*
X535437Y230833D01*
X535352Y230867D01*
X535311Y230871D01*
X535289Y230878D01*
X535257Y230877D01*
X535185Y230885D01*
X385311Y230885D01*
X385220Y230871D01*
X385130Y230863D01*
X385100Y230851D01*
X385068Y230846D01*
X384987Y230803D01*
X384903Y230767D01*
X384871Y230741D01*
X384850Y230730D01*
X384828Y230707D01*
X384772Y230662D01*
X380423Y226313D01*
X346525Y226313D01*
X339662Y233177D01*
X339567Y233245D01*
X339473Y233314D01*
X339467Y233316D01*
X339462Y233320D01*
X339350Y233354D01*
X339239Y233391D01*
X339233Y233391D01*
X339227Y233392D01*
X339110Y233389D01*
X338993Y233388D01*
X338986Y233386D01*
X338981Y233386D01*
X338963Y233380D01*
X338832Y233342D01*
X338421Y233171D01*
X321979Y233171D01*
X318991Y234409D01*
X316705Y236695D01*
X315467Y239683D01*
X315467Y242917D01*
X315489Y242969D01*
X315515Y243082D01*
X315544Y243196D01*
X315543Y243202D01*
X315545Y243208D01*
X315534Y243324D01*
X315525Y243441D01*
X315522Y243447D01*
X315522Y243453D01*
X315474Y243560D01*
X315429Y243667D01*
X315424Y243673D01*
X315422Y243678D01*
X315409Y243691D01*
X315324Y243798D01*
X314744Y244378D01*
X314670Y244432D01*
X314600Y244491D01*
X314570Y244503D01*
X314544Y244522D01*
X314457Y244549D01*
X314372Y244583D01*
X314331Y244587D01*
X314309Y244594D01*
X314277Y244593D01*
X314205Y244601D01*
X302329Y244601D01*
X300766Y246164D01*
X263102Y283828D01*
X263009Y283895D01*
X262914Y283966D01*
X262908Y283968D01*
X262903Y283971D01*
X262792Y284005D01*
X262680Y284042D01*
X262674Y284042D01*
X262668Y284044D01*
X262551Y284041D01*
X262434Y284039D01*
X262427Y284037D01*
X262422Y284037D01*
X262404Y284031D01*
X262273Y283993D01*
X262221Y283971D01*
X245779Y283971D01*
X242791Y285209D01*
X240505Y287495D01*
X239267Y290483D01*
X239267Y293717D01*
X240505Y296705D01*
X242791Y298991D01*
X245779Y300229D01*
X262221Y300229D01*
X262632Y300058D01*
X262746Y300032D01*
X262859Y300003D01*
X262865Y300004D01*
X262871Y300002D01*
X262988Y300013D01*
X263104Y300022D01*
X263110Y300025D01*
X263116Y300025D01*
X263224Y300073D01*
X263331Y300119D01*
X263336Y300123D01*
X263341Y300125D01*
X263355Y300138D01*
X263462Y300223D01*
X265714Y302476D01*
X265767Y302550D01*
X265827Y302620D01*
X265839Y302650D01*
X265858Y302676D01*
X265885Y302763D01*
X265919Y302848D01*
X265923Y302889D01*
X265930Y302911D01*
X265929Y302943D01*
X265937Y303015D01*
X265937Y305747D01*
X317569Y357379D01*
X340113Y357379D01*
X340204Y357393D01*
X340294Y357401D01*
X340324Y357413D01*
X340356Y357418D01*
X340437Y357461D01*
X340521Y357497D01*
X340553Y357523D01*
X340574Y357534D01*
X340596Y357557D01*
X340652Y357602D01*
X346486Y363436D01*
X346539Y363510D01*
X346599Y363580D01*
X346611Y363610D01*
X346630Y363636D01*
X346657Y363723D01*
X346691Y363808D01*
X346695Y363849D01*
X346702Y363871D01*
X346701Y363903D01*
X346709Y363975D01*
X346709Y414789D01*
X346695Y414879D01*
X346687Y414970D01*
X346675Y415000D01*
X346670Y415032D01*
X346627Y415113D01*
X346591Y415197D01*
X346565Y415229D01*
X346554Y415250D01*
X346531Y415272D01*
X346486Y415328D01*
X345562Y416252D01*
X345525Y416279D01*
X345494Y416313D01*
X345426Y416350D01*
X345362Y416396D01*
X345319Y416409D01*
X345278Y416431D01*
X345202Y416445D01*
X345127Y416468D01*
X345081Y416467D01*
X345036Y416475D01*
X344959Y416464D01*
X344881Y416462D01*
X344838Y416446D01*
X344793Y416439D01*
X344724Y416404D01*
X344650Y416377D01*
X344615Y416348D01*
X344574Y416328D01*
X344519Y416272D01*
X344458Y416223D01*
X344434Y416185D01*
X344401Y416152D01*
X344335Y416032D01*
X344325Y416016D01*
X344324Y416012D01*
X344320Y416005D01*
X343695Y414495D01*
X341409Y412209D01*
X338421Y410971D01*
X321979Y410971D01*
X318991Y412209D01*
X316705Y414495D01*
X315467Y417483D01*
X315467Y420717D01*
X316705Y423705D01*
X317658Y424658D01*
X317700Y424716D01*
X317749Y424768D01*
X317771Y424815D01*
X317802Y424857D01*
X317823Y424926D01*
X317853Y424991D01*
X317859Y425043D01*
X317874Y425093D01*
X317872Y425164D01*
X317880Y425235D01*
X317869Y425286D01*
X317868Y425338D01*
X317843Y425406D01*
X317828Y425476D01*
X317801Y425521D01*
X317783Y425569D01*
X317738Y425625D01*
X317701Y425687D01*
X317662Y425721D01*
X317629Y425761D01*
X317569Y425800D01*
X317515Y425847D01*
X317466Y425866D01*
X317422Y425894D01*
X317353Y425912D01*
X317286Y425939D01*
X317215Y425947D01*
X317184Y425955D01*
X317161Y425953D01*
X317120Y425957D01*
X313683Y425957D01*
X313592Y425943D01*
X313502Y425935D01*
X313472Y425923D01*
X313440Y425918D01*
X313359Y425875D01*
X313275Y425839D01*
X313243Y425813D01*
X313222Y425802D01*
X313200Y425779D01*
X313144Y425734D01*
X266123Y378713D01*
X226129Y378713D01*
X224828Y380014D01*
X224754Y380067D01*
X224684Y380127D01*
X224654Y380139D01*
X224628Y380158D01*
X224541Y380185D01*
X224456Y380219D01*
X224415Y380223D01*
X224393Y380230D01*
X224361Y380229D01*
X224289Y380237D01*
X223767Y380237D01*
X223677Y380223D01*
X223586Y380215D01*
X223556Y380203D01*
X223524Y380198D01*
X223443Y380155D01*
X223359Y380119D01*
X223327Y380093D01*
X223306Y380082D01*
X223284Y380059D01*
X223228Y380014D01*
X222948Y379734D01*
X222895Y379660D01*
X222835Y379590D01*
X222823Y379560D01*
X222804Y379534D01*
X222777Y379447D01*
X222743Y379362D01*
X222739Y379321D01*
X222732Y379299D01*
X222733Y379267D01*
X222725Y379196D01*
X222725Y378907D01*
X221122Y375038D01*
X218162Y372078D01*
X214293Y370475D01*
X192107Y370475D01*
X188238Y372078D01*
X185278Y375038D01*
X183675Y378907D01*
X183675Y383093D01*
X185278Y386962D01*
X188238Y389922D01*
X192107Y391525D01*
X214293Y391525D01*
X218162Y389922D01*
X221122Y386962D01*
X221819Y385281D01*
X221880Y385181D01*
X221940Y385081D01*
X221945Y385077D01*
X221948Y385072D01*
X222038Y384997D01*
X222127Y384921D01*
X222133Y384919D01*
X222138Y384915D01*
X222246Y384873D01*
X222355Y384829D01*
X222363Y384828D01*
X222367Y384827D01*
X222386Y384826D01*
X222522Y384811D01*
X226499Y384811D01*
X227800Y383510D01*
X227874Y383457D01*
X227944Y383397D01*
X227974Y383385D01*
X228000Y383366D01*
X228087Y383339D01*
X228172Y383305D01*
X228213Y383301D01*
X228235Y383294D01*
X228267Y383295D01*
X228339Y383287D01*
X263913Y383287D01*
X264004Y383301D01*
X264094Y383309D01*
X264124Y383321D01*
X264156Y383326D01*
X264237Y383369D01*
X264321Y383405D01*
X264353Y383431D01*
X264374Y383442D01*
X264396Y383465D01*
X264452Y383510D01*
X308648Y427706D01*
X308690Y427764D01*
X308739Y427816D01*
X308761Y427863D01*
X308791Y427905D01*
X308812Y427974D01*
X308843Y428039D01*
X308848Y428091D01*
X308864Y428141D01*
X308862Y428212D01*
X308870Y428283D01*
X308859Y428334D01*
X308857Y428386D01*
X308833Y428454D01*
X308818Y428524D01*
X308791Y428569D01*
X308773Y428617D01*
X308728Y428673D01*
X308691Y428735D01*
X308652Y428769D01*
X308619Y428809D01*
X308559Y428848D01*
X308504Y428895D01*
X308456Y428914D01*
X308412Y428942D01*
X308343Y428960D01*
X308276Y428987D01*
X308205Y428995D01*
X308174Y429003D01*
X308150Y429001D01*
X308110Y429005D01*
X292347Y429005D01*
X292256Y428991D01*
X292166Y428983D01*
X292136Y428971D01*
X292104Y428966D01*
X292023Y428923D01*
X291939Y428887D01*
X291907Y428861D01*
X291886Y428850D01*
X291864Y428827D01*
X291808Y428782D01*
X267647Y404621D01*
X224605Y404621D01*
X224024Y405202D01*
X223966Y405244D01*
X223914Y405293D01*
X223867Y405315D01*
X223825Y405345D01*
X223756Y405366D01*
X223691Y405397D01*
X223639Y405402D01*
X223589Y405418D01*
X223518Y405416D01*
X223447Y405424D01*
X223396Y405413D01*
X223344Y405411D01*
X223276Y405387D01*
X223206Y405372D01*
X223161Y405345D01*
X223113Y405327D01*
X223057Y405282D01*
X222995Y405245D01*
X222961Y405206D01*
X222921Y405173D01*
X222882Y405113D01*
X222835Y405058D01*
X222816Y405010D01*
X222788Y404966D01*
X222770Y404897D01*
X222743Y404830D01*
X222735Y404759D01*
X222727Y404728D01*
X222729Y404704D01*
X222725Y404664D01*
X222725Y404307D01*
X221122Y400438D01*
X218162Y397478D01*
X214293Y395875D01*
X192107Y395875D01*
X188238Y397478D01*
X185278Y400438D01*
X183675Y404307D01*
X183675Y408493D01*
X185278Y412362D01*
X188238Y415322D01*
X192107Y416925D01*
X214293Y416925D01*
X218162Y415322D01*
X221122Y412362D01*
X221608Y411189D01*
X221670Y411089D01*
X221730Y410989D01*
X221735Y410985D01*
X221738Y410980D01*
X221828Y410905D01*
X221917Y410829D01*
X221923Y410827D01*
X221927Y410823D01*
X222036Y410781D01*
X222145Y410737D01*
X222153Y410736D01*
X222157Y410735D01*
X222175Y410734D01*
X222312Y410719D01*
X224975Y410719D01*
X226276Y409418D01*
X226350Y409365D01*
X226420Y409305D01*
X226450Y409293D01*
X226476Y409274D01*
X226563Y409247D01*
X226648Y409213D01*
X226689Y409209D01*
X226711Y409202D01*
X226743Y409203D01*
X226815Y409195D01*
X265437Y409195D01*
X265528Y409209D01*
X265618Y409217D01*
X265648Y409229D01*
X265680Y409234D01*
X265761Y409277D01*
X265845Y409313D01*
X265877Y409339D01*
X265898Y409350D01*
X265920Y409373D01*
X265976Y409418D01*
X287312Y430754D01*
X287354Y430812D01*
X287403Y430864D01*
X287425Y430911D01*
X287455Y430953D01*
X287476Y431022D01*
X287507Y431087D01*
X287512Y431139D01*
X287528Y431189D01*
X287526Y431260D01*
X287534Y431331D01*
X287523Y431382D01*
X287521Y431434D01*
X287497Y431502D01*
X287482Y431572D01*
X287455Y431617D01*
X287437Y431665D01*
X287392Y431721D01*
X287355Y431783D01*
X287316Y431817D01*
X287283Y431857D01*
X287223Y431896D01*
X287168Y431943D01*
X287120Y431962D01*
X287076Y431990D01*
X287007Y432008D01*
X286940Y432035D01*
X286869Y432043D01*
X286838Y432051D01*
X286814Y432049D01*
X286774Y432053D01*
X269487Y432053D01*
X269396Y432039D01*
X269306Y432031D01*
X269276Y432019D01*
X269244Y432014D01*
X269163Y431971D01*
X269079Y431935D01*
X269047Y431909D01*
X269026Y431898D01*
X269004Y431875D01*
X268948Y431830D01*
X266123Y429005D01*
X224605Y429005D01*
X223876Y429734D01*
X223838Y429761D01*
X223807Y429795D01*
X223739Y429833D01*
X223676Y429878D01*
X223632Y429892D01*
X223592Y429914D01*
X223515Y429928D01*
X223441Y429950D01*
X223395Y429949D01*
X223350Y429957D01*
X223273Y429946D01*
X223195Y429944D01*
X223152Y429928D01*
X223106Y429922D01*
X223037Y429886D01*
X222964Y429860D01*
X222928Y429831D01*
X222887Y429810D01*
X222833Y429754D01*
X222772Y429706D01*
X222747Y429667D01*
X222715Y429634D01*
X222649Y429515D01*
X222639Y429499D01*
X222638Y429494D01*
X222634Y429488D01*
X221122Y425838D01*
X218162Y422878D01*
X214293Y421275D01*
X192107Y421275D01*
X188238Y422878D01*
X185278Y425838D01*
X183675Y429707D01*
X183675Y433893D01*
X185278Y437762D01*
X188238Y440722D01*
X192107Y442325D01*
X214293Y442325D01*
X216145Y441558D01*
X216189Y441547D01*
X216231Y441528D01*
X216308Y441520D01*
X216384Y441502D01*
X216430Y441506D01*
X216475Y441501D01*
X216552Y441518D01*
X216629Y441525D01*
X216671Y441544D01*
X216716Y441553D01*
X216783Y441593D01*
X216854Y441625D01*
X216888Y441656D01*
X216927Y441679D01*
X216978Y441739D01*
X217035Y441791D01*
X217057Y441831D01*
X217087Y441866D01*
X217116Y441939D01*
X217153Y442007D01*
X217162Y442052D01*
X217179Y442095D01*
X217194Y442230D01*
X217197Y442249D01*
X217196Y442254D01*
X217197Y442261D01*
X217197Y444158D01*
X220306Y447267D01*
X224028Y447267D01*
X224048Y447270D01*
X224067Y447268D01*
X224169Y447290D01*
X224271Y447306D01*
X224288Y447316D01*
X224308Y447320D01*
X224397Y447373D01*
X224488Y447422D01*
X224502Y447436D01*
X224519Y447446D01*
X224586Y447525D01*
X224658Y447600D01*
X224666Y447618D01*
X224679Y447633D01*
X224718Y447729D01*
X224761Y447823D01*
X224763Y447843D01*
X224771Y447861D01*
X224789Y448028D01*
X224789Y468130D01*
X224778Y468199D01*
X224776Y468270D01*
X224776Y468271D01*
X224776Y468272D01*
X224758Y468321D01*
X224750Y468372D01*
X224717Y468435D01*
X224692Y468501D01*
X224692Y468502D01*
X224691Y468503D01*
X224659Y468543D01*
X224634Y468590D01*
X224583Y468638D01*
X224539Y468694D01*
X224538Y468694D01*
X224538Y468695D01*
X224494Y468723D01*
X224456Y468759D01*
X224392Y468789D01*
X224333Y468827D01*
X224331Y468827D01*
X224331Y468828D01*
X224281Y468841D01*
X224233Y468863D01*
X224163Y468870D01*
X224094Y468888D01*
X224093Y468888D01*
X224092Y468888D01*
X224041Y468884D01*
X223989Y468890D01*
X223919Y468875D01*
X223849Y468869D01*
X223848Y468869D01*
X223847Y468869D01*
X223799Y468849D01*
X223748Y468838D01*
X223688Y468801D01*
X223622Y468774D01*
X223622Y468773D01*
X223621Y468773D01*
X223565Y468728D01*
X223537Y468711D01*
X223522Y468693D01*
X223490Y468668D01*
X221927Y467105D01*
X219017Y467105D01*
X218946Y467094D01*
X218874Y467092D01*
X218825Y467074D01*
X218774Y467066D01*
X218711Y467032D01*
X218643Y467007D01*
X218603Y466975D01*
X218557Y466950D01*
X218507Y466898D01*
X218451Y466854D01*
X218423Y466810D01*
X218387Y466772D01*
X218357Y466707D01*
X218318Y466647D01*
X218306Y466596D01*
X218284Y466549D01*
X218276Y466478D01*
X218258Y466408D01*
X218262Y466356D01*
X218257Y466305D01*
X218272Y466234D01*
X218277Y466163D01*
X218298Y466115D01*
X218309Y466064D01*
X218346Y466003D01*
X218374Y465937D01*
X218418Y465881D01*
X218435Y465853D01*
X218453Y465838D01*
X218478Y465806D01*
X221122Y463162D01*
X222725Y459293D01*
X222725Y455107D01*
X221122Y451238D01*
X218162Y448278D01*
X214293Y446675D01*
X192107Y446675D01*
X188238Y448278D01*
X185278Y451238D01*
X183675Y455107D01*
X183675Y459293D01*
X185278Y463162D01*
X188238Y466122D01*
X188810Y466359D01*
X188849Y466384D01*
X188892Y466399D01*
X188953Y466448D01*
X189019Y466489D01*
X189048Y466524D01*
X189084Y466553D01*
X189126Y466618D01*
X189176Y466678D01*
X189193Y466721D01*
X189217Y466760D01*
X189236Y466835D01*
X189264Y466908D01*
X189266Y466954D01*
X189277Y466998D01*
X189271Y467076D01*
X189275Y467154D01*
X189262Y467198D01*
X189258Y467244D01*
X189228Y467315D01*
X189206Y467390D01*
X189180Y467428D01*
X189162Y467470D01*
X189077Y467577D01*
X189066Y467592D01*
X189062Y467595D01*
X189057Y467601D01*
X188752Y467906D01*
X188736Y467917D01*
X188724Y467933D01*
X188637Y467989D01*
X188553Y468049D01*
X188534Y468055D01*
X188517Y468066D01*
X188416Y468091D01*
X188318Y468122D01*
X188298Y468121D01*
X188278Y468126D01*
X188175Y468118D01*
X188072Y468115D01*
X188053Y468108D01*
X188033Y468107D01*
X187938Y468066D01*
X187841Y468031D01*
X187825Y468018D01*
X187807Y468011D01*
X187676Y467906D01*
X182342Y462572D01*
X182289Y462498D01*
X182229Y462428D01*
X182217Y462398D01*
X182198Y462372D01*
X182171Y462285D01*
X182137Y462200D01*
X182133Y462159D01*
X182126Y462137D01*
X182127Y462105D01*
X182119Y462033D01*
X182119Y298443D01*
X182133Y298352D01*
X182141Y298262D01*
X182153Y298232D01*
X182158Y298200D01*
X182201Y298119D01*
X182237Y298035D01*
X182263Y298003D01*
X182274Y297982D01*
X182297Y297960D01*
X182342Y297904D01*
X190484Y289761D01*
X190580Y289693D01*
X190673Y289624D01*
X190679Y289622D01*
X190684Y289618D01*
X190796Y289584D01*
X190907Y289547D01*
X190913Y289547D01*
X190919Y289546D01*
X191036Y289549D01*
X191153Y289550D01*
X191160Y289552D01*
X191165Y289552D01*
X191183Y289558D01*
X191314Y289596D01*
X192107Y289925D01*
X214293Y289925D01*
X218162Y288322D01*
X221122Y285362D01*
X222725Y281493D01*
X222725Y277307D01*
X221122Y273438D01*
X218162Y270478D01*
X214293Y268875D01*
X192107Y268875D01*
X188238Y270478D01*
X185278Y273438D01*
X183675Y277307D01*
X183675Y281493D01*
X185278Y285362D01*
X186309Y286393D01*
X186320Y286409D01*
X186336Y286421D01*
X186392Y286509D01*
X186452Y286593D01*
X186458Y286612D01*
X186469Y286628D01*
X186494Y286729D01*
X186525Y286828D01*
X186524Y286848D01*
X186529Y286867D01*
X186521Y286970D01*
X186518Y287074D01*
X186511Y287092D01*
X186510Y287112D01*
X186469Y287207D01*
X186434Y287305D01*
X186421Y287320D01*
X186413Y287338D01*
X186309Y287469D01*
X177545Y296233D01*
X177545Y464243D01*
X186505Y473203D01*
X186875Y473203D01*
X186946Y473214D01*
X187018Y473216D01*
X187067Y473234D01*
X187118Y473242D01*
X187181Y473276D01*
X187249Y473301D01*
X187289Y473333D01*
X187335Y473358D01*
X187385Y473410D01*
X187441Y473454D01*
X187469Y473498D01*
X187505Y473536D01*
X187535Y473601D01*
X187574Y473661D01*
X187586Y473712D01*
X187608Y473759D01*
X187616Y473830D01*
X187634Y473900D01*
X187630Y473952D01*
X187635Y474003D01*
X187620Y474074D01*
X187615Y474145D01*
X187594Y474193D01*
X187583Y474244D01*
X187546Y474305D01*
X187518Y474371D01*
X187474Y474427D01*
X187457Y474455D01*
X187439Y474470D01*
X187414Y474502D01*
X185278Y476638D01*
X183675Y480507D01*
X183675Y484693D01*
X185278Y488562D01*
X188238Y491522D01*
X192107Y493125D01*
X214293Y493125D01*
X218162Y491522D01*
X221122Y488562D01*
X222725Y484693D01*
X222725Y480507D01*
X221122Y476638D01*
X218162Y473678D01*
X216872Y473143D01*
X216789Y473092D01*
X216703Y473046D01*
X216685Y473028D01*
X216663Y473014D01*
X216601Y472938D01*
X216534Y472868D01*
X216523Y472844D01*
X216506Y472824D01*
X216471Y472733D01*
X216430Y472645D01*
X216427Y472619D01*
X216418Y472595D01*
X216414Y472497D01*
X216403Y472401D01*
X216409Y472375D01*
X216407Y472349D01*
X216435Y472255D01*
X216455Y472160D01*
X216469Y472138D01*
X216476Y472113D01*
X216531Y472033D01*
X216581Y471949D01*
X216601Y471932D01*
X216616Y471911D01*
X216694Y471852D01*
X216768Y471789D01*
X216793Y471779D01*
X216814Y471764D01*
X216906Y471734D01*
X216996Y471697D01*
X217029Y471694D01*
X217047Y471688D01*
X217080Y471688D01*
X217163Y471679D01*
X219717Y471679D01*
X219808Y471693D01*
X219898Y471701D01*
X219928Y471713D01*
X219960Y471718D01*
X220041Y471761D01*
X220125Y471797D01*
X220157Y471823D01*
X220178Y471834D01*
X220200Y471857D01*
X220256Y471902D01*
X224566Y476212D01*
X224619Y476286D01*
X224679Y476356D01*
X224691Y476386D01*
X224710Y476412D01*
X224737Y476499D01*
X224771Y476584D01*
X224775Y476625D01*
X224782Y476647D01*
X224781Y476679D01*
X224789Y476751D01*
X224789Y493199D01*
X241369Y509779D01*
X267647Y509779D01*
X275083Y502343D01*
X275083Y457777D01*
X273520Y456214D01*
X267491Y450185D01*
X267479Y450169D01*
X267464Y450156D01*
X267408Y450070D01*
X267348Y449985D01*
X267342Y449966D01*
X267331Y449950D01*
X267306Y449849D01*
X267275Y449750D01*
X267276Y449730D01*
X267271Y449711D01*
X267279Y449608D01*
X267282Y449505D01*
X267288Y449486D01*
X267290Y449466D01*
X267331Y449371D01*
X267366Y449273D01*
X267379Y449258D01*
X267386Y449240D01*
X267491Y449109D01*
X267495Y449104D01*
X268733Y446117D01*
X268733Y442883D01*
X267495Y439895D01*
X265209Y437609D01*
X262221Y436371D01*
X245779Y436371D01*
X242791Y437609D01*
X240505Y439895D01*
X239267Y442883D01*
X239267Y446117D01*
X240505Y449105D01*
X242791Y451391D01*
X245779Y452629D01*
X262221Y452629D01*
X262632Y452458D01*
X262746Y452432D01*
X262859Y452403D01*
X262865Y452404D01*
X262871Y452402D01*
X262988Y452413D01*
X263104Y452422D01*
X263110Y452425D01*
X263116Y452425D01*
X263224Y452473D01*
X263331Y452519D01*
X263336Y452523D01*
X263341Y452525D01*
X263355Y452538D01*
X263462Y452623D01*
X270286Y459448D01*
X270339Y459522D01*
X270399Y459592D01*
X270411Y459622D01*
X270430Y459648D01*
X270457Y459735D01*
X270491Y459820D01*
X270495Y459861D01*
X270502Y459883D01*
X270501Y459915D01*
X270509Y459987D01*
X270509Y500133D01*
X270495Y500224D01*
X270487Y500314D01*
X270475Y500344D01*
X270470Y500376D01*
X270427Y500457D01*
X270391Y500541D01*
X270365Y500573D01*
X270354Y500594D01*
X270331Y500616D01*
X270286Y500672D01*
X265976Y504982D01*
X265902Y505035D01*
X265832Y505095D01*
X265802Y505107D01*
X265776Y505126D01*
X265689Y505153D01*
X265604Y505187D01*
X265563Y505191D01*
X265541Y505198D01*
X265509Y505197D01*
X265437Y505205D01*
X243579Y505205D01*
X243488Y505191D01*
X243398Y505183D01*
X243368Y505171D01*
X243336Y505166D01*
X243255Y505123D01*
X243171Y505087D01*
X243139Y505061D01*
X243118Y505050D01*
X243096Y505027D01*
X243040Y504982D01*
X229586Y491528D01*
X229533Y491454D01*
X229473Y491384D01*
X229461Y491354D01*
X229442Y491328D01*
X229415Y491241D01*
X229381Y491156D01*
X229377Y491115D01*
X229370Y491093D01*
X229371Y491061D01*
X229363Y490989D01*
X229363Y475226D01*
X229374Y475156D01*
X229376Y475084D01*
X229394Y475035D01*
X229402Y474984D01*
X229436Y474920D01*
X229461Y474853D01*
X229493Y474812D01*
X229518Y474766D01*
X229570Y474717D01*
X229614Y474661D01*
X229658Y474633D01*
X229696Y474597D01*
X229761Y474567D01*
X229821Y474528D01*
X229872Y474515D01*
X229919Y474493D01*
X229990Y474485D01*
X230060Y474468D01*
X230112Y474472D01*
X230163Y474466D01*
X230234Y474481D01*
X230305Y474487D01*
X230353Y474507D01*
X230404Y474518D01*
X230465Y474555D01*
X230531Y474583D01*
X230587Y474628D01*
X230615Y474645D01*
X230630Y474662D01*
X230662Y474688D01*
X241369Y485395D01*
X245625Y485395D01*
X245715Y485409D01*
X245806Y485417D01*
X245836Y485429D01*
X245868Y485434D01*
X245949Y485477D01*
X246033Y485513D01*
X246065Y485539D01*
X246086Y485550D01*
X246108Y485573D01*
X246164Y485618D01*
X246418Y485872D01*
X246460Y485930D01*
X246509Y485982D01*
X246531Y486029D01*
X246561Y486071D01*
X246582Y486140D01*
X246613Y486205D01*
X246618Y486257D01*
X246634Y486307D01*
X246632Y486378D01*
X246640Y486449D01*
X246629Y486500D01*
X246627Y486552D01*
X246603Y486620D01*
X246588Y486690D01*
X246561Y486735D01*
X246543Y486783D01*
X246498Y486839D01*
X246461Y486901D01*
X246422Y486935D01*
X246389Y486975D01*
X246329Y487014D01*
X246274Y487061D01*
X246226Y487080D01*
X246182Y487108D01*
X246113Y487126D01*
X246046Y487153D01*
X245975Y487161D01*
X245944Y487169D01*
X245920Y487167D01*
X245880Y487171D01*
X245779Y487171D01*
X242791Y488409D01*
X240505Y490695D01*
X239267Y493683D01*
X239267Y496917D01*
X240505Y499905D01*
X242791Y502191D01*
X245779Y503429D01*
X262221Y503429D01*
X265209Y502191D01*
X267495Y499905D01*
X268733Y496917D01*
X268733Y493683D01*
X267495Y490695D01*
X265209Y488409D01*
X262221Y487171D01*
X254501Y487171D01*
X254410Y487157D01*
X254320Y487149D01*
X254290Y487137D01*
X254258Y487132D01*
X254177Y487089D01*
X254093Y487053D01*
X254061Y487027D01*
X254040Y487016D01*
X254018Y486993D01*
X253962Y486948D01*
X247835Y480821D01*
X243579Y480821D01*
X243488Y480807D01*
X243398Y480799D01*
X243368Y480787D01*
X243336Y480782D01*
X243255Y480739D01*
X243171Y480703D01*
X243139Y480677D01*
X243118Y480666D01*
X243096Y480643D01*
X243040Y480598D01*
X229586Y467144D01*
X229533Y467070D01*
X229473Y467000D01*
X229461Y466970D01*
X229442Y466944D01*
X229415Y466857D01*
X229381Y466772D01*
X229377Y466731D01*
X229370Y466709D01*
X229371Y466677D01*
X229363Y466605D01*
X229363Y445585D01*
X228034Y444256D01*
X227981Y444182D01*
X227921Y444112D01*
X227909Y444082D01*
X227890Y444056D01*
X227863Y443969D01*
X227829Y443884D01*
X227825Y443843D01*
X227818Y443821D01*
X227819Y443789D01*
X227811Y443717D01*
X227811Y439762D01*
X224602Y436553D01*
X224590Y436537D01*
X224574Y436524D01*
X224518Y436437D01*
X224458Y436353D01*
X224452Y436334D01*
X224441Y436317D01*
X224416Y436217D01*
X224386Y436118D01*
X224386Y436098D01*
X224381Y436079D01*
X224389Y435976D01*
X224392Y435872D01*
X224399Y435853D01*
X224401Y435834D01*
X224441Y435739D01*
X224477Y435641D01*
X224489Y435625D01*
X224497Y435607D01*
X224602Y435476D01*
X226276Y433802D01*
X226350Y433749D01*
X226420Y433689D01*
X226450Y433677D01*
X226476Y433658D01*
X226563Y433631D01*
X226648Y433597D01*
X226689Y433593D01*
X226711Y433586D01*
X226743Y433587D01*
X226815Y433579D01*
X263913Y433579D01*
X264004Y433593D01*
X264094Y433601D01*
X264124Y433613D01*
X264156Y433618D01*
X264237Y433661D01*
X264321Y433697D01*
X264353Y433723D01*
X264374Y433734D01*
X264396Y433757D01*
X264452Y433802D01*
X267277Y436627D01*
X305061Y436627D01*
X305152Y436641D01*
X305242Y436649D01*
X305272Y436661D01*
X305304Y436666D01*
X305385Y436709D01*
X305469Y436745D01*
X305501Y436771D01*
X305522Y436782D01*
X305544Y436805D01*
X305600Y436850D01*
X314521Y445771D01*
X314815Y445771D01*
X314930Y445790D01*
X315046Y445807D01*
X315052Y445809D01*
X315058Y445810D01*
X315161Y445865D01*
X315265Y445918D01*
X315270Y445923D01*
X315275Y445926D01*
X315354Y446009D01*
X315438Y446094D01*
X315441Y446100D01*
X315445Y446104D01*
X315453Y446121D01*
X315519Y446241D01*
X316705Y449105D01*
X318991Y451391D01*
X321979Y452629D01*
X338421Y452629D01*
X341409Y451391D01*
X343695Y449105D01*
X344933Y446117D01*
X344933Y442883D01*
X343695Y439895D01*
X341409Y437609D01*
X338421Y436371D01*
X321979Y436371D01*
X318991Y437609D01*
X316705Y439895D01*
X316675Y439968D01*
X316651Y440007D01*
X316635Y440050D01*
X316586Y440111D01*
X316545Y440177D01*
X316510Y440206D01*
X316481Y440242D01*
X316416Y440284D01*
X316356Y440334D01*
X316313Y440351D01*
X316274Y440375D01*
X316199Y440394D01*
X316126Y440422D01*
X316080Y440424D01*
X316036Y440435D01*
X315958Y440429D01*
X315880Y440433D01*
X315836Y440420D01*
X315790Y440416D01*
X315719Y440386D01*
X315644Y440364D01*
X315606Y440338D01*
X315564Y440320D01*
X315457Y440235D01*
X315442Y440224D01*
X315439Y440220D01*
X315433Y440215D01*
X310096Y434878D01*
X310054Y434820D01*
X310005Y434768D01*
X309983Y434721D01*
X309953Y434679D01*
X309932Y434610D01*
X309901Y434545D01*
X309896Y434493D01*
X309880Y434443D01*
X309882Y434372D01*
X309874Y434301D01*
X309885Y434250D01*
X309887Y434198D01*
X309911Y434130D01*
X309926Y434060D01*
X309953Y434016D01*
X309971Y433967D01*
X310016Y433911D01*
X310053Y433849D01*
X310092Y433815D01*
X310125Y433775D01*
X310185Y433736D01*
X310240Y433689D01*
X310288Y433670D01*
X310332Y433642D01*
X310401Y433624D01*
X310468Y433597D01*
X310539Y433589D01*
X310570Y433581D01*
X310594Y433583D01*
X310634Y433579D01*
X340113Y433579D01*
X340204Y433593D01*
X340294Y433601D01*
X340324Y433613D01*
X340356Y433618D01*
X340437Y433661D01*
X340521Y433697D01*
X340553Y433723D01*
X340574Y433734D01*
X340596Y433757D01*
X340652Y433802D01*
X346486Y439636D01*
X346539Y439710D01*
X346599Y439780D01*
X346611Y439810D01*
X346630Y439836D01*
X346657Y439923D01*
X346691Y440008D01*
X346695Y440049D01*
X346702Y440071D01*
X346701Y440103D01*
X346709Y440175D01*
X346709Y454413D01*
X346695Y454504D01*
X346687Y454594D01*
X346675Y454624D01*
X346670Y454656D01*
X346627Y454737D01*
X346591Y454821D01*
X346565Y454853D01*
X346554Y454874D01*
X346531Y454896D01*
X346486Y454952D01*
X339662Y461777D01*
X339567Y461845D01*
X339473Y461914D01*
X339467Y461916D01*
X339462Y461920D01*
X339350Y461954D01*
X339239Y461991D01*
X339233Y461991D01*
X339227Y461992D01*
X339110Y461989D01*
X338993Y461988D01*
X338986Y461986D01*
X338981Y461986D01*
X338963Y461980D01*
X338832Y461942D01*
X338421Y461771D01*
X321979Y461771D01*
X318991Y463009D01*
X316705Y465295D01*
X315467Y468283D01*
X315467Y471517D01*
X316705Y474505D01*
X318991Y476791D01*
X321979Y478029D01*
X338421Y478029D01*
X341409Y476791D01*
X343695Y474505D01*
X344933Y471517D01*
X344933Y468283D01*
X343695Y465296D01*
X343691Y465291D01*
X343679Y465275D01*
X343664Y465263D01*
X343608Y465176D01*
X343548Y465092D01*
X343542Y465073D01*
X343531Y465056D01*
X343506Y464955D01*
X343475Y464857D01*
X343476Y464837D01*
X343471Y464817D01*
X343479Y464714D01*
X343482Y464611D01*
X343488Y464592D01*
X343490Y464572D01*
X343530Y464477D01*
X343566Y464380D01*
X343578Y464364D01*
X343586Y464346D01*
X343691Y464215D01*
X348458Y459448D01*
X348516Y459406D01*
X348568Y459357D01*
X348615Y459335D01*
X348657Y459305D01*
X348726Y459284D01*
X348791Y459253D01*
X348843Y459248D01*
X348893Y459232D01*
X348964Y459234D01*
X349035Y459226D01*
X349086Y459237D01*
X349138Y459239D01*
X349206Y459263D01*
X349276Y459278D01*
X349320Y459305D01*
X349369Y459323D01*
X349425Y459368D01*
X349487Y459405D01*
X349521Y459444D01*
X349561Y459477D01*
X349600Y459537D01*
X349647Y459592D01*
X349666Y459640D01*
X349694Y459684D01*
X349712Y459753D01*
X349739Y459820D01*
X349747Y459891D01*
X349755Y459922D01*
X349753Y459946D01*
X349757Y459986D01*
X349757Y471177D01*
X349743Y471268D01*
X349735Y471358D01*
X349723Y471388D01*
X349718Y471420D01*
X349675Y471501D01*
X349639Y471585D01*
X349613Y471617D01*
X349602Y471638D01*
X349579Y471660D01*
X349534Y471716D01*
X340652Y480598D01*
X340578Y480651D01*
X340508Y480711D01*
X340478Y480723D01*
X340452Y480742D01*
X340365Y480769D01*
X340280Y480803D01*
X340239Y480807D01*
X340217Y480814D01*
X340185Y480813D01*
X340113Y480821D01*
X335857Y480821D01*
X334294Y482384D01*
X329730Y486948D01*
X329656Y487001D01*
X329586Y487061D01*
X329556Y487073D01*
X329530Y487092D01*
X329443Y487119D01*
X329358Y487153D01*
X329317Y487157D01*
X329295Y487164D01*
X329263Y487163D01*
X329192Y487171D01*
X321979Y487171D01*
X318991Y488409D01*
X316705Y490695D01*
X315467Y493683D01*
X315467Y496917D01*
X316705Y499905D01*
X318991Y502191D01*
X321979Y503429D01*
X338421Y503429D01*
X341409Y502191D01*
X343695Y499905D01*
X344933Y496917D01*
X344933Y493683D01*
X343695Y490695D01*
X341409Y488409D01*
X338421Y487171D01*
X337812Y487171D01*
X337742Y487160D01*
X337670Y487158D01*
X337621Y487140D01*
X337570Y487132D01*
X337506Y487098D01*
X337439Y487073D01*
X337398Y487041D01*
X337352Y487016D01*
X337303Y486965D01*
X337247Y486920D01*
X337219Y486876D01*
X337183Y486838D01*
X337153Y486773D01*
X337114Y486713D01*
X337101Y486662D01*
X337079Y486615D01*
X337071Y486544D01*
X337054Y486474D01*
X337058Y486422D01*
X337052Y486371D01*
X337067Y486300D01*
X337073Y486229D01*
X337093Y486181D01*
X337104Y486130D01*
X337141Y486069D01*
X337169Y486003D01*
X337214Y485947D01*
X337231Y485919D01*
X337248Y485904D01*
X337274Y485872D01*
X337528Y485618D01*
X337602Y485565D01*
X337672Y485505D01*
X337702Y485493D01*
X337728Y485474D01*
X337815Y485447D01*
X337900Y485413D01*
X337941Y485409D01*
X337963Y485402D01*
X337995Y485403D01*
X338066Y485395D01*
X342323Y485395D01*
X354331Y473387D01*
X354331Y450468D01*
X354342Y450398D01*
X354344Y450326D01*
X354362Y450277D01*
X354370Y450226D01*
X354404Y450162D01*
X354429Y450095D01*
X354461Y450054D01*
X354486Y450008D01*
X354538Y449959D01*
X354582Y449903D01*
X354626Y449875D01*
X354664Y449839D01*
X354729Y449809D01*
X354789Y449770D01*
X354840Y449757D01*
X354887Y449735D01*
X354958Y449727D01*
X355028Y449710D01*
X355080Y449714D01*
X355131Y449708D01*
X355202Y449723D01*
X355273Y449729D01*
X355321Y449749D01*
X355372Y449760D01*
X355433Y449797D01*
X355499Y449825D01*
X355555Y449870D01*
X355583Y449887D01*
X355598Y449904D01*
X355630Y449930D01*
X357091Y451391D01*
X360079Y452629D01*
X365760Y452629D01*
X365780Y452632D01*
X365799Y452630D01*
X365901Y452652D01*
X366003Y452668D01*
X366020Y452678D01*
X366040Y452682D01*
X366129Y452735D01*
X366220Y452784D01*
X366234Y452798D01*
X366251Y452808D01*
X366318Y452887D01*
X366390Y452962D01*
X366398Y452980D01*
X366411Y452995D01*
X366450Y453091D01*
X366493Y453185D01*
X366495Y453205D01*
X366503Y453223D01*
X366521Y453390D01*
X366521Y535185D01*
X366507Y535276D01*
X366499Y535366D01*
X366487Y535396D01*
X366482Y535428D01*
X366439Y535509D01*
X366403Y535593D01*
X366377Y535625D01*
X366366Y535646D01*
X366343Y535668D01*
X366298Y535724D01*
X359594Y542428D01*
X359500Y542496D01*
X359496Y542499D01*
X359473Y542518D01*
X359466Y542521D01*
X359406Y542566D01*
X359400Y542568D01*
X359395Y542571D01*
X359284Y542605D01*
X359172Y542642D01*
X359166Y542642D01*
X359160Y542644D01*
X359043Y542641D01*
X358926Y542639D01*
X358919Y542637D01*
X358914Y542637D01*
X358896Y542631D01*
X358765Y542593D01*
X357419Y542035D01*
X353781Y542035D01*
X350420Y543427D01*
X347847Y546000D01*
X346455Y549361D01*
X346455Y550164D01*
X346452Y550184D01*
X346454Y550203D01*
X346435Y550294D01*
X346434Y550306D01*
X346430Y550318D01*
X346416Y550407D01*
X346406Y550424D01*
X346402Y550444D01*
X346356Y550521D01*
X346350Y550537D01*
X346339Y550551D01*
X346300Y550624D01*
X346286Y550638D01*
X346276Y550655D01*
X346212Y550709D01*
X346196Y550729D01*
X346176Y550743D01*
X346122Y550794D01*
X346104Y550802D01*
X346089Y550815D01*
X346020Y550842D01*
X345989Y550862D01*
X345955Y550871D01*
X345899Y550897D01*
X345879Y550899D01*
X345861Y550907D01*
X345776Y550916D01*
X345751Y550923D01*
X345732Y550921D01*
X345694Y550925D01*
X345687Y550925D01*
X345670Y550923D01*
X345655Y550924D01*
X345589Y550910D01*
X345506Y550903D01*
X345476Y550891D01*
X345444Y550886D01*
X345421Y550873D01*
X345414Y550872D01*
X345383Y550853D01*
X345363Y550843D01*
X345279Y550807D01*
X345247Y550781D01*
X345226Y550770D01*
X345204Y550747D01*
X345148Y550702D01*
X328607Y534161D01*
X282517Y534161D01*
X273104Y543574D01*
X273087Y543586D01*
X273075Y543602D01*
X272988Y543658D01*
X272904Y543718D01*
X272885Y543724D01*
X272868Y543735D01*
X272768Y543760D01*
X272669Y543790D01*
X272649Y543790D01*
X272630Y543795D01*
X272527Y543787D01*
X272423Y543784D01*
X272404Y543777D01*
X272384Y543776D01*
X272289Y543735D01*
X272192Y543700D01*
X272176Y543687D01*
X272158Y543679D01*
X272027Y543574D01*
X271880Y543427D01*
X268519Y542035D01*
X264881Y542035D01*
X261520Y543427D01*
X258947Y546000D01*
X257555Y549361D01*
X257555Y562356D01*
X257552Y562376D01*
X257554Y562395D01*
X257532Y562497D01*
X257516Y562599D01*
X257506Y562616D01*
X257502Y562636D01*
X257449Y562725D01*
X257400Y562816D01*
X257386Y562830D01*
X257376Y562847D01*
X257297Y562914D01*
X257222Y562986D01*
X257204Y562994D01*
X257189Y563007D01*
X257093Y563046D01*
X256999Y563089D01*
X256979Y563091D01*
X256961Y563099D01*
X256794Y563117D01*
X245941Y563117D01*
X214121Y594937D01*
X214121Y596145D01*
X214107Y596236D01*
X214099Y596326D01*
X214087Y596356D01*
X214082Y596388D01*
X214039Y596469D01*
X214003Y596553D01*
X213977Y596585D01*
X213966Y596606D01*
X213943Y596628D01*
X213898Y596684D01*
X211512Y599070D01*
X211474Y599097D01*
X211443Y599131D01*
X211375Y599169D01*
X211312Y599214D01*
X211268Y599227D01*
X211228Y599250D01*
X211151Y599263D01*
X211077Y599286D01*
X211031Y599285D01*
X210986Y599293D01*
X210909Y599282D01*
X210831Y599280D01*
X210788Y599264D01*
X210742Y599257D01*
X210673Y599222D01*
X210600Y599195D01*
X210564Y599167D01*
X210523Y599146D01*
X210469Y599090D01*
X210408Y599042D01*
X210383Y599003D01*
X210351Y598970D01*
X210285Y598851D01*
X210275Y598835D01*
X210274Y598830D01*
X210270Y598823D01*
X210091Y598391D01*
X207805Y596105D01*
X204817Y594867D01*
X201583Y594867D01*
X198595Y596105D01*
X196309Y598391D01*
X195071Y601379D01*
X195071Y617821D01*
X196309Y620809D01*
X198595Y623095D01*
X201583Y624333D01*
X204817Y624333D01*
X207805Y623095D01*
X210091Y620809D01*
X211329Y617821D01*
X211329Y606036D01*
X211343Y605946D01*
X211351Y605855D01*
X211363Y605826D01*
X211368Y605794D01*
X211411Y605713D01*
X211447Y605629D01*
X211473Y605597D01*
X211484Y605576D01*
X211507Y605554D01*
X211552Y605498D01*
X217132Y599918D01*
X218695Y598355D01*
X218695Y597147D01*
X218709Y597056D01*
X218717Y596966D01*
X218729Y596936D01*
X218734Y596904D01*
X218777Y596823D01*
X218813Y596739D01*
X218839Y596707D01*
X218850Y596686D01*
X218873Y596664D01*
X218918Y596608D01*
X247612Y567914D01*
X247686Y567861D01*
X247756Y567801D01*
X247786Y567789D01*
X247812Y567770D01*
X247899Y567743D01*
X247984Y567709D01*
X248025Y567705D01*
X248047Y567698D01*
X248079Y567699D01*
X248151Y567691D01*
X256820Y567691D01*
X256934Y567710D01*
X257050Y567727D01*
X257056Y567729D01*
X257062Y567730D01*
X257165Y567785D01*
X257270Y567838D01*
X257274Y567843D01*
X257280Y567846D01*
X257360Y567930D01*
X257442Y568014D01*
X257446Y568020D01*
X257449Y568024D01*
X257457Y568041D01*
X257523Y568161D01*
X258947Y571600D01*
X261520Y574173D01*
X264881Y575565D01*
X268519Y575565D01*
X271880Y574173D01*
X274453Y571600D01*
X275845Y568239D01*
X275845Y549361D01*
X275436Y548374D01*
X275409Y548260D01*
X275381Y548147D01*
X275381Y548141D01*
X275380Y548135D01*
X275391Y548019D01*
X275400Y547902D01*
X275402Y547896D01*
X275403Y547890D01*
X275451Y547782D01*
X275496Y547676D01*
X275501Y547670D01*
X275503Y547665D01*
X275516Y547651D01*
X275601Y547545D01*
X284188Y538958D01*
X284262Y538905D01*
X284332Y538845D01*
X284362Y538833D01*
X284388Y538814D01*
X284475Y538787D01*
X284560Y538753D01*
X284601Y538749D01*
X284623Y538742D01*
X284655Y538743D01*
X284727Y538735D01*
X326397Y538735D01*
X326488Y538749D01*
X326578Y538757D01*
X326608Y538769D01*
X326640Y538774D01*
X326721Y538817D01*
X326805Y538853D01*
X326837Y538879D01*
X326858Y538890D01*
X326880Y538913D01*
X326936Y538958D01*
X343477Y555499D01*
X345694Y555499D01*
X345714Y555502D01*
X345733Y555500D01*
X345835Y555522D01*
X345937Y555538D01*
X345954Y555548D01*
X345974Y555552D01*
X346063Y555605D01*
X346154Y555654D01*
X346168Y555668D01*
X346185Y555678D01*
X346252Y555757D01*
X346324Y555832D01*
X346332Y555850D01*
X346345Y555865D01*
X346384Y555961D01*
X346427Y556055D01*
X346429Y556075D01*
X346437Y556093D01*
X346455Y556260D01*
X346455Y568239D01*
X347847Y571600D01*
X350420Y574173D01*
X353781Y575565D01*
X357419Y575565D01*
X360780Y574173D01*
X363353Y571600D01*
X364745Y568239D01*
X364745Y549361D01*
X363295Y545860D01*
X363272Y545765D01*
X363243Y545670D01*
X363244Y545651D01*
X363239Y545633D01*
X363240Y545626D01*
X363238Y545621D01*
X363248Y545524D01*
X363250Y545424D01*
X363257Y545406D01*
X363258Y545388D01*
X363261Y545382D01*
X363262Y545376D01*
X363301Y545287D01*
X363336Y545193D01*
X363347Y545179D01*
X363355Y545161D01*
X363360Y545155D01*
X363362Y545151D01*
X363374Y545138D01*
X363460Y545030D01*
X369532Y538958D01*
X369606Y538905D01*
X369676Y538845D01*
X369706Y538833D01*
X369732Y538814D01*
X369819Y538787D01*
X369904Y538753D01*
X369945Y538749D01*
X369967Y538742D01*
X369999Y538743D01*
X370071Y538735D01*
X411741Y538735D01*
X411832Y538749D01*
X411922Y538757D01*
X411952Y538769D01*
X411984Y538774D01*
X412065Y538817D01*
X412149Y538853D01*
X412181Y538879D01*
X412202Y538890D01*
X412224Y538913D01*
X412280Y538958D01*
X433393Y560071D01*
X434594Y560071D01*
X434614Y560074D01*
X434633Y560072D01*
X434735Y560094D01*
X434837Y560110D01*
X434854Y560120D01*
X434874Y560124D01*
X434963Y560177D01*
X435054Y560226D01*
X435068Y560240D01*
X435085Y560250D01*
X435152Y560329D01*
X435224Y560404D01*
X435232Y560422D01*
X435245Y560437D01*
X435284Y560533D01*
X435327Y560627D01*
X435329Y560647D01*
X435337Y560665D01*
X435355Y560832D01*
X435355Y568239D01*
X436747Y571600D01*
X439320Y574173D01*
X442681Y575565D01*
X446319Y575565D01*
X449680Y574173D01*
X452253Y571600D01*
X453645Y568239D01*
X453645Y549361D01*
X452253Y546000D01*
X449680Y543427D01*
X446319Y542035D01*
X442681Y542035D01*
X439320Y543427D01*
X436747Y546000D01*
X435355Y549361D01*
X435355Y553728D01*
X435344Y553798D01*
X435342Y553870D01*
X435324Y553919D01*
X435316Y553970D01*
X435282Y554034D01*
X435257Y554101D01*
X435225Y554142D01*
X435200Y554188D01*
X435148Y554237D01*
X435104Y554293D01*
X435060Y554321D01*
X435022Y554357D01*
X434957Y554387D01*
X434897Y554426D01*
X434846Y554439D01*
X434799Y554461D01*
X434728Y554469D01*
X434658Y554486D01*
X434606Y554482D01*
X434555Y554488D01*
X434484Y554473D01*
X434413Y554467D01*
X434365Y554447D01*
X434314Y554436D01*
X434253Y554399D01*
X434187Y554371D01*
X434131Y554326D01*
X434103Y554309D01*
X434088Y554292D01*
X434056Y554266D01*
X415514Y535724D01*
X413951Y534161D01*
X371856Y534161D01*
X371836Y534158D01*
X371817Y534160D01*
X371715Y534138D01*
X371613Y534122D01*
X371596Y534112D01*
X371576Y534108D01*
X371487Y534055D01*
X371396Y534006D01*
X371382Y533992D01*
X371365Y533982D01*
X371298Y533903D01*
X371226Y533828D01*
X371218Y533810D01*
X371205Y533795D01*
X371166Y533699D01*
X371123Y533605D01*
X371121Y533585D01*
X371113Y533567D01*
X371095Y533400D01*
X371095Y494737D01*
X371106Y494667D01*
X371108Y494595D01*
X371126Y494546D01*
X371134Y494495D01*
X371168Y494431D01*
X371193Y494364D01*
X371225Y494323D01*
X371250Y494277D01*
X371302Y494228D01*
X371346Y494172D01*
X371390Y494144D01*
X371428Y494108D01*
X371493Y494078D01*
X371553Y494039D01*
X371604Y494026D01*
X371651Y494004D01*
X371722Y493996D01*
X371792Y493979D01*
X371844Y493983D01*
X371895Y493977D01*
X371966Y493992D01*
X372037Y493998D01*
X372085Y494018D01*
X372136Y494029D01*
X372197Y494066D01*
X372263Y494094D01*
X372319Y494139D01*
X372347Y494156D01*
X372362Y494173D01*
X372394Y494199D01*
X372706Y494511D01*
X377102Y494511D01*
X380211Y491402D01*
X380211Y487446D01*
X380225Y487356D01*
X380233Y487265D01*
X380245Y487236D01*
X380250Y487204D01*
X380293Y487123D01*
X380329Y487039D01*
X380355Y487007D01*
X380366Y486986D01*
X380389Y486964D01*
X380434Y486908D01*
X397003Y470339D01*
X397003Y341953D01*
X381947Y326897D01*
X377285Y326897D01*
X377189Y326882D01*
X377092Y326872D01*
X377068Y326862D01*
X377043Y326858D01*
X376957Y326812D01*
X376868Y326772D01*
X376848Y326755D01*
X376825Y326742D01*
X376758Y326672D01*
X376687Y326606D01*
X376674Y326583D01*
X376656Y326564D01*
X376615Y326476D01*
X376568Y326390D01*
X376563Y326365D01*
X376552Y326341D01*
X376542Y326244D01*
X376524Y326148D01*
X376528Y326122D01*
X376525Y326097D01*
X376546Y326001D01*
X376560Y325905D01*
X376572Y325882D01*
X376577Y325856D01*
X376627Y325773D01*
X376672Y325686D01*
X376690Y325667D01*
X376704Y325645D01*
X376778Y325582D01*
X376847Y325514D01*
X376876Y325498D01*
X376891Y325485D01*
X376921Y325473D01*
X376994Y325433D01*
X379509Y324391D01*
X381795Y322105D01*
X383033Y319117D01*
X383033Y315883D01*
X381795Y312895D01*
X379509Y310609D01*
X376521Y309371D01*
X360079Y309371D01*
X357091Y310609D01*
X354805Y312895D01*
X353567Y315883D01*
X353567Y319117D01*
X354805Y322105D01*
X357091Y324391D01*
X359606Y325433D01*
X359689Y325484D01*
X359775Y325530D01*
X359793Y325548D01*
X359815Y325562D01*
X359877Y325638D01*
X359944Y325708D01*
X359955Y325732D01*
X359972Y325752D01*
X360007Y325843D01*
X360048Y325931D01*
X360051Y325957D01*
X360060Y325981D01*
X360064Y326079D01*
X360075Y326175D01*
X360069Y326201D01*
X360070Y326227D01*
X360043Y326321D01*
X360023Y326416D01*
X360009Y326438D01*
X360002Y326463D01*
X359946Y326543D01*
X359896Y326627D01*
X359877Y326644D01*
X359862Y326665D01*
X359783Y326724D01*
X359709Y326787D01*
X359685Y326797D01*
X359664Y326812D01*
X359572Y326842D01*
X359481Y326879D01*
X359449Y326882D01*
X359430Y326888D01*
X359397Y326888D01*
X359315Y326897D01*
X347211Y326897D01*
X347120Y326883D01*
X347030Y326875D01*
X347000Y326863D01*
X346968Y326858D01*
X346887Y326815D01*
X346803Y326779D01*
X346771Y326753D01*
X346750Y326742D01*
X346728Y326719D01*
X346672Y326674D01*
X343437Y323439D01*
X343425Y323423D01*
X343410Y323411D01*
X343354Y323323D01*
X343294Y323239D01*
X343288Y323220D01*
X343277Y323204D01*
X343252Y323103D01*
X343221Y323004D01*
X343222Y322984D01*
X343217Y322965D01*
X343225Y322862D01*
X343228Y322759D01*
X343234Y322740D01*
X343236Y322720D01*
X343276Y322625D01*
X343312Y322527D01*
X343325Y322512D01*
X343332Y322494D01*
X343437Y322363D01*
X343695Y322105D01*
X344933Y319117D01*
X344933Y315883D01*
X343695Y312895D01*
X341409Y310609D01*
X338421Y309371D01*
X321979Y309371D01*
X318991Y310609D01*
X316705Y312895D01*
X315467Y315883D01*
X315467Y319117D01*
X316705Y322105D01*
X318991Y324391D01*
X321979Y325629D01*
X338421Y325629D01*
X338473Y325607D01*
X338586Y325581D01*
X338700Y325552D01*
X338706Y325553D01*
X338712Y325551D01*
X338829Y325562D01*
X338945Y325571D01*
X338951Y325574D01*
X338957Y325574D01*
X339065Y325622D01*
X339171Y325667D01*
X339177Y325672D01*
X339182Y325674D01*
X339196Y325687D01*
X339302Y325772D01*
X343438Y329908D01*
X345001Y331471D01*
X379737Y331471D01*
X379828Y331485D01*
X379918Y331493D01*
X379948Y331505D01*
X379980Y331510D01*
X380061Y331553D01*
X380145Y331589D01*
X380177Y331615D01*
X380198Y331626D01*
X380220Y331649D01*
X380276Y331694D01*
X392206Y343624D01*
X392259Y343698D01*
X392319Y343768D01*
X392331Y343798D01*
X392350Y343824D01*
X392377Y343911D01*
X392411Y343996D01*
X392415Y344037D01*
X392422Y344059D01*
X392421Y344091D01*
X392429Y344163D01*
X392429Y451667D01*
X392418Y451736D01*
X392416Y451807D01*
X392398Y451857D01*
X392390Y451909D01*
X392357Y451972D01*
X392332Y452038D01*
X392299Y452080D01*
X392274Y452127D01*
X392223Y452175D01*
X392179Y452231D01*
X392135Y452260D01*
X392096Y452296D01*
X392032Y452326D01*
X391973Y452364D01*
X391921Y452377D01*
X391873Y452400D01*
X391803Y452408D01*
X391734Y452425D01*
X391681Y452421D01*
X391629Y452427D01*
X391559Y452412D01*
X391489Y452407D01*
X391440Y452386D01*
X391388Y452375D01*
X391328Y452338D01*
X391262Y452311D01*
X391223Y452276D01*
X391177Y452248D01*
X391131Y452195D01*
X391078Y452148D01*
X391038Y452086D01*
X391017Y452061D01*
X391009Y452040D01*
X390987Y452007D01*
X390960Y451919D01*
X390925Y451833D01*
X390921Y451794D01*
X390914Y451772D01*
X390915Y451740D01*
X390907Y451667D01*
X390907Y409009D01*
X381537Y399639D01*
X381525Y399623D01*
X381510Y399611D01*
X381454Y399523D01*
X381394Y399439D01*
X381388Y399420D01*
X381377Y399404D01*
X381352Y399303D01*
X381321Y399204D01*
X381322Y399184D01*
X381317Y399165D01*
X381325Y399062D01*
X381328Y398959D01*
X381334Y398940D01*
X381336Y398920D01*
X381376Y398825D01*
X381412Y398727D01*
X381425Y398712D01*
X381432Y398694D01*
X381537Y398563D01*
X381795Y398305D01*
X383033Y395317D01*
X383033Y392083D01*
X381795Y389095D01*
X379509Y386809D01*
X376521Y385571D01*
X360079Y385571D01*
X357091Y386809D01*
X354805Y389095D01*
X353567Y392083D01*
X353567Y395317D01*
X354805Y398305D01*
X357091Y400591D01*
X360079Y401829D01*
X376521Y401829D01*
X376573Y401807D01*
X376686Y401781D01*
X376800Y401752D01*
X376806Y401753D01*
X376812Y401751D01*
X376929Y401762D01*
X377045Y401771D01*
X377051Y401774D01*
X377057Y401774D01*
X377165Y401822D01*
X377271Y401867D01*
X377277Y401872D01*
X377282Y401874D01*
X377296Y401887D01*
X377402Y401972D01*
X386110Y410680D01*
X386163Y410754D01*
X386223Y410824D01*
X386235Y410854D01*
X386254Y410880D01*
X386281Y410967D01*
X386315Y411052D01*
X386319Y411093D01*
X386326Y411115D01*
X386325Y411147D01*
X386333Y411219D01*
X386333Y451667D01*
X386319Y451757D01*
X386311Y451848D01*
X386299Y451877D01*
X386294Y451909D01*
X386251Y451990D01*
X386215Y452074D01*
X386189Y452106D01*
X386178Y452127D01*
X386155Y452149D01*
X386110Y452205D01*
X383313Y455002D01*
X383313Y459398D01*
X386422Y462507D01*
X390818Y462507D01*
X391130Y462195D01*
X391188Y462153D01*
X391240Y462104D01*
X391287Y462082D01*
X391329Y462052D01*
X391398Y462030D01*
X391463Y462000D01*
X391515Y461995D01*
X391565Y461979D01*
X391636Y461981D01*
X391707Y461973D01*
X391758Y461984D01*
X391810Y461986D01*
X391878Y462010D01*
X391948Y462025D01*
X391993Y462052D01*
X392041Y462070D01*
X392097Y462115D01*
X392159Y462152D01*
X392193Y462191D01*
X392233Y462224D01*
X392272Y462284D01*
X392319Y462339D01*
X392338Y462387D01*
X392366Y462431D01*
X392384Y462500D01*
X392411Y462567D01*
X392419Y462638D01*
X392427Y462669D01*
X392425Y462692D01*
X392429Y462733D01*
X392429Y468129D01*
X392415Y468220D01*
X392407Y468310D01*
X392395Y468340D01*
X392390Y468372D01*
X392347Y468453D01*
X392311Y468537D01*
X392285Y468569D01*
X392274Y468590D01*
X392251Y468612D01*
X392206Y468668D01*
X377200Y483674D01*
X377126Y483727D01*
X377056Y483787D01*
X377026Y483799D01*
X377000Y483818D01*
X376913Y483845D01*
X376828Y483879D01*
X376787Y483883D01*
X376765Y483890D01*
X376733Y483889D01*
X376662Y483897D01*
X372706Y483897D01*
X372394Y484209D01*
X372336Y484251D01*
X372284Y484300D01*
X372237Y484322D01*
X372195Y484352D01*
X372126Y484374D01*
X372061Y484404D01*
X372009Y484409D01*
X371959Y484425D01*
X371888Y484423D01*
X371817Y484431D01*
X371766Y484420D01*
X371714Y484418D01*
X371646Y484394D01*
X371576Y484379D01*
X371531Y484352D01*
X371483Y484334D01*
X371427Y484289D01*
X371365Y484252D01*
X371331Y484213D01*
X371291Y484180D01*
X371252Y484120D01*
X371205Y484065D01*
X371186Y484017D01*
X371158Y483973D01*
X371140Y483904D01*
X371113Y483837D01*
X371105Y483766D01*
X371097Y483735D01*
X371099Y483712D01*
X371095Y483671D01*
X371095Y453390D01*
X371098Y453370D01*
X371096Y453351D01*
X371118Y453249D01*
X371134Y453147D01*
X371144Y453130D01*
X371148Y453110D01*
X371201Y453021D01*
X371250Y452930D01*
X371264Y452916D01*
X371274Y452899D01*
X371353Y452832D01*
X371428Y452760D01*
X371446Y452752D01*
X371461Y452739D01*
X371557Y452700D01*
X371651Y452657D01*
X371671Y452655D01*
X371689Y452647D01*
X371856Y452629D01*
X376521Y452629D01*
X379509Y451391D01*
X381795Y449105D01*
X383033Y446117D01*
X383033Y442883D01*
X381795Y439895D01*
X379509Y437609D01*
X376521Y436371D01*
X365244Y436371D01*
X365154Y436357D01*
X365063Y436349D01*
X365034Y436337D01*
X365002Y436332D01*
X364921Y436289D01*
X364837Y436253D01*
X364805Y436227D01*
X364784Y436216D01*
X364762Y436193D01*
X364706Y436148D01*
X359126Y430568D01*
X357563Y429005D01*
X356355Y429005D01*
X356264Y428991D01*
X356174Y428983D01*
X356144Y428971D01*
X356112Y428966D01*
X356031Y428923D01*
X355947Y428887D01*
X355915Y428861D01*
X355894Y428850D01*
X355872Y428827D01*
X355816Y428782D01*
X351506Y424472D01*
X351453Y424398D01*
X351393Y424328D01*
X351381Y424298D01*
X351362Y424272D01*
X351335Y424185D01*
X351301Y424100D01*
X351297Y424059D01*
X351290Y424037D01*
X351291Y424005D01*
X351283Y423933D01*
X351283Y421352D01*
X351291Y421304D01*
X351289Y421255D01*
X351300Y421218D01*
X349982Y419900D01*
X349929Y419826D01*
X349869Y419756D01*
X349857Y419726D01*
X349838Y419700D01*
X349811Y419613D01*
X349777Y419528D01*
X349773Y419487D01*
X349766Y419465D01*
X349767Y419433D01*
X349759Y419361D01*
X349759Y418839D01*
X349773Y418748D01*
X349781Y418658D01*
X349793Y418628D01*
X349798Y418596D01*
X349841Y418515D01*
X349877Y418431D01*
X349903Y418399D01*
X349914Y418378D01*
X349937Y418356D01*
X349982Y418300D01*
X351298Y416984D01*
X351287Y416890D01*
X351283Y416866D01*
X351284Y416857D01*
X351283Y416848D01*
X351283Y361765D01*
X342323Y352805D01*
X319779Y352805D01*
X319688Y352791D01*
X319598Y352783D01*
X319568Y352771D01*
X319536Y352766D01*
X319455Y352723D01*
X319371Y352687D01*
X319339Y352661D01*
X319318Y352650D01*
X319296Y352627D01*
X319240Y352582D01*
X270734Y304076D01*
X270681Y304002D01*
X270621Y303932D01*
X270609Y303902D01*
X270590Y303876D01*
X270563Y303789D01*
X270529Y303704D01*
X270525Y303663D01*
X270518Y303641D01*
X270519Y303609D01*
X270511Y303537D01*
X270511Y300805D01*
X267491Y297785D01*
X267479Y297769D01*
X267464Y297756D01*
X267408Y297670D01*
X267348Y297585D01*
X267342Y297566D01*
X267331Y297550D01*
X267306Y297449D01*
X267275Y297350D01*
X267276Y297330D01*
X267271Y297311D01*
X267279Y297208D01*
X267282Y297105D01*
X267288Y297086D01*
X267290Y297066D01*
X267331Y296971D01*
X267366Y296873D01*
X267379Y296858D01*
X267386Y296840D01*
X267491Y296709D01*
X267495Y296704D01*
X268733Y293717D01*
X268733Y290483D01*
X267495Y287495D01*
X267237Y287237D01*
X267226Y287221D01*
X267210Y287209D01*
X267154Y287121D01*
X267094Y287038D01*
X267088Y287019D01*
X267077Y287002D01*
X267052Y286901D01*
X267021Y286803D01*
X267022Y286783D01*
X267017Y286763D01*
X267025Y286660D01*
X267028Y286557D01*
X267034Y286538D01*
X267036Y286518D01*
X267076Y286423D01*
X267112Y286326D01*
X267125Y286310D01*
X267132Y286292D01*
X267237Y286161D01*
X304000Y249398D01*
X304074Y249345D01*
X304144Y249285D01*
X304174Y249273D01*
X304200Y249254D01*
X304287Y249227D01*
X304372Y249193D01*
X304413Y249189D01*
X304435Y249182D01*
X304467Y249183D01*
X304539Y249175D01*
X316415Y249175D01*
X317657Y247933D01*
X317673Y247921D01*
X317685Y247906D01*
X317773Y247850D01*
X317857Y247790D01*
X317876Y247784D01*
X317892Y247773D01*
X317993Y247748D01*
X318092Y247717D01*
X318112Y247718D01*
X318131Y247713D01*
X318234Y247721D01*
X318337Y247724D01*
X318356Y247730D01*
X318376Y247732D01*
X318471Y247772D01*
X318569Y247808D01*
X318584Y247821D01*
X318602Y247828D01*
X318733Y247933D01*
X318991Y248191D01*
X321979Y249429D01*
X338421Y249429D01*
X341409Y248191D01*
X343695Y245905D01*
X344933Y242917D01*
X344933Y239683D01*
X343695Y236696D01*
X343691Y236691D01*
X343679Y236675D01*
X343664Y236663D01*
X343608Y236576D01*
X343548Y236492D01*
X343542Y236473D01*
X343531Y236456D01*
X343506Y236355D01*
X343475Y236257D01*
X343476Y236237D01*
X343471Y236217D01*
X343479Y236114D01*
X343482Y236011D01*
X343488Y235992D01*
X343490Y235972D01*
X343530Y235877D01*
X343566Y235780D01*
X343578Y235764D01*
X343586Y235746D01*
X343691Y235615D01*
X348196Y231110D01*
X348270Y231057D01*
X348340Y230997D01*
X348370Y230985D01*
X348396Y230966D01*
X348483Y230939D01*
X348568Y230905D01*
X348609Y230901D01*
X348631Y230894D01*
X348663Y230895D01*
X348735Y230887D01*
X378213Y230887D01*
X378304Y230901D01*
X378394Y230909D01*
X378424Y230921D01*
X378456Y230926D01*
X378537Y230969D01*
X378621Y231005D01*
X378653Y231031D01*
X378674Y231042D01*
X378696Y231065D01*
X378752Y231110D01*
X383101Y235459D01*
X537395Y235459D01*
X538958Y233896D01*
X539315Y233539D01*
X539352Y233512D01*
X539383Y233479D01*
X539451Y233441D01*
X539514Y233396D01*
X539558Y233382D01*
X539599Y233360D01*
X539675Y233346D01*
X539749Y233323D01*
X539795Y233324D01*
X539841Y233316D01*
X539918Y233328D01*
X539995Y233330D01*
X540038Y233345D01*
X540084Y233352D01*
X540153Y233387D01*
X540226Y233414D01*
X540262Y233443D01*
X540303Y233464D01*
X540358Y233519D01*
X540418Y233568D01*
X540443Y233606D01*
X540475Y233639D01*
X540541Y233759D01*
X540551Y233775D01*
X540553Y233780D01*
X540556Y233786D01*
X540878Y234562D01*
X543838Y237522D01*
X547707Y239125D01*
X569893Y239125D01*
X573762Y237522D01*
X576722Y234562D01*
X578325Y230693D01*
X578325Y226507D01*
X576722Y222638D01*
X573762Y219678D01*
X569893Y218075D01*
X562356Y218075D01*
X562336Y218072D01*
X562317Y218074D01*
X562215Y218052D01*
X562113Y218036D01*
X562096Y218026D01*
X562076Y218022D01*
X561987Y217969D01*
X561896Y217920D01*
X561882Y217906D01*
X561865Y217896D01*
X561798Y217817D01*
X561726Y217742D01*
X561718Y217724D01*
X561705Y217709D01*
X561666Y217613D01*
X561623Y217519D01*
X561621Y217499D01*
X561613Y217481D01*
X561595Y217314D01*
X561595Y214486D01*
X561598Y214466D01*
X561596Y214447D01*
X561618Y214345D01*
X561634Y214243D01*
X561644Y214226D01*
X561648Y214206D01*
X561701Y214117D01*
X561750Y214026D01*
X561764Y214012D01*
X561774Y213995D01*
X561853Y213928D01*
X561928Y213856D01*
X561946Y213848D01*
X561961Y213835D01*
X562057Y213796D01*
X562151Y213753D01*
X562171Y213751D01*
X562189Y213743D01*
X562356Y213725D01*
X569893Y213725D01*
X573762Y212122D01*
X576722Y209162D01*
X578325Y205293D01*
X578325Y201107D01*
X576722Y197238D01*
X573762Y194278D01*
X569893Y192675D01*
X562356Y192675D01*
X562336Y192672D01*
X562317Y192674D01*
X562215Y192652D01*
X562113Y192636D01*
X562096Y192626D01*
X562076Y192622D01*
X561987Y192569D01*
X561896Y192520D01*
X561882Y192506D01*
X561865Y192496D01*
X561798Y192417D01*
X561726Y192342D01*
X561718Y192324D01*
X561705Y192309D01*
X561666Y192213D01*
X561623Y192119D01*
X561621Y192099D01*
X561613Y192081D01*
X561595Y191914D01*
X561595Y189086D01*
X561598Y189066D01*
X561596Y189047D01*
X561618Y188945D01*
X561634Y188843D01*
X561644Y188826D01*
X561648Y188806D01*
X561701Y188717D01*
X561750Y188626D01*
X561764Y188612D01*
X561774Y188595D01*
X561853Y188528D01*
X561928Y188456D01*
X561946Y188448D01*
X561961Y188435D01*
X562057Y188396D01*
X562151Y188353D01*
X562171Y188351D01*
X562189Y188343D01*
X562356Y188325D01*
X569893Y188325D01*
X573762Y186722D01*
X576722Y183762D01*
X578325Y179893D01*
X578325Y175707D01*
X576722Y171838D01*
X573762Y168878D01*
X569893Y167275D01*
X562356Y167275D01*
X562336Y167272D01*
X562317Y167274D01*
X562215Y167252D01*
X562113Y167236D01*
X562096Y167226D01*
X562076Y167222D01*
X561987Y167169D01*
X561896Y167120D01*
X561882Y167106D01*
X561865Y167096D01*
X561798Y167017D01*
X561726Y166942D01*
X561718Y166924D01*
X561705Y166909D01*
X561666Y166813D01*
X561623Y166719D01*
X561621Y166699D01*
X561613Y166681D01*
X561595Y166514D01*
X561595Y163686D01*
X561598Y163666D01*
X561596Y163647D01*
X561618Y163545D01*
X561634Y163443D01*
X561644Y163426D01*
X561648Y163406D01*
X561701Y163317D01*
X561750Y163226D01*
X561764Y163212D01*
X561774Y163195D01*
X561853Y163128D01*
X561928Y163056D01*
X561946Y163048D01*
X561961Y163035D01*
X562057Y162996D01*
X562151Y162953D01*
X562171Y162951D01*
X562189Y162943D01*
X562356Y162925D01*
X569893Y162925D01*
X573762Y161322D01*
X576722Y158362D01*
X578325Y154493D01*
X578325Y150307D01*
X576722Y146438D01*
X573762Y143478D01*
X569893Y141875D01*
X547707Y141875D01*
G37*
%LPD*%
%LPC*%
G36*
X360079Y233171D02*
X360079Y233171D01*
X357091Y234409D01*
X354805Y236695D01*
X353567Y239683D01*
X353567Y242917D01*
X354805Y245905D01*
X357091Y248191D01*
X360079Y249429D01*
X376521Y249429D01*
X376573Y249407D01*
X376686Y249381D01*
X376800Y249352D01*
X376806Y249353D01*
X376812Y249351D01*
X376929Y249362D01*
X377045Y249371D01*
X377051Y249374D01*
X377057Y249374D01*
X377165Y249422D01*
X377271Y249467D01*
X377277Y249472D01*
X377282Y249474D01*
X377296Y249487D01*
X377402Y249572D01*
X530890Y403060D01*
X530943Y403134D01*
X531003Y403204D01*
X531015Y403234D01*
X531034Y403260D01*
X531061Y403347D01*
X531095Y403432D01*
X531099Y403473D01*
X531106Y403495D01*
X531105Y403527D01*
X531113Y403599D01*
X531113Y425458D01*
X531102Y425528D01*
X531100Y425600D01*
X531082Y425649D01*
X531074Y425700D01*
X531040Y425764D01*
X531015Y425831D01*
X530983Y425872D01*
X530958Y425918D01*
X530906Y425967D01*
X530862Y426023D01*
X530818Y426051D01*
X530780Y426087D01*
X530715Y426117D01*
X530655Y426156D01*
X530604Y426169D01*
X530557Y426191D01*
X530486Y426199D01*
X530416Y426216D01*
X530364Y426212D01*
X530313Y426218D01*
X530242Y426203D01*
X530171Y426197D01*
X530123Y426177D01*
X530072Y426166D01*
X530011Y426129D01*
X529945Y426101D01*
X529889Y426056D01*
X529861Y426039D01*
X529846Y426022D01*
X529814Y425996D01*
X380423Y276605D01*
X376166Y276605D01*
X376076Y276591D01*
X375985Y276583D01*
X375956Y276571D01*
X375924Y276566D01*
X375843Y276523D01*
X375759Y276487D01*
X375727Y276461D01*
X375706Y276450D01*
X375684Y276427D01*
X375628Y276382D01*
X375374Y276128D01*
X375332Y276070D01*
X375283Y276018D01*
X375261Y275971D01*
X375231Y275929D01*
X375210Y275860D01*
X375179Y275795D01*
X375174Y275743D01*
X375158Y275693D01*
X375160Y275622D01*
X375152Y275551D01*
X375163Y275500D01*
X375165Y275448D01*
X375189Y275380D01*
X375204Y275310D01*
X375231Y275266D01*
X375249Y275217D01*
X375294Y275161D01*
X375331Y275099D01*
X375370Y275065D01*
X375403Y275025D01*
X375463Y274986D01*
X375518Y274939D01*
X375566Y274920D01*
X375610Y274892D01*
X375679Y274874D01*
X375746Y274847D01*
X375817Y274839D01*
X375848Y274831D01*
X375872Y274833D01*
X375912Y274829D01*
X376521Y274829D01*
X379509Y273591D01*
X381795Y271305D01*
X383033Y268317D01*
X383033Y265083D01*
X381795Y262095D01*
X379509Y259809D01*
X376521Y258571D01*
X360079Y258571D01*
X357091Y259809D01*
X354805Y262095D01*
X353567Y265083D01*
X353567Y268317D01*
X354805Y271305D01*
X357091Y273591D01*
X360079Y274829D01*
X367292Y274829D01*
X367382Y274843D01*
X367473Y274851D01*
X367502Y274863D01*
X367534Y274868D01*
X367615Y274911D01*
X367699Y274947D01*
X367731Y274973D01*
X367752Y274984D01*
X367774Y275007D01*
X367830Y275052D01*
X372394Y279616D01*
X373957Y281179D01*
X378213Y281179D01*
X378304Y281193D01*
X378394Y281201D01*
X378424Y281213D01*
X378456Y281218D01*
X378537Y281261D01*
X378621Y281297D01*
X378653Y281323D01*
X378674Y281334D01*
X378696Y281357D01*
X378752Y281402D01*
X527842Y430492D01*
X527895Y430566D01*
X527955Y430636D01*
X527967Y430666D01*
X527986Y430692D01*
X528013Y430779D01*
X528047Y430864D01*
X528051Y430905D01*
X528058Y430927D01*
X528057Y430959D01*
X528065Y431031D01*
X528065Y442222D01*
X528054Y442292D01*
X528052Y442364D01*
X528034Y442413D01*
X528026Y442464D01*
X527992Y442528D01*
X527967Y442595D01*
X527935Y442636D01*
X527910Y442682D01*
X527859Y442731D01*
X527814Y442787D01*
X527770Y442815D01*
X527732Y442851D01*
X527667Y442881D01*
X527607Y442920D01*
X527556Y442933D01*
X527509Y442955D01*
X527438Y442963D01*
X527368Y442980D01*
X527316Y442976D01*
X527265Y442982D01*
X527194Y442967D01*
X527123Y442961D01*
X527075Y442941D01*
X527024Y442930D01*
X526963Y442893D01*
X526897Y442865D01*
X526841Y442820D01*
X526813Y442803D01*
X526798Y442786D01*
X526766Y442760D01*
X381791Y297785D01*
X381779Y297769D01*
X381764Y297756D01*
X381708Y297669D01*
X381648Y297585D01*
X381642Y297566D01*
X381631Y297550D01*
X381606Y297449D01*
X381575Y297350D01*
X381576Y297330D01*
X381571Y297311D01*
X381579Y297208D01*
X381582Y297104D01*
X381588Y297086D01*
X381590Y297066D01*
X381630Y296971D01*
X381666Y296873D01*
X381679Y296858D01*
X381686Y296840D01*
X381791Y296709D01*
X381795Y296704D01*
X383033Y293717D01*
X383033Y290483D01*
X381795Y287495D01*
X379509Y285209D01*
X376521Y283971D01*
X360079Y283971D01*
X357091Y285209D01*
X354805Y287495D01*
X353567Y290483D01*
X353567Y293717D01*
X354805Y296705D01*
X357091Y298991D01*
X360079Y300229D01*
X376521Y300229D01*
X376932Y300058D01*
X377046Y300032D01*
X377159Y300003D01*
X377165Y300004D01*
X377171Y300002D01*
X377288Y300013D01*
X377404Y300022D01*
X377410Y300025D01*
X377416Y300025D01*
X377524Y300073D01*
X377631Y300119D01*
X377636Y300123D01*
X377641Y300125D01*
X377655Y300138D01*
X377762Y300223D01*
X524794Y447256D01*
X524847Y447330D01*
X524907Y447400D01*
X524919Y447430D01*
X524938Y447456D01*
X524965Y447543D01*
X524999Y447628D01*
X525003Y447669D01*
X525010Y447691D01*
X525009Y447723D01*
X525017Y447795D01*
X525017Y534347D01*
X541655Y550985D01*
X541666Y551001D01*
X541682Y551013D01*
X541738Y551100D01*
X541798Y551184D01*
X541804Y551203D01*
X541815Y551220D01*
X541840Y551321D01*
X541871Y551419D01*
X541870Y551439D01*
X541875Y551459D01*
X541867Y551562D01*
X541864Y551665D01*
X541857Y551684D01*
X541856Y551704D01*
X541815Y551799D01*
X541780Y551896D01*
X541767Y551912D01*
X541759Y551930D01*
X541655Y552061D01*
X540878Y552838D01*
X539275Y556707D01*
X539275Y560893D01*
X540878Y564762D01*
X543838Y567722D01*
X547707Y569325D01*
X569893Y569325D01*
X573762Y567722D01*
X576722Y564762D01*
X578325Y560893D01*
X578325Y556707D01*
X576722Y552838D01*
X573762Y549878D01*
X569893Y548275D01*
X547707Y548275D01*
X546555Y548752D01*
X546441Y548779D01*
X546328Y548808D01*
X546321Y548807D01*
X546315Y548808D01*
X546199Y548797D01*
X546082Y548788D01*
X546077Y548786D01*
X546070Y548785D01*
X545963Y548738D01*
X545856Y548692D01*
X545850Y548687D01*
X545846Y548685D01*
X545832Y548673D01*
X545725Y548587D01*
X529814Y532676D01*
X529761Y532602D01*
X529701Y532532D01*
X529689Y532502D01*
X529670Y532476D01*
X529643Y532389D01*
X529609Y532304D01*
X529605Y532263D01*
X529598Y532241D01*
X529599Y532209D01*
X529591Y532137D01*
X529591Y514850D01*
X529602Y514780D01*
X529604Y514708D01*
X529622Y514659D01*
X529630Y514608D01*
X529664Y514544D01*
X529689Y514477D01*
X529721Y514436D01*
X529746Y514390D01*
X529797Y514341D01*
X529842Y514285D01*
X529886Y514257D01*
X529924Y514221D01*
X529989Y514191D01*
X530049Y514152D01*
X530100Y514139D01*
X530147Y514117D01*
X530218Y514109D01*
X530288Y514092D01*
X530340Y514096D01*
X530391Y514090D01*
X530462Y514105D01*
X530533Y514111D01*
X530581Y514131D01*
X530632Y514142D01*
X530693Y514179D01*
X530759Y514207D01*
X530815Y514252D01*
X530843Y514269D01*
X530858Y514286D01*
X530890Y514312D01*
X541909Y525331D01*
X541920Y525347D01*
X541936Y525359D01*
X541992Y525447D01*
X542052Y525530D01*
X542058Y525549D01*
X542069Y525566D01*
X542094Y525667D01*
X542125Y525765D01*
X542124Y525785D01*
X542129Y525805D01*
X542121Y525908D01*
X542118Y526011D01*
X542111Y526030D01*
X542110Y526050D01*
X542070Y526142D01*
X542066Y526161D01*
X542059Y526173D01*
X542034Y526242D01*
X542021Y526258D01*
X542013Y526276D01*
X541950Y526356D01*
X541940Y526372D01*
X541930Y526380D01*
X541909Y526407D01*
X540878Y527438D01*
X539275Y531307D01*
X539275Y535493D01*
X540878Y539362D01*
X543838Y542322D01*
X547707Y543925D01*
X569893Y543925D01*
X573762Y542322D01*
X576722Y539362D01*
X578325Y535493D01*
X578325Y531307D01*
X576722Y527438D01*
X573762Y524478D01*
X569893Y522875D01*
X547707Y522875D01*
X546914Y523204D01*
X546800Y523230D01*
X546687Y523259D01*
X546681Y523258D01*
X546675Y523260D01*
X546558Y523249D01*
X546442Y523240D01*
X546436Y523237D01*
X546430Y523237D01*
X546322Y523189D01*
X546215Y523143D01*
X546210Y523139D01*
X546205Y523137D01*
X546191Y523124D01*
X546084Y523039D01*
X532862Y509816D01*
X532809Y509742D01*
X532749Y509672D01*
X532737Y509642D01*
X532718Y509616D01*
X532691Y509529D01*
X532657Y509444D01*
X532653Y509403D01*
X532646Y509381D01*
X532647Y509349D01*
X532639Y509277D01*
X532639Y491990D01*
X532650Y491920D01*
X532652Y491848D01*
X532670Y491799D01*
X532678Y491748D01*
X532712Y491684D01*
X532737Y491617D01*
X532769Y491576D01*
X532794Y491530D01*
X532845Y491481D01*
X532890Y491425D01*
X532934Y491397D01*
X532972Y491361D01*
X533037Y491331D01*
X533097Y491292D01*
X533148Y491279D01*
X533195Y491257D01*
X533266Y491249D01*
X533336Y491232D01*
X533388Y491236D01*
X533439Y491230D01*
X533510Y491245D01*
X533581Y491251D01*
X533629Y491271D01*
X533680Y491282D01*
X533741Y491319D01*
X533807Y491347D01*
X533863Y491392D01*
X533891Y491409D01*
X533906Y491426D01*
X533938Y491452D01*
X542163Y499677D01*
X542174Y499693D01*
X542190Y499705D01*
X542246Y499793D01*
X542306Y499876D01*
X542312Y499895D01*
X542323Y499912D01*
X542348Y500013D01*
X542379Y500111D01*
X542378Y500131D01*
X542383Y500151D01*
X542375Y500254D01*
X542372Y500357D01*
X542365Y500376D01*
X542364Y500396D01*
X542323Y500491D01*
X542288Y500588D01*
X542275Y500604D01*
X542267Y500622D01*
X542163Y500753D01*
X540878Y502038D01*
X539275Y505907D01*
X539275Y510093D01*
X540878Y513962D01*
X543838Y516922D01*
X547707Y518525D01*
X569893Y518525D01*
X573762Y516922D01*
X576722Y513962D01*
X578325Y510093D01*
X578325Y505907D01*
X576722Y502038D01*
X573762Y499078D01*
X569893Y497475D01*
X547706Y497475D01*
X547273Y497655D01*
X547160Y497681D01*
X547046Y497710D01*
X547040Y497709D01*
X547034Y497711D01*
X546917Y497700D01*
X546801Y497691D01*
X546795Y497688D01*
X546789Y497688D01*
X546681Y497640D01*
X546575Y497595D01*
X546569Y497590D01*
X546564Y497588D01*
X546550Y497575D01*
X546444Y497490D01*
X535910Y486956D01*
X535857Y486882D01*
X535797Y486812D01*
X535785Y486782D01*
X535766Y486756D01*
X535739Y486669D01*
X535705Y486584D01*
X535701Y486543D01*
X535694Y486521D01*
X535695Y486489D01*
X535687Y486417D01*
X535687Y401389D01*
X534124Y399826D01*
X381537Y247239D01*
X381525Y247223D01*
X381510Y247211D01*
X381454Y247123D01*
X381394Y247039D01*
X381388Y247020D01*
X381377Y247004D01*
X381352Y246903D01*
X381321Y246804D01*
X381322Y246784D01*
X381317Y246765D01*
X381325Y246662D01*
X381328Y246558D01*
X381334Y246540D01*
X381336Y246520D01*
X381376Y246425D01*
X381412Y246327D01*
X381425Y246312D01*
X381432Y246294D01*
X381537Y246163D01*
X381795Y245905D01*
X383033Y242917D01*
X383033Y239683D01*
X381795Y236695D01*
X379509Y234409D01*
X376521Y233171D01*
X360079Y233171D01*
G37*
%LPD*%
%LPC*%
G36*
X192107Y141875D02*
X192107Y141875D01*
X188238Y143478D01*
X185278Y146438D01*
X183675Y150307D01*
X183675Y154493D01*
X185278Y158362D01*
X188238Y161322D01*
X192107Y162925D01*
X214293Y162925D01*
X215086Y162596D01*
X215200Y162570D01*
X215313Y162541D01*
X215319Y162542D01*
X215325Y162540D01*
X215442Y162551D01*
X215558Y162560D01*
X215564Y162563D01*
X215570Y162563D01*
X215678Y162611D01*
X215785Y162657D01*
X215790Y162661D01*
X215795Y162663D01*
X215809Y162676D01*
X215916Y162761D01*
X230662Y177508D01*
X230715Y177582D01*
X230775Y177652D01*
X230787Y177682D01*
X230806Y177708D01*
X230833Y177795D01*
X230867Y177880D01*
X230871Y177921D01*
X230878Y177943D01*
X230877Y177975D01*
X230885Y178047D01*
X230885Y195334D01*
X230874Y195404D01*
X230872Y195476D01*
X230854Y195525D01*
X230846Y195576D01*
X230812Y195640D01*
X230787Y195707D01*
X230755Y195748D01*
X230730Y195794D01*
X230679Y195843D01*
X230634Y195899D01*
X230590Y195927D01*
X230552Y195963D01*
X230487Y195993D01*
X230427Y196032D01*
X230376Y196045D01*
X230329Y196067D01*
X230258Y196075D01*
X230188Y196092D01*
X230136Y196088D01*
X230085Y196094D01*
X230014Y196079D01*
X229943Y196073D01*
X229895Y196053D01*
X229844Y196042D01*
X229783Y196005D01*
X229717Y195977D01*
X229661Y195932D01*
X229633Y195915D01*
X229618Y195898D01*
X229586Y195872D01*
X219837Y186123D01*
X219826Y186107D01*
X219810Y186095D01*
X219780Y186048D01*
X219763Y186030D01*
X219750Y186001D01*
X219694Y185924D01*
X219688Y185905D01*
X219677Y185888D01*
X219652Y185787D01*
X219621Y185689D01*
X219622Y185669D01*
X219617Y185649D01*
X219625Y185546D01*
X219628Y185443D01*
X219635Y185424D01*
X219636Y185404D01*
X219677Y185309D01*
X219712Y185212D01*
X219725Y185196D01*
X219733Y185178D01*
X219837Y185047D01*
X221122Y183762D01*
X222725Y179893D01*
X222725Y175707D01*
X221122Y171838D01*
X218162Y168878D01*
X214293Y167275D01*
X192107Y167275D01*
X188238Y168878D01*
X185278Y171838D01*
X183675Y175707D01*
X183675Y179893D01*
X185278Y183762D01*
X188238Y186722D01*
X192107Y188325D01*
X214294Y188325D01*
X214727Y188145D01*
X214840Y188119D01*
X214954Y188090D01*
X214960Y188091D01*
X214966Y188089D01*
X215083Y188100D01*
X215199Y188109D01*
X215205Y188112D01*
X215211Y188112D01*
X215319Y188160D01*
X215425Y188205D01*
X215431Y188210D01*
X215436Y188212D01*
X215450Y188225D01*
X215556Y188310D01*
X227614Y200368D01*
X227667Y200442D01*
X227727Y200512D01*
X227739Y200542D01*
X227758Y200568D01*
X227785Y200655D01*
X227819Y200740D01*
X227823Y200781D01*
X227830Y200803D01*
X227829Y200835D01*
X227837Y200907D01*
X227837Y216670D01*
X227826Y216740D01*
X227824Y216812D01*
X227806Y216861D01*
X227798Y216912D01*
X227764Y216976D01*
X227739Y217043D01*
X227707Y217084D01*
X227682Y217130D01*
X227631Y217179D01*
X227586Y217235D01*
X227542Y217263D01*
X227504Y217299D01*
X227439Y217329D01*
X227379Y217368D01*
X227328Y217381D01*
X227281Y217403D01*
X227210Y217411D01*
X227140Y217428D01*
X227088Y217424D01*
X227037Y217430D01*
X226966Y217415D01*
X226895Y217409D01*
X226847Y217389D01*
X226796Y217378D01*
X226735Y217341D01*
X226669Y217313D01*
X226613Y217268D01*
X226585Y217251D01*
X226570Y217234D01*
X226538Y217208D01*
X220345Y211015D01*
X220334Y210999D01*
X220318Y210987D01*
X220262Y210899D01*
X220202Y210816D01*
X220196Y210797D01*
X220185Y210780D01*
X220160Y210679D01*
X220129Y210581D01*
X220130Y210561D01*
X220125Y210541D01*
X220133Y210438D01*
X220136Y210335D01*
X220143Y210316D01*
X220144Y210296D01*
X220185Y210201D01*
X220220Y210104D01*
X220233Y210088D01*
X220241Y210070D01*
X220345Y209939D01*
X221122Y209162D01*
X222725Y205293D01*
X222725Y201107D01*
X221122Y197238D01*
X218162Y194278D01*
X214293Y192675D01*
X192107Y192675D01*
X188238Y194278D01*
X185278Y197238D01*
X183675Y201107D01*
X183675Y205293D01*
X185278Y209162D01*
X188238Y212122D01*
X192107Y213725D01*
X214293Y213725D01*
X215445Y213248D01*
X215559Y213221D01*
X215672Y213192D01*
X215679Y213193D01*
X215685Y213192D01*
X215801Y213203D01*
X215918Y213212D01*
X215923Y213214D01*
X215930Y213215D01*
X216037Y213262D01*
X216144Y213308D01*
X216150Y213313D01*
X216154Y213315D01*
X216168Y213327D01*
X216275Y213413D01*
X224566Y221704D01*
X224619Y221778D01*
X224679Y221848D01*
X224691Y221878D01*
X224710Y221904D01*
X224737Y221991D01*
X224771Y222076D01*
X224775Y222117D01*
X224782Y222139D01*
X224781Y222171D01*
X224789Y222243D01*
X224789Y340799D01*
X241369Y357379D01*
X244101Y357379D01*
X244192Y357393D01*
X244282Y357401D01*
X244312Y357413D01*
X244344Y357418D01*
X244425Y357461D01*
X244509Y357497D01*
X244541Y357523D01*
X244562Y357534D01*
X244584Y357557D01*
X244640Y357602D01*
X245985Y358947D01*
X246012Y358984D01*
X246045Y359015D01*
X246083Y359083D01*
X246128Y359146D01*
X246142Y359190D01*
X246164Y359231D01*
X246178Y359307D01*
X246201Y359382D01*
X246200Y359427D01*
X246208Y359473D01*
X246196Y359550D01*
X246194Y359627D01*
X246179Y359671D01*
X246172Y359716D01*
X246137Y359785D01*
X246110Y359858D01*
X246081Y359894D01*
X246060Y359935D01*
X246005Y359990D01*
X245956Y360051D01*
X245918Y360075D01*
X245885Y360107D01*
X245765Y360173D01*
X245749Y360184D01*
X245744Y360185D01*
X245738Y360188D01*
X242791Y361409D01*
X240505Y363695D01*
X239267Y366683D01*
X239267Y369917D01*
X240505Y372905D01*
X242791Y375191D01*
X245779Y376429D01*
X262221Y376429D01*
X265209Y375191D01*
X267495Y372905D01*
X268733Y369917D01*
X268733Y366683D01*
X267495Y363695D01*
X265209Y361409D01*
X262221Y360171D01*
X253992Y360171D01*
X253902Y360157D01*
X253811Y360149D01*
X253782Y360137D01*
X253750Y360132D01*
X253669Y360089D01*
X253585Y360053D01*
X253553Y360027D01*
X253532Y360016D01*
X253510Y359993D01*
X253454Y359948D01*
X247874Y354368D01*
X246311Y352805D01*
X243579Y352805D01*
X243488Y352791D01*
X243398Y352783D01*
X243368Y352771D01*
X243336Y352766D01*
X243255Y352723D01*
X243171Y352687D01*
X243139Y352661D01*
X243118Y352650D01*
X243096Y352627D01*
X243040Y352582D01*
X229586Y339128D01*
X229540Y339064D01*
X229518Y339041D01*
X229514Y339032D01*
X229473Y338984D01*
X229461Y338954D01*
X229442Y338928D01*
X229415Y338841D01*
X229381Y338756D01*
X229377Y338715D01*
X229370Y338693D01*
X229371Y338661D01*
X229363Y338589D01*
X229363Y322826D01*
X229374Y322756D01*
X229376Y322684D01*
X229394Y322635D01*
X229402Y322584D01*
X229436Y322520D01*
X229461Y322453D01*
X229493Y322412D01*
X229518Y322366D01*
X229570Y322317D01*
X229614Y322261D01*
X229658Y322233D01*
X229696Y322197D01*
X229761Y322167D01*
X229821Y322128D01*
X229872Y322115D01*
X229919Y322093D01*
X229990Y322085D01*
X230060Y322068D01*
X230112Y322072D01*
X230163Y322066D01*
X230234Y322081D01*
X230305Y322087D01*
X230353Y322107D01*
X230404Y322118D01*
X230465Y322155D01*
X230531Y322183D01*
X230587Y322228D01*
X230615Y322245D01*
X230630Y322262D01*
X230662Y322288D01*
X241369Y332995D01*
X245625Y332995D01*
X245715Y333009D01*
X245806Y333017D01*
X245836Y333029D01*
X245868Y333034D01*
X245949Y333077D01*
X246033Y333113D01*
X246065Y333139D01*
X246086Y333150D01*
X246108Y333173D01*
X246164Y333218D01*
X246418Y333472D01*
X246460Y333530D01*
X246509Y333582D01*
X246531Y333629D01*
X246561Y333671D01*
X246582Y333740D01*
X246613Y333805D01*
X246618Y333857D01*
X246634Y333907D01*
X246632Y333978D01*
X246640Y334049D01*
X246629Y334100D01*
X246627Y334152D01*
X246603Y334220D01*
X246588Y334290D01*
X246561Y334335D01*
X246543Y334383D01*
X246498Y334439D01*
X246461Y334501D01*
X246422Y334535D01*
X246389Y334575D01*
X246329Y334614D01*
X246274Y334661D01*
X246226Y334680D01*
X246182Y334708D01*
X246113Y334726D01*
X246046Y334753D01*
X245975Y334761D01*
X245944Y334769D01*
X245920Y334767D01*
X245880Y334771D01*
X245779Y334771D01*
X242791Y336009D01*
X240505Y338295D01*
X239267Y341283D01*
X239267Y344517D01*
X240505Y347505D01*
X242791Y349791D01*
X245779Y351029D01*
X262221Y351029D01*
X265209Y349791D01*
X267495Y347505D01*
X268733Y344517D01*
X268733Y341283D01*
X267495Y338295D01*
X265209Y336009D01*
X262221Y334771D01*
X254500Y334771D01*
X254410Y334757D01*
X254319Y334749D01*
X254290Y334737D01*
X254258Y334732D01*
X254177Y334689D01*
X254093Y334653D01*
X254061Y334627D01*
X254040Y334616D01*
X254018Y334593D01*
X253962Y334548D01*
X249398Y329984D01*
X247835Y328421D01*
X243579Y328421D01*
X243488Y328407D01*
X243398Y328399D01*
X243368Y328387D01*
X243336Y328382D01*
X243255Y328339D01*
X243171Y328303D01*
X243139Y328277D01*
X243118Y328266D01*
X243096Y328243D01*
X243040Y328198D01*
X232634Y317792D01*
X232581Y317718D01*
X232521Y317648D01*
X232509Y317618D01*
X232490Y317592D01*
X232463Y317505D01*
X232429Y317420D01*
X232425Y317379D01*
X232418Y317357D01*
X232419Y317325D01*
X232411Y317253D01*
X232411Y299966D01*
X232422Y299896D01*
X232424Y299824D01*
X232442Y299775D01*
X232450Y299724D01*
X232484Y299660D01*
X232509Y299593D01*
X232541Y299552D01*
X232566Y299506D01*
X232618Y299457D01*
X232662Y299401D01*
X232706Y299373D01*
X232744Y299337D01*
X232809Y299307D01*
X232869Y299268D01*
X232920Y299255D01*
X232967Y299233D01*
X233038Y299225D01*
X233108Y299208D01*
X233160Y299212D01*
X233211Y299206D01*
X233282Y299221D01*
X233353Y299227D01*
X233401Y299247D01*
X233452Y299258D01*
X233513Y299295D01*
X233579Y299323D01*
X233635Y299368D01*
X233663Y299385D01*
X233678Y299402D01*
X233710Y299428D01*
X241369Y307087D01*
X245625Y307087D01*
X245715Y307101D01*
X245806Y307109D01*
X245836Y307121D01*
X245868Y307126D01*
X245949Y307169D01*
X246033Y307205D01*
X246065Y307231D01*
X246086Y307242D01*
X246108Y307265D01*
X246164Y307310D01*
X246926Y308072D01*
X246968Y308130D01*
X247017Y308182D01*
X247039Y308229D01*
X247069Y308271D01*
X247090Y308340D01*
X247121Y308405D01*
X247126Y308457D01*
X247142Y308507D01*
X247140Y308578D01*
X247148Y308649D01*
X247137Y308700D01*
X247135Y308752D01*
X247111Y308820D01*
X247096Y308890D01*
X247069Y308935D01*
X247051Y308983D01*
X247006Y309039D01*
X246969Y309101D01*
X246930Y309135D01*
X246897Y309175D01*
X246837Y309214D01*
X246782Y309261D01*
X246734Y309280D01*
X246690Y309308D01*
X246621Y309326D01*
X246554Y309353D01*
X246483Y309361D01*
X246452Y309369D01*
X246428Y309367D01*
X246388Y309371D01*
X245779Y309371D01*
X242791Y310609D01*
X240505Y312895D01*
X239267Y315883D01*
X239267Y319117D01*
X240505Y322105D01*
X242791Y324391D01*
X245779Y325629D01*
X262221Y325629D01*
X265209Y324391D01*
X267495Y322105D01*
X268733Y319117D01*
X268733Y315883D01*
X267495Y312895D01*
X265209Y310609D01*
X262221Y309371D01*
X255009Y309371D01*
X254918Y309357D01*
X254828Y309349D01*
X254798Y309337D01*
X254766Y309332D01*
X254685Y309289D01*
X254601Y309253D01*
X254569Y309227D01*
X254548Y309216D01*
X254526Y309193D01*
X254470Y309148D01*
X247835Y302513D01*
X243579Y302513D01*
X243488Y302499D01*
X243398Y302491D01*
X243368Y302479D01*
X243336Y302474D01*
X243255Y302431D01*
X243171Y302395D01*
X243139Y302369D01*
X243118Y302358D01*
X243096Y302335D01*
X243040Y302290D01*
X235682Y294932D01*
X235629Y294858D01*
X235569Y294788D01*
X235557Y294758D01*
X235538Y294732D01*
X235511Y294645D01*
X235477Y294560D01*
X235473Y294519D01*
X235466Y294497D01*
X235467Y294465D01*
X235459Y294393D01*
X235459Y175837D01*
X220091Y160469D01*
X220080Y160453D01*
X220064Y160441D01*
X220008Y160353D01*
X219948Y160270D01*
X219942Y160251D01*
X219931Y160234D01*
X219906Y160133D01*
X219875Y160035D01*
X219876Y160015D01*
X219871Y159995D01*
X219879Y159892D01*
X219882Y159789D01*
X219889Y159770D01*
X219890Y159750D01*
X219931Y159655D01*
X219966Y159558D01*
X219979Y159542D01*
X219987Y159524D01*
X220091Y159393D01*
X221122Y158362D01*
X222725Y154493D01*
X222725Y150307D01*
X221122Y146438D01*
X218162Y143478D01*
X214293Y141875D01*
X192107Y141875D01*
G37*
%LPD*%
%LPC*%
G36*
X348322Y508281D02*
X348322Y508281D01*
X345525Y511078D01*
X345451Y511131D01*
X345381Y511191D01*
X345351Y511203D01*
X345325Y511222D01*
X345238Y511249D01*
X345153Y511283D01*
X345112Y511287D01*
X345090Y511294D01*
X345058Y511293D01*
X344987Y511301D01*
X259657Y511301D01*
X220159Y550799D01*
X220143Y550810D01*
X220131Y550826D01*
X220057Y550873D01*
X220036Y550892D01*
X220023Y550897D01*
X219960Y550942D01*
X219941Y550948D01*
X219924Y550959D01*
X219823Y550984D01*
X219725Y551015D01*
X219705Y551014D01*
X219685Y551019D01*
X219582Y551011D01*
X219479Y551008D01*
X219460Y551001D01*
X219440Y551000D01*
X219345Y550959D01*
X219248Y550924D01*
X219232Y550911D01*
X219214Y550903D01*
X219148Y550850D01*
X219141Y550847D01*
X219135Y550840D01*
X219083Y550799D01*
X218162Y549878D01*
X214293Y548275D01*
X192107Y548275D01*
X188238Y549878D01*
X185278Y552838D01*
X183675Y556707D01*
X183675Y560893D01*
X185278Y564762D01*
X188238Y567722D01*
X192107Y569325D01*
X214293Y569325D01*
X218162Y567722D01*
X221122Y564762D01*
X222725Y560893D01*
X222725Y556707D01*
X222332Y555758D01*
X222305Y555645D01*
X222277Y555531D01*
X222277Y555525D01*
X222276Y555519D01*
X222287Y555402D01*
X222296Y555286D01*
X222298Y555280D01*
X222299Y555274D01*
X222347Y555167D01*
X222392Y555060D01*
X222397Y555054D01*
X222399Y555049D01*
X222412Y555036D01*
X222497Y554929D01*
X261328Y516098D01*
X261402Y516045D01*
X261472Y515985D01*
X261502Y515973D01*
X261528Y515954D01*
X261615Y515927D01*
X261700Y515893D01*
X261741Y515889D01*
X261763Y515882D01*
X261795Y515883D01*
X261867Y515875D01*
X344987Y515875D01*
X345077Y515889D01*
X345168Y515897D01*
X345197Y515909D01*
X345229Y515914D01*
X345310Y515957D01*
X345394Y515993D01*
X345426Y516019D01*
X345447Y516030D01*
X345469Y516053D01*
X345525Y516098D01*
X348322Y518895D01*
X352718Y518895D01*
X355827Y515786D01*
X355827Y511390D01*
X352718Y508281D01*
X348322Y508281D01*
G37*
%LPD*%
%LPC*%
G36*
X192107Y319675D02*
X192107Y319675D01*
X188238Y321278D01*
X185278Y324238D01*
X183675Y328107D01*
X183675Y332293D01*
X185278Y336162D01*
X188238Y339122D01*
X192107Y340725D01*
X214293Y340725D01*
X218162Y339122D01*
X221122Y336162D01*
X222725Y332293D01*
X222725Y328107D01*
X221122Y324238D01*
X218162Y321278D01*
X214293Y319675D01*
X192107Y319675D01*
G37*
%LPD*%
%LPC*%
G36*
X192107Y218075D02*
X192107Y218075D01*
X188238Y219678D01*
X185278Y222638D01*
X183675Y226507D01*
X183675Y230693D01*
X185278Y234562D01*
X188238Y237522D01*
X192107Y239125D01*
X214293Y239125D01*
X218162Y237522D01*
X221122Y234562D01*
X222725Y230693D01*
X222725Y226507D01*
X221122Y222638D01*
X218162Y219678D01*
X214293Y218075D01*
X192107Y218075D01*
G37*
%LPD*%
%LPC*%
G36*
X192107Y294275D02*
X192107Y294275D01*
X188238Y295878D01*
X185278Y298838D01*
X183675Y302707D01*
X183675Y306893D01*
X185278Y310762D01*
X188238Y313722D01*
X192107Y315325D01*
X214293Y315325D01*
X218162Y313722D01*
X221122Y310762D01*
X222725Y306893D01*
X222725Y302707D01*
X221122Y298838D01*
X218162Y295878D01*
X214293Y294275D01*
X192107Y294275D01*
G37*
%LPD*%
%LPC*%
G36*
X192107Y243475D02*
X192107Y243475D01*
X188238Y245078D01*
X185278Y248038D01*
X183675Y251907D01*
X183675Y256093D01*
X185278Y259962D01*
X188238Y262922D01*
X192107Y264525D01*
X214293Y264525D01*
X218162Y262922D01*
X221122Y259962D01*
X222725Y256093D01*
X222725Y251907D01*
X221122Y248038D01*
X218162Y245078D01*
X214293Y243475D01*
X192107Y243475D01*
G37*
%LPD*%
%LPC*%
G36*
X192107Y497475D02*
X192107Y497475D01*
X188238Y499078D01*
X185278Y502038D01*
X183675Y505907D01*
X183675Y510093D01*
X185278Y513962D01*
X188238Y516922D01*
X192107Y518525D01*
X214293Y518525D01*
X218162Y516922D01*
X221122Y513962D01*
X222725Y510093D01*
X222725Y505907D01*
X221122Y502038D01*
X218162Y499078D01*
X214293Y497475D01*
X192107Y497475D01*
G37*
%LPD*%
%LPC*%
G36*
X547707Y472075D02*
X547707Y472075D01*
X543838Y473678D01*
X540878Y476638D01*
X539275Y480507D01*
X539275Y484693D01*
X540878Y488562D01*
X543838Y491522D01*
X547707Y493125D01*
X569893Y493125D01*
X573762Y491522D01*
X576722Y488562D01*
X578325Y484693D01*
X578325Y480507D01*
X576722Y476638D01*
X573762Y473678D01*
X569893Y472075D01*
X547707Y472075D01*
G37*
%LPD*%
%LPC*%
G36*
X192107Y522875D02*
X192107Y522875D01*
X188238Y524478D01*
X185278Y527438D01*
X183675Y531307D01*
X183675Y535493D01*
X185278Y539362D01*
X188238Y542322D01*
X192107Y543925D01*
X214293Y543925D01*
X218162Y542322D01*
X221122Y539362D01*
X222725Y535493D01*
X222725Y531307D01*
X221122Y527438D01*
X218162Y524478D01*
X214293Y522875D01*
X192107Y522875D01*
G37*
%LPD*%
%LPC*%
G36*
X468081Y542035D02*
X468081Y542035D01*
X464720Y543427D01*
X462147Y546000D01*
X460755Y549361D01*
X460755Y568239D01*
X462147Y571600D01*
X464720Y574173D01*
X468081Y575565D01*
X471719Y575565D01*
X475080Y574173D01*
X477653Y571600D01*
X479045Y568239D01*
X479045Y549361D01*
X477653Y546000D01*
X475080Y543427D01*
X471719Y542035D01*
X468081Y542035D01*
G37*
%LPD*%
%LPC*%
G36*
X379181Y542035D02*
X379181Y542035D01*
X375820Y543427D01*
X373247Y546000D01*
X371855Y549361D01*
X371855Y568239D01*
X373247Y571600D01*
X375820Y574173D01*
X379181Y575565D01*
X382819Y575565D01*
X386180Y574173D01*
X388753Y571600D01*
X390145Y568239D01*
X390145Y549361D01*
X388753Y546000D01*
X386180Y543427D01*
X382819Y542035D01*
X379181Y542035D01*
G37*
%LPD*%
%LPC*%
G36*
X290281Y542035D02*
X290281Y542035D01*
X286920Y543427D01*
X284347Y546000D01*
X282955Y549361D01*
X282955Y568239D01*
X284347Y571600D01*
X286920Y574173D01*
X290281Y575565D01*
X293919Y575565D01*
X297280Y574173D01*
X299853Y571600D01*
X301245Y568239D01*
X301245Y549361D01*
X299853Y546000D01*
X297280Y543427D01*
X293919Y542035D01*
X290281Y542035D01*
G37*
%LPD*%
%LPC*%
G36*
X277783Y594867D02*
X277783Y594867D01*
X274795Y596105D01*
X272509Y598391D01*
X271271Y601379D01*
X271271Y617821D01*
X272509Y620809D01*
X274795Y623095D01*
X277783Y624333D01*
X281017Y624333D01*
X284005Y623095D01*
X286291Y620809D01*
X287529Y617821D01*
X287529Y601379D01*
X286291Y598391D01*
X284005Y596105D01*
X281017Y594867D01*
X277783Y594867D01*
G37*
%LPD*%
%LPC*%
G36*
X252383Y594867D02*
X252383Y594867D01*
X249395Y596105D01*
X247109Y598391D01*
X245871Y601379D01*
X245871Y617821D01*
X247109Y620809D01*
X249395Y623095D01*
X252383Y624333D01*
X255617Y624333D01*
X258605Y623095D01*
X260891Y620809D01*
X262129Y617821D01*
X262129Y601379D01*
X260891Y598391D01*
X258605Y596105D01*
X255617Y594867D01*
X252383Y594867D01*
G37*
%LPD*%
%LPC*%
G36*
X303183Y594867D02*
X303183Y594867D01*
X300195Y596105D01*
X297909Y598391D01*
X296671Y601379D01*
X296671Y617821D01*
X297909Y620809D01*
X300195Y623095D01*
X303183Y624333D01*
X306417Y624333D01*
X309405Y623095D01*
X311691Y620809D01*
X312929Y617821D01*
X312929Y601379D01*
X311691Y598391D01*
X309405Y596105D01*
X306417Y594867D01*
X303183Y594867D01*
G37*
%LPD*%
%LPC*%
G36*
X245779Y182371D02*
X245779Y182371D01*
X242791Y183609D01*
X240505Y185895D01*
X239267Y188883D01*
X239267Y192117D01*
X240505Y195105D01*
X242791Y197391D01*
X245779Y198629D01*
X262221Y198629D01*
X265209Y197391D01*
X267495Y195105D01*
X268733Y192117D01*
X268733Y188883D01*
X267495Y185895D01*
X265209Y183609D01*
X262221Y182371D01*
X245779Y182371D01*
G37*
%LPD*%
%LPC*%
G36*
X321979Y182371D02*
X321979Y182371D01*
X318991Y183609D01*
X316705Y185895D01*
X315467Y188883D01*
X315467Y192117D01*
X316705Y195105D01*
X318991Y197391D01*
X321979Y198629D01*
X338421Y198629D01*
X341409Y197391D01*
X343695Y195105D01*
X344933Y192117D01*
X344933Y188883D01*
X343695Y185895D01*
X341409Y183609D01*
X338421Y182371D01*
X321979Y182371D01*
G37*
%LPD*%
%LPC*%
G36*
X245779Y207771D02*
X245779Y207771D01*
X242791Y209009D01*
X240505Y211295D01*
X239267Y214283D01*
X239267Y217517D01*
X240505Y220505D01*
X242791Y222791D01*
X245779Y224029D01*
X262221Y224029D01*
X265209Y222791D01*
X267495Y220505D01*
X268733Y217517D01*
X268733Y214283D01*
X267495Y211295D01*
X265209Y209009D01*
X262221Y207771D01*
X245779Y207771D01*
G37*
%LPD*%
%LPC*%
G36*
X321979Y207771D02*
X321979Y207771D01*
X318991Y209009D01*
X316705Y211295D01*
X315467Y214283D01*
X315467Y217517D01*
X316705Y220505D01*
X318991Y222791D01*
X321979Y224029D01*
X338421Y224029D01*
X341409Y222791D01*
X343695Y220505D01*
X344933Y217517D01*
X344933Y214283D01*
X343695Y211295D01*
X341409Y209009D01*
X338421Y207771D01*
X321979Y207771D01*
G37*
%LPD*%
%LPC*%
G36*
X360079Y207771D02*
X360079Y207771D01*
X357091Y209009D01*
X354805Y211295D01*
X353567Y214283D01*
X353567Y217517D01*
X354805Y220505D01*
X357091Y222791D01*
X360079Y224029D01*
X376521Y224029D01*
X379509Y222791D01*
X381795Y220505D01*
X383033Y217517D01*
X383033Y214283D01*
X381795Y211295D01*
X379509Y209009D01*
X376521Y207771D01*
X360079Y207771D01*
G37*
%LPD*%
%LPC*%
G36*
X321979Y156971D02*
X321979Y156971D01*
X318991Y158209D01*
X316705Y160495D01*
X315467Y163483D01*
X315467Y166717D01*
X316705Y169705D01*
X318991Y171991D01*
X321979Y173229D01*
X338421Y173229D01*
X341409Y171991D01*
X343695Y169705D01*
X344933Y166717D01*
X344933Y163483D01*
X343695Y160495D01*
X341409Y158209D01*
X338421Y156971D01*
X321979Y156971D01*
G37*
%LPD*%
%LPC*%
G36*
X245779Y233171D02*
X245779Y233171D01*
X242791Y234409D01*
X240505Y236695D01*
X239267Y239683D01*
X239267Y242917D01*
X240505Y245905D01*
X242791Y248191D01*
X245779Y249429D01*
X262221Y249429D01*
X265209Y248191D01*
X267495Y245905D01*
X268733Y242917D01*
X268733Y239683D01*
X267495Y236695D01*
X265209Y234409D01*
X262221Y233171D01*
X245779Y233171D01*
G37*
%LPD*%
%LPC*%
G36*
X321979Y258571D02*
X321979Y258571D01*
X318991Y259809D01*
X316705Y262095D01*
X315467Y265083D01*
X315467Y268317D01*
X316705Y271305D01*
X318991Y273591D01*
X321979Y274829D01*
X338421Y274829D01*
X341409Y273591D01*
X343695Y271305D01*
X344933Y268317D01*
X344933Y265083D01*
X343695Y262095D01*
X341409Y259809D01*
X338421Y258571D01*
X321979Y258571D01*
G37*
%LPD*%
%LPC*%
G36*
X328583Y594867D02*
X328583Y594867D01*
X325595Y596105D01*
X323309Y598391D01*
X322071Y601379D01*
X322071Y617821D01*
X323309Y620809D01*
X325595Y623095D01*
X328583Y624333D01*
X331817Y624333D01*
X334805Y623095D01*
X337091Y620809D01*
X338329Y617821D01*
X338329Y601379D01*
X337091Y598391D01*
X334805Y596105D01*
X331817Y594867D01*
X328583Y594867D01*
G37*
%LPD*%
%LPC*%
G36*
X321979Y283971D02*
X321979Y283971D01*
X318991Y285209D01*
X316705Y287495D01*
X315467Y290483D01*
X315467Y293717D01*
X316705Y296705D01*
X318991Y298991D01*
X321979Y300229D01*
X338421Y300229D01*
X341409Y298991D01*
X343695Y296705D01*
X344933Y293717D01*
X344933Y290483D01*
X343695Y287495D01*
X341409Y285209D01*
X338421Y283971D01*
X321979Y283971D01*
G37*
%LPD*%
%LPC*%
G36*
X245779Y461771D02*
X245779Y461771D01*
X242791Y463009D01*
X240505Y465295D01*
X239267Y468283D01*
X239267Y471517D01*
X240505Y474505D01*
X242791Y476791D01*
X245779Y478029D01*
X262221Y478029D01*
X265209Y476791D01*
X267495Y474505D01*
X268733Y471517D01*
X268733Y468283D01*
X267495Y465295D01*
X265209Y463009D01*
X262221Y461771D01*
X245779Y461771D01*
G37*
%LPD*%
%LPC*%
G36*
X245779Y385571D02*
X245779Y385571D01*
X242791Y386809D01*
X240505Y389095D01*
X239267Y392083D01*
X239267Y395317D01*
X240505Y398305D01*
X242791Y400591D01*
X245779Y401829D01*
X262221Y401829D01*
X265209Y400591D01*
X267495Y398305D01*
X268733Y395317D01*
X268733Y392083D01*
X267495Y389095D01*
X265209Y386809D01*
X262221Y385571D01*
X245779Y385571D01*
G37*
%LPD*%
%LPC*%
G36*
X321979Y334771D02*
X321979Y334771D01*
X318991Y336009D01*
X316705Y338295D01*
X315467Y341283D01*
X315467Y344517D01*
X316705Y347505D01*
X318991Y349791D01*
X321979Y351029D01*
X338421Y351029D01*
X341409Y349791D01*
X343695Y347505D01*
X344933Y344517D01*
X344933Y341283D01*
X343695Y338295D01*
X341409Y336009D01*
X338421Y334771D01*
X321979Y334771D01*
G37*
%LPD*%
%LPC*%
G36*
X321979Y385571D02*
X321979Y385571D01*
X318991Y386809D01*
X316705Y389095D01*
X315467Y392083D01*
X315467Y395317D01*
X316705Y398305D01*
X318991Y400591D01*
X321979Y401829D01*
X338421Y401829D01*
X341409Y400591D01*
X343695Y398305D01*
X344933Y395317D01*
X344933Y392083D01*
X343695Y389095D01*
X341409Y386809D01*
X338421Y385571D01*
X321979Y385571D01*
G37*
%LPD*%
%LPC*%
G36*
X321979Y360171D02*
X321979Y360171D01*
X318991Y361409D01*
X316705Y363695D01*
X315467Y366683D01*
X315467Y369917D01*
X316705Y372905D01*
X318991Y375191D01*
X321979Y376429D01*
X338421Y376429D01*
X341409Y375191D01*
X343695Y372905D01*
X344933Y369917D01*
X344933Y366683D01*
X343695Y363695D01*
X341409Y361409D01*
X338421Y360171D01*
X321979Y360171D01*
G37*
%LPD*%
%LPC*%
G36*
X360079Y360171D02*
X360079Y360171D01*
X357091Y361409D01*
X354805Y363695D01*
X353567Y366683D01*
X353567Y369917D01*
X354805Y372905D01*
X357091Y375191D01*
X360079Y376429D01*
X376521Y376429D01*
X379509Y375191D01*
X381795Y372905D01*
X383033Y369917D01*
X383033Y366683D01*
X381795Y363695D01*
X379509Y361409D01*
X376521Y360171D01*
X360079Y360171D01*
G37*
%LPD*%
%LPC*%
G36*
X245779Y410971D02*
X245779Y410971D01*
X242791Y412209D01*
X240505Y414495D01*
X239267Y417483D01*
X239267Y420717D01*
X240505Y423705D01*
X242791Y425991D01*
X245779Y427229D01*
X262221Y427229D01*
X265209Y425991D01*
X267495Y423705D01*
X268733Y420717D01*
X268733Y417483D01*
X267495Y414495D01*
X265209Y412209D01*
X262221Y410971D01*
X245779Y410971D01*
G37*
%LPD*%
%LPC*%
G36*
X245779Y156971D02*
X245779Y156971D01*
X242791Y158209D01*
X240505Y160495D01*
X239267Y163483D01*
X239267Y166717D01*
X240505Y169705D01*
X242791Y171991D01*
X245779Y173229D01*
X262221Y173229D01*
X265209Y171991D01*
X267495Y169705D01*
X268733Y166717D01*
X268733Y163483D01*
X267495Y160495D01*
X265209Y158209D01*
X262221Y156971D01*
X245779Y156971D01*
G37*
%LPD*%
%LPC*%
G36*
X560323Y331723D02*
X560323Y331723D01*
X560323Y341741D01*
X568708Y341741D01*
X570502Y341457D01*
X572230Y340895D01*
X573849Y340071D01*
X575318Y339003D01*
X576603Y337718D01*
X577671Y336249D01*
X578495Y334630D01*
X579057Y332902D01*
X579243Y331723D01*
X560323Y331723D01*
G37*
%LPD*%
%LPC*%
G36*
X560323Y306323D02*
X560323Y306323D01*
X560323Y316341D01*
X568708Y316341D01*
X570502Y316057D01*
X572230Y315495D01*
X573849Y314671D01*
X575318Y313603D01*
X576603Y312318D01*
X577671Y310849D01*
X578495Y309230D01*
X579057Y307502D01*
X579243Y306323D01*
X560323Y306323D01*
G37*
%LPD*%
%LPC*%
G36*
X560323Y433323D02*
X560323Y433323D01*
X560323Y443341D01*
X568708Y443341D01*
X570502Y443057D01*
X572230Y442495D01*
X573849Y441671D01*
X575318Y440603D01*
X576603Y439318D01*
X577671Y437849D01*
X578495Y436230D01*
X579057Y434502D01*
X579243Y433323D01*
X560323Y433323D01*
G37*
%LPD*%
%LPC*%
G36*
X560323Y255523D02*
X560323Y255523D01*
X560323Y265541D01*
X568708Y265541D01*
X570502Y265257D01*
X572230Y264695D01*
X573849Y263871D01*
X575318Y262803D01*
X576603Y261518D01*
X577671Y260049D01*
X578495Y258430D01*
X579057Y256702D01*
X579243Y255523D01*
X560323Y255523D01*
G37*
%LPD*%
%LPC*%
G36*
X560323Y280923D02*
X560323Y280923D01*
X560323Y290941D01*
X568708Y290941D01*
X570502Y290657D01*
X572230Y290095D01*
X573849Y289271D01*
X575318Y288203D01*
X576603Y286918D01*
X577671Y285449D01*
X578495Y283830D01*
X579057Y282102D01*
X579243Y280923D01*
X560323Y280923D01*
G37*
%LPD*%
%LPC*%
G36*
X560323Y458723D02*
X560323Y458723D01*
X560323Y468741D01*
X568708Y468741D01*
X570502Y468457D01*
X572230Y467895D01*
X573849Y467071D01*
X575318Y466003D01*
X576603Y464718D01*
X577671Y463249D01*
X578495Y461630D01*
X579057Y459902D01*
X579243Y458723D01*
X560323Y458723D01*
G37*
%LPD*%
%LPC*%
G36*
X560323Y407923D02*
X560323Y407923D01*
X560323Y417941D01*
X568708Y417941D01*
X570502Y417657D01*
X572230Y417095D01*
X573849Y416271D01*
X575318Y415203D01*
X576603Y413918D01*
X577671Y412449D01*
X578495Y410830D01*
X579057Y409102D01*
X579243Y407923D01*
X560323Y407923D01*
G37*
%LPD*%
%LPC*%
G36*
X560323Y382523D02*
X560323Y382523D01*
X560323Y392541D01*
X568708Y392541D01*
X570502Y392257D01*
X572230Y391695D01*
X573849Y390871D01*
X575318Y389803D01*
X576603Y388518D01*
X577671Y387049D01*
X578495Y385430D01*
X579057Y383702D01*
X579243Y382523D01*
X560323Y382523D01*
G37*
%LPD*%
%LPC*%
G36*
X538357Y458723D02*
X538357Y458723D01*
X538543Y459902D01*
X539105Y461630D01*
X539929Y463249D01*
X540997Y464718D01*
X542282Y466003D01*
X543751Y467071D01*
X545370Y467895D01*
X547098Y468457D01*
X548892Y468741D01*
X557277Y468741D01*
X557277Y458723D01*
X538357Y458723D01*
G37*
%LPD*%
%LPC*%
G36*
X538357Y382523D02*
X538357Y382523D01*
X538543Y383702D01*
X539105Y385430D01*
X539929Y387049D01*
X540997Y388518D01*
X542282Y389803D01*
X543751Y390871D01*
X545370Y391695D01*
X547098Y392257D01*
X548892Y392541D01*
X557277Y392541D01*
X557277Y382523D01*
X538357Y382523D01*
G37*
%LPD*%
%LPC*%
G36*
X538357Y433323D02*
X538357Y433323D01*
X538543Y434502D01*
X539105Y436230D01*
X539929Y437849D01*
X540997Y439318D01*
X542282Y440603D01*
X543751Y441671D01*
X545370Y442495D01*
X547098Y443057D01*
X548892Y443341D01*
X557277Y443341D01*
X557277Y433323D01*
X538357Y433323D01*
G37*
%LPD*%
%LPC*%
G36*
X538357Y306323D02*
X538357Y306323D01*
X538543Y307502D01*
X539105Y309230D01*
X539929Y310849D01*
X540997Y312318D01*
X542282Y313603D01*
X543751Y314671D01*
X545370Y315495D01*
X547098Y316057D01*
X548892Y316341D01*
X557277Y316341D01*
X557277Y306323D01*
X538357Y306323D01*
G37*
%LPD*%
%LPC*%
G36*
X538357Y331723D02*
X538357Y331723D01*
X538543Y332902D01*
X539105Y334630D01*
X539929Y336249D01*
X540997Y337718D01*
X542282Y339003D01*
X543751Y340071D01*
X545370Y340895D01*
X547098Y341457D01*
X548892Y341741D01*
X557277Y341741D01*
X557277Y331723D01*
X538357Y331723D01*
G37*
%LPD*%
%LPC*%
G36*
X538357Y255523D02*
X538357Y255523D01*
X538543Y256702D01*
X539105Y258430D01*
X539929Y260049D01*
X540997Y261518D01*
X542282Y262803D01*
X543751Y263871D01*
X545370Y264695D01*
X547098Y265257D01*
X548892Y265541D01*
X557277Y265541D01*
X557277Y255523D01*
X538357Y255523D01*
G37*
%LPD*%
%LPC*%
G36*
X538357Y280923D02*
X538357Y280923D01*
X538543Y282102D01*
X539105Y283830D01*
X539929Y285449D01*
X540997Y286918D01*
X542282Y288203D01*
X543751Y289271D01*
X545370Y290095D01*
X547098Y290657D01*
X548892Y290941D01*
X557277Y290941D01*
X557277Y280923D01*
X538357Y280923D01*
G37*
%LPD*%
%LPC*%
G36*
X538357Y407923D02*
X538357Y407923D01*
X538543Y409102D01*
X539105Y410830D01*
X539929Y412449D01*
X540997Y413918D01*
X542282Y415203D01*
X543751Y416271D01*
X545370Y417095D01*
X547098Y417657D01*
X548892Y417941D01*
X557277Y417941D01*
X557277Y407923D01*
X538357Y407923D01*
G37*
%LPD*%
%LPC*%
G36*
X560323Y242459D02*
X560323Y242459D01*
X560323Y252477D01*
X579243Y252477D01*
X579057Y251298D01*
X578495Y249570D01*
X577671Y247951D01*
X576603Y246482D01*
X575318Y245197D01*
X573849Y244129D01*
X572230Y243305D01*
X570502Y242743D01*
X568708Y242459D01*
X560323Y242459D01*
G37*
%LPD*%
%LPC*%
G36*
X560323Y445659D02*
X560323Y445659D01*
X560323Y455677D01*
X579243Y455677D01*
X579057Y454498D01*
X578495Y452770D01*
X577671Y451151D01*
X576603Y449682D01*
X575318Y448397D01*
X573849Y447329D01*
X572230Y446505D01*
X570502Y445943D01*
X568708Y445659D01*
X560323Y445659D01*
G37*
%LPD*%
%LPC*%
G36*
X560323Y420259D02*
X560323Y420259D01*
X560323Y430277D01*
X579243Y430277D01*
X579057Y429098D01*
X578495Y427370D01*
X577671Y425751D01*
X576603Y424282D01*
X575318Y422997D01*
X573849Y421929D01*
X572230Y421105D01*
X570502Y420543D01*
X568708Y420259D01*
X560323Y420259D01*
G37*
%LPD*%
%LPC*%
G36*
X560323Y394859D02*
X560323Y394859D01*
X560323Y404877D01*
X579243Y404877D01*
X579057Y403698D01*
X578495Y401970D01*
X577671Y400351D01*
X576603Y398882D01*
X575318Y397597D01*
X573849Y396529D01*
X572230Y395705D01*
X570502Y395143D01*
X568708Y394859D01*
X560323Y394859D01*
G37*
%LPD*%
%LPC*%
G36*
X560323Y369459D02*
X560323Y369459D01*
X560323Y379477D01*
X579243Y379477D01*
X579057Y378298D01*
X578495Y376570D01*
X577671Y374951D01*
X576603Y373482D01*
X575318Y372197D01*
X573849Y371129D01*
X572230Y370305D01*
X570502Y369743D01*
X568708Y369459D01*
X560323Y369459D01*
G37*
%LPD*%
%LPC*%
G36*
X560323Y318659D02*
X560323Y318659D01*
X560323Y328677D01*
X579243Y328677D01*
X579057Y327498D01*
X578495Y325770D01*
X577671Y324151D01*
X576603Y322682D01*
X575318Y321397D01*
X573849Y320329D01*
X572230Y319505D01*
X570502Y318943D01*
X568708Y318659D01*
X560323Y318659D01*
G37*
%LPD*%
%LPC*%
G36*
X560323Y293259D02*
X560323Y293259D01*
X560323Y303277D01*
X579243Y303277D01*
X579057Y302098D01*
X578495Y300370D01*
X577671Y298751D01*
X576603Y297282D01*
X575318Y295997D01*
X573849Y294929D01*
X572230Y294105D01*
X570502Y293543D01*
X568708Y293259D01*
X560323Y293259D01*
G37*
%LPD*%
%LPC*%
G36*
X560323Y267859D02*
X560323Y267859D01*
X560323Y277877D01*
X579243Y277877D01*
X579057Y276698D01*
X578495Y274970D01*
X577671Y273351D01*
X576603Y271882D01*
X575318Y270597D01*
X573849Y269529D01*
X572230Y268705D01*
X570502Y268143D01*
X568708Y267859D01*
X560323Y267859D01*
G37*
%LPD*%
%LPC*%
G36*
X548892Y369459D02*
X548892Y369459D01*
X547098Y369743D01*
X545370Y370305D01*
X543751Y371129D01*
X542282Y372197D01*
X540997Y373482D01*
X539929Y374951D01*
X539105Y376570D01*
X538543Y378298D01*
X538357Y379477D01*
X557277Y379477D01*
X557277Y369459D01*
X548892Y369459D01*
G37*
%LPD*%
%LPC*%
G36*
X548892Y394859D02*
X548892Y394859D01*
X547098Y395143D01*
X545370Y395705D01*
X543751Y396529D01*
X542282Y397597D01*
X540997Y398882D01*
X539929Y400351D01*
X539105Y401970D01*
X538543Y403698D01*
X538357Y404877D01*
X557277Y404877D01*
X557277Y394859D01*
X548892Y394859D01*
G37*
%LPD*%
%LPC*%
G36*
X548892Y267859D02*
X548892Y267859D01*
X547098Y268143D01*
X545370Y268705D01*
X543751Y269529D01*
X542282Y270597D01*
X540997Y271882D01*
X539929Y273351D01*
X539105Y274970D01*
X538543Y276698D01*
X538357Y277877D01*
X557277Y277877D01*
X557277Y267859D01*
X548892Y267859D01*
G37*
%LPD*%
%LPC*%
G36*
X548892Y293259D02*
X548892Y293259D01*
X547098Y293543D01*
X545370Y294105D01*
X543751Y294929D01*
X542282Y295997D01*
X540997Y297282D01*
X539929Y298751D01*
X539105Y300370D01*
X538543Y302098D01*
X538357Y303277D01*
X557277Y303277D01*
X557277Y293259D01*
X548892Y293259D01*
G37*
%LPD*%
%LPC*%
G36*
X548892Y420259D02*
X548892Y420259D01*
X547098Y420543D01*
X545370Y421105D01*
X543751Y421929D01*
X542282Y422997D01*
X540997Y424282D01*
X539929Y425751D01*
X539105Y427370D01*
X538543Y429098D01*
X538357Y430277D01*
X557277Y430277D01*
X557277Y420259D01*
X548892Y420259D01*
G37*
%LPD*%
%LPC*%
G36*
X548892Y445659D02*
X548892Y445659D01*
X547098Y445943D01*
X545370Y446505D01*
X543751Y447329D01*
X542282Y448397D01*
X540997Y449682D01*
X539929Y451151D01*
X539105Y452770D01*
X538543Y454498D01*
X538357Y455677D01*
X557277Y455677D01*
X557277Y445659D01*
X548892Y445659D01*
G37*
%LPD*%
%LPC*%
G36*
X548892Y242459D02*
X548892Y242459D01*
X547098Y242743D01*
X545370Y243305D01*
X543751Y244129D01*
X542282Y245197D01*
X540997Y246482D01*
X539929Y247951D01*
X539105Y249570D01*
X538543Y251298D01*
X538357Y252477D01*
X557277Y252477D01*
X557277Y242459D01*
X548892Y242459D01*
G37*
%LPD*%
%LPC*%
G36*
X548892Y318659D02*
X548892Y318659D01*
X547098Y318943D01*
X545370Y319505D01*
X543751Y320329D01*
X542282Y321397D01*
X540997Y322682D01*
X539929Y324151D01*
X539105Y325770D01*
X538543Y327498D01*
X538357Y328677D01*
X557277Y328677D01*
X557277Y318659D01*
X548892Y318659D01*
G37*
%LPD*%
%LPC*%
G36*
X407923Y560323D02*
X407923Y560323D01*
X407923Y576466D01*
X408779Y576331D01*
X410300Y575836D01*
X411725Y575110D01*
X413019Y574170D01*
X414150Y573039D01*
X415090Y571745D01*
X415816Y570320D01*
X416311Y568799D01*
X416561Y567220D01*
X416561Y560323D01*
X407923Y560323D01*
G37*
%LPD*%
%LPC*%
G36*
X496823Y560323D02*
X496823Y560323D01*
X496823Y576466D01*
X497679Y576331D01*
X499200Y575836D01*
X500625Y575110D01*
X501919Y574170D01*
X503050Y573039D01*
X503990Y571745D01*
X504716Y570320D01*
X505211Y568799D01*
X505461Y567220D01*
X505461Y560323D01*
X496823Y560323D01*
G37*
%LPD*%
%LPC*%
G36*
X319023Y560323D02*
X319023Y560323D01*
X319023Y576466D01*
X319879Y576331D01*
X321400Y575836D01*
X322825Y575110D01*
X324119Y574170D01*
X325250Y573039D01*
X326190Y571745D01*
X326916Y570320D01*
X327411Y568799D01*
X327661Y567220D01*
X327661Y560323D01*
X319023Y560323D01*
G37*
%LPD*%
%LPC*%
G36*
X319023Y557277D02*
X319023Y557277D01*
X327661Y557277D01*
X327661Y550380D01*
X327411Y548801D01*
X326916Y547280D01*
X326190Y545855D01*
X325250Y544561D01*
X324119Y543430D01*
X322825Y542490D01*
X321400Y541764D01*
X319879Y541269D01*
X319023Y541134D01*
X319023Y557277D01*
G37*
%LPD*%
%LPC*%
G36*
X496823Y557277D02*
X496823Y557277D01*
X505461Y557277D01*
X505461Y550380D01*
X505211Y548801D01*
X504716Y547280D01*
X503990Y545855D01*
X503050Y544561D01*
X501919Y543430D01*
X500625Y542490D01*
X499200Y541764D01*
X497679Y541269D01*
X496823Y541134D01*
X496823Y557277D01*
G37*
%LPD*%
%LPC*%
G36*
X407923Y557277D02*
X407923Y557277D01*
X416561Y557277D01*
X416561Y550380D01*
X416311Y548801D01*
X415816Y547280D01*
X415090Y545855D01*
X414150Y544561D01*
X413019Y543430D01*
X411725Y542490D01*
X410300Y541764D01*
X408779Y541269D01*
X407923Y541134D01*
X407923Y557277D01*
G37*
%LPD*%
%LPC*%
G36*
X396239Y560323D02*
X396239Y560323D01*
X396239Y567220D01*
X396489Y568799D01*
X396984Y570320D01*
X397710Y571745D01*
X398650Y573039D01*
X399781Y574170D01*
X401075Y575110D01*
X402500Y575836D01*
X404021Y576331D01*
X404877Y576466D01*
X404877Y560323D01*
X396239Y560323D01*
G37*
%LPD*%
%LPC*%
G36*
X485139Y560323D02*
X485139Y560323D01*
X485139Y567220D01*
X485389Y568799D01*
X485884Y570320D01*
X486610Y571745D01*
X487550Y573039D01*
X488681Y574170D01*
X489975Y575110D01*
X491400Y575836D01*
X492921Y576331D01*
X493777Y576466D01*
X493777Y560323D01*
X485139Y560323D01*
G37*
%LPD*%
%LPC*%
G36*
X307339Y560323D02*
X307339Y560323D01*
X307339Y567220D01*
X307589Y568799D01*
X308084Y570320D01*
X308810Y571745D01*
X309750Y573039D01*
X310881Y574170D01*
X312175Y575110D01*
X313600Y575836D01*
X315121Y576331D01*
X315977Y576466D01*
X315977Y560323D01*
X307339Y560323D01*
G37*
%LPD*%
%LPC*%
G36*
X315121Y541269D02*
X315121Y541269D01*
X313600Y541764D01*
X312175Y542490D01*
X310881Y543430D01*
X309750Y544561D01*
X308810Y545855D01*
X308084Y547280D01*
X307589Y548801D01*
X307339Y550380D01*
X307339Y557277D01*
X315977Y557277D01*
X315977Y541134D01*
X315121Y541269D01*
G37*
%LPD*%
%LPC*%
G36*
X492921Y541269D02*
X492921Y541269D01*
X491400Y541764D01*
X489975Y542490D01*
X488681Y543430D01*
X487550Y544561D01*
X486610Y545855D01*
X485884Y547280D01*
X485389Y548801D01*
X485139Y550380D01*
X485139Y557277D01*
X493777Y557277D01*
X493777Y541134D01*
X492921Y541269D01*
G37*
%LPD*%
%LPC*%
G36*
X404021Y541269D02*
X404021Y541269D01*
X402500Y541764D01*
X401075Y542490D01*
X399781Y543430D01*
X398650Y544561D01*
X397710Y545855D01*
X396984Y547280D01*
X396489Y548801D01*
X396239Y550380D01*
X396239Y557277D01*
X404877Y557277D01*
X404877Y541134D01*
X404021Y541269D01*
G37*
%LPD*%
%LPC*%
G36*
X352675Y420623D02*
X352675Y420623D01*
X352675Y420644D01*
X352682Y420666D01*
X352680Y420767D01*
X352683Y420867D01*
X352676Y420889D01*
X352676Y420912D01*
X352670Y420928D01*
X352695Y420957D01*
X352713Y421003D01*
X352740Y421044D01*
X352778Y421163D01*
X352787Y421186D01*
X352788Y421195D01*
X352791Y421204D01*
X352903Y421767D01*
X353592Y423432D01*
X354593Y424930D01*
X355866Y426203D01*
X357364Y427204D01*
X359029Y427893D01*
X360795Y428245D01*
X366777Y428245D01*
X366777Y420623D01*
X352675Y420623D01*
G37*
%LPD*%
%LPC*%
G36*
X360795Y409955D02*
X360795Y409955D01*
X359029Y410307D01*
X357364Y410996D01*
X355866Y411997D01*
X354593Y413270D01*
X353592Y414768D01*
X352903Y416433D01*
X352791Y416996D01*
X352773Y417042D01*
X352765Y417090D01*
X352731Y417156D01*
X352704Y417226D01*
X352673Y417264D01*
X352665Y417280D01*
X352687Y417366D01*
X352685Y417389D01*
X352689Y417412D01*
X352675Y417577D01*
X366777Y417577D01*
X366777Y409955D01*
X360795Y409955D01*
G37*
%LPD*%
%LPC*%
G36*
X230123Y611123D02*
X230123Y611123D01*
X230123Y625225D01*
X231267Y624997D01*
X232932Y624308D01*
X234430Y623307D01*
X235703Y622034D01*
X236704Y620536D01*
X237393Y618871D01*
X237745Y617105D01*
X237745Y611123D01*
X230123Y611123D01*
G37*
%LPD*%
%LPC*%
G36*
X369823Y420623D02*
X369823Y420623D01*
X369823Y428245D01*
X375805Y428245D01*
X377571Y427893D01*
X379236Y427204D01*
X380734Y426203D01*
X382007Y424930D01*
X383008Y423432D01*
X383697Y421767D01*
X383925Y420623D01*
X369823Y420623D01*
G37*
%LPD*%
%LPC*%
G36*
X255523Y268223D02*
X255523Y268223D01*
X255523Y275845D01*
X261505Y275845D01*
X263271Y275493D01*
X264936Y274804D01*
X266434Y273803D01*
X267707Y272530D01*
X268708Y271032D01*
X269397Y269367D01*
X269625Y268223D01*
X255523Y268223D01*
G37*
%LPD*%
%LPC*%
G36*
X369823Y344423D02*
X369823Y344423D01*
X369823Y352045D01*
X375805Y352045D01*
X377571Y351693D01*
X379236Y351004D01*
X380734Y350003D01*
X382007Y348730D01*
X383008Y347232D01*
X383697Y345567D01*
X383925Y344423D01*
X369823Y344423D01*
G37*
%LPD*%
%LPC*%
G36*
X352675Y344423D02*
X352675Y344423D01*
X352903Y345567D01*
X353592Y347232D01*
X354593Y348730D01*
X355866Y350003D01*
X357364Y351004D01*
X359029Y351693D01*
X360795Y352045D01*
X366777Y352045D01*
X366777Y344423D01*
X352675Y344423D01*
G37*
%LPD*%
%LPC*%
G36*
X238375Y268223D02*
X238375Y268223D01*
X238603Y269367D01*
X239292Y271032D01*
X240293Y272530D01*
X241566Y273803D01*
X243064Y274804D01*
X244729Y275493D01*
X246495Y275845D01*
X252477Y275845D01*
X252477Y268223D01*
X238375Y268223D01*
G37*
%LPD*%
%LPC*%
G36*
X230123Y608077D02*
X230123Y608077D01*
X237745Y608077D01*
X237745Y602095D01*
X237393Y600329D01*
X236704Y598664D01*
X235703Y597166D01*
X234430Y595893D01*
X232932Y594892D01*
X231267Y594203D01*
X230123Y593975D01*
X230123Y608077D01*
G37*
%LPD*%
%LPC*%
G36*
X369823Y409955D02*
X369823Y409955D01*
X369823Y417577D01*
X383925Y417577D01*
X383697Y416433D01*
X383008Y414768D01*
X382007Y413270D01*
X380734Y411997D01*
X379236Y410996D01*
X377571Y410307D01*
X375805Y409955D01*
X369823Y409955D01*
G37*
%LPD*%
%LPC*%
G36*
X255523Y257555D02*
X255523Y257555D01*
X255523Y265177D01*
X269625Y265177D01*
X269397Y264033D01*
X268708Y262368D01*
X267707Y260870D01*
X266434Y259597D01*
X264936Y258596D01*
X263271Y257907D01*
X261505Y257555D01*
X255523Y257555D01*
G37*
%LPD*%
%LPC*%
G36*
X369823Y333755D02*
X369823Y333755D01*
X369823Y341377D01*
X383925Y341377D01*
X383697Y340233D01*
X383008Y338568D01*
X382007Y337070D01*
X380734Y335797D01*
X379236Y334796D01*
X377571Y334107D01*
X375805Y333755D01*
X369823Y333755D01*
G37*
%LPD*%
%LPC*%
G36*
X219455Y611123D02*
X219455Y611123D01*
X219455Y617105D01*
X219807Y618871D01*
X220496Y620536D01*
X221497Y622034D01*
X222770Y623307D01*
X224268Y624308D01*
X225933Y624997D01*
X227077Y625225D01*
X227077Y611123D01*
X219455Y611123D01*
G37*
%LPD*%
%LPC*%
G36*
X360795Y333755D02*
X360795Y333755D01*
X359029Y334107D01*
X357364Y334796D01*
X355866Y335797D01*
X354593Y337070D01*
X353592Y338568D01*
X352903Y340233D01*
X352675Y341377D01*
X366777Y341377D01*
X366777Y333755D01*
X360795Y333755D01*
G37*
%LPD*%
%LPC*%
G36*
X225933Y594203D02*
X225933Y594203D01*
X224268Y594892D01*
X222770Y595893D01*
X221497Y597166D01*
X220496Y598664D01*
X219807Y600329D01*
X219455Y602095D01*
X219455Y608077D01*
X227077Y608077D01*
X227077Y593975D01*
X225933Y594203D01*
G37*
%LPD*%
%LPC*%
G36*
X246495Y257555D02*
X246495Y257555D01*
X244729Y257907D01*
X243064Y258596D01*
X241566Y259597D01*
X240293Y260870D01*
X239292Y262368D01*
X238603Y264033D01*
X238375Y265177D01*
X252477Y265177D01*
X252477Y257555D01*
X246495Y257555D01*
G37*
%LPD*%
%LPC*%
G36*
X368299Y419099D02*
X368299Y419099D01*
X368299Y419101D01*
X368301Y419101D01*
X368301Y419099D01*
X368299Y419099D01*
G37*
%LPD*%
%LPC*%
G36*
X558799Y431799D02*
X558799Y431799D01*
X558799Y431801D01*
X558801Y431801D01*
X558801Y431799D01*
X558799Y431799D01*
G37*
%LPD*%
%LPC*%
G36*
X558799Y279399D02*
X558799Y279399D01*
X558799Y279401D01*
X558801Y279401D01*
X558801Y279399D01*
X558799Y279399D01*
G37*
%LPD*%
%LPC*%
G36*
X558799Y304799D02*
X558799Y304799D01*
X558799Y304801D01*
X558801Y304801D01*
X558801Y304799D01*
X558799Y304799D01*
G37*
%LPD*%
%LPC*%
G36*
X406399Y558799D02*
X406399Y558799D01*
X406399Y558801D01*
X406401Y558801D01*
X406401Y558799D01*
X406399Y558799D01*
G37*
%LPD*%
%LPC*%
G36*
X253999Y266699D02*
X253999Y266699D01*
X253999Y266701D01*
X254001Y266701D01*
X254001Y266699D01*
X253999Y266699D01*
G37*
%LPD*%
%LPC*%
G36*
X495299Y558799D02*
X495299Y558799D01*
X495299Y558801D01*
X495301Y558801D01*
X495301Y558799D01*
X495299Y558799D01*
G37*
%LPD*%
%LPC*%
G36*
X317499Y558799D02*
X317499Y558799D01*
X317499Y558801D01*
X317501Y558801D01*
X317501Y558799D01*
X317499Y558799D01*
G37*
%LPD*%
%LPC*%
G36*
X558799Y406399D02*
X558799Y406399D01*
X558799Y406401D01*
X558801Y406401D01*
X558801Y406399D01*
X558799Y406399D01*
G37*
%LPD*%
%LPC*%
G36*
X558799Y330199D02*
X558799Y330199D01*
X558799Y330201D01*
X558801Y330201D01*
X558801Y330199D01*
X558799Y330199D01*
G37*
%LPD*%
%LPC*%
G36*
X558799Y253999D02*
X558799Y253999D01*
X558799Y254001D01*
X558801Y254001D01*
X558801Y253999D01*
X558799Y253999D01*
G37*
%LPD*%
%LPC*%
G36*
X558799Y380999D02*
X558799Y380999D01*
X558799Y381001D01*
X558801Y381001D01*
X558801Y380999D01*
X558799Y380999D01*
G37*
%LPD*%
%LPC*%
G36*
X558799Y457199D02*
X558799Y457199D01*
X558799Y457201D01*
X558801Y457201D01*
X558801Y457199D01*
X558799Y457199D01*
G37*
%LPD*%
%LPC*%
G36*
X368299Y342899D02*
X368299Y342899D01*
X368299Y342901D01*
X368301Y342901D01*
X368301Y342899D01*
X368299Y342899D01*
G37*
%LPD*%
%LPC*%
G36*
X228599Y609599D02*
X228599Y609599D01*
X228599Y609601D01*
X228601Y609601D01*
X228601Y609599D01*
X228599Y609599D01*
G37*
%LPD*%
D10*
X266700Y551180D02*
X266700Y566420D01*
X292100Y566420D02*
X292100Y551180D01*
X317500Y551180D02*
X317500Y566420D01*
X355600Y566420D02*
X355600Y551180D01*
X381000Y551180D02*
X381000Y566420D01*
X406400Y566420D02*
X406400Y551180D01*
X444500Y551180D02*
X444500Y566420D01*
X469900Y566420D02*
X469900Y551180D01*
X495300Y551180D02*
X495300Y566420D01*
D11*
X203200Y602996D02*
X203200Y616204D01*
X228600Y616204D02*
X228600Y602996D01*
X254000Y602996D02*
X254000Y616204D01*
X279400Y616204D02*
X279400Y602996D01*
X304800Y602996D02*
X304800Y616204D01*
X330200Y616204D02*
X330200Y602996D01*
X361696Y444500D02*
X374904Y444500D01*
X374904Y419100D02*
X361696Y419100D01*
X361696Y393700D02*
X374904Y393700D01*
X374904Y368300D02*
X361696Y368300D01*
X361696Y342900D02*
X374904Y342900D01*
X374904Y317500D02*
X361696Y317500D01*
X361696Y292100D02*
X374904Y292100D01*
X374904Y266700D02*
X361696Y266700D01*
X361696Y241300D02*
X374904Y241300D01*
X374904Y215900D02*
X361696Y215900D01*
X260604Y495300D02*
X247396Y495300D01*
X247396Y469900D02*
X260604Y469900D01*
X260604Y444500D02*
X247396Y444500D01*
X247396Y419100D02*
X260604Y419100D01*
X260604Y393700D02*
X247396Y393700D01*
X247396Y368300D02*
X260604Y368300D01*
X260604Y342900D02*
X247396Y342900D01*
X247396Y317500D02*
X260604Y317500D01*
X260604Y292100D02*
X247396Y292100D01*
X247396Y266700D02*
X260604Y266700D01*
X260604Y241300D02*
X247396Y241300D01*
X247396Y215900D02*
X260604Y215900D01*
X260604Y190500D02*
X247396Y190500D01*
X247396Y165100D02*
X260604Y165100D01*
X323596Y165100D02*
X336804Y165100D01*
X336804Y190500D02*
X323596Y190500D01*
X323596Y215900D02*
X336804Y215900D01*
X336804Y241300D02*
X323596Y241300D01*
X323596Y266700D02*
X336804Y266700D01*
X336804Y292100D02*
X323596Y292100D01*
X323596Y317500D02*
X336804Y317500D01*
X336804Y342900D02*
X323596Y342900D01*
X323596Y368300D02*
X336804Y368300D01*
X336804Y393700D02*
X323596Y393700D01*
X323596Y419100D02*
X336804Y419100D01*
X336804Y444500D02*
X323596Y444500D01*
X323596Y469900D02*
X336804Y469900D01*
X336804Y495300D02*
X323596Y495300D01*
D12*
X212200Y558800D02*
X194200Y558800D01*
X194200Y533400D02*
X212200Y533400D01*
X212200Y508000D02*
X194200Y508000D01*
X194200Y482600D02*
X212200Y482600D01*
X212200Y457200D02*
X194200Y457200D01*
X194200Y431800D02*
X212200Y431800D01*
X212200Y406400D02*
X194200Y406400D01*
X194200Y381000D02*
X212200Y381000D01*
X212200Y330200D02*
X194200Y330200D01*
X194200Y304800D02*
X212200Y304800D01*
X212200Y279400D02*
X194200Y279400D01*
X194200Y254000D02*
X212200Y254000D01*
X212200Y228600D02*
X194200Y228600D01*
X194200Y203200D02*
X212200Y203200D01*
X212200Y177800D02*
X194200Y177800D01*
X194200Y152400D02*
X212200Y152400D01*
X549800Y558800D02*
X567800Y558800D01*
X567800Y533400D02*
X549800Y533400D01*
X549800Y508000D02*
X567800Y508000D01*
X567800Y482600D02*
X549800Y482600D01*
X549800Y457200D02*
X567800Y457200D01*
X567800Y431800D02*
X549800Y431800D01*
X549800Y406400D02*
X567800Y406400D01*
X567800Y381000D02*
X549800Y381000D01*
X549800Y228600D02*
X567800Y228600D01*
X567800Y203200D02*
X549800Y203200D01*
X549800Y177800D02*
X567800Y177800D01*
X567800Y152400D02*
X549800Y152400D01*
X549800Y330200D02*
X567800Y330200D01*
X567800Y304800D02*
X549800Y304800D01*
X549800Y279400D02*
X567800Y279400D01*
X567800Y254000D02*
X549800Y254000D01*
D13*
X388620Y409956D02*
X388620Y457200D01*
X388620Y409956D02*
X373380Y394716D01*
X368808Y394716D01*
X368300Y393700D01*
D14*
X388620Y457200D03*
D13*
X216408Y597408D02*
X204216Y609600D01*
X216408Y597408D02*
X216408Y595884D01*
X246888Y565404D01*
X260604Y565404D01*
X266700Y559308D01*
X204216Y609600D02*
X203200Y609600D01*
X266700Y559308D02*
X266700Y558800D01*
X368808Y536448D02*
X368808Y445008D01*
X368808Y536448D02*
X356616Y548640D01*
X356616Y553212D02*
X356616Y557784D01*
X356616Y553212D02*
X356616Y548640D01*
X368808Y445008D02*
X368300Y444500D01*
X356616Y557784D02*
X355600Y558800D01*
X434340Y557784D02*
X443484Y557784D01*
X434340Y557784D02*
X413004Y536448D01*
X368808Y536448D01*
X443484Y557784D02*
X444500Y558800D01*
X266700Y558800D02*
X266700Y553212D01*
X283464Y536448D01*
X327660Y536448D01*
X344424Y553212D01*
X356616Y553212D01*
X355600Y558800D01*
X559308Y176784D02*
X559308Y152400D01*
X558800Y152400D01*
X559308Y176784D02*
X558800Y177800D01*
X559308Y178308D02*
X559308Y202692D01*
X558800Y203200D01*
X559308Y178308D02*
X558800Y177800D01*
X559308Y204216D02*
X559308Y228600D01*
X558800Y228600D01*
X559308Y204216D02*
X558800Y203200D01*
X259080Y291084D02*
X257556Y291084D01*
X254508Y291084D01*
X259080Y291084D02*
X303276Y246888D01*
X315468Y246888D01*
X320040Y242316D01*
X329184Y242316D01*
X254508Y291084D02*
X254000Y292100D01*
X329184Y242316D02*
X330200Y241300D01*
X541020Y228600D02*
X558800Y228600D01*
X541020Y228600D02*
X536448Y233172D01*
X384048Y233172D01*
X379476Y228600D01*
X347472Y228600D01*
X335280Y240792D01*
X330708Y240792D01*
X330200Y241300D01*
X362712Y438912D02*
X368300Y444500D01*
X362712Y438912D02*
X362712Y437388D01*
X356616Y431292D01*
X355092Y431292D01*
X348996Y425196D01*
X348996Y422148D01*
X347472Y420624D01*
X347472Y417576D01*
X348996Y416052D01*
X348996Y362712D01*
X341376Y355092D01*
X318516Y355092D01*
X268224Y304800D01*
X268224Y301752D01*
X257556Y291084D01*
X254000Y292100D01*
X330708Y318516D02*
X335280Y318516D01*
X345948Y329184D01*
X381000Y329184D01*
X394716Y342900D01*
X394716Y469392D01*
X374904Y489204D01*
X350520Y513588D02*
X260604Y513588D01*
X216408Y557784D01*
X204216Y557784D01*
X330708Y318516D02*
X330200Y317500D01*
X204216Y557784D02*
X203200Y558800D01*
D14*
X374904Y489204D03*
X350520Y513588D03*
D13*
X329184Y443484D02*
X315468Y443484D01*
X306324Y434340D01*
X268224Y434340D01*
X265176Y431292D01*
X225552Y431292D01*
X220980Y435864D01*
X217932Y432816D01*
X204216Y432816D01*
X329184Y443484D02*
X330200Y444500D01*
X204216Y432816D02*
X203200Y431800D01*
X330708Y469392D02*
X335280Y469392D01*
X348996Y455676D01*
X348996Y438912D01*
X341376Y431292D01*
X291084Y431292D01*
X266700Y406908D01*
X225552Y406908D01*
X224028Y408432D01*
X205740Y408432D01*
X204216Y406908D01*
X330200Y469900D02*
X330708Y469392D01*
X204216Y406908D02*
X203200Y406400D01*
X330708Y489204D02*
X330708Y495300D01*
X330708Y489204D02*
X336804Y483108D01*
X341376Y483108D01*
X352044Y472440D01*
X352044Y437388D01*
X342900Y428244D01*
X312420Y428244D01*
X265176Y381000D01*
X227076Y381000D01*
X225552Y382524D01*
X222504Y382524D01*
X220980Y381000D01*
X203200Y381000D01*
X330200Y495300D02*
X330708Y495300D01*
X252984Y495300D02*
X252984Y489204D01*
X246888Y483108D01*
X242316Y483108D01*
X227076Y467868D01*
X227076Y446532D01*
X222504Y441960D01*
X252984Y495300D02*
X254000Y495300D01*
D14*
X222504Y441960D03*
D13*
X254508Y445008D02*
X259080Y445008D01*
X272796Y458724D01*
X272796Y501396D01*
X266700Y507492D01*
X242316Y507492D01*
X227076Y492252D01*
X227076Y475488D01*
X220980Y469392D01*
X190500Y469392D01*
X188976Y470916D01*
X187452Y470916D01*
X179832Y463296D01*
X179832Y297180D01*
X196596Y280416D01*
X202692Y280416D01*
X254000Y444500D02*
X254508Y445008D01*
X202692Y280416D02*
X203200Y279400D01*
X252984Y362712D02*
X252984Y367284D01*
X252984Y362712D02*
X245364Y355092D01*
X242316Y355092D01*
X227076Y339852D01*
X227076Y220980D01*
X210312Y204216D01*
X204216Y204216D01*
X252984Y367284D02*
X254000Y368300D01*
X204216Y204216D02*
X203200Y203200D01*
X252984Y336804D02*
X252984Y342900D01*
X252984Y336804D02*
X246888Y330708D01*
X242316Y330708D01*
X230124Y318516D01*
X230124Y199644D01*
X208788Y178308D01*
X204216Y178308D01*
X252984Y342900D02*
X254000Y342900D01*
X204216Y178308D02*
X203200Y177800D01*
X252984Y310896D02*
X252984Y316992D01*
X252984Y310896D02*
X246888Y304800D01*
X242316Y304800D01*
X233172Y295656D01*
X233172Y176784D01*
X208788Y152400D01*
X203200Y152400D01*
X252984Y316992D02*
X254000Y317500D01*
X368808Y292608D02*
X373380Y292608D01*
X527304Y446532D01*
X527304Y533400D01*
X551688Y557784D01*
X557784Y557784D01*
X368808Y292608D02*
X368300Y292100D01*
X557784Y557784D02*
X558800Y558800D01*
X368808Y272796D02*
X368808Y266700D01*
X368808Y272796D02*
X374904Y278892D01*
X379476Y278892D01*
X530352Y429768D01*
X530352Y510540D01*
X553212Y533400D01*
X558800Y533400D01*
X368808Y266700D02*
X368300Y266700D01*
X368808Y242316D02*
X373380Y242316D01*
X533400Y402336D01*
X533400Y487680D01*
X553212Y507492D01*
X557784Y507492D01*
X368808Y242316D02*
X368300Y241300D01*
X557784Y507492D02*
X558800Y508000D01*
M02*
