G04 EAGLE Gerber RS-274X export*
G75*
%MOMM*%
%FSLAX34Y34*%
%LPD*%
%INSilkscreen Bottom*%
%IPPOS*%
%AMOC8*
5,1,8,0,0,1.08239X$1,22.5*%
G01*
%ADD10C,0.101600*%


D10*
X570992Y114808D02*
X570992Y126492D01*
X564501Y126492D02*
X570992Y119352D01*
X568396Y121948D02*
X564501Y114808D01*
X559844Y116755D02*
X559844Y122597D01*
X559844Y116755D02*
X559842Y116668D01*
X559836Y116580D01*
X559826Y116494D01*
X559813Y116407D01*
X559795Y116322D01*
X559774Y116237D01*
X559749Y116153D01*
X559720Y116071D01*
X559687Y115990D01*
X559651Y115910D01*
X559612Y115832D01*
X559568Y115756D01*
X559522Y115682D01*
X559472Y115611D01*
X559419Y115541D01*
X559363Y115474D01*
X559304Y115410D01*
X559242Y115348D01*
X559178Y115289D01*
X559111Y115233D01*
X559041Y115180D01*
X558970Y115130D01*
X558896Y115084D01*
X558820Y115040D01*
X558742Y115001D01*
X558662Y114965D01*
X558581Y114932D01*
X558499Y114903D01*
X558415Y114878D01*
X558330Y114857D01*
X558245Y114839D01*
X558158Y114826D01*
X558072Y114816D01*
X557984Y114810D01*
X557897Y114808D01*
X554651Y114808D01*
X554651Y122597D01*
X549117Y126492D02*
X549117Y114808D01*
X545872Y114808D01*
X545785Y114810D01*
X545697Y114816D01*
X545611Y114826D01*
X545524Y114839D01*
X545439Y114857D01*
X545354Y114878D01*
X545270Y114903D01*
X545188Y114932D01*
X545107Y114965D01*
X545027Y115001D01*
X544949Y115040D01*
X544873Y115084D01*
X544799Y115130D01*
X544728Y115180D01*
X544658Y115233D01*
X544591Y115289D01*
X544527Y115348D01*
X544465Y115409D01*
X544406Y115474D01*
X544350Y115541D01*
X544297Y115611D01*
X544247Y115682D01*
X544201Y115756D01*
X544158Y115832D01*
X544118Y115910D01*
X544082Y115990D01*
X544049Y116071D01*
X544020Y116153D01*
X543995Y116237D01*
X543974Y116322D01*
X543956Y116407D01*
X543943Y116494D01*
X543933Y116580D01*
X543927Y116668D01*
X543925Y116755D01*
X543925Y120650D01*
X543927Y120737D01*
X543933Y120825D01*
X543943Y120911D01*
X543956Y120998D01*
X543974Y121083D01*
X543995Y121168D01*
X544020Y121252D01*
X544049Y121334D01*
X544082Y121415D01*
X544118Y121495D01*
X544157Y121573D01*
X544201Y121649D01*
X544247Y121723D01*
X544297Y121794D01*
X544350Y121864D01*
X544406Y121931D01*
X544465Y121996D01*
X544527Y122057D01*
X544591Y122116D01*
X544658Y122172D01*
X544728Y122225D01*
X544799Y122275D01*
X544873Y122321D01*
X544949Y122365D01*
X545027Y122404D01*
X545107Y122440D01*
X545188Y122473D01*
X545270Y122502D01*
X545354Y122527D01*
X545439Y122548D01*
X545524Y122566D01*
X545611Y122579D01*
X545698Y122589D01*
X545785Y122595D01*
X545872Y122597D01*
X549117Y122597D01*
X537323Y114808D02*
X534077Y114808D01*
X537323Y114808D02*
X537410Y114810D01*
X537498Y114816D01*
X537584Y114826D01*
X537671Y114839D01*
X537756Y114857D01*
X537841Y114878D01*
X537925Y114903D01*
X538007Y114932D01*
X538088Y114965D01*
X538168Y115001D01*
X538246Y115040D01*
X538322Y115084D01*
X538396Y115130D01*
X538467Y115180D01*
X538537Y115233D01*
X538604Y115289D01*
X538668Y115348D01*
X538730Y115410D01*
X538789Y115474D01*
X538845Y115541D01*
X538898Y115611D01*
X538948Y115682D01*
X538994Y115756D01*
X539038Y115832D01*
X539077Y115910D01*
X539113Y115990D01*
X539146Y116071D01*
X539175Y116153D01*
X539200Y116237D01*
X539221Y116322D01*
X539239Y116407D01*
X539252Y116494D01*
X539262Y116580D01*
X539268Y116668D01*
X539270Y116755D01*
X539270Y120001D01*
X539268Y120102D01*
X539262Y120202D01*
X539252Y120302D01*
X539239Y120402D01*
X539221Y120501D01*
X539200Y120600D01*
X539175Y120697D01*
X539146Y120794D01*
X539113Y120889D01*
X539077Y120983D01*
X539037Y121075D01*
X538994Y121166D01*
X538947Y121255D01*
X538897Y121342D01*
X538843Y121428D01*
X538786Y121511D01*
X538726Y121591D01*
X538663Y121670D01*
X538596Y121746D01*
X538527Y121819D01*
X538455Y121889D01*
X538381Y121957D01*
X538304Y122022D01*
X538224Y122083D01*
X538142Y122142D01*
X538058Y122197D01*
X537972Y122249D01*
X537884Y122298D01*
X537794Y122343D01*
X537702Y122385D01*
X537609Y122423D01*
X537514Y122457D01*
X537419Y122488D01*
X537322Y122515D01*
X537224Y122538D01*
X537125Y122558D01*
X537025Y122573D01*
X536925Y122585D01*
X536825Y122593D01*
X536724Y122597D01*
X536624Y122597D01*
X536523Y122593D01*
X536423Y122585D01*
X536323Y122573D01*
X536223Y122558D01*
X536124Y122538D01*
X536026Y122515D01*
X535929Y122488D01*
X535834Y122457D01*
X535739Y122423D01*
X535646Y122385D01*
X535554Y122343D01*
X535464Y122298D01*
X535376Y122249D01*
X535290Y122197D01*
X535206Y122142D01*
X535124Y122083D01*
X535044Y122022D01*
X534967Y121957D01*
X534893Y121889D01*
X534821Y121819D01*
X534752Y121746D01*
X534685Y121670D01*
X534622Y121591D01*
X534562Y121511D01*
X534505Y121428D01*
X534451Y121342D01*
X534401Y121255D01*
X534354Y121166D01*
X534311Y121075D01*
X534271Y120983D01*
X534235Y120889D01*
X534202Y120794D01*
X534173Y120697D01*
X534148Y120600D01*
X534127Y120501D01*
X534109Y120402D01*
X534096Y120302D01*
X534086Y120202D01*
X534080Y120102D01*
X534078Y120001D01*
X534077Y120001D02*
X534077Y118703D01*
X539270Y118703D01*
X529139Y119352D02*
X521349Y119352D01*
X515804Y114808D02*
X515804Y126492D01*
X511909Y120001D01*
X508014Y126492D01*
X508014Y114808D01*
X502694Y117404D02*
X502694Y120001D01*
X502692Y120102D01*
X502686Y120202D01*
X502676Y120302D01*
X502663Y120402D01*
X502645Y120501D01*
X502624Y120600D01*
X502599Y120697D01*
X502570Y120794D01*
X502537Y120889D01*
X502501Y120983D01*
X502461Y121075D01*
X502418Y121166D01*
X502371Y121255D01*
X502321Y121342D01*
X502267Y121428D01*
X502210Y121511D01*
X502150Y121591D01*
X502087Y121670D01*
X502020Y121746D01*
X501951Y121819D01*
X501879Y121889D01*
X501805Y121957D01*
X501728Y122022D01*
X501648Y122083D01*
X501566Y122142D01*
X501482Y122197D01*
X501396Y122249D01*
X501308Y122298D01*
X501218Y122343D01*
X501126Y122385D01*
X501033Y122423D01*
X500938Y122457D01*
X500843Y122488D01*
X500746Y122515D01*
X500648Y122538D01*
X500549Y122558D01*
X500449Y122573D01*
X500349Y122585D01*
X500249Y122593D01*
X500148Y122597D01*
X500048Y122597D01*
X499947Y122593D01*
X499847Y122585D01*
X499747Y122573D01*
X499647Y122558D01*
X499548Y122538D01*
X499450Y122515D01*
X499353Y122488D01*
X499258Y122457D01*
X499163Y122423D01*
X499070Y122385D01*
X498978Y122343D01*
X498888Y122298D01*
X498800Y122249D01*
X498714Y122197D01*
X498630Y122142D01*
X498548Y122083D01*
X498468Y122022D01*
X498391Y121957D01*
X498317Y121889D01*
X498245Y121819D01*
X498176Y121746D01*
X498109Y121670D01*
X498046Y121591D01*
X497986Y121511D01*
X497929Y121428D01*
X497875Y121342D01*
X497825Y121255D01*
X497778Y121166D01*
X497735Y121075D01*
X497695Y120983D01*
X497659Y120889D01*
X497626Y120794D01*
X497597Y120697D01*
X497572Y120600D01*
X497551Y120501D01*
X497533Y120402D01*
X497520Y120302D01*
X497510Y120202D01*
X497504Y120102D01*
X497502Y120001D01*
X497501Y120001D02*
X497501Y117404D01*
X497502Y117404D02*
X497504Y117303D01*
X497510Y117203D01*
X497520Y117103D01*
X497533Y117003D01*
X497551Y116904D01*
X497572Y116805D01*
X497597Y116708D01*
X497626Y116611D01*
X497659Y116516D01*
X497695Y116422D01*
X497735Y116330D01*
X497778Y116239D01*
X497825Y116150D01*
X497875Y116063D01*
X497929Y115977D01*
X497986Y115894D01*
X498046Y115814D01*
X498109Y115735D01*
X498176Y115659D01*
X498245Y115586D01*
X498317Y115516D01*
X498391Y115448D01*
X498468Y115383D01*
X498548Y115322D01*
X498630Y115263D01*
X498714Y115208D01*
X498800Y115156D01*
X498888Y115107D01*
X498978Y115062D01*
X499070Y115020D01*
X499163Y114982D01*
X499258Y114948D01*
X499353Y114917D01*
X499450Y114890D01*
X499548Y114867D01*
X499647Y114847D01*
X499747Y114832D01*
X499847Y114820D01*
X499947Y114812D01*
X500048Y114808D01*
X500148Y114808D01*
X500249Y114812D01*
X500349Y114820D01*
X500449Y114832D01*
X500549Y114847D01*
X500648Y114867D01*
X500746Y114890D01*
X500843Y114917D01*
X500938Y114948D01*
X501033Y114982D01*
X501126Y115020D01*
X501218Y115062D01*
X501308Y115107D01*
X501396Y115156D01*
X501482Y115208D01*
X501566Y115263D01*
X501648Y115322D01*
X501728Y115383D01*
X501805Y115448D01*
X501879Y115516D01*
X501951Y115586D01*
X502020Y115659D01*
X502087Y115735D01*
X502150Y115814D01*
X502210Y115894D01*
X502267Y115977D01*
X502321Y116063D01*
X502371Y116150D01*
X502418Y116239D01*
X502461Y116330D01*
X502501Y116422D01*
X502537Y116516D01*
X502570Y116611D01*
X502599Y116708D01*
X502624Y116805D01*
X502645Y116904D01*
X502663Y117003D01*
X502676Y117103D01*
X502686Y117203D01*
X502692Y117303D01*
X502694Y117404D01*
X487654Y114808D02*
X487654Y126492D01*
X487654Y114808D02*
X490900Y114808D01*
X490987Y114810D01*
X491075Y114816D01*
X491161Y114826D01*
X491248Y114839D01*
X491333Y114857D01*
X491418Y114878D01*
X491502Y114903D01*
X491584Y114932D01*
X491665Y114965D01*
X491745Y115001D01*
X491823Y115040D01*
X491899Y115084D01*
X491973Y115130D01*
X492044Y115180D01*
X492114Y115233D01*
X492181Y115289D01*
X492245Y115348D01*
X492307Y115410D01*
X492366Y115474D01*
X492422Y115541D01*
X492475Y115611D01*
X492525Y115682D01*
X492571Y115756D01*
X492615Y115832D01*
X492654Y115910D01*
X492690Y115990D01*
X492723Y116071D01*
X492752Y116153D01*
X492777Y116237D01*
X492798Y116322D01*
X492816Y116407D01*
X492829Y116494D01*
X492839Y116580D01*
X492845Y116668D01*
X492847Y116755D01*
X492847Y120650D01*
X492845Y120737D01*
X492839Y120825D01*
X492829Y120911D01*
X492816Y120998D01*
X492798Y121083D01*
X492777Y121168D01*
X492752Y121252D01*
X492723Y121334D01*
X492690Y121415D01*
X492654Y121495D01*
X492615Y121573D01*
X492571Y121649D01*
X492525Y121723D01*
X492475Y121794D01*
X492422Y121864D01*
X492366Y121931D01*
X492307Y121995D01*
X492245Y122057D01*
X492181Y122116D01*
X492114Y122172D01*
X492044Y122225D01*
X491973Y122275D01*
X491899Y122321D01*
X491823Y122365D01*
X491745Y122404D01*
X491665Y122440D01*
X491584Y122473D01*
X491502Y122502D01*
X491418Y122527D01*
X491333Y122548D01*
X491248Y122566D01*
X491161Y122579D01*
X491075Y122589D01*
X490987Y122595D01*
X490900Y122597D01*
X487654Y122597D01*
X482120Y122597D02*
X482120Y116755D01*
X482118Y116668D01*
X482112Y116580D01*
X482102Y116494D01*
X482089Y116407D01*
X482071Y116322D01*
X482050Y116237D01*
X482025Y116153D01*
X481996Y116071D01*
X481963Y115990D01*
X481927Y115910D01*
X481888Y115832D01*
X481844Y115756D01*
X481798Y115682D01*
X481748Y115611D01*
X481695Y115541D01*
X481639Y115474D01*
X481580Y115410D01*
X481518Y115348D01*
X481454Y115289D01*
X481387Y115233D01*
X481317Y115180D01*
X481246Y115130D01*
X481172Y115084D01*
X481096Y115040D01*
X481018Y115001D01*
X480938Y114965D01*
X480857Y114932D01*
X480775Y114903D01*
X480691Y114878D01*
X480606Y114857D01*
X480521Y114839D01*
X480434Y114826D01*
X480348Y114816D01*
X480260Y114810D01*
X480173Y114808D01*
X476927Y114808D01*
X476927Y122597D01*
X471684Y126492D02*
X471684Y116755D01*
X471683Y116755D02*
X471681Y116668D01*
X471675Y116580D01*
X471665Y116494D01*
X471652Y116407D01*
X471634Y116322D01*
X471613Y116237D01*
X471588Y116153D01*
X471559Y116071D01*
X471526Y115990D01*
X471490Y115910D01*
X471451Y115832D01*
X471407Y115756D01*
X471361Y115682D01*
X471311Y115611D01*
X471258Y115541D01*
X471202Y115474D01*
X471143Y115410D01*
X471081Y115348D01*
X471017Y115289D01*
X470950Y115233D01*
X470880Y115180D01*
X470809Y115130D01*
X470735Y115084D01*
X470659Y115040D01*
X470581Y115001D01*
X470501Y114965D01*
X470420Y114932D01*
X470338Y114903D01*
X470254Y114878D01*
X470169Y114857D01*
X470084Y114839D01*
X469997Y114826D01*
X469911Y114816D01*
X469823Y114810D01*
X469736Y114808D01*
X463790Y114808D02*
X460544Y114808D01*
X463790Y114808D02*
X463877Y114810D01*
X463965Y114816D01*
X464051Y114826D01*
X464138Y114839D01*
X464223Y114857D01*
X464308Y114878D01*
X464392Y114903D01*
X464474Y114932D01*
X464555Y114965D01*
X464635Y115001D01*
X464713Y115040D01*
X464789Y115084D01*
X464863Y115130D01*
X464934Y115180D01*
X465004Y115233D01*
X465071Y115289D01*
X465135Y115348D01*
X465197Y115410D01*
X465256Y115474D01*
X465312Y115541D01*
X465365Y115611D01*
X465415Y115682D01*
X465461Y115756D01*
X465505Y115832D01*
X465544Y115910D01*
X465580Y115990D01*
X465613Y116071D01*
X465642Y116153D01*
X465667Y116237D01*
X465688Y116322D01*
X465706Y116407D01*
X465719Y116494D01*
X465729Y116580D01*
X465735Y116668D01*
X465737Y116755D01*
X465737Y120001D01*
X465735Y120102D01*
X465729Y120202D01*
X465719Y120302D01*
X465706Y120402D01*
X465688Y120501D01*
X465667Y120600D01*
X465642Y120697D01*
X465613Y120794D01*
X465580Y120889D01*
X465544Y120983D01*
X465504Y121075D01*
X465461Y121166D01*
X465414Y121255D01*
X465364Y121342D01*
X465310Y121428D01*
X465253Y121511D01*
X465193Y121591D01*
X465130Y121670D01*
X465063Y121746D01*
X464994Y121819D01*
X464922Y121889D01*
X464848Y121957D01*
X464771Y122022D01*
X464691Y122083D01*
X464609Y122142D01*
X464525Y122197D01*
X464439Y122249D01*
X464351Y122298D01*
X464261Y122343D01*
X464169Y122385D01*
X464076Y122423D01*
X463981Y122457D01*
X463886Y122488D01*
X463789Y122515D01*
X463691Y122538D01*
X463592Y122558D01*
X463492Y122573D01*
X463392Y122585D01*
X463292Y122593D01*
X463191Y122597D01*
X463091Y122597D01*
X462990Y122593D01*
X462890Y122585D01*
X462790Y122573D01*
X462690Y122558D01*
X462591Y122538D01*
X462493Y122515D01*
X462396Y122488D01*
X462301Y122457D01*
X462206Y122423D01*
X462113Y122385D01*
X462021Y122343D01*
X461931Y122298D01*
X461843Y122249D01*
X461757Y122197D01*
X461673Y122142D01*
X461591Y122083D01*
X461511Y122022D01*
X461434Y121957D01*
X461360Y121889D01*
X461288Y121819D01*
X461219Y121746D01*
X461152Y121670D01*
X461089Y121591D01*
X461029Y121511D01*
X460972Y121428D01*
X460918Y121342D01*
X460868Y121255D01*
X460821Y121166D01*
X460778Y121075D01*
X460738Y120983D01*
X460702Y120889D01*
X460669Y120794D01*
X460640Y120697D01*
X460615Y120600D01*
X460594Y120501D01*
X460576Y120402D01*
X460563Y120302D01*
X460553Y120202D01*
X460547Y120102D01*
X460545Y120001D01*
X460544Y120001D02*
X460544Y118703D01*
X465737Y118703D01*
X455606Y119352D02*
X447816Y119352D01*
X443414Y114808D02*
X439519Y126492D01*
X435624Y114808D01*
X436598Y117729D02*
X442440Y117729D01*
X430953Y114808D02*
X430953Y126492D01*
X427708Y126492D01*
X427595Y126490D01*
X427482Y126484D01*
X427369Y126474D01*
X427256Y126460D01*
X427144Y126443D01*
X427033Y126421D01*
X426923Y126396D01*
X426813Y126366D01*
X426705Y126333D01*
X426598Y126296D01*
X426492Y126256D01*
X426388Y126211D01*
X426285Y126163D01*
X426184Y126112D01*
X426085Y126057D01*
X425988Y125999D01*
X425893Y125937D01*
X425800Y125872D01*
X425710Y125804D01*
X425622Y125733D01*
X425536Y125658D01*
X425453Y125581D01*
X425373Y125501D01*
X425296Y125418D01*
X425221Y125332D01*
X425150Y125244D01*
X425082Y125154D01*
X425017Y125061D01*
X424955Y124966D01*
X424897Y124869D01*
X424842Y124770D01*
X424791Y124669D01*
X424743Y124566D01*
X424698Y124462D01*
X424658Y124356D01*
X424621Y124249D01*
X424588Y124141D01*
X424558Y124031D01*
X424533Y123921D01*
X424511Y123810D01*
X424494Y123698D01*
X424480Y123585D01*
X424470Y123472D01*
X424464Y123359D01*
X424462Y123246D01*
X424462Y118054D01*
X424464Y117941D01*
X424470Y117828D01*
X424480Y117715D01*
X424494Y117602D01*
X424511Y117490D01*
X424533Y117379D01*
X424558Y117269D01*
X424588Y117159D01*
X424621Y117051D01*
X424658Y116944D01*
X424698Y116838D01*
X424743Y116734D01*
X424791Y116631D01*
X424842Y116530D01*
X424897Y116431D01*
X424955Y116334D01*
X425017Y116239D01*
X425082Y116146D01*
X425150Y116056D01*
X425221Y115968D01*
X425296Y115882D01*
X425373Y115799D01*
X425453Y115719D01*
X425536Y115642D01*
X425622Y115567D01*
X425710Y115496D01*
X425800Y115428D01*
X425893Y115363D01*
X425988Y115301D01*
X426085Y115243D01*
X426184Y115188D01*
X426285Y115137D01*
X426388Y115089D01*
X426492Y115044D01*
X426598Y115004D01*
X426705Y114967D01*
X426813Y114934D01*
X426923Y114904D01*
X427033Y114879D01*
X427144Y114857D01*
X427256Y114840D01*
X427369Y114826D01*
X427482Y114816D01*
X427595Y114810D01*
X427708Y114808D01*
X430953Y114808D01*
X418183Y114808D02*
X418183Y126492D01*
X419481Y114808D02*
X416885Y114808D01*
X416885Y126492D02*
X419481Y126492D01*
X412285Y123246D02*
X412285Y118054D01*
X412285Y123246D02*
X412283Y123359D01*
X412277Y123472D01*
X412267Y123585D01*
X412253Y123698D01*
X412236Y123810D01*
X412214Y123921D01*
X412189Y124031D01*
X412159Y124141D01*
X412126Y124249D01*
X412089Y124356D01*
X412049Y124462D01*
X412004Y124566D01*
X411956Y124669D01*
X411905Y124770D01*
X411850Y124869D01*
X411792Y124966D01*
X411730Y125061D01*
X411665Y125154D01*
X411597Y125244D01*
X411526Y125332D01*
X411451Y125418D01*
X411374Y125501D01*
X411294Y125581D01*
X411211Y125658D01*
X411125Y125733D01*
X411037Y125804D01*
X410947Y125872D01*
X410854Y125937D01*
X410759Y125999D01*
X410662Y126057D01*
X410563Y126112D01*
X410462Y126163D01*
X410359Y126211D01*
X410255Y126256D01*
X410149Y126296D01*
X410042Y126333D01*
X409934Y126366D01*
X409824Y126396D01*
X409714Y126421D01*
X409603Y126443D01*
X409491Y126460D01*
X409378Y126474D01*
X409265Y126484D01*
X409152Y126490D01*
X409039Y126492D01*
X408926Y126490D01*
X408813Y126484D01*
X408700Y126474D01*
X408587Y126460D01*
X408475Y126443D01*
X408364Y126421D01*
X408254Y126396D01*
X408144Y126366D01*
X408036Y126333D01*
X407929Y126296D01*
X407823Y126256D01*
X407719Y126211D01*
X407616Y126163D01*
X407515Y126112D01*
X407416Y126057D01*
X407319Y125999D01*
X407224Y125937D01*
X407131Y125872D01*
X407041Y125804D01*
X406953Y125733D01*
X406867Y125658D01*
X406784Y125581D01*
X406704Y125501D01*
X406627Y125418D01*
X406552Y125332D01*
X406481Y125244D01*
X406413Y125154D01*
X406348Y125061D01*
X406286Y124966D01*
X406228Y124869D01*
X406173Y124770D01*
X406122Y124669D01*
X406074Y124566D01*
X406029Y124462D01*
X405989Y124356D01*
X405952Y124249D01*
X405919Y124141D01*
X405889Y124031D01*
X405864Y123921D01*
X405842Y123810D01*
X405825Y123698D01*
X405811Y123585D01*
X405801Y123472D01*
X405795Y123359D01*
X405793Y123246D01*
X405793Y118054D01*
X405795Y117941D01*
X405801Y117828D01*
X405811Y117715D01*
X405825Y117602D01*
X405842Y117490D01*
X405864Y117379D01*
X405889Y117269D01*
X405919Y117159D01*
X405952Y117051D01*
X405989Y116944D01*
X406029Y116838D01*
X406074Y116734D01*
X406122Y116631D01*
X406173Y116530D01*
X406228Y116431D01*
X406286Y116334D01*
X406348Y116239D01*
X406413Y116146D01*
X406481Y116056D01*
X406552Y115968D01*
X406627Y115882D01*
X406704Y115799D01*
X406784Y115719D01*
X406867Y115642D01*
X406953Y115567D01*
X407041Y115496D01*
X407131Y115428D01*
X407224Y115363D01*
X407319Y115301D01*
X407416Y115243D01*
X407515Y115188D01*
X407616Y115137D01*
X407719Y115089D01*
X407823Y115044D01*
X407929Y115004D01*
X408036Y114967D01*
X408144Y114934D01*
X408254Y114904D01*
X408364Y114879D01*
X408475Y114857D01*
X408587Y114840D01*
X408700Y114826D01*
X408813Y114816D01*
X408926Y114810D01*
X409039Y114808D01*
X409152Y114810D01*
X409265Y114816D01*
X409378Y114826D01*
X409491Y114840D01*
X409603Y114857D01*
X409714Y114879D01*
X409824Y114904D01*
X409934Y114934D01*
X410042Y114967D01*
X410149Y115004D01*
X410255Y115044D01*
X410359Y115089D01*
X410462Y115137D01*
X410563Y115188D01*
X410662Y115243D01*
X410759Y115301D01*
X410854Y115363D01*
X410947Y115428D01*
X411037Y115496D01*
X411125Y115567D01*
X411211Y115642D01*
X411294Y115719D01*
X411374Y115799D01*
X411451Y115882D01*
X411526Y115968D01*
X411597Y116056D01*
X411665Y116146D01*
X411730Y116239D01*
X411792Y116334D01*
X411850Y116431D01*
X411905Y116530D01*
X411956Y116631D01*
X412004Y116734D01*
X412049Y116838D01*
X412089Y116944D01*
X412126Y117051D01*
X412159Y117159D01*
X412189Y117269D01*
X412214Y117379D01*
X412236Y117490D01*
X412253Y117602D01*
X412267Y117715D01*
X412277Y117828D01*
X412283Y117941D01*
X412285Y118054D01*
X401348Y113510D02*
X396156Y113510D01*
X389608Y114808D02*
X392204Y122597D01*
X387012Y122597D02*
X389608Y114808D01*
X383075Y114808D02*
X383075Y115457D01*
X382425Y115457D01*
X382425Y114808D01*
X383075Y114808D01*
X371503Y123571D02*
X371505Y123678D01*
X371511Y123784D01*
X371521Y123890D01*
X371534Y123996D01*
X371552Y124102D01*
X371573Y124206D01*
X371598Y124310D01*
X371627Y124413D01*
X371659Y124514D01*
X371696Y124614D01*
X371736Y124713D01*
X371779Y124811D01*
X371826Y124907D01*
X371877Y125001D01*
X371931Y125093D01*
X371988Y125183D01*
X372048Y125271D01*
X372112Y125356D01*
X372179Y125439D01*
X372249Y125520D01*
X372321Y125598D01*
X372397Y125674D01*
X372475Y125746D01*
X372556Y125816D01*
X372639Y125883D01*
X372724Y125947D01*
X372812Y126007D01*
X372902Y126064D01*
X372994Y126118D01*
X373088Y126169D01*
X373184Y126216D01*
X373282Y126259D01*
X373381Y126299D01*
X373481Y126336D01*
X373582Y126368D01*
X373685Y126397D01*
X373789Y126422D01*
X373893Y126443D01*
X373999Y126461D01*
X374105Y126474D01*
X374211Y126484D01*
X374317Y126490D01*
X374424Y126492D01*
X374545Y126490D01*
X374666Y126484D01*
X374786Y126474D01*
X374907Y126461D01*
X375026Y126443D01*
X375146Y126422D01*
X375264Y126397D01*
X375381Y126368D01*
X375498Y126335D01*
X375613Y126299D01*
X375727Y126258D01*
X375840Y126215D01*
X375952Y126167D01*
X376061Y126116D01*
X376169Y126061D01*
X376276Y126003D01*
X376380Y125942D01*
X376482Y125877D01*
X376582Y125809D01*
X376680Y125738D01*
X376776Y125664D01*
X376869Y125587D01*
X376959Y125506D01*
X377047Y125423D01*
X377132Y125337D01*
X377215Y125248D01*
X377294Y125157D01*
X377371Y125063D01*
X377444Y124967D01*
X377514Y124869D01*
X377581Y124768D01*
X377645Y124665D01*
X377706Y124560D01*
X377763Y124453D01*
X377816Y124345D01*
X377866Y124235D01*
X377912Y124123D01*
X377955Y124010D01*
X377994Y123895D01*
X372478Y121299D02*
X372399Y121377D01*
X372323Y121457D01*
X372250Y121540D01*
X372180Y121626D01*
X372113Y121713D01*
X372049Y121804D01*
X371989Y121896D01*
X371931Y121990D01*
X371877Y122087D01*
X371827Y122185D01*
X371780Y122285D01*
X371736Y122386D01*
X371696Y122489D01*
X371660Y122594D01*
X371628Y122699D01*
X371599Y122806D01*
X371574Y122913D01*
X371552Y123022D01*
X371535Y123131D01*
X371521Y123240D01*
X371512Y123350D01*
X371506Y123461D01*
X371504Y123571D01*
X372477Y121299D02*
X377995Y114808D01*
X371503Y114808D01*
X366565Y120650D02*
X366562Y120880D01*
X366554Y121110D01*
X366540Y121339D01*
X366521Y121568D01*
X366496Y121797D01*
X366466Y122025D01*
X366431Y122252D01*
X366390Y122478D01*
X366344Y122703D01*
X366292Y122927D01*
X366235Y123150D01*
X366173Y123371D01*
X366105Y123591D01*
X366032Y123809D01*
X365954Y124025D01*
X365871Y124239D01*
X365783Y124452D01*
X365690Y124662D01*
X365591Y124869D01*
X365558Y124959D01*
X365522Y125048D01*
X365482Y125136D01*
X365438Y125221D01*
X365391Y125305D01*
X365341Y125387D01*
X365287Y125467D01*
X365231Y125544D01*
X365171Y125620D01*
X365108Y125693D01*
X365043Y125763D01*
X364974Y125831D01*
X364903Y125895D01*
X364830Y125957D01*
X364754Y126016D01*
X364676Y126072D01*
X364595Y126125D01*
X364513Y126174D01*
X364429Y126220D01*
X364342Y126263D01*
X364255Y126302D01*
X364165Y126338D01*
X364075Y126370D01*
X363983Y126398D01*
X363890Y126423D01*
X363796Y126444D01*
X363702Y126461D01*
X363607Y126475D01*
X363511Y126484D01*
X363415Y126490D01*
X363319Y126492D01*
X363223Y126490D01*
X363127Y126484D01*
X363031Y126475D01*
X362936Y126461D01*
X362842Y126444D01*
X362748Y126423D01*
X362655Y126398D01*
X362563Y126370D01*
X362473Y126338D01*
X362383Y126302D01*
X362296Y126263D01*
X362209Y126220D01*
X362125Y126174D01*
X362043Y126125D01*
X361962Y126072D01*
X361884Y126016D01*
X361808Y125957D01*
X361735Y125895D01*
X361664Y125831D01*
X361595Y125763D01*
X361530Y125693D01*
X361467Y125620D01*
X361407Y125545D01*
X361351Y125467D01*
X361297Y125387D01*
X361247Y125305D01*
X361200Y125221D01*
X361157Y125136D01*
X361116Y125048D01*
X361080Y124959D01*
X361047Y124869D01*
X361048Y124869D02*
X360949Y124661D01*
X360856Y124451D01*
X360768Y124239D01*
X360685Y124025D01*
X360607Y123808D01*
X360534Y123590D01*
X360466Y123371D01*
X360404Y123149D01*
X360347Y122927D01*
X360295Y122703D01*
X360249Y122478D01*
X360208Y122252D01*
X360173Y122024D01*
X360143Y121797D01*
X360118Y121568D01*
X360099Y121339D01*
X360085Y121110D01*
X360077Y120880D01*
X360074Y120650D01*
X366565Y120650D02*
X366562Y120420D01*
X366554Y120190D01*
X366540Y119961D01*
X366521Y119732D01*
X366496Y119503D01*
X366466Y119275D01*
X366431Y119048D01*
X366390Y118822D01*
X366344Y118597D01*
X366292Y118373D01*
X366235Y118150D01*
X366173Y117929D01*
X366105Y117709D01*
X366032Y117491D01*
X365954Y117275D01*
X365871Y117061D01*
X365783Y116849D01*
X365690Y116638D01*
X365591Y116431D01*
X365558Y116341D01*
X365522Y116252D01*
X365481Y116164D01*
X365438Y116079D01*
X365391Y115995D01*
X365341Y115913D01*
X365287Y115833D01*
X365231Y115756D01*
X365171Y115680D01*
X365108Y115607D01*
X365043Y115537D01*
X364974Y115469D01*
X364903Y115405D01*
X364830Y115343D01*
X364754Y115284D01*
X364676Y115228D01*
X364595Y115175D01*
X364513Y115126D01*
X364429Y115080D01*
X364342Y115037D01*
X364255Y114998D01*
X364165Y114962D01*
X364075Y114930D01*
X363983Y114902D01*
X363890Y114877D01*
X363796Y114856D01*
X363702Y114839D01*
X363607Y114825D01*
X363511Y114816D01*
X363415Y114810D01*
X363319Y114808D01*
X361047Y116431D02*
X360948Y116638D01*
X360855Y116849D01*
X360767Y117061D01*
X360684Y117275D01*
X360606Y117491D01*
X360533Y117709D01*
X360465Y117929D01*
X360403Y118150D01*
X360346Y118373D01*
X360294Y118597D01*
X360248Y118822D01*
X360207Y119048D01*
X360172Y119275D01*
X360142Y119503D01*
X360117Y119732D01*
X360098Y119961D01*
X360084Y120190D01*
X360076Y120420D01*
X360073Y120650D01*
X361047Y116431D02*
X361080Y116341D01*
X361116Y116252D01*
X361157Y116164D01*
X361200Y116079D01*
X361247Y115995D01*
X361297Y115913D01*
X361351Y115833D01*
X361407Y115755D01*
X361467Y115680D01*
X361530Y115607D01*
X361595Y115537D01*
X361664Y115469D01*
X361735Y115405D01*
X361808Y115343D01*
X361884Y115284D01*
X361962Y115228D01*
X362043Y115175D01*
X362125Y115126D01*
X362209Y115080D01*
X362296Y115037D01*
X362383Y114998D01*
X362473Y114962D01*
X362563Y114930D01*
X362655Y114902D01*
X362748Y114877D01*
X362842Y114856D01*
X362936Y114839D01*
X363031Y114825D01*
X363127Y114816D01*
X363223Y114810D01*
X363319Y114808D01*
X365916Y117404D02*
X360723Y123896D01*
X351565Y126492D02*
X351458Y126490D01*
X351352Y126484D01*
X351246Y126474D01*
X351140Y126461D01*
X351034Y126443D01*
X350930Y126422D01*
X350826Y126397D01*
X350723Y126368D01*
X350622Y126336D01*
X350522Y126299D01*
X350423Y126259D01*
X350325Y126216D01*
X350229Y126169D01*
X350135Y126118D01*
X350043Y126064D01*
X349953Y126007D01*
X349865Y125947D01*
X349780Y125883D01*
X349697Y125816D01*
X349616Y125746D01*
X349538Y125674D01*
X349462Y125598D01*
X349390Y125520D01*
X349320Y125439D01*
X349253Y125356D01*
X349189Y125271D01*
X349129Y125183D01*
X349072Y125093D01*
X349018Y125001D01*
X348967Y124907D01*
X348920Y124811D01*
X348877Y124713D01*
X348837Y124614D01*
X348800Y124514D01*
X348768Y124413D01*
X348739Y124310D01*
X348714Y124206D01*
X348693Y124102D01*
X348675Y123996D01*
X348662Y123890D01*
X348652Y123784D01*
X348646Y123678D01*
X348644Y123571D01*
X351565Y126492D02*
X351686Y126490D01*
X351807Y126484D01*
X351927Y126474D01*
X352048Y126461D01*
X352167Y126443D01*
X352287Y126422D01*
X352405Y126397D01*
X352522Y126368D01*
X352639Y126335D01*
X352754Y126299D01*
X352868Y126258D01*
X352981Y126215D01*
X353093Y126167D01*
X353202Y126116D01*
X353310Y126061D01*
X353417Y126003D01*
X353521Y125942D01*
X353623Y125877D01*
X353723Y125809D01*
X353821Y125738D01*
X353917Y125664D01*
X354010Y125587D01*
X354100Y125506D01*
X354188Y125423D01*
X354273Y125337D01*
X354356Y125248D01*
X354435Y125157D01*
X354512Y125063D01*
X354585Y124967D01*
X354655Y124869D01*
X354722Y124768D01*
X354786Y124665D01*
X354847Y124560D01*
X354904Y124453D01*
X354957Y124345D01*
X355007Y124235D01*
X355053Y124123D01*
X355096Y124010D01*
X355135Y123895D01*
X349618Y121299D02*
X349539Y121377D01*
X349463Y121457D01*
X349390Y121540D01*
X349320Y121626D01*
X349253Y121713D01*
X349189Y121804D01*
X349129Y121896D01*
X349071Y121990D01*
X349017Y122087D01*
X348967Y122185D01*
X348920Y122285D01*
X348876Y122386D01*
X348836Y122489D01*
X348800Y122594D01*
X348768Y122699D01*
X348739Y122806D01*
X348714Y122913D01*
X348692Y123022D01*
X348675Y123131D01*
X348661Y123240D01*
X348652Y123350D01*
X348646Y123461D01*
X348644Y123571D01*
X349617Y121299D02*
X355135Y114808D01*
X348644Y114808D01*
X343705Y123896D02*
X340459Y126492D01*
X340459Y114808D01*
X337214Y114808D02*
X343705Y114808D01*
X332275Y120650D02*
X332272Y120880D01*
X332264Y121110D01*
X332250Y121339D01*
X332231Y121568D01*
X332206Y121797D01*
X332176Y122025D01*
X332141Y122252D01*
X332100Y122478D01*
X332054Y122703D01*
X332002Y122927D01*
X331945Y123150D01*
X331883Y123371D01*
X331815Y123591D01*
X331742Y123809D01*
X331664Y124025D01*
X331581Y124239D01*
X331493Y124452D01*
X331400Y124662D01*
X331301Y124869D01*
X331268Y124959D01*
X331232Y125048D01*
X331192Y125136D01*
X331148Y125221D01*
X331101Y125305D01*
X331051Y125387D01*
X330997Y125467D01*
X330941Y125544D01*
X330881Y125620D01*
X330818Y125693D01*
X330753Y125763D01*
X330684Y125831D01*
X330613Y125895D01*
X330540Y125957D01*
X330464Y126016D01*
X330386Y126072D01*
X330305Y126125D01*
X330223Y126174D01*
X330139Y126220D01*
X330052Y126263D01*
X329965Y126302D01*
X329875Y126338D01*
X329785Y126370D01*
X329693Y126398D01*
X329600Y126423D01*
X329506Y126444D01*
X329412Y126461D01*
X329317Y126475D01*
X329221Y126484D01*
X329125Y126490D01*
X329029Y126492D01*
X328933Y126490D01*
X328837Y126484D01*
X328741Y126475D01*
X328646Y126461D01*
X328552Y126444D01*
X328458Y126423D01*
X328365Y126398D01*
X328273Y126370D01*
X328183Y126338D01*
X328093Y126302D01*
X328006Y126263D01*
X327919Y126220D01*
X327835Y126174D01*
X327753Y126125D01*
X327672Y126072D01*
X327594Y126016D01*
X327518Y125957D01*
X327445Y125895D01*
X327374Y125831D01*
X327305Y125763D01*
X327240Y125693D01*
X327177Y125620D01*
X327117Y125545D01*
X327061Y125467D01*
X327007Y125387D01*
X326957Y125305D01*
X326910Y125221D01*
X326867Y125136D01*
X326826Y125048D01*
X326790Y124959D01*
X326757Y124869D01*
X326758Y124869D02*
X326659Y124661D01*
X326566Y124451D01*
X326478Y124239D01*
X326395Y124025D01*
X326317Y123808D01*
X326244Y123590D01*
X326176Y123371D01*
X326114Y123149D01*
X326057Y122927D01*
X326005Y122703D01*
X325959Y122478D01*
X325918Y122252D01*
X325883Y122024D01*
X325853Y121797D01*
X325828Y121568D01*
X325809Y121339D01*
X325795Y121110D01*
X325787Y120880D01*
X325784Y120650D01*
X332275Y120650D02*
X332272Y120420D01*
X332264Y120190D01*
X332250Y119961D01*
X332231Y119732D01*
X332206Y119503D01*
X332176Y119275D01*
X332141Y119048D01*
X332100Y118822D01*
X332054Y118597D01*
X332002Y118373D01*
X331945Y118150D01*
X331883Y117929D01*
X331815Y117709D01*
X331742Y117491D01*
X331664Y117275D01*
X331581Y117061D01*
X331493Y116849D01*
X331400Y116638D01*
X331301Y116431D01*
X331268Y116341D01*
X331232Y116252D01*
X331191Y116164D01*
X331148Y116079D01*
X331101Y115995D01*
X331051Y115913D01*
X330997Y115833D01*
X330941Y115756D01*
X330881Y115680D01*
X330818Y115607D01*
X330753Y115537D01*
X330684Y115469D01*
X330613Y115405D01*
X330540Y115343D01*
X330464Y115284D01*
X330386Y115228D01*
X330305Y115175D01*
X330223Y115126D01*
X330139Y115080D01*
X330052Y115037D01*
X329965Y114998D01*
X329875Y114962D01*
X329785Y114930D01*
X329693Y114902D01*
X329600Y114877D01*
X329506Y114856D01*
X329412Y114839D01*
X329317Y114825D01*
X329221Y114816D01*
X329125Y114810D01*
X329029Y114808D01*
X326757Y116431D02*
X326658Y116638D01*
X326565Y116849D01*
X326477Y117061D01*
X326394Y117275D01*
X326316Y117491D01*
X326243Y117709D01*
X326175Y117929D01*
X326113Y118150D01*
X326056Y118373D01*
X326004Y118597D01*
X325958Y118822D01*
X325917Y119048D01*
X325882Y119275D01*
X325852Y119503D01*
X325827Y119732D01*
X325808Y119961D01*
X325794Y120190D01*
X325786Y120420D01*
X325783Y120650D01*
X326757Y116431D02*
X326790Y116341D01*
X326826Y116252D01*
X326867Y116164D01*
X326910Y116079D01*
X326957Y115995D01*
X327007Y115913D01*
X327061Y115833D01*
X327117Y115755D01*
X327177Y115680D01*
X327240Y115607D01*
X327305Y115537D01*
X327374Y115469D01*
X327445Y115405D01*
X327518Y115343D01*
X327594Y115284D01*
X327672Y115228D01*
X327753Y115175D01*
X327835Y115126D01*
X327919Y115080D01*
X328006Y115037D01*
X328093Y114998D01*
X328183Y114962D01*
X328273Y114930D01*
X328365Y114902D01*
X328458Y114877D01*
X328552Y114856D01*
X328646Y114839D01*
X328741Y114825D01*
X328837Y114816D01*
X328933Y114810D01*
X329029Y114808D01*
X331626Y117404D02*
X326433Y123896D01*
X320845Y117404D02*
X318248Y126492D01*
X320845Y117404D02*
X314354Y117404D01*
X316301Y120001D02*
X316301Y114808D01*
X309415Y120650D02*
X309412Y120880D01*
X309404Y121110D01*
X309390Y121339D01*
X309371Y121568D01*
X309346Y121797D01*
X309316Y122025D01*
X309281Y122252D01*
X309240Y122478D01*
X309194Y122703D01*
X309142Y122927D01*
X309085Y123150D01*
X309023Y123371D01*
X308955Y123591D01*
X308882Y123809D01*
X308804Y124025D01*
X308721Y124239D01*
X308633Y124452D01*
X308540Y124662D01*
X308441Y124869D01*
X308408Y124959D01*
X308372Y125048D01*
X308332Y125136D01*
X308288Y125221D01*
X308241Y125305D01*
X308191Y125387D01*
X308137Y125467D01*
X308081Y125544D01*
X308021Y125620D01*
X307958Y125693D01*
X307893Y125763D01*
X307824Y125831D01*
X307753Y125895D01*
X307680Y125957D01*
X307604Y126016D01*
X307526Y126072D01*
X307445Y126125D01*
X307363Y126174D01*
X307279Y126220D01*
X307192Y126263D01*
X307105Y126302D01*
X307015Y126338D01*
X306925Y126370D01*
X306833Y126398D01*
X306740Y126423D01*
X306646Y126444D01*
X306552Y126461D01*
X306457Y126475D01*
X306361Y126484D01*
X306265Y126490D01*
X306169Y126492D01*
X306073Y126490D01*
X305977Y126484D01*
X305881Y126475D01*
X305786Y126461D01*
X305692Y126444D01*
X305598Y126423D01*
X305505Y126398D01*
X305413Y126370D01*
X305323Y126338D01*
X305233Y126302D01*
X305146Y126263D01*
X305059Y126220D01*
X304975Y126174D01*
X304893Y126125D01*
X304812Y126072D01*
X304734Y126016D01*
X304658Y125957D01*
X304585Y125895D01*
X304514Y125831D01*
X304445Y125763D01*
X304380Y125693D01*
X304317Y125620D01*
X304257Y125545D01*
X304201Y125467D01*
X304147Y125387D01*
X304097Y125305D01*
X304050Y125221D01*
X304007Y125136D01*
X303966Y125048D01*
X303930Y124959D01*
X303897Y124869D01*
X303898Y124869D02*
X303799Y124661D01*
X303706Y124451D01*
X303618Y124239D01*
X303535Y124025D01*
X303457Y123808D01*
X303384Y123590D01*
X303316Y123371D01*
X303254Y123149D01*
X303197Y122927D01*
X303145Y122703D01*
X303099Y122478D01*
X303058Y122252D01*
X303023Y122024D01*
X302993Y121797D01*
X302968Y121568D01*
X302949Y121339D01*
X302935Y121110D01*
X302927Y120880D01*
X302924Y120650D01*
X309415Y120650D02*
X309412Y120420D01*
X309404Y120190D01*
X309390Y119961D01*
X309371Y119732D01*
X309346Y119503D01*
X309316Y119275D01*
X309281Y119048D01*
X309240Y118822D01*
X309194Y118597D01*
X309142Y118373D01*
X309085Y118150D01*
X309023Y117929D01*
X308955Y117709D01*
X308882Y117491D01*
X308804Y117275D01*
X308721Y117061D01*
X308633Y116849D01*
X308540Y116638D01*
X308441Y116431D01*
X308408Y116341D01*
X308372Y116252D01*
X308331Y116164D01*
X308288Y116079D01*
X308241Y115995D01*
X308191Y115913D01*
X308137Y115833D01*
X308081Y115756D01*
X308021Y115680D01*
X307958Y115607D01*
X307893Y115537D01*
X307824Y115469D01*
X307753Y115405D01*
X307680Y115343D01*
X307604Y115284D01*
X307526Y115228D01*
X307445Y115175D01*
X307363Y115126D01*
X307279Y115080D01*
X307192Y115037D01*
X307105Y114998D01*
X307015Y114962D01*
X306925Y114930D01*
X306833Y114902D01*
X306740Y114877D01*
X306646Y114856D01*
X306552Y114839D01*
X306457Y114825D01*
X306361Y114816D01*
X306265Y114810D01*
X306169Y114808D01*
X303897Y116431D02*
X303798Y116638D01*
X303705Y116849D01*
X303617Y117061D01*
X303534Y117275D01*
X303456Y117491D01*
X303383Y117709D01*
X303315Y117929D01*
X303253Y118150D01*
X303196Y118373D01*
X303144Y118597D01*
X303098Y118822D01*
X303057Y119048D01*
X303022Y119275D01*
X302992Y119503D01*
X302967Y119732D01*
X302948Y119961D01*
X302934Y120190D01*
X302926Y120420D01*
X302923Y120650D01*
X303897Y116431D02*
X303930Y116341D01*
X303966Y116252D01*
X304007Y116164D01*
X304050Y116079D01*
X304097Y115995D01*
X304147Y115913D01*
X304201Y115833D01*
X304257Y115755D01*
X304317Y115680D01*
X304380Y115607D01*
X304445Y115537D01*
X304514Y115469D01*
X304585Y115405D01*
X304658Y115343D01*
X304734Y115284D01*
X304812Y115228D01*
X304893Y115175D01*
X304975Y115126D01*
X305059Y115080D01*
X305146Y115037D01*
X305233Y114998D01*
X305323Y114962D01*
X305413Y114930D01*
X305505Y114902D01*
X305598Y114877D01*
X305692Y114856D01*
X305786Y114839D01*
X305881Y114825D01*
X305977Y114816D01*
X306073Y114810D01*
X306169Y114808D01*
X308766Y117404D02*
X303573Y123896D01*
X297985Y117404D02*
X295388Y126492D01*
X297985Y117404D02*
X291494Y117404D01*
X293441Y120001D02*
X293441Y114808D01*
X507492Y140208D02*
X507492Y151892D01*
X507492Y147997D02*
X504246Y147997D01*
X504159Y147995D01*
X504071Y147989D01*
X503985Y147979D01*
X503898Y147966D01*
X503813Y147948D01*
X503728Y147927D01*
X503644Y147902D01*
X503562Y147873D01*
X503481Y147840D01*
X503401Y147804D01*
X503323Y147765D01*
X503247Y147721D01*
X503173Y147675D01*
X503102Y147625D01*
X503032Y147572D01*
X502965Y147516D01*
X502901Y147457D01*
X502839Y147396D01*
X502780Y147331D01*
X502724Y147264D01*
X502671Y147194D01*
X502621Y147123D01*
X502575Y147049D01*
X502532Y146973D01*
X502492Y146895D01*
X502456Y146815D01*
X502423Y146734D01*
X502394Y146652D01*
X502369Y146568D01*
X502348Y146483D01*
X502330Y146398D01*
X502317Y146311D01*
X502307Y146225D01*
X502301Y146137D01*
X502299Y146050D01*
X502299Y140208D01*
X498172Y147997D02*
X494278Y147997D01*
X496874Y151892D02*
X496874Y142155D01*
X496872Y142068D01*
X496866Y141980D01*
X496856Y141894D01*
X496843Y141807D01*
X496825Y141722D01*
X496804Y141637D01*
X496779Y141553D01*
X496750Y141471D01*
X496717Y141390D01*
X496681Y141310D01*
X496642Y141232D01*
X496598Y141156D01*
X496552Y141082D01*
X496502Y141011D01*
X496449Y140941D01*
X496393Y140874D01*
X496334Y140810D01*
X496272Y140748D01*
X496208Y140689D01*
X496141Y140633D01*
X496071Y140580D01*
X496000Y140530D01*
X495926Y140484D01*
X495850Y140440D01*
X495772Y140401D01*
X495692Y140365D01*
X495611Y140332D01*
X495529Y140303D01*
X495445Y140278D01*
X495360Y140257D01*
X495275Y140239D01*
X495188Y140226D01*
X495102Y140216D01*
X495014Y140210D01*
X494927Y140208D01*
X494278Y140208D01*
X490933Y147997D02*
X487039Y147997D01*
X489635Y151892D02*
X489635Y142155D01*
X489633Y142068D01*
X489627Y141980D01*
X489617Y141894D01*
X489604Y141807D01*
X489586Y141722D01*
X489565Y141637D01*
X489540Y141553D01*
X489511Y141471D01*
X489478Y141390D01*
X489442Y141310D01*
X489403Y141232D01*
X489359Y141156D01*
X489313Y141082D01*
X489263Y141011D01*
X489210Y140941D01*
X489154Y140874D01*
X489095Y140810D01*
X489033Y140748D01*
X488969Y140689D01*
X488902Y140633D01*
X488832Y140580D01*
X488761Y140530D01*
X488687Y140484D01*
X488611Y140440D01*
X488533Y140401D01*
X488453Y140365D01*
X488372Y140332D01*
X488290Y140303D01*
X488206Y140278D01*
X488121Y140257D01*
X488036Y140239D01*
X487949Y140226D01*
X487863Y140216D01*
X487775Y140210D01*
X487688Y140208D01*
X487039Y140208D01*
X482287Y136313D02*
X482287Y147997D01*
X479042Y147997D01*
X478955Y147995D01*
X478867Y147989D01*
X478781Y147979D01*
X478694Y147966D01*
X478609Y147948D01*
X478524Y147927D01*
X478440Y147902D01*
X478358Y147873D01*
X478277Y147840D01*
X478197Y147804D01*
X478119Y147765D01*
X478043Y147721D01*
X477969Y147675D01*
X477898Y147625D01*
X477828Y147572D01*
X477761Y147516D01*
X477697Y147457D01*
X477635Y147396D01*
X477576Y147331D01*
X477520Y147264D01*
X477467Y147194D01*
X477417Y147123D01*
X477371Y147049D01*
X477328Y146973D01*
X477288Y146895D01*
X477252Y146815D01*
X477219Y146734D01*
X477190Y146652D01*
X477165Y146568D01*
X477144Y146483D01*
X477126Y146398D01*
X477113Y146311D01*
X477103Y146225D01*
X477097Y146137D01*
X477095Y146050D01*
X477094Y146050D02*
X477094Y142155D01*
X477095Y142155D02*
X477097Y142068D01*
X477103Y141980D01*
X477113Y141894D01*
X477126Y141807D01*
X477144Y141722D01*
X477165Y141637D01*
X477190Y141553D01*
X477219Y141471D01*
X477252Y141390D01*
X477288Y141310D01*
X477327Y141232D01*
X477371Y141156D01*
X477417Y141082D01*
X477467Y141011D01*
X477520Y140941D01*
X477576Y140874D01*
X477635Y140809D01*
X477697Y140748D01*
X477761Y140689D01*
X477828Y140633D01*
X477898Y140580D01*
X477969Y140530D01*
X478043Y140484D01*
X478119Y140440D01*
X478197Y140401D01*
X478277Y140365D01*
X478358Y140332D01*
X478440Y140303D01*
X478524Y140278D01*
X478609Y140257D01*
X478694Y140239D01*
X478781Y140226D01*
X478868Y140216D01*
X478955Y140210D01*
X479042Y140208D01*
X482287Y140208D01*
X472454Y141182D02*
X472454Y141831D01*
X471805Y141831D01*
X471805Y141182D01*
X472454Y141182D01*
X472454Y146375D02*
X472454Y147024D01*
X471805Y147024D01*
X471805Y146375D01*
X472454Y146375D01*
X467487Y138910D02*
X462294Y153190D01*
X453150Y153190D02*
X458343Y138910D01*
X447026Y140208D02*
X448973Y147997D01*
X445079Y145401D02*
X447026Y140208D01*
X443131Y140208D02*
X445079Y145401D01*
X441184Y147997D02*
X443131Y140208D01*
X434834Y140208D02*
X436781Y147997D01*
X432887Y145401D02*
X434834Y140208D01*
X430939Y140208D02*
X432887Y145401D01*
X428992Y147997D02*
X430939Y140208D01*
X422642Y140208D02*
X424589Y147997D01*
X420695Y145401D02*
X422642Y140208D01*
X418747Y140208D02*
X420695Y145401D01*
X416800Y147997D02*
X418747Y140208D01*
X412637Y140208D02*
X412637Y140857D01*
X411988Y140857D01*
X411988Y140208D01*
X412637Y140208D01*
X408051Y136313D02*
X406753Y136313D01*
X402858Y147997D01*
X408051Y147997D02*
X405455Y140208D01*
X398526Y142804D02*
X398526Y145401D01*
X398524Y145502D01*
X398518Y145602D01*
X398508Y145702D01*
X398495Y145802D01*
X398477Y145901D01*
X398456Y146000D01*
X398431Y146097D01*
X398402Y146194D01*
X398369Y146289D01*
X398333Y146383D01*
X398293Y146475D01*
X398250Y146566D01*
X398203Y146655D01*
X398153Y146742D01*
X398099Y146828D01*
X398042Y146911D01*
X397982Y146991D01*
X397919Y147070D01*
X397852Y147146D01*
X397783Y147219D01*
X397711Y147289D01*
X397637Y147357D01*
X397560Y147422D01*
X397480Y147483D01*
X397398Y147542D01*
X397314Y147597D01*
X397228Y147649D01*
X397140Y147698D01*
X397050Y147743D01*
X396958Y147785D01*
X396865Y147823D01*
X396770Y147857D01*
X396675Y147888D01*
X396578Y147915D01*
X396480Y147938D01*
X396381Y147958D01*
X396281Y147973D01*
X396181Y147985D01*
X396081Y147993D01*
X395980Y147997D01*
X395880Y147997D01*
X395779Y147993D01*
X395679Y147985D01*
X395579Y147973D01*
X395479Y147958D01*
X395380Y147938D01*
X395282Y147915D01*
X395185Y147888D01*
X395090Y147857D01*
X394995Y147823D01*
X394902Y147785D01*
X394810Y147743D01*
X394720Y147698D01*
X394632Y147649D01*
X394546Y147597D01*
X394462Y147542D01*
X394380Y147483D01*
X394300Y147422D01*
X394223Y147357D01*
X394149Y147289D01*
X394077Y147219D01*
X394008Y147146D01*
X393941Y147070D01*
X393878Y146991D01*
X393818Y146911D01*
X393761Y146828D01*
X393707Y146742D01*
X393657Y146655D01*
X393610Y146566D01*
X393567Y146475D01*
X393527Y146383D01*
X393491Y146289D01*
X393458Y146194D01*
X393429Y146097D01*
X393404Y146000D01*
X393383Y145901D01*
X393365Y145802D01*
X393352Y145702D01*
X393342Y145602D01*
X393336Y145502D01*
X393334Y145401D01*
X393333Y145401D02*
X393333Y142804D01*
X393334Y142804D02*
X393336Y142703D01*
X393342Y142603D01*
X393352Y142503D01*
X393365Y142403D01*
X393383Y142304D01*
X393404Y142205D01*
X393429Y142108D01*
X393458Y142011D01*
X393491Y141916D01*
X393527Y141822D01*
X393567Y141730D01*
X393610Y141639D01*
X393657Y141550D01*
X393707Y141463D01*
X393761Y141377D01*
X393818Y141294D01*
X393878Y141214D01*
X393941Y141135D01*
X394008Y141059D01*
X394077Y140986D01*
X394149Y140916D01*
X394223Y140848D01*
X394300Y140783D01*
X394380Y140722D01*
X394462Y140663D01*
X394546Y140608D01*
X394632Y140556D01*
X394720Y140507D01*
X394810Y140462D01*
X394902Y140420D01*
X394995Y140382D01*
X395090Y140348D01*
X395185Y140317D01*
X395282Y140290D01*
X395380Y140267D01*
X395479Y140247D01*
X395579Y140232D01*
X395679Y140220D01*
X395779Y140212D01*
X395880Y140208D01*
X395980Y140208D01*
X396081Y140212D01*
X396181Y140220D01*
X396281Y140232D01*
X396381Y140247D01*
X396480Y140267D01*
X396578Y140290D01*
X396675Y140317D01*
X396770Y140348D01*
X396865Y140382D01*
X396958Y140420D01*
X397050Y140462D01*
X397140Y140507D01*
X397228Y140556D01*
X397314Y140608D01*
X397398Y140663D01*
X397480Y140722D01*
X397560Y140783D01*
X397637Y140848D01*
X397711Y140916D01*
X397783Y140986D01*
X397852Y141059D01*
X397919Y141135D01*
X397982Y141214D01*
X398042Y141294D01*
X398099Y141377D01*
X398153Y141463D01*
X398203Y141550D01*
X398250Y141639D01*
X398293Y141730D01*
X398333Y141822D01*
X398369Y141916D01*
X398402Y142011D01*
X398431Y142108D01*
X398456Y142205D01*
X398477Y142304D01*
X398495Y142403D01*
X398508Y142503D01*
X398518Y142603D01*
X398524Y142703D01*
X398526Y142804D01*
X388239Y142155D02*
X388239Y147997D01*
X388239Y142155D02*
X388237Y142068D01*
X388231Y141980D01*
X388221Y141894D01*
X388208Y141807D01*
X388190Y141722D01*
X388169Y141637D01*
X388144Y141553D01*
X388115Y141471D01*
X388082Y141390D01*
X388046Y141310D01*
X388007Y141232D01*
X387963Y141156D01*
X387917Y141082D01*
X387867Y141011D01*
X387814Y140941D01*
X387758Y140874D01*
X387699Y140810D01*
X387637Y140748D01*
X387573Y140689D01*
X387506Y140633D01*
X387436Y140580D01*
X387365Y140530D01*
X387291Y140484D01*
X387215Y140440D01*
X387137Y140401D01*
X387057Y140365D01*
X386976Y140332D01*
X386894Y140303D01*
X386810Y140278D01*
X386725Y140257D01*
X386640Y140239D01*
X386553Y140226D01*
X386467Y140216D01*
X386379Y140210D01*
X386292Y140208D01*
X383046Y140208D01*
X383046Y147997D01*
X378919Y147997D02*
X375025Y147997D01*
X377621Y151892D02*
X377621Y142155D01*
X377619Y142068D01*
X377613Y141980D01*
X377603Y141894D01*
X377590Y141807D01*
X377572Y141722D01*
X377551Y141637D01*
X377526Y141553D01*
X377497Y141471D01*
X377464Y141390D01*
X377428Y141310D01*
X377389Y141232D01*
X377345Y141156D01*
X377299Y141082D01*
X377249Y141011D01*
X377196Y140941D01*
X377140Y140874D01*
X377081Y140810D01*
X377019Y140748D01*
X376955Y140689D01*
X376888Y140633D01*
X376818Y140580D01*
X376747Y140530D01*
X376673Y140484D01*
X376597Y140440D01*
X376519Y140401D01*
X376439Y140365D01*
X376358Y140332D01*
X376276Y140303D01*
X376192Y140278D01*
X376107Y140257D01*
X376022Y140239D01*
X375935Y140226D01*
X375849Y140216D01*
X375761Y140210D01*
X375674Y140208D01*
X375025Y140208D01*
X370332Y142155D02*
X370332Y147997D01*
X370332Y142155D02*
X370330Y142068D01*
X370324Y141980D01*
X370314Y141894D01*
X370301Y141807D01*
X370283Y141722D01*
X370262Y141637D01*
X370237Y141553D01*
X370208Y141471D01*
X370175Y141390D01*
X370139Y141310D01*
X370100Y141232D01*
X370056Y141156D01*
X370010Y141082D01*
X369960Y141011D01*
X369907Y140941D01*
X369851Y140874D01*
X369792Y140810D01*
X369730Y140748D01*
X369666Y140689D01*
X369599Y140633D01*
X369529Y140580D01*
X369458Y140530D01*
X369384Y140484D01*
X369308Y140440D01*
X369230Y140401D01*
X369150Y140365D01*
X369069Y140332D01*
X368987Y140303D01*
X368903Y140278D01*
X368818Y140257D01*
X368733Y140239D01*
X368646Y140226D01*
X368560Y140216D01*
X368472Y140210D01*
X368385Y140208D01*
X365139Y140208D01*
X365139Y147997D01*
X359605Y151892D02*
X359605Y140208D01*
X356360Y140208D01*
X356273Y140210D01*
X356185Y140216D01*
X356099Y140226D01*
X356012Y140239D01*
X355927Y140257D01*
X355842Y140278D01*
X355758Y140303D01*
X355676Y140332D01*
X355595Y140365D01*
X355515Y140401D01*
X355437Y140440D01*
X355361Y140484D01*
X355287Y140530D01*
X355216Y140580D01*
X355146Y140633D01*
X355079Y140689D01*
X355015Y140748D01*
X354953Y140809D01*
X354894Y140874D01*
X354838Y140941D01*
X354785Y141011D01*
X354735Y141082D01*
X354689Y141156D01*
X354646Y141232D01*
X354606Y141310D01*
X354570Y141390D01*
X354537Y141471D01*
X354508Y141553D01*
X354483Y141637D01*
X354462Y141722D01*
X354444Y141807D01*
X354431Y141894D01*
X354421Y141980D01*
X354415Y142068D01*
X354413Y142155D01*
X354412Y142155D02*
X354412Y146050D01*
X354413Y146050D02*
X354415Y146137D01*
X354421Y146225D01*
X354431Y146311D01*
X354444Y146398D01*
X354462Y146483D01*
X354483Y146568D01*
X354508Y146652D01*
X354537Y146734D01*
X354570Y146815D01*
X354606Y146895D01*
X354645Y146973D01*
X354689Y147049D01*
X354735Y147123D01*
X354785Y147194D01*
X354838Y147264D01*
X354894Y147331D01*
X354953Y147396D01*
X355015Y147457D01*
X355079Y147516D01*
X355146Y147572D01*
X355216Y147625D01*
X355287Y147675D01*
X355361Y147721D01*
X355437Y147765D01*
X355515Y147804D01*
X355595Y147840D01*
X355676Y147873D01*
X355758Y147902D01*
X355842Y147927D01*
X355927Y147948D01*
X356012Y147966D01*
X356099Y147979D01*
X356186Y147989D01*
X356273Y147995D01*
X356360Y147997D01*
X359605Y147997D01*
X347811Y140208D02*
X344565Y140208D01*
X347811Y140208D02*
X347898Y140210D01*
X347986Y140216D01*
X348072Y140226D01*
X348159Y140239D01*
X348244Y140257D01*
X348329Y140278D01*
X348413Y140303D01*
X348495Y140332D01*
X348576Y140365D01*
X348656Y140401D01*
X348734Y140440D01*
X348810Y140484D01*
X348884Y140530D01*
X348955Y140580D01*
X349025Y140633D01*
X349092Y140689D01*
X349156Y140748D01*
X349218Y140810D01*
X349277Y140874D01*
X349333Y140941D01*
X349386Y141011D01*
X349436Y141082D01*
X349482Y141156D01*
X349526Y141232D01*
X349565Y141310D01*
X349601Y141390D01*
X349634Y141471D01*
X349663Y141553D01*
X349688Y141637D01*
X349709Y141722D01*
X349727Y141807D01*
X349740Y141894D01*
X349750Y141980D01*
X349756Y142068D01*
X349758Y142155D01*
X349758Y145401D01*
X349756Y145502D01*
X349750Y145602D01*
X349740Y145702D01*
X349727Y145802D01*
X349709Y145901D01*
X349688Y146000D01*
X349663Y146097D01*
X349634Y146194D01*
X349601Y146289D01*
X349565Y146383D01*
X349525Y146475D01*
X349482Y146566D01*
X349435Y146655D01*
X349385Y146742D01*
X349331Y146828D01*
X349274Y146911D01*
X349214Y146991D01*
X349151Y147070D01*
X349084Y147146D01*
X349015Y147219D01*
X348943Y147289D01*
X348869Y147357D01*
X348792Y147422D01*
X348712Y147483D01*
X348630Y147542D01*
X348546Y147597D01*
X348460Y147649D01*
X348372Y147698D01*
X348282Y147743D01*
X348190Y147785D01*
X348097Y147823D01*
X348002Y147857D01*
X347907Y147888D01*
X347810Y147915D01*
X347712Y147938D01*
X347613Y147958D01*
X347513Y147973D01*
X347413Y147985D01*
X347313Y147993D01*
X347212Y147997D01*
X347112Y147997D01*
X347011Y147993D01*
X346911Y147985D01*
X346811Y147973D01*
X346711Y147958D01*
X346612Y147938D01*
X346514Y147915D01*
X346417Y147888D01*
X346322Y147857D01*
X346227Y147823D01*
X346134Y147785D01*
X346042Y147743D01*
X345952Y147698D01*
X345864Y147649D01*
X345778Y147597D01*
X345694Y147542D01*
X345612Y147483D01*
X345532Y147422D01*
X345455Y147357D01*
X345381Y147289D01*
X345309Y147219D01*
X345240Y147146D01*
X345173Y147070D01*
X345110Y146991D01*
X345050Y146911D01*
X344993Y146828D01*
X344939Y146742D01*
X344889Y146655D01*
X344842Y146566D01*
X344799Y146475D01*
X344759Y146383D01*
X344723Y146289D01*
X344690Y146194D01*
X344661Y146097D01*
X344636Y146000D01*
X344615Y145901D01*
X344597Y145802D01*
X344584Y145702D01*
X344574Y145602D01*
X344568Y145502D01*
X344566Y145401D01*
X344565Y145401D02*
X344565Y144103D01*
X349758Y144103D01*
X340247Y140857D02*
X340247Y140208D01*
X340247Y140857D02*
X339598Y140857D01*
X339598Y140208D01*
X340247Y140208D01*
X333320Y140208D02*
X330723Y140208D01*
X333320Y140208D02*
X333407Y140210D01*
X333495Y140216D01*
X333581Y140226D01*
X333668Y140239D01*
X333753Y140257D01*
X333838Y140278D01*
X333922Y140303D01*
X334004Y140332D01*
X334085Y140365D01*
X334165Y140401D01*
X334243Y140440D01*
X334319Y140484D01*
X334393Y140530D01*
X334464Y140580D01*
X334534Y140633D01*
X334601Y140689D01*
X334665Y140748D01*
X334727Y140810D01*
X334786Y140874D01*
X334842Y140941D01*
X334895Y141011D01*
X334945Y141082D01*
X334991Y141156D01*
X335035Y141232D01*
X335074Y141310D01*
X335110Y141390D01*
X335143Y141471D01*
X335172Y141553D01*
X335197Y141637D01*
X335218Y141722D01*
X335236Y141807D01*
X335249Y141894D01*
X335259Y141980D01*
X335265Y142068D01*
X335267Y142155D01*
X335267Y146050D01*
X335265Y146137D01*
X335259Y146225D01*
X335249Y146311D01*
X335236Y146398D01*
X335218Y146483D01*
X335197Y146568D01*
X335172Y146652D01*
X335143Y146734D01*
X335110Y146815D01*
X335074Y146895D01*
X335035Y146973D01*
X334991Y147049D01*
X334945Y147123D01*
X334895Y147194D01*
X334842Y147264D01*
X334786Y147331D01*
X334727Y147395D01*
X334665Y147457D01*
X334601Y147516D01*
X334534Y147572D01*
X334464Y147625D01*
X334393Y147675D01*
X334319Y147721D01*
X334243Y147765D01*
X334165Y147804D01*
X334085Y147840D01*
X334004Y147873D01*
X333922Y147902D01*
X333838Y147927D01*
X333753Y147948D01*
X333668Y147966D01*
X333581Y147979D01*
X333495Y147989D01*
X333407Y147995D01*
X333320Y147997D01*
X330723Y147997D01*
X326517Y145401D02*
X326517Y142804D01*
X326517Y145401D02*
X326515Y145502D01*
X326509Y145602D01*
X326499Y145702D01*
X326486Y145802D01*
X326468Y145901D01*
X326447Y146000D01*
X326422Y146097D01*
X326393Y146194D01*
X326360Y146289D01*
X326324Y146383D01*
X326284Y146475D01*
X326241Y146566D01*
X326194Y146655D01*
X326144Y146742D01*
X326090Y146828D01*
X326033Y146911D01*
X325973Y146991D01*
X325910Y147070D01*
X325843Y147146D01*
X325774Y147219D01*
X325702Y147289D01*
X325628Y147357D01*
X325551Y147422D01*
X325471Y147483D01*
X325389Y147542D01*
X325305Y147597D01*
X325219Y147649D01*
X325131Y147698D01*
X325041Y147743D01*
X324949Y147785D01*
X324856Y147823D01*
X324761Y147857D01*
X324666Y147888D01*
X324569Y147915D01*
X324471Y147938D01*
X324372Y147958D01*
X324272Y147973D01*
X324172Y147985D01*
X324072Y147993D01*
X323971Y147997D01*
X323871Y147997D01*
X323770Y147993D01*
X323670Y147985D01*
X323570Y147973D01*
X323470Y147958D01*
X323371Y147938D01*
X323273Y147915D01*
X323176Y147888D01*
X323081Y147857D01*
X322986Y147823D01*
X322893Y147785D01*
X322801Y147743D01*
X322711Y147698D01*
X322623Y147649D01*
X322537Y147597D01*
X322453Y147542D01*
X322371Y147483D01*
X322291Y147422D01*
X322214Y147357D01*
X322140Y147289D01*
X322068Y147219D01*
X321999Y147146D01*
X321932Y147070D01*
X321869Y146991D01*
X321809Y146911D01*
X321752Y146828D01*
X321698Y146742D01*
X321648Y146655D01*
X321601Y146566D01*
X321558Y146475D01*
X321518Y146383D01*
X321482Y146289D01*
X321449Y146194D01*
X321420Y146097D01*
X321395Y146000D01*
X321374Y145901D01*
X321356Y145802D01*
X321343Y145702D01*
X321333Y145602D01*
X321327Y145502D01*
X321325Y145401D01*
X321324Y145401D02*
X321324Y142804D01*
X321325Y142804D02*
X321327Y142703D01*
X321333Y142603D01*
X321343Y142503D01*
X321356Y142403D01*
X321374Y142304D01*
X321395Y142205D01*
X321420Y142108D01*
X321449Y142011D01*
X321482Y141916D01*
X321518Y141822D01*
X321558Y141730D01*
X321601Y141639D01*
X321648Y141550D01*
X321698Y141463D01*
X321752Y141377D01*
X321809Y141294D01*
X321869Y141214D01*
X321932Y141135D01*
X321999Y141059D01*
X322068Y140986D01*
X322140Y140916D01*
X322214Y140848D01*
X322291Y140783D01*
X322371Y140722D01*
X322453Y140663D01*
X322537Y140608D01*
X322623Y140556D01*
X322711Y140507D01*
X322801Y140462D01*
X322893Y140420D01*
X322986Y140382D01*
X323081Y140348D01*
X323176Y140317D01*
X323273Y140290D01*
X323371Y140267D01*
X323470Y140247D01*
X323570Y140232D01*
X323670Y140220D01*
X323770Y140212D01*
X323871Y140208D01*
X323971Y140208D01*
X324072Y140212D01*
X324172Y140220D01*
X324272Y140232D01*
X324372Y140247D01*
X324471Y140267D01*
X324569Y140290D01*
X324666Y140317D01*
X324761Y140348D01*
X324856Y140382D01*
X324949Y140420D01*
X325041Y140462D01*
X325131Y140507D01*
X325219Y140556D01*
X325305Y140608D01*
X325389Y140663D01*
X325471Y140722D01*
X325551Y140783D01*
X325628Y140848D01*
X325702Y140916D01*
X325774Y140986D01*
X325843Y141059D01*
X325910Y141135D01*
X325973Y141214D01*
X326033Y141294D01*
X326090Y141377D01*
X326144Y141463D01*
X326194Y141550D01*
X326241Y141639D01*
X326284Y141730D01*
X326324Y141822D01*
X326360Y141916D01*
X326393Y142011D01*
X326422Y142108D01*
X326447Y142205D01*
X326468Y142304D01*
X326486Y142403D01*
X326499Y142503D01*
X326509Y142603D01*
X326515Y142703D01*
X326517Y142804D01*
X316005Y140208D02*
X316005Y147997D01*
X310163Y147997D01*
X310076Y147995D01*
X309988Y147989D01*
X309902Y147979D01*
X309815Y147966D01*
X309730Y147948D01*
X309645Y147927D01*
X309561Y147902D01*
X309479Y147873D01*
X309398Y147840D01*
X309318Y147804D01*
X309240Y147765D01*
X309164Y147721D01*
X309090Y147675D01*
X309019Y147625D01*
X308949Y147572D01*
X308882Y147516D01*
X308818Y147457D01*
X308756Y147395D01*
X308697Y147331D01*
X308641Y147264D01*
X308588Y147194D01*
X308538Y147123D01*
X308492Y147049D01*
X308448Y146973D01*
X308409Y146895D01*
X308373Y146815D01*
X308340Y146734D01*
X308311Y146652D01*
X308286Y146568D01*
X308265Y146483D01*
X308247Y146398D01*
X308234Y146311D01*
X308224Y146225D01*
X308218Y146137D01*
X308216Y146050D01*
X308215Y146050D02*
X308215Y140208D01*
X312110Y140208D02*
X312110Y147997D01*
X303276Y138910D02*
X298083Y153190D01*
X291791Y140208D02*
X289194Y140208D01*
X291791Y140208D02*
X291878Y140210D01*
X291966Y140216D01*
X292052Y140226D01*
X292139Y140239D01*
X292224Y140257D01*
X292309Y140278D01*
X292393Y140303D01*
X292475Y140332D01*
X292556Y140365D01*
X292636Y140401D01*
X292714Y140440D01*
X292790Y140484D01*
X292864Y140530D01*
X292935Y140580D01*
X293005Y140633D01*
X293072Y140689D01*
X293136Y140748D01*
X293198Y140810D01*
X293257Y140874D01*
X293313Y140941D01*
X293366Y141011D01*
X293416Y141082D01*
X293462Y141156D01*
X293506Y141232D01*
X293545Y141310D01*
X293581Y141390D01*
X293614Y141471D01*
X293643Y141553D01*
X293668Y141637D01*
X293689Y141722D01*
X293707Y141807D01*
X293720Y141894D01*
X293730Y141980D01*
X293736Y142068D01*
X293738Y142155D01*
X293738Y146050D01*
X293736Y146137D01*
X293730Y146225D01*
X293720Y146311D01*
X293707Y146398D01*
X293689Y146483D01*
X293668Y146568D01*
X293643Y146652D01*
X293614Y146734D01*
X293581Y146815D01*
X293545Y146895D01*
X293506Y146973D01*
X293462Y147049D01*
X293416Y147123D01*
X293366Y147194D01*
X293313Y147264D01*
X293257Y147331D01*
X293198Y147395D01*
X293136Y147457D01*
X293072Y147516D01*
X293005Y147572D01*
X292935Y147625D01*
X292864Y147675D01*
X292790Y147721D01*
X292714Y147765D01*
X292636Y147804D01*
X292556Y147840D01*
X292475Y147873D01*
X292393Y147902D01*
X292309Y147927D01*
X292224Y147948D01*
X292139Y147966D01*
X292052Y147979D01*
X291966Y147989D01*
X291878Y147995D01*
X291791Y147997D01*
X289194Y147997D01*
X285369Y138910D02*
X280176Y153190D01*
X275181Y146699D02*
X271936Y146699D01*
X271936Y146700D02*
X271823Y146698D01*
X271710Y146692D01*
X271597Y146682D01*
X271484Y146668D01*
X271372Y146651D01*
X271261Y146629D01*
X271151Y146604D01*
X271041Y146574D01*
X270933Y146541D01*
X270826Y146504D01*
X270720Y146464D01*
X270616Y146419D01*
X270513Y146371D01*
X270412Y146320D01*
X270313Y146265D01*
X270216Y146207D01*
X270121Y146145D01*
X270028Y146080D01*
X269938Y146012D01*
X269850Y145941D01*
X269764Y145866D01*
X269681Y145789D01*
X269601Y145709D01*
X269524Y145626D01*
X269449Y145540D01*
X269378Y145452D01*
X269310Y145362D01*
X269245Y145269D01*
X269183Y145174D01*
X269125Y145077D01*
X269070Y144978D01*
X269019Y144877D01*
X268971Y144774D01*
X268926Y144670D01*
X268886Y144564D01*
X268849Y144457D01*
X268816Y144349D01*
X268786Y144239D01*
X268761Y144129D01*
X268739Y144018D01*
X268722Y143906D01*
X268708Y143793D01*
X268698Y143680D01*
X268692Y143567D01*
X268690Y143454D01*
X268692Y143341D01*
X268698Y143228D01*
X268708Y143115D01*
X268722Y143002D01*
X268739Y142890D01*
X268761Y142779D01*
X268786Y142669D01*
X268816Y142559D01*
X268849Y142451D01*
X268886Y142344D01*
X268926Y142238D01*
X268971Y142134D01*
X269019Y142031D01*
X269070Y141930D01*
X269125Y141831D01*
X269183Y141734D01*
X269245Y141639D01*
X269310Y141546D01*
X269378Y141456D01*
X269449Y141368D01*
X269524Y141282D01*
X269601Y141199D01*
X269681Y141119D01*
X269764Y141042D01*
X269850Y140967D01*
X269938Y140896D01*
X270028Y140828D01*
X270121Y140763D01*
X270216Y140701D01*
X270313Y140643D01*
X270412Y140588D01*
X270513Y140537D01*
X270616Y140489D01*
X270720Y140444D01*
X270826Y140404D01*
X270933Y140367D01*
X271041Y140334D01*
X271151Y140304D01*
X271261Y140279D01*
X271372Y140257D01*
X271484Y140240D01*
X271597Y140226D01*
X271710Y140216D01*
X271823Y140210D01*
X271936Y140208D01*
X275181Y140208D01*
X275181Y151892D01*
X271936Y151892D01*
X271835Y151890D01*
X271735Y151884D01*
X271635Y151874D01*
X271535Y151861D01*
X271436Y151843D01*
X271337Y151822D01*
X271240Y151797D01*
X271143Y151768D01*
X271048Y151735D01*
X270954Y151699D01*
X270862Y151659D01*
X270771Y151616D01*
X270682Y151569D01*
X270595Y151519D01*
X270509Y151465D01*
X270426Y151408D01*
X270346Y151348D01*
X270267Y151285D01*
X270191Y151218D01*
X270118Y151149D01*
X270048Y151077D01*
X269980Y151003D01*
X269915Y150926D01*
X269854Y150846D01*
X269795Y150764D01*
X269740Y150680D01*
X269688Y150594D01*
X269639Y150506D01*
X269594Y150416D01*
X269552Y150324D01*
X269514Y150231D01*
X269480Y150136D01*
X269449Y150041D01*
X269422Y149944D01*
X269399Y149846D01*
X269379Y149747D01*
X269364Y149647D01*
X269352Y149547D01*
X269344Y149447D01*
X269340Y149346D01*
X269340Y149246D01*
X269344Y149145D01*
X269352Y149045D01*
X269364Y148945D01*
X269379Y148845D01*
X269399Y148746D01*
X269422Y148648D01*
X269449Y148551D01*
X269480Y148456D01*
X269514Y148361D01*
X269552Y148268D01*
X269594Y148176D01*
X269639Y148086D01*
X269688Y147998D01*
X269740Y147912D01*
X269795Y147828D01*
X269854Y147746D01*
X269915Y147666D01*
X269980Y147589D01*
X270048Y147515D01*
X270118Y147443D01*
X270191Y147374D01*
X270267Y147307D01*
X270346Y147244D01*
X270426Y147184D01*
X270509Y147127D01*
X270595Y147073D01*
X270682Y147023D01*
X270771Y146976D01*
X270862Y146933D01*
X270954Y146893D01*
X271048Y146857D01*
X271143Y146824D01*
X271240Y146795D01*
X271337Y146770D01*
X271436Y146749D01*
X271535Y146731D01*
X271635Y146718D01*
X271735Y146708D01*
X271835Y146702D01*
X271936Y146700D01*
X263751Y151892D02*
X263751Y140208D01*
X263751Y144752D02*
X257260Y151892D01*
X261155Y147348D02*
X257260Y140208D01*
X252491Y140208D02*
X252491Y151892D01*
X252491Y146699D02*
X245999Y146699D01*
X245999Y151892D02*
X245999Y140208D01*
X240792Y142804D02*
X240792Y145401D01*
X240790Y145502D01*
X240784Y145602D01*
X240774Y145702D01*
X240761Y145802D01*
X240743Y145901D01*
X240722Y146000D01*
X240697Y146097D01*
X240668Y146194D01*
X240635Y146289D01*
X240599Y146383D01*
X240559Y146475D01*
X240516Y146566D01*
X240469Y146655D01*
X240419Y146742D01*
X240365Y146828D01*
X240308Y146911D01*
X240248Y146991D01*
X240185Y147070D01*
X240118Y147146D01*
X240049Y147219D01*
X239977Y147289D01*
X239903Y147357D01*
X239826Y147422D01*
X239746Y147483D01*
X239664Y147542D01*
X239580Y147597D01*
X239494Y147649D01*
X239406Y147698D01*
X239316Y147743D01*
X239224Y147785D01*
X239131Y147823D01*
X239036Y147857D01*
X238941Y147888D01*
X238844Y147915D01*
X238746Y147938D01*
X238647Y147958D01*
X238547Y147973D01*
X238447Y147985D01*
X238347Y147993D01*
X238246Y147997D01*
X238146Y147997D01*
X238045Y147993D01*
X237945Y147985D01*
X237845Y147973D01*
X237745Y147958D01*
X237646Y147938D01*
X237548Y147915D01*
X237451Y147888D01*
X237356Y147857D01*
X237261Y147823D01*
X237168Y147785D01*
X237076Y147743D01*
X236986Y147698D01*
X236898Y147649D01*
X236812Y147597D01*
X236728Y147542D01*
X236646Y147483D01*
X236566Y147422D01*
X236489Y147357D01*
X236415Y147289D01*
X236343Y147219D01*
X236274Y147146D01*
X236207Y147070D01*
X236144Y146991D01*
X236084Y146911D01*
X236027Y146828D01*
X235973Y146742D01*
X235923Y146655D01*
X235876Y146566D01*
X235833Y146475D01*
X235793Y146383D01*
X235757Y146289D01*
X235724Y146194D01*
X235695Y146097D01*
X235670Y146000D01*
X235649Y145901D01*
X235631Y145802D01*
X235618Y145702D01*
X235608Y145602D01*
X235602Y145502D01*
X235600Y145401D01*
X235600Y142804D01*
X235602Y142703D01*
X235608Y142603D01*
X235618Y142503D01*
X235631Y142403D01*
X235649Y142304D01*
X235670Y142205D01*
X235695Y142108D01*
X235724Y142011D01*
X235757Y141916D01*
X235793Y141822D01*
X235833Y141730D01*
X235876Y141639D01*
X235923Y141550D01*
X235973Y141463D01*
X236027Y141377D01*
X236084Y141294D01*
X236144Y141214D01*
X236207Y141135D01*
X236274Y141059D01*
X236343Y140986D01*
X236415Y140916D01*
X236489Y140848D01*
X236566Y140783D01*
X236646Y140722D01*
X236728Y140663D01*
X236812Y140608D01*
X236898Y140556D01*
X236986Y140507D01*
X237076Y140462D01*
X237168Y140420D01*
X237261Y140382D01*
X237356Y140348D01*
X237451Y140317D01*
X237548Y140290D01*
X237646Y140267D01*
X237745Y140247D01*
X237845Y140232D01*
X237945Y140220D01*
X238045Y140212D01*
X238146Y140208D01*
X238246Y140208D01*
X238347Y140212D01*
X238447Y140220D01*
X238547Y140232D01*
X238647Y140247D01*
X238746Y140267D01*
X238844Y140290D01*
X238941Y140317D01*
X239036Y140348D01*
X239131Y140382D01*
X239224Y140420D01*
X239316Y140462D01*
X239406Y140507D01*
X239494Y140556D01*
X239580Y140608D01*
X239664Y140663D01*
X239746Y140722D01*
X239826Y140783D01*
X239903Y140848D01*
X239977Y140916D01*
X240049Y140986D01*
X240118Y141059D01*
X240185Y141135D01*
X240248Y141214D01*
X240308Y141294D01*
X240365Y141377D01*
X240419Y141463D01*
X240469Y141550D01*
X240516Y141639D01*
X240559Y141730D01*
X240599Y141822D01*
X240635Y141916D01*
X240668Y142011D01*
X240697Y142108D01*
X240722Y142205D01*
X240743Y142304D01*
X240761Y142403D01*
X240774Y142503D01*
X240784Y142603D01*
X240790Y142703D01*
X240792Y142804D01*
X230447Y140208D02*
X230447Y151892D01*
X230447Y140208D02*
X227201Y140208D01*
X227114Y140210D01*
X227026Y140216D01*
X226940Y140226D01*
X226853Y140239D01*
X226768Y140257D01*
X226683Y140278D01*
X226599Y140303D01*
X226517Y140332D01*
X226436Y140365D01*
X226356Y140401D01*
X226278Y140440D01*
X226202Y140484D01*
X226128Y140530D01*
X226057Y140580D01*
X225987Y140633D01*
X225920Y140689D01*
X225856Y140748D01*
X225794Y140809D01*
X225735Y140874D01*
X225679Y140941D01*
X225626Y141011D01*
X225576Y141082D01*
X225530Y141156D01*
X225487Y141232D01*
X225447Y141310D01*
X225411Y141390D01*
X225378Y141471D01*
X225349Y141553D01*
X225324Y141637D01*
X225303Y141722D01*
X225285Y141807D01*
X225272Y141894D01*
X225262Y141980D01*
X225256Y142068D01*
X225254Y142155D01*
X225254Y146050D01*
X225256Y146137D01*
X225262Y146225D01*
X225272Y146311D01*
X225285Y146398D01*
X225303Y146483D01*
X225324Y146568D01*
X225349Y146652D01*
X225378Y146734D01*
X225411Y146815D01*
X225447Y146895D01*
X225486Y146973D01*
X225530Y147049D01*
X225576Y147123D01*
X225626Y147194D01*
X225679Y147264D01*
X225735Y147331D01*
X225794Y147396D01*
X225856Y147457D01*
X225920Y147516D01*
X225987Y147572D01*
X226057Y147625D01*
X226128Y147675D01*
X226202Y147721D01*
X226278Y147765D01*
X226356Y147804D01*
X226436Y147840D01*
X226517Y147873D01*
X226599Y147902D01*
X226683Y147927D01*
X226768Y147948D01*
X226853Y147966D01*
X226940Y147979D01*
X227027Y147989D01*
X227114Y147995D01*
X227201Y147997D01*
X230447Y147997D01*
X220160Y151892D02*
X220160Y140208D01*
X216914Y140208D01*
X216827Y140210D01*
X216739Y140216D01*
X216653Y140226D01*
X216566Y140239D01*
X216481Y140257D01*
X216396Y140278D01*
X216312Y140303D01*
X216230Y140332D01*
X216149Y140365D01*
X216069Y140401D01*
X215991Y140440D01*
X215915Y140484D01*
X215841Y140530D01*
X215770Y140580D01*
X215700Y140633D01*
X215633Y140689D01*
X215569Y140748D01*
X215507Y140809D01*
X215448Y140874D01*
X215392Y140941D01*
X215339Y141011D01*
X215289Y141082D01*
X215243Y141156D01*
X215200Y141232D01*
X215160Y141310D01*
X215124Y141390D01*
X215091Y141471D01*
X215062Y141553D01*
X215037Y141637D01*
X215016Y141722D01*
X214998Y141807D01*
X214985Y141894D01*
X214975Y141980D01*
X214969Y142068D01*
X214967Y142155D01*
X214967Y146050D01*
X214969Y146137D01*
X214975Y146225D01*
X214985Y146311D01*
X214998Y146398D01*
X215016Y146483D01*
X215037Y146568D01*
X215062Y146652D01*
X215091Y146734D01*
X215124Y146815D01*
X215160Y146895D01*
X215199Y146973D01*
X215243Y147049D01*
X215289Y147123D01*
X215339Y147194D01*
X215392Y147264D01*
X215448Y147331D01*
X215507Y147396D01*
X215569Y147457D01*
X215633Y147516D01*
X215700Y147572D01*
X215770Y147625D01*
X215841Y147675D01*
X215915Y147721D01*
X215991Y147765D01*
X216069Y147804D01*
X216149Y147840D01*
X216230Y147873D01*
X216312Y147902D01*
X216396Y147927D01*
X216481Y147948D01*
X216566Y147966D01*
X216653Y147979D01*
X216740Y147989D01*
X216827Y147995D01*
X216914Y147997D01*
X220160Y147997D01*
X210693Y136313D02*
X209395Y136313D01*
X205501Y147997D01*
X210693Y147997D02*
X208097Y140208D01*
M02*
