G04 EAGLE Gerber RS-274X export*
G75*
%MOMM*%
%FSLAX34Y34*%
%LPD*%
%INSoldermask Bottom*%
%IPPOS*%
%AMOC8*
5,1,8,0,0,1.08239X$1,22.5*%
G01*
%ADD10C,2.203200*%
%ADD11C,1.727200*%
%ADD12C,1.524000*%
%ADD13C,2.003200*%
%ADD14C,0.959600*%


D10*
X577850Y628650D03*
X182316Y117203D03*
D11*
X266700Y551180D02*
X266700Y566420D01*
X292100Y566420D02*
X292100Y551180D01*
X317500Y551180D02*
X317500Y566420D01*
X355600Y566420D02*
X355600Y551180D01*
X381000Y551180D02*
X381000Y566420D01*
X406400Y566420D02*
X406400Y551180D01*
X444500Y551180D02*
X444500Y566420D01*
X469900Y566420D02*
X469900Y551180D01*
X495300Y551180D02*
X495300Y566420D01*
D12*
X203200Y602996D02*
X203200Y616204D01*
X228600Y616204D02*
X228600Y602996D01*
X254000Y602996D02*
X254000Y616204D01*
X279400Y616204D02*
X279400Y602996D01*
X304800Y602996D02*
X304800Y616204D01*
X330200Y616204D02*
X330200Y602996D01*
X361696Y444500D02*
X374904Y444500D01*
X374904Y419100D02*
X361696Y419100D01*
X361696Y393700D02*
X374904Y393700D01*
X374904Y368300D02*
X361696Y368300D01*
X361696Y342900D02*
X374904Y342900D01*
X374904Y317500D02*
X361696Y317500D01*
X361696Y292100D02*
X374904Y292100D01*
X374904Y266700D02*
X361696Y266700D01*
X361696Y241300D02*
X374904Y241300D01*
X374904Y215900D02*
X361696Y215900D01*
X260604Y495300D02*
X247396Y495300D01*
X247396Y469900D02*
X260604Y469900D01*
X260604Y444500D02*
X247396Y444500D01*
X247396Y419100D02*
X260604Y419100D01*
X260604Y393700D02*
X247396Y393700D01*
X247396Y368300D02*
X260604Y368300D01*
X260604Y342900D02*
X247396Y342900D01*
X247396Y317500D02*
X260604Y317500D01*
X260604Y292100D02*
X247396Y292100D01*
X247396Y266700D02*
X260604Y266700D01*
X260604Y241300D02*
X247396Y241300D01*
X247396Y215900D02*
X260604Y215900D01*
X260604Y190500D02*
X247396Y190500D01*
X247396Y165100D02*
X260604Y165100D01*
X323596Y165100D02*
X336804Y165100D01*
X336804Y190500D02*
X323596Y190500D01*
X323596Y215900D02*
X336804Y215900D01*
X336804Y241300D02*
X323596Y241300D01*
X323596Y266700D02*
X336804Y266700D01*
X336804Y292100D02*
X323596Y292100D01*
X323596Y317500D02*
X336804Y317500D01*
X336804Y342900D02*
X323596Y342900D01*
X323596Y368300D02*
X336804Y368300D01*
X336804Y393700D02*
X323596Y393700D01*
X323596Y419100D02*
X336804Y419100D01*
X336804Y444500D02*
X323596Y444500D01*
X323596Y469900D02*
X336804Y469900D01*
X336804Y495300D02*
X323596Y495300D01*
D13*
X212200Y558800D02*
X194200Y558800D01*
X194200Y533400D02*
X212200Y533400D01*
X212200Y508000D02*
X194200Y508000D01*
X194200Y482600D02*
X212200Y482600D01*
X212200Y457200D02*
X194200Y457200D01*
X194200Y431800D02*
X212200Y431800D01*
X212200Y406400D02*
X194200Y406400D01*
X194200Y381000D02*
X212200Y381000D01*
X212200Y330200D02*
X194200Y330200D01*
X194200Y304800D02*
X212200Y304800D01*
X212200Y279400D02*
X194200Y279400D01*
X194200Y254000D02*
X212200Y254000D01*
X212200Y228600D02*
X194200Y228600D01*
X194200Y203200D02*
X212200Y203200D01*
X212200Y177800D02*
X194200Y177800D01*
X194200Y152400D02*
X212200Y152400D01*
X549800Y558800D02*
X567800Y558800D01*
X567800Y533400D02*
X549800Y533400D01*
X549800Y508000D02*
X567800Y508000D01*
X567800Y482600D02*
X549800Y482600D01*
X549800Y457200D02*
X567800Y457200D01*
X567800Y431800D02*
X549800Y431800D01*
X549800Y406400D02*
X567800Y406400D01*
X567800Y381000D02*
X549800Y381000D01*
X549800Y228600D02*
X567800Y228600D01*
X567800Y203200D02*
X549800Y203200D01*
X549800Y177800D02*
X567800Y177800D01*
X567800Y152400D02*
X549800Y152400D01*
X549800Y330200D02*
X567800Y330200D01*
X567800Y304800D02*
X549800Y304800D01*
X549800Y279400D02*
X567800Y279400D01*
X567800Y254000D02*
X549800Y254000D01*
D14*
X388620Y457200D03*
X374904Y489204D03*
X350520Y513588D03*
X222504Y441960D03*
M02*
