G04 EAGLE Gerber RS-274X export*
G75*
%MOMM*%
%FSLAX34Y34*%
%LPD*%
%INTop Copper*%
%IPPOS*%
%AMOC8*
5,1,8,0,0,1.08239X$1,22.5*%
G01*
%ADD10P,1.649562X8X292.500000*%
%ADD11C,1.320800*%
%ADD12C,1.524000*%
%ADD13C,1.800000*%
%ADD14C,0.254000*%
%ADD15C,1.016000*%

G36*
X236971Y111772D02*
X236971Y111772D01*
X237043Y111774D01*
X237092Y111792D01*
X237143Y111800D01*
X237207Y111834D01*
X237274Y111859D01*
X237315Y111891D01*
X237361Y111916D01*
X237410Y111968D01*
X237466Y112012D01*
X237494Y112056D01*
X237530Y112094D01*
X237560Y112159D01*
X237599Y112219D01*
X237612Y112270D01*
X237634Y112317D01*
X237641Y112388D01*
X237659Y112458D01*
X237655Y112510D01*
X237661Y112561D01*
X237645Y112632D01*
X237640Y112703D01*
X237620Y112751D01*
X237608Y112802D01*
X237572Y112863D01*
X237544Y112929D01*
X237499Y112985D01*
X237482Y113013D01*
X237464Y113028D01*
X237439Y113060D01*
X233647Y116852D01*
X233647Y124848D01*
X239302Y130503D01*
X247298Y130503D01*
X252953Y124848D01*
X252953Y124064D01*
X252956Y124044D01*
X252954Y124025D01*
X252976Y123923D01*
X252992Y123821D01*
X253002Y123804D01*
X253006Y123784D01*
X253059Y123695D01*
X253108Y123604D01*
X253122Y123590D01*
X253132Y123573D01*
X253211Y123506D01*
X253286Y123434D01*
X253304Y123426D01*
X253319Y123413D01*
X253415Y123374D01*
X253509Y123331D01*
X253529Y123329D01*
X253547Y123321D01*
X253714Y123303D01*
X258286Y123303D01*
X258306Y123306D01*
X258325Y123304D01*
X258427Y123326D01*
X258529Y123342D01*
X258546Y123352D01*
X258566Y123356D01*
X258655Y123409D01*
X258746Y123458D01*
X258760Y123472D01*
X258777Y123482D01*
X258844Y123561D01*
X258916Y123636D01*
X258924Y123654D01*
X258937Y123669D01*
X258976Y123765D01*
X259019Y123859D01*
X259021Y123879D01*
X259029Y123897D01*
X259047Y124064D01*
X259047Y124848D01*
X264702Y130503D01*
X270517Y130503D01*
X270607Y130517D01*
X270698Y130525D01*
X270727Y130537D01*
X270759Y130542D01*
X270840Y130585D01*
X270924Y130621D01*
X270956Y130647D01*
X270977Y130658D01*
X270999Y130681D01*
X271055Y130726D01*
X336474Y196145D01*
X336527Y196219D01*
X336587Y196288D01*
X336599Y196319D01*
X336618Y196345D01*
X336645Y196432D01*
X336679Y196517D01*
X336683Y196558D01*
X336690Y196580D01*
X336689Y196612D01*
X336697Y196683D01*
X336697Y256368D01*
X364791Y284462D01*
X364803Y284478D01*
X364818Y284490D01*
X364874Y284578D01*
X364934Y284661D01*
X364940Y284680D01*
X364951Y284697D01*
X364976Y284798D01*
X365007Y284897D01*
X365006Y284916D01*
X365011Y284936D01*
X365003Y285039D01*
X365000Y285142D01*
X364994Y285161D01*
X364992Y285181D01*
X364952Y285276D01*
X364916Y285373D01*
X364904Y285389D01*
X364896Y285407D01*
X364791Y285538D01*
X353855Y296474D01*
X353781Y296527D01*
X353712Y296587D01*
X353681Y296599D01*
X353655Y296618D01*
X353568Y296645D01*
X353483Y296679D01*
X353442Y296683D01*
X353420Y296690D01*
X353388Y296689D01*
X353317Y296697D01*
X352663Y296697D01*
X352598Y296687D01*
X352532Y296686D01*
X352452Y296663D01*
X352420Y296658D01*
X352403Y296648D01*
X352371Y296639D01*
X351222Y296163D01*
X334578Y296163D01*
X331404Y297478D01*
X328974Y299908D01*
X327659Y303082D01*
X327659Y306518D01*
X328974Y309692D01*
X329267Y309985D01*
X329279Y310002D01*
X329294Y310014D01*
X329351Y310101D01*
X329411Y310185D01*
X329417Y310204D01*
X329427Y310221D01*
X329453Y310321D01*
X329483Y310420D01*
X329483Y310440D01*
X329487Y310459D01*
X329479Y310562D01*
X329477Y310666D01*
X329470Y310685D01*
X329468Y310705D01*
X329428Y310800D01*
X329392Y310897D01*
X329380Y310913D01*
X329372Y310931D01*
X329267Y311062D01*
X308855Y331474D01*
X308781Y331527D01*
X308712Y331587D01*
X308681Y331599D01*
X308655Y331618D01*
X308568Y331645D01*
X308483Y331679D01*
X308442Y331683D01*
X308420Y331690D01*
X308388Y331689D01*
X308317Y331697D01*
X276542Y331697D01*
X276471Y331686D01*
X276399Y331684D01*
X276350Y331666D01*
X276299Y331658D01*
X276235Y331624D01*
X276168Y331599D01*
X276127Y331567D01*
X276081Y331542D01*
X276032Y331490D01*
X275976Y331446D01*
X275948Y331402D01*
X275912Y331364D01*
X275882Y331299D01*
X275843Y331239D01*
X275830Y331188D01*
X275808Y331141D01*
X275801Y331070D01*
X275783Y331000D01*
X275787Y330948D01*
X275781Y330897D01*
X275797Y330826D01*
X275802Y330755D01*
X275822Y330707D01*
X275834Y330656D01*
X275870Y330595D01*
X275898Y330529D01*
X275943Y330473D01*
X275960Y330445D01*
X275978Y330430D01*
X276003Y330398D01*
X278353Y328048D01*
X278353Y320052D01*
X272698Y314397D01*
X264702Y314397D01*
X259047Y320052D01*
X259047Y320936D01*
X259044Y320956D01*
X259046Y320975D01*
X259024Y321077D01*
X259008Y321179D01*
X258998Y321196D01*
X258994Y321216D01*
X258941Y321305D01*
X258892Y321396D01*
X258878Y321410D01*
X258868Y321427D01*
X258789Y321494D01*
X258714Y321566D01*
X258696Y321574D01*
X258681Y321587D01*
X258585Y321626D01*
X258491Y321669D01*
X258471Y321671D01*
X258453Y321679D01*
X258286Y321697D01*
X253714Y321697D01*
X253694Y321694D01*
X253675Y321696D01*
X253573Y321674D01*
X253471Y321658D01*
X253454Y321648D01*
X253434Y321644D01*
X253345Y321591D01*
X253254Y321542D01*
X253240Y321528D01*
X253223Y321518D01*
X253156Y321439D01*
X253084Y321364D01*
X253076Y321346D01*
X253063Y321331D01*
X253024Y321235D01*
X252981Y321141D01*
X252979Y321121D01*
X252971Y321103D01*
X252953Y320936D01*
X252953Y320052D01*
X247298Y314397D01*
X239302Y314397D01*
X233647Y320052D01*
X233647Y328048D01*
X237426Y331827D01*
X237437Y331843D01*
X237453Y331855D01*
X237509Y331943D01*
X237569Y332027D01*
X237575Y332046D01*
X237586Y332062D01*
X237611Y332163D01*
X237642Y332262D01*
X237641Y332282D01*
X237646Y332301D01*
X237638Y332404D01*
X237635Y332508D01*
X237628Y332526D01*
X237627Y332546D01*
X237587Y332641D01*
X237551Y332739D01*
X237538Y332754D01*
X237531Y332772D01*
X237426Y332903D01*
X201697Y368632D01*
X201697Y593761D01*
X201678Y593876D01*
X201661Y593992D01*
X201659Y593998D01*
X201658Y594004D01*
X201603Y594107D01*
X201550Y594212D01*
X201545Y594216D01*
X201542Y594222D01*
X201458Y594301D01*
X201374Y594384D01*
X201368Y594388D01*
X201364Y594391D01*
X201347Y594399D01*
X201227Y594465D01*
X198308Y595674D01*
X195878Y598104D01*
X194563Y601278D01*
X194563Y617922D01*
X195878Y621096D01*
X198308Y623526D01*
X201482Y624841D01*
X204918Y624841D01*
X208092Y623526D01*
X210522Y621096D01*
X211837Y617922D01*
X211837Y601278D01*
X210522Y598104D01*
X208526Y596107D01*
X208473Y596034D01*
X208413Y595964D01*
X208401Y595934D01*
X208382Y595908D01*
X208355Y595821D01*
X208321Y595736D01*
X208317Y595695D01*
X208310Y595673D01*
X208311Y595640D01*
X208303Y595569D01*
X208303Y371683D01*
X208317Y371593D01*
X208325Y371502D01*
X208337Y371473D01*
X208342Y371441D01*
X208385Y371360D01*
X208421Y371276D01*
X208447Y371244D01*
X208458Y371223D01*
X208481Y371201D01*
X208526Y371145D01*
X232348Y347323D01*
X232406Y347281D01*
X232458Y347232D01*
X232505Y347210D01*
X232547Y347179D01*
X232616Y347158D01*
X232681Y347128D01*
X232733Y347122D01*
X232783Y347107D01*
X232854Y347109D01*
X232925Y347101D01*
X232976Y347112D01*
X233028Y347113D01*
X233096Y347138D01*
X233166Y347153D01*
X233211Y347180D01*
X233259Y347198D01*
X233315Y347243D01*
X233377Y347280D01*
X233411Y347319D01*
X233451Y347352D01*
X233490Y347412D01*
X233537Y347466D01*
X233556Y347515D01*
X233584Y347559D01*
X233602Y347628D01*
X233629Y347695D01*
X233637Y347766D01*
X233645Y347797D01*
X233643Y347820D01*
X233647Y347861D01*
X233647Y353448D01*
X239302Y359103D01*
X247298Y359103D01*
X252875Y353526D01*
X252949Y353473D01*
X253019Y353413D01*
X253049Y353401D01*
X253075Y353382D01*
X253162Y353355D01*
X253247Y353321D01*
X253288Y353317D01*
X253310Y353310D01*
X253342Y353311D01*
X253414Y353303D01*
X258586Y353303D01*
X258676Y353317D01*
X258767Y353325D01*
X258797Y353337D01*
X258829Y353342D01*
X258910Y353385D01*
X258994Y353421D01*
X259026Y353447D01*
X259047Y353458D01*
X259069Y353481D01*
X259125Y353526D01*
X264702Y359103D01*
X272698Y359103D01*
X278353Y353448D01*
X278353Y345452D01*
X272503Y339602D01*
X272461Y339544D01*
X272412Y339492D01*
X272390Y339445D01*
X272360Y339403D01*
X272339Y339334D01*
X272308Y339269D01*
X272303Y339217D01*
X272287Y339167D01*
X272289Y339096D01*
X272281Y339025D01*
X272292Y338974D01*
X272294Y338922D01*
X272318Y338854D01*
X272334Y338784D01*
X272360Y338739D01*
X272378Y338691D01*
X272423Y338635D01*
X272460Y338573D01*
X272499Y338539D01*
X272532Y338499D01*
X272592Y338460D01*
X272647Y338413D01*
X272695Y338394D01*
X272739Y338366D01*
X272808Y338348D01*
X272875Y338321D01*
X272946Y338313D01*
X272977Y338305D01*
X273001Y338307D01*
X273042Y338303D01*
X311368Y338303D01*
X336011Y313660D01*
X336085Y313607D01*
X336154Y313547D01*
X336185Y313535D01*
X336211Y313516D01*
X336298Y313489D01*
X336383Y313455D01*
X336424Y313451D01*
X336446Y313444D01*
X336478Y313445D01*
X336549Y313437D01*
X351222Y313437D01*
X354396Y312122D01*
X356826Y309692D01*
X358141Y306518D01*
X358141Y303082D01*
X357881Y302455D01*
X357854Y302341D01*
X357826Y302227D01*
X357826Y302221D01*
X357825Y302215D01*
X357836Y302099D01*
X357845Y301982D01*
X357847Y301977D01*
X357848Y301970D01*
X357896Y301862D01*
X357941Y301756D01*
X357946Y301750D01*
X357948Y301745D01*
X357961Y301731D01*
X358046Y301625D01*
X371145Y288526D01*
X373526Y286145D01*
X401729Y257942D01*
X401823Y257874D01*
X401918Y257804D01*
X401924Y257802D01*
X401929Y257798D01*
X402039Y257764D01*
X402151Y257728D01*
X402158Y257728D01*
X402164Y257726D01*
X402281Y257729D01*
X402397Y257730D01*
X402405Y257732D01*
X402410Y257732D01*
X402427Y257739D01*
X402559Y257777D01*
X404480Y258573D01*
X408320Y258573D01*
X411868Y257103D01*
X414583Y254388D01*
X416053Y250840D01*
X416053Y231760D01*
X414583Y228212D01*
X411868Y225497D01*
X408320Y224027D01*
X404480Y224027D01*
X400932Y225497D01*
X398217Y228212D01*
X396747Y231760D01*
X396747Y250840D01*
X397356Y252309D01*
X397366Y252352D01*
X397382Y252387D01*
X397389Y252449D01*
X397411Y252536D01*
X397410Y252542D01*
X397412Y252548D01*
X397406Y252606D01*
X397409Y252631D01*
X397400Y252672D01*
X397392Y252781D01*
X397389Y252787D01*
X397389Y252793D01*
X397360Y252858D01*
X397357Y252872D01*
X397345Y252892D01*
X397341Y252901D01*
X397296Y253008D01*
X397291Y253013D01*
X397289Y253018D01*
X397276Y253032D01*
X397191Y253139D01*
X370538Y279791D01*
X370522Y279803D01*
X370510Y279818D01*
X370438Y279864D01*
X370412Y279887D01*
X370397Y279893D01*
X370339Y279934D01*
X370320Y279940D01*
X370303Y279951D01*
X370202Y279976D01*
X370103Y280007D01*
X370084Y280006D01*
X370064Y280011D01*
X369961Y280003D01*
X369858Y280000D01*
X369839Y279994D01*
X369819Y279992D01*
X369724Y279952D01*
X369627Y279916D01*
X369611Y279904D01*
X369593Y279896D01*
X369531Y279846D01*
X369523Y279842D01*
X369514Y279833D01*
X369462Y279791D01*
X343526Y253855D01*
X343478Y253789D01*
X343471Y253781D01*
X343469Y253777D01*
X343413Y253712D01*
X343401Y253681D01*
X343382Y253655D01*
X343355Y253568D01*
X343321Y253483D01*
X343317Y253442D01*
X343310Y253420D01*
X343311Y253388D01*
X343303Y253317D01*
X343303Y193632D01*
X276974Y127303D01*
X276963Y127287D01*
X276947Y127275D01*
X276891Y127187D01*
X276831Y127104D01*
X276825Y127085D01*
X276814Y127068D01*
X276789Y126967D01*
X276758Y126869D01*
X276759Y126849D01*
X276754Y126829D01*
X276762Y126726D01*
X276765Y126623D01*
X276772Y126604D01*
X276773Y126584D01*
X276813Y126489D01*
X276849Y126392D01*
X276862Y126376D01*
X276869Y126358D01*
X276974Y126227D01*
X278353Y124848D01*
X278353Y116852D01*
X274561Y113060D01*
X274519Y113002D01*
X274470Y112950D01*
X274448Y112903D01*
X274418Y112861D01*
X274397Y112792D01*
X274366Y112727D01*
X274361Y112675D01*
X274345Y112625D01*
X274347Y112554D01*
X274339Y112483D01*
X274350Y112432D01*
X274352Y112380D01*
X274376Y112312D01*
X274392Y112242D01*
X274418Y112197D01*
X274436Y112149D01*
X274481Y112093D01*
X274518Y112031D01*
X274557Y111997D01*
X274590Y111957D01*
X274650Y111918D01*
X274705Y111871D01*
X274753Y111852D01*
X274797Y111824D01*
X274866Y111806D01*
X274933Y111779D01*
X275004Y111771D01*
X275035Y111763D01*
X275059Y111765D01*
X275100Y111761D01*
X486900Y111761D01*
X486971Y111772D01*
X487043Y111774D01*
X487092Y111792D01*
X487143Y111800D01*
X487207Y111834D01*
X487274Y111859D01*
X487315Y111891D01*
X487361Y111916D01*
X487410Y111968D01*
X487466Y112012D01*
X487494Y112056D01*
X487530Y112094D01*
X487560Y112159D01*
X487599Y112219D01*
X487612Y112270D01*
X487634Y112317D01*
X487641Y112388D01*
X487659Y112458D01*
X487655Y112510D01*
X487661Y112561D01*
X487645Y112632D01*
X487640Y112703D01*
X487620Y112751D01*
X487608Y112802D01*
X487572Y112863D01*
X487544Y112929D01*
X487499Y112985D01*
X487482Y113013D01*
X487464Y113028D01*
X487439Y113060D01*
X483647Y116852D01*
X483647Y124848D01*
X489302Y130503D01*
X497298Y130503D01*
X502953Y124848D01*
X502953Y124064D01*
X502956Y124044D01*
X502954Y124025D01*
X502976Y123923D01*
X502992Y123821D01*
X503002Y123804D01*
X503006Y123784D01*
X503059Y123695D01*
X503108Y123604D01*
X503122Y123590D01*
X503132Y123573D01*
X503211Y123506D01*
X503286Y123434D01*
X503304Y123426D01*
X503319Y123413D01*
X503415Y123374D01*
X503509Y123331D01*
X503529Y123329D01*
X503547Y123321D01*
X503714Y123303D01*
X508286Y123303D01*
X508306Y123306D01*
X508325Y123304D01*
X508427Y123326D01*
X508529Y123342D01*
X508546Y123352D01*
X508566Y123356D01*
X508655Y123409D01*
X508746Y123458D01*
X508760Y123472D01*
X508777Y123482D01*
X508844Y123561D01*
X508916Y123636D01*
X508924Y123654D01*
X508937Y123669D01*
X508976Y123765D01*
X509019Y123859D01*
X509021Y123879D01*
X509029Y123897D01*
X509047Y124064D01*
X509047Y124848D01*
X514702Y130503D01*
X522698Y130503D01*
X528353Y124848D01*
X528353Y116852D01*
X524561Y113060D01*
X524519Y113002D01*
X524470Y112950D01*
X524448Y112903D01*
X524418Y112861D01*
X524397Y112792D01*
X524366Y112727D01*
X524361Y112675D01*
X524345Y112625D01*
X524347Y112554D01*
X524339Y112483D01*
X524350Y112432D01*
X524352Y112380D01*
X524376Y112312D01*
X524392Y112242D01*
X524418Y112197D01*
X524436Y112149D01*
X524481Y112093D01*
X524518Y112031D01*
X524557Y111997D01*
X524590Y111957D01*
X524650Y111918D01*
X524705Y111871D01*
X524753Y111852D01*
X524797Y111824D01*
X524866Y111806D01*
X524933Y111779D01*
X525004Y111771D01*
X525035Y111763D01*
X525059Y111765D01*
X525100Y111761D01*
X582678Y111761D01*
X582698Y111764D01*
X582717Y111762D01*
X582819Y111784D01*
X582921Y111800D01*
X582938Y111810D01*
X582958Y111814D01*
X583047Y111867D01*
X583138Y111916D01*
X583152Y111930D01*
X583169Y111940D01*
X583236Y112019D01*
X583308Y112094D01*
X583316Y112112D01*
X583329Y112127D01*
X583368Y112223D01*
X583411Y112317D01*
X583413Y112337D01*
X583421Y112355D01*
X583439Y112522D01*
X583439Y608004D01*
X583432Y608049D01*
X583434Y608095D01*
X583412Y608170D01*
X583400Y608247D01*
X583378Y608287D01*
X583365Y608332D01*
X583321Y608396D01*
X583284Y608464D01*
X583251Y608496D01*
X583225Y608534D01*
X583162Y608580D01*
X583106Y608634D01*
X583065Y608653D01*
X583028Y608680D01*
X582953Y608704D01*
X582883Y608737D01*
X582837Y608742D01*
X582794Y608756D01*
X582716Y608756D01*
X582639Y608764D01*
X582594Y608755D01*
X582548Y608754D01*
X582417Y608716D01*
X582398Y608712D01*
X582394Y608709D01*
X582387Y608707D01*
X581860Y608489D01*
X573840Y608489D01*
X566430Y611559D01*
X560759Y617230D01*
X557689Y624640D01*
X557689Y632660D01*
X559233Y636387D01*
X559243Y636431D01*
X559263Y636473D01*
X559271Y636550D01*
X559289Y636626D01*
X559285Y636672D01*
X559290Y636717D01*
X559273Y636794D01*
X559266Y636871D01*
X559247Y636913D01*
X559238Y636958D01*
X559198Y637025D01*
X559166Y637096D01*
X559135Y637130D01*
X559111Y637169D01*
X559052Y637220D01*
X559000Y637277D01*
X558959Y637299D01*
X558924Y637329D01*
X558852Y637358D01*
X558784Y637395D01*
X558739Y637404D01*
X558696Y637421D01*
X558560Y637436D01*
X558542Y637439D01*
X558537Y637438D01*
X558530Y637439D01*
X176022Y637439D01*
X176002Y637436D01*
X175983Y637438D01*
X175881Y637416D01*
X175779Y637400D01*
X175762Y637390D01*
X175742Y637386D01*
X175653Y637333D01*
X175562Y637284D01*
X175548Y637270D01*
X175531Y637260D01*
X175464Y637181D01*
X175392Y637106D01*
X175384Y637088D01*
X175371Y637073D01*
X175332Y636977D01*
X175289Y636883D01*
X175287Y636863D01*
X175279Y636845D01*
X175261Y636678D01*
X175261Y135222D01*
X175264Y135202D01*
X175262Y135183D01*
X175284Y135081D01*
X175300Y134979D01*
X175310Y134962D01*
X175314Y134942D01*
X175367Y134853D01*
X175416Y134762D01*
X175430Y134748D01*
X175440Y134731D01*
X175519Y134664D01*
X175594Y134592D01*
X175612Y134584D01*
X175627Y134571D01*
X175723Y134532D01*
X175817Y134489D01*
X175837Y134487D01*
X175855Y134479D01*
X176022Y134461D01*
X181810Y134461D01*
X189220Y131391D01*
X194891Y125720D01*
X197961Y118310D01*
X197961Y112522D01*
X197964Y112502D01*
X197962Y112483D01*
X197984Y112381D01*
X198000Y112279D01*
X198010Y112262D01*
X198014Y112242D01*
X198067Y112153D01*
X198116Y112062D01*
X198130Y112048D01*
X198140Y112031D01*
X198219Y111964D01*
X198294Y111892D01*
X198312Y111884D01*
X198327Y111871D01*
X198423Y111832D01*
X198517Y111789D01*
X198537Y111787D01*
X198555Y111779D01*
X198722Y111761D01*
X236900Y111761D01*
X236971Y111772D01*
G37*
%LPC*%
G36*
X489302Y288997D02*
X489302Y288997D01*
X483647Y294652D01*
X483647Y301367D01*
X483633Y301457D01*
X483625Y301548D01*
X483613Y301577D01*
X483608Y301609D01*
X483565Y301690D01*
X483529Y301774D01*
X483503Y301806D01*
X483492Y301827D01*
X483469Y301849D01*
X483424Y301905D01*
X468855Y316474D01*
X468781Y316527D01*
X468712Y316587D01*
X468681Y316599D01*
X468655Y316618D01*
X468568Y316645D01*
X468483Y316679D01*
X468442Y316683D01*
X468420Y316690D01*
X468388Y316689D01*
X468317Y316697D01*
X383632Y316697D01*
X353098Y347232D01*
X353004Y347299D01*
X352909Y347369D01*
X352903Y347371D01*
X352898Y347375D01*
X352787Y347409D01*
X352675Y347446D01*
X352669Y347446D01*
X352663Y347447D01*
X352546Y347444D01*
X352429Y347443D01*
X352422Y347441D01*
X352417Y347441D01*
X352399Y347435D01*
X352268Y347397D01*
X351222Y346963D01*
X334578Y346963D01*
X331404Y348278D01*
X328974Y350708D01*
X327659Y353882D01*
X327659Y357318D01*
X328974Y360492D01*
X331404Y362922D01*
X334578Y364237D01*
X351222Y364237D01*
X354396Y362922D01*
X356826Y360492D01*
X358141Y357318D01*
X358141Y353882D01*
X357646Y352689D01*
X357620Y352575D01*
X357591Y352462D01*
X357592Y352455D01*
X357590Y352449D01*
X357601Y352333D01*
X357610Y352217D01*
X357613Y352211D01*
X357613Y352204D01*
X357661Y352097D01*
X357707Y351990D01*
X357711Y351984D01*
X357713Y351980D01*
X357726Y351966D01*
X357812Y351859D01*
X386145Y323526D01*
X386219Y323473D01*
X386288Y323413D01*
X386319Y323401D01*
X386345Y323382D01*
X386432Y323355D01*
X386517Y323321D01*
X386558Y323317D01*
X386580Y323310D01*
X386612Y323311D01*
X386683Y323303D01*
X405341Y323303D01*
X405412Y323314D01*
X405484Y323316D01*
X405533Y323334D01*
X405584Y323342D01*
X405647Y323376D01*
X405715Y323401D01*
X405755Y323433D01*
X405801Y323458D01*
X405851Y323510D01*
X405907Y323554D01*
X405935Y323598D01*
X405971Y323636D01*
X406001Y323701D01*
X406040Y323761D01*
X406052Y323812D01*
X406074Y323859D01*
X406082Y323930D01*
X406100Y324000D01*
X406096Y324052D01*
X406101Y324103D01*
X406086Y324174D01*
X406081Y324245D01*
X406060Y324293D01*
X406049Y324344D01*
X406012Y324405D01*
X405984Y324471D01*
X405940Y324527D01*
X405923Y324555D01*
X405905Y324570D01*
X405880Y324602D01*
X405174Y325308D01*
X403859Y328482D01*
X403859Y331918D01*
X405174Y335092D01*
X407604Y337522D01*
X410778Y338837D01*
X427422Y338837D01*
X428185Y338521D01*
X428298Y338494D01*
X428412Y338465D01*
X428419Y338466D01*
X428425Y338464D01*
X428541Y338475D01*
X428658Y338484D01*
X428663Y338487D01*
X428670Y338487D01*
X428778Y338536D01*
X428884Y338581D01*
X428890Y338585D01*
X428894Y338587D01*
X428908Y338600D01*
X429015Y338686D01*
X471474Y381145D01*
X471527Y381219D01*
X471587Y381288D01*
X471599Y381319D01*
X471618Y381345D01*
X471645Y381432D01*
X471679Y381517D01*
X471683Y381558D01*
X471690Y381580D01*
X471689Y381612D01*
X471697Y381683D01*
X471697Y506368D01*
X485576Y520247D01*
X485587Y520263D01*
X485603Y520275D01*
X485659Y520363D01*
X485719Y520446D01*
X485725Y520465D01*
X485736Y520482D01*
X485761Y520583D01*
X485792Y520681D01*
X485791Y520701D01*
X485796Y520721D01*
X485788Y520824D01*
X485785Y520927D01*
X485778Y520946D01*
X485777Y520966D01*
X485737Y521061D01*
X485701Y521158D01*
X485688Y521174D01*
X485681Y521192D01*
X485576Y521323D01*
X483647Y523252D01*
X483647Y531248D01*
X489302Y536903D01*
X497298Y536903D01*
X502953Y531248D01*
X502953Y529064D01*
X502956Y529044D01*
X502954Y529025D01*
X502976Y528923D01*
X502992Y528821D01*
X503002Y528804D01*
X503006Y528784D01*
X503059Y528695D01*
X503108Y528604D01*
X503122Y528590D01*
X503132Y528573D01*
X503211Y528506D01*
X503286Y528434D01*
X503304Y528426D01*
X503319Y528413D01*
X503415Y528374D01*
X503509Y528331D01*
X503529Y528329D01*
X503547Y528321D01*
X503714Y528303D01*
X508286Y528303D01*
X508306Y528306D01*
X508325Y528304D01*
X508427Y528326D01*
X508529Y528342D01*
X508546Y528352D01*
X508566Y528356D01*
X508655Y528409D01*
X508746Y528458D01*
X508760Y528472D01*
X508777Y528482D01*
X508844Y528561D01*
X508916Y528636D01*
X508924Y528654D01*
X508937Y528669D01*
X508976Y528765D01*
X509019Y528859D01*
X509021Y528879D01*
X509029Y528897D01*
X509047Y529064D01*
X509047Y531248D01*
X514702Y536903D01*
X522698Y536903D01*
X528353Y531248D01*
X528353Y523252D01*
X522698Y517597D01*
X514702Y517597D01*
X510825Y521474D01*
X510751Y521527D01*
X510681Y521587D01*
X510651Y521599D01*
X510625Y521618D01*
X510538Y521645D01*
X510453Y521679D01*
X510412Y521683D01*
X510390Y521690D01*
X510358Y521689D01*
X510286Y521697D01*
X501714Y521697D01*
X501624Y521683D01*
X501533Y521675D01*
X501503Y521663D01*
X501471Y521658D01*
X501390Y521615D01*
X501306Y521579D01*
X501274Y521553D01*
X501253Y521542D01*
X501231Y521519D01*
X501175Y521474D01*
X497298Y517597D01*
X492583Y517597D01*
X492493Y517583D01*
X492402Y517575D01*
X492373Y517563D01*
X492341Y517558D01*
X492260Y517515D01*
X492176Y517479D01*
X492144Y517453D01*
X492123Y517442D01*
X492101Y517419D01*
X492045Y517374D01*
X478526Y503855D01*
X478473Y503781D01*
X478413Y503712D01*
X478401Y503681D01*
X478382Y503655D01*
X478355Y503568D01*
X478321Y503483D01*
X478317Y503442D01*
X478310Y503420D01*
X478311Y503388D01*
X478303Y503317D01*
X478303Y378632D01*
X476145Y376474D01*
X433894Y334224D01*
X433827Y334130D01*
X433756Y334035D01*
X433754Y334029D01*
X433751Y334024D01*
X433717Y333913D01*
X433680Y333801D01*
X433680Y333795D01*
X433678Y333789D01*
X433681Y333672D01*
X433683Y333555D01*
X433685Y333548D01*
X433685Y333543D01*
X433691Y333525D01*
X433729Y333394D01*
X434341Y331918D01*
X434341Y328482D01*
X433026Y325308D01*
X432320Y324602D01*
X432279Y324544D01*
X432229Y324492D01*
X432207Y324445D01*
X432177Y324403D01*
X432156Y324334D01*
X432126Y324269D01*
X432120Y324217D01*
X432105Y324167D01*
X432106Y324096D01*
X432099Y324025D01*
X432110Y323974D01*
X432111Y323922D01*
X432136Y323854D01*
X432151Y323784D01*
X432177Y323739D01*
X432195Y323691D01*
X432240Y323635D01*
X432277Y323573D01*
X432317Y323539D01*
X432349Y323499D01*
X432409Y323460D01*
X432464Y323413D01*
X432512Y323394D01*
X432556Y323366D01*
X432625Y323348D01*
X432692Y323321D01*
X432763Y323313D01*
X432794Y323305D01*
X432818Y323307D01*
X432859Y323303D01*
X471368Y323303D01*
X487297Y307374D01*
X487313Y307363D01*
X487325Y307347D01*
X487412Y307291D01*
X487496Y307231D01*
X487515Y307225D01*
X487532Y307214D01*
X487633Y307189D01*
X487731Y307158D01*
X487751Y307159D01*
X487771Y307154D01*
X487874Y307162D01*
X487977Y307165D01*
X487996Y307172D01*
X488016Y307173D01*
X488111Y307213D01*
X488208Y307249D01*
X488224Y307262D01*
X488242Y307269D01*
X488373Y307374D01*
X489302Y308303D01*
X497298Y308303D01*
X502075Y303526D01*
X502149Y303473D01*
X502219Y303413D01*
X502249Y303401D01*
X502275Y303382D01*
X502362Y303355D01*
X502447Y303321D01*
X502488Y303317D01*
X502510Y303310D01*
X502542Y303311D01*
X502614Y303303D01*
X509386Y303303D01*
X509476Y303317D01*
X509567Y303325D01*
X509597Y303337D01*
X509629Y303342D01*
X509710Y303385D01*
X509794Y303421D01*
X509826Y303447D01*
X509847Y303458D01*
X509869Y303481D01*
X509925Y303526D01*
X514702Y308303D01*
X522698Y308303D01*
X528353Y302648D01*
X528353Y294652D01*
X522698Y288997D01*
X514702Y288997D01*
X509047Y294652D01*
X509047Y295936D01*
X509044Y295956D01*
X509046Y295975D01*
X509024Y296077D01*
X509008Y296179D01*
X508998Y296196D01*
X508994Y296216D01*
X508941Y296305D01*
X508892Y296396D01*
X508878Y296410D01*
X508868Y296427D01*
X508789Y296494D01*
X508714Y296566D01*
X508696Y296574D01*
X508681Y296587D01*
X508585Y296626D01*
X508491Y296669D01*
X508471Y296671D01*
X508453Y296679D01*
X508286Y296697D01*
X503714Y296697D01*
X503694Y296694D01*
X503675Y296696D01*
X503573Y296674D01*
X503471Y296658D01*
X503454Y296648D01*
X503434Y296644D01*
X503345Y296591D01*
X503254Y296542D01*
X503240Y296528D01*
X503223Y296518D01*
X503156Y296439D01*
X503084Y296364D01*
X503076Y296346D01*
X503063Y296331D01*
X503024Y296235D01*
X502981Y296141D01*
X502979Y296121D01*
X502971Y296103D01*
X502953Y295936D01*
X502953Y294652D01*
X497298Y288997D01*
X489302Y288997D01*
G37*
%LPD*%
%LPC*%
G36*
X378585Y477887D02*
X378585Y477887D01*
X375971Y478970D01*
X373970Y480971D01*
X372887Y483585D01*
X372887Y486415D01*
X372993Y486671D01*
X373020Y486784D01*
X373049Y486898D01*
X373048Y486905D01*
X373050Y486911D01*
X373039Y487027D01*
X373030Y487143D01*
X373027Y487149D01*
X373027Y487155D01*
X372979Y487262D01*
X372933Y487370D01*
X372929Y487376D01*
X372927Y487380D01*
X372914Y487394D01*
X372828Y487501D01*
X279652Y580677D01*
X279594Y580719D01*
X279542Y580768D01*
X279495Y580790D01*
X279453Y580821D01*
X279384Y580842D01*
X279319Y580872D01*
X279267Y580878D01*
X279217Y580893D01*
X279146Y580891D01*
X279075Y580899D01*
X279024Y580888D01*
X278972Y580887D01*
X278904Y580862D01*
X278834Y580847D01*
X278790Y580820D01*
X278741Y580802D01*
X278685Y580757D01*
X278623Y580720D01*
X278589Y580681D01*
X278549Y580648D01*
X278510Y580588D01*
X278463Y580534D01*
X278444Y580485D01*
X278416Y580441D01*
X278398Y580372D01*
X278371Y580305D01*
X278363Y580234D01*
X278355Y580203D01*
X278357Y580180D01*
X278353Y580139D01*
X278353Y574052D01*
X272698Y568397D01*
X264702Y568397D01*
X259047Y574052D01*
X259047Y575936D01*
X259044Y575956D01*
X259046Y575975D01*
X259024Y576077D01*
X259008Y576179D01*
X258998Y576196D01*
X258994Y576216D01*
X258941Y576305D01*
X258892Y576396D01*
X258878Y576410D01*
X258868Y576427D01*
X258789Y576494D01*
X258714Y576566D01*
X258696Y576574D01*
X258681Y576587D01*
X258585Y576626D01*
X258491Y576669D01*
X258471Y576671D01*
X258453Y576679D01*
X258286Y576697D01*
X253714Y576697D01*
X253694Y576694D01*
X253675Y576696D01*
X253573Y576674D01*
X253471Y576658D01*
X253454Y576648D01*
X253434Y576644D01*
X253345Y576591D01*
X253254Y576542D01*
X253240Y576528D01*
X253223Y576518D01*
X253156Y576439D01*
X253084Y576364D01*
X253076Y576346D01*
X253063Y576331D01*
X253024Y576235D01*
X252981Y576141D01*
X252979Y576121D01*
X252971Y576103D01*
X252953Y575936D01*
X252953Y574052D01*
X247298Y568397D01*
X239302Y568397D01*
X233647Y574052D01*
X233647Y582048D01*
X239302Y587703D01*
X247298Y587703D01*
X251475Y583526D01*
X251549Y583473D01*
X251619Y583413D01*
X251649Y583401D01*
X251675Y583382D01*
X251762Y583355D01*
X251847Y583321D01*
X251888Y583317D01*
X251910Y583310D01*
X251942Y583311D01*
X252014Y583303D01*
X259986Y583303D01*
X260076Y583317D01*
X260167Y583325D01*
X260197Y583337D01*
X260229Y583342D01*
X260310Y583385D01*
X260394Y583421D01*
X260426Y583447D01*
X260447Y583458D01*
X260469Y583481D01*
X260525Y583526D01*
X264702Y587703D01*
X270789Y587703D01*
X270859Y587714D01*
X270931Y587716D01*
X270980Y587734D01*
X271031Y587742D01*
X271095Y587776D01*
X271162Y587801D01*
X271203Y587833D01*
X271249Y587858D01*
X271298Y587910D01*
X271354Y587954D01*
X271382Y587998D01*
X271418Y588036D01*
X271448Y588101D01*
X271487Y588161D01*
X271500Y588212D01*
X271522Y588259D01*
X271530Y588330D01*
X271547Y588400D01*
X271543Y588452D01*
X271549Y588503D01*
X271534Y588574D01*
X271528Y588645D01*
X271508Y588693D01*
X271497Y588744D01*
X271460Y588805D01*
X271432Y588871D01*
X271387Y588927D01*
X271370Y588955D01*
X271353Y588970D01*
X271327Y589002D01*
X262312Y598017D01*
X262296Y598029D01*
X262283Y598044D01*
X262196Y598101D01*
X262112Y598161D01*
X262093Y598167D01*
X262076Y598177D01*
X261976Y598203D01*
X261877Y598233D01*
X261857Y598233D01*
X261838Y598237D01*
X261735Y598229D01*
X261631Y598227D01*
X261612Y598220D01*
X261593Y598218D01*
X261498Y598178D01*
X261400Y598142D01*
X261385Y598130D01*
X261366Y598122D01*
X261235Y598017D01*
X258892Y595674D01*
X255718Y594359D01*
X252282Y594359D01*
X249108Y595674D01*
X246678Y598104D01*
X245363Y601278D01*
X245363Y617922D01*
X246678Y621096D01*
X249108Y623526D01*
X252282Y624841D01*
X255718Y624841D01*
X258892Y623526D01*
X261322Y621096D01*
X262637Y617922D01*
X262637Y607349D01*
X262651Y607259D01*
X262659Y607168D01*
X262671Y607139D01*
X262676Y607107D01*
X262719Y607026D01*
X262755Y606942D01*
X262781Y606910D01*
X262792Y606889D01*
X262815Y606867D01*
X262823Y606857D01*
X262831Y606844D01*
X262839Y606836D01*
X262860Y606811D01*
X269733Y599937D01*
X269812Y599881D01*
X269827Y599869D01*
X269869Y599832D01*
X269872Y599831D01*
X269887Y599818D01*
X269912Y599809D01*
X269933Y599794D01*
X270026Y599765D01*
X270117Y599730D01*
X270143Y599729D01*
X270168Y599721D01*
X270249Y599724D01*
X270264Y599722D01*
X270269Y599722D01*
X270278Y599723D01*
X270363Y599720D01*
X270388Y599727D01*
X270414Y599728D01*
X270503Y599760D01*
X270511Y599762D01*
X270517Y599764D01*
X270599Y599788D01*
X270621Y599803D01*
X270645Y599812D01*
X270720Y599872D01*
X270729Y599877D01*
X270733Y599882D01*
X270801Y599929D01*
X270817Y599950D01*
X270837Y599966D01*
X270887Y600043D01*
X270898Y600055D01*
X270903Y600066D01*
X270948Y600126D01*
X270956Y600151D01*
X270970Y600173D01*
X270991Y600255D01*
X271002Y600278D01*
X271004Y600298D01*
X271024Y600360D01*
X271024Y600386D01*
X271030Y600411D01*
X271025Y600484D01*
X271029Y600523D01*
X271022Y600553D01*
X271022Y600606D01*
X271013Y600637D01*
X271011Y600657D01*
X270998Y600687D01*
X270978Y600757D01*
X270977Y600763D01*
X270976Y600764D01*
X270975Y600767D01*
X270763Y601278D01*
X270763Y617922D01*
X272078Y621096D01*
X274508Y623526D01*
X277682Y624841D01*
X281118Y624841D01*
X284292Y623526D01*
X286722Y621096D01*
X288037Y617922D01*
X288037Y601278D01*
X286722Y598104D01*
X284292Y595674D01*
X281118Y594359D01*
X277682Y594359D01*
X277171Y594571D01*
X277076Y594593D01*
X276983Y594622D01*
X276957Y594621D01*
X276932Y594627D01*
X276835Y594618D01*
X276737Y594615D01*
X276713Y594606D01*
X276687Y594604D01*
X276598Y594565D01*
X276506Y594531D01*
X276486Y594515D01*
X276462Y594504D01*
X276390Y594438D01*
X276314Y594377D01*
X276300Y594355D01*
X276281Y594338D01*
X276234Y594253D01*
X276181Y594170D01*
X276175Y594145D01*
X276162Y594122D01*
X276145Y594026D01*
X276121Y593932D01*
X276123Y593906D01*
X276119Y593880D01*
X276133Y593784D01*
X276140Y593687D01*
X276150Y593663D01*
X276154Y593637D01*
X276198Y593550D01*
X276237Y593460D01*
X276257Y593435D01*
X276266Y593418D01*
X276289Y593394D01*
X276341Y593329D01*
X377499Y492172D01*
X377593Y492104D01*
X377688Y492034D01*
X377694Y492032D01*
X377699Y492028D01*
X377810Y491994D01*
X377922Y491957D01*
X377928Y491957D01*
X377934Y491956D01*
X378051Y491959D01*
X378168Y491960D01*
X378175Y491962D01*
X378180Y491962D01*
X378197Y491968D01*
X378329Y492007D01*
X378585Y492113D01*
X381415Y492113D01*
X384029Y491030D01*
X386030Y489029D01*
X387113Y486415D01*
X387113Y483585D01*
X386030Y480971D01*
X384029Y478970D01*
X381415Y477887D01*
X378585Y477887D01*
G37*
%LPD*%
%LPC*%
G36*
X378585Y337887D02*
X378585Y337887D01*
X375971Y338970D01*
X373970Y340971D01*
X372887Y343585D01*
X372887Y346415D01*
X373970Y349029D01*
X375971Y351030D01*
X376227Y351136D01*
X376326Y351197D01*
X376427Y351258D01*
X376431Y351262D01*
X376436Y351266D01*
X376510Y351355D01*
X376587Y351444D01*
X376589Y351450D01*
X376593Y351455D01*
X376635Y351563D01*
X376679Y351673D01*
X376680Y351680D01*
X376681Y351685D01*
X376682Y351703D01*
X376697Y351839D01*
X376697Y398317D01*
X376683Y398407D01*
X376675Y398498D01*
X376663Y398527D01*
X376658Y398559D01*
X376615Y398640D01*
X376579Y398724D01*
X376553Y398756D01*
X376542Y398777D01*
X376519Y398799D01*
X376474Y398855D01*
X352249Y423080D01*
X352155Y423148D01*
X352060Y423218D01*
X352054Y423220D01*
X352049Y423224D01*
X351939Y423258D01*
X351827Y423294D01*
X351820Y423294D01*
X351814Y423296D01*
X351698Y423293D01*
X351581Y423292D01*
X351573Y423290D01*
X351568Y423290D01*
X351551Y423283D01*
X351420Y423245D01*
X351222Y423163D01*
X334578Y423163D01*
X331404Y424478D01*
X328974Y426908D01*
X327659Y430082D01*
X327659Y433518D01*
X328974Y436692D01*
X331404Y439122D01*
X334578Y440437D01*
X351222Y440437D01*
X354396Y439122D01*
X356826Y436692D01*
X358141Y433518D01*
X358141Y430082D01*
X357295Y428040D01*
X357268Y427927D01*
X357240Y427813D01*
X357240Y427807D01*
X357239Y427801D01*
X357250Y427684D01*
X357259Y427568D01*
X357261Y427562D01*
X357262Y427556D01*
X357310Y427448D01*
X357355Y427342D01*
X357360Y427336D01*
X357362Y427331D01*
X357375Y427317D01*
X357460Y427211D01*
X383303Y401368D01*
X383303Y351839D01*
X383321Y351725D01*
X383339Y351608D01*
X383341Y351603D01*
X383342Y351597D01*
X383397Y351494D01*
X383450Y351389D01*
X383455Y351385D01*
X383458Y351379D01*
X383542Y351299D01*
X383626Y351217D01*
X383632Y351213D01*
X383636Y351210D01*
X383653Y351202D01*
X383773Y351136D01*
X384029Y351030D01*
X386030Y349029D01*
X387113Y346415D01*
X387113Y343585D01*
X386030Y340971D01*
X384029Y338970D01*
X381415Y337887D01*
X378585Y337887D01*
G37*
%LPD*%
%LPC*%
G36*
X366105Y119667D02*
X366105Y119667D01*
X362050Y121347D01*
X358947Y124450D01*
X357267Y128505D01*
X357267Y150895D01*
X358947Y154950D01*
X359125Y155128D01*
X359137Y155144D01*
X359152Y155156D01*
X359208Y155244D01*
X359269Y155327D01*
X359274Y155346D01*
X359285Y155363D01*
X359311Y155464D01*
X359341Y155562D01*
X359340Y155582D01*
X359345Y155602D01*
X359337Y155705D01*
X359335Y155808D01*
X359328Y155827D01*
X359326Y155847D01*
X359286Y155942D01*
X359250Y156039D01*
X359238Y156055D01*
X359230Y156073D01*
X359125Y156204D01*
X351697Y163632D01*
X351697Y183161D01*
X351679Y183275D01*
X351661Y183392D01*
X351659Y183397D01*
X351658Y183403D01*
X351603Y183506D01*
X351550Y183611D01*
X351545Y183615D01*
X351542Y183621D01*
X351458Y183701D01*
X351374Y183783D01*
X351368Y183787D01*
X351364Y183790D01*
X351347Y183798D01*
X351227Y183864D01*
X350971Y183970D01*
X348970Y185971D01*
X347887Y188585D01*
X347887Y191415D01*
X348970Y194029D01*
X350971Y196030D01*
X353585Y197113D01*
X356415Y197113D01*
X359029Y196030D01*
X361030Y194029D01*
X362113Y191415D01*
X362113Y188585D01*
X361030Y185971D01*
X359029Y183970D01*
X358773Y183864D01*
X358674Y183803D01*
X358573Y183742D01*
X358569Y183738D01*
X358564Y183734D01*
X358490Y183645D01*
X358413Y183556D01*
X358411Y183550D01*
X358407Y183545D01*
X358365Y183437D01*
X358321Y183327D01*
X358320Y183320D01*
X358319Y183315D01*
X358318Y183297D01*
X358303Y183161D01*
X358303Y166683D01*
X358317Y166593D01*
X358325Y166502D01*
X358337Y166473D01*
X358342Y166441D01*
X358385Y166360D01*
X358421Y166276D01*
X358447Y166244D01*
X358458Y166223D01*
X358481Y166201D01*
X358526Y166145D01*
X364920Y159750D01*
X365015Y159682D01*
X365109Y159612D01*
X365115Y159611D01*
X365120Y159607D01*
X365231Y159573D01*
X365343Y159536D01*
X365349Y159536D01*
X365355Y159535D01*
X365472Y159538D01*
X365589Y159539D01*
X365596Y159541D01*
X365601Y159541D01*
X365618Y159547D01*
X365750Y159585D01*
X366105Y159733D01*
X370495Y159733D01*
X374550Y158053D01*
X377653Y154950D01*
X379333Y150895D01*
X379333Y128505D01*
X377653Y124450D01*
X374550Y121347D01*
X370495Y119667D01*
X366105Y119667D01*
G37*
%LPD*%
%LPC*%
G36*
X368585Y532887D02*
X368585Y532887D01*
X365971Y533970D01*
X363970Y535971D01*
X362887Y538585D01*
X362887Y541415D01*
X362993Y541671D01*
X363020Y541784D01*
X363049Y541898D01*
X363048Y541905D01*
X363050Y541911D01*
X363039Y542027D01*
X363030Y542144D01*
X363027Y542149D01*
X363027Y542156D01*
X362979Y542263D01*
X362933Y542370D01*
X362929Y542376D01*
X362927Y542380D01*
X362914Y542394D01*
X362828Y542501D01*
X310026Y595304D01*
X309931Y595371D01*
X309837Y595442D01*
X309831Y595443D01*
X309826Y595447D01*
X309715Y595481D01*
X309603Y595518D01*
X309597Y595518D01*
X309591Y595519D01*
X309474Y595516D01*
X309357Y595515D01*
X309350Y595513D01*
X309345Y595513D01*
X309327Y595507D01*
X309196Y595469D01*
X306518Y594359D01*
X303082Y594359D01*
X299908Y595674D01*
X297478Y598104D01*
X296163Y601278D01*
X296163Y617922D01*
X297478Y621096D01*
X299908Y623526D01*
X303082Y624841D01*
X306518Y624841D01*
X309692Y623526D01*
X312122Y621096D01*
X313437Y617922D01*
X313437Y601549D01*
X313451Y601459D01*
X313459Y601368D01*
X313471Y601339D01*
X313476Y601307D01*
X313519Y601226D01*
X313555Y601142D01*
X313581Y601110D01*
X313592Y601089D01*
X313615Y601067D01*
X313660Y601011D01*
X367499Y547172D01*
X367594Y547103D01*
X367688Y547034D01*
X367694Y547032D01*
X367699Y547028D01*
X367810Y546994D01*
X367922Y546957D01*
X367928Y546957D01*
X367934Y546956D01*
X368051Y546959D01*
X368168Y546960D01*
X368175Y546962D01*
X368180Y546962D01*
X368197Y546968D01*
X368329Y547007D01*
X368585Y547113D01*
X371415Y547113D01*
X374029Y546030D01*
X376030Y544029D01*
X377113Y541415D01*
X377113Y538585D01*
X376030Y535971D01*
X374029Y533970D01*
X371415Y532887D01*
X368585Y532887D01*
G37*
%LPD*%
%LPC*%
G36*
X391505Y119667D02*
X391505Y119667D01*
X387450Y121347D01*
X384347Y124450D01*
X382667Y128505D01*
X382667Y150895D01*
X384347Y154950D01*
X387450Y158053D01*
X391505Y159733D01*
X395895Y159733D01*
X399950Y158053D01*
X403053Y154950D01*
X404733Y150895D01*
X404733Y128505D01*
X403053Y124450D01*
X399950Y121347D01*
X395895Y119667D01*
X391505Y119667D01*
G37*
%LPD*%
%LPC*%
G36*
X340705Y119667D02*
X340705Y119667D01*
X336650Y121347D01*
X333547Y124450D01*
X331867Y128505D01*
X331867Y150895D01*
X333547Y154950D01*
X336650Y158053D01*
X340705Y159733D01*
X345095Y159733D01*
X349150Y158053D01*
X352253Y154950D01*
X353933Y150895D01*
X353933Y128505D01*
X352253Y124450D01*
X349150Y121347D01*
X345095Y119667D01*
X340705Y119667D01*
G37*
%LPD*%
%LPC*%
G36*
X489302Y212797D02*
X489302Y212797D01*
X483647Y218452D01*
X483647Y226448D01*
X489302Y232103D01*
X497298Y232103D01*
X500875Y228526D01*
X500949Y228473D01*
X501019Y228413D01*
X501049Y228401D01*
X501075Y228382D01*
X501162Y228355D01*
X501247Y228321D01*
X501288Y228317D01*
X501310Y228310D01*
X501342Y228311D01*
X501414Y228303D01*
X510586Y228303D01*
X510676Y228317D01*
X510767Y228325D01*
X510797Y228337D01*
X510829Y228342D01*
X510910Y228385D01*
X510994Y228421D01*
X511026Y228447D01*
X511047Y228458D01*
X511069Y228481D01*
X511125Y228526D01*
X514702Y232103D01*
X522698Y232103D01*
X528353Y226448D01*
X528353Y218452D01*
X522698Y212797D01*
X514702Y212797D01*
X509047Y218452D01*
X509047Y220936D01*
X509044Y220956D01*
X509046Y220975D01*
X509024Y221077D01*
X509008Y221179D01*
X508998Y221196D01*
X508994Y221216D01*
X508941Y221305D01*
X508892Y221396D01*
X508878Y221410D01*
X508868Y221427D01*
X508789Y221494D01*
X508714Y221566D01*
X508696Y221574D01*
X508681Y221587D01*
X508585Y221626D01*
X508491Y221669D01*
X508471Y221671D01*
X508453Y221679D01*
X508286Y221697D01*
X503714Y221697D01*
X503694Y221694D01*
X503675Y221696D01*
X503573Y221674D01*
X503471Y221658D01*
X503454Y221648D01*
X503434Y221644D01*
X503345Y221591D01*
X503254Y221542D01*
X503240Y221528D01*
X503223Y221518D01*
X503156Y221439D01*
X503084Y221364D01*
X503076Y221346D01*
X503063Y221331D01*
X503024Y221235D01*
X502981Y221141D01*
X502979Y221121D01*
X502971Y221103D01*
X502953Y220936D01*
X502953Y218452D01*
X497298Y212797D01*
X489302Y212797D01*
G37*
%LPD*%
%LPC*%
G36*
X239302Y212797D02*
X239302Y212797D01*
X233647Y218452D01*
X233647Y226448D01*
X239302Y232103D01*
X247298Y232103D01*
X250875Y228526D01*
X250949Y228473D01*
X251019Y228413D01*
X251049Y228401D01*
X251075Y228382D01*
X251162Y228355D01*
X251247Y228321D01*
X251288Y228317D01*
X251310Y228310D01*
X251342Y228311D01*
X251414Y228303D01*
X260586Y228303D01*
X260676Y228317D01*
X260767Y228325D01*
X260797Y228337D01*
X260829Y228342D01*
X260910Y228385D01*
X260994Y228421D01*
X261026Y228447D01*
X261047Y228458D01*
X261069Y228481D01*
X261125Y228526D01*
X264702Y232103D01*
X272698Y232103D01*
X278353Y226448D01*
X278353Y218452D01*
X272698Y212797D01*
X264702Y212797D01*
X259047Y218452D01*
X259047Y220936D01*
X259044Y220956D01*
X259046Y220975D01*
X259024Y221077D01*
X259008Y221179D01*
X258998Y221196D01*
X258994Y221216D01*
X258941Y221305D01*
X258892Y221396D01*
X258878Y221410D01*
X258868Y221427D01*
X258789Y221494D01*
X258714Y221566D01*
X258696Y221574D01*
X258681Y221587D01*
X258585Y221626D01*
X258491Y221669D01*
X258471Y221671D01*
X258453Y221679D01*
X258286Y221697D01*
X253714Y221697D01*
X253694Y221694D01*
X253675Y221696D01*
X253573Y221674D01*
X253471Y221658D01*
X253454Y221648D01*
X253434Y221644D01*
X253345Y221591D01*
X253254Y221542D01*
X253240Y221528D01*
X253223Y221518D01*
X253156Y221439D01*
X253084Y221364D01*
X253076Y221346D01*
X253063Y221331D01*
X253024Y221235D01*
X252981Y221141D01*
X252979Y221121D01*
X252971Y221103D01*
X252953Y220936D01*
X252953Y218452D01*
X247298Y212797D01*
X239302Y212797D01*
G37*
%LPD*%
%LPC*%
G36*
X239302Y542997D02*
X239302Y542997D01*
X233647Y548652D01*
X233647Y556648D01*
X239302Y562303D01*
X247298Y562303D01*
X251075Y558526D01*
X251149Y558473D01*
X251219Y558413D01*
X251249Y558401D01*
X251275Y558382D01*
X251362Y558355D01*
X251447Y558321D01*
X251488Y558317D01*
X251510Y558310D01*
X251542Y558311D01*
X251614Y558303D01*
X260386Y558303D01*
X260476Y558317D01*
X260567Y558325D01*
X260597Y558337D01*
X260629Y558342D01*
X260710Y558385D01*
X260794Y558421D01*
X260826Y558447D01*
X260847Y558458D01*
X260869Y558481D01*
X260925Y558526D01*
X264702Y562303D01*
X272698Y562303D01*
X278353Y556648D01*
X278353Y548652D01*
X272698Y542997D01*
X264702Y542997D01*
X259047Y548652D01*
X259047Y550936D01*
X259044Y550956D01*
X259046Y550975D01*
X259024Y551077D01*
X259008Y551179D01*
X258998Y551196D01*
X258994Y551216D01*
X258941Y551305D01*
X258892Y551396D01*
X258878Y551410D01*
X258868Y551427D01*
X258789Y551494D01*
X258714Y551566D01*
X258696Y551574D01*
X258681Y551587D01*
X258585Y551626D01*
X258491Y551669D01*
X258471Y551671D01*
X258453Y551679D01*
X258286Y551697D01*
X253714Y551697D01*
X253694Y551694D01*
X253675Y551696D01*
X253573Y551674D01*
X253471Y551658D01*
X253454Y551648D01*
X253434Y551644D01*
X253345Y551591D01*
X253254Y551542D01*
X253240Y551528D01*
X253223Y551518D01*
X253156Y551439D01*
X253084Y551364D01*
X253076Y551346D01*
X253063Y551331D01*
X253024Y551235D01*
X252981Y551141D01*
X252979Y551121D01*
X252971Y551103D01*
X252953Y550936D01*
X252953Y548652D01*
X247298Y542997D01*
X239302Y542997D01*
G37*
%LPD*%
%LPC*%
G36*
X489302Y542997D02*
X489302Y542997D01*
X483647Y548652D01*
X483647Y556648D01*
X489302Y562303D01*
X497298Y562303D01*
X501075Y558526D01*
X501149Y558473D01*
X501219Y558413D01*
X501249Y558401D01*
X501275Y558382D01*
X501362Y558355D01*
X501447Y558321D01*
X501488Y558317D01*
X501510Y558310D01*
X501542Y558311D01*
X501614Y558303D01*
X510386Y558303D01*
X510476Y558317D01*
X510567Y558325D01*
X510597Y558337D01*
X510629Y558342D01*
X510710Y558385D01*
X510794Y558421D01*
X510826Y558447D01*
X510847Y558458D01*
X510869Y558481D01*
X510925Y558526D01*
X514702Y562303D01*
X522698Y562303D01*
X528353Y556648D01*
X528353Y548652D01*
X522698Y542997D01*
X514702Y542997D01*
X509047Y548652D01*
X509047Y550936D01*
X509044Y550956D01*
X509046Y550975D01*
X509024Y551077D01*
X509008Y551179D01*
X508998Y551196D01*
X508994Y551216D01*
X508941Y551305D01*
X508892Y551396D01*
X508878Y551410D01*
X508868Y551427D01*
X508789Y551494D01*
X508714Y551566D01*
X508696Y551574D01*
X508681Y551587D01*
X508585Y551626D01*
X508491Y551669D01*
X508471Y551671D01*
X508453Y551679D01*
X508286Y551697D01*
X503714Y551697D01*
X503694Y551694D01*
X503675Y551696D01*
X503573Y551674D01*
X503471Y551658D01*
X503454Y551648D01*
X503434Y551644D01*
X503345Y551591D01*
X503254Y551542D01*
X503240Y551528D01*
X503223Y551518D01*
X503156Y551439D01*
X503084Y551364D01*
X503076Y551346D01*
X503063Y551331D01*
X503024Y551235D01*
X502981Y551141D01*
X502979Y551121D01*
X502971Y551103D01*
X502953Y550936D01*
X502953Y548652D01*
X497298Y542997D01*
X489302Y542997D01*
G37*
%LPD*%
%LPC*%
G36*
X239302Y517597D02*
X239302Y517597D01*
X233647Y523252D01*
X233647Y531248D01*
X239302Y536903D01*
X247298Y536903D01*
X252953Y531248D01*
X252953Y529064D01*
X252956Y529044D01*
X252954Y529025D01*
X252976Y528923D01*
X252992Y528821D01*
X253002Y528804D01*
X253006Y528784D01*
X253059Y528695D01*
X253108Y528604D01*
X253122Y528590D01*
X253132Y528573D01*
X253211Y528506D01*
X253286Y528434D01*
X253304Y528426D01*
X253319Y528413D01*
X253415Y528374D01*
X253509Y528331D01*
X253529Y528329D01*
X253547Y528321D01*
X253714Y528303D01*
X258286Y528303D01*
X258306Y528306D01*
X258325Y528304D01*
X258427Y528326D01*
X258529Y528342D01*
X258546Y528352D01*
X258566Y528356D01*
X258655Y528409D01*
X258746Y528458D01*
X258760Y528472D01*
X258777Y528482D01*
X258844Y528561D01*
X258916Y528636D01*
X258924Y528654D01*
X258937Y528669D01*
X258976Y528765D01*
X259019Y528859D01*
X259021Y528879D01*
X259029Y528897D01*
X259047Y529064D01*
X259047Y531248D01*
X264702Y536903D01*
X272698Y536903D01*
X278353Y531248D01*
X278353Y523252D01*
X272698Y517597D01*
X264702Y517597D01*
X260825Y521474D01*
X260751Y521527D01*
X260681Y521587D01*
X260651Y521599D01*
X260625Y521618D01*
X260538Y521645D01*
X260453Y521679D01*
X260412Y521683D01*
X260390Y521690D01*
X260358Y521689D01*
X260286Y521697D01*
X251714Y521697D01*
X251624Y521683D01*
X251533Y521675D01*
X251503Y521663D01*
X251471Y521658D01*
X251390Y521615D01*
X251306Y521579D01*
X251274Y521553D01*
X251253Y521542D01*
X251231Y521519D01*
X251175Y521474D01*
X247298Y517597D01*
X239302Y517597D01*
G37*
%LPD*%
%LPC*%
G36*
X489302Y238197D02*
X489302Y238197D01*
X483647Y243852D01*
X483647Y251848D01*
X489302Y257503D01*
X497298Y257503D01*
X501275Y253526D01*
X501349Y253473D01*
X501419Y253413D01*
X501449Y253401D01*
X501475Y253382D01*
X501562Y253355D01*
X501647Y253321D01*
X501688Y253317D01*
X501710Y253310D01*
X501742Y253311D01*
X501814Y253303D01*
X510186Y253303D01*
X510276Y253317D01*
X510367Y253325D01*
X510397Y253337D01*
X510429Y253342D01*
X510510Y253385D01*
X510594Y253421D01*
X510626Y253447D01*
X510647Y253458D01*
X510669Y253481D01*
X510725Y253526D01*
X514702Y257503D01*
X522698Y257503D01*
X528353Y251848D01*
X528353Y243852D01*
X522698Y238197D01*
X514702Y238197D01*
X509047Y243852D01*
X509047Y245936D01*
X509044Y245956D01*
X509046Y245975D01*
X509024Y246077D01*
X509008Y246179D01*
X508998Y246196D01*
X508994Y246216D01*
X508941Y246305D01*
X508892Y246396D01*
X508878Y246410D01*
X508868Y246427D01*
X508789Y246494D01*
X508714Y246566D01*
X508696Y246574D01*
X508681Y246587D01*
X508585Y246626D01*
X508491Y246669D01*
X508471Y246671D01*
X508453Y246679D01*
X508286Y246697D01*
X503714Y246697D01*
X503694Y246694D01*
X503675Y246696D01*
X503573Y246674D01*
X503471Y246658D01*
X503454Y246648D01*
X503434Y246644D01*
X503345Y246591D01*
X503254Y246542D01*
X503240Y246528D01*
X503223Y246518D01*
X503156Y246439D01*
X503084Y246364D01*
X503076Y246346D01*
X503063Y246331D01*
X503024Y246235D01*
X502981Y246141D01*
X502979Y246121D01*
X502971Y246103D01*
X502953Y245936D01*
X502953Y243852D01*
X497298Y238197D01*
X489302Y238197D01*
G37*
%LPD*%
%LPC*%
G36*
X489302Y187397D02*
X489302Y187397D01*
X483647Y193052D01*
X483647Y201048D01*
X489302Y206703D01*
X497298Y206703D01*
X502953Y201048D01*
X502953Y199064D01*
X502956Y199044D01*
X502954Y199025D01*
X502976Y198923D01*
X502992Y198821D01*
X503002Y198804D01*
X503006Y198784D01*
X503059Y198695D01*
X503108Y198604D01*
X503122Y198590D01*
X503132Y198573D01*
X503211Y198506D01*
X503286Y198434D01*
X503304Y198426D01*
X503319Y198413D01*
X503415Y198374D01*
X503509Y198331D01*
X503529Y198329D01*
X503547Y198321D01*
X503714Y198303D01*
X508286Y198303D01*
X508306Y198306D01*
X508325Y198304D01*
X508427Y198326D01*
X508529Y198342D01*
X508546Y198352D01*
X508566Y198356D01*
X508655Y198409D01*
X508746Y198458D01*
X508760Y198472D01*
X508777Y198482D01*
X508844Y198561D01*
X508916Y198636D01*
X508924Y198654D01*
X508937Y198669D01*
X508976Y198765D01*
X509019Y198859D01*
X509021Y198879D01*
X509029Y198897D01*
X509047Y199064D01*
X509047Y201048D01*
X514702Y206703D01*
X522698Y206703D01*
X528353Y201048D01*
X528353Y193052D01*
X522698Y187397D01*
X514702Y187397D01*
X510625Y191474D01*
X510551Y191527D01*
X510481Y191587D01*
X510451Y191599D01*
X510425Y191618D01*
X510338Y191645D01*
X510253Y191679D01*
X510212Y191683D01*
X510190Y191690D01*
X510158Y191689D01*
X510086Y191697D01*
X501914Y191697D01*
X501824Y191683D01*
X501733Y191675D01*
X501703Y191663D01*
X501671Y191658D01*
X501590Y191615D01*
X501506Y191579D01*
X501474Y191553D01*
X501453Y191542D01*
X501449Y191537D01*
X501448Y191537D01*
X501430Y191518D01*
X501375Y191474D01*
X497298Y187397D01*
X489302Y187397D01*
G37*
%LPD*%
%LPC*%
G36*
X239302Y187397D02*
X239302Y187397D01*
X233647Y193052D01*
X233647Y201048D01*
X239302Y206703D01*
X247298Y206703D01*
X252953Y201048D01*
X252953Y199064D01*
X252956Y199044D01*
X252954Y199025D01*
X252976Y198923D01*
X252992Y198821D01*
X253002Y198804D01*
X253006Y198784D01*
X253059Y198695D01*
X253108Y198604D01*
X253122Y198590D01*
X253132Y198573D01*
X253211Y198506D01*
X253286Y198434D01*
X253304Y198426D01*
X253319Y198413D01*
X253415Y198374D01*
X253509Y198331D01*
X253529Y198329D01*
X253547Y198321D01*
X253714Y198303D01*
X258286Y198303D01*
X258306Y198306D01*
X258325Y198304D01*
X258427Y198326D01*
X258529Y198342D01*
X258546Y198352D01*
X258566Y198356D01*
X258655Y198409D01*
X258746Y198458D01*
X258760Y198472D01*
X258777Y198482D01*
X258844Y198561D01*
X258916Y198636D01*
X258924Y198654D01*
X258937Y198669D01*
X258976Y198765D01*
X259019Y198859D01*
X259021Y198879D01*
X259029Y198897D01*
X259047Y199064D01*
X259047Y201048D01*
X264702Y206703D01*
X272698Y206703D01*
X278353Y201048D01*
X278353Y193052D01*
X272698Y187397D01*
X264702Y187397D01*
X260625Y191474D01*
X260551Y191527D01*
X260481Y191587D01*
X260451Y191599D01*
X260425Y191618D01*
X260338Y191645D01*
X260253Y191679D01*
X260212Y191683D01*
X260190Y191690D01*
X260158Y191689D01*
X260086Y191697D01*
X251914Y191697D01*
X251824Y191683D01*
X251733Y191675D01*
X251703Y191663D01*
X251671Y191658D01*
X251590Y191615D01*
X251506Y191579D01*
X251474Y191553D01*
X251453Y191542D01*
X251449Y191537D01*
X251448Y191537D01*
X251430Y191518D01*
X251375Y191474D01*
X247298Y187397D01*
X239302Y187397D01*
G37*
%LPD*%
%LPC*%
G36*
X489302Y492197D02*
X489302Y492197D01*
X483647Y497852D01*
X483647Y505848D01*
X489302Y511503D01*
X497298Y511503D01*
X502953Y505848D01*
X502953Y504064D01*
X502956Y504044D01*
X502954Y504025D01*
X502976Y503923D01*
X502992Y503821D01*
X503002Y503804D01*
X503006Y503784D01*
X503059Y503695D01*
X503108Y503604D01*
X503122Y503590D01*
X503132Y503573D01*
X503211Y503506D01*
X503286Y503434D01*
X503304Y503426D01*
X503319Y503413D01*
X503415Y503374D01*
X503509Y503331D01*
X503529Y503329D01*
X503547Y503321D01*
X503714Y503303D01*
X508286Y503303D01*
X508306Y503306D01*
X508325Y503304D01*
X508427Y503326D01*
X508529Y503342D01*
X508546Y503352D01*
X508566Y503356D01*
X508655Y503409D01*
X508746Y503458D01*
X508760Y503472D01*
X508777Y503482D01*
X508844Y503561D01*
X508916Y503636D01*
X508924Y503654D01*
X508937Y503669D01*
X508975Y503765D01*
X509019Y503859D01*
X509021Y503879D01*
X509029Y503897D01*
X509047Y504064D01*
X509047Y505848D01*
X514702Y511503D01*
X522698Y511503D01*
X528353Y505848D01*
X528353Y497852D01*
X522698Y492197D01*
X514702Y492197D01*
X510425Y496474D01*
X510351Y496527D01*
X510281Y496587D01*
X510251Y496599D01*
X510225Y496618D01*
X510138Y496645D01*
X510053Y496679D01*
X510012Y496683D01*
X509990Y496690D01*
X509958Y496689D01*
X509886Y496697D01*
X502114Y496697D01*
X502024Y496683D01*
X501933Y496675D01*
X501903Y496663D01*
X501871Y496658D01*
X501790Y496615D01*
X501706Y496579D01*
X501674Y496553D01*
X501653Y496542D01*
X501631Y496519D01*
X501575Y496474D01*
X497298Y492197D01*
X489302Y492197D01*
G37*
%LPD*%
%LPC*%
G36*
X239302Y492197D02*
X239302Y492197D01*
X233647Y497852D01*
X233647Y505848D01*
X239302Y511503D01*
X247298Y511503D01*
X252953Y505848D01*
X252953Y504064D01*
X252956Y504044D01*
X252954Y504025D01*
X252976Y503923D01*
X252992Y503821D01*
X253002Y503804D01*
X253006Y503784D01*
X253059Y503695D01*
X253108Y503604D01*
X253122Y503590D01*
X253132Y503573D01*
X253211Y503506D01*
X253286Y503434D01*
X253304Y503426D01*
X253319Y503413D01*
X253415Y503374D01*
X253509Y503331D01*
X253529Y503329D01*
X253547Y503321D01*
X253714Y503303D01*
X258286Y503303D01*
X258306Y503306D01*
X258325Y503304D01*
X258427Y503326D01*
X258529Y503342D01*
X258546Y503352D01*
X258566Y503356D01*
X258655Y503409D01*
X258746Y503458D01*
X258760Y503472D01*
X258777Y503482D01*
X258844Y503561D01*
X258916Y503636D01*
X258924Y503654D01*
X258937Y503669D01*
X258975Y503765D01*
X259019Y503859D01*
X259021Y503879D01*
X259029Y503897D01*
X259047Y504064D01*
X259047Y505848D01*
X264702Y511503D01*
X272698Y511503D01*
X278353Y505848D01*
X278353Y497852D01*
X272698Y492197D01*
X264702Y492197D01*
X260425Y496474D01*
X260351Y496527D01*
X260281Y496587D01*
X260251Y496599D01*
X260225Y496618D01*
X260138Y496645D01*
X260053Y496679D01*
X260012Y496683D01*
X259990Y496690D01*
X259958Y496689D01*
X259886Y496697D01*
X252114Y496697D01*
X252024Y496683D01*
X251933Y496675D01*
X251903Y496663D01*
X251871Y496658D01*
X251790Y496615D01*
X251706Y496579D01*
X251674Y496553D01*
X251653Y496542D01*
X251631Y496519D01*
X251575Y496474D01*
X247298Y492197D01*
X239302Y492197D01*
G37*
%LPD*%
%LPC*%
G36*
X239302Y263597D02*
X239302Y263597D01*
X233647Y269252D01*
X233647Y277248D01*
X239302Y282903D01*
X247298Y282903D01*
X251675Y278526D01*
X251749Y278473D01*
X251819Y278413D01*
X251849Y278401D01*
X251875Y278382D01*
X251962Y278355D01*
X252047Y278321D01*
X252088Y278317D01*
X252110Y278310D01*
X252142Y278311D01*
X252214Y278303D01*
X259786Y278303D01*
X259876Y278317D01*
X259967Y278325D01*
X259997Y278337D01*
X260029Y278342D01*
X260110Y278385D01*
X260194Y278421D01*
X260226Y278447D01*
X260247Y278458D01*
X260269Y278481D01*
X260325Y278526D01*
X264702Y282903D01*
X272698Y282903D01*
X278353Y277248D01*
X278353Y269252D01*
X272698Y263597D01*
X264702Y263597D01*
X259047Y269252D01*
X259047Y270936D01*
X259044Y270956D01*
X259046Y270975D01*
X259024Y271077D01*
X259008Y271179D01*
X258998Y271196D01*
X258994Y271216D01*
X258941Y271305D01*
X258892Y271396D01*
X258878Y271410D01*
X258868Y271427D01*
X258789Y271494D01*
X258714Y271566D01*
X258696Y271574D01*
X258681Y271587D01*
X258585Y271626D01*
X258491Y271669D01*
X258471Y271671D01*
X258453Y271679D01*
X258286Y271697D01*
X253714Y271697D01*
X253694Y271694D01*
X253675Y271696D01*
X253573Y271674D01*
X253471Y271658D01*
X253454Y271648D01*
X253434Y271644D01*
X253345Y271591D01*
X253254Y271542D01*
X253240Y271528D01*
X253223Y271518D01*
X253156Y271439D01*
X253084Y271364D01*
X253076Y271346D01*
X253063Y271331D01*
X253024Y271235D01*
X252981Y271141D01*
X252979Y271121D01*
X252971Y271103D01*
X252953Y270936D01*
X252953Y269252D01*
X247298Y263597D01*
X239302Y263597D01*
G37*
%LPD*%
%LPC*%
G36*
X489302Y263597D02*
X489302Y263597D01*
X483647Y269252D01*
X483647Y277248D01*
X489302Y282903D01*
X497298Y282903D01*
X501675Y278526D01*
X501749Y278473D01*
X501819Y278413D01*
X501849Y278401D01*
X501875Y278382D01*
X501962Y278355D01*
X502047Y278321D01*
X502088Y278317D01*
X502110Y278310D01*
X502142Y278311D01*
X502214Y278303D01*
X509786Y278303D01*
X509877Y278317D01*
X509967Y278325D01*
X509997Y278337D01*
X510029Y278342D01*
X510110Y278385D01*
X510194Y278421D01*
X510226Y278447D01*
X510247Y278458D01*
X510269Y278481D01*
X510325Y278526D01*
X514702Y282903D01*
X522698Y282903D01*
X528353Y277248D01*
X528353Y269252D01*
X522698Y263597D01*
X514702Y263597D01*
X509047Y269252D01*
X509047Y270936D01*
X509044Y270956D01*
X509046Y270975D01*
X509024Y271077D01*
X509008Y271179D01*
X508998Y271196D01*
X508994Y271216D01*
X508941Y271305D01*
X508892Y271396D01*
X508878Y271410D01*
X508868Y271427D01*
X508789Y271494D01*
X508714Y271566D01*
X508696Y271574D01*
X508681Y271587D01*
X508585Y271626D01*
X508491Y271669D01*
X508471Y271671D01*
X508453Y271679D01*
X508286Y271697D01*
X503714Y271697D01*
X503694Y271694D01*
X503675Y271696D01*
X503573Y271674D01*
X503471Y271658D01*
X503454Y271648D01*
X503434Y271644D01*
X503345Y271591D01*
X503254Y271542D01*
X503240Y271528D01*
X503223Y271518D01*
X503156Y271439D01*
X503084Y271364D01*
X503076Y271346D01*
X503063Y271331D01*
X503024Y271235D01*
X502981Y271141D01*
X502979Y271121D01*
X502971Y271103D01*
X502953Y270936D01*
X502953Y269252D01*
X497298Y263597D01*
X489302Y263597D01*
G37*
%LPD*%
%LPC*%
G36*
X489302Y161997D02*
X489302Y161997D01*
X483647Y167652D01*
X483647Y175648D01*
X489302Y181303D01*
X497298Y181303D01*
X502953Y175648D01*
X502953Y174064D01*
X502956Y174044D01*
X502954Y174025D01*
X502976Y173923D01*
X502992Y173821D01*
X503002Y173804D01*
X503006Y173784D01*
X503059Y173695D01*
X503108Y173604D01*
X503122Y173590D01*
X503132Y173573D01*
X503211Y173506D01*
X503286Y173434D01*
X503304Y173426D01*
X503319Y173413D01*
X503415Y173374D01*
X503509Y173331D01*
X503529Y173329D01*
X503547Y173321D01*
X503714Y173303D01*
X508286Y173303D01*
X508306Y173306D01*
X508325Y173304D01*
X508427Y173326D01*
X508529Y173342D01*
X508546Y173352D01*
X508566Y173356D01*
X508655Y173409D01*
X508746Y173458D01*
X508760Y173472D01*
X508777Y173482D01*
X508844Y173561D01*
X508916Y173636D01*
X508924Y173654D01*
X508937Y173669D01*
X508976Y173765D01*
X509019Y173859D01*
X509021Y173879D01*
X509029Y173897D01*
X509047Y174064D01*
X509047Y175648D01*
X514702Y181303D01*
X522698Y181303D01*
X528353Y175648D01*
X528353Y167652D01*
X522698Y161997D01*
X514702Y161997D01*
X510225Y166474D01*
X510151Y166527D01*
X510081Y166587D01*
X510051Y166599D01*
X510025Y166618D01*
X509938Y166645D01*
X509853Y166679D01*
X509812Y166683D01*
X509790Y166690D01*
X509758Y166689D01*
X509686Y166697D01*
X502314Y166697D01*
X502224Y166683D01*
X502133Y166675D01*
X502103Y166663D01*
X502071Y166658D01*
X501990Y166615D01*
X501906Y166579D01*
X501874Y166553D01*
X501853Y166542D01*
X501831Y166519D01*
X501775Y166474D01*
X497298Y161997D01*
X489302Y161997D01*
G37*
%LPD*%
%LPC*%
G36*
X239302Y161997D02*
X239302Y161997D01*
X233647Y167652D01*
X233647Y175648D01*
X239302Y181303D01*
X247298Y181303D01*
X252953Y175648D01*
X252953Y174064D01*
X252956Y174044D01*
X252954Y174025D01*
X252976Y173923D01*
X252992Y173821D01*
X253002Y173804D01*
X253006Y173784D01*
X253059Y173695D01*
X253108Y173604D01*
X253122Y173590D01*
X253132Y173573D01*
X253211Y173506D01*
X253286Y173434D01*
X253304Y173426D01*
X253319Y173413D01*
X253415Y173374D01*
X253509Y173331D01*
X253529Y173329D01*
X253547Y173321D01*
X253714Y173303D01*
X258286Y173303D01*
X258306Y173306D01*
X258325Y173304D01*
X258427Y173326D01*
X258529Y173342D01*
X258546Y173352D01*
X258566Y173356D01*
X258655Y173409D01*
X258746Y173458D01*
X258760Y173472D01*
X258777Y173482D01*
X258844Y173561D01*
X258916Y173636D01*
X258924Y173654D01*
X258937Y173669D01*
X258976Y173765D01*
X259019Y173859D01*
X259021Y173879D01*
X259029Y173897D01*
X259047Y174064D01*
X259047Y175648D01*
X264702Y181303D01*
X272698Y181303D01*
X278353Y175648D01*
X278353Y167652D01*
X272698Y161997D01*
X264702Y161997D01*
X260225Y166474D01*
X260151Y166527D01*
X260081Y166587D01*
X260051Y166599D01*
X260025Y166618D01*
X259938Y166645D01*
X259853Y166679D01*
X259812Y166683D01*
X259790Y166690D01*
X259758Y166689D01*
X259686Y166697D01*
X252314Y166697D01*
X252224Y166683D01*
X252133Y166675D01*
X252103Y166663D01*
X252071Y166658D01*
X251990Y166615D01*
X251906Y166579D01*
X251874Y166553D01*
X251853Y166542D01*
X251831Y166519D01*
X251775Y166474D01*
X247298Y161997D01*
X239302Y161997D01*
G37*
%LPD*%
%LPC*%
G36*
X239302Y466797D02*
X239302Y466797D01*
X233647Y472452D01*
X233647Y480448D01*
X239302Y486103D01*
X247298Y486103D01*
X252953Y480448D01*
X252953Y479064D01*
X252956Y479044D01*
X252954Y479025D01*
X252976Y478923D01*
X252992Y478821D01*
X253002Y478804D01*
X253006Y478784D01*
X253059Y478695D01*
X253108Y478604D01*
X253122Y478590D01*
X253132Y478573D01*
X253211Y478506D01*
X253286Y478434D01*
X253304Y478426D01*
X253319Y478413D01*
X253415Y478374D01*
X253509Y478331D01*
X253529Y478329D01*
X253547Y478321D01*
X253714Y478303D01*
X258286Y478303D01*
X258306Y478306D01*
X258325Y478304D01*
X258427Y478326D01*
X258529Y478342D01*
X258546Y478352D01*
X258566Y478356D01*
X258655Y478409D01*
X258746Y478458D01*
X258760Y478472D01*
X258777Y478482D01*
X258844Y478561D01*
X258916Y478636D01*
X258924Y478654D01*
X258937Y478669D01*
X258976Y478765D01*
X259019Y478859D01*
X259021Y478879D01*
X259029Y478897D01*
X259047Y479064D01*
X259047Y480448D01*
X264702Y486103D01*
X272698Y486103D01*
X278353Y480448D01*
X278353Y472452D01*
X272698Y466797D01*
X264702Y466797D01*
X260025Y471474D01*
X259951Y471527D01*
X259881Y471587D01*
X259851Y471599D01*
X259825Y471618D01*
X259738Y471645D01*
X259653Y471679D01*
X259612Y471683D01*
X259590Y471690D01*
X259558Y471689D01*
X259486Y471697D01*
X252514Y471697D01*
X252424Y471683D01*
X252333Y471675D01*
X252303Y471663D01*
X252271Y471658D01*
X252190Y471615D01*
X252106Y471579D01*
X252074Y471553D01*
X252053Y471542D01*
X252031Y471519D01*
X251975Y471474D01*
X247298Y466797D01*
X239302Y466797D01*
G37*
%LPD*%
%LPC*%
G36*
X489302Y466797D02*
X489302Y466797D01*
X483647Y472452D01*
X483647Y480448D01*
X489302Y486103D01*
X497298Y486103D01*
X502953Y480448D01*
X502953Y479064D01*
X502956Y479044D01*
X502954Y479025D01*
X502976Y478923D01*
X502992Y478821D01*
X503002Y478804D01*
X503006Y478784D01*
X503059Y478695D01*
X503108Y478604D01*
X503122Y478590D01*
X503132Y478573D01*
X503211Y478506D01*
X503286Y478434D01*
X503304Y478426D01*
X503319Y478413D01*
X503415Y478374D01*
X503509Y478331D01*
X503529Y478329D01*
X503547Y478321D01*
X503714Y478303D01*
X508286Y478303D01*
X508306Y478306D01*
X508325Y478304D01*
X508427Y478326D01*
X508529Y478342D01*
X508546Y478352D01*
X508566Y478356D01*
X508655Y478409D01*
X508746Y478458D01*
X508760Y478472D01*
X508777Y478482D01*
X508844Y478561D01*
X508916Y478636D01*
X508924Y478654D01*
X508937Y478669D01*
X508976Y478765D01*
X509019Y478859D01*
X509021Y478879D01*
X509029Y478897D01*
X509047Y479064D01*
X509047Y480448D01*
X514702Y486103D01*
X522698Y486103D01*
X528353Y480448D01*
X528353Y472452D01*
X522698Y466797D01*
X514702Y466797D01*
X510025Y471474D01*
X509951Y471527D01*
X509881Y471587D01*
X509851Y471599D01*
X509825Y471618D01*
X509738Y471645D01*
X509653Y471679D01*
X509612Y471683D01*
X509590Y471690D01*
X509558Y471689D01*
X509486Y471697D01*
X502514Y471697D01*
X502424Y471683D01*
X502333Y471675D01*
X502303Y471663D01*
X502271Y471658D01*
X502190Y471615D01*
X502106Y471579D01*
X502074Y471553D01*
X502053Y471542D01*
X502031Y471519D01*
X501975Y471474D01*
X497298Y466797D01*
X489302Y466797D01*
G37*
%LPD*%
%LPC*%
G36*
X239302Y288997D02*
X239302Y288997D01*
X233647Y294652D01*
X233647Y302648D01*
X239302Y308303D01*
X247298Y308303D01*
X252075Y303526D01*
X252149Y303473D01*
X252219Y303413D01*
X252249Y303401D01*
X252275Y303382D01*
X252362Y303355D01*
X252447Y303321D01*
X252488Y303317D01*
X252510Y303310D01*
X252542Y303311D01*
X252614Y303303D01*
X259386Y303303D01*
X259476Y303317D01*
X259567Y303325D01*
X259597Y303337D01*
X259629Y303342D01*
X259710Y303385D01*
X259794Y303421D01*
X259826Y303447D01*
X259847Y303458D01*
X259869Y303481D01*
X259925Y303526D01*
X264702Y308303D01*
X272698Y308303D01*
X278353Y302648D01*
X278353Y294652D01*
X272698Y288997D01*
X264702Y288997D01*
X259047Y294652D01*
X259047Y295936D01*
X259044Y295956D01*
X259046Y295975D01*
X259024Y296077D01*
X259008Y296179D01*
X258998Y296196D01*
X258994Y296216D01*
X258941Y296305D01*
X258892Y296396D01*
X258878Y296410D01*
X258868Y296427D01*
X258789Y296494D01*
X258714Y296566D01*
X258696Y296574D01*
X258681Y296587D01*
X258585Y296626D01*
X258491Y296669D01*
X258471Y296671D01*
X258453Y296679D01*
X258286Y296697D01*
X253714Y296697D01*
X253694Y296694D01*
X253675Y296696D01*
X253573Y296674D01*
X253471Y296658D01*
X253454Y296648D01*
X253434Y296644D01*
X253345Y296591D01*
X253254Y296542D01*
X253240Y296528D01*
X253223Y296518D01*
X253156Y296439D01*
X253084Y296364D01*
X253076Y296346D01*
X253063Y296331D01*
X253024Y296235D01*
X252981Y296141D01*
X252979Y296121D01*
X252971Y296103D01*
X252953Y295936D01*
X252953Y294652D01*
X247298Y288997D01*
X239302Y288997D01*
G37*
%LPD*%
%LPC*%
G36*
X239302Y136597D02*
X239302Y136597D01*
X233647Y142252D01*
X233647Y150248D01*
X239302Y155903D01*
X247298Y155903D01*
X252953Y150248D01*
X252953Y149064D01*
X252956Y149044D01*
X252954Y149025D01*
X252976Y148923D01*
X252992Y148821D01*
X253002Y148804D01*
X253006Y148784D01*
X253059Y148695D01*
X253108Y148604D01*
X253122Y148590D01*
X253132Y148573D01*
X253211Y148506D01*
X253286Y148434D01*
X253304Y148426D01*
X253319Y148413D01*
X253415Y148374D01*
X253509Y148331D01*
X253529Y148329D01*
X253547Y148321D01*
X253714Y148303D01*
X258286Y148303D01*
X258306Y148306D01*
X258325Y148304D01*
X258427Y148326D01*
X258529Y148342D01*
X258546Y148352D01*
X258566Y148356D01*
X258655Y148409D01*
X258746Y148458D01*
X258760Y148472D01*
X258777Y148482D01*
X258844Y148561D01*
X258916Y148636D01*
X258924Y148654D01*
X258937Y148669D01*
X258976Y148765D01*
X259019Y148859D01*
X259021Y148879D01*
X259029Y148897D01*
X259047Y149064D01*
X259047Y150248D01*
X264702Y155903D01*
X272698Y155903D01*
X278353Y150248D01*
X278353Y142252D01*
X272698Y136597D01*
X264702Y136597D01*
X259825Y141474D01*
X259751Y141527D01*
X259681Y141587D01*
X259651Y141599D01*
X259625Y141618D01*
X259538Y141645D01*
X259453Y141679D01*
X259412Y141683D01*
X259390Y141690D01*
X259358Y141689D01*
X259286Y141697D01*
X252714Y141697D01*
X252624Y141683D01*
X252533Y141675D01*
X252503Y141663D01*
X252471Y141658D01*
X252390Y141615D01*
X252306Y141579D01*
X252274Y141553D01*
X252253Y141542D01*
X252231Y141519D01*
X252175Y141474D01*
X247298Y136597D01*
X239302Y136597D01*
G37*
%LPD*%
%LPC*%
G36*
X489302Y136597D02*
X489302Y136597D01*
X483647Y142252D01*
X483647Y150248D01*
X489302Y155903D01*
X497298Y155903D01*
X502953Y150248D01*
X502953Y149064D01*
X502956Y149044D01*
X502954Y149025D01*
X502976Y148923D01*
X502992Y148821D01*
X503002Y148804D01*
X503006Y148784D01*
X503059Y148695D01*
X503108Y148604D01*
X503122Y148590D01*
X503132Y148573D01*
X503211Y148506D01*
X503286Y148434D01*
X503304Y148426D01*
X503319Y148413D01*
X503415Y148374D01*
X503509Y148331D01*
X503529Y148329D01*
X503547Y148321D01*
X503714Y148303D01*
X508286Y148303D01*
X508306Y148306D01*
X508325Y148304D01*
X508427Y148326D01*
X508529Y148342D01*
X508546Y148352D01*
X508566Y148356D01*
X508655Y148409D01*
X508746Y148458D01*
X508760Y148472D01*
X508777Y148482D01*
X508844Y148561D01*
X508916Y148636D01*
X508924Y148654D01*
X508937Y148669D01*
X508976Y148765D01*
X509019Y148859D01*
X509021Y148879D01*
X509029Y148897D01*
X509047Y149064D01*
X509047Y150248D01*
X514702Y155903D01*
X522698Y155903D01*
X528353Y150248D01*
X528353Y142252D01*
X522698Y136597D01*
X514702Y136597D01*
X509825Y141474D01*
X509751Y141527D01*
X509681Y141587D01*
X509651Y141599D01*
X509625Y141618D01*
X509538Y141645D01*
X509453Y141679D01*
X509412Y141683D01*
X509390Y141690D01*
X509358Y141689D01*
X509286Y141697D01*
X502714Y141697D01*
X502624Y141683D01*
X502533Y141675D01*
X502503Y141663D01*
X502471Y141658D01*
X502390Y141615D01*
X502306Y141579D01*
X502274Y141553D01*
X502253Y141542D01*
X502231Y141519D01*
X502175Y141474D01*
X497298Y136597D01*
X489302Y136597D01*
G37*
%LPD*%
%LPC*%
G36*
X489302Y365197D02*
X489302Y365197D01*
X483647Y370852D01*
X483647Y378848D01*
X489302Y384503D01*
X497298Y384503D01*
X503003Y378798D01*
X503006Y378784D01*
X503059Y378695D01*
X503108Y378604D01*
X503122Y378590D01*
X503132Y378573D01*
X503211Y378506D01*
X503286Y378434D01*
X503304Y378426D01*
X503319Y378413D01*
X503415Y378374D01*
X503509Y378331D01*
X503529Y378329D01*
X503547Y378321D01*
X503714Y378303D01*
X508286Y378303D01*
X508306Y378306D01*
X508325Y378304D01*
X508427Y378326D01*
X508529Y378342D01*
X508546Y378352D01*
X508566Y378356D01*
X508655Y378409D01*
X508746Y378458D01*
X508760Y378472D01*
X508777Y378482D01*
X508844Y378561D01*
X508916Y378636D01*
X508924Y378654D01*
X508937Y378669D01*
X508976Y378765D01*
X508985Y378786D01*
X514702Y384503D01*
X522698Y384503D01*
X528353Y378848D01*
X528353Y370852D01*
X522698Y365197D01*
X514702Y365197D01*
X509047Y370852D01*
X509047Y370936D01*
X509044Y370956D01*
X509046Y370975D01*
X509024Y371077D01*
X509008Y371179D01*
X508998Y371196D01*
X508994Y371216D01*
X508941Y371305D01*
X508892Y371396D01*
X508878Y371410D01*
X508868Y371427D01*
X508789Y371494D01*
X508714Y371566D01*
X508696Y371574D01*
X508681Y371587D01*
X508585Y371626D01*
X508491Y371669D01*
X508471Y371671D01*
X508453Y371679D01*
X508286Y371697D01*
X503714Y371697D01*
X503694Y371694D01*
X503675Y371696D01*
X503573Y371674D01*
X503471Y371658D01*
X503454Y371648D01*
X503434Y371644D01*
X503345Y371591D01*
X503254Y371542D01*
X503240Y371528D01*
X503223Y371518D01*
X503156Y371439D01*
X503084Y371364D01*
X503076Y371346D01*
X503063Y371331D01*
X503024Y371235D01*
X502981Y371141D01*
X502979Y371121D01*
X502971Y371103D01*
X502953Y370936D01*
X502953Y370852D01*
X497298Y365197D01*
X489302Y365197D01*
G37*
%LPD*%
%LPC*%
G36*
X239302Y365197D02*
X239302Y365197D01*
X233647Y370852D01*
X233647Y378848D01*
X239302Y384503D01*
X247298Y384503D01*
X253003Y378798D01*
X253006Y378784D01*
X253059Y378695D01*
X253108Y378604D01*
X253122Y378590D01*
X253132Y378573D01*
X253211Y378506D01*
X253286Y378434D01*
X253304Y378426D01*
X253319Y378413D01*
X253415Y378374D01*
X253509Y378331D01*
X253529Y378329D01*
X253547Y378321D01*
X253714Y378303D01*
X258286Y378303D01*
X258306Y378306D01*
X258325Y378304D01*
X258427Y378326D01*
X258529Y378342D01*
X258546Y378352D01*
X258566Y378356D01*
X258655Y378409D01*
X258746Y378458D01*
X258760Y378472D01*
X258777Y378482D01*
X258844Y378561D01*
X258916Y378636D01*
X258924Y378654D01*
X258937Y378669D01*
X258976Y378765D01*
X258985Y378786D01*
X264702Y384503D01*
X272698Y384503D01*
X278353Y378848D01*
X278353Y370852D01*
X272698Y365197D01*
X264702Y365197D01*
X259047Y370852D01*
X259047Y370936D01*
X259044Y370956D01*
X259046Y370975D01*
X259024Y371077D01*
X259008Y371179D01*
X258998Y371196D01*
X258994Y371216D01*
X258941Y371305D01*
X258892Y371396D01*
X258878Y371410D01*
X258868Y371427D01*
X258789Y371494D01*
X258714Y371566D01*
X258696Y371574D01*
X258681Y371587D01*
X258585Y371626D01*
X258491Y371669D01*
X258471Y371671D01*
X258453Y371679D01*
X258286Y371697D01*
X253714Y371697D01*
X253694Y371694D01*
X253675Y371696D01*
X253573Y371674D01*
X253471Y371658D01*
X253454Y371648D01*
X253434Y371644D01*
X253345Y371591D01*
X253254Y371542D01*
X253240Y371528D01*
X253223Y371518D01*
X253156Y371439D01*
X253084Y371364D01*
X253076Y371346D01*
X253063Y371331D01*
X253024Y371235D01*
X252981Y371141D01*
X252979Y371121D01*
X252971Y371103D01*
X252953Y370936D01*
X252953Y370852D01*
X247298Y365197D01*
X239302Y365197D01*
G37*
%LPD*%
%LPC*%
G36*
X239302Y390597D02*
X239302Y390597D01*
X233647Y396252D01*
X233647Y404248D01*
X239302Y409903D01*
X247298Y409903D01*
X252953Y404248D01*
X252953Y404064D01*
X252955Y404051D01*
X252954Y404041D01*
X252955Y404036D01*
X252954Y404025D01*
X252976Y403923D01*
X252992Y403821D01*
X253002Y403804D01*
X253006Y403784D01*
X253059Y403695D01*
X253108Y403604D01*
X253122Y403590D01*
X253132Y403573D01*
X253211Y403506D01*
X253286Y403434D01*
X253304Y403426D01*
X253319Y403413D01*
X253415Y403374D01*
X253509Y403331D01*
X253529Y403329D01*
X253547Y403321D01*
X253714Y403303D01*
X258286Y403303D01*
X258306Y403306D01*
X258325Y403304D01*
X258427Y403326D01*
X258529Y403342D01*
X258546Y403352D01*
X258566Y403356D01*
X258655Y403409D01*
X258746Y403458D01*
X258760Y403472D01*
X258777Y403482D01*
X258844Y403561D01*
X258916Y403636D01*
X258924Y403654D01*
X258937Y403669D01*
X258976Y403765D01*
X259019Y403859D01*
X259021Y403879D01*
X259029Y403897D01*
X259047Y404064D01*
X259047Y404248D01*
X264702Y409903D01*
X272698Y409903D01*
X278353Y404248D01*
X278353Y396252D01*
X272698Y390597D01*
X264702Y390597D01*
X258825Y396474D01*
X258751Y396527D01*
X258681Y396587D01*
X258651Y396599D01*
X258625Y396618D01*
X258538Y396645D01*
X258453Y396679D01*
X258412Y396683D01*
X258390Y396690D01*
X258358Y396689D01*
X258286Y396697D01*
X253714Y396697D01*
X253624Y396683D01*
X253533Y396675D01*
X253503Y396663D01*
X253471Y396658D01*
X253390Y396615D01*
X253306Y396579D01*
X253274Y396553D01*
X253253Y396542D01*
X253231Y396519D01*
X253175Y396474D01*
X247298Y390597D01*
X239302Y390597D01*
G37*
%LPD*%
%LPC*%
G36*
X489302Y390597D02*
X489302Y390597D01*
X483647Y396252D01*
X483647Y404248D01*
X489302Y409903D01*
X497298Y409903D01*
X502953Y404248D01*
X502953Y404064D01*
X502955Y404051D01*
X502954Y404041D01*
X502955Y404036D01*
X502954Y404025D01*
X502976Y403923D01*
X502992Y403821D01*
X503002Y403804D01*
X503006Y403784D01*
X503059Y403695D01*
X503108Y403604D01*
X503122Y403590D01*
X503132Y403573D01*
X503211Y403506D01*
X503286Y403434D01*
X503304Y403426D01*
X503319Y403413D01*
X503415Y403374D01*
X503509Y403331D01*
X503529Y403329D01*
X503547Y403321D01*
X503714Y403303D01*
X508286Y403303D01*
X508306Y403306D01*
X508325Y403304D01*
X508427Y403326D01*
X508529Y403342D01*
X508546Y403352D01*
X508566Y403356D01*
X508655Y403409D01*
X508746Y403458D01*
X508760Y403472D01*
X508777Y403482D01*
X508844Y403561D01*
X508916Y403636D01*
X508924Y403654D01*
X508937Y403669D01*
X508976Y403765D01*
X509019Y403859D01*
X509021Y403879D01*
X509029Y403897D01*
X509047Y404064D01*
X509047Y404248D01*
X514702Y409903D01*
X522698Y409903D01*
X528353Y404248D01*
X528353Y396252D01*
X522698Y390597D01*
X514702Y390597D01*
X508825Y396474D01*
X508751Y396527D01*
X508681Y396587D01*
X508651Y396599D01*
X508625Y396618D01*
X508538Y396645D01*
X508453Y396679D01*
X508412Y396683D01*
X508390Y396690D01*
X508358Y396689D01*
X508286Y396697D01*
X503714Y396697D01*
X503624Y396683D01*
X503533Y396675D01*
X503503Y396663D01*
X503471Y396658D01*
X503390Y396615D01*
X503306Y396579D01*
X503274Y396553D01*
X503253Y396542D01*
X503231Y396519D01*
X503175Y396474D01*
X497298Y390597D01*
X489302Y390597D01*
G37*
%LPD*%
%LPC*%
G36*
X489302Y441397D02*
X489302Y441397D01*
X483647Y447052D01*
X483647Y455048D01*
X489302Y460703D01*
X497298Y460703D01*
X502953Y455048D01*
X502953Y454064D01*
X502956Y454044D01*
X502954Y454025D01*
X502976Y453923D01*
X502992Y453821D01*
X503002Y453804D01*
X503006Y453784D01*
X503059Y453695D01*
X503108Y453604D01*
X503122Y453590D01*
X503132Y453573D01*
X503211Y453506D01*
X503286Y453434D01*
X503304Y453426D01*
X503319Y453413D01*
X503415Y453374D01*
X503509Y453331D01*
X503529Y453329D01*
X503547Y453321D01*
X503714Y453303D01*
X508286Y453303D01*
X508306Y453306D01*
X508325Y453304D01*
X508427Y453326D01*
X508529Y453342D01*
X508546Y453352D01*
X508566Y453356D01*
X508655Y453409D01*
X508746Y453458D01*
X508760Y453472D01*
X508777Y453482D01*
X508844Y453561D01*
X508916Y453636D01*
X508924Y453654D01*
X508937Y453669D01*
X508976Y453765D01*
X509019Y453859D01*
X509021Y453879D01*
X509029Y453897D01*
X509047Y454064D01*
X509047Y455048D01*
X514702Y460703D01*
X522698Y460703D01*
X528353Y455048D01*
X528353Y447052D01*
X522698Y441397D01*
X514702Y441397D01*
X509625Y446474D01*
X509551Y446527D01*
X509481Y446587D01*
X509451Y446599D01*
X509425Y446618D01*
X509338Y446645D01*
X509253Y446679D01*
X509212Y446683D01*
X509190Y446690D01*
X509158Y446689D01*
X509086Y446697D01*
X502914Y446697D01*
X502824Y446683D01*
X502733Y446675D01*
X502703Y446663D01*
X502671Y446658D01*
X502590Y446615D01*
X502506Y446579D01*
X502474Y446553D01*
X502453Y446542D01*
X502431Y446519D01*
X502375Y446474D01*
X497298Y441397D01*
X489302Y441397D01*
G37*
%LPD*%
%LPC*%
G36*
X239302Y441397D02*
X239302Y441397D01*
X233647Y447052D01*
X233647Y455048D01*
X239302Y460703D01*
X247298Y460703D01*
X252953Y455048D01*
X252953Y454064D01*
X252956Y454044D01*
X252954Y454025D01*
X252976Y453923D01*
X252992Y453821D01*
X253002Y453804D01*
X253006Y453784D01*
X253059Y453695D01*
X253108Y453604D01*
X253122Y453590D01*
X253132Y453573D01*
X253211Y453506D01*
X253286Y453434D01*
X253304Y453426D01*
X253319Y453413D01*
X253415Y453374D01*
X253509Y453331D01*
X253529Y453329D01*
X253547Y453321D01*
X253714Y453303D01*
X258286Y453303D01*
X258306Y453306D01*
X258325Y453304D01*
X258427Y453326D01*
X258529Y453342D01*
X258546Y453352D01*
X258566Y453356D01*
X258655Y453409D01*
X258746Y453458D01*
X258760Y453472D01*
X258777Y453482D01*
X258844Y453561D01*
X258916Y453636D01*
X258924Y453654D01*
X258937Y453669D01*
X258976Y453765D01*
X259019Y453859D01*
X259021Y453879D01*
X259029Y453897D01*
X259047Y454064D01*
X259047Y455048D01*
X264702Y460703D01*
X272698Y460703D01*
X278353Y455048D01*
X278353Y447052D01*
X272698Y441397D01*
X264702Y441397D01*
X259625Y446474D01*
X259551Y446527D01*
X259481Y446587D01*
X259451Y446599D01*
X259425Y446618D01*
X259338Y446645D01*
X259253Y446679D01*
X259212Y446683D01*
X259190Y446690D01*
X259158Y446689D01*
X259086Y446697D01*
X252914Y446697D01*
X252824Y446683D01*
X252733Y446675D01*
X252703Y446663D01*
X252671Y446658D01*
X252590Y446615D01*
X252506Y446579D01*
X252474Y446553D01*
X252453Y446542D01*
X252431Y446519D01*
X252375Y446474D01*
X247298Y441397D01*
X239302Y441397D01*
G37*
%LPD*%
%LPC*%
G36*
X489302Y314397D02*
X489302Y314397D01*
X483647Y320052D01*
X483647Y328048D01*
X489302Y333703D01*
X497298Y333703D01*
X502475Y328526D01*
X502549Y328473D01*
X502619Y328413D01*
X502649Y328401D01*
X502675Y328382D01*
X502762Y328355D01*
X502847Y328321D01*
X502888Y328317D01*
X502910Y328310D01*
X502942Y328311D01*
X503014Y328303D01*
X508986Y328303D01*
X509077Y328317D01*
X509167Y328325D01*
X509197Y328337D01*
X509229Y328342D01*
X509310Y328385D01*
X509394Y328421D01*
X509426Y328447D01*
X509447Y328458D01*
X509469Y328481D01*
X509525Y328526D01*
X514702Y333703D01*
X522698Y333703D01*
X528353Y328048D01*
X528353Y320052D01*
X522698Y314397D01*
X514702Y314397D01*
X509047Y320052D01*
X509047Y320936D01*
X509044Y320956D01*
X509046Y320975D01*
X509024Y321077D01*
X509008Y321179D01*
X508998Y321196D01*
X508994Y321216D01*
X508941Y321305D01*
X508892Y321396D01*
X508878Y321410D01*
X508868Y321427D01*
X508789Y321494D01*
X508714Y321566D01*
X508696Y321574D01*
X508681Y321587D01*
X508585Y321626D01*
X508491Y321669D01*
X508471Y321671D01*
X508453Y321679D01*
X508286Y321697D01*
X503714Y321697D01*
X503694Y321694D01*
X503675Y321696D01*
X503573Y321674D01*
X503471Y321658D01*
X503454Y321648D01*
X503434Y321644D01*
X503345Y321591D01*
X503254Y321542D01*
X503240Y321528D01*
X503223Y321518D01*
X503156Y321439D01*
X503084Y321364D01*
X503076Y321346D01*
X503063Y321331D01*
X503024Y321235D01*
X502981Y321141D01*
X502979Y321121D01*
X502971Y321103D01*
X502953Y320936D01*
X502953Y320052D01*
X497298Y314397D01*
X489302Y314397D01*
G37*
%LPD*%
%LPC*%
G36*
X489302Y339797D02*
X489302Y339797D01*
X483647Y345452D01*
X483647Y353448D01*
X489302Y359103D01*
X497298Y359103D01*
X502875Y353526D01*
X502949Y353473D01*
X503019Y353413D01*
X503049Y353401D01*
X503075Y353382D01*
X503162Y353355D01*
X503247Y353321D01*
X503288Y353317D01*
X503310Y353310D01*
X503342Y353311D01*
X503414Y353303D01*
X508586Y353303D01*
X508677Y353317D01*
X508767Y353325D01*
X508797Y353337D01*
X508829Y353342D01*
X508910Y353385D01*
X508994Y353421D01*
X509026Y353447D01*
X509047Y353458D01*
X509069Y353481D01*
X509125Y353526D01*
X514702Y359103D01*
X522698Y359103D01*
X528353Y353448D01*
X528353Y345452D01*
X522698Y339797D01*
X514702Y339797D01*
X509047Y345452D01*
X509047Y345936D01*
X509044Y345956D01*
X509046Y345975D01*
X509024Y346077D01*
X509008Y346179D01*
X508998Y346196D01*
X508994Y346216D01*
X508941Y346305D01*
X508892Y346396D01*
X508878Y346410D01*
X508868Y346427D01*
X508789Y346494D01*
X508714Y346566D01*
X508696Y346574D01*
X508681Y346587D01*
X508585Y346626D01*
X508491Y346669D01*
X508471Y346671D01*
X508453Y346679D01*
X508286Y346697D01*
X503714Y346697D01*
X503694Y346694D01*
X503675Y346696D01*
X503573Y346674D01*
X503471Y346658D01*
X503454Y346648D01*
X503434Y346644D01*
X503345Y346591D01*
X503254Y346542D01*
X503240Y346528D01*
X503223Y346518D01*
X503156Y346439D01*
X503084Y346364D01*
X503076Y346346D01*
X503063Y346331D01*
X503024Y346235D01*
X502981Y346141D01*
X502979Y346121D01*
X502971Y346103D01*
X502953Y345936D01*
X502953Y345452D01*
X497298Y339797D01*
X489302Y339797D01*
G37*
%LPD*%
%LPC*%
G36*
X239302Y415997D02*
X239302Y415997D01*
X233647Y421652D01*
X233647Y429648D01*
X239302Y435303D01*
X247298Y435303D01*
X252953Y429648D01*
X252953Y429064D01*
X252956Y429044D01*
X252954Y429025D01*
X252976Y428923D01*
X252992Y428821D01*
X253002Y428804D01*
X253006Y428784D01*
X253059Y428695D01*
X253108Y428604D01*
X253122Y428590D01*
X253132Y428573D01*
X253211Y428506D01*
X253286Y428434D01*
X253304Y428426D01*
X253319Y428413D01*
X253415Y428374D01*
X253509Y428331D01*
X253529Y428329D01*
X253547Y428321D01*
X253714Y428303D01*
X258286Y428303D01*
X258306Y428306D01*
X258325Y428304D01*
X258427Y428326D01*
X258529Y428342D01*
X258546Y428352D01*
X258566Y428356D01*
X258655Y428409D01*
X258746Y428458D01*
X258760Y428472D01*
X258777Y428482D01*
X258844Y428561D01*
X258916Y428636D01*
X258924Y428654D01*
X258937Y428669D01*
X258976Y428765D01*
X259019Y428859D01*
X259021Y428879D01*
X259029Y428897D01*
X259047Y429064D01*
X259047Y429648D01*
X264702Y435303D01*
X272698Y435303D01*
X278353Y429648D01*
X278353Y421652D01*
X272698Y415997D01*
X264702Y415997D01*
X259225Y421474D01*
X259151Y421527D01*
X259081Y421587D01*
X259051Y421599D01*
X259025Y421618D01*
X258938Y421645D01*
X258853Y421679D01*
X258812Y421683D01*
X258790Y421690D01*
X258758Y421689D01*
X258686Y421697D01*
X253314Y421697D01*
X253224Y421683D01*
X253133Y421675D01*
X253103Y421663D01*
X253071Y421658D01*
X252990Y421615D01*
X252906Y421579D01*
X252874Y421553D01*
X252853Y421542D01*
X252831Y421519D01*
X252775Y421474D01*
X247298Y415997D01*
X239302Y415997D01*
G37*
%LPD*%
%LPC*%
G36*
X353680Y224027D02*
X353680Y224027D01*
X350132Y225497D01*
X347417Y228212D01*
X345947Y231760D01*
X345947Y250840D01*
X347417Y254388D01*
X350132Y257103D01*
X353680Y258573D01*
X357520Y258573D01*
X361068Y257103D01*
X363783Y254388D01*
X365253Y250840D01*
X365253Y231760D01*
X363783Y228212D01*
X361068Y225497D01*
X357520Y224027D01*
X353680Y224027D01*
G37*
%LPD*%
%LPC*%
G36*
X379080Y224027D02*
X379080Y224027D01*
X375532Y225497D01*
X372817Y228212D01*
X371347Y231760D01*
X371347Y250840D01*
X372817Y254388D01*
X375532Y257103D01*
X379080Y258573D01*
X382920Y258573D01*
X386468Y257103D01*
X389183Y254388D01*
X390653Y250840D01*
X390653Y231760D01*
X389183Y228212D01*
X386468Y225497D01*
X382920Y224027D01*
X379080Y224027D01*
G37*
%LPD*%
%LPC*%
G36*
X410778Y423163D02*
X410778Y423163D01*
X407604Y424478D01*
X405174Y426908D01*
X403859Y430082D01*
X403859Y433518D01*
X405174Y436692D01*
X407604Y439122D01*
X410778Y440437D01*
X427422Y440437D01*
X430596Y439122D01*
X433026Y436692D01*
X434341Y433518D01*
X434341Y430082D01*
X433026Y426908D01*
X430596Y424478D01*
X427422Y423163D01*
X410778Y423163D01*
G37*
%LPD*%
%LPC*%
G36*
X334578Y448563D02*
X334578Y448563D01*
X331404Y449878D01*
X328974Y452308D01*
X327659Y455482D01*
X327659Y458918D01*
X328974Y462092D01*
X331404Y464522D01*
X334578Y465837D01*
X351222Y465837D01*
X354396Y464522D01*
X356826Y462092D01*
X358141Y458918D01*
X358141Y455482D01*
X356826Y452308D01*
X354396Y449878D01*
X351222Y448563D01*
X334578Y448563D01*
G37*
%LPD*%
%LPC*%
G36*
X410778Y346963D02*
X410778Y346963D01*
X407604Y348278D01*
X405174Y350708D01*
X403859Y353882D01*
X403859Y357318D01*
X405174Y360492D01*
X407604Y362922D01*
X410778Y364237D01*
X427422Y364237D01*
X430596Y362922D01*
X433026Y360492D01*
X434341Y357318D01*
X434341Y353882D01*
X433026Y350708D01*
X430596Y348278D01*
X427422Y346963D01*
X410778Y346963D01*
G37*
%LPD*%
%LPC*%
G36*
X328482Y594359D02*
X328482Y594359D01*
X325308Y595674D01*
X322878Y598104D01*
X321563Y601278D01*
X321563Y617922D01*
X322878Y621096D01*
X325308Y623526D01*
X328482Y624841D01*
X331918Y624841D01*
X335092Y623526D01*
X337522Y621096D01*
X338837Y617922D01*
X338837Y601278D01*
X337522Y598104D01*
X335092Y595674D01*
X331918Y594359D01*
X328482Y594359D01*
G37*
%LPD*%
%LPC*%
G36*
X334578Y372363D02*
X334578Y372363D01*
X331404Y373678D01*
X328974Y376108D01*
X327659Y379282D01*
X327659Y382718D01*
X328974Y385892D01*
X331404Y388322D01*
X334578Y389637D01*
X351222Y389637D01*
X354396Y388322D01*
X356826Y385892D01*
X358141Y382718D01*
X358141Y379282D01*
X356826Y376108D01*
X354396Y373678D01*
X351222Y372363D01*
X334578Y372363D01*
G37*
%LPD*%
%LPC*%
G36*
X410778Y397763D02*
X410778Y397763D01*
X407604Y399078D01*
X405174Y401508D01*
X403859Y404682D01*
X403859Y408118D01*
X405174Y411292D01*
X407604Y413722D01*
X410778Y415037D01*
X427422Y415037D01*
X430596Y413722D01*
X433026Y411292D01*
X434341Y408118D01*
X434341Y404682D01*
X433026Y401508D01*
X430596Y399078D01*
X427422Y397763D01*
X410778Y397763D01*
G37*
%LPD*%
%LPC*%
G36*
X420623Y141223D02*
X420623Y141223D01*
X420623Y160143D01*
X421802Y159957D01*
X423530Y159395D01*
X425149Y158571D01*
X426618Y157503D01*
X427903Y156218D01*
X428971Y154749D01*
X429795Y153130D01*
X430357Y151402D01*
X430641Y149608D01*
X430641Y141223D01*
X420623Y141223D01*
G37*
%LPD*%
%LPC*%
G36*
X420623Y138177D02*
X420623Y138177D01*
X430641Y138177D01*
X430641Y129792D01*
X430357Y127998D01*
X429795Y126270D01*
X428971Y124651D01*
X427903Y123182D01*
X426618Y121897D01*
X425149Y120829D01*
X423530Y120005D01*
X421802Y119443D01*
X420623Y119257D01*
X420623Y138177D01*
G37*
%LPD*%
%LPC*%
G36*
X407559Y141223D02*
X407559Y141223D01*
X407559Y149608D01*
X407843Y151402D01*
X408405Y153130D01*
X409229Y154749D01*
X410297Y156218D01*
X411582Y157503D01*
X413051Y158571D01*
X414670Y159395D01*
X416398Y159957D01*
X417577Y160143D01*
X417577Y141223D01*
X407559Y141223D01*
G37*
%LPD*%
%LPC*%
G36*
X416398Y119443D02*
X416398Y119443D01*
X414670Y120005D01*
X413051Y120829D01*
X411582Y121897D01*
X410297Y123182D01*
X409229Y124651D01*
X408405Y126270D01*
X407843Y127998D01*
X407559Y129792D01*
X407559Y138177D01*
X417577Y138177D01*
X417577Y119257D01*
X416398Y119443D01*
G37*
%LPD*%
%LPC*%
G36*
X230123Y611123D02*
X230123Y611123D01*
X230123Y625225D01*
X231267Y624997D01*
X232932Y624308D01*
X234430Y623307D01*
X235703Y622034D01*
X236704Y620536D01*
X237393Y618871D01*
X237745Y617105D01*
X237745Y611123D01*
X230123Y611123D01*
G37*
%LPD*%
%LPC*%
G36*
X420623Y306323D02*
X420623Y306323D01*
X420623Y313945D01*
X426605Y313945D01*
X428371Y313593D01*
X430036Y312904D01*
X431534Y311903D01*
X432807Y310630D01*
X433808Y309132D01*
X434497Y307467D01*
X434725Y306323D01*
X420623Y306323D01*
G37*
%LPD*%
%LPC*%
G36*
X420623Y382523D02*
X420623Y382523D01*
X420623Y390145D01*
X426605Y390145D01*
X428371Y389793D01*
X430036Y389104D01*
X431534Y388103D01*
X432807Y386830D01*
X433808Y385332D01*
X434497Y383667D01*
X434725Y382523D01*
X420623Y382523D01*
G37*
%LPD*%
%LPC*%
G36*
X344423Y407923D02*
X344423Y407923D01*
X344423Y415545D01*
X350405Y415545D01*
X352171Y415193D01*
X353836Y414504D01*
X355334Y413503D01*
X356607Y412230D01*
X357608Y410732D01*
X358297Y409067D01*
X358525Y407923D01*
X344423Y407923D01*
G37*
%LPD*%
%LPC*%
G36*
X344423Y331723D02*
X344423Y331723D01*
X344423Y339345D01*
X350405Y339345D01*
X352171Y338993D01*
X353836Y338304D01*
X355334Y337303D01*
X356607Y336030D01*
X357608Y334532D01*
X358297Y332867D01*
X358525Y331723D01*
X344423Y331723D01*
G37*
%LPD*%
%LPC*%
G36*
X420623Y458723D02*
X420623Y458723D01*
X420623Y466345D01*
X426605Y466345D01*
X428371Y465993D01*
X430036Y465304D01*
X431534Y464303D01*
X432807Y463030D01*
X433808Y461532D01*
X434497Y459867D01*
X434725Y458723D01*
X420623Y458723D01*
G37*
%LPD*%
%LPC*%
G36*
X230123Y608077D02*
X230123Y608077D01*
X237745Y608077D01*
X237745Y602095D01*
X237393Y600329D01*
X236704Y598664D01*
X235703Y597166D01*
X234430Y595893D01*
X232932Y594892D01*
X231267Y594203D01*
X230123Y593975D01*
X230123Y608077D01*
G37*
%LPD*%
%LPC*%
G36*
X403475Y306323D02*
X403475Y306323D01*
X403703Y307467D01*
X404392Y309132D01*
X405393Y310630D01*
X406666Y311903D01*
X408164Y312904D01*
X409829Y313593D01*
X411595Y313945D01*
X417577Y313945D01*
X417577Y306323D01*
X403475Y306323D01*
G37*
%LPD*%
%LPC*%
G36*
X403475Y382523D02*
X403475Y382523D01*
X403703Y383667D01*
X404392Y385332D01*
X405393Y386830D01*
X406666Y388103D01*
X408164Y389104D01*
X409829Y389793D01*
X411595Y390145D01*
X417577Y390145D01*
X417577Y382523D01*
X403475Y382523D01*
G37*
%LPD*%
%LPC*%
G36*
X327275Y407923D02*
X327275Y407923D01*
X327503Y409067D01*
X328192Y410732D01*
X329193Y412230D01*
X330466Y413503D01*
X331964Y414504D01*
X333629Y415193D01*
X335395Y415545D01*
X341377Y415545D01*
X341377Y407923D01*
X327275Y407923D01*
G37*
%LPD*%
%LPC*%
G36*
X403475Y458723D02*
X403475Y458723D01*
X403703Y459867D01*
X404392Y461532D01*
X405393Y463030D01*
X406666Y464303D01*
X408164Y465304D01*
X409829Y465993D01*
X411595Y466345D01*
X417577Y466345D01*
X417577Y458723D01*
X403475Y458723D01*
G37*
%LPD*%
%LPC*%
G36*
X327275Y331723D02*
X327275Y331723D01*
X327503Y332867D01*
X328192Y334532D01*
X329193Y336030D01*
X330466Y337303D01*
X331964Y338304D01*
X333629Y338993D01*
X335395Y339345D01*
X341377Y339345D01*
X341377Y331723D01*
X327275Y331723D01*
G37*
%LPD*%
%LPC*%
G36*
X219455Y611123D02*
X219455Y611123D01*
X219455Y617105D01*
X219807Y618871D01*
X220496Y620536D01*
X221497Y622034D01*
X222770Y623307D01*
X224268Y624308D01*
X225933Y624997D01*
X227077Y625225D01*
X227077Y611123D01*
X219455Y611123D01*
G37*
%LPD*%
%LPC*%
G36*
X420623Y448055D02*
X420623Y448055D01*
X420623Y455677D01*
X434725Y455677D01*
X434497Y454533D01*
X433808Y452868D01*
X432807Y451370D01*
X431534Y450097D01*
X430036Y449096D01*
X428371Y448407D01*
X426605Y448055D01*
X420623Y448055D01*
G37*
%LPD*%
%LPC*%
G36*
X420623Y371855D02*
X420623Y371855D01*
X420623Y379477D01*
X434725Y379477D01*
X434497Y378333D01*
X433808Y376668D01*
X432807Y375170D01*
X431534Y373897D01*
X430036Y372896D01*
X428371Y372207D01*
X426605Y371855D01*
X420623Y371855D01*
G37*
%LPD*%
%LPC*%
G36*
X420623Y295655D02*
X420623Y295655D01*
X420623Y303277D01*
X434725Y303277D01*
X434497Y302133D01*
X433808Y300468D01*
X432807Y298970D01*
X431534Y297697D01*
X430036Y296696D01*
X428371Y296007D01*
X426605Y295655D01*
X420623Y295655D01*
G37*
%LPD*%
%LPC*%
G36*
X344423Y397255D02*
X344423Y397255D01*
X344423Y404877D01*
X358525Y404877D01*
X358297Y403733D01*
X357608Y402068D01*
X356607Y400570D01*
X355334Y399297D01*
X353836Y398296D01*
X352171Y397607D01*
X350405Y397255D01*
X344423Y397255D01*
G37*
%LPD*%
%LPC*%
G36*
X344423Y321055D02*
X344423Y321055D01*
X344423Y328677D01*
X358525Y328677D01*
X358297Y327533D01*
X357608Y325868D01*
X356607Y324370D01*
X355334Y323097D01*
X353836Y322096D01*
X352171Y321407D01*
X350405Y321055D01*
X344423Y321055D01*
G37*
%LPD*%
%LPC*%
G36*
X225933Y594203D02*
X225933Y594203D01*
X224268Y594892D01*
X222770Y595893D01*
X221497Y597166D01*
X220496Y598664D01*
X219807Y600329D01*
X219455Y602095D01*
X219455Y608077D01*
X227077Y608077D01*
X227077Y593975D01*
X225933Y594203D01*
G37*
%LPD*%
%LPC*%
G36*
X411595Y448055D02*
X411595Y448055D01*
X409829Y448407D01*
X408164Y449096D01*
X406666Y450097D01*
X405393Y451370D01*
X404392Y452868D01*
X403703Y454533D01*
X403475Y455677D01*
X417577Y455677D01*
X417577Y448055D01*
X411595Y448055D01*
G37*
%LPD*%
%LPC*%
G36*
X411595Y295655D02*
X411595Y295655D01*
X409829Y296007D01*
X408164Y296696D01*
X406666Y297697D01*
X405393Y298970D01*
X404392Y300468D01*
X403703Y302133D01*
X403475Y303277D01*
X417577Y303277D01*
X417577Y295655D01*
X411595Y295655D01*
G37*
%LPD*%
%LPC*%
G36*
X335395Y397255D02*
X335395Y397255D01*
X333629Y397607D01*
X331964Y398296D01*
X330466Y399297D01*
X329193Y400570D01*
X328192Y402068D01*
X327503Y403733D01*
X327275Y404877D01*
X341377Y404877D01*
X341377Y397255D01*
X335395Y397255D01*
G37*
%LPD*%
%LPC*%
G36*
X411595Y371855D02*
X411595Y371855D01*
X409829Y372207D01*
X408164Y372896D01*
X406666Y373897D01*
X405393Y375170D01*
X404392Y376668D01*
X403703Y378333D01*
X403475Y379477D01*
X417577Y379477D01*
X417577Y371855D01*
X411595Y371855D01*
G37*
%LPD*%
%LPC*%
G36*
X335395Y321055D02*
X335395Y321055D01*
X333629Y321407D01*
X331964Y322096D01*
X330466Y323097D01*
X329193Y324370D01*
X328192Y325868D01*
X327503Y327533D01*
X327275Y328677D01*
X341377Y328677D01*
X341377Y321055D01*
X335395Y321055D01*
G37*
%LPD*%
%LPC*%
G36*
X244823Y249373D02*
X244823Y249373D01*
X244823Y258011D01*
X247509Y258011D01*
X253461Y252059D01*
X253461Y249373D01*
X244823Y249373D01*
G37*
%LPD*%
%LPC*%
G36*
X520223Y427173D02*
X520223Y427173D01*
X520223Y435811D01*
X522909Y435811D01*
X528861Y429859D01*
X528861Y427173D01*
X520223Y427173D01*
G37*
%LPD*%
%LPC*%
G36*
X494823Y579573D02*
X494823Y579573D01*
X494823Y588211D01*
X497509Y588211D01*
X503461Y582259D01*
X503461Y579573D01*
X494823Y579573D01*
G37*
%LPD*%
%LPC*%
G36*
X270223Y249373D02*
X270223Y249373D01*
X270223Y258011D01*
X272909Y258011D01*
X278861Y252059D01*
X278861Y249373D01*
X270223Y249373D01*
G37*
%LPD*%
%LPC*%
G36*
X494823Y427173D02*
X494823Y427173D01*
X494823Y435811D01*
X497509Y435811D01*
X503461Y429859D01*
X503461Y427173D01*
X494823Y427173D01*
G37*
%LPD*%
%LPC*%
G36*
X520223Y579573D02*
X520223Y579573D01*
X520223Y588211D01*
X522909Y588211D01*
X528861Y582259D01*
X528861Y579573D01*
X520223Y579573D01*
G37*
%LPD*%
%LPC*%
G36*
X494823Y424127D02*
X494823Y424127D01*
X503461Y424127D01*
X503461Y421441D01*
X497509Y415489D01*
X494823Y415489D01*
X494823Y424127D01*
G37*
%LPD*%
%LPC*%
G36*
X270223Y246327D02*
X270223Y246327D01*
X278861Y246327D01*
X278861Y243641D01*
X272909Y237689D01*
X270223Y237689D01*
X270223Y246327D01*
G37*
%LPD*%
%LPC*%
G36*
X244823Y246327D02*
X244823Y246327D01*
X253461Y246327D01*
X253461Y243641D01*
X247509Y237689D01*
X244823Y237689D01*
X244823Y246327D01*
G37*
%LPD*%
%LPC*%
G36*
X520223Y424127D02*
X520223Y424127D01*
X528861Y424127D01*
X528861Y421441D01*
X522909Y415489D01*
X520223Y415489D01*
X520223Y424127D01*
G37*
%LPD*%
%LPC*%
G36*
X508539Y579573D02*
X508539Y579573D01*
X508539Y582259D01*
X514491Y588211D01*
X517177Y588211D01*
X517177Y579573D01*
X508539Y579573D01*
G37*
%LPD*%
%LPC*%
G36*
X483139Y427173D02*
X483139Y427173D01*
X483139Y429859D01*
X489091Y435811D01*
X491777Y435811D01*
X491777Y427173D01*
X483139Y427173D01*
G37*
%LPD*%
%LPC*%
G36*
X233139Y249373D02*
X233139Y249373D01*
X233139Y252059D01*
X239091Y258011D01*
X241777Y258011D01*
X241777Y249373D01*
X233139Y249373D01*
G37*
%LPD*%
%LPC*%
G36*
X258539Y249373D02*
X258539Y249373D01*
X258539Y252059D01*
X264491Y258011D01*
X267177Y258011D01*
X267177Y249373D01*
X258539Y249373D01*
G37*
%LPD*%
%LPC*%
G36*
X508539Y427173D02*
X508539Y427173D01*
X508539Y429859D01*
X514491Y435811D01*
X517177Y435811D01*
X517177Y427173D01*
X508539Y427173D01*
G37*
%LPD*%
%LPC*%
G36*
X483139Y579573D02*
X483139Y579573D01*
X483139Y582259D01*
X489091Y588211D01*
X491777Y588211D01*
X491777Y579573D01*
X483139Y579573D01*
G37*
%LPD*%
%LPC*%
G36*
X494823Y567889D02*
X494823Y567889D01*
X494823Y576527D01*
X503461Y576527D01*
X503461Y573841D01*
X497509Y567889D01*
X494823Y567889D01*
G37*
%LPD*%
%LPC*%
G36*
X520223Y567889D02*
X520223Y567889D01*
X520223Y576527D01*
X528861Y576527D01*
X528861Y573841D01*
X522909Y567889D01*
X520223Y567889D01*
G37*
%LPD*%
%LPC*%
G36*
X264491Y237689D02*
X264491Y237689D01*
X258539Y243641D01*
X258539Y246327D01*
X267177Y246327D01*
X267177Y237689D01*
X264491Y237689D01*
G37*
%LPD*%
%LPC*%
G36*
X239091Y237689D02*
X239091Y237689D01*
X233139Y243641D01*
X233139Y246327D01*
X241777Y246327D01*
X241777Y237689D01*
X239091Y237689D01*
G37*
%LPD*%
%LPC*%
G36*
X489091Y415489D02*
X489091Y415489D01*
X483139Y421441D01*
X483139Y424127D01*
X491777Y424127D01*
X491777Y415489D01*
X489091Y415489D01*
G37*
%LPD*%
%LPC*%
G36*
X514491Y415489D02*
X514491Y415489D01*
X508539Y421441D01*
X508539Y424127D01*
X517177Y424127D01*
X517177Y415489D01*
X514491Y415489D01*
G37*
%LPD*%
%LPC*%
G36*
X514491Y567889D02*
X514491Y567889D01*
X508539Y573841D01*
X508539Y576527D01*
X517177Y576527D01*
X517177Y567889D01*
X514491Y567889D01*
G37*
%LPD*%
%LPC*%
G36*
X489091Y567889D02*
X489091Y567889D01*
X483139Y573841D01*
X483139Y576527D01*
X491777Y576527D01*
X491777Y567889D01*
X489091Y567889D01*
G37*
%LPD*%
%LPC*%
G36*
X228599Y609599D02*
X228599Y609599D01*
X228599Y609601D01*
X228601Y609601D01*
X228601Y609599D01*
X228599Y609599D01*
G37*
%LPD*%
%LPC*%
G36*
X342899Y406399D02*
X342899Y406399D01*
X342899Y406401D01*
X342901Y406401D01*
X342901Y406399D01*
X342899Y406399D01*
G37*
%LPD*%
%LPC*%
G36*
X419099Y380999D02*
X419099Y380999D01*
X419099Y381001D01*
X419101Y381001D01*
X419101Y380999D01*
X419099Y380999D01*
G37*
%LPD*%
%LPC*%
G36*
X493299Y425649D02*
X493299Y425649D01*
X493299Y425651D01*
X493301Y425651D01*
X493301Y425649D01*
X493299Y425649D01*
G37*
%LPD*%
%LPC*%
G36*
X518699Y425649D02*
X518699Y425649D01*
X518699Y425651D01*
X518701Y425651D01*
X518701Y425649D01*
X518699Y425649D01*
G37*
%LPD*%
%LPC*%
G36*
X268699Y247849D02*
X268699Y247849D01*
X268699Y247851D01*
X268701Y247851D01*
X268701Y247849D01*
X268699Y247849D01*
G37*
%LPD*%
%LPC*%
G36*
X243299Y247849D02*
X243299Y247849D01*
X243299Y247851D01*
X243301Y247851D01*
X243301Y247849D01*
X243299Y247849D01*
G37*
%LPD*%
%LPC*%
G36*
X419099Y304799D02*
X419099Y304799D01*
X419099Y304801D01*
X419101Y304801D01*
X419101Y304799D01*
X419099Y304799D01*
G37*
%LPD*%
%LPC*%
G36*
X342899Y330199D02*
X342899Y330199D01*
X342899Y330201D01*
X342901Y330201D01*
X342901Y330199D01*
X342899Y330199D01*
G37*
%LPD*%
%LPC*%
G36*
X419099Y457199D02*
X419099Y457199D01*
X419099Y457201D01*
X419101Y457201D01*
X419101Y457199D01*
X419099Y457199D01*
G37*
%LPD*%
%LPC*%
G36*
X518699Y578049D02*
X518699Y578049D01*
X518699Y578051D01*
X518701Y578051D01*
X518701Y578049D01*
X518699Y578049D01*
G37*
%LPD*%
%LPC*%
G36*
X493299Y578049D02*
X493299Y578049D01*
X493299Y578051D01*
X493301Y578051D01*
X493301Y578049D01*
X493299Y578049D01*
G37*
%LPD*%
%LPC*%
G36*
X419099Y139699D02*
X419099Y139699D01*
X419099Y139701D01*
X419101Y139701D01*
X419101Y139699D01*
X419099Y139699D01*
G37*
%LPD*%
D10*
X243300Y578050D03*
X268700Y578050D03*
X243300Y552650D03*
X268700Y552650D03*
X243300Y527250D03*
X268700Y527250D03*
X243300Y501850D03*
X268700Y501850D03*
X243300Y476450D03*
X268700Y476450D03*
X243300Y451050D03*
X268700Y451050D03*
X243300Y425650D03*
X268700Y425650D03*
X243300Y400250D03*
X268700Y400250D03*
X243300Y374850D03*
X268700Y374850D03*
X243300Y349450D03*
X268700Y349450D03*
X243300Y324050D03*
X268700Y324050D03*
X243300Y298650D03*
X268700Y298650D03*
X243300Y273250D03*
X268700Y273250D03*
X243300Y247850D03*
X268700Y247850D03*
X243300Y222450D03*
X268700Y222450D03*
X243300Y197050D03*
X268700Y197050D03*
X243300Y171650D03*
X268700Y171650D03*
X243300Y146250D03*
X268700Y146250D03*
X243300Y120850D03*
X268700Y120850D03*
X493300Y578050D03*
X518700Y578050D03*
X493300Y552650D03*
X518700Y552650D03*
X493300Y527250D03*
X518700Y527250D03*
X493300Y501850D03*
X518700Y501850D03*
X493300Y476450D03*
X518700Y476450D03*
X493300Y451050D03*
X518700Y451050D03*
X493300Y425650D03*
X518700Y425650D03*
X493300Y400250D03*
X518700Y400250D03*
X493300Y374850D03*
X518700Y374850D03*
X493300Y349450D03*
X518700Y349450D03*
X493300Y324050D03*
X518700Y324050D03*
X493300Y298650D03*
X518700Y298650D03*
X493300Y273250D03*
X518700Y273250D03*
X493300Y247850D03*
X518700Y247850D03*
X493300Y222450D03*
X518700Y222450D03*
X493300Y197050D03*
X518700Y197050D03*
X493300Y171650D03*
X518700Y171650D03*
X493300Y146250D03*
X518700Y146250D03*
X493300Y120850D03*
X518700Y120850D03*
D11*
X203200Y602996D02*
X203200Y616204D01*
X228600Y616204D02*
X228600Y602996D01*
X254000Y602996D02*
X254000Y616204D01*
X279400Y616204D02*
X279400Y602996D01*
X304800Y602996D02*
X304800Y616204D01*
X330200Y616204D02*
X330200Y602996D01*
X412496Y304800D02*
X425704Y304800D01*
X425704Y330200D02*
X412496Y330200D01*
X412496Y457200D02*
X425704Y457200D01*
X349504Y457200D02*
X336296Y457200D01*
X412496Y355600D02*
X425704Y355600D01*
X425704Y381000D02*
X412496Y381000D01*
X412496Y431800D02*
X425704Y431800D01*
X425704Y406400D02*
X412496Y406400D01*
X349504Y431800D02*
X336296Y431800D01*
X336296Y406400D02*
X349504Y406400D01*
X349504Y381000D02*
X336296Y381000D01*
X336296Y355600D02*
X349504Y355600D01*
X349504Y330200D02*
X336296Y330200D01*
X336296Y304800D02*
X349504Y304800D01*
D12*
X355600Y248920D02*
X355600Y233680D01*
X381000Y233680D02*
X381000Y248920D01*
X406400Y248920D02*
X406400Y233680D01*
D13*
X342900Y148700D02*
X342900Y130700D01*
X368300Y130700D02*
X368300Y148700D01*
X393700Y148700D02*
X393700Y130700D01*
X419100Y130700D02*
X419100Y148700D01*
D14*
X265000Y120000D02*
X245000Y120000D01*
X243300Y120850D01*
X265000Y120000D02*
X268700Y120850D01*
X345000Y300000D02*
X355000Y300000D01*
X370000Y285000D02*
X410000Y245000D01*
X370000Y285000D02*
X355000Y300000D01*
X345000Y300000D02*
X342900Y304800D01*
X406400Y241300D02*
X410000Y245000D01*
X205000Y370000D02*
X205000Y605000D01*
X205000Y370000D02*
X240000Y335000D01*
X310000Y335000D01*
X340000Y305000D01*
X205000Y605000D02*
X203200Y609600D01*
X340000Y305000D02*
X342900Y304800D01*
X340000Y195000D02*
X270000Y125000D01*
X340000Y195000D02*
X340000Y255000D01*
X370000Y285000D01*
X270000Y125000D02*
X268700Y120850D01*
X380000Y485000D02*
X255000Y610000D01*
X254000Y609600D01*
D15*
X380000Y485000D03*
D14*
X265000Y580000D02*
X245000Y580000D01*
X243300Y578050D01*
X265000Y580000D02*
X268700Y578050D01*
X355000Y190000D02*
X355000Y165000D01*
X365000Y155000D01*
X365000Y140000D01*
X368300Y139700D01*
X370000Y540000D02*
X305000Y605000D01*
X304800Y609600D01*
D15*
X355000Y190000D03*
X370000Y540000D03*
D14*
X495000Y525000D02*
X515000Y525000D01*
X518700Y527250D01*
X430000Y335000D02*
X420000Y335000D01*
X430000Y335000D02*
X475000Y380000D01*
X475000Y505000D01*
X495000Y525000D01*
X420000Y335000D02*
X419100Y330200D01*
X495000Y525000D02*
X493300Y527250D01*
X495000Y450000D02*
X515000Y450000D01*
X495000Y450000D02*
X493300Y451050D01*
X515000Y450000D02*
X518700Y451050D01*
X515000Y300000D02*
X495000Y300000D01*
X493300Y298650D01*
X515000Y300000D02*
X518700Y298650D01*
X490000Y300000D02*
X470000Y320000D01*
X385000Y320000D01*
X345000Y360000D01*
X490000Y300000D02*
X493300Y298650D01*
X345000Y360000D02*
X342900Y355600D01*
X495000Y275000D02*
X515000Y275000D01*
X495000Y275000D02*
X493300Y273250D01*
X515000Y275000D02*
X518700Y273250D01*
X380000Y345000D02*
X380000Y400000D01*
X345000Y435000D01*
X342900Y431800D01*
D15*
X380000Y345000D03*
D14*
X265000Y555000D02*
X245000Y555000D01*
X243300Y552650D01*
X265000Y555000D02*
X268700Y552650D01*
X265000Y525000D02*
X245000Y525000D01*
X243300Y527250D01*
X265000Y525000D02*
X268700Y527250D01*
X265000Y500000D02*
X245000Y500000D01*
X243300Y501850D01*
X265000Y500000D02*
X268700Y501850D01*
X265000Y475000D02*
X245000Y475000D01*
X243300Y476450D01*
X265000Y475000D02*
X268700Y476450D01*
X265000Y450000D02*
X245000Y450000D01*
X243300Y451050D01*
X265000Y450000D02*
X268700Y451050D01*
X265000Y425000D02*
X245000Y425000D01*
X243300Y425650D01*
X265000Y425000D02*
X268700Y425650D01*
X265000Y400000D02*
X245000Y400000D01*
X243300Y400250D01*
X265000Y400000D02*
X268700Y400250D01*
X265000Y375000D02*
X245000Y375000D01*
X243300Y374850D01*
X265000Y375000D02*
X268700Y374850D01*
X265000Y350000D02*
X245000Y350000D01*
X243300Y349450D01*
X265000Y350000D02*
X268700Y349450D01*
X265000Y325000D02*
X245000Y325000D01*
X243300Y324050D01*
X265000Y325000D02*
X268700Y324050D01*
X265000Y300000D02*
X245000Y300000D01*
X243300Y298650D01*
X265000Y300000D02*
X268700Y298650D01*
X265000Y275000D02*
X245000Y275000D01*
X243300Y273250D01*
X265000Y275000D02*
X268700Y273250D01*
X265000Y225000D02*
X245000Y225000D01*
X243300Y222450D01*
X265000Y225000D02*
X268700Y222450D01*
X265000Y195000D02*
X245000Y195000D01*
X243300Y197050D01*
X265000Y195000D02*
X268700Y197050D01*
X265000Y170000D02*
X245000Y170000D01*
X243300Y171650D01*
X265000Y170000D02*
X268700Y171650D01*
X265000Y145000D02*
X245000Y145000D01*
X243300Y146250D01*
X265000Y145000D02*
X268700Y146250D01*
X495000Y120000D02*
X515000Y120000D01*
X495000Y120000D02*
X493300Y120850D01*
X515000Y120000D02*
X518700Y120850D01*
X515000Y145000D02*
X495000Y145000D01*
X493300Y146250D01*
X515000Y145000D02*
X518700Y146250D01*
X515000Y170000D02*
X495000Y170000D01*
X493300Y171650D01*
X515000Y170000D02*
X518700Y171650D01*
X515000Y195000D02*
X495000Y195000D01*
X493300Y197050D01*
X515000Y195000D02*
X518700Y197050D01*
X515000Y225000D02*
X495000Y225000D01*
X493300Y222450D01*
X515000Y225000D02*
X518700Y222450D01*
X515000Y250000D02*
X495000Y250000D01*
X493300Y247850D01*
X515000Y250000D02*
X518700Y247850D01*
X515000Y325000D02*
X495000Y325000D01*
X493300Y324050D01*
X515000Y325000D02*
X518700Y324050D01*
X515000Y350000D02*
X495000Y350000D01*
X493300Y349450D01*
X515000Y350000D02*
X518700Y349450D01*
X515000Y375000D02*
X495000Y375000D01*
X493300Y374850D01*
X515000Y375000D02*
X518700Y374850D01*
X515000Y400000D02*
X495000Y400000D01*
X493300Y400250D01*
X515000Y400000D02*
X518700Y400250D01*
X515000Y475000D02*
X495000Y475000D01*
X493300Y476450D01*
X515000Y475000D02*
X518700Y476450D01*
X515000Y500000D02*
X495000Y500000D01*
X493300Y501850D01*
X515000Y500000D02*
X518700Y501850D01*
X515000Y555000D02*
X495000Y555000D01*
X493300Y552650D01*
X515000Y555000D02*
X518700Y552650D01*
M02*
