G04 EAGLE Gerber RS-274X export*
G75*
%MOMM*%
%FSLAX34Y34*%
%LPD*%
%INBottom Copper*%
%IPPOS*%
%AMOC8*
5,1,8,0,0,1.08239X$1,22.5*%
G01*
%ADD10P,1.649562X8X292.500000*%
%ADD11C,1.320800*%
%ADD12R,1.600200X1.168400*%
%ADD13C,1.524000*%
%ADD14C,1.800000*%
%ADD15C,0.254000*%
%ADD16C,1.016000*%

G36*
X236971Y111772D02*
X236971Y111772D01*
X237043Y111774D01*
X237092Y111792D01*
X237143Y111800D01*
X237207Y111834D01*
X237274Y111859D01*
X237315Y111891D01*
X237361Y111916D01*
X237410Y111968D01*
X237466Y112012D01*
X237494Y112056D01*
X237530Y112094D01*
X237560Y112159D01*
X237599Y112219D01*
X237612Y112270D01*
X237634Y112317D01*
X237641Y112388D01*
X237659Y112458D01*
X237655Y112510D01*
X237661Y112561D01*
X237645Y112632D01*
X237640Y112703D01*
X237620Y112751D01*
X237608Y112802D01*
X237572Y112863D01*
X237544Y112929D01*
X237499Y112985D01*
X237482Y113013D01*
X237464Y113028D01*
X237439Y113060D01*
X233647Y116852D01*
X233647Y124848D01*
X239302Y130503D01*
X247298Y130503D01*
X252953Y124848D01*
X252953Y116852D01*
X249161Y113060D01*
X249119Y113002D01*
X249070Y112950D01*
X249048Y112903D01*
X249018Y112861D01*
X248997Y112792D01*
X248966Y112727D01*
X248961Y112675D01*
X248945Y112625D01*
X248947Y112554D01*
X248939Y112483D01*
X248950Y112432D01*
X248952Y112380D01*
X248976Y112312D01*
X248992Y112242D01*
X249018Y112197D01*
X249036Y112149D01*
X249081Y112093D01*
X249118Y112031D01*
X249157Y111997D01*
X249190Y111957D01*
X249250Y111918D01*
X249305Y111871D01*
X249353Y111852D01*
X249397Y111824D01*
X249466Y111806D01*
X249533Y111779D01*
X249604Y111771D01*
X249635Y111763D01*
X249659Y111765D01*
X249700Y111761D01*
X262300Y111761D01*
X262371Y111772D01*
X262443Y111774D01*
X262492Y111792D01*
X262543Y111800D01*
X262607Y111834D01*
X262674Y111859D01*
X262715Y111891D01*
X262761Y111916D01*
X262810Y111968D01*
X262866Y112012D01*
X262894Y112056D01*
X262930Y112094D01*
X262960Y112159D01*
X262999Y112219D01*
X263012Y112270D01*
X263034Y112317D01*
X263041Y112388D01*
X263059Y112458D01*
X263055Y112510D01*
X263061Y112561D01*
X263045Y112632D01*
X263040Y112703D01*
X263020Y112751D01*
X263008Y112802D01*
X262972Y112863D01*
X262944Y112929D01*
X262899Y112985D01*
X262882Y113013D01*
X262864Y113028D01*
X262839Y113060D01*
X259047Y116852D01*
X259047Y124848D01*
X264702Y130503D01*
X272698Y130503D01*
X278353Y124848D01*
X278353Y116852D01*
X274561Y113060D01*
X274519Y113002D01*
X274470Y112950D01*
X274448Y112903D01*
X274418Y112861D01*
X274397Y112792D01*
X274366Y112727D01*
X274361Y112675D01*
X274345Y112625D01*
X274347Y112554D01*
X274339Y112483D01*
X274350Y112432D01*
X274352Y112380D01*
X274376Y112312D01*
X274392Y112242D01*
X274418Y112197D01*
X274436Y112149D01*
X274481Y112093D01*
X274518Y112031D01*
X274557Y111997D01*
X274590Y111957D01*
X274650Y111918D01*
X274705Y111871D01*
X274753Y111852D01*
X274797Y111824D01*
X274866Y111806D01*
X274933Y111779D01*
X275004Y111771D01*
X275035Y111763D01*
X275059Y111765D01*
X275100Y111761D01*
X336731Y111761D01*
X336801Y111772D01*
X336873Y111774D01*
X336922Y111792D01*
X336973Y111800D01*
X337037Y111834D01*
X337104Y111859D01*
X337145Y111891D01*
X337191Y111916D01*
X337240Y111968D01*
X337296Y112012D01*
X337324Y112056D01*
X337360Y112094D01*
X337390Y112159D01*
X337429Y112219D01*
X337442Y112270D01*
X337464Y112317D01*
X337472Y112388D01*
X337489Y112458D01*
X337485Y112510D01*
X337491Y112561D01*
X337476Y112632D01*
X337470Y112703D01*
X337450Y112751D01*
X337439Y112802D01*
X337402Y112863D01*
X337374Y112929D01*
X337329Y112985D01*
X337312Y113013D01*
X337295Y113028D01*
X337269Y113060D01*
X336474Y113855D01*
X321697Y128632D01*
X321697Y208317D01*
X321683Y208407D01*
X321675Y208498D01*
X321663Y208527D01*
X321658Y208559D01*
X321615Y208640D01*
X321579Y208724D01*
X321553Y208756D01*
X321542Y208777D01*
X321519Y208799D01*
X321474Y208855D01*
X280160Y250169D01*
X280102Y250211D01*
X280050Y250260D01*
X280003Y250282D01*
X279961Y250313D01*
X279892Y250334D01*
X279827Y250364D01*
X279775Y250370D01*
X279725Y250385D01*
X279654Y250383D01*
X279583Y250391D01*
X279532Y250380D01*
X279480Y250379D01*
X279412Y250354D01*
X279342Y250339D01*
X279297Y250312D01*
X279249Y250294D01*
X279193Y250249D01*
X279131Y250212D01*
X279097Y250173D01*
X279057Y250140D01*
X279018Y250080D01*
X278971Y250026D01*
X278952Y249977D01*
X278924Y249933D01*
X278906Y249864D01*
X278879Y249797D01*
X278871Y249726D01*
X278863Y249695D01*
X278865Y249672D01*
X278861Y249631D01*
X278861Y249373D01*
X270223Y249373D01*
X270223Y258011D01*
X272909Y258011D01*
X275398Y255522D01*
X275456Y255480D01*
X275508Y255430D01*
X275555Y255409D01*
X275597Y255378D01*
X275666Y255357D01*
X275731Y255327D01*
X275783Y255321D01*
X275833Y255306D01*
X275904Y255308D01*
X275975Y255300D01*
X276026Y255311D01*
X276078Y255312D01*
X276146Y255337D01*
X276216Y255352D01*
X276261Y255379D01*
X276309Y255397D01*
X276365Y255441D01*
X276427Y255478D01*
X276461Y255518D01*
X276501Y255550D01*
X276540Y255611D01*
X276587Y255665D01*
X276606Y255713D01*
X276634Y255757D01*
X276652Y255827D01*
X276679Y255893D01*
X276687Y255965D01*
X276695Y255996D01*
X276693Y256019D01*
X276697Y256060D01*
X276697Y265758D01*
X276686Y265829D01*
X276684Y265901D01*
X276666Y265950D01*
X276658Y266001D01*
X276624Y266065D01*
X276599Y266132D01*
X276567Y266173D01*
X276542Y266219D01*
X276490Y266268D01*
X276446Y266324D01*
X276402Y266352D01*
X276364Y266388D01*
X276299Y266418D01*
X276239Y266457D01*
X276188Y266470D01*
X276141Y266492D01*
X276070Y266499D01*
X276000Y266517D01*
X275948Y266513D01*
X275897Y266519D01*
X275826Y266503D01*
X275755Y266498D01*
X275707Y266478D01*
X275656Y266466D01*
X275595Y266430D01*
X275529Y266402D01*
X275473Y266357D01*
X275445Y266340D01*
X275430Y266322D01*
X275398Y266297D01*
X272698Y263597D01*
X264702Y263597D01*
X259047Y269252D01*
X259047Y277248D01*
X264702Y282903D01*
X272698Y282903D01*
X275398Y280203D01*
X275456Y280161D01*
X275508Y280112D01*
X275555Y280090D01*
X275597Y280060D01*
X275666Y280039D01*
X275731Y280008D01*
X275783Y280003D01*
X275833Y279987D01*
X275904Y279989D01*
X275975Y279981D01*
X276026Y279992D01*
X276078Y279994D01*
X276146Y280018D01*
X276216Y280034D01*
X276261Y280060D01*
X276309Y280078D01*
X276365Y280123D01*
X276427Y280160D01*
X276461Y280199D01*
X276501Y280232D01*
X276540Y280292D01*
X276587Y280347D01*
X276606Y280395D01*
X276634Y280439D01*
X276652Y280508D01*
X276679Y280575D01*
X276687Y280646D01*
X276695Y280677D01*
X276693Y280701D01*
X276697Y280742D01*
X276697Y291158D01*
X276686Y291229D01*
X276684Y291301D01*
X276666Y291350D01*
X276658Y291401D01*
X276624Y291465D01*
X276599Y291532D01*
X276567Y291573D01*
X276542Y291619D01*
X276490Y291668D01*
X276446Y291724D01*
X276402Y291752D01*
X276364Y291788D01*
X276299Y291818D01*
X276239Y291857D01*
X276188Y291870D01*
X276141Y291892D01*
X276070Y291899D01*
X276000Y291917D01*
X275948Y291913D01*
X275897Y291919D01*
X275826Y291903D01*
X275755Y291898D01*
X275707Y291878D01*
X275656Y291866D01*
X275595Y291830D01*
X275529Y291802D01*
X275473Y291757D01*
X275445Y291740D01*
X275430Y291722D01*
X275398Y291697D01*
X272698Y288997D01*
X264702Y288997D01*
X259047Y294652D01*
X259047Y302648D01*
X264702Y308303D01*
X272698Y308303D01*
X275398Y305603D01*
X275456Y305561D01*
X275508Y305512D01*
X275555Y305490D01*
X275597Y305460D01*
X275666Y305439D01*
X275731Y305408D01*
X275783Y305403D01*
X275833Y305387D01*
X275904Y305389D01*
X275975Y305381D01*
X276026Y305392D01*
X276078Y305394D01*
X276146Y305418D01*
X276216Y305434D01*
X276261Y305460D01*
X276309Y305478D01*
X276365Y305523D01*
X276427Y305560D01*
X276461Y305599D01*
X276501Y305632D01*
X276540Y305692D01*
X276587Y305747D01*
X276606Y305795D01*
X276634Y305839D01*
X276652Y305908D01*
X276679Y305975D01*
X276687Y306046D01*
X276695Y306077D01*
X276693Y306101D01*
X276697Y306142D01*
X276697Y316558D01*
X276695Y316569D01*
X276696Y316576D01*
X276688Y316612D01*
X276686Y316629D01*
X276684Y316701D01*
X276666Y316750D01*
X276658Y316801D01*
X276624Y316865D01*
X276599Y316932D01*
X276567Y316973D01*
X276542Y317019D01*
X276490Y317068D01*
X276446Y317124D01*
X276402Y317152D01*
X276364Y317188D01*
X276299Y317218D01*
X276239Y317257D01*
X276188Y317270D01*
X276141Y317292D01*
X276070Y317299D01*
X276000Y317317D01*
X275948Y317313D01*
X275897Y317319D01*
X275826Y317303D01*
X275755Y317298D01*
X275707Y317278D01*
X275656Y317266D01*
X275595Y317230D01*
X275529Y317202D01*
X275473Y317157D01*
X275445Y317140D01*
X275430Y317122D01*
X275398Y317097D01*
X272698Y314397D01*
X264702Y314397D01*
X259047Y320052D01*
X259047Y328048D01*
X264702Y333703D01*
X272698Y333703D01*
X275398Y331003D01*
X275456Y330961D01*
X275508Y330912D01*
X275555Y330890D01*
X275597Y330860D01*
X275666Y330839D01*
X275731Y330808D01*
X275783Y330803D01*
X275833Y330787D01*
X275904Y330789D01*
X275975Y330781D01*
X276026Y330792D01*
X276078Y330794D01*
X276146Y330818D01*
X276216Y330834D01*
X276261Y330860D01*
X276309Y330878D01*
X276365Y330923D01*
X276427Y330960D01*
X276461Y330999D01*
X276501Y331032D01*
X276540Y331092D01*
X276587Y331147D01*
X276606Y331195D01*
X276634Y331239D01*
X276652Y331308D01*
X276679Y331375D01*
X276687Y331446D01*
X276695Y331477D01*
X276693Y331501D01*
X276697Y331542D01*
X276697Y341368D01*
X278855Y343526D01*
X281474Y346145D01*
X281527Y346219D01*
X281587Y346288D01*
X281599Y346319D01*
X281618Y346345D01*
X281645Y346432D01*
X281679Y346517D01*
X281683Y346558D01*
X281690Y346580D01*
X281689Y346612D01*
X281697Y346683D01*
X281697Y406368D01*
X293632Y418303D01*
X294005Y418303D01*
X294025Y418306D01*
X294044Y418304D01*
X294146Y418326D01*
X294248Y418342D01*
X294265Y418352D01*
X294285Y418356D01*
X294374Y418409D01*
X294465Y418458D01*
X294479Y418472D01*
X294496Y418482D01*
X294563Y418561D01*
X294635Y418636D01*
X294643Y418654D01*
X294656Y418669D01*
X294695Y418765D01*
X294738Y418859D01*
X294740Y418879D01*
X294748Y418897D01*
X294766Y419064D01*
X294766Y425784D01*
X295164Y426182D01*
X295176Y426198D01*
X295191Y426210D01*
X295247Y426297D01*
X295308Y426381D01*
X295313Y426400D01*
X295324Y426417D01*
X295349Y426518D01*
X295380Y426617D01*
X295379Y426636D01*
X295384Y426656D01*
X295376Y426759D01*
X295374Y426862D01*
X295367Y426881D01*
X295365Y426901D01*
X295325Y426996D01*
X295289Y427093D01*
X295277Y427109D01*
X295269Y427127D01*
X295164Y427258D01*
X294766Y427656D01*
X294766Y441024D01*
X295957Y442215D01*
X307229Y442215D01*
X307319Y442229D01*
X307410Y442237D01*
X307439Y442249D01*
X307471Y442254D01*
X307552Y442297D01*
X307636Y442333D01*
X307668Y442359D01*
X307689Y442370D01*
X307711Y442393D01*
X307767Y442438D01*
X328632Y463303D01*
X329869Y463303D01*
X329959Y463317D01*
X330050Y463325D01*
X330080Y463337D01*
X330112Y463342D01*
X330193Y463385D01*
X330277Y463421D01*
X330309Y463447D01*
X330329Y463458D01*
X330351Y463481D01*
X330408Y463526D01*
X331404Y464522D01*
X334578Y465837D01*
X351222Y465837D01*
X354396Y464522D01*
X356826Y462092D01*
X358141Y458918D01*
X358141Y455482D01*
X356826Y452308D01*
X354396Y449878D01*
X351222Y448563D01*
X334578Y448563D01*
X331404Y449878D01*
X328974Y452308D01*
X328826Y452666D01*
X328801Y452705D01*
X328786Y452748D01*
X328737Y452809D01*
X328696Y452875D01*
X328661Y452905D01*
X328632Y452940D01*
X328566Y452983D01*
X328507Y453032D01*
X328464Y453049D01*
X328425Y453073D01*
X328350Y453092D01*
X328277Y453120D01*
X328231Y453122D01*
X328187Y453133D01*
X328109Y453127D01*
X328031Y453131D01*
X327987Y453118D01*
X327941Y453114D01*
X327870Y453084D01*
X327795Y453062D01*
X327757Y453036D01*
X327715Y453018D01*
X327608Y452933D01*
X327593Y452922D01*
X327590Y452918D01*
X327584Y452913D01*
X315057Y440386D01*
X315013Y440325D01*
X314977Y440288D01*
X314971Y440274D01*
X314944Y440243D01*
X314932Y440212D01*
X314913Y440186D01*
X314886Y440099D01*
X314852Y440014D01*
X314848Y439973D01*
X314841Y439951D01*
X314842Y439919D01*
X314834Y439848D01*
X314834Y427656D01*
X314436Y427258D01*
X314424Y427242D01*
X314409Y427230D01*
X314353Y427142D01*
X314292Y427059D01*
X314287Y427040D01*
X314276Y427023D01*
X314251Y426922D01*
X314220Y426823D01*
X314221Y426804D01*
X314216Y426784D01*
X314224Y426681D01*
X314226Y426578D01*
X314233Y426559D01*
X314235Y426539D01*
X314275Y426444D01*
X314311Y426347D01*
X314323Y426331D01*
X314331Y426313D01*
X314436Y426182D01*
X314834Y425784D01*
X314834Y412416D01*
X314436Y412018D01*
X314424Y412002D01*
X314409Y411990D01*
X314353Y411902D01*
X314292Y411819D01*
X314287Y411800D01*
X314276Y411783D01*
X314251Y411682D01*
X314220Y411583D01*
X314221Y411564D01*
X314216Y411544D01*
X314224Y411441D01*
X314226Y411338D01*
X314233Y411319D01*
X314235Y411299D01*
X314275Y411204D01*
X314311Y411107D01*
X314323Y411091D01*
X314331Y411073D01*
X314436Y410942D01*
X314815Y410563D01*
X314831Y410551D01*
X314844Y410535D01*
X314931Y410479D01*
X315015Y410419D01*
X315034Y410413D01*
X315051Y410402D01*
X315151Y410377D01*
X315250Y410347D01*
X315270Y410347D01*
X315289Y410342D01*
X315392Y410350D01*
X315496Y410353D01*
X315515Y410360D01*
X315534Y410361D01*
X315629Y410402D01*
X315727Y410437D01*
X315743Y410450D01*
X315761Y410458D01*
X315892Y410563D01*
X330067Y424738D01*
X330079Y424754D01*
X330094Y424767D01*
X330151Y424854D01*
X330211Y424938D01*
X330217Y424957D01*
X330227Y424974D01*
X330253Y425074D01*
X330283Y425173D01*
X330283Y425193D01*
X330287Y425212D01*
X330279Y425315D01*
X330277Y425419D01*
X330270Y425437D01*
X330268Y425457D01*
X330228Y425552D01*
X330192Y425650D01*
X330180Y425665D01*
X330172Y425684D01*
X330067Y425815D01*
X328974Y426908D01*
X327659Y430082D01*
X327659Y433518D01*
X328974Y436692D01*
X331404Y439122D01*
X334578Y440437D01*
X351222Y440437D01*
X354396Y439122D01*
X356826Y436692D01*
X358141Y433518D01*
X358141Y430082D01*
X356826Y426908D01*
X354396Y424478D01*
X351222Y423163D01*
X338149Y423163D01*
X338059Y423149D01*
X337968Y423141D01*
X337939Y423129D01*
X337907Y423124D01*
X337826Y423081D01*
X337742Y423045D01*
X337710Y423019D01*
X337689Y423008D01*
X337667Y422985D01*
X337611Y422940D01*
X316368Y401697D01*
X315595Y401697D01*
X315575Y401694D01*
X315556Y401696D01*
X315454Y401674D01*
X315352Y401658D01*
X315335Y401648D01*
X315315Y401644D01*
X315226Y401591D01*
X315135Y401542D01*
X315121Y401528D01*
X315104Y401518D01*
X315037Y401439D01*
X314965Y401364D01*
X314957Y401346D01*
X314944Y401331D01*
X314905Y401235D01*
X314862Y401141D01*
X314860Y401121D01*
X314852Y401103D01*
X314834Y400936D01*
X314834Y397176D01*
X313643Y395985D01*
X295957Y395985D01*
X294766Y397176D01*
X294766Y408258D01*
X294755Y408328D01*
X294753Y408400D01*
X294735Y408449D01*
X294727Y408500D01*
X294693Y408564D01*
X294668Y408631D01*
X294636Y408672D01*
X294611Y408718D01*
X294559Y408767D01*
X294515Y408823D01*
X294471Y408851D01*
X294433Y408887D01*
X294368Y408917D01*
X294308Y408956D01*
X294257Y408969D01*
X294210Y408991D01*
X294139Y408999D01*
X294069Y409016D01*
X294017Y409012D01*
X293966Y409018D01*
X293895Y409003D01*
X293824Y408997D01*
X293776Y408977D01*
X293725Y408966D01*
X293664Y408929D01*
X293598Y408901D01*
X293542Y408856D01*
X293514Y408839D01*
X293499Y408822D01*
X293467Y408796D01*
X288526Y403855D01*
X288484Y403796D01*
X288437Y403748D01*
X288429Y403730D01*
X288413Y403712D01*
X288401Y403681D01*
X288382Y403655D01*
X288358Y403577D01*
X288334Y403524D01*
X288332Y403510D01*
X288321Y403483D01*
X288317Y403442D01*
X288310Y403420D01*
X288311Y403388D01*
X288303Y403317D01*
X288303Y344064D01*
X288306Y344044D01*
X288304Y344025D01*
X288326Y343923D01*
X288342Y343821D01*
X288352Y343804D01*
X288356Y343784D01*
X288409Y343695D01*
X288458Y343604D01*
X288472Y343590D01*
X288482Y343573D01*
X288561Y343506D01*
X288636Y343434D01*
X288654Y343426D01*
X288669Y343413D01*
X288765Y343374D01*
X288859Y343331D01*
X288879Y343329D01*
X288897Y343321D01*
X289064Y343303D01*
X294005Y343303D01*
X294025Y343306D01*
X294044Y343304D01*
X294146Y343326D01*
X294248Y343342D01*
X294265Y343352D01*
X294285Y343356D01*
X294374Y343409D01*
X294465Y343458D01*
X294479Y343472D01*
X294496Y343482D01*
X294563Y343561D01*
X294635Y343636D01*
X294643Y343654D01*
X294656Y343669D01*
X294695Y343765D01*
X294738Y343859D01*
X294740Y343879D01*
X294748Y343897D01*
X294766Y344064D01*
X294766Y349584D01*
X295164Y349982D01*
X295176Y349998D01*
X295191Y350010D01*
X295247Y350097D01*
X295308Y350181D01*
X295313Y350200D01*
X295324Y350217D01*
X295349Y350318D01*
X295380Y350417D01*
X295379Y350436D01*
X295384Y350456D01*
X295376Y350559D01*
X295374Y350662D01*
X295367Y350681D01*
X295365Y350701D01*
X295325Y350796D01*
X295289Y350893D01*
X295277Y350909D01*
X295269Y350927D01*
X295164Y351058D01*
X294766Y351456D01*
X294766Y364824D01*
X295957Y366015D01*
X313643Y366015D01*
X314455Y365203D01*
X314471Y365191D01*
X314484Y365175D01*
X314571Y365119D01*
X314655Y365059D01*
X314674Y365053D01*
X314691Y365042D01*
X314791Y365017D01*
X314890Y364987D01*
X314910Y364987D01*
X314929Y364982D01*
X315032Y364990D01*
X315136Y364993D01*
X315155Y365000D01*
X315174Y365001D01*
X315269Y365042D01*
X315367Y365077D01*
X315383Y365090D01*
X315401Y365098D01*
X315532Y365203D01*
X327871Y377542D01*
X327939Y377636D01*
X328009Y377731D01*
X328011Y377737D01*
X328015Y377742D01*
X328049Y377853D01*
X328085Y377965D01*
X328085Y377971D01*
X328087Y377977D01*
X328084Y378094D01*
X328083Y378211D01*
X328081Y378218D01*
X328081Y378223D01*
X328074Y378240D01*
X328036Y378372D01*
X327659Y379282D01*
X327659Y382718D01*
X328974Y385892D01*
X331404Y388322D01*
X334578Y389637D01*
X351222Y389637D01*
X354396Y388322D01*
X356826Y385892D01*
X358141Y382718D01*
X358141Y379282D01*
X356826Y376108D01*
X354396Y373678D01*
X351222Y372363D01*
X334578Y372363D01*
X333249Y372914D01*
X333135Y372940D01*
X333022Y372969D01*
X333016Y372968D01*
X333010Y372970D01*
X332893Y372959D01*
X332777Y372950D01*
X332771Y372947D01*
X332765Y372947D01*
X332657Y372899D01*
X332550Y372854D01*
X332545Y372849D01*
X332540Y372847D01*
X332526Y372834D01*
X332419Y372749D01*
X316368Y356697D01*
X315595Y356697D01*
X315575Y356694D01*
X315556Y356696D01*
X315454Y356674D01*
X315352Y356658D01*
X315335Y356648D01*
X315315Y356644D01*
X315226Y356591D01*
X315135Y356542D01*
X315121Y356528D01*
X315104Y356518D01*
X315037Y356439D01*
X314965Y356364D01*
X314957Y356346D01*
X314944Y356331D01*
X314905Y356235D01*
X314862Y356141D01*
X314860Y356121D01*
X314852Y356103D01*
X314834Y355936D01*
X314834Y351456D01*
X314436Y351058D01*
X314424Y351042D01*
X314409Y351030D01*
X314353Y350942D01*
X314292Y350859D01*
X314287Y350840D01*
X314276Y350823D01*
X314251Y350722D01*
X314220Y350623D01*
X314221Y350604D01*
X314216Y350584D01*
X314224Y350481D01*
X314226Y350378D01*
X314233Y350359D01*
X314235Y350339D01*
X314275Y350244D01*
X314311Y350147D01*
X314323Y350131D01*
X314331Y350113D01*
X314436Y349982D01*
X314834Y349584D01*
X314834Y336342D01*
X314845Y336272D01*
X314847Y336200D01*
X314865Y336151D01*
X314873Y336100D01*
X314907Y336036D01*
X314932Y335969D01*
X314964Y335928D01*
X314989Y335882D01*
X315040Y335833D01*
X315085Y335777D01*
X315129Y335749D01*
X315167Y335713D01*
X315232Y335683D01*
X315292Y335644D01*
X315343Y335631D01*
X315390Y335609D01*
X315461Y335601D01*
X315531Y335584D01*
X315583Y335588D01*
X315634Y335582D01*
X315705Y335597D01*
X315776Y335603D01*
X315824Y335623D01*
X315875Y335634D01*
X315936Y335671D01*
X316002Y335699D01*
X316058Y335744D01*
X316086Y335761D01*
X316101Y335778D01*
X316133Y335804D01*
X329467Y349138D01*
X329479Y349154D01*
X329494Y349167D01*
X329551Y349254D01*
X329611Y349338D01*
X329617Y349357D01*
X329627Y349374D01*
X329653Y349474D01*
X329683Y349573D01*
X329683Y349593D01*
X329687Y349612D01*
X329679Y349715D01*
X329677Y349819D01*
X329670Y349837D01*
X329668Y349857D01*
X329628Y349952D01*
X329592Y350050D01*
X329580Y350065D01*
X329572Y350084D01*
X329467Y350215D01*
X328974Y350708D01*
X327659Y353882D01*
X327659Y357318D01*
X328974Y360492D01*
X331404Y362922D01*
X334578Y364237D01*
X351222Y364237D01*
X354396Y362922D01*
X356826Y360492D01*
X358141Y357318D01*
X358141Y353882D01*
X356826Y350708D01*
X354396Y348278D01*
X351222Y346963D01*
X336949Y346963D01*
X336859Y346949D01*
X336768Y346941D01*
X336739Y346929D01*
X336707Y346924D01*
X336626Y346881D01*
X336542Y346845D01*
X336510Y346819D01*
X336489Y346808D01*
X336467Y346785D01*
X336411Y346740D01*
X316368Y326697D01*
X315595Y326697D01*
X315575Y326694D01*
X315556Y326696D01*
X315454Y326674D01*
X315352Y326658D01*
X315335Y326648D01*
X315315Y326644D01*
X315226Y326591D01*
X315135Y326542D01*
X315121Y326528D01*
X315104Y326518D01*
X315037Y326439D01*
X314965Y326364D01*
X314957Y326346D01*
X314944Y326331D01*
X314905Y326235D01*
X314862Y326141D01*
X314860Y326121D01*
X314852Y326103D01*
X314834Y325936D01*
X314834Y320976D01*
X313643Y319785D01*
X295957Y319785D01*
X294766Y320976D01*
X294766Y334344D01*
X295164Y334742D01*
X295176Y334758D01*
X295191Y334770D01*
X295247Y334857D01*
X295308Y334941D01*
X295313Y334960D01*
X295324Y334977D01*
X295349Y335078D01*
X295380Y335177D01*
X295379Y335196D01*
X295384Y335216D01*
X295376Y335319D01*
X295374Y335422D01*
X295367Y335441D01*
X295365Y335461D01*
X295325Y335556D01*
X295289Y335653D01*
X295277Y335669D01*
X295269Y335687D01*
X295164Y335818D01*
X294640Y336342D01*
X294611Y336396D01*
X294597Y336410D01*
X294587Y336427D01*
X294508Y336494D01*
X294433Y336566D01*
X294415Y336574D01*
X294400Y336587D01*
X294304Y336626D01*
X294210Y336669D01*
X294190Y336671D01*
X294172Y336679D01*
X294005Y336697D01*
X291683Y336697D01*
X291593Y336683D01*
X291502Y336675D01*
X291473Y336663D01*
X291441Y336658D01*
X291360Y336615D01*
X291276Y336579D01*
X291244Y336553D01*
X291223Y336542D01*
X291201Y336519D01*
X291145Y336474D01*
X288526Y333855D01*
X288473Y333781D01*
X288413Y333712D01*
X288401Y333681D01*
X288382Y333655D01*
X288355Y333568D01*
X288321Y333483D01*
X288317Y333442D01*
X288310Y333420D01*
X288311Y333388D01*
X288303Y333317D01*
X288303Y261683D01*
X288317Y261593D01*
X288325Y261502D01*
X288337Y261473D01*
X288342Y261441D01*
X288385Y261360D01*
X288421Y261276D01*
X288447Y261244D01*
X288458Y261223D01*
X288481Y261201D01*
X288526Y261145D01*
X344462Y205209D01*
X344478Y205197D01*
X344490Y205182D01*
X344578Y205126D01*
X344661Y205066D01*
X344680Y205060D01*
X344697Y205049D01*
X344798Y205024D01*
X344897Y204993D01*
X344916Y204994D01*
X344936Y204989D01*
X345039Y204997D01*
X345142Y205000D01*
X345161Y205006D01*
X345181Y205008D01*
X345276Y205048D01*
X345373Y205084D01*
X345389Y205096D01*
X345407Y205104D01*
X345538Y205209D01*
X366474Y226145D01*
X366527Y226219D01*
X366587Y226288D01*
X366599Y226319D01*
X366618Y226345D01*
X366645Y226432D01*
X366679Y226517D01*
X366683Y226558D01*
X366690Y226580D01*
X366689Y226612D01*
X366697Y226683D01*
X366697Y231420D01*
X366682Y231516D01*
X366672Y231613D01*
X366662Y231637D01*
X366658Y231663D01*
X366612Y231749D01*
X366572Y231838D01*
X366555Y231857D01*
X366542Y231880D01*
X366472Y231947D01*
X366406Y232019D01*
X366383Y232032D01*
X366364Y232050D01*
X366276Y232091D01*
X366190Y232138D01*
X366165Y232142D01*
X366141Y232153D01*
X366044Y232164D01*
X365948Y232181D01*
X365922Y232178D01*
X365897Y232181D01*
X365801Y232160D01*
X365705Y232146D01*
X365682Y232134D01*
X365656Y232128D01*
X365573Y232078D01*
X365486Y232034D01*
X365467Y232015D01*
X365445Y232002D01*
X365382Y231928D01*
X365314Y231859D01*
X365298Y231830D01*
X365285Y231815D01*
X365273Y231785D01*
X365233Y231712D01*
X363783Y228212D01*
X361068Y225497D01*
X357520Y224027D01*
X353680Y224027D01*
X350132Y225497D01*
X347417Y228212D01*
X345947Y231760D01*
X345947Y250840D01*
X347417Y254388D01*
X350132Y257103D01*
X351227Y257557D01*
X351327Y257619D01*
X351427Y257678D01*
X351431Y257683D01*
X351436Y257686D01*
X351511Y257777D01*
X351587Y257865D01*
X351589Y257871D01*
X351593Y257876D01*
X351635Y257984D01*
X351679Y258093D01*
X351680Y258101D01*
X351681Y258106D01*
X351682Y258124D01*
X351697Y258260D01*
X351697Y291368D01*
X361474Y301145D01*
X361527Y301219D01*
X361587Y301288D01*
X361599Y301319D01*
X361618Y301345D01*
X361645Y301432D01*
X361679Y301517D01*
X361683Y301558D01*
X361690Y301580D01*
X361689Y301612D01*
X361697Y301683D01*
X361697Y528317D01*
X361683Y528407D01*
X361675Y528498D01*
X361663Y528527D01*
X361658Y528559D01*
X361615Y528640D01*
X361579Y528724D01*
X361553Y528756D01*
X361542Y528777D01*
X361519Y528799D01*
X361474Y528855D01*
X308855Y581474D01*
X308781Y581527D01*
X308712Y581587D01*
X308681Y581599D01*
X308655Y581618D01*
X308568Y581645D01*
X308483Y581679D01*
X308442Y581683D01*
X308420Y581690D01*
X308388Y581689D01*
X308317Y581697D01*
X281683Y581697D01*
X281593Y581683D01*
X281502Y581675D01*
X281473Y581663D01*
X281441Y581658D01*
X281360Y581615D01*
X281276Y581579D01*
X281244Y581553D01*
X281223Y581542D01*
X281201Y581519D01*
X281145Y581474D01*
X278576Y578905D01*
X278528Y578838D01*
X278525Y578835D01*
X278524Y578832D01*
X278523Y578831D01*
X278463Y578762D01*
X278451Y578731D01*
X278432Y578705D01*
X278405Y578618D01*
X278371Y578533D01*
X278367Y578492D01*
X278360Y578470D01*
X278361Y578438D01*
X278353Y578367D01*
X278353Y574052D01*
X272698Y568397D01*
X264702Y568397D01*
X259047Y574052D01*
X259047Y582048D01*
X264702Y587703D01*
X272698Y587703D01*
X274827Y585574D01*
X274843Y585563D01*
X274855Y585547D01*
X274943Y585491D01*
X275027Y585431D01*
X275046Y585425D01*
X275062Y585414D01*
X275163Y585389D01*
X275262Y585358D01*
X275282Y585359D01*
X275301Y585354D01*
X275404Y585362D01*
X275508Y585365D01*
X275526Y585372D01*
X275546Y585373D01*
X275641Y585413D01*
X275739Y585449D01*
X275754Y585462D01*
X275772Y585469D01*
X275903Y585574D01*
X278632Y588303D01*
X308317Y588303D01*
X308407Y588317D01*
X308498Y588325D01*
X308527Y588337D01*
X308559Y588342D01*
X308640Y588385D01*
X308724Y588421D01*
X308756Y588447D01*
X308777Y588458D01*
X308799Y588481D01*
X308855Y588526D01*
X321340Y601011D01*
X321393Y601085D01*
X321453Y601154D01*
X321465Y601185D01*
X321484Y601211D01*
X321511Y601298D01*
X321545Y601383D01*
X321549Y601424D01*
X321556Y601446D01*
X321555Y601478D01*
X321563Y601549D01*
X321563Y617922D01*
X322878Y621096D01*
X325308Y623526D01*
X328482Y624841D01*
X331918Y624841D01*
X334478Y623780D01*
X334572Y623758D01*
X334665Y623730D01*
X334692Y623730D01*
X334717Y623724D01*
X334814Y623733D01*
X334911Y623736D01*
X334936Y623745D01*
X334962Y623747D01*
X335051Y623787D01*
X335142Y623820D01*
X335163Y623837D01*
X335187Y623847D01*
X335258Y623913D01*
X335334Y623974D01*
X335348Y623996D01*
X335368Y624014D01*
X335415Y624099D01*
X335467Y624181D01*
X335474Y624206D01*
X335486Y624229D01*
X335504Y624325D01*
X335527Y624420D01*
X335525Y624446D01*
X335530Y624471D01*
X335516Y624568D01*
X335508Y624665D01*
X335498Y624689D01*
X335494Y624715D01*
X335450Y624802D01*
X335412Y624891D01*
X335392Y624917D01*
X335383Y624934D01*
X335359Y624957D01*
X335307Y625022D01*
X333855Y626474D01*
X333781Y626527D01*
X333712Y626587D01*
X333681Y626599D01*
X333655Y626618D01*
X333568Y626645D01*
X333483Y626679D01*
X333442Y626683D01*
X333420Y626690D01*
X333388Y626689D01*
X333317Y626697D01*
X286683Y626697D01*
X286593Y626683D01*
X286502Y626675D01*
X286473Y626663D01*
X286441Y626658D01*
X286360Y626615D01*
X286276Y626579D01*
X286244Y626553D01*
X286223Y626542D01*
X286201Y626519D01*
X286145Y626474D01*
X284283Y624612D01*
X284271Y624596D01*
X284256Y624583D01*
X284227Y624538D01*
X284200Y624510D01*
X284182Y624472D01*
X284139Y624412D01*
X284133Y624393D01*
X284123Y624376D01*
X284105Y624305D01*
X284096Y624287D01*
X284094Y624264D01*
X284067Y624177D01*
X284067Y624157D01*
X284063Y624138D01*
X284070Y624047D01*
X284069Y624042D01*
X284070Y624036D01*
X284071Y624035D01*
X284073Y623931D01*
X284080Y623912D01*
X284082Y623893D01*
X284122Y623798D01*
X284158Y623700D01*
X284170Y623685D01*
X284178Y623666D01*
X284283Y623535D01*
X286722Y621096D01*
X288037Y617922D01*
X288037Y601278D01*
X286722Y598104D01*
X284292Y595674D01*
X281118Y594359D01*
X277682Y594359D01*
X274508Y595674D01*
X272078Y598104D01*
X270763Y601278D01*
X270763Y617922D01*
X272078Y621096D01*
X274508Y623526D01*
X276227Y624238D01*
X276327Y624300D01*
X276427Y624360D01*
X276431Y624364D01*
X276436Y624368D01*
X276511Y624458D01*
X276587Y624547D01*
X276589Y624552D01*
X276593Y624557D01*
X276635Y624666D01*
X276679Y624775D01*
X276680Y624782D01*
X276681Y624787D01*
X276682Y624805D01*
X276697Y624941D01*
X276697Y626368D01*
X283632Y633303D01*
X336368Y633303D01*
X473303Y496368D01*
X473303Y439811D01*
X473314Y439741D01*
X473316Y439669D01*
X473334Y439620D01*
X473342Y439569D01*
X473376Y439505D01*
X473401Y439438D01*
X473433Y439397D01*
X473458Y439351D01*
X473510Y439302D01*
X473554Y439246D01*
X473598Y439218D01*
X473636Y439182D01*
X473701Y439152D01*
X473761Y439113D01*
X473812Y439100D01*
X473859Y439078D01*
X473930Y439070D01*
X474000Y439053D01*
X474052Y439057D01*
X474103Y439051D01*
X474174Y439066D01*
X474245Y439072D01*
X474293Y439092D01*
X474344Y439103D01*
X474405Y439140D01*
X474471Y439168D01*
X474527Y439213D01*
X474555Y439230D01*
X474570Y439247D01*
X474602Y439273D01*
X483424Y448095D01*
X483477Y448169D01*
X483537Y448238D01*
X483549Y448269D01*
X483568Y448295D01*
X483595Y448382D01*
X483629Y448467D01*
X483633Y448508D01*
X483640Y448530D01*
X483639Y448562D01*
X483647Y448633D01*
X483647Y455048D01*
X489302Y460703D01*
X497298Y460703D01*
X502953Y455048D01*
X502953Y447052D01*
X497298Y441397D01*
X489302Y441397D01*
X488223Y442476D01*
X488207Y442487D01*
X488195Y442503D01*
X488107Y442559D01*
X488023Y442619D01*
X488004Y442625D01*
X487988Y442636D01*
X487887Y442661D01*
X487788Y442692D01*
X487768Y442691D01*
X487749Y442696D01*
X487646Y442688D01*
X487542Y442685D01*
X487524Y442678D01*
X487504Y442677D01*
X487409Y442637D01*
X487311Y442601D01*
X487296Y442588D01*
X487278Y442581D01*
X487147Y442476D01*
X478526Y433855D01*
X478473Y433781D01*
X478413Y433712D01*
X478401Y433681D01*
X478382Y433655D01*
X478355Y433568D01*
X478321Y433483D01*
X478317Y433442D01*
X478310Y433420D01*
X478311Y433388D01*
X478303Y433317D01*
X478303Y408632D01*
X471368Y401697D01*
X467995Y401697D01*
X467975Y401694D01*
X467956Y401696D01*
X467854Y401674D01*
X467752Y401658D01*
X467735Y401648D01*
X467715Y401644D01*
X467626Y401591D01*
X467535Y401542D01*
X467521Y401528D01*
X467504Y401518D01*
X467437Y401439D01*
X467365Y401364D01*
X467357Y401346D01*
X467344Y401331D01*
X467305Y401235D01*
X467262Y401141D01*
X467260Y401121D01*
X467252Y401103D01*
X467234Y400936D01*
X467234Y397176D01*
X466043Y395985D01*
X448357Y395985D01*
X447868Y396474D01*
X447794Y396527D01*
X447725Y396587D01*
X447694Y396599D01*
X447668Y396618D01*
X447581Y396645D01*
X447496Y396679D01*
X447455Y396683D01*
X447433Y396690D01*
X447401Y396689D01*
X447330Y396697D01*
X428632Y396697D01*
X427789Y397540D01*
X427715Y397593D01*
X427646Y397653D01*
X427615Y397665D01*
X427589Y397684D01*
X427502Y397711D01*
X427417Y397745D01*
X427376Y397749D01*
X427354Y397756D01*
X427322Y397755D01*
X427251Y397763D01*
X410778Y397763D01*
X407604Y399078D01*
X405174Y401508D01*
X403859Y404682D01*
X403859Y408118D01*
X405174Y411292D01*
X407604Y413722D01*
X410778Y415037D01*
X427422Y415037D01*
X430596Y413722D01*
X433026Y411292D01*
X434341Y408118D01*
X434341Y404682D01*
X434205Y404355D01*
X434196Y404314D01*
X434182Y404286D01*
X434182Y404283D01*
X434176Y404269D01*
X434167Y404192D01*
X434149Y404116D01*
X434154Y404070D01*
X434148Y404025D01*
X434165Y403948D01*
X434172Y403871D01*
X434191Y403829D01*
X434201Y403784D01*
X434241Y403717D01*
X434272Y403646D01*
X434303Y403612D01*
X434327Y403573D01*
X434386Y403522D01*
X434439Y403465D01*
X434479Y403443D01*
X434514Y403413D01*
X434586Y403384D01*
X434654Y403347D01*
X434699Y403338D01*
X434742Y403321D01*
X434878Y403306D01*
X434896Y403303D01*
X434901Y403304D01*
X434909Y403303D01*
X446405Y403303D01*
X446425Y403306D01*
X446444Y403304D01*
X446546Y403326D01*
X446648Y403342D01*
X446665Y403352D01*
X446685Y403356D01*
X446774Y403409D01*
X446865Y403458D01*
X446879Y403472D01*
X446896Y403482D01*
X446963Y403561D01*
X447035Y403636D01*
X447043Y403654D01*
X447056Y403669D01*
X447095Y403765D01*
X447138Y403859D01*
X447140Y403879D01*
X447148Y403897D01*
X447166Y404064D01*
X447166Y410544D01*
X447564Y410942D01*
X447576Y410958D01*
X447591Y410970D01*
X447647Y411057D01*
X447708Y411141D01*
X447713Y411160D01*
X447724Y411177D01*
X447749Y411278D01*
X447780Y411377D01*
X447779Y411396D01*
X447784Y411416D01*
X447776Y411519D01*
X447774Y411622D01*
X447767Y411641D01*
X447765Y411661D01*
X447725Y411756D01*
X447689Y411853D01*
X447677Y411869D01*
X447669Y411887D01*
X447564Y412018D01*
X447166Y412416D01*
X447166Y425784D01*
X447564Y426182D01*
X447576Y426198D01*
X447591Y426210D01*
X447647Y426297D01*
X447708Y426381D01*
X447713Y426400D01*
X447724Y426417D01*
X447749Y426518D01*
X447780Y426617D01*
X447779Y426636D01*
X447784Y426656D01*
X447776Y426759D01*
X447774Y426862D01*
X447767Y426881D01*
X447765Y426901D01*
X447725Y426996D01*
X447689Y427093D01*
X447677Y427109D01*
X447669Y427127D01*
X447564Y427258D01*
X447166Y427656D01*
X447166Y430936D01*
X447163Y430956D01*
X447165Y430975D01*
X447143Y431077D01*
X447127Y431179D01*
X447117Y431196D01*
X447113Y431216D01*
X447060Y431305D01*
X447011Y431396D01*
X446997Y431410D01*
X446987Y431427D01*
X446908Y431494D01*
X446833Y431566D01*
X446815Y431574D01*
X446800Y431587D01*
X446704Y431626D01*
X446610Y431669D01*
X446590Y431671D01*
X446572Y431679D01*
X446405Y431697D01*
X435102Y431697D01*
X435082Y431694D01*
X435063Y431696D01*
X434961Y431674D01*
X434859Y431658D01*
X434842Y431648D01*
X434822Y431644D01*
X434733Y431591D01*
X434642Y431542D01*
X434628Y431528D01*
X434611Y431518D01*
X434544Y431439D01*
X434472Y431364D01*
X434464Y431346D01*
X434451Y431331D01*
X434412Y431235D01*
X434369Y431141D01*
X434367Y431121D01*
X434359Y431103D01*
X434341Y430936D01*
X434341Y430082D01*
X433026Y426908D01*
X430596Y424478D01*
X427422Y423163D01*
X410778Y423163D01*
X407604Y424478D01*
X405174Y426908D01*
X403859Y430082D01*
X403859Y433518D01*
X405174Y436692D01*
X407604Y439122D01*
X410778Y440437D01*
X427422Y440437D01*
X430596Y439122D01*
X431193Y438526D01*
X431266Y438473D01*
X431336Y438413D01*
X431366Y438401D01*
X431392Y438382D01*
X431479Y438355D01*
X431564Y438321D01*
X431605Y438317D01*
X431627Y438310D01*
X431660Y438311D01*
X431731Y438303D01*
X446405Y438303D01*
X446425Y438306D01*
X446444Y438304D01*
X446546Y438326D01*
X446648Y438342D01*
X446665Y438352D01*
X446685Y438356D01*
X446774Y438409D01*
X446865Y438458D01*
X446879Y438472D01*
X446896Y438482D01*
X446963Y438561D01*
X447035Y438636D01*
X447043Y438654D01*
X447056Y438669D01*
X447095Y438765D01*
X447138Y438859D01*
X447140Y438879D01*
X447148Y438897D01*
X447166Y439064D01*
X447166Y441024D01*
X448357Y442215D01*
X465936Y442215D01*
X465956Y442218D01*
X465975Y442216D01*
X466077Y442238D01*
X466179Y442254D01*
X466196Y442264D01*
X466216Y442268D01*
X466305Y442321D01*
X466396Y442370D01*
X466410Y442384D01*
X466427Y442394D01*
X466494Y442473D01*
X466566Y442548D01*
X466574Y442566D01*
X466587Y442581D01*
X466626Y442677D01*
X466669Y442771D01*
X466671Y442791D01*
X466679Y442809D01*
X466697Y442976D01*
X466697Y493317D01*
X466683Y493407D01*
X466675Y493498D01*
X466663Y493527D01*
X466658Y493559D01*
X466615Y493640D01*
X466579Y493724D01*
X466553Y493756D01*
X466542Y493777D01*
X466519Y493799D01*
X466474Y493855D01*
X339018Y621311D01*
X338939Y621368D01*
X338864Y621430D01*
X338840Y621439D01*
X338818Y621455D01*
X338725Y621483D01*
X338634Y621518D01*
X338608Y621519D01*
X338583Y621527D01*
X338486Y621525D01*
X338389Y621529D01*
X338364Y621521D01*
X338337Y621521D01*
X338246Y621487D01*
X338152Y621460D01*
X338131Y621445D01*
X338106Y621436D01*
X338030Y621375D01*
X337950Y621320D01*
X337935Y621299D01*
X337914Y621283D01*
X337862Y621200D01*
X337804Y621122D01*
X337795Y621098D01*
X337781Y621076D01*
X337758Y620981D01*
X337727Y620889D01*
X337728Y620862D01*
X337721Y620837D01*
X337729Y620740D01*
X337730Y620643D01*
X337739Y620611D01*
X337740Y620592D01*
X337753Y620562D01*
X337776Y620482D01*
X338837Y617922D01*
X338837Y601278D01*
X337522Y598104D01*
X335092Y595674D01*
X331918Y594359D01*
X328482Y594359D01*
X325804Y595469D01*
X325690Y595495D01*
X325577Y595524D01*
X325571Y595523D01*
X325564Y595525D01*
X325448Y595514D01*
X325332Y595505D01*
X325326Y595502D01*
X325320Y595502D01*
X325212Y595454D01*
X325105Y595408D01*
X325099Y595404D01*
X325095Y595402D01*
X325081Y595389D01*
X324974Y595304D01*
X315209Y585538D01*
X315197Y585522D01*
X315182Y585510D01*
X315126Y585422D01*
X315066Y585339D01*
X315060Y585320D01*
X315049Y585303D01*
X315024Y585202D01*
X314993Y585103D01*
X314994Y585084D01*
X314989Y585064D01*
X314997Y584961D01*
X315000Y584858D01*
X315006Y584839D01*
X315008Y584819D01*
X315048Y584724D01*
X315084Y584627D01*
X315096Y584611D01*
X315104Y584593D01*
X315209Y584462D01*
X361588Y538083D01*
X361646Y538041D01*
X361698Y537992D01*
X361745Y537970D01*
X361787Y537939D01*
X361856Y537918D01*
X361921Y537888D01*
X361973Y537882D01*
X362023Y537867D01*
X362094Y537869D01*
X362165Y537861D01*
X362216Y537872D01*
X362268Y537873D01*
X362336Y537898D01*
X362406Y537913D01*
X362451Y537940D01*
X362499Y537958D01*
X362555Y538003D01*
X362617Y538040D01*
X362651Y538079D01*
X362691Y538112D01*
X362730Y538172D01*
X362777Y538226D01*
X362796Y538275D01*
X362824Y538319D01*
X362842Y538388D01*
X362869Y538455D01*
X362877Y538526D01*
X362885Y538557D01*
X362883Y538580D01*
X362887Y538621D01*
X362887Y541415D01*
X363970Y544029D01*
X365971Y546030D01*
X368585Y547113D01*
X371415Y547113D01*
X374029Y546030D01*
X376030Y544029D01*
X377113Y541415D01*
X377113Y538585D01*
X376030Y535971D01*
X374029Y533970D01*
X373773Y533864D01*
X373674Y533803D01*
X373573Y533742D01*
X373569Y533738D01*
X373564Y533734D01*
X373490Y533645D01*
X373413Y533556D01*
X373411Y533550D01*
X373407Y533545D01*
X373365Y533437D01*
X373321Y533327D01*
X373320Y533320D01*
X373319Y533315D01*
X373318Y533297D01*
X373303Y533161D01*
X373303Y490199D01*
X373314Y490129D01*
X373316Y490057D01*
X373334Y490008D01*
X373342Y489957D01*
X373376Y489893D01*
X373401Y489826D01*
X373433Y489785D01*
X373458Y489739D01*
X373510Y489690D01*
X373554Y489634D01*
X373598Y489606D01*
X373636Y489570D01*
X373701Y489540D01*
X373761Y489501D01*
X373812Y489488D01*
X373859Y489466D01*
X373930Y489458D01*
X374000Y489441D01*
X374052Y489445D01*
X374103Y489439D01*
X374174Y489454D01*
X374245Y489460D01*
X374293Y489480D01*
X374344Y489491D01*
X374405Y489528D01*
X374471Y489556D01*
X374527Y489601D01*
X374555Y489618D01*
X374570Y489635D01*
X374602Y489661D01*
X375971Y491030D01*
X378585Y492113D01*
X381415Y492113D01*
X384029Y491030D01*
X386030Y489029D01*
X387113Y486415D01*
X387113Y483585D01*
X386030Y480971D01*
X384029Y478970D01*
X383773Y478864D01*
X383674Y478803D01*
X383573Y478742D01*
X383569Y478738D01*
X383564Y478734D01*
X383490Y478645D01*
X383413Y478556D01*
X383411Y478550D01*
X383407Y478545D01*
X383365Y478437D01*
X383321Y478327D01*
X383320Y478320D01*
X383319Y478315D01*
X383318Y478297D01*
X383303Y478161D01*
X383303Y371683D01*
X383317Y371593D01*
X383325Y371502D01*
X383337Y371473D01*
X383342Y371441D01*
X383385Y371360D01*
X383421Y371276D01*
X383447Y371244D01*
X383458Y371223D01*
X383481Y371201D01*
X383526Y371145D01*
X403324Y351346D01*
X403403Y351290D01*
X403478Y351228D01*
X403503Y351218D01*
X403524Y351203D01*
X403617Y351174D01*
X403708Y351139D01*
X403734Y351138D01*
X403759Y351131D01*
X403857Y351133D01*
X403954Y351129D01*
X403979Y351136D01*
X404005Y351137D01*
X404097Y351170D01*
X404190Y351197D01*
X404211Y351212D01*
X404236Y351221D01*
X404312Y351282D01*
X404392Y351338D01*
X404408Y351359D01*
X404428Y351375D01*
X404481Y351457D01*
X404539Y351535D01*
X404547Y351560D01*
X404561Y351582D01*
X404585Y351676D01*
X404615Y351769D01*
X404615Y351795D01*
X404621Y351820D01*
X404614Y351917D01*
X404613Y352015D01*
X404604Y352046D01*
X404602Y352066D01*
X404589Y352096D01*
X404566Y352176D01*
X403859Y353882D01*
X403859Y357318D01*
X405174Y360492D01*
X407604Y362922D01*
X410778Y364237D01*
X427422Y364237D01*
X430596Y362922D01*
X433026Y360492D01*
X433738Y358773D01*
X433800Y358673D01*
X433860Y358573D01*
X433864Y358569D01*
X433868Y358564D01*
X433958Y358489D01*
X434047Y358413D01*
X434052Y358411D01*
X434057Y358407D01*
X434166Y358365D01*
X434275Y358321D01*
X434282Y358320D01*
X434287Y358319D01*
X434305Y358318D01*
X434441Y358303D01*
X446405Y358303D01*
X446425Y358306D01*
X446444Y358304D01*
X446546Y358326D01*
X446648Y358342D01*
X446665Y358352D01*
X446685Y358356D01*
X446774Y358409D01*
X446865Y358458D01*
X446879Y358472D01*
X446896Y358482D01*
X446963Y358561D01*
X447035Y358636D01*
X447043Y358654D01*
X447056Y358669D01*
X447095Y358765D01*
X447138Y358859D01*
X447140Y358879D01*
X447148Y358897D01*
X447166Y359064D01*
X447166Y364824D01*
X448357Y366015D01*
X466043Y366015D01*
X467234Y364824D01*
X467234Y351456D01*
X466836Y351058D01*
X466824Y351042D01*
X466809Y351030D01*
X466753Y350942D01*
X466692Y350859D01*
X466687Y350840D01*
X466676Y350823D01*
X466651Y350722D01*
X466620Y350623D01*
X466621Y350604D01*
X466616Y350584D01*
X466624Y350481D01*
X466626Y350378D01*
X466633Y350359D01*
X466635Y350339D01*
X466675Y350244D01*
X466711Y350147D01*
X466723Y350131D01*
X466731Y350113D01*
X466836Y349982D01*
X467234Y349584D01*
X467234Y336216D01*
X466836Y335818D01*
X466824Y335802D01*
X466809Y335790D01*
X466753Y335702D01*
X466692Y335619D01*
X466687Y335600D01*
X466676Y335583D01*
X466651Y335482D01*
X466620Y335383D01*
X466621Y335364D01*
X466616Y335344D01*
X466624Y335241D01*
X466626Y335138D01*
X466633Y335119D01*
X466635Y335099D01*
X466675Y335004D01*
X466711Y334907D01*
X466723Y334891D01*
X466731Y334873D01*
X466836Y334742D01*
X467234Y334344D01*
X467234Y320976D01*
X466043Y319785D01*
X451723Y319785D01*
X451653Y319774D01*
X451581Y319772D01*
X451532Y319754D01*
X451481Y319746D01*
X451417Y319712D01*
X451350Y319687D01*
X451309Y319655D01*
X451263Y319630D01*
X451214Y319579D01*
X451158Y319534D01*
X451130Y319490D01*
X451094Y319452D01*
X451064Y319387D01*
X451025Y319327D01*
X451012Y319276D01*
X450990Y319229D01*
X450982Y319158D01*
X450965Y319088D01*
X450969Y319036D01*
X450963Y318985D01*
X450978Y318914D01*
X450984Y318843D01*
X451004Y318795D01*
X451015Y318744D01*
X451052Y318683D01*
X451080Y318617D01*
X451125Y318561D01*
X451142Y318533D01*
X451159Y318518D01*
X451185Y318486D01*
X487497Y282174D01*
X487513Y282163D01*
X487525Y282147D01*
X487613Y282091D01*
X487696Y282031D01*
X487715Y282025D01*
X487732Y282014D01*
X487833Y281989D01*
X487931Y281958D01*
X487951Y281959D01*
X487971Y281954D01*
X488074Y281962D01*
X488177Y281965D01*
X488196Y281972D01*
X488216Y281973D01*
X488311Y282013D01*
X488408Y282049D01*
X488424Y282062D01*
X488442Y282069D01*
X488573Y282174D01*
X489302Y282903D01*
X497298Y282903D01*
X502953Y277248D01*
X502953Y269252D01*
X497298Y263597D01*
X489302Y263597D01*
X483647Y269252D01*
X483647Y276367D01*
X483633Y276457D01*
X483625Y276548D01*
X483613Y276577D01*
X483608Y276609D01*
X483565Y276690D01*
X483529Y276774D01*
X483503Y276806D01*
X483492Y276827D01*
X483469Y276849D01*
X483424Y276905D01*
X443855Y316474D01*
X443781Y316527D01*
X443712Y316587D01*
X443681Y316599D01*
X443655Y316618D01*
X443568Y316645D01*
X443483Y316679D01*
X443442Y316683D01*
X443420Y316690D01*
X443388Y316689D01*
X443317Y316697D01*
X403632Y316697D01*
X382501Y337828D01*
X382406Y337897D01*
X382312Y337966D01*
X382306Y337968D01*
X382301Y337972D01*
X382190Y338006D01*
X382078Y338043D01*
X382072Y338043D01*
X382066Y338044D01*
X381949Y338041D01*
X381832Y338040D01*
X381825Y338038D01*
X381820Y338038D01*
X381803Y338032D01*
X381671Y337993D01*
X381415Y337887D01*
X378585Y337887D01*
X375971Y338970D01*
X374602Y340339D01*
X374544Y340381D01*
X374492Y340430D01*
X374445Y340452D01*
X374403Y340482D01*
X374334Y340503D01*
X374269Y340534D01*
X374217Y340539D01*
X374167Y340555D01*
X374096Y340553D01*
X374025Y340561D01*
X373974Y340550D01*
X373922Y340548D01*
X373854Y340524D01*
X373784Y340509D01*
X373739Y340482D01*
X373691Y340464D01*
X373635Y340419D01*
X373573Y340382D01*
X373539Y340343D01*
X373499Y340310D01*
X373460Y340250D01*
X373413Y340195D01*
X373394Y340147D01*
X373366Y340103D01*
X373348Y340034D01*
X373321Y339967D01*
X373313Y339896D01*
X373305Y339865D01*
X373307Y339841D01*
X373303Y339801D01*
X373303Y256712D01*
X373314Y256641D01*
X373316Y256569D01*
X373334Y256520D01*
X373342Y256469D01*
X373376Y256405D01*
X373401Y256338D01*
X373433Y256297D01*
X373458Y256251D01*
X373510Y256202D01*
X373554Y256146D01*
X373598Y256118D01*
X373636Y256082D01*
X373701Y256052D01*
X373761Y256013D01*
X373812Y256000D01*
X373859Y255978D01*
X373930Y255971D01*
X374000Y255953D01*
X374052Y255957D01*
X374103Y255951D01*
X374174Y255967D01*
X374245Y255972D01*
X374293Y255992D01*
X374344Y256004D01*
X374405Y256040D01*
X374471Y256068D01*
X374527Y256113D01*
X374555Y256130D01*
X374570Y256148D01*
X374602Y256173D01*
X375532Y257103D01*
X379080Y258573D01*
X382920Y258573D01*
X386468Y257103D01*
X389183Y254388D01*
X390653Y250840D01*
X390653Y231760D01*
X389183Y228212D01*
X386468Y225497D01*
X383773Y224380D01*
X383673Y224319D01*
X383573Y224259D01*
X383569Y224254D01*
X383564Y224251D01*
X383489Y224161D01*
X383413Y224072D01*
X383411Y224066D01*
X383407Y224061D01*
X383365Y223953D01*
X383336Y223880D01*
X383331Y223869D01*
X383331Y223867D01*
X383321Y223844D01*
X383320Y223836D01*
X383319Y223832D01*
X383318Y223813D01*
X383303Y223677D01*
X383303Y193632D01*
X348947Y159276D01*
X348920Y159239D01*
X348886Y159208D01*
X348849Y159140D01*
X348803Y159077D01*
X348790Y159033D01*
X348768Y158992D01*
X348754Y158916D01*
X348731Y158841D01*
X348732Y158796D01*
X348724Y158750D01*
X348735Y158673D01*
X348737Y158596D01*
X348753Y158552D01*
X348760Y158507D01*
X348795Y158438D01*
X348822Y158365D01*
X348851Y158329D01*
X348871Y158288D01*
X348927Y158233D01*
X348976Y158173D01*
X349014Y158148D01*
X349047Y158116D01*
X349136Y158066D01*
X352253Y154950D01*
X353933Y150895D01*
X353933Y128505D01*
X352253Y124450D01*
X349150Y121347D01*
X345336Y119767D01*
X345253Y119716D01*
X345167Y119670D01*
X345149Y119651D01*
X345127Y119638D01*
X345065Y119563D01*
X344998Y119492D01*
X344987Y119468D01*
X344970Y119448D01*
X344935Y119357D01*
X344894Y119269D01*
X344891Y119243D01*
X344882Y119219D01*
X344878Y119121D01*
X344867Y119025D01*
X344873Y118999D01*
X344872Y118973D01*
X344899Y118879D01*
X344919Y118784D01*
X344933Y118762D01*
X344940Y118737D01*
X344996Y118657D01*
X345046Y118573D01*
X345065Y118556D01*
X345080Y118535D01*
X345158Y118476D01*
X345232Y118413D01*
X345257Y118403D01*
X345278Y118388D01*
X345370Y118358D01*
X345461Y118321D01*
X345493Y118318D01*
X345512Y118312D01*
X345545Y118312D01*
X345627Y118303D01*
X365573Y118303D01*
X365669Y118318D01*
X365766Y118328D01*
X365790Y118338D01*
X365815Y118342D01*
X365901Y118388D01*
X365990Y118428D01*
X366010Y118445D01*
X366033Y118458D01*
X366100Y118528D01*
X366172Y118594D01*
X366184Y118617D01*
X366202Y118636D01*
X366243Y118724D01*
X366290Y118810D01*
X366295Y118835D01*
X366306Y118859D01*
X366317Y118956D01*
X366334Y119052D01*
X366330Y119078D01*
X366333Y119103D01*
X366312Y119199D01*
X366298Y119295D01*
X366286Y119318D01*
X366281Y119344D01*
X366231Y119427D01*
X366187Y119514D01*
X366168Y119533D01*
X366154Y119555D01*
X366081Y119618D01*
X366011Y119686D01*
X365982Y119702D01*
X365968Y119715D01*
X365937Y119727D01*
X365864Y119767D01*
X362050Y121347D01*
X358947Y124450D01*
X357267Y128505D01*
X357267Y150895D01*
X358947Y154950D01*
X362050Y158053D01*
X366105Y159733D01*
X370495Y159733D01*
X374550Y158053D01*
X377653Y154950D01*
X379333Y150895D01*
X379333Y128505D01*
X377614Y124356D01*
X377592Y124261D01*
X377563Y124168D01*
X377564Y124142D01*
X377558Y124116D01*
X377567Y124020D01*
X377569Y123922D01*
X377578Y123898D01*
X377581Y123871D01*
X377620Y123783D01*
X377654Y123691D01*
X377670Y123671D01*
X377681Y123647D01*
X377747Y123575D01*
X377808Y123499D01*
X377830Y123485D01*
X377847Y123466D01*
X377933Y123419D01*
X378014Y123366D01*
X378040Y123360D01*
X378063Y123347D01*
X378159Y123330D01*
X378253Y123306D01*
X378279Y123308D01*
X378305Y123303D01*
X378401Y123318D01*
X378498Y123325D01*
X378522Y123335D01*
X378548Y123339D01*
X378635Y123383D01*
X378725Y123421D01*
X378750Y123442D01*
X378767Y123451D01*
X378791Y123474D01*
X378855Y123526D01*
X382650Y127320D01*
X382717Y127414D01*
X382788Y127509D01*
X382789Y127515D01*
X382793Y127520D01*
X382827Y127631D01*
X382864Y127743D01*
X382864Y127749D01*
X382865Y127755D01*
X382862Y127872D01*
X382861Y127989D01*
X382859Y127996D01*
X382859Y128001D01*
X382853Y128019D01*
X382815Y128150D01*
X382667Y128505D01*
X382667Y150895D01*
X384347Y154950D01*
X387450Y158053D01*
X391505Y159733D01*
X395895Y159733D01*
X399950Y158053D01*
X403053Y154950D01*
X404733Y150895D01*
X404733Y128505D01*
X403053Y124450D01*
X399950Y121347D01*
X395895Y119667D01*
X391505Y119667D01*
X387450Y121347D01*
X387272Y121525D01*
X387256Y121537D01*
X387244Y121552D01*
X387156Y121608D01*
X387073Y121669D01*
X387054Y121674D01*
X387037Y121685D01*
X386936Y121711D01*
X386838Y121741D01*
X386818Y121740D01*
X386798Y121745D01*
X386695Y121737D01*
X386592Y121735D01*
X386573Y121728D01*
X386553Y121726D01*
X386458Y121686D01*
X386361Y121650D01*
X386345Y121638D01*
X386327Y121630D01*
X386196Y121525D01*
X377731Y113060D01*
X377689Y113002D01*
X377640Y112950D01*
X377618Y112903D01*
X377587Y112861D01*
X377566Y112792D01*
X377536Y112727D01*
X377530Y112675D01*
X377515Y112625D01*
X377517Y112554D01*
X377509Y112483D01*
X377520Y112432D01*
X377521Y112380D01*
X377546Y112312D01*
X377561Y112242D01*
X377588Y112198D01*
X377606Y112149D01*
X377651Y112093D01*
X377688Y112031D01*
X377727Y111997D01*
X377760Y111957D01*
X377820Y111918D01*
X377874Y111871D01*
X377923Y111852D01*
X377967Y111824D01*
X378036Y111806D01*
X378103Y111779D01*
X378174Y111771D01*
X378205Y111763D01*
X378228Y111765D01*
X378269Y111761D01*
X486900Y111761D01*
X486971Y111772D01*
X487043Y111774D01*
X487092Y111792D01*
X487143Y111800D01*
X487207Y111834D01*
X487274Y111859D01*
X487315Y111891D01*
X487361Y111916D01*
X487410Y111968D01*
X487466Y112012D01*
X487494Y112056D01*
X487530Y112094D01*
X487560Y112159D01*
X487599Y112219D01*
X487612Y112270D01*
X487634Y112317D01*
X487641Y112388D01*
X487659Y112458D01*
X487655Y112510D01*
X487661Y112561D01*
X487645Y112632D01*
X487640Y112703D01*
X487620Y112751D01*
X487608Y112802D01*
X487572Y112863D01*
X487544Y112929D01*
X487499Y112985D01*
X487482Y113013D01*
X487464Y113028D01*
X487439Y113060D01*
X483647Y116852D01*
X483647Y124848D01*
X489302Y130503D01*
X497298Y130503D01*
X502953Y124848D01*
X502953Y116852D01*
X499161Y113060D01*
X499119Y113002D01*
X499070Y112950D01*
X499048Y112903D01*
X499018Y112861D01*
X498997Y112792D01*
X498966Y112727D01*
X498961Y112675D01*
X498945Y112625D01*
X498947Y112554D01*
X498939Y112483D01*
X498950Y112432D01*
X498952Y112380D01*
X498976Y112312D01*
X498992Y112242D01*
X499018Y112197D01*
X499036Y112149D01*
X499081Y112093D01*
X499118Y112031D01*
X499157Y111997D01*
X499190Y111957D01*
X499250Y111918D01*
X499305Y111871D01*
X499353Y111852D01*
X499397Y111824D01*
X499466Y111806D01*
X499533Y111779D01*
X499604Y111771D01*
X499635Y111763D01*
X499659Y111765D01*
X499700Y111761D01*
X512300Y111761D01*
X512371Y111772D01*
X512443Y111774D01*
X512492Y111792D01*
X512543Y111800D01*
X512607Y111834D01*
X512674Y111859D01*
X512715Y111891D01*
X512761Y111916D01*
X512810Y111968D01*
X512866Y112012D01*
X512894Y112056D01*
X512930Y112094D01*
X512960Y112159D01*
X512999Y112219D01*
X513012Y112270D01*
X513034Y112317D01*
X513041Y112388D01*
X513059Y112458D01*
X513055Y112510D01*
X513061Y112561D01*
X513045Y112632D01*
X513040Y112703D01*
X513020Y112751D01*
X513008Y112802D01*
X512972Y112863D01*
X512944Y112929D01*
X512899Y112985D01*
X512882Y113013D01*
X512864Y113028D01*
X512839Y113060D01*
X509047Y116852D01*
X509047Y124848D01*
X514702Y130503D01*
X522698Y130503D01*
X528353Y124848D01*
X528353Y116852D01*
X524561Y113060D01*
X524519Y113002D01*
X524470Y112950D01*
X524448Y112903D01*
X524418Y112861D01*
X524397Y112792D01*
X524366Y112727D01*
X524361Y112675D01*
X524345Y112625D01*
X524347Y112554D01*
X524339Y112483D01*
X524350Y112432D01*
X524352Y112380D01*
X524376Y112312D01*
X524392Y112242D01*
X524418Y112197D01*
X524436Y112149D01*
X524481Y112093D01*
X524518Y112031D01*
X524557Y111997D01*
X524590Y111957D01*
X524650Y111918D01*
X524705Y111871D01*
X524753Y111852D01*
X524797Y111824D01*
X524866Y111806D01*
X524933Y111779D01*
X525004Y111771D01*
X525035Y111763D01*
X525059Y111765D01*
X525100Y111761D01*
X582678Y111761D01*
X582698Y111764D01*
X582717Y111762D01*
X582819Y111784D01*
X582921Y111800D01*
X582938Y111810D01*
X582958Y111814D01*
X583047Y111867D01*
X583138Y111916D01*
X583152Y111930D01*
X583169Y111940D01*
X583236Y112019D01*
X583308Y112094D01*
X583316Y112112D01*
X583329Y112127D01*
X583368Y112223D01*
X583411Y112317D01*
X583413Y112337D01*
X583421Y112355D01*
X583439Y112522D01*
X583439Y608004D01*
X583432Y608049D01*
X583434Y608095D01*
X583412Y608170D01*
X583400Y608247D01*
X583378Y608287D01*
X583365Y608332D01*
X583321Y608396D01*
X583284Y608464D01*
X583251Y608496D01*
X583225Y608534D01*
X583162Y608580D01*
X583106Y608634D01*
X583065Y608653D01*
X583028Y608680D01*
X582953Y608704D01*
X582883Y608737D01*
X582837Y608742D01*
X582794Y608756D01*
X582716Y608756D01*
X582639Y608764D01*
X582594Y608755D01*
X582548Y608754D01*
X582417Y608716D01*
X582398Y608712D01*
X582394Y608709D01*
X582387Y608707D01*
X581860Y608489D01*
X573840Y608489D01*
X566430Y611559D01*
X560759Y617230D01*
X557689Y624640D01*
X557689Y632660D01*
X559233Y636387D01*
X559243Y636431D01*
X559263Y636473D01*
X559271Y636550D01*
X559289Y636626D01*
X559285Y636672D01*
X559290Y636717D01*
X559273Y636794D01*
X559266Y636871D01*
X559247Y636913D01*
X559238Y636958D01*
X559198Y637025D01*
X559166Y637096D01*
X559135Y637130D01*
X559111Y637169D01*
X559052Y637220D01*
X559000Y637277D01*
X558959Y637299D01*
X558924Y637329D01*
X558852Y637358D01*
X558784Y637395D01*
X558739Y637404D01*
X558696Y637421D01*
X558560Y637436D01*
X558542Y637439D01*
X558537Y637438D01*
X558530Y637439D01*
X176022Y637439D01*
X176002Y637436D01*
X175983Y637438D01*
X175881Y637416D01*
X175779Y637400D01*
X175762Y637390D01*
X175742Y637386D01*
X175653Y637333D01*
X175562Y637284D01*
X175548Y637270D01*
X175531Y637260D01*
X175464Y637181D01*
X175392Y637106D01*
X175384Y637088D01*
X175371Y637073D01*
X175332Y636977D01*
X175289Y636883D01*
X175287Y636863D01*
X175279Y636845D01*
X175261Y636678D01*
X175261Y135222D01*
X175264Y135202D01*
X175262Y135183D01*
X175284Y135081D01*
X175300Y134979D01*
X175310Y134962D01*
X175314Y134942D01*
X175367Y134853D01*
X175416Y134762D01*
X175430Y134748D01*
X175440Y134731D01*
X175519Y134664D01*
X175594Y134592D01*
X175612Y134584D01*
X175627Y134571D01*
X175723Y134532D01*
X175817Y134489D01*
X175837Y134487D01*
X175855Y134479D01*
X176022Y134461D01*
X181810Y134461D01*
X189220Y131391D01*
X194891Y125720D01*
X197961Y118310D01*
X197961Y112522D01*
X197964Y112502D01*
X197962Y112483D01*
X197984Y112381D01*
X198000Y112279D01*
X198010Y112262D01*
X198014Y112242D01*
X198067Y112153D01*
X198116Y112062D01*
X198130Y112048D01*
X198140Y112031D01*
X198219Y111964D01*
X198294Y111892D01*
X198312Y111884D01*
X198327Y111871D01*
X198423Y111832D01*
X198517Y111789D01*
X198537Y111787D01*
X198555Y111779D01*
X198722Y111761D01*
X236900Y111761D01*
X236971Y111772D01*
G37*
%LPC*%
G36*
X404480Y224027D02*
X404480Y224027D01*
X400932Y225497D01*
X398217Y228212D01*
X396747Y231760D01*
X396747Y250840D01*
X398217Y254388D01*
X400932Y257103D01*
X404480Y258573D01*
X408320Y258573D01*
X411868Y257103D01*
X414583Y254388D01*
X416053Y250840D01*
X416053Y231760D01*
X414583Y228212D01*
X411868Y225497D01*
X408320Y224027D01*
X404480Y224027D01*
G37*
%LPD*%
%LPC*%
G36*
X334578Y296163D02*
X334578Y296163D01*
X331404Y297478D01*
X328974Y299908D01*
X327659Y303082D01*
X327659Y306518D01*
X328974Y309692D01*
X331404Y312122D01*
X334578Y313437D01*
X351222Y313437D01*
X354396Y312122D01*
X356826Y309692D01*
X358141Y306518D01*
X358141Y303082D01*
X356826Y299908D01*
X354396Y297478D01*
X351222Y296163D01*
X334578Y296163D01*
G37*
%LPD*%
%LPC*%
G36*
X252282Y594359D02*
X252282Y594359D01*
X249108Y595674D01*
X246678Y598104D01*
X245363Y601278D01*
X245363Y617922D01*
X246678Y621096D01*
X249108Y623526D01*
X252282Y624841D01*
X255718Y624841D01*
X258892Y623526D01*
X261322Y621096D01*
X262637Y617922D01*
X262637Y601278D01*
X261322Y598104D01*
X258892Y595674D01*
X255718Y594359D01*
X252282Y594359D01*
G37*
%LPD*%
%LPC*%
G36*
X201482Y594359D02*
X201482Y594359D01*
X198308Y595674D01*
X195878Y598104D01*
X194563Y601278D01*
X194563Y617922D01*
X195878Y621096D01*
X198308Y623526D01*
X201482Y624841D01*
X204918Y624841D01*
X208092Y623526D01*
X210522Y621096D01*
X211837Y617922D01*
X211837Y601278D01*
X210522Y598104D01*
X208092Y595674D01*
X204918Y594359D01*
X201482Y594359D01*
G37*
%LPD*%
%LPC*%
G36*
X303082Y594359D02*
X303082Y594359D01*
X299908Y595674D01*
X297478Y598104D01*
X296163Y601278D01*
X296163Y617922D01*
X297478Y621096D01*
X299908Y623526D01*
X303082Y624841D01*
X306518Y624841D01*
X309692Y623526D01*
X312122Y621096D01*
X313437Y617922D01*
X313437Y601278D01*
X312122Y598104D01*
X309692Y595674D01*
X306518Y594359D01*
X303082Y594359D01*
G37*
%LPD*%
%LPC*%
G36*
X264702Y365197D02*
X264702Y365197D01*
X259047Y370852D01*
X259047Y378848D01*
X264702Y384503D01*
X272698Y384503D01*
X278353Y378848D01*
X278353Y370852D01*
X272698Y365197D01*
X264702Y365197D01*
G37*
%LPD*%
%LPC*%
G36*
X239302Y365197D02*
X239302Y365197D01*
X233647Y370852D01*
X233647Y378848D01*
X239302Y384503D01*
X247298Y384503D01*
X252953Y378848D01*
X252953Y370852D01*
X247298Y365197D01*
X239302Y365197D01*
G37*
%LPD*%
%LPC*%
G36*
X514702Y365197D02*
X514702Y365197D01*
X509047Y370852D01*
X509047Y378848D01*
X514702Y384503D01*
X522698Y384503D01*
X528353Y378848D01*
X528353Y370852D01*
X522698Y365197D01*
X514702Y365197D01*
G37*
%LPD*%
%LPC*%
G36*
X489302Y365197D02*
X489302Y365197D01*
X483647Y370852D01*
X483647Y378848D01*
X489302Y384503D01*
X497298Y384503D01*
X502953Y378848D01*
X502953Y370852D01*
X497298Y365197D01*
X489302Y365197D01*
G37*
%LPD*%
%LPC*%
G36*
X489302Y339797D02*
X489302Y339797D01*
X483647Y345452D01*
X483647Y353448D01*
X489302Y359103D01*
X497298Y359103D01*
X502953Y353448D01*
X502953Y345452D01*
X497298Y339797D01*
X489302Y339797D01*
G37*
%LPD*%
%LPC*%
G36*
X239302Y339797D02*
X239302Y339797D01*
X233647Y345452D01*
X233647Y353448D01*
X239302Y359103D01*
X247298Y359103D01*
X252953Y353448D01*
X252953Y345452D01*
X247298Y339797D01*
X239302Y339797D01*
G37*
%LPD*%
%LPC*%
G36*
X264702Y339797D02*
X264702Y339797D01*
X259047Y345452D01*
X259047Y353448D01*
X264702Y359103D01*
X272698Y359103D01*
X278353Y353448D01*
X278353Y345452D01*
X272698Y339797D01*
X264702Y339797D01*
G37*
%LPD*%
%LPC*%
G36*
X514702Y339797D02*
X514702Y339797D01*
X509047Y345452D01*
X509047Y353448D01*
X514702Y359103D01*
X522698Y359103D01*
X528353Y353448D01*
X528353Y345452D01*
X522698Y339797D01*
X514702Y339797D01*
G37*
%LPD*%
%LPC*%
G36*
X514702Y314397D02*
X514702Y314397D01*
X509047Y320052D01*
X509047Y328048D01*
X514702Y333703D01*
X522698Y333703D01*
X528353Y328048D01*
X528353Y320052D01*
X522698Y314397D01*
X514702Y314397D01*
G37*
%LPD*%
%LPC*%
G36*
X239302Y568397D02*
X239302Y568397D01*
X233647Y574052D01*
X233647Y582048D01*
X239302Y587703D01*
X247298Y587703D01*
X252953Y582048D01*
X252953Y574052D01*
X247298Y568397D01*
X239302Y568397D01*
G37*
%LPD*%
%LPC*%
G36*
X489302Y314397D02*
X489302Y314397D01*
X483647Y320052D01*
X483647Y328048D01*
X489302Y333703D01*
X497298Y333703D01*
X502953Y328048D01*
X502953Y320052D01*
X497298Y314397D01*
X489302Y314397D01*
G37*
%LPD*%
%LPC*%
G36*
X514702Y288997D02*
X514702Y288997D01*
X509047Y294652D01*
X509047Y302648D01*
X514702Y308303D01*
X522698Y308303D01*
X528353Y302648D01*
X528353Y294652D01*
X522698Y288997D01*
X514702Y288997D01*
G37*
%LPD*%
%LPC*%
G36*
X514702Y466797D02*
X514702Y466797D01*
X509047Y472452D01*
X509047Y480448D01*
X514702Y486103D01*
X522698Y486103D01*
X528353Y480448D01*
X528353Y472452D01*
X522698Y466797D01*
X514702Y466797D01*
G37*
%LPD*%
%LPC*%
G36*
X239302Y288997D02*
X239302Y288997D01*
X233647Y294652D01*
X233647Y302648D01*
X239302Y308303D01*
X247298Y308303D01*
X252953Y302648D01*
X252953Y294652D01*
X247298Y288997D01*
X239302Y288997D01*
G37*
%LPD*%
%LPC*%
G36*
X489302Y288997D02*
X489302Y288997D01*
X483647Y294652D01*
X483647Y302648D01*
X489302Y308303D01*
X497298Y308303D01*
X502953Y302648D01*
X502953Y294652D01*
X497298Y288997D01*
X489302Y288997D01*
G37*
%LPD*%
%LPC*%
G36*
X514702Y263597D02*
X514702Y263597D01*
X509047Y269252D01*
X509047Y277248D01*
X514702Y282903D01*
X522698Y282903D01*
X528353Y277248D01*
X528353Y269252D01*
X522698Y263597D01*
X514702Y263597D01*
G37*
%LPD*%
%LPC*%
G36*
X514702Y542997D02*
X514702Y542997D01*
X509047Y548652D01*
X509047Y556648D01*
X514702Y562303D01*
X522698Y562303D01*
X528353Y556648D01*
X528353Y548652D01*
X522698Y542997D01*
X514702Y542997D01*
G37*
%LPD*%
%LPC*%
G36*
X264702Y542997D02*
X264702Y542997D01*
X259047Y548652D01*
X259047Y556648D01*
X264702Y562303D01*
X272698Y562303D01*
X278353Y556648D01*
X278353Y548652D01*
X272698Y542997D01*
X264702Y542997D01*
G37*
%LPD*%
%LPC*%
G36*
X489302Y542997D02*
X489302Y542997D01*
X483647Y548652D01*
X483647Y556648D01*
X489302Y562303D01*
X497298Y562303D01*
X502953Y556648D01*
X502953Y548652D01*
X497298Y542997D01*
X489302Y542997D01*
G37*
%LPD*%
%LPC*%
G36*
X239302Y542997D02*
X239302Y542997D01*
X233647Y548652D01*
X233647Y556648D01*
X239302Y562303D01*
X247298Y562303D01*
X252953Y556648D01*
X252953Y548652D01*
X247298Y542997D01*
X239302Y542997D01*
G37*
%LPD*%
%LPC*%
G36*
X264702Y517597D02*
X264702Y517597D01*
X259047Y523252D01*
X259047Y531248D01*
X264702Y536903D01*
X272698Y536903D01*
X278353Y531248D01*
X278353Y523252D01*
X272698Y517597D01*
X264702Y517597D01*
G37*
%LPD*%
%LPC*%
G36*
X514702Y517597D02*
X514702Y517597D01*
X509047Y523252D01*
X509047Y531248D01*
X514702Y536903D01*
X522698Y536903D01*
X528353Y531248D01*
X528353Y523252D01*
X522698Y517597D01*
X514702Y517597D01*
G37*
%LPD*%
%LPC*%
G36*
X489302Y517597D02*
X489302Y517597D01*
X483647Y523252D01*
X483647Y531248D01*
X489302Y536903D01*
X497298Y536903D01*
X502953Y531248D01*
X502953Y523252D01*
X497298Y517597D01*
X489302Y517597D01*
G37*
%LPD*%
%LPC*%
G36*
X239302Y517597D02*
X239302Y517597D01*
X233647Y523252D01*
X233647Y531248D01*
X239302Y536903D01*
X247298Y536903D01*
X252953Y531248D01*
X252953Y523252D01*
X247298Y517597D01*
X239302Y517597D01*
G37*
%LPD*%
%LPC*%
G36*
X514702Y492197D02*
X514702Y492197D01*
X509047Y497852D01*
X509047Y505848D01*
X514702Y511503D01*
X522698Y511503D01*
X528353Y505848D01*
X528353Y497852D01*
X522698Y492197D01*
X514702Y492197D01*
G37*
%LPD*%
%LPC*%
G36*
X264702Y492197D02*
X264702Y492197D01*
X259047Y497852D01*
X259047Y505848D01*
X264702Y511503D01*
X272698Y511503D01*
X278353Y505848D01*
X278353Y497852D01*
X272698Y492197D01*
X264702Y492197D01*
G37*
%LPD*%
%LPC*%
G36*
X489302Y492197D02*
X489302Y492197D01*
X483647Y497852D01*
X483647Y505848D01*
X489302Y511503D01*
X497298Y511503D01*
X502953Y505848D01*
X502953Y497852D01*
X497298Y492197D01*
X489302Y492197D01*
G37*
%LPD*%
%LPC*%
G36*
X239302Y492197D02*
X239302Y492197D01*
X233647Y497852D01*
X233647Y505848D01*
X239302Y511503D01*
X247298Y511503D01*
X252953Y505848D01*
X252953Y497852D01*
X247298Y492197D01*
X239302Y492197D01*
G37*
%LPD*%
%LPC*%
G36*
X239302Y263597D02*
X239302Y263597D01*
X233647Y269252D01*
X233647Y277248D01*
X239302Y282903D01*
X247298Y282903D01*
X252953Y277248D01*
X252953Y269252D01*
X247298Y263597D01*
X239302Y263597D01*
G37*
%LPD*%
%LPC*%
G36*
X489302Y466797D02*
X489302Y466797D01*
X483647Y472452D01*
X483647Y480448D01*
X489302Y486103D01*
X497298Y486103D01*
X502953Y480448D01*
X502953Y472452D01*
X497298Y466797D01*
X489302Y466797D01*
G37*
%LPD*%
%LPC*%
G36*
X264702Y466797D02*
X264702Y466797D01*
X259047Y472452D01*
X259047Y480448D01*
X264702Y486103D01*
X272698Y486103D01*
X278353Y480448D01*
X278353Y472452D01*
X272698Y466797D01*
X264702Y466797D01*
G37*
%LPD*%
%LPC*%
G36*
X239302Y466797D02*
X239302Y466797D01*
X233647Y472452D01*
X233647Y480448D01*
X239302Y486103D01*
X247298Y486103D01*
X252953Y480448D01*
X252953Y472452D01*
X247298Y466797D01*
X239302Y466797D01*
G37*
%LPD*%
%LPC*%
G36*
X514702Y238197D02*
X514702Y238197D01*
X509047Y243852D01*
X509047Y251848D01*
X514702Y257503D01*
X522698Y257503D01*
X528353Y251848D01*
X528353Y243852D01*
X522698Y238197D01*
X514702Y238197D01*
G37*
%LPD*%
%LPC*%
G36*
X489302Y238197D02*
X489302Y238197D01*
X483647Y243852D01*
X483647Y251848D01*
X489302Y257503D01*
X497298Y257503D01*
X502953Y251848D01*
X502953Y243852D01*
X497298Y238197D01*
X489302Y238197D01*
G37*
%LPD*%
%LPC*%
G36*
X239302Y441397D02*
X239302Y441397D01*
X233647Y447052D01*
X233647Y455048D01*
X239302Y460703D01*
X247298Y460703D01*
X252953Y455048D01*
X252953Y447052D01*
X247298Y441397D01*
X239302Y441397D01*
G37*
%LPD*%
%LPC*%
G36*
X514702Y441397D02*
X514702Y441397D01*
X509047Y447052D01*
X509047Y455048D01*
X514702Y460703D01*
X522698Y460703D01*
X528353Y455048D01*
X528353Y447052D01*
X522698Y441397D01*
X514702Y441397D01*
G37*
%LPD*%
%LPC*%
G36*
X264702Y441397D02*
X264702Y441397D01*
X259047Y447052D01*
X259047Y455048D01*
X264702Y460703D01*
X272698Y460703D01*
X278353Y455048D01*
X278353Y447052D01*
X272698Y441397D01*
X264702Y441397D01*
G37*
%LPD*%
%LPC*%
G36*
X239302Y212797D02*
X239302Y212797D01*
X233647Y218452D01*
X233647Y226448D01*
X239302Y232103D01*
X247298Y232103D01*
X252953Y226448D01*
X252953Y218452D01*
X247298Y212797D01*
X239302Y212797D01*
G37*
%LPD*%
%LPC*%
G36*
X514702Y212797D02*
X514702Y212797D01*
X509047Y218452D01*
X509047Y226448D01*
X514702Y232103D01*
X522698Y232103D01*
X528353Y226448D01*
X528353Y218452D01*
X522698Y212797D01*
X514702Y212797D01*
G37*
%LPD*%
%LPC*%
G36*
X264702Y212797D02*
X264702Y212797D01*
X259047Y218452D01*
X259047Y226448D01*
X264702Y232103D01*
X272698Y232103D01*
X278353Y226448D01*
X278353Y218452D01*
X272698Y212797D01*
X264702Y212797D01*
G37*
%LPD*%
%LPC*%
G36*
X489302Y212797D02*
X489302Y212797D01*
X483647Y218452D01*
X483647Y226448D01*
X489302Y232103D01*
X497298Y232103D01*
X502953Y226448D01*
X502953Y218452D01*
X497298Y212797D01*
X489302Y212797D01*
G37*
%LPD*%
%LPC*%
G36*
X514702Y187397D02*
X514702Y187397D01*
X509047Y193052D01*
X509047Y201048D01*
X514702Y206703D01*
X522698Y206703D01*
X528353Y201048D01*
X528353Y193052D01*
X522698Y187397D01*
X514702Y187397D01*
G37*
%LPD*%
%LPC*%
G36*
X489302Y187397D02*
X489302Y187397D01*
X483647Y193052D01*
X483647Y201048D01*
X489302Y206703D01*
X497298Y206703D01*
X502953Y201048D01*
X502953Y193052D01*
X497298Y187397D01*
X489302Y187397D01*
G37*
%LPD*%
%LPC*%
G36*
X264702Y187397D02*
X264702Y187397D01*
X259047Y193052D01*
X259047Y201048D01*
X264702Y206703D01*
X272698Y206703D01*
X278353Y201048D01*
X278353Y193052D01*
X272698Y187397D01*
X264702Y187397D01*
G37*
%LPD*%
%LPC*%
G36*
X264702Y415997D02*
X264702Y415997D01*
X259047Y421652D01*
X259047Y429648D01*
X264702Y435303D01*
X272698Y435303D01*
X278353Y429648D01*
X278353Y421652D01*
X272698Y415997D01*
X264702Y415997D01*
G37*
%LPD*%
%LPC*%
G36*
X239302Y415997D02*
X239302Y415997D01*
X233647Y421652D01*
X233647Y429648D01*
X239302Y435303D01*
X247298Y435303D01*
X252953Y429648D01*
X252953Y421652D01*
X247298Y415997D01*
X239302Y415997D01*
G37*
%LPD*%
%LPC*%
G36*
X239302Y187397D02*
X239302Y187397D01*
X233647Y193052D01*
X233647Y201048D01*
X239302Y206703D01*
X247298Y206703D01*
X252953Y201048D01*
X252953Y193052D01*
X247298Y187397D01*
X239302Y187397D01*
G37*
%LPD*%
%LPC*%
G36*
X514702Y161997D02*
X514702Y161997D01*
X509047Y167652D01*
X509047Y175648D01*
X514702Y181303D01*
X522698Y181303D01*
X528353Y175648D01*
X528353Y167652D01*
X522698Y161997D01*
X514702Y161997D01*
G37*
%LPD*%
%LPC*%
G36*
X489302Y161997D02*
X489302Y161997D01*
X483647Y167652D01*
X483647Y175648D01*
X489302Y181303D01*
X497298Y181303D01*
X502953Y175648D01*
X502953Y167652D01*
X497298Y161997D01*
X489302Y161997D01*
G37*
%LPD*%
%LPC*%
G36*
X264702Y161997D02*
X264702Y161997D01*
X259047Y167652D01*
X259047Y175648D01*
X264702Y181303D01*
X272698Y181303D01*
X278353Y175648D01*
X278353Y167652D01*
X272698Y161997D01*
X264702Y161997D01*
G37*
%LPD*%
%LPC*%
G36*
X239302Y161997D02*
X239302Y161997D01*
X233647Y167652D01*
X233647Y175648D01*
X239302Y181303D01*
X247298Y181303D01*
X252953Y175648D01*
X252953Y167652D01*
X247298Y161997D01*
X239302Y161997D01*
G37*
%LPD*%
%LPC*%
G36*
X514702Y136597D02*
X514702Y136597D01*
X509047Y142252D01*
X509047Y150248D01*
X514702Y155903D01*
X522698Y155903D01*
X528353Y150248D01*
X528353Y142252D01*
X522698Y136597D01*
X514702Y136597D01*
G37*
%LPD*%
%LPC*%
G36*
X489302Y136597D02*
X489302Y136597D01*
X483647Y142252D01*
X483647Y150248D01*
X489302Y155903D01*
X497298Y155903D01*
X502953Y150248D01*
X502953Y142252D01*
X497298Y136597D01*
X489302Y136597D01*
G37*
%LPD*%
%LPC*%
G36*
X264702Y136597D02*
X264702Y136597D01*
X259047Y142252D01*
X259047Y150248D01*
X264702Y155903D01*
X272698Y155903D01*
X278353Y150248D01*
X278353Y142252D01*
X272698Y136597D01*
X264702Y136597D01*
G37*
%LPD*%
%LPC*%
G36*
X514702Y390597D02*
X514702Y390597D01*
X509047Y396252D01*
X509047Y404248D01*
X514702Y409903D01*
X522698Y409903D01*
X528353Y404248D01*
X528353Y396252D01*
X522698Y390597D01*
X514702Y390597D01*
G37*
%LPD*%
%LPC*%
G36*
X489302Y390597D02*
X489302Y390597D01*
X483647Y396252D01*
X483647Y404248D01*
X489302Y409903D01*
X497298Y409903D01*
X502953Y404248D01*
X502953Y396252D01*
X497298Y390597D01*
X489302Y390597D01*
G37*
%LPD*%
%LPC*%
G36*
X239302Y390597D02*
X239302Y390597D01*
X233647Y396252D01*
X233647Y404248D01*
X239302Y409903D01*
X247298Y409903D01*
X252953Y404248D01*
X252953Y396252D01*
X247298Y390597D01*
X239302Y390597D01*
G37*
%LPD*%
%LPC*%
G36*
X264702Y390597D02*
X264702Y390597D01*
X259047Y396252D01*
X259047Y404248D01*
X264702Y409903D01*
X272698Y409903D01*
X278353Y404248D01*
X278353Y396252D01*
X272698Y390597D01*
X264702Y390597D01*
G37*
%LPD*%
%LPC*%
G36*
X239302Y136597D02*
X239302Y136597D01*
X233647Y142252D01*
X233647Y150248D01*
X239302Y155903D01*
X247298Y155903D01*
X252953Y150248D01*
X252953Y142252D01*
X247298Y136597D01*
X239302Y136597D01*
G37*
%LPD*%
%LPC*%
G36*
X239302Y314397D02*
X239302Y314397D01*
X233647Y320052D01*
X233647Y328048D01*
X239302Y333703D01*
X247298Y333703D01*
X252953Y328048D01*
X252953Y320052D01*
X247298Y314397D01*
X239302Y314397D01*
G37*
%LPD*%
%LPC*%
G36*
X420623Y141223D02*
X420623Y141223D01*
X420623Y160143D01*
X421802Y159957D01*
X423530Y159395D01*
X425149Y158571D01*
X426618Y157503D01*
X427903Y156218D01*
X428971Y154749D01*
X429795Y153130D01*
X430357Y151402D01*
X430641Y149608D01*
X430641Y141223D01*
X420623Y141223D01*
G37*
%LPD*%
%LPC*%
G36*
X420623Y138177D02*
X420623Y138177D01*
X430641Y138177D01*
X430641Y129792D01*
X430357Y127998D01*
X429795Y126270D01*
X428971Y124651D01*
X427903Y123182D01*
X426618Y121897D01*
X425149Y120829D01*
X423530Y120005D01*
X421802Y119443D01*
X420623Y119257D01*
X420623Y138177D01*
G37*
%LPD*%
%LPC*%
G36*
X407559Y141223D02*
X407559Y141223D01*
X407559Y149608D01*
X407843Y151402D01*
X408405Y153130D01*
X409229Y154749D01*
X410297Y156218D01*
X411582Y157503D01*
X413051Y158571D01*
X414670Y159395D01*
X416398Y159957D01*
X417577Y160143D01*
X417577Y141223D01*
X407559Y141223D01*
G37*
%LPD*%
%LPC*%
G36*
X416398Y119443D02*
X416398Y119443D01*
X414670Y120005D01*
X413051Y120829D01*
X411582Y121897D01*
X410297Y123182D01*
X409229Y124651D01*
X408405Y126270D01*
X407843Y127998D01*
X407559Y129792D01*
X407559Y138177D01*
X417577Y138177D01*
X417577Y119257D01*
X416398Y119443D01*
G37*
%LPD*%
%LPC*%
G36*
X230123Y611123D02*
X230123Y611123D01*
X230123Y625225D01*
X231267Y624997D01*
X232932Y624308D01*
X234430Y623307D01*
X235703Y622034D01*
X236704Y620536D01*
X237393Y618871D01*
X237745Y617105D01*
X237745Y611123D01*
X230123Y611123D01*
G37*
%LPD*%
%LPC*%
G36*
X420623Y382523D02*
X420623Y382523D01*
X420623Y390145D01*
X426605Y390145D01*
X428371Y389793D01*
X430036Y389104D01*
X431534Y388103D01*
X432807Y386830D01*
X433808Y385332D01*
X434497Y383667D01*
X434725Y382523D01*
X420623Y382523D01*
G37*
%LPD*%
%LPC*%
G36*
X344423Y331723D02*
X344423Y331723D01*
X344423Y339345D01*
X350405Y339345D01*
X352171Y338993D01*
X353836Y338304D01*
X355334Y337303D01*
X356607Y336030D01*
X357608Y334532D01*
X358297Y332867D01*
X358525Y331723D01*
X344423Y331723D01*
G37*
%LPD*%
%LPC*%
G36*
X420623Y458723D02*
X420623Y458723D01*
X420623Y466345D01*
X426605Y466345D01*
X428371Y465993D01*
X430036Y465304D01*
X431534Y464303D01*
X432807Y463030D01*
X433808Y461532D01*
X434497Y459867D01*
X434725Y458723D01*
X420623Y458723D01*
G37*
%LPD*%
%LPC*%
G36*
X344423Y407923D02*
X344423Y407923D01*
X344423Y415545D01*
X350405Y415545D01*
X352171Y415193D01*
X353836Y414504D01*
X355334Y413503D01*
X356607Y412230D01*
X357608Y410732D01*
X358297Y409067D01*
X358525Y407923D01*
X344423Y407923D01*
G37*
%LPD*%
%LPC*%
G36*
X420623Y306323D02*
X420623Y306323D01*
X420623Y313945D01*
X426605Y313945D01*
X428371Y313593D01*
X430036Y312904D01*
X431534Y311903D01*
X432807Y310630D01*
X433808Y309132D01*
X434497Y307467D01*
X434725Y306323D01*
X420623Y306323D01*
G37*
%LPD*%
%LPC*%
G36*
X327275Y407923D02*
X327275Y407923D01*
X327503Y409067D01*
X328192Y410732D01*
X329193Y412230D01*
X330466Y413503D01*
X331964Y414504D01*
X333629Y415193D01*
X335395Y415545D01*
X341377Y415545D01*
X341377Y407923D01*
X327275Y407923D01*
G37*
%LPD*%
%LPC*%
G36*
X403475Y458723D02*
X403475Y458723D01*
X403703Y459867D01*
X404392Y461532D01*
X405393Y463030D01*
X406666Y464303D01*
X408164Y465304D01*
X409829Y465993D01*
X411595Y466345D01*
X417577Y466345D01*
X417577Y458723D01*
X403475Y458723D01*
G37*
%LPD*%
%LPC*%
G36*
X230123Y608077D02*
X230123Y608077D01*
X237745Y608077D01*
X237745Y602095D01*
X237393Y600329D01*
X236704Y598664D01*
X235703Y597166D01*
X234430Y595893D01*
X232932Y594892D01*
X231267Y594203D01*
X230123Y593975D01*
X230123Y608077D01*
G37*
%LPD*%
%LPC*%
G36*
X403475Y382523D02*
X403475Y382523D01*
X403703Y383667D01*
X404392Y385332D01*
X405393Y386830D01*
X406666Y388103D01*
X408164Y389104D01*
X409829Y389793D01*
X411595Y390145D01*
X417577Y390145D01*
X417577Y382523D01*
X403475Y382523D01*
G37*
%LPD*%
%LPC*%
G36*
X403475Y306323D02*
X403475Y306323D01*
X403703Y307467D01*
X404392Y309132D01*
X405393Y310630D01*
X406666Y311903D01*
X408164Y312904D01*
X409829Y313593D01*
X411595Y313945D01*
X417577Y313945D01*
X417577Y306323D01*
X403475Y306323D01*
G37*
%LPD*%
%LPC*%
G36*
X327275Y331723D02*
X327275Y331723D01*
X327503Y332867D01*
X328192Y334532D01*
X329193Y336030D01*
X330466Y337303D01*
X331964Y338304D01*
X333629Y338993D01*
X335395Y339345D01*
X341377Y339345D01*
X341377Y331723D01*
X327275Y331723D01*
G37*
%LPD*%
%LPC*%
G36*
X219455Y611123D02*
X219455Y611123D01*
X219455Y617105D01*
X219807Y618871D01*
X220496Y620536D01*
X221497Y622034D01*
X222770Y623307D01*
X224268Y624308D01*
X225933Y624997D01*
X227077Y625225D01*
X227077Y611123D01*
X219455Y611123D01*
G37*
%LPD*%
%LPC*%
G36*
X344423Y397255D02*
X344423Y397255D01*
X344423Y404877D01*
X358525Y404877D01*
X358297Y403733D01*
X357608Y402068D01*
X356607Y400570D01*
X355334Y399297D01*
X353836Y398296D01*
X352171Y397607D01*
X350405Y397255D01*
X344423Y397255D01*
G37*
%LPD*%
%LPC*%
G36*
X420623Y295655D02*
X420623Y295655D01*
X420623Y303277D01*
X434725Y303277D01*
X434497Y302133D01*
X433808Y300468D01*
X432807Y298970D01*
X431534Y297697D01*
X430036Y296696D01*
X428371Y296007D01*
X426605Y295655D01*
X420623Y295655D01*
G37*
%LPD*%
%LPC*%
G36*
X420623Y371855D02*
X420623Y371855D01*
X420623Y379477D01*
X434725Y379477D01*
X434497Y378333D01*
X433808Y376668D01*
X432807Y375170D01*
X431534Y373897D01*
X430036Y372896D01*
X428371Y372207D01*
X426605Y371855D01*
X420623Y371855D01*
G37*
%LPD*%
%LPC*%
G36*
X420623Y448055D02*
X420623Y448055D01*
X420623Y455677D01*
X434725Y455677D01*
X434497Y454533D01*
X433808Y452868D01*
X432807Y451370D01*
X431534Y450097D01*
X430036Y449096D01*
X428371Y448407D01*
X426605Y448055D01*
X420623Y448055D01*
G37*
%LPD*%
%LPC*%
G36*
X344423Y321055D02*
X344423Y321055D01*
X344423Y328677D01*
X358525Y328677D01*
X358297Y327533D01*
X357608Y325868D01*
X356607Y324370D01*
X355334Y323097D01*
X353836Y322096D01*
X352171Y321407D01*
X350405Y321055D01*
X344423Y321055D01*
G37*
%LPD*%
%LPC*%
G36*
X225933Y594203D02*
X225933Y594203D01*
X224268Y594892D01*
X222770Y595893D01*
X221497Y597166D01*
X220496Y598664D01*
X219807Y600329D01*
X219455Y602095D01*
X219455Y608077D01*
X227077Y608077D01*
X227077Y593975D01*
X225933Y594203D01*
G37*
%LPD*%
%LPC*%
G36*
X335395Y321055D02*
X335395Y321055D01*
X333629Y321407D01*
X331964Y322096D01*
X330466Y323097D01*
X329193Y324370D01*
X328192Y325868D01*
X327503Y327533D01*
X327275Y328677D01*
X341377Y328677D01*
X341377Y321055D01*
X335395Y321055D01*
G37*
%LPD*%
%LPC*%
G36*
X411595Y295655D02*
X411595Y295655D01*
X409829Y296007D01*
X408164Y296696D01*
X406666Y297697D01*
X405393Y298970D01*
X404392Y300468D01*
X403703Y302133D01*
X403475Y303277D01*
X417577Y303277D01*
X417577Y295655D01*
X411595Y295655D01*
G37*
%LPD*%
%LPC*%
G36*
X411595Y371855D02*
X411595Y371855D01*
X409829Y372207D01*
X408164Y372896D01*
X406666Y373897D01*
X405393Y375170D01*
X404392Y376668D01*
X403703Y378333D01*
X403475Y379477D01*
X417577Y379477D01*
X417577Y371855D01*
X411595Y371855D01*
G37*
%LPD*%
%LPC*%
G36*
X411595Y448055D02*
X411595Y448055D01*
X409829Y448407D01*
X408164Y449096D01*
X406666Y450097D01*
X405393Y451370D01*
X404392Y452868D01*
X403703Y454533D01*
X403475Y455677D01*
X417577Y455677D01*
X417577Y448055D01*
X411595Y448055D01*
G37*
%LPD*%
%LPC*%
G36*
X335395Y397255D02*
X335395Y397255D01*
X333629Y397607D01*
X331964Y398296D01*
X330466Y399297D01*
X329193Y400570D01*
X328192Y402068D01*
X327503Y403733D01*
X327275Y404877D01*
X341377Y404877D01*
X341377Y397255D01*
X335395Y397255D01*
G37*
%LPD*%
%LPC*%
G36*
X244823Y249373D02*
X244823Y249373D01*
X244823Y258011D01*
X247509Y258011D01*
X253461Y252059D01*
X253461Y249373D01*
X244823Y249373D01*
G37*
%LPD*%
%LPC*%
G36*
X494823Y579573D02*
X494823Y579573D01*
X494823Y588211D01*
X497509Y588211D01*
X503461Y582259D01*
X503461Y579573D01*
X494823Y579573D01*
G37*
%LPD*%
%LPC*%
G36*
X520223Y579573D02*
X520223Y579573D01*
X520223Y588211D01*
X522909Y588211D01*
X528861Y582259D01*
X528861Y579573D01*
X520223Y579573D01*
G37*
%LPD*%
%LPC*%
G36*
X494823Y427173D02*
X494823Y427173D01*
X494823Y435811D01*
X497509Y435811D01*
X503461Y429859D01*
X503461Y427173D01*
X494823Y427173D01*
G37*
%LPD*%
%LPC*%
G36*
X520223Y427173D02*
X520223Y427173D01*
X520223Y435811D01*
X522909Y435811D01*
X528861Y429859D01*
X528861Y427173D01*
X520223Y427173D01*
G37*
%LPD*%
%LPC*%
G36*
X270223Y246327D02*
X270223Y246327D01*
X278861Y246327D01*
X278861Y243641D01*
X272909Y237689D01*
X270223Y237689D01*
X270223Y246327D01*
G37*
%LPD*%
%LPC*%
G36*
X520223Y424127D02*
X520223Y424127D01*
X528861Y424127D01*
X528861Y421441D01*
X522909Y415489D01*
X520223Y415489D01*
X520223Y424127D01*
G37*
%LPD*%
%LPC*%
G36*
X494823Y424127D02*
X494823Y424127D01*
X503461Y424127D01*
X503461Y421441D01*
X497509Y415489D01*
X494823Y415489D01*
X494823Y424127D01*
G37*
%LPD*%
%LPC*%
G36*
X244823Y246327D02*
X244823Y246327D01*
X253461Y246327D01*
X253461Y243641D01*
X247509Y237689D01*
X244823Y237689D01*
X244823Y246327D01*
G37*
%LPD*%
%LPC*%
G36*
X508539Y579573D02*
X508539Y579573D01*
X508539Y582259D01*
X514491Y588211D01*
X517177Y588211D01*
X517177Y579573D01*
X508539Y579573D01*
G37*
%LPD*%
%LPC*%
G36*
X483139Y427173D02*
X483139Y427173D01*
X483139Y429859D01*
X489091Y435811D01*
X491777Y435811D01*
X491777Y427173D01*
X483139Y427173D01*
G37*
%LPD*%
%LPC*%
G36*
X508539Y427173D02*
X508539Y427173D01*
X508539Y429859D01*
X514491Y435811D01*
X517177Y435811D01*
X517177Y427173D01*
X508539Y427173D01*
G37*
%LPD*%
%LPC*%
G36*
X483139Y579573D02*
X483139Y579573D01*
X483139Y582259D01*
X489091Y588211D01*
X491777Y588211D01*
X491777Y579573D01*
X483139Y579573D01*
G37*
%LPD*%
%LPC*%
G36*
X258539Y249373D02*
X258539Y249373D01*
X258539Y252059D01*
X264491Y258011D01*
X267177Y258011D01*
X267177Y249373D01*
X258539Y249373D01*
G37*
%LPD*%
%LPC*%
G36*
X233139Y249373D02*
X233139Y249373D01*
X233139Y252059D01*
X239091Y258011D01*
X241777Y258011D01*
X241777Y249373D01*
X233139Y249373D01*
G37*
%LPD*%
%LPC*%
G36*
X520223Y567889D02*
X520223Y567889D01*
X520223Y576527D01*
X528861Y576527D01*
X528861Y573841D01*
X522909Y567889D01*
X520223Y567889D01*
G37*
%LPD*%
%LPC*%
G36*
X494823Y567889D02*
X494823Y567889D01*
X494823Y576527D01*
X503461Y576527D01*
X503461Y573841D01*
X497509Y567889D01*
X494823Y567889D01*
G37*
%LPD*%
%LPC*%
G36*
X514491Y415489D02*
X514491Y415489D01*
X508539Y421441D01*
X508539Y424127D01*
X517177Y424127D01*
X517177Y415489D01*
X514491Y415489D01*
G37*
%LPD*%
%LPC*%
G36*
X489091Y567889D02*
X489091Y567889D01*
X483139Y573841D01*
X483139Y576527D01*
X491777Y576527D01*
X491777Y567889D01*
X489091Y567889D01*
G37*
%LPD*%
%LPC*%
G36*
X489091Y415489D02*
X489091Y415489D01*
X483139Y421441D01*
X483139Y424127D01*
X491777Y424127D01*
X491777Y415489D01*
X489091Y415489D01*
G37*
%LPD*%
%LPC*%
G36*
X264491Y237689D02*
X264491Y237689D01*
X258539Y243641D01*
X258539Y246327D01*
X267177Y246327D01*
X267177Y237689D01*
X264491Y237689D01*
G37*
%LPD*%
%LPC*%
G36*
X514491Y567889D02*
X514491Y567889D01*
X508539Y573841D01*
X508539Y576527D01*
X517177Y576527D01*
X517177Y567889D01*
X514491Y567889D01*
G37*
%LPD*%
%LPC*%
G36*
X239091Y237689D02*
X239091Y237689D01*
X233139Y243641D01*
X233139Y246327D01*
X241777Y246327D01*
X241777Y237689D01*
X239091Y237689D01*
G37*
%LPD*%
%LPC*%
G36*
X342899Y330199D02*
X342899Y330199D01*
X342899Y330201D01*
X342901Y330201D01*
X342901Y330199D01*
X342899Y330199D01*
G37*
%LPD*%
%LPC*%
G36*
X243299Y247849D02*
X243299Y247849D01*
X243299Y247851D01*
X243301Y247851D01*
X243301Y247849D01*
X243299Y247849D01*
G37*
%LPD*%
%LPC*%
G36*
X268699Y247849D02*
X268699Y247849D01*
X268699Y247851D01*
X268701Y247851D01*
X268701Y247849D01*
X268699Y247849D01*
G37*
%LPD*%
%LPC*%
G36*
X342899Y406399D02*
X342899Y406399D01*
X342899Y406401D01*
X342901Y406401D01*
X342901Y406399D01*
X342899Y406399D01*
G37*
%LPD*%
%LPC*%
G36*
X419099Y380999D02*
X419099Y380999D01*
X419099Y381001D01*
X419101Y381001D01*
X419101Y380999D01*
X419099Y380999D01*
G37*
%LPD*%
%LPC*%
G36*
X419099Y457199D02*
X419099Y457199D01*
X419099Y457201D01*
X419101Y457201D01*
X419101Y457199D01*
X419099Y457199D01*
G37*
%LPD*%
%LPC*%
G36*
X518699Y578049D02*
X518699Y578049D01*
X518699Y578051D01*
X518701Y578051D01*
X518701Y578049D01*
X518699Y578049D01*
G37*
%LPD*%
%LPC*%
G36*
X419099Y304799D02*
X419099Y304799D01*
X419099Y304801D01*
X419101Y304801D01*
X419101Y304799D01*
X419099Y304799D01*
G37*
%LPD*%
%LPC*%
G36*
X493299Y425649D02*
X493299Y425649D01*
X493299Y425651D01*
X493301Y425651D01*
X493301Y425649D01*
X493299Y425649D01*
G37*
%LPD*%
%LPC*%
G36*
X493299Y578049D02*
X493299Y578049D01*
X493299Y578051D01*
X493301Y578051D01*
X493301Y578049D01*
X493299Y578049D01*
G37*
%LPD*%
%LPC*%
G36*
X228599Y609599D02*
X228599Y609599D01*
X228599Y609601D01*
X228601Y609601D01*
X228601Y609599D01*
X228599Y609599D01*
G37*
%LPD*%
%LPC*%
G36*
X419099Y139699D02*
X419099Y139699D01*
X419099Y139701D01*
X419101Y139701D01*
X419101Y139699D01*
X419099Y139699D01*
G37*
%LPD*%
%LPC*%
G36*
X518699Y425649D02*
X518699Y425649D01*
X518699Y425651D01*
X518701Y425651D01*
X518701Y425649D01*
X518699Y425649D01*
G37*
%LPD*%
D10*
X243300Y578050D03*
X268700Y578050D03*
X243300Y552650D03*
X268700Y552650D03*
X243300Y527250D03*
X268700Y527250D03*
X243300Y501850D03*
X268700Y501850D03*
X243300Y476450D03*
X268700Y476450D03*
X243300Y451050D03*
X268700Y451050D03*
X243300Y425650D03*
X268700Y425650D03*
X243300Y400250D03*
X268700Y400250D03*
X243300Y374850D03*
X268700Y374850D03*
X243300Y349450D03*
X268700Y349450D03*
X243300Y324050D03*
X268700Y324050D03*
X243300Y298650D03*
X268700Y298650D03*
X243300Y273250D03*
X268700Y273250D03*
X243300Y247850D03*
X268700Y247850D03*
X243300Y222450D03*
X268700Y222450D03*
X243300Y197050D03*
X268700Y197050D03*
X243300Y171650D03*
X268700Y171650D03*
X243300Y146250D03*
X268700Y146250D03*
X243300Y120850D03*
X268700Y120850D03*
X493300Y578050D03*
X518700Y578050D03*
X493300Y552650D03*
X518700Y552650D03*
X493300Y527250D03*
X518700Y527250D03*
X493300Y501850D03*
X518700Y501850D03*
X493300Y476450D03*
X518700Y476450D03*
X493300Y451050D03*
X518700Y451050D03*
X493300Y425650D03*
X518700Y425650D03*
X493300Y400250D03*
X518700Y400250D03*
X493300Y374850D03*
X518700Y374850D03*
X493300Y349450D03*
X518700Y349450D03*
X493300Y324050D03*
X518700Y324050D03*
X493300Y298650D03*
X518700Y298650D03*
X493300Y273250D03*
X518700Y273250D03*
X493300Y247850D03*
X518700Y247850D03*
X493300Y222450D03*
X518700Y222450D03*
X493300Y197050D03*
X518700Y197050D03*
X493300Y171650D03*
X518700Y171650D03*
X493300Y146250D03*
X518700Y146250D03*
X493300Y120850D03*
X518700Y120850D03*
D11*
X203200Y602996D02*
X203200Y616204D01*
X228600Y616204D02*
X228600Y602996D01*
X254000Y602996D02*
X254000Y616204D01*
X279400Y616204D02*
X279400Y602996D01*
X304800Y602996D02*
X304800Y616204D01*
X330200Y616204D02*
X330200Y602996D01*
X412496Y304800D02*
X425704Y304800D01*
X425704Y330200D02*
X412496Y330200D01*
X412496Y457200D02*
X425704Y457200D01*
X349504Y457200D02*
X336296Y457200D01*
X412496Y355600D02*
X425704Y355600D01*
X425704Y381000D02*
X412496Y381000D01*
X412496Y431800D02*
X425704Y431800D01*
X425704Y406400D02*
X412496Y406400D01*
X349504Y431800D02*
X336296Y431800D01*
X336296Y406400D02*
X349504Y406400D01*
X349504Y381000D02*
X336296Y381000D01*
X336296Y355600D02*
X349504Y355600D01*
X349504Y330200D02*
X336296Y330200D01*
X336296Y304800D02*
X349504Y304800D01*
D12*
X304800Y403860D03*
X304800Y419100D03*
X304800Y434340D03*
X457200Y403860D03*
X457200Y419100D03*
X457200Y434340D03*
X457200Y327660D03*
X457200Y342900D03*
X457200Y358140D03*
X304800Y327660D03*
X304800Y342900D03*
X304800Y358140D03*
D13*
X355600Y248920D02*
X355600Y233680D01*
X381000Y233680D02*
X381000Y248920D01*
X406400Y248920D02*
X406400Y233680D01*
D14*
X342900Y148700D02*
X342900Y130700D01*
X368300Y130700D02*
X368300Y148700D01*
X393700Y148700D02*
X393700Y130700D01*
X419100Y130700D02*
X419100Y148700D01*
D15*
X405000Y345000D02*
X455000Y345000D01*
X405000Y345000D02*
X380000Y370000D01*
X380000Y485000D01*
X455000Y345000D02*
X457200Y342900D01*
D16*
X380000Y485000D03*
D15*
X330000Y460000D02*
X305000Y435000D01*
X330000Y460000D02*
X340000Y460000D01*
X305000Y435000D02*
X304800Y434340D01*
X340000Y460000D02*
X342900Y457200D01*
X420000Y355000D02*
X455000Y355000D01*
X457200Y358140D01*
X420000Y355000D02*
X419100Y355600D01*
X315000Y360000D02*
X305000Y360000D01*
X315000Y360000D02*
X340000Y385000D01*
X305000Y360000D02*
X304800Y358140D01*
X340000Y385000D02*
X342900Y381000D01*
X310000Y585000D02*
X330000Y605000D01*
X310000Y585000D02*
X280000Y585000D01*
X270000Y575000D01*
X330000Y605000D02*
X330200Y609600D01*
X268700Y578050D02*
X270000Y575000D01*
X355000Y290000D02*
X355000Y245000D01*
X355000Y290000D02*
X365000Y300000D01*
X365000Y530000D01*
X310000Y585000D01*
X355000Y245000D02*
X355600Y241300D01*
X380000Y240000D02*
X380000Y195000D01*
X345000Y160000D01*
X345000Y140000D01*
X380000Y240000D02*
X381000Y241300D01*
X345000Y140000D02*
X342900Y139700D01*
X300000Y340000D02*
X290000Y340000D01*
X285000Y335000D01*
X285000Y260000D01*
X345000Y200000D02*
X355000Y190000D01*
X345000Y200000D02*
X285000Y260000D01*
X300000Y340000D02*
X304800Y342900D01*
X370000Y225000D02*
X370000Y540000D01*
X370000Y225000D02*
X345000Y200000D01*
D16*
X355000Y190000D03*
X370000Y540000D03*
D15*
X300000Y415000D02*
X295000Y415000D01*
X285000Y405000D01*
X285000Y345000D01*
X280000Y340000D01*
X280000Y255000D01*
X325000Y210000D01*
X325000Y130000D01*
X340000Y115000D01*
X375000Y115000D01*
X395000Y135000D01*
X300000Y415000D02*
X304800Y419100D01*
X393700Y139700D02*
X395000Y135000D01*
X460000Y420000D02*
X465000Y420000D01*
X470000Y425000D01*
X470000Y495000D01*
X335000Y630000D01*
X285000Y630000D01*
X280000Y625000D01*
X280000Y610000D01*
X457200Y419100D02*
X460000Y420000D01*
X280000Y610000D02*
X279400Y609600D01*
X420000Y435000D02*
X455000Y435000D01*
X457200Y434340D01*
X420000Y435000D02*
X419100Y431800D01*
X420000Y330000D02*
X455000Y330000D01*
X457200Y327660D01*
X420000Y330000D02*
X419100Y330200D01*
X430000Y400000D02*
X455000Y400000D01*
X430000Y400000D02*
X420000Y410000D01*
X455000Y400000D02*
X457200Y403860D01*
X420000Y410000D02*
X419100Y406400D01*
X460000Y405000D02*
X470000Y405000D01*
X475000Y410000D01*
X475000Y435000D01*
X490000Y450000D01*
X460000Y405000D02*
X457200Y403860D01*
X490000Y450000D02*
X493300Y451050D01*
X315000Y330000D02*
X305000Y330000D01*
X315000Y330000D02*
X340000Y355000D01*
X305000Y330000D02*
X304800Y327660D01*
X340000Y355000D02*
X342900Y355600D01*
X315000Y405000D02*
X305000Y405000D01*
X315000Y405000D02*
X340000Y430000D01*
X305000Y405000D02*
X304800Y403860D01*
X340000Y430000D02*
X342900Y431800D01*
X445000Y320000D02*
X490000Y275000D01*
X445000Y320000D02*
X405000Y320000D01*
X380000Y345000D01*
X490000Y275000D02*
X493300Y273250D01*
D16*
X380000Y345000D03*
M02*
