G04 EAGLE Gerber RS-274X export*
G75*
%MOMM*%
%FSLAX34Y34*%
%LPD*%
%INSilkscreen Bottom*%
%IPPOS*%
%AMOC8*
5,1,8,0,0,1.08239X$1,22.5*%
G01*
%ADD10C,0.076200*%
%ADD11C,0.152400*%
%ADD12C,0.127000*%
%ADD13R,1.524000X1.016000*%
%ADD14C,0.050800*%

G36*
X395140Y514872D02*
X395140Y514872D01*
X395192Y514877D01*
X395214Y514891D01*
X395225Y514893D01*
X395233Y514902D01*
X395262Y514920D01*
X396151Y515682D01*
X396152Y515683D01*
X396154Y515685D01*
X397297Y516701D01*
X397300Y516705D01*
X397308Y516711D01*
X398197Y517600D01*
X398200Y517604D01*
X398207Y517611D01*
X399223Y518754D01*
X399239Y518786D01*
X399253Y518802D01*
X399255Y518818D01*
X399279Y518857D01*
X399279Y518870D01*
X399284Y518881D01*
X399277Y518940D01*
X399276Y518998D01*
X399268Y519013D01*
X399267Y519021D01*
X399259Y519031D01*
X399239Y519071D01*
X395653Y524017D01*
X396459Y525398D01*
X396460Y525404D01*
X396467Y525413D01*
X396975Y526429D01*
X396977Y526441D01*
X396991Y526469D01*
X397372Y527739D01*
X397372Y527740D01*
X397373Y527742D01*
X397836Y529366D01*
X403901Y530356D01*
X403960Y530384D01*
X404020Y530410D01*
X404023Y530414D01*
X404028Y530417D01*
X404063Y530472D01*
X404100Y530526D01*
X404101Y530533D01*
X404103Y530536D01*
X404103Y530545D01*
X404113Y530606D01*
X404113Y536194D01*
X404095Y536257D01*
X404079Y536321D01*
X404076Y536324D01*
X404074Y536329D01*
X404025Y536373D01*
X403978Y536418D01*
X403971Y536420D01*
X403969Y536423D01*
X403960Y536424D01*
X403901Y536444D01*
X397815Y537438D01*
X397496Y538183D01*
X397119Y539563D01*
X397113Y539573D01*
X397105Y539602D01*
X396343Y541253D01*
X396337Y541260D01*
X396330Y541277D01*
X395652Y542408D01*
X399116Y547481D01*
X399136Y547540D01*
X399159Y547599D01*
X399157Y547607D01*
X399160Y547615D01*
X399145Y547676D01*
X399134Y547737D01*
X399127Y547746D01*
X399126Y547752D01*
X399117Y547760D01*
X399086Y547803D01*
X398457Y548433D01*
X397445Y549570D01*
X397441Y549573D01*
X397435Y549581D01*
X396165Y550851D01*
X396156Y550856D01*
X396141Y550872D01*
X394998Y551761D01*
X394951Y551780D01*
X394908Y551806D01*
X394887Y551805D01*
X394868Y551813D01*
X394818Y551804D01*
X394767Y551803D01*
X394741Y551789D01*
X394729Y551787D01*
X394720Y551779D01*
X394694Y551766D01*
X389747Y548179D01*
X388111Y549114D01*
X388100Y549116D01*
X388079Y549129D01*
X386809Y549637D01*
X386804Y549638D01*
X386795Y549642D01*
X385035Y550229D01*
X384044Y556175D01*
X384021Y556222D01*
X384005Y556273D01*
X383991Y556285D01*
X383983Y556302D01*
X383938Y556330D01*
X383898Y556364D01*
X383873Y556371D01*
X383863Y556377D01*
X383851Y556376D01*
X383819Y556385D01*
X382549Y556512D01*
X382541Y556511D01*
X382524Y556513D01*
X379603Y556513D01*
X379596Y556511D01*
X379582Y556512D01*
X378058Y556385D01*
X378008Y556366D01*
X377957Y556355D01*
X377944Y556342D01*
X377926Y556335D01*
X377895Y556293D01*
X377857Y556255D01*
X377849Y556231D01*
X377842Y556222D01*
X377841Y556210D01*
X377830Y556179D01*
X376717Y550121D01*
X375738Y549903D01*
X375727Y549897D01*
X375690Y549887D01*
X373404Y548871D01*
X373398Y548867D01*
X373384Y548861D01*
X372380Y548304D01*
X367303Y551895D01*
X367261Y551909D01*
X367224Y551932D01*
X367196Y551932D01*
X367170Y551941D01*
X367127Y551931D01*
X367083Y551930D01*
X367045Y551912D01*
X367033Y551909D01*
X367027Y551902D01*
X367010Y551894D01*
X366121Y551259D01*
X366116Y551253D01*
X366101Y551244D01*
X365085Y550355D01*
X365082Y550350D01*
X365073Y550343D01*
X363803Y549073D01*
X363799Y549065D01*
X363784Y549052D01*
X362768Y547782D01*
X362748Y547734D01*
X362721Y547690D01*
X362722Y547670D01*
X362714Y547652D01*
X362723Y547601D01*
X362724Y547549D01*
X362736Y547524D01*
X362738Y547513D01*
X362746Y547504D01*
X362760Y547476D01*
X366227Y542648D01*
X366172Y542538D01*
X365287Y541021D01*
X365285Y541012D01*
X365275Y540998D01*
X364640Y539601D01*
X364639Y539591D01*
X364629Y539570D01*
X364166Y538066D01*
X358094Y536951D01*
X358049Y536928D01*
X358000Y536913D01*
X357987Y536897D01*
X357968Y536888D01*
X357942Y536844D01*
X357909Y536806D01*
X357901Y536778D01*
X357895Y536767D01*
X357896Y536756D01*
X357888Y536727D01*
X357761Y535457D01*
X357761Y535456D01*
X357761Y535455D01*
X357634Y534058D01*
X357635Y534050D01*
X357633Y534035D01*
X357633Y531114D01*
X357650Y531053D01*
X357664Y530992D01*
X357670Y530986D01*
X357672Y530979D01*
X357719Y530937D01*
X357764Y530892D01*
X357773Y530889D01*
X357777Y530885D01*
X357788Y530883D01*
X357840Y530865D01*
X363903Y529751D01*
X364371Y527878D01*
X364375Y527872D01*
X364377Y527859D01*
X364885Y526335D01*
X364892Y526324D01*
X364906Y526287D01*
X365714Y524902D01*
X362123Y519701D01*
X362107Y519655D01*
X362084Y519613D01*
X362085Y519590D01*
X362078Y519567D01*
X362089Y519521D01*
X362092Y519473D01*
X362109Y519443D01*
X362112Y519430D01*
X362119Y519423D01*
X362131Y519402D01*
X363020Y518259D01*
X363025Y518255D01*
X363031Y518246D01*
X364047Y517103D01*
X364051Y517100D01*
X364057Y517092D01*
X364946Y516203D01*
X364951Y516200D01*
X364958Y516191D01*
X365974Y515302D01*
X366025Y515279D01*
X366072Y515249D01*
X366088Y515249D01*
X366102Y515243D01*
X366157Y515250D01*
X366213Y515250D01*
X366232Y515259D01*
X366242Y515261D01*
X366252Y515269D01*
X366286Y515286D01*
X371224Y518742D01*
X372605Y517822D01*
X372617Y517818D01*
X372648Y517799D01*
X374172Y517164D01*
X374189Y517162D01*
X374205Y517153D01*
X374258Y517154D01*
X374312Y517148D01*
X374328Y517156D01*
X374345Y517157D01*
X374390Y517186D01*
X374438Y517210D01*
X374448Y517225D01*
X374463Y517235D01*
X374504Y517304D01*
X378441Y527210D01*
X378447Y527274D01*
X378457Y527337D01*
X378454Y527343D01*
X378455Y527351D01*
X378426Y527408D01*
X378401Y527466D01*
X378394Y527472D01*
X378391Y527477D01*
X378382Y527482D01*
X378340Y527519D01*
X377197Y528228D01*
X376242Y529137D01*
X375492Y530222D01*
X374979Y531437D01*
X374725Y532731D01*
X374739Y534049D01*
X375023Y535337D01*
X375563Y536540D01*
X376337Y537607D01*
X377312Y538495D01*
X378448Y539165D01*
X379696Y539589D01*
X381004Y539749D01*
X382357Y539630D01*
X383652Y539223D01*
X384829Y538549D01*
X385835Y537638D01*
X386623Y536533D01*
X387156Y535285D01*
X387409Y533952D01*
X387371Y532595D01*
X387044Y531278D01*
X386442Y530062D01*
X385593Y529003D01*
X384538Y528150D01*
X383300Y527530D01*
X383249Y527483D01*
X383197Y527436D01*
X383197Y527435D01*
X383196Y527435D01*
X383178Y527367D01*
X383160Y527300D01*
X383160Y527299D01*
X383160Y527297D01*
X383174Y527220D01*
X386730Y517060D01*
X386750Y517033D01*
X386760Y517001D01*
X386790Y516977D01*
X386812Y516946D01*
X386843Y516933D01*
X386869Y516911D01*
X386907Y516907D01*
X386942Y516892D01*
X386975Y516898D01*
X387009Y516894D01*
X387075Y516916D01*
X387081Y516917D01*
X387082Y516918D01*
X387086Y516919D01*
X389873Y518373D01*
X394954Y514903D01*
X395005Y514886D01*
X395052Y514863D01*
X395071Y514865D01*
X395088Y514859D01*
X395140Y514872D01*
G37*
D10*
X297047Y622681D02*
X304419Y622681D01*
X304419Y627596D01*
X297047Y630165D02*
X297047Y635080D01*
X297047Y630165D02*
X304419Y630165D01*
X304419Y635080D01*
X300733Y632623D02*
X300733Y630165D01*
X297047Y637649D02*
X304419Y637649D01*
X304419Y641335D01*
X303190Y642564D01*
X298275Y642564D01*
X297047Y641335D01*
X297047Y637649D01*
X466571Y317125D02*
X466571Y309753D01*
X466571Y317125D02*
X462885Y317125D01*
X461657Y315897D01*
X461657Y314668D01*
X462885Y313439D01*
X461657Y312210D01*
X461657Y310982D01*
X462885Y309753D01*
X466571Y309753D01*
X466571Y313439D02*
X462885Y313439D01*
X459087Y315897D02*
X459087Y317125D01*
X459087Y315897D02*
X456630Y313439D01*
X454172Y315897D01*
X454172Y317125D01*
X456630Y313439D02*
X456630Y309753D01*
X451603Y309753D02*
X451603Y317125D01*
X447917Y317125D01*
X446688Y315897D01*
X446688Y313439D01*
X447917Y312210D01*
X451603Y312210D01*
X314171Y309753D02*
X314171Y317125D01*
X310485Y317125D01*
X309257Y315897D01*
X309257Y314668D01*
X310485Y313439D01*
X309257Y312210D01*
X309257Y310982D01*
X310485Y309753D01*
X314171Y309753D01*
X314171Y313439D02*
X310485Y313439D01*
X306687Y315897D02*
X306687Y317125D01*
X306687Y315897D02*
X304230Y313439D01*
X301772Y315897D01*
X301772Y317125D01*
X304230Y313439D02*
X304230Y309753D01*
X299203Y309753D02*
X299203Y317125D01*
X295517Y317125D01*
X294288Y315897D01*
X294288Y313439D01*
X295517Y312210D01*
X299203Y312210D01*
X314171Y385953D02*
X314171Y393325D01*
X310485Y393325D01*
X309257Y392097D01*
X309257Y390868D01*
X310485Y389639D01*
X309257Y388410D01*
X309257Y387182D01*
X310485Y385953D01*
X314171Y385953D01*
X314171Y389639D02*
X310485Y389639D01*
X306687Y392097D02*
X306687Y393325D01*
X306687Y392097D02*
X304230Y389639D01*
X301772Y392097D01*
X301772Y393325D01*
X304230Y389639D02*
X304230Y385953D01*
X299203Y385953D02*
X299203Y393325D01*
X295517Y393325D01*
X294288Y392097D01*
X294288Y389639D01*
X295517Y388410D01*
X299203Y388410D01*
X466571Y385953D02*
X466571Y393325D01*
X462885Y393325D01*
X461657Y392097D01*
X461657Y390868D01*
X462885Y389639D01*
X461657Y388410D01*
X461657Y387182D01*
X462885Y385953D01*
X466571Y385953D01*
X466571Y389639D02*
X462885Y389639D01*
X459087Y392097D02*
X459087Y393325D01*
X459087Y392097D02*
X456630Y389639D01*
X454172Y392097D01*
X454172Y393325D01*
X456630Y389639D02*
X456630Y385953D01*
X451603Y385953D02*
X451603Y393325D01*
X447917Y393325D01*
X446688Y392097D01*
X446688Y389639D01*
X447917Y388410D01*
X451603Y388410D01*
X469141Y455597D02*
X470370Y456825D01*
X472827Y456825D01*
X474056Y455597D01*
X474056Y454368D01*
X472827Y453139D01*
X470370Y453139D01*
X469141Y451910D01*
X469141Y450682D01*
X470370Y449453D01*
X472827Y449453D01*
X474056Y450682D01*
X466571Y449453D02*
X466571Y456825D01*
X466571Y453139D02*
X461657Y453139D01*
X461657Y456825D02*
X461657Y449453D01*
X459087Y449453D02*
X459087Y456825D01*
X454172Y456825D01*
X456630Y453139D02*
X459087Y453139D01*
X449146Y449453D02*
X449146Y456825D01*
X451603Y456825D02*
X446688Y456825D01*
X317970Y456825D02*
X316741Y455597D01*
X317970Y456825D02*
X320427Y456825D01*
X321656Y455597D01*
X321656Y454368D01*
X320427Y453139D01*
X317970Y453139D01*
X316741Y451910D01*
X316741Y450682D01*
X317970Y449453D01*
X320427Y449453D01*
X321656Y450682D01*
X314171Y449453D02*
X314171Y456825D01*
X314171Y453139D02*
X309257Y453139D01*
X309257Y456825D02*
X309257Y449453D01*
X306687Y449453D02*
X306687Y456825D01*
X301772Y456825D01*
X304230Y453139D02*
X306687Y453139D01*
X296746Y449453D02*
X296746Y456825D01*
X299203Y456825D02*
X294288Y456825D01*
X317970Y380625D02*
X316741Y379397D01*
X317970Y380625D02*
X320427Y380625D01*
X321656Y379397D01*
X321656Y378168D01*
X320427Y376939D01*
X317970Y376939D01*
X316741Y375710D01*
X316741Y374482D01*
X317970Y373253D01*
X320427Y373253D01*
X321656Y374482D01*
X314171Y373253D02*
X314171Y380625D01*
X314171Y376939D02*
X309257Y376939D01*
X309257Y380625D02*
X309257Y373253D01*
X306687Y373253D02*
X306687Y380625D01*
X301772Y380625D01*
X304230Y376939D02*
X306687Y376939D01*
X296746Y373253D02*
X296746Y380625D01*
X299203Y380625D02*
X294288Y380625D01*
X469141Y379397D02*
X470370Y380625D01*
X472827Y380625D01*
X474056Y379397D01*
X474056Y378168D01*
X472827Y376939D01*
X470370Y376939D01*
X469141Y375710D01*
X469141Y374482D01*
X470370Y373253D01*
X472827Y373253D01*
X474056Y374482D01*
X466571Y373253D02*
X466571Y380625D01*
X466571Y376939D02*
X461657Y376939D01*
X461657Y380625D02*
X461657Y373253D01*
X459087Y373253D02*
X459087Y380625D01*
X454172Y380625D01*
X456630Y376939D02*
X459087Y376939D01*
X449146Y373253D02*
X449146Y380625D01*
X451603Y380625D02*
X446688Y380625D01*
X632077Y625221D02*
X632077Y634627D01*
X625807Y634627D02*
X632077Y628356D01*
X630510Y629924D02*
X625807Y625221D01*
X622722Y626789D02*
X622722Y631492D01*
X622722Y626789D02*
X621154Y625221D01*
X616451Y625221D01*
X616451Y631492D01*
X613367Y634627D02*
X613367Y625221D01*
X608664Y625221D01*
X607096Y626789D01*
X607096Y629924D01*
X608664Y631492D01*
X613367Y631492D01*
X602444Y625221D02*
X599309Y625221D01*
X602444Y625221D02*
X604012Y626789D01*
X604012Y629924D01*
X602444Y631492D01*
X599309Y631492D01*
X597741Y629924D01*
X597741Y628356D01*
X604012Y628356D01*
X585301Y634627D02*
X579031Y634627D01*
X585301Y634627D02*
X585301Y625221D01*
X579031Y625221D01*
X582166Y629924D02*
X585301Y629924D01*
X571243Y634627D02*
X569675Y633059D01*
X571243Y634627D02*
X574378Y634627D01*
X575946Y633059D01*
X575946Y631492D01*
X574378Y629924D01*
X571243Y629924D01*
X569675Y628356D01*
X569675Y626789D01*
X571243Y625221D01*
X574378Y625221D01*
X575946Y626789D01*
X566591Y625221D02*
X566591Y634627D01*
X561888Y634627D01*
X560320Y633059D01*
X560320Y629924D01*
X561888Y628356D01*
X566591Y628356D01*
X557236Y633059D02*
X555668Y634627D01*
X552533Y634627D01*
X550965Y633059D01*
X550965Y631492D01*
X552533Y629924D01*
X554100Y629924D01*
X552533Y629924D02*
X550965Y628356D01*
X550965Y626789D01*
X552533Y625221D01*
X555668Y625221D01*
X557236Y626789D01*
X547881Y625221D02*
X541610Y625221D01*
X547881Y625221D02*
X541610Y631492D01*
X541610Y633059D01*
X543178Y634627D01*
X546313Y634627D01*
X547881Y633059D01*
X529170Y634627D02*
X529170Y625221D01*
X529170Y629924D02*
X522900Y629924D01*
X522900Y634627D02*
X522900Y625221D01*
X519815Y631492D02*
X518247Y631492D01*
X518247Y625221D01*
X516680Y625221D02*
X519815Y625221D01*
X518247Y634627D02*
X518247Y636195D01*
X513578Y634627D02*
X513578Y625221D01*
X507308Y625221D01*
X502655Y625221D02*
X499520Y625221D01*
X502655Y625221D02*
X504223Y626789D01*
X504223Y629924D01*
X502655Y631492D01*
X499520Y631492D01*
X497952Y629924D01*
X497952Y628356D01*
X504223Y628356D01*
X493300Y626789D02*
X493300Y633059D01*
X493300Y626789D02*
X491733Y625221D01*
X491733Y631492D02*
X494868Y631492D01*
X483928Y634627D02*
X482360Y633059D01*
X483928Y634627D02*
X487063Y634627D01*
X488631Y633059D01*
X488631Y626789D01*
X487063Y625221D01*
X483928Y625221D01*
X482360Y626789D01*
X482360Y629924D01*
X485496Y629924D01*
X477708Y625221D02*
X474573Y625221D01*
X473005Y626789D01*
X473005Y629924D01*
X474573Y631492D01*
X477708Y631492D01*
X479276Y629924D01*
X479276Y626789D01*
X477708Y625221D01*
X460566Y625221D02*
X460566Y634627D01*
X455863Y634627D01*
X454295Y633059D01*
X454295Y631492D01*
X455863Y629924D01*
X454295Y628356D01*
X454295Y626789D01*
X455863Y625221D01*
X460566Y625221D01*
X460566Y629924D02*
X455863Y629924D01*
X451210Y631492D02*
X451210Y625221D01*
X451210Y628356D02*
X448075Y631492D01*
X446507Y631492D01*
X443414Y634627D02*
X443414Y625221D01*
X443414Y628356D02*
X438711Y625221D01*
X443414Y628356D02*
X438711Y631492D01*
X434051Y625221D02*
X430915Y625221D01*
X429348Y626789D01*
X429348Y629924D01*
X430915Y631492D01*
X434051Y631492D01*
X435618Y629924D01*
X435618Y626789D01*
X434051Y625221D01*
X426263Y626789D02*
X426263Y631492D01*
X426263Y626789D02*
X424696Y625221D01*
X419993Y625221D01*
X419993Y631492D01*
X415340Y633059D02*
X415340Y626789D01*
X413773Y625221D01*
X413773Y631492D02*
X416908Y631492D01*
X401316Y631492D02*
X398181Y625221D01*
X395045Y631492D01*
X391961Y625221D02*
X385690Y625221D01*
X391961Y625221D02*
X385690Y631492D01*
X385690Y633059D01*
X387258Y634627D01*
X390393Y634627D01*
X391961Y633059D01*
X382606Y633059D02*
X382606Y626789D01*
X382606Y633059D02*
X381038Y634627D01*
X377903Y634627D01*
X376335Y633059D01*
X376335Y626789D01*
X377903Y625221D01*
X381038Y625221D01*
X382606Y626789D01*
X376335Y633059D01*
X373250Y625221D02*
X366980Y625221D01*
X373250Y625221D02*
X366980Y631492D01*
X366980Y633059D01*
X368547Y634627D01*
X371683Y634627D01*
X373250Y633059D01*
X363895Y625221D02*
X357625Y625221D01*
X363895Y625221D02*
X357625Y631492D01*
X357625Y633059D01*
X359192Y634627D01*
X362328Y634627D01*
X363895Y633059D01*
X354540Y631492D02*
X351405Y634627D01*
X351405Y625221D01*
X354540Y625221D02*
X348269Y625221D01*
X345185Y625221D02*
X338914Y625221D01*
X345185Y625221D02*
X338914Y631492D01*
X338914Y633059D01*
X340482Y634627D01*
X343617Y634627D01*
X345185Y633059D01*
X335830Y625221D02*
X329559Y625221D01*
X335830Y625221D02*
X329559Y631492D01*
X329559Y633059D01*
X331127Y634627D01*
X334262Y634627D01*
X335830Y633059D01*
X326475Y626789D02*
X324907Y625221D01*
X321772Y625221D01*
X320204Y626789D01*
X320204Y633059D01*
X321772Y634627D01*
X324907Y634627D01*
X326475Y633059D01*
X326475Y631492D01*
X324907Y629924D01*
X320204Y629924D01*
X632077Y619387D02*
X632077Y609981D01*
X632077Y614684D02*
X630510Y616252D01*
X627374Y616252D01*
X625807Y614684D01*
X625807Y609981D01*
X621154Y611549D02*
X621154Y617819D01*
X621154Y611549D02*
X619587Y609981D01*
X619587Y616252D02*
X622722Y616252D01*
X614918Y617819D02*
X614918Y611549D01*
X613350Y609981D01*
X613350Y616252D02*
X616485Y616252D01*
X610249Y616252D02*
X610249Y606846D01*
X610249Y616252D02*
X605546Y616252D01*
X603978Y614684D01*
X603978Y611549D01*
X605546Y609981D01*
X610249Y609981D01*
X600893Y616252D02*
X599326Y616252D01*
X599326Y614684D01*
X600893Y614684D01*
X600893Y616252D01*
X600893Y611549D02*
X599326Y611549D01*
X599326Y609981D01*
X600893Y609981D01*
X600893Y611549D01*
X596216Y609981D02*
X589945Y619387D01*
X580590Y619387D02*
X586861Y609981D01*
X577505Y611549D02*
X577505Y616252D01*
X577505Y611549D02*
X575938Y609981D01*
X574370Y611549D01*
X572802Y609981D01*
X571235Y611549D01*
X571235Y616252D01*
X568150Y616252D02*
X568150Y611549D01*
X566583Y609981D01*
X565015Y611549D01*
X563447Y609981D01*
X561879Y611549D01*
X561879Y616252D01*
X558795Y616252D02*
X558795Y611549D01*
X557227Y609981D01*
X555660Y611549D01*
X554092Y609981D01*
X552524Y611549D01*
X552524Y616252D01*
X549440Y611549D02*
X549440Y609981D01*
X549440Y611549D02*
X547872Y611549D01*
X547872Y609981D01*
X549440Y609981D01*
X544762Y611549D02*
X544762Y616252D01*
X544762Y611549D02*
X543195Y609981D01*
X538492Y609981D01*
X538492Y608413D02*
X538492Y616252D01*
X538492Y608413D02*
X540059Y606846D01*
X541627Y606846D01*
X533839Y609981D02*
X530704Y609981D01*
X529136Y611549D01*
X529136Y614684D01*
X530704Y616252D01*
X533839Y616252D01*
X535407Y614684D01*
X535407Y611549D01*
X533839Y609981D01*
X526052Y611549D02*
X526052Y616252D01*
X526052Y611549D02*
X524484Y609981D01*
X519781Y609981D01*
X519781Y616252D01*
X515129Y617819D02*
X515129Y611549D01*
X513561Y609981D01*
X513561Y616252D02*
X516697Y616252D01*
X510460Y616252D02*
X510460Y611549D01*
X508892Y609981D01*
X504189Y609981D01*
X504189Y616252D01*
X501105Y619387D02*
X501105Y609981D01*
X496402Y609981D01*
X494834Y611549D01*
X494834Y614684D01*
X496402Y616252D01*
X501105Y616252D01*
X490182Y609981D02*
X487046Y609981D01*
X490182Y609981D02*
X491749Y611549D01*
X491749Y614684D01*
X490182Y616252D01*
X487046Y616252D01*
X485479Y614684D01*
X485479Y613116D01*
X491749Y613116D01*
X482394Y611549D02*
X482394Y609981D01*
X482394Y611549D02*
X480827Y611549D01*
X480827Y609981D01*
X482394Y609981D01*
X476149Y616252D02*
X471446Y616252D01*
X476149Y616252D02*
X477717Y614684D01*
X477717Y611549D01*
X476149Y609981D01*
X471446Y609981D01*
X466794Y609981D02*
X463659Y609981D01*
X462091Y611549D01*
X462091Y614684D01*
X463659Y616252D01*
X466794Y616252D01*
X468362Y614684D01*
X468362Y611549D01*
X466794Y609981D01*
X459006Y609981D02*
X459006Y616252D01*
X457439Y616252D01*
X455871Y614684D01*
X455871Y609981D01*
X455871Y614684D02*
X454303Y616252D01*
X452736Y614684D01*
X452736Y609981D01*
X449651Y609981D02*
X443380Y619387D01*
X438728Y616252D02*
X434025Y616252D01*
X438728Y616252D02*
X440296Y614684D01*
X440296Y611549D01*
X438728Y609981D01*
X434025Y609981D01*
X430941Y609981D02*
X424670Y619387D01*
X421586Y619387D02*
X421586Y609981D01*
X421586Y619387D02*
X416883Y619387D01*
X415315Y617819D01*
X415315Y616252D01*
X416883Y614684D01*
X415315Y613116D01*
X415315Y611549D01*
X416883Y609981D01*
X421586Y609981D01*
X421586Y614684D02*
X416883Y614684D01*
X412230Y619387D02*
X412230Y609981D01*
X412230Y613116D02*
X405960Y619387D01*
X410663Y614684D02*
X405960Y609981D01*
X402875Y609981D02*
X402875Y619387D01*
X402875Y614684D02*
X396605Y614684D01*
X396605Y619387D02*
X396605Y609981D01*
X391952Y609981D02*
X388817Y609981D01*
X387249Y611549D01*
X387249Y614684D01*
X388817Y616252D01*
X391952Y616252D01*
X393520Y614684D01*
X393520Y611549D01*
X391952Y609981D01*
X384165Y609981D02*
X384165Y619387D01*
X384165Y609981D02*
X379462Y609981D01*
X377894Y611549D01*
X377894Y614684D01*
X379462Y616252D01*
X384165Y616252D01*
X374810Y619387D02*
X374810Y609981D01*
X370107Y609981D01*
X368539Y611549D01*
X368539Y614684D01*
X370107Y616252D01*
X374810Y616252D01*
X365454Y616252D02*
X365454Y611549D01*
X363887Y609981D01*
X359184Y609981D01*
X359184Y608413D02*
X359184Y616252D01*
X359184Y608413D02*
X360751Y606846D01*
X362319Y606846D01*
X195447Y629031D02*
X195447Y633946D01*
X195447Y629031D02*
X199133Y629031D01*
X197904Y631488D01*
X197904Y632717D01*
X199133Y633946D01*
X201590Y633946D01*
X202819Y632717D01*
X202819Y630260D01*
X201590Y629031D01*
X197904Y636515D02*
X202819Y638973D01*
X197904Y641430D01*
X220847Y626367D02*
X222075Y627596D01*
X220847Y626367D02*
X220847Y623910D01*
X222075Y622681D01*
X226990Y622681D01*
X228219Y623910D01*
X228219Y626367D01*
X226990Y627596D01*
X224533Y627596D01*
X224533Y625138D01*
X223304Y630165D02*
X228219Y630165D01*
X223304Y630165D02*
X223304Y633851D01*
X224533Y635080D01*
X228219Y635080D01*
X228219Y642564D02*
X220847Y642564D01*
X228219Y642564D02*
X228219Y638878D01*
X226990Y637649D01*
X224533Y637649D01*
X223304Y638878D01*
X223304Y642564D01*
X246247Y626367D02*
X247475Y627596D01*
X246247Y626367D02*
X246247Y623910D01*
X247475Y622681D01*
X248704Y622681D01*
X249933Y623910D01*
X249933Y626367D01*
X251162Y627596D01*
X252390Y627596D01*
X253619Y626367D01*
X253619Y623910D01*
X252390Y622681D01*
X246247Y633851D02*
X247475Y635080D01*
X246247Y633851D02*
X246247Y631394D01*
X247475Y630165D01*
X252390Y630165D01*
X253619Y631394D01*
X253619Y633851D01*
X252390Y635080D01*
X253619Y637649D02*
X246247Y637649D01*
X253619Y637649D02*
X253619Y642564D01*
X271647Y626367D02*
X272875Y627596D01*
X271647Y626367D02*
X271647Y623910D01*
X272875Y622681D01*
X274104Y622681D01*
X275333Y623910D01*
X275333Y626367D01*
X276562Y627596D01*
X277790Y627596D01*
X279019Y626367D01*
X279019Y623910D01*
X277790Y622681D01*
X279019Y630165D02*
X271647Y630165D01*
X279019Y630165D02*
X279019Y633851D01*
X277790Y635080D01*
X272875Y635080D01*
X271647Y633851D01*
X271647Y630165D01*
X274104Y637649D02*
X279019Y637649D01*
X274104Y637649D02*
X271647Y640107D01*
X274104Y642564D01*
X279019Y642564D01*
X275333Y642564D02*
X275333Y637649D01*
X322447Y630260D02*
X323675Y629031D01*
X322447Y630260D02*
X322447Y632717D01*
X323675Y633946D01*
X324904Y633946D01*
X326133Y632717D01*
X326133Y631488D01*
X326133Y632717D02*
X327362Y633946D01*
X328590Y633946D01*
X329819Y632717D01*
X329819Y630260D01*
X328590Y629031D01*
X324904Y636515D02*
X329819Y638973D01*
X324904Y641430D01*
X323675Y643999D02*
X322447Y645228D01*
X322447Y647685D01*
X323675Y648914D01*
X324904Y648914D01*
X326133Y647685D01*
X326133Y646457D01*
X326133Y647685D02*
X327362Y648914D01*
X328590Y648914D01*
X329819Y647685D01*
X329819Y645228D01*
X328590Y643999D01*
D11*
X294640Y440690D02*
X294640Y397510D01*
X314960Y440690D02*
X314958Y440790D01*
X314952Y440889D01*
X314942Y440989D01*
X314929Y441087D01*
X314911Y441186D01*
X314890Y441283D01*
X314865Y441379D01*
X314836Y441475D01*
X314803Y441569D01*
X314767Y441662D01*
X314727Y441753D01*
X314683Y441843D01*
X314636Y441931D01*
X314586Y442017D01*
X314532Y442101D01*
X314475Y442183D01*
X314415Y442262D01*
X314351Y442340D01*
X314285Y442414D01*
X314216Y442486D01*
X314144Y442555D01*
X314070Y442621D01*
X313992Y442685D01*
X313913Y442745D01*
X313831Y442802D01*
X313747Y442856D01*
X313661Y442906D01*
X313573Y442953D01*
X313483Y442997D01*
X313392Y443037D01*
X313299Y443073D01*
X313205Y443106D01*
X313109Y443135D01*
X313013Y443160D01*
X312916Y443181D01*
X312817Y443199D01*
X312719Y443212D01*
X312619Y443222D01*
X312520Y443228D01*
X312420Y443230D01*
X314960Y397510D02*
X314958Y397410D01*
X314952Y397311D01*
X314942Y397211D01*
X314929Y397113D01*
X314911Y397014D01*
X314890Y396917D01*
X314865Y396821D01*
X314836Y396725D01*
X314803Y396631D01*
X314767Y396538D01*
X314727Y396447D01*
X314683Y396357D01*
X314636Y396269D01*
X314586Y396183D01*
X314532Y396099D01*
X314475Y396017D01*
X314415Y395938D01*
X314351Y395860D01*
X314285Y395786D01*
X314216Y395714D01*
X314144Y395645D01*
X314070Y395579D01*
X313992Y395515D01*
X313913Y395455D01*
X313831Y395398D01*
X313747Y395344D01*
X313661Y395294D01*
X313573Y395247D01*
X313483Y395203D01*
X313392Y395163D01*
X313299Y395127D01*
X313205Y395094D01*
X313109Y395065D01*
X313013Y395040D01*
X312916Y395019D01*
X312817Y395001D01*
X312719Y394988D01*
X312619Y394978D01*
X312520Y394972D01*
X312420Y394970D01*
X297180Y394970D02*
X297080Y394972D01*
X296981Y394978D01*
X296881Y394988D01*
X296783Y395001D01*
X296684Y395019D01*
X296587Y395040D01*
X296491Y395065D01*
X296395Y395094D01*
X296301Y395127D01*
X296208Y395163D01*
X296117Y395203D01*
X296027Y395247D01*
X295939Y395294D01*
X295853Y395344D01*
X295769Y395398D01*
X295687Y395455D01*
X295608Y395515D01*
X295530Y395579D01*
X295456Y395645D01*
X295384Y395714D01*
X295315Y395786D01*
X295249Y395860D01*
X295185Y395938D01*
X295125Y396017D01*
X295068Y396099D01*
X295014Y396183D01*
X294964Y396269D01*
X294917Y396357D01*
X294873Y396447D01*
X294833Y396538D01*
X294797Y396631D01*
X294764Y396725D01*
X294735Y396821D01*
X294710Y396917D01*
X294689Y397014D01*
X294671Y397113D01*
X294658Y397211D01*
X294648Y397311D01*
X294642Y397410D01*
X294640Y397510D01*
X294640Y440690D02*
X294642Y440790D01*
X294648Y440889D01*
X294658Y440989D01*
X294671Y441087D01*
X294689Y441186D01*
X294710Y441283D01*
X294735Y441379D01*
X294764Y441475D01*
X294797Y441569D01*
X294833Y441662D01*
X294873Y441753D01*
X294917Y441843D01*
X294964Y441931D01*
X295014Y442017D01*
X295068Y442101D01*
X295125Y442183D01*
X295185Y442262D01*
X295249Y442340D01*
X295315Y442414D01*
X295384Y442486D01*
X295456Y442555D01*
X295530Y442621D01*
X295608Y442685D01*
X295687Y442745D01*
X295769Y442802D01*
X295853Y442856D01*
X295939Y442906D01*
X296027Y442953D01*
X296117Y442997D01*
X296208Y443037D01*
X296301Y443073D01*
X296395Y443106D01*
X296491Y443135D01*
X296587Y443160D01*
X296684Y443181D01*
X296783Y443199D01*
X296881Y443212D01*
X296981Y443222D01*
X297080Y443228D01*
X297180Y443230D01*
X312420Y443230D01*
X312420Y394970D02*
X297180Y394970D01*
X314960Y397510D02*
X314960Y440690D01*
X304800Y441960D02*
X304800Y436880D01*
X304800Y401320D02*
X304800Y396240D01*
X312420Y419100D02*
X314960Y419100D01*
X297180Y419100D02*
X294640Y419100D01*
D12*
X311756Y429894D02*
X304800Y429261D01*
X304800Y429261D01*
X297844Y429894D01*
X297861Y430064D01*
X297883Y430234D01*
X297909Y430402D01*
X297939Y430571D01*
X297973Y430738D01*
X298011Y430905D01*
X298054Y431070D01*
X298100Y431235D01*
X298150Y431398D01*
X298204Y431560D01*
X298263Y431721D01*
X298325Y431880D01*
X298391Y432037D01*
X298461Y432193D01*
X298534Y432347D01*
X298612Y432500D01*
X298693Y432650D01*
X298778Y432798D01*
X298866Y432945D01*
X298958Y433089D01*
X299053Y433230D01*
X299152Y433370D01*
X299254Y433507D01*
X299360Y433641D01*
X299469Y433773D01*
X299581Y433902D01*
X299696Y434028D01*
X299814Y434152D01*
X299935Y434272D01*
X300059Y434390D01*
X300186Y434504D01*
X300315Y434615D01*
X300448Y434723D01*
X300583Y434828D01*
X300720Y434930D01*
X300860Y435028D01*
X301002Y435122D01*
X301147Y435214D01*
X301294Y435301D01*
X301442Y435385D01*
X301593Y435465D01*
X301746Y435542D01*
X301900Y435615D01*
X302057Y435684D01*
X302215Y435749D01*
X302374Y435810D01*
X302535Y435868D01*
X302697Y435921D01*
X302861Y435970D01*
X303026Y436016D01*
X303191Y436057D01*
X303358Y436095D01*
X303526Y436128D01*
X303694Y436157D01*
X303863Y436182D01*
X304033Y436203D01*
X304203Y436219D01*
X304373Y436232D01*
X304544Y436240D01*
X304715Y436244D01*
X304885Y436244D01*
X305056Y436240D01*
X305227Y436232D01*
X305397Y436219D01*
X305567Y436203D01*
X305737Y436182D01*
X305906Y436157D01*
X306074Y436128D01*
X306242Y436095D01*
X306409Y436057D01*
X306574Y436016D01*
X306739Y435970D01*
X306903Y435921D01*
X307065Y435868D01*
X307226Y435810D01*
X307385Y435749D01*
X307543Y435684D01*
X307700Y435615D01*
X307854Y435542D01*
X308007Y435465D01*
X308158Y435385D01*
X308306Y435301D01*
X308453Y435214D01*
X308598Y435122D01*
X308740Y435028D01*
X308880Y434930D01*
X309017Y434828D01*
X309152Y434723D01*
X309285Y434615D01*
X309414Y434504D01*
X309541Y434390D01*
X309665Y434272D01*
X309786Y434152D01*
X309904Y434028D01*
X310019Y433902D01*
X310131Y433773D01*
X310240Y433641D01*
X310346Y433507D01*
X310448Y433370D01*
X310547Y433230D01*
X310642Y433089D01*
X310734Y432945D01*
X310822Y432798D01*
X310907Y432650D01*
X310988Y432500D01*
X311066Y432347D01*
X311139Y432193D01*
X311209Y432037D01*
X311275Y431880D01*
X311337Y431721D01*
X311396Y431560D01*
X311450Y431398D01*
X311500Y431235D01*
X311546Y431070D01*
X311589Y430905D01*
X311627Y430738D01*
X311661Y430571D01*
X311691Y430402D01*
X311717Y430234D01*
X311739Y430064D01*
X311756Y429894D01*
X310544Y429894D01*
X310526Y430043D01*
X310503Y430192D01*
X310477Y430341D01*
X310447Y430489D01*
X310413Y430635D01*
X310375Y430781D01*
X310334Y430926D01*
X310288Y431070D01*
X310239Y431213D01*
X310186Y431354D01*
X310130Y431494D01*
X310070Y431632D01*
X310006Y431769D01*
X309939Y431904D01*
X309868Y432037D01*
X309794Y432168D01*
X309717Y432297D01*
X309636Y432424D01*
X309551Y432549D01*
X309464Y432672D01*
X309373Y432793D01*
X309280Y432911D01*
X309183Y433027D01*
X309083Y433140D01*
X308981Y433250D01*
X308875Y433358D01*
X308767Y433463D01*
X308656Y433565D01*
X308542Y433664D01*
X308426Y433760D01*
X308307Y433853D01*
X308186Y433943D01*
X308063Y434030D01*
X307938Y434113D01*
X307810Y434193D01*
X307680Y434270D01*
X307549Y434344D01*
X307415Y434413D01*
X307280Y434480D01*
X307143Y434543D01*
X307004Y434602D01*
X306864Y434658D01*
X306723Y434710D01*
X306580Y434758D01*
X306436Y434803D01*
X306291Y434843D01*
X306144Y434880D01*
X305997Y434914D01*
X305849Y434943D01*
X305701Y434968D01*
X305552Y434990D01*
X305402Y435008D01*
X305252Y435021D01*
X305101Y435031D01*
X304951Y435037D01*
X304800Y435039D01*
X304649Y435037D01*
X304499Y435031D01*
X304348Y435021D01*
X304198Y435008D01*
X304048Y434990D01*
X303899Y434968D01*
X303751Y434943D01*
X303603Y434914D01*
X303456Y434880D01*
X303309Y434843D01*
X303164Y434803D01*
X303020Y434758D01*
X302877Y434710D01*
X302736Y434658D01*
X302596Y434602D01*
X302457Y434543D01*
X302320Y434480D01*
X302185Y434413D01*
X302051Y434344D01*
X301920Y434270D01*
X301790Y434193D01*
X301662Y434113D01*
X301537Y434030D01*
X301414Y433943D01*
X301293Y433853D01*
X301174Y433760D01*
X301058Y433664D01*
X300944Y433565D01*
X300833Y433463D01*
X300725Y433358D01*
X300619Y433250D01*
X300517Y433140D01*
X300417Y433027D01*
X300320Y432911D01*
X300227Y432793D01*
X300136Y432672D01*
X300049Y432549D01*
X299964Y432424D01*
X299883Y432297D01*
X299806Y432168D01*
X299732Y432037D01*
X299661Y431904D01*
X299594Y431769D01*
X299530Y431632D01*
X299470Y431494D01*
X299414Y431354D01*
X299361Y431213D01*
X299312Y431070D01*
X299266Y430926D01*
X299225Y430781D01*
X299187Y430635D01*
X299153Y430489D01*
X299123Y430341D01*
X299097Y430192D01*
X299074Y430043D01*
X299056Y429894D01*
X300271Y429893D01*
X300291Y430025D01*
X300316Y430156D01*
X300344Y430287D01*
X300376Y430417D01*
X300411Y430546D01*
X300451Y430673D01*
X300494Y430800D01*
X300541Y430925D01*
X300591Y431049D01*
X300645Y431171D01*
X300703Y431291D01*
X300764Y431410D01*
X300829Y431527D01*
X300897Y431642D01*
X300968Y431755D01*
X301042Y431866D01*
X301120Y431975D01*
X301201Y432081D01*
X301285Y432185D01*
X301372Y432287D01*
X301462Y432386D01*
X301555Y432482D01*
X301650Y432575D01*
X301748Y432666D01*
X301849Y432754D01*
X301953Y432838D01*
X302058Y432920D01*
X302166Y432999D01*
X302277Y433074D01*
X302389Y433146D01*
X302504Y433215D01*
X302620Y433280D01*
X302739Y433342D01*
X302859Y433401D01*
X302981Y433456D01*
X303104Y433507D01*
X303229Y433555D01*
X303355Y433599D01*
X303483Y433639D01*
X303611Y433676D01*
X303741Y433709D01*
X303871Y433738D01*
X304002Y433763D01*
X304134Y433784D01*
X304267Y433802D01*
X304400Y433815D01*
X304533Y433825D01*
X304666Y433831D01*
X304800Y433833D01*
X304934Y433831D01*
X305067Y433825D01*
X305200Y433815D01*
X305333Y433802D01*
X305466Y433784D01*
X305598Y433763D01*
X305729Y433738D01*
X305859Y433709D01*
X305989Y433676D01*
X306117Y433639D01*
X306245Y433599D01*
X306371Y433555D01*
X306496Y433507D01*
X306619Y433456D01*
X306741Y433401D01*
X306861Y433342D01*
X306980Y433280D01*
X307096Y433215D01*
X307211Y433146D01*
X307323Y433074D01*
X307434Y432999D01*
X307542Y432920D01*
X307647Y432838D01*
X307751Y432754D01*
X307852Y432666D01*
X307950Y432575D01*
X308045Y432482D01*
X308138Y432386D01*
X308228Y432287D01*
X308315Y432185D01*
X308399Y432081D01*
X308480Y431975D01*
X308558Y431866D01*
X308632Y431755D01*
X308703Y431642D01*
X308771Y431527D01*
X308836Y431410D01*
X308897Y431291D01*
X308955Y431171D01*
X309009Y431049D01*
X309059Y430925D01*
X309106Y430800D01*
X309149Y430673D01*
X309189Y430546D01*
X309224Y430417D01*
X309256Y430287D01*
X309284Y430156D01*
X309309Y430025D01*
X309329Y429893D01*
X308107Y429891D01*
X308084Y430004D01*
X308057Y430115D01*
X308025Y430226D01*
X307991Y430335D01*
X307952Y430444D01*
X307910Y430551D01*
X307864Y430656D01*
X307815Y430760D01*
X307762Y430862D01*
X307705Y430962D01*
X307646Y431060D01*
X307582Y431156D01*
X307516Y431250D01*
X307447Y431341D01*
X307374Y431430D01*
X307299Y431517D01*
X307220Y431601D01*
X307139Y431682D01*
X307055Y431761D01*
X306968Y431836D01*
X306879Y431909D01*
X306787Y431978D01*
X306693Y432044D01*
X306597Y432107D01*
X306499Y432167D01*
X306399Y432223D01*
X306297Y432276D01*
X306193Y432325D01*
X306088Y432371D01*
X305981Y432413D01*
X305873Y432452D01*
X305763Y432486D01*
X305652Y432517D01*
X305541Y432544D01*
X305428Y432568D01*
X305315Y432587D01*
X305201Y432603D01*
X305087Y432615D01*
X304972Y432623D01*
X304857Y432627D01*
X304743Y432627D01*
X304628Y432623D01*
X304513Y432615D01*
X304399Y432603D01*
X304285Y432587D01*
X304172Y432568D01*
X304059Y432544D01*
X303948Y432517D01*
X303837Y432486D01*
X303727Y432452D01*
X303619Y432413D01*
X303512Y432371D01*
X303407Y432325D01*
X303303Y432276D01*
X303201Y432223D01*
X303101Y432167D01*
X303003Y432107D01*
X302907Y432044D01*
X302813Y431978D01*
X302721Y431909D01*
X302632Y431836D01*
X302545Y431761D01*
X302461Y431682D01*
X302380Y431601D01*
X302301Y431517D01*
X302226Y431430D01*
X302153Y431341D01*
X302084Y431250D01*
X302018Y431156D01*
X301954Y431060D01*
X301895Y430962D01*
X301838Y430862D01*
X301785Y430760D01*
X301736Y430656D01*
X301690Y430551D01*
X301648Y430444D01*
X301609Y430335D01*
X301575Y430226D01*
X301543Y430115D01*
X301516Y430004D01*
X301493Y429891D01*
X302732Y429886D01*
X302760Y429973D01*
X302792Y430060D01*
X302828Y430144D01*
X302868Y430227D01*
X302910Y430309D01*
X302957Y430388D01*
X303007Y430466D01*
X303059Y430541D01*
X303116Y430614D01*
X303175Y430684D01*
X303237Y430752D01*
X303302Y430817D01*
X303369Y430880D01*
X303439Y430939D01*
X303512Y430995D01*
X303587Y431049D01*
X303664Y431099D01*
X303744Y431145D01*
X303825Y431188D01*
X303908Y431228D01*
X303992Y431264D01*
X304078Y431297D01*
X304166Y431326D01*
X304254Y431351D01*
X304344Y431372D01*
X304434Y431390D01*
X304525Y431403D01*
X304616Y431413D01*
X304708Y431419D01*
X304800Y431421D01*
X304892Y431419D01*
X304984Y431413D01*
X305075Y431403D01*
X305166Y431390D01*
X305256Y431372D01*
X305346Y431351D01*
X305434Y431326D01*
X305522Y431297D01*
X305608Y431264D01*
X305692Y431228D01*
X305775Y431188D01*
X305856Y431145D01*
X305936Y431099D01*
X306013Y431049D01*
X306088Y430995D01*
X306161Y430939D01*
X306231Y430880D01*
X306298Y430817D01*
X306363Y430752D01*
X306425Y430684D01*
X306484Y430614D01*
X306541Y430541D01*
X306593Y430466D01*
X306643Y430388D01*
X306690Y430309D01*
X306732Y430227D01*
X306772Y430144D01*
X306808Y430060D01*
X306840Y429973D01*
X306868Y429886D01*
X305552Y429849D01*
X305513Y429895D01*
X305472Y429938D01*
X305429Y429979D01*
X305382Y430017D01*
X305334Y430052D01*
X305284Y430083D01*
X305231Y430112D01*
X305177Y430137D01*
X305122Y430159D01*
X305065Y430178D01*
X305007Y430192D01*
X304949Y430203D01*
X304889Y430211D01*
X304830Y430215D01*
X304770Y430215D01*
X304711Y430211D01*
X304651Y430203D01*
X304593Y430192D01*
X304535Y430178D01*
X304478Y430159D01*
X304423Y430137D01*
X304369Y430112D01*
X304316Y430083D01*
X304266Y430052D01*
X304218Y430017D01*
X304171Y429979D01*
X304128Y429938D01*
X304087Y429895D01*
X304048Y429849D01*
X297844Y408306D02*
X304800Y408939D01*
X304800Y408939D01*
X311756Y408306D01*
X311739Y408136D01*
X311717Y407966D01*
X311691Y407798D01*
X311661Y407629D01*
X311627Y407462D01*
X311589Y407295D01*
X311546Y407130D01*
X311500Y406965D01*
X311450Y406802D01*
X311396Y406640D01*
X311337Y406479D01*
X311275Y406320D01*
X311209Y406163D01*
X311139Y406007D01*
X311066Y405853D01*
X310988Y405700D01*
X310907Y405550D01*
X310822Y405402D01*
X310734Y405255D01*
X310642Y405111D01*
X310547Y404970D01*
X310448Y404830D01*
X310346Y404693D01*
X310240Y404559D01*
X310131Y404427D01*
X310019Y404298D01*
X309904Y404172D01*
X309786Y404048D01*
X309665Y403928D01*
X309541Y403810D01*
X309414Y403696D01*
X309285Y403585D01*
X309152Y403477D01*
X309017Y403372D01*
X308880Y403270D01*
X308740Y403172D01*
X308598Y403078D01*
X308453Y402986D01*
X308306Y402899D01*
X308158Y402815D01*
X308007Y402735D01*
X307854Y402658D01*
X307700Y402585D01*
X307543Y402516D01*
X307385Y402451D01*
X307226Y402390D01*
X307065Y402332D01*
X306903Y402279D01*
X306739Y402230D01*
X306574Y402184D01*
X306409Y402143D01*
X306242Y402105D01*
X306074Y402072D01*
X305906Y402043D01*
X305737Y402018D01*
X305567Y401997D01*
X305397Y401981D01*
X305227Y401968D01*
X305056Y401960D01*
X304885Y401956D01*
X304715Y401956D01*
X304544Y401960D01*
X304373Y401968D01*
X304203Y401981D01*
X304033Y401997D01*
X303863Y402018D01*
X303694Y402043D01*
X303526Y402072D01*
X303358Y402105D01*
X303191Y402143D01*
X303026Y402184D01*
X302861Y402230D01*
X302697Y402279D01*
X302535Y402332D01*
X302374Y402390D01*
X302215Y402451D01*
X302057Y402516D01*
X301900Y402585D01*
X301746Y402658D01*
X301593Y402735D01*
X301442Y402815D01*
X301294Y402899D01*
X301147Y402986D01*
X301002Y403078D01*
X300860Y403172D01*
X300720Y403270D01*
X300583Y403372D01*
X300448Y403477D01*
X300315Y403585D01*
X300186Y403696D01*
X300059Y403810D01*
X299935Y403928D01*
X299814Y404048D01*
X299696Y404172D01*
X299581Y404298D01*
X299469Y404427D01*
X299360Y404559D01*
X299254Y404693D01*
X299152Y404830D01*
X299053Y404970D01*
X298958Y405111D01*
X298866Y405255D01*
X298778Y405402D01*
X298693Y405550D01*
X298612Y405700D01*
X298534Y405853D01*
X298461Y406007D01*
X298391Y406163D01*
X298325Y406320D01*
X298263Y406479D01*
X298204Y406640D01*
X298150Y406802D01*
X298100Y406965D01*
X298054Y407130D01*
X298011Y407295D01*
X297973Y407462D01*
X297939Y407629D01*
X297909Y407798D01*
X297883Y407966D01*
X297861Y408136D01*
X297844Y408306D01*
X299056Y408306D01*
X299074Y408157D01*
X299097Y408008D01*
X299123Y407859D01*
X299153Y407711D01*
X299187Y407565D01*
X299225Y407419D01*
X299266Y407274D01*
X299312Y407130D01*
X299361Y406987D01*
X299414Y406846D01*
X299470Y406706D01*
X299530Y406568D01*
X299594Y406431D01*
X299661Y406296D01*
X299732Y406163D01*
X299806Y406032D01*
X299883Y405903D01*
X299964Y405776D01*
X300049Y405651D01*
X300136Y405528D01*
X300227Y405407D01*
X300320Y405289D01*
X300417Y405173D01*
X300517Y405060D01*
X300619Y404950D01*
X300725Y404842D01*
X300833Y404737D01*
X300944Y404635D01*
X301058Y404536D01*
X301174Y404440D01*
X301293Y404347D01*
X301414Y404257D01*
X301537Y404170D01*
X301662Y404087D01*
X301790Y404007D01*
X301920Y403930D01*
X302051Y403856D01*
X302185Y403787D01*
X302320Y403720D01*
X302457Y403657D01*
X302596Y403598D01*
X302736Y403542D01*
X302877Y403490D01*
X303020Y403442D01*
X303164Y403397D01*
X303309Y403357D01*
X303456Y403320D01*
X303603Y403286D01*
X303751Y403257D01*
X303899Y403232D01*
X304048Y403210D01*
X304198Y403192D01*
X304348Y403179D01*
X304499Y403169D01*
X304649Y403163D01*
X304800Y403161D01*
X304951Y403163D01*
X305101Y403169D01*
X305252Y403179D01*
X305402Y403192D01*
X305552Y403210D01*
X305701Y403232D01*
X305849Y403257D01*
X305997Y403286D01*
X306144Y403320D01*
X306291Y403357D01*
X306436Y403397D01*
X306580Y403442D01*
X306723Y403490D01*
X306864Y403542D01*
X307004Y403598D01*
X307143Y403657D01*
X307280Y403720D01*
X307415Y403787D01*
X307549Y403856D01*
X307680Y403930D01*
X307810Y404007D01*
X307938Y404087D01*
X308063Y404170D01*
X308186Y404257D01*
X308307Y404347D01*
X308426Y404440D01*
X308542Y404536D01*
X308656Y404635D01*
X308767Y404737D01*
X308875Y404842D01*
X308981Y404950D01*
X309083Y405060D01*
X309183Y405173D01*
X309280Y405289D01*
X309373Y405407D01*
X309464Y405528D01*
X309551Y405651D01*
X309636Y405776D01*
X309717Y405903D01*
X309794Y406032D01*
X309868Y406163D01*
X309939Y406296D01*
X310006Y406431D01*
X310070Y406568D01*
X310130Y406706D01*
X310186Y406846D01*
X310239Y406987D01*
X310288Y407130D01*
X310334Y407274D01*
X310375Y407419D01*
X310413Y407565D01*
X310447Y407711D01*
X310477Y407859D01*
X310503Y408008D01*
X310526Y408157D01*
X310544Y408306D01*
X309329Y408307D01*
X309309Y408175D01*
X309284Y408044D01*
X309256Y407913D01*
X309224Y407783D01*
X309189Y407654D01*
X309149Y407527D01*
X309106Y407400D01*
X309059Y407275D01*
X309009Y407151D01*
X308955Y407029D01*
X308897Y406909D01*
X308836Y406790D01*
X308771Y406673D01*
X308703Y406558D01*
X308632Y406445D01*
X308558Y406334D01*
X308480Y406225D01*
X308399Y406119D01*
X308315Y406015D01*
X308228Y405913D01*
X308138Y405814D01*
X308045Y405718D01*
X307950Y405625D01*
X307852Y405534D01*
X307751Y405446D01*
X307647Y405362D01*
X307542Y405280D01*
X307434Y405201D01*
X307323Y405126D01*
X307211Y405054D01*
X307096Y404985D01*
X306980Y404920D01*
X306861Y404858D01*
X306741Y404799D01*
X306619Y404744D01*
X306496Y404693D01*
X306371Y404645D01*
X306245Y404601D01*
X306117Y404561D01*
X305989Y404524D01*
X305859Y404491D01*
X305729Y404462D01*
X305598Y404437D01*
X305466Y404416D01*
X305333Y404398D01*
X305200Y404385D01*
X305067Y404375D01*
X304934Y404369D01*
X304800Y404367D01*
X304666Y404369D01*
X304533Y404375D01*
X304400Y404385D01*
X304267Y404398D01*
X304134Y404416D01*
X304002Y404437D01*
X303871Y404462D01*
X303741Y404491D01*
X303611Y404524D01*
X303483Y404561D01*
X303355Y404601D01*
X303229Y404645D01*
X303104Y404693D01*
X302981Y404744D01*
X302859Y404799D01*
X302739Y404858D01*
X302620Y404920D01*
X302504Y404985D01*
X302389Y405054D01*
X302277Y405126D01*
X302166Y405201D01*
X302058Y405280D01*
X301953Y405362D01*
X301849Y405446D01*
X301748Y405534D01*
X301650Y405625D01*
X301555Y405718D01*
X301462Y405814D01*
X301372Y405913D01*
X301285Y406015D01*
X301201Y406119D01*
X301120Y406225D01*
X301042Y406334D01*
X300968Y406445D01*
X300897Y406558D01*
X300829Y406673D01*
X300764Y406790D01*
X300703Y406909D01*
X300645Y407029D01*
X300591Y407151D01*
X300541Y407275D01*
X300494Y407400D01*
X300451Y407527D01*
X300411Y407654D01*
X300376Y407783D01*
X300344Y407913D01*
X300316Y408044D01*
X300291Y408175D01*
X300271Y408307D01*
X301493Y408309D01*
X301516Y408196D01*
X301543Y408085D01*
X301575Y407974D01*
X301609Y407865D01*
X301648Y407756D01*
X301690Y407649D01*
X301736Y407544D01*
X301785Y407440D01*
X301838Y407338D01*
X301895Y407238D01*
X301954Y407140D01*
X302018Y407044D01*
X302084Y406950D01*
X302153Y406859D01*
X302226Y406770D01*
X302301Y406683D01*
X302380Y406599D01*
X302461Y406518D01*
X302545Y406439D01*
X302632Y406364D01*
X302721Y406291D01*
X302813Y406222D01*
X302907Y406156D01*
X303003Y406093D01*
X303101Y406033D01*
X303201Y405977D01*
X303303Y405924D01*
X303407Y405875D01*
X303512Y405829D01*
X303619Y405787D01*
X303727Y405748D01*
X303837Y405714D01*
X303948Y405683D01*
X304059Y405656D01*
X304172Y405632D01*
X304285Y405613D01*
X304399Y405597D01*
X304513Y405585D01*
X304628Y405577D01*
X304743Y405573D01*
X304857Y405573D01*
X304972Y405577D01*
X305087Y405585D01*
X305201Y405597D01*
X305315Y405613D01*
X305428Y405632D01*
X305541Y405656D01*
X305652Y405683D01*
X305763Y405714D01*
X305873Y405748D01*
X305981Y405787D01*
X306088Y405829D01*
X306193Y405875D01*
X306297Y405924D01*
X306399Y405977D01*
X306499Y406033D01*
X306597Y406093D01*
X306693Y406156D01*
X306787Y406222D01*
X306879Y406291D01*
X306968Y406364D01*
X307055Y406439D01*
X307139Y406518D01*
X307220Y406599D01*
X307299Y406683D01*
X307374Y406770D01*
X307447Y406859D01*
X307516Y406950D01*
X307582Y407044D01*
X307646Y407140D01*
X307705Y407238D01*
X307762Y407338D01*
X307815Y407440D01*
X307864Y407544D01*
X307910Y407649D01*
X307952Y407756D01*
X307991Y407865D01*
X308025Y407974D01*
X308057Y408085D01*
X308084Y408196D01*
X308107Y408309D01*
X306868Y408314D01*
X306840Y408227D01*
X306808Y408140D01*
X306772Y408056D01*
X306732Y407973D01*
X306690Y407891D01*
X306643Y407812D01*
X306593Y407734D01*
X306541Y407659D01*
X306484Y407586D01*
X306425Y407516D01*
X306363Y407448D01*
X306298Y407383D01*
X306231Y407320D01*
X306161Y407261D01*
X306088Y407205D01*
X306013Y407151D01*
X305936Y407101D01*
X305856Y407055D01*
X305775Y407012D01*
X305692Y406972D01*
X305608Y406936D01*
X305522Y406903D01*
X305434Y406874D01*
X305346Y406849D01*
X305256Y406828D01*
X305166Y406810D01*
X305075Y406797D01*
X304984Y406787D01*
X304892Y406781D01*
X304800Y406779D01*
X304708Y406781D01*
X304616Y406787D01*
X304525Y406797D01*
X304434Y406810D01*
X304344Y406828D01*
X304254Y406849D01*
X304166Y406874D01*
X304078Y406903D01*
X303992Y406936D01*
X303908Y406972D01*
X303825Y407012D01*
X303744Y407055D01*
X303664Y407101D01*
X303587Y407151D01*
X303512Y407205D01*
X303439Y407261D01*
X303369Y407320D01*
X303302Y407383D01*
X303237Y407448D01*
X303175Y407516D01*
X303116Y407586D01*
X303059Y407659D01*
X303007Y407734D01*
X302957Y407812D01*
X302910Y407891D01*
X302868Y407973D01*
X302828Y408056D01*
X302792Y408140D01*
X302760Y408227D01*
X302732Y408314D01*
X304048Y408351D01*
X304087Y408305D01*
X304128Y408262D01*
X304171Y408221D01*
X304218Y408183D01*
X304266Y408148D01*
X304316Y408117D01*
X304369Y408088D01*
X304423Y408063D01*
X304478Y408041D01*
X304535Y408022D01*
X304593Y408008D01*
X304651Y407997D01*
X304711Y407989D01*
X304770Y407985D01*
X304830Y407985D01*
X304889Y407989D01*
X304949Y407997D01*
X305007Y408008D01*
X305065Y408022D01*
X305122Y408041D01*
X305177Y408063D01*
X305231Y408088D01*
X305284Y408117D01*
X305334Y408148D01*
X305382Y408183D01*
X305429Y408221D01*
X305472Y408262D01*
X305513Y408305D01*
X305552Y408351D01*
D13*
X304800Y419100D03*
D12*
X293378Y401962D02*
X295285Y400055D01*
X295285Y396242D01*
X293378Y394335D01*
X285752Y394335D01*
X283845Y396242D01*
X283845Y400055D01*
X285752Y401962D01*
X289565Y401962D01*
X289565Y398148D01*
X283845Y411749D02*
X295285Y411749D01*
X289565Y406029D01*
X289565Y413655D01*
X283845Y417723D02*
X295285Y417723D01*
X295285Y423443D01*
X293378Y425349D01*
X291472Y425349D01*
X289565Y423443D01*
X287658Y425349D01*
X285752Y425349D01*
X283845Y423443D01*
X283845Y417723D01*
X289565Y417723D02*
X289565Y423443D01*
X293378Y429417D02*
X295285Y429417D01*
X293378Y429417D02*
X289565Y433230D01*
X293378Y437043D01*
X295285Y437043D01*
X289565Y433230D02*
X283845Y433230D01*
X283845Y441111D02*
X295285Y441111D01*
X295285Y446831D01*
X293378Y448737D01*
X289565Y448737D01*
X287658Y446831D01*
X287658Y441111D01*
D11*
X447040Y440690D02*
X447040Y397510D01*
X467360Y440690D02*
X467358Y440790D01*
X467352Y440889D01*
X467342Y440989D01*
X467329Y441087D01*
X467311Y441186D01*
X467290Y441283D01*
X467265Y441379D01*
X467236Y441475D01*
X467203Y441569D01*
X467167Y441662D01*
X467127Y441753D01*
X467083Y441843D01*
X467036Y441931D01*
X466986Y442017D01*
X466932Y442101D01*
X466875Y442183D01*
X466815Y442262D01*
X466751Y442340D01*
X466685Y442414D01*
X466616Y442486D01*
X466544Y442555D01*
X466470Y442621D01*
X466392Y442685D01*
X466313Y442745D01*
X466231Y442802D01*
X466147Y442856D01*
X466061Y442906D01*
X465973Y442953D01*
X465883Y442997D01*
X465792Y443037D01*
X465699Y443073D01*
X465605Y443106D01*
X465509Y443135D01*
X465413Y443160D01*
X465316Y443181D01*
X465217Y443199D01*
X465119Y443212D01*
X465019Y443222D01*
X464920Y443228D01*
X464820Y443230D01*
X467360Y397510D02*
X467358Y397410D01*
X467352Y397311D01*
X467342Y397211D01*
X467329Y397113D01*
X467311Y397014D01*
X467290Y396917D01*
X467265Y396821D01*
X467236Y396725D01*
X467203Y396631D01*
X467167Y396538D01*
X467127Y396447D01*
X467083Y396357D01*
X467036Y396269D01*
X466986Y396183D01*
X466932Y396099D01*
X466875Y396017D01*
X466815Y395938D01*
X466751Y395860D01*
X466685Y395786D01*
X466616Y395714D01*
X466544Y395645D01*
X466470Y395579D01*
X466392Y395515D01*
X466313Y395455D01*
X466231Y395398D01*
X466147Y395344D01*
X466061Y395294D01*
X465973Y395247D01*
X465883Y395203D01*
X465792Y395163D01*
X465699Y395127D01*
X465605Y395094D01*
X465509Y395065D01*
X465413Y395040D01*
X465316Y395019D01*
X465217Y395001D01*
X465119Y394988D01*
X465019Y394978D01*
X464920Y394972D01*
X464820Y394970D01*
X449580Y394970D02*
X449480Y394972D01*
X449381Y394978D01*
X449281Y394988D01*
X449183Y395001D01*
X449084Y395019D01*
X448987Y395040D01*
X448891Y395065D01*
X448795Y395094D01*
X448701Y395127D01*
X448608Y395163D01*
X448517Y395203D01*
X448427Y395247D01*
X448339Y395294D01*
X448253Y395344D01*
X448169Y395398D01*
X448087Y395455D01*
X448008Y395515D01*
X447930Y395579D01*
X447856Y395645D01*
X447784Y395714D01*
X447715Y395786D01*
X447649Y395860D01*
X447585Y395938D01*
X447525Y396017D01*
X447468Y396099D01*
X447414Y396183D01*
X447364Y396269D01*
X447317Y396357D01*
X447273Y396447D01*
X447233Y396538D01*
X447197Y396631D01*
X447164Y396725D01*
X447135Y396821D01*
X447110Y396917D01*
X447089Y397014D01*
X447071Y397113D01*
X447058Y397211D01*
X447048Y397311D01*
X447042Y397410D01*
X447040Y397510D01*
X447040Y440690D02*
X447042Y440790D01*
X447048Y440889D01*
X447058Y440989D01*
X447071Y441087D01*
X447089Y441186D01*
X447110Y441283D01*
X447135Y441379D01*
X447164Y441475D01*
X447197Y441569D01*
X447233Y441662D01*
X447273Y441753D01*
X447317Y441843D01*
X447364Y441931D01*
X447414Y442017D01*
X447468Y442101D01*
X447525Y442183D01*
X447585Y442262D01*
X447649Y442340D01*
X447715Y442414D01*
X447784Y442486D01*
X447856Y442555D01*
X447930Y442621D01*
X448008Y442685D01*
X448087Y442745D01*
X448169Y442802D01*
X448253Y442856D01*
X448339Y442906D01*
X448427Y442953D01*
X448517Y442997D01*
X448608Y443037D01*
X448701Y443073D01*
X448795Y443106D01*
X448891Y443135D01*
X448987Y443160D01*
X449084Y443181D01*
X449183Y443199D01*
X449281Y443212D01*
X449381Y443222D01*
X449480Y443228D01*
X449580Y443230D01*
X464820Y443230D01*
X464820Y394970D02*
X449580Y394970D01*
X467360Y397510D02*
X467360Y440690D01*
X457200Y441960D02*
X457200Y436880D01*
X457200Y401320D02*
X457200Y396240D01*
X464820Y419100D02*
X467360Y419100D01*
X449580Y419100D02*
X447040Y419100D01*
D12*
X464156Y429894D02*
X457200Y429261D01*
X457200Y429261D01*
X450244Y429894D01*
X450261Y430064D01*
X450283Y430234D01*
X450309Y430402D01*
X450339Y430571D01*
X450373Y430738D01*
X450411Y430905D01*
X450454Y431070D01*
X450500Y431235D01*
X450550Y431398D01*
X450604Y431560D01*
X450663Y431721D01*
X450725Y431880D01*
X450791Y432037D01*
X450861Y432193D01*
X450934Y432347D01*
X451012Y432500D01*
X451093Y432650D01*
X451178Y432798D01*
X451266Y432945D01*
X451358Y433089D01*
X451453Y433230D01*
X451552Y433370D01*
X451654Y433507D01*
X451760Y433641D01*
X451869Y433773D01*
X451981Y433902D01*
X452096Y434028D01*
X452214Y434152D01*
X452335Y434272D01*
X452459Y434390D01*
X452586Y434504D01*
X452715Y434615D01*
X452848Y434723D01*
X452983Y434828D01*
X453120Y434930D01*
X453260Y435028D01*
X453402Y435122D01*
X453547Y435214D01*
X453694Y435301D01*
X453842Y435385D01*
X453993Y435465D01*
X454146Y435542D01*
X454300Y435615D01*
X454457Y435684D01*
X454615Y435749D01*
X454774Y435810D01*
X454935Y435868D01*
X455097Y435921D01*
X455261Y435970D01*
X455426Y436016D01*
X455591Y436057D01*
X455758Y436095D01*
X455926Y436128D01*
X456094Y436157D01*
X456263Y436182D01*
X456433Y436203D01*
X456603Y436219D01*
X456773Y436232D01*
X456944Y436240D01*
X457115Y436244D01*
X457285Y436244D01*
X457456Y436240D01*
X457627Y436232D01*
X457797Y436219D01*
X457967Y436203D01*
X458137Y436182D01*
X458306Y436157D01*
X458474Y436128D01*
X458642Y436095D01*
X458809Y436057D01*
X458974Y436016D01*
X459139Y435970D01*
X459303Y435921D01*
X459465Y435868D01*
X459626Y435810D01*
X459785Y435749D01*
X459943Y435684D01*
X460100Y435615D01*
X460254Y435542D01*
X460407Y435465D01*
X460558Y435385D01*
X460706Y435301D01*
X460853Y435214D01*
X460998Y435122D01*
X461140Y435028D01*
X461280Y434930D01*
X461417Y434828D01*
X461552Y434723D01*
X461685Y434615D01*
X461814Y434504D01*
X461941Y434390D01*
X462065Y434272D01*
X462186Y434152D01*
X462304Y434028D01*
X462419Y433902D01*
X462531Y433773D01*
X462640Y433641D01*
X462746Y433507D01*
X462848Y433370D01*
X462947Y433230D01*
X463042Y433089D01*
X463134Y432945D01*
X463222Y432798D01*
X463307Y432650D01*
X463388Y432500D01*
X463466Y432347D01*
X463539Y432193D01*
X463609Y432037D01*
X463675Y431880D01*
X463737Y431721D01*
X463796Y431560D01*
X463850Y431398D01*
X463900Y431235D01*
X463946Y431070D01*
X463989Y430905D01*
X464027Y430738D01*
X464061Y430571D01*
X464091Y430402D01*
X464117Y430234D01*
X464139Y430064D01*
X464156Y429894D01*
X462944Y429894D01*
X462926Y430043D01*
X462903Y430192D01*
X462877Y430341D01*
X462847Y430489D01*
X462813Y430635D01*
X462775Y430781D01*
X462734Y430926D01*
X462688Y431070D01*
X462639Y431213D01*
X462586Y431354D01*
X462530Y431494D01*
X462470Y431632D01*
X462406Y431769D01*
X462339Y431904D01*
X462268Y432037D01*
X462194Y432168D01*
X462117Y432297D01*
X462036Y432424D01*
X461951Y432549D01*
X461864Y432672D01*
X461773Y432793D01*
X461680Y432911D01*
X461583Y433027D01*
X461483Y433140D01*
X461381Y433250D01*
X461275Y433358D01*
X461167Y433463D01*
X461056Y433565D01*
X460942Y433664D01*
X460826Y433760D01*
X460707Y433853D01*
X460586Y433943D01*
X460463Y434030D01*
X460338Y434113D01*
X460210Y434193D01*
X460080Y434270D01*
X459949Y434344D01*
X459815Y434413D01*
X459680Y434480D01*
X459543Y434543D01*
X459404Y434602D01*
X459264Y434658D01*
X459123Y434710D01*
X458980Y434758D01*
X458836Y434803D01*
X458691Y434843D01*
X458544Y434880D01*
X458397Y434914D01*
X458249Y434943D01*
X458101Y434968D01*
X457952Y434990D01*
X457802Y435008D01*
X457652Y435021D01*
X457501Y435031D01*
X457351Y435037D01*
X457200Y435039D01*
X457049Y435037D01*
X456899Y435031D01*
X456748Y435021D01*
X456598Y435008D01*
X456448Y434990D01*
X456299Y434968D01*
X456151Y434943D01*
X456003Y434914D01*
X455856Y434880D01*
X455709Y434843D01*
X455564Y434803D01*
X455420Y434758D01*
X455277Y434710D01*
X455136Y434658D01*
X454996Y434602D01*
X454857Y434543D01*
X454720Y434480D01*
X454585Y434413D01*
X454451Y434344D01*
X454320Y434270D01*
X454190Y434193D01*
X454062Y434113D01*
X453937Y434030D01*
X453814Y433943D01*
X453693Y433853D01*
X453574Y433760D01*
X453458Y433664D01*
X453344Y433565D01*
X453233Y433463D01*
X453125Y433358D01*
X453019Y433250D01*
X452917Y433140D01*
X452817Y433027D01*
X452720Y432911D01*
X452627Y432793D01*
X452536Y432672D01*
X452449Y432549D01*
X452364Y432424D01*
X452283Y432297D01*
X452206Y432168D01*
X452132Y432037D01*
X452061Y431904D01*
X451994Y431769D01*
X451930Y431632D01*
X451870Y431494D01*
X451814Y431354D01*
X451761Y431213D01*
X451712Y431070D01*
X451666Y430926D01*
X451625Y430781D01*
X451587Y430635D01*
X451553Y430489D01*
X451523Y430341D01*
X451497Y430192D01*
X451474Y430043D01*
X451456Y429894D01*
X452671Y429893D01*
X452691Y430025D01*
X452716Y430156D01*
X452744Y430287D01*
X452776Y430417D01*
X452811Y430546D01*
X452851Y430673D01*
X452894Y430800D01*
X452941Y430925D01*
X452991Y431049D01*
X453045Y431171D01*
X453103Y431291D01*
X453164Y431410D01*
X453229Y431527D01*
X453297Y431642D01*
X453368Y431755D01*
X453442Y431866D01*
X453520Y431975D01*
X453601Y432081D01*
X453685Y432185D01*
X453772Y432287D01*
X453862Y432386D01*
X453955Y432482D01*
X454050Y432575D01*
X454148Y432666D01*
X454249Y432754D01*
X454353Y432838D01*
X454458Y432920D01*
X454566Y432999D01*
X454677Y433074D01*
X454789Y433146D01*
X454904Y433215D01*
X455020Y433280D01*
X455139Y433342D01*
X455259Y433401D01*
X455381Y433456D01*
X455504Y433507D01*
X455629Y433555D01*
X455755Y433599D01*
X455883Y433639D01*
X456011Y433676D01*
X456141Y433709D01*
X456271Y433738D01*
X456402Y433763D01*
X456534Y433784D01*
X456667Y433802D01*
X456800Y433815D01*
X456933Y433825D01*
X457066Y433831D01*
X457200Y433833D01*
X457334Y433831D01*
X457467Y433825D01*
X457600Y433815D01*
X457733Y433802D01*
X457866Y433784D01*
X457998Y433763D01*
X458129Y433738D01*
X458259Y433709D01*
X458389Y433676D01*
X458517Y433639D01*
X458645Y433599D01*
X458771Y433555D01*
X458896Y433507D01*
X459019Y433456D01*
X459141Y433401D01*
X459261Y433342D01*
X459380Y433280D01*
X459496Y433215D01*
X459611Y433146D01*
X459723Y433074D01*
X459834Y432999D01*
X459942Y432920D01*
X460047Y432838D01*
X460151Y432754D01*
X460252Y432666D01*
X460350Y432575D01*
X460445Y432482D01*
X460538Y432386D01*
X460628Y432287D01*
X460715Y432185D01*
X460799Y432081D01*
X460880Y431975D01*
X460958Y431866D01*
X461032Y431755D01*
X461103Y431642D01*
X461171Y431527D01*
X461236Y431410D01*
X461297Y431291D01*
X461355Y431171D01*
X461409Y431049D01*
X461459Y430925D01*
X461506Y430800D01*
X461549Y430673D01*
X461589Y430546D01*
X461624Y430417D01*
X461656Y430287D01*
X461684Y430156D01*
X461709Y430025D01*
X461729Y429893D01*
X460507Y429891D01*
X460484Y430004D01*
X460457Y430115D01*
X460425Y430226D01*
X460391Y430335D01*
X460352Y430444D01*
X460310Y430551D01*
X460264Y430656D01*
X460215Y430760D01*
X460162Y430862D01*
X460105Y430962D01*
X460046Y431060D01*
X459982Y431156D01*
X459916Y431250D01*
X459847Y431341D01*
X459774Y431430D01*
X459699Y431517D01*
X459620Y431601D01*
X459539Y431682D01*
X459455Y431761D01*
X459368Y431836D01*
X459279Y431909D01*
X459187Y431978D01*
X459093Y432044D01*
X458997Y432107D01*
X458899Y432167D01*
X458799Y432223D01*
X458697Y432276D01*
X458593Y432325D01*
X458488Y432371D01*
X458381Y432413D01*
X458273Y432452D01*
X458163Y432486D01*
X458052Y432517D01*
X457941Y432544D01*
X457828Y432568D01*
X457715Y432587D01*
X457601Y432603D01*
X457487Y432615D01*
X457372Y432623D01*
X457257Y432627D01*
X457143Y432627D01*
X457028Y432623D01*
X456913Y432615D01*
X456799Y432603D01*
X456685Y432587D01*
X456572Y432568D01*
X456459Y432544D01*
X456348Y432517D01*
X456237Y432486D01*
X456127Y432452D01*
X456019Y432413D01*
X455912Y432371D01*
X455807Y432325D01*
X455703Y432276D01*
X455601Y432223D01*
X455501Y432167D01*
X455403Y432107D01*
X455307Y432044D01*
X455213Y431978D01*
X455121Y431909D01*
X455032Y431836D01*
X454945Y431761D01*
X454861Y431682D01*
X454780Y431601D01*
X454701Y431517D01*
X454626Y431430D01*
X454553Y431341D01*
X454484Y431250D01*
X454418Y431156D01*
X454354Y431060D01*
X454295Y430962D01*
X454238Y430862D01*
X454185Y430760D01*
X454136Y430656D01*
X454090Y430551D01*
X454048Y430444D01*
X454009Y430335D01*
X453975Y430226D01*
X453943Y430115D01*
X453916Y430004D01*
X453893Y429891D01*
X455132Y429886D01*
X455160Y429973D01*
X455192Y430060D01*
X455228Y430144D01*
X455268Y430227D01*
X455310Y430309D01*
X455357Y430388D01*
X455407Y430466D01*
X455459Y430541D01*
X455516Y430614D01*
X455575Y430684D01*
X455637Y430752D01*
X455702Y430817D01*
X455769Y430880D01*
X455839Y430939D01*
X455912Y430995D01*
X455987Y431049D01*
X456064Y431099D01*
X456144Y431145D01*
X456225Y431188D01*
X456308Y431228D01*
X456392Y431264D01*
X456478Y431297D01*
X456566Y431326D01*
X456654Y431351D01*
X456744Y431372D01*
X456834Y431390D01*
X456925Y431403D01*
X457016Y431413D01*
X457108Y431419D01*
X457200Y431421D01*
X457292Y431419D01*
X457384Y431413D01*
X457475Y431403D01*
X457566Y431390D01*
X457656Y431372D01*
X457746Y431351D01*
X457834Y431326D01*
X457922Y431297D01*
X458008Y431264D01*
X458092Y431228D01*
X458175Y431188D01*
X458256Y431145D01*
X458336Y431099D01*
X458413Y431049D01*
X458488Y430995D01*
X458561Y430939D01*
X458631Y430880D01*
X458698Y430817D01*
X458763Y430752D01*
X458825Y430684D01*
X458884Y430614D01*
X458941Y430541D01*
X458993Y430466D01*
X459043Y430388D01*
X459090Y430309D01*
X459132Y430227D01*
X459172Y430144D01*
X459208Y430060D01*
X459240Y429973D01*
X459268Y429886D01*
X457952Y429849D01*
X457913Y429895D01*
X457872Y429938D01*
X457829Y429979D01*
X457782Y430017D01*
X457734Y430052D01*
X457684Y430083D01*
X457631Y430112D01*
X457577Y430137D01*
X457522Y430159D01*
X457465Y430178D01*
X457407Y430192D01*
X457349Y430203D01*
X457289Y430211D01*
X457230Y430215D01*
X457170Y430215D01*
X457111Y430211D01*
X457051Y430203D01*
X456993Y430192D01*
X456935Y430178D01*
X456878Y430159D01*
X456823Y430137D01*
X456769Y430112D01*
X456716Y430083D01*
X456666Y430052D01*
X456618Y430017D01*
X456571Y429979D01*
X456528Y429938D01*
X456487Y429895D01*
X456448Y429849D01*
X450244Y408306D02*
X457200Y408939D01*
X457200Y408939D01*
X464156Y408306D01*
X464139Y408136D01*
X464117Y407966D01*
X464091Y407798D01*
X464061Y407629D01*
X464027Y407462D01*
X463989Y407295D01*
X463946Y407130D01*
X463900Y406965D01*
X463850Y406802D01*
X463796Y406640D01*
X463737Y406479D01*
X463675Y406320D01*
X463609Y406163D01*
X463539Y406007D01*
X463466Y405853D01*
X463388Y405700D01*
X463307Y405550D01*
X463222Y405402D01*
X463134Y405255D01*
X463042Y405111D01*
X462947Y404970D01*
X462848Y404830D01*
X462746Y404693D01*
X462640Y404559D01*
X462531Y404427D01*
X462419Y404298D01*
X462304Y404172D01*
X462186Y404048D01*
X462065Y403928D01*
X461941Y403810D01*
X461814Y403696D01*
X461685Y403585D01*
X461552Y403477D01*
X461417Y403372D01*
X461280Y403270D01*
X461140Y403172D01*
X460998Y403078D01*
X460853Y402986D01*
X460706Y402899D01*
X460558Y402815D01*
X460407Y402735D01*
X460254Y402658D01*
X460100Y402585D01*
X459943Y402516D01*
X459785Y402451D01*
X459626Y402390D01*
X459465Y402332D01*
X459303Y402279D01*
X459139Y402230D01*
X458974Y402184D01*
X458809Y402143D01*
X458642Y402105D01*
X458474Y402072D01*
X458306Y402043D01*
X458137Y402018D01*
X457967Y401997D01*
X457797Y401981D01*
X457627Y401968D01*
X457456Y401960D01*
X457285Y401956D01*
X457115Y401956D01*
X456944Y401960D01*
X456773Y401968D01*
X456603Y401981D01*
X456433Y401997D01*
X456263Y402018D01*
X456094Y402043D01*
X455926Y402072D01*
X455758Y402105D01*
X455591Y402143D01*
X455426Y402184D01*
X455261Y402230D01*
X455097Y402279D01*
X454935Y402332D01*
X454774Y402390D01*
X454615Y402451D01*
X454457Y402516D01*
X454300Y402585D01*
X454146Y402658D01*
X453993Y402735D01*
X453842Y402815D01*
X453694Y402899D01*
X453547Y402986D01*
X453402Y403078D01*
X453260Y403172D01*
X453120Y403270D01*
X452983Y403372D01*
X452848Y403477D01*
X452715Y403585D01*
X452586Y403696D01*
X452459Y403810D01*
X452335Y403928D01*
X452214Y404048D01*
X452096Y404172D01*
X451981Y404298D01*
X451869Y404427D01*
X451760Y404559D01*
X451654Y404693D01*
X451552Y404830D01*
X451453Y404970D01*
X451358Y405111D01*
X451266Y405255D01*
X451178Y405402D01*
X451093Y405550D01*
X451012Y405700D01*
X450934Y405853D01*
X450861Y406007D01*
X450791Y406163D01*
X450725Y406320D01*
X450663Y406479D01*
X450604Y406640D01*
X450550Y406802D01*
X450500Y406965D01*
X450454Y407130D01*
X450411Y407295D01*
X450373Y407462D01*
X450339Y407629D01*
X450309Y407798D01*
X450283Y407966D01*
X450261Y408136D01*
X450244Y408306D01*
X451456Y408306D01*
X451474Y408157D01*
X451497Y408008D01*
X451523Y407859D01*
X451553Y407711D01*
X451587Y407565D01*
X451625Y407419D01*
X451666Y407274D01*
X451712Y407130D01*
X451761Y406987D01*
X451814Y406846D01*
X451870Y406706D01*
X451930Y406568D01*
X451994Y406431D01*
X452061Y406296D01*
X452132Y406163D01*
X452206Y406032D01*
X452283Y405903D01*
X452364Y405776D01*
X452449Y405651D01*
X452536Y405528D01*
X452627Y405407D01*
X452720Y405289D01*
X452817Y405173D01*
X452917Y405060D01*
X453019Y404950D01*
X453125Y404842D01*
X453233Y404737D01*
X453344Y404635D01*
X453458Y404536D01*
X453574Y404440D01*
X453693Y404347D01*
X453814Y404257D01*
X453937Y404170D01*
X454062Y404087D01*
X454190Y404007D01*
X454320Y403930D01*
X454451Y403856D01*
X454585Y403787D01*
X454720Y403720D01*
X454857Y403657D01*
X454996Y403598D01*
X455136Y403542D01*
X455277Y403490D01*
X455420Y403442D01*
X455564Y403397D01*
X455709Y403357D01*
X455856Y403320D01*
X456003Y403286D01*
X456151Y403257D01*
X456299Y403232D01*
X456448Y403210D01*
X456598Y403192D01*
X456748Y403179D01*
X456899Y403169D01*
X457049Y403163D01*
X457200Y403161D01*
X457351Y403163D01*
X457501Y403169D01*
X457652Y403179D01*
X457802Y403192D01*
X457952Y403210D01*
X458101Y403232D01*
X458249Y403257D01*
X458397Y403286D01*
X458544Y403320D01*
X458691Y403357D01*
X458836Y403397D01*
X458980Y403442D01*
X459123Y403490D01*
X459264Y403542D01*
X459404Y403598D01*
X459543Y403657D01*
X459680Y403720D01*
X459815Y403787D01*
X459949Y403856D01*
X460080Y403930D01*
X460210Y404007D01*
X460338Y404087D01*
X460463Y404170D01*
X460586Y404257D01*
X460707Y404347D01*
X460826Y404440D01*
X460942Y404536D01*
X461056Y404635D01*
X461167Y404737D01*
X461275Y404842D01*
X461381Y404950D01*
X461483Y405060D01*
X461583Y405173D01*
X461680Y405289D01*
X461773Y405407D01*
X461864Y405528D01*
X461951Y405651D01*
X462036Y405776D01*
X462117Y405903D01*
X462194Y406032D01*
X462268Y406163D01*
X462339Y406296D01*
X462406Y406431D01*
X462470Y406568D01*
X462530Y406706D01*
X462586Y406846D01*
X462639Y406987D01*
X462688Y407130D01*
X462734Y407274D01*
X462775Y407419D01*
X462813Y407565D01*
X462847Y407711D01*
X462877Y407859D01*
X462903Y408008D01*
X462926Y408157D01*
X462944Y408306D01*
X461729Y408307D01*
X461709Y408175D01*
X461684Y408044D01*
X461656Y407913D01*
X461624Y407783D01*
X461589Y407654D01*
X461549Y407527D01*
X461506Y407400D01*
X461459Y407275D01*
X461409Y407151D01*
X461355Y407029D01*
X461297Y406909D01*
X461236Y406790D01*
X461171Y406673D01*
X461103Y406558D01*
X461032Y406445D01*
X460958Y406334D01*
X460880Y406225D01*
X460799Y406119D01*
X460715Y406015D01*
X460628Y405913D01*
X460538Y405814D01*
X460445Y405718D01*
X460350Y405625D01*
X460252Y405534D01*
X460151Y405446D01*
X460047Y405362D01*
X459942Y405280D01*
X459834Y405201D01*
X459723Y405126D01*
X459611Y405054D01*
X459496Y404985D01*
X459380Y404920D01*
X459261Y404858D01*
X459141Y404799D01*
X459019Y404744D01*
X458896Y404693D01*
X458771Y404645D01*
X458645Y404601D01*
X458517Y404561D01*
X458389Y404524D01*
X458259Y404491D01*
X458129Y404462D01*
X457998Y404437D01*
X457866Y404416D01*
X457733Y404398D01*
X457600Y404385D01*
X457467Y404375D01*
X457334Y404369D01*
X457200Y404367D01*
X457066Y404369D01*
X456933Y404375D01*
X456800Y404385D01*
X456667Y404398D01*
X456534Y404416D01*
X456402Y404437D01*
X456271Y404462D01*
X456141Y404491D01*
X456011Y404524D01*
X455883Y404561D01*
X455755Y404601D01*
X455629Y404645D01*
X455504Y404693D01*
X455381Y404744D01*
X455259Y404799D01*
X455139Y404858D01*
X455020Y404920D01*
X454904Y404985D01*
X454789Y405054D01*
X454677Y405126D01*
X454566Y405201D01*
X454458Y405280D01*
X454353Y405362D01*
X454249Y405446D01*
X454148Y405534D01*
X454050Y405625D01*
X453955Y405718D01*
X453862Y405814D01*
X453772Y405913D01*
X453685Y406015D01*
X453601Y406119D01*
X453520Y406225D01*
X453442Y406334D01*
X453368Y406445D01*
X453297Y406558D01*
X453229Y406673D01*
X453164Y406790D01*
X453103Y406909D01*
X453045Y407029D01*
X452991Y407151D01*
X452941Y407275D01*
X452894Y407400D01*
X452851Y407527D01*
X452811Y407654D01*
X452776Y407783D01*
X452744Y407913D01*
X452716Y408044D01*
X452691Y408175D01*
X452671Y408307D01*
X453893Y408309D01*
X453916Y408196D01*
X453943Y408085D01*
X453975Y407974D01*
X454009Y407865D01*
X454048Y407756D01*
X454090Y407649D01*
X454136Y407544D01*
X454185Y407440D01*
X454238Y407338D01*
X454295Y407238D01*
X454354Y407140D01*
X454418Y407044D01*
X454484Y406950D01*
X454553Y406859D01*
X454626Y406770D01*
X454701Y406683D01*
X454780Y406599D01*
X454861Y406518D01*
X454945Y406439D01*
X455032Y406364D01*
X455121Y406291D01*
X455213Y406222D01*
X455307Y406156D01*
X455403Y406093D01*
X455501Y406033D01*
X455601Y405977D01*
X455703Y405924D01*
X455807Y405875D01*
X455912Y405829D01*
X456019Y405787D01*
X456127Y405748D01*
X456237Y405714D01*
X456348Y405683D01*
X456459Y405656D01*
X456572Y405632D01*
X456685Y405613D01*
X456799Y405597D01*
X456913Y405585D01*
X457028Y405577D01*
X457143Y405573D01*
X457257Y405573D01*
X457372Y405577D01*
X457487Y405585D01*
X457601Y405597D01*
X457715Y405613D01*
X457828Y405632D01*
X457941Y405656D01*
X458052Y405683D01*
X458163Y405714D01*
X458273Y405748D01*
X458381Y405787D01*
X458488Y405829D01*
X458593Y405875D01*
X458697Y405924D01*
X458799Y405977D01*
X458899Y406033D01*
X458997Y406093D01*
X459093Y406156D01*
X459187Y406222D01*
X459279Y406291D01*
X459368Y406364D01*
X459455Y406439D01*
X459539Y406518D01*
X459620Y406599D01*
X459699Y406683D01*
X459774Y406770D01*
X459847Y406859D01*
X459916Y406950D01*
X459982Y407044D01*
X460046Y407140D01*
X460105Y407238D01*
X460162Y407338D01*
X460215Y407440D01*
X460264Y407544D01*
X460310Y407649D01*
X460352Y407756D01*
X460391Y407865D01*
X460425Y407974D01*
X460457Y408085D01*
X460484Y408196D01*
X460507Y408309D01*
X459268Y408314D01*
X459240Y408227D01*
X459208Y408140D01*
X459172Y408056D01*
X459132Y407973D01*
X459090Y407891D01*
X459043Y407812D01*
X458993Y407734D01*
X458941Y407659D01*
X458884Y407586D01*
X458825Y407516D01*
X458763Y407448D01*
X458698Y407383D01*
X458631Y407320D01*
X458561Y407261D01*
X458488Y407205D01*
X458413Y407151D01*
X458336Y407101D01*
X458256Y407055D01*
X458175Y407012D01*
X458092Y406972D01*
X458008Y406936D01*
X457922Y406903D01*
X457834Y406874D01*
X457746Y406849D01*
X457656Y406828D01*
X457566Y406810D01*
X457475Y406797D01*
X457384Y406787D01*
X457292Y406781D01*
X457200Y406779D01*
X457108Y406781D01*
X457016Y406787D01*
X456925Y406797D01*
X456834Y406810D01*
X456744Y406828D01*
X456654Y406849D01*
X456566Y406874D01*
X456478Y406903D01*
X456392Y406936D01*
X456308Y406972D01*
X456225Y407012D01*
X456144Y407055D01*
X456064Y407101D01*
X455987Y407151D01*
X455912Y407205D01*
X455839Y407261D01*
X455769Y407320D01*
X455702Y407383D01*
X455637Y407448D01*
X455575Y407516D01*
X455516Y407586D01*
X455459Y407659D01*
X455407Y407734D01*
X455357Y407812D01*
X455310Y407891D01*
X455268Y407973D01*
X455228Y408056D01*
X455192Y408140D01*
X455160Y408227D01*
X455132Y408314D01*
X456448Y408351D01*
X456487Y408305D01*
X456528Y408262D01*
X456571Y408221D01*
X456618Y408183D01*
X456666Y408148D01*
X456716Y408117D01*
X456769Y408088D01*
X456823Y408063D01*
X456878Y408041D01*
X456935Y408022D01*
X456993Y408008D01*
X457051Y407997D01*
X457111Y407989D01*
X457170Y407985D01*
X457230Y407985D01*
X457289Y407989D01*
X457349Y407997D01*
X457407Y408008D01*
X457465Y408022D01*
X457522Y408041D01*
X457577Y408063D01*
X457631Y408088D01*
X457684Y408117D01*
X457734Y408148D01*
X457782Y408183D01*
X457829Y408221D01*
X457872Y408262D01*
X457913Y408305D01*
X457952Y408351D01*
D13*
X457200Y419100D03*
D12*
X445778Y401962D02*
X447685Y400055D01*
X447685Y396242D01*
X445778Y394335D01*
X443872Y394335D01*
X441965Y396242D01*
X441965Y400055D01*
X440058Y401962D01*
X438152Y401962D01*
X436245Y400055D01*
X436245Y396242D01*
X438152Y394335D01*
X436245Y406029D02*
X447685Y406029D01*
X436245Y406029D02*
X436245Y411749D01*
X438152Y413655D01*
X445778Y413655D01*
X447685Y411749D01*
X447685Y406029D01*
X447685Y417723D02*
X436245Y417723D01*
X447685Y417723D02*
X447685Y423443D01*
X445778Y425349D01*
X443872Y425349D01*
X441965Y423443D01*
X440058Y425349D01*
X438152Y425349D01*
X436245Y423443D01*
X436245Y417723D01*
X441965Y417723D02*
X441965Y423443D01*
X445778Y429417D02*
X447685Y429417D01*
X445778Y429417D02*
X441965Y433230D01*
X445778Y437043D01*
X447685Y437043D01*
X441965Y433230D02*
X436245Y433230D01*
X436245Y441111D02*
X447685Y441111D01*
X447685Y446831D01*
X445778Y448737D01*
X441965Y448737D01*
X440058Y446831D01*
X440058Y441111D01*
D11*
X447040Y364490D02*
X447040Y321310D01*
X467360Y364490D02*
X467358Y364590D01*
X467352Y364689D01*
X467342Y364789D01*
X467329Y364887D01*
X467311Y364986D01*
X467290Y365083D01*
X467265Y365179D01*
X467236Y365275D01*
X467203Y365369D01*
X467167Y365462D01*
X467127Y365553D01*
X467083Y365643D01*
X467036Y365731D01*
X466986Y365817D01*
X466932Y365901D01*
X466875Y365983D01*
X466815Y366062D01*
X466751Y366140D01*
X466685Y366214D01*
X466616Y366286D01*
X466544Y366355D01*
X466470Y366421D01*
X466392Y366485D01*
X466313Y366545D01*
X466231Y366602D01*
X466147Y366656D01*
X466061Y366706D01*
X465973Y366753D01*
X465883Y366797D01*
X465792Y366837D01*
X465699Y366873D01*
X465605Y366906D01*
X465509Y366935D01*
X465413Y366960D01*
X465316Y366981D01*
X465217Y366999D01*
X465119Y367012D01*
X465019Y367022D01*
X464920Y367028D01*
X464820Y367030D01*
X467360Y321310D02*
X467358Y321210D01*
X467352Y321111D01*
X467342Y321011D01*
X467329Y320913D01*
X467311Y320814D01*
X467290Y320717D01*
X467265Y320621D01*
X467236Y320525D01*
X467203Y320431D01*
X467167Y320338D01*
X467127Y320247D01*
X467083Y320157D01*
X467036Y320069D01*
X466986Y319983D01*
X466932Y319899D01*
X466875Y319817D01*
X466815Y319738D01*
X466751Y319660D01*
X466685Y319586D01*
X466616Y319514D01*
X466544Y319445D01*
X466470Y319379D01*
X466392Y319315D01*
X466313Y319255D01*
X466231Y319198D01*
X466147Y319144D01*
X466061Y319094D01*
X465973Y319047D01*
X465883Y319003D01*
X465792Y318963D01*
X465699Y318927D01*
X465605Y318894D01*
X465509Y318865D01*
X465413Y318840D01*
X465316Y318819D01*
X465217Y318801D01*
X465119Y318788D01*
X465019Y318778D01*
X464920Y318772D01*
X464820Y318770D01*
X449580Y318770D02*
X449480Y318772D01*
X449381Y318778D01*
X449281Y318788D01*
X449183Y318801D01*
X449084Y318819D01*
X448987Y318840D01*
X448891Y318865D01*
X448795Y318894D01*
X448701Y318927D01*
X448608Y318963D01*
X448517Y319003D01*
X448427Y319047D01*
X448339Y319094D01*
X448253Y319144D01*
X448169Y319198D01*
X448087Y319255D01*
X448008Y319315D01*
X447930Y319379D01*
X447856Y319445D01*
X447784Y319514D01*
X447715Y319586D01*
X447649Y319660D01*
X447585Y319738D01*
X447525Y319817D01*
X447468Y319899D01*
X447414Y319983D01*
X447364Y320069D01*
X447317Y320157D01*
X447273Y320247D01*
X447233Y320338D01*
X447197Y320431D01*
X447164Y320525D01*
X447135Y320621D01*
X447110Y320717D01*
X447089Y320814D01*
X447071Y320913D01*
X447058Y321011D01*
X447048Y321111D01*
X447042Y321210D01*
X447040Y321310D01*
X447040Y364490D02*
X447042Y364590D01*
X447048Y364689D01*
X447058Y364789D01*
X447071Y364887D01*
X447089Y364986D01*
X447110Y365083D01*
X447135Y365179D01*
X447164Y365275D01*
X447197Y365369D01*
X447233Y365462D01*
X447273Y365553D01*
X447317Y365643D01*
X447364Y365731D01*
X447414Y365817D01*
X447468Y365901D01*
X447525Y365983D01*
X447585Y366062D01*
X447649Y366140D01*
X447715Y366214D01*
X447784Y366286D01*
X447856Y366355D01*
X447930Y366421D01*
X448008Y366485D01*
X448087Y366545D01*
X448169Y366602D01*
X448253Y366656D01*
X448339Y366706D01*
X448427Y366753D01*
X448517Y366797D01*
X448608Y366837D01*
X448701Y366873D01*
X448795Y366906D01*
X448891Y366935D01*
X448987Y366960D01*
X449084Y366981D01*
X449183Y366999D01*
X449281Y367012D01*
X449381Y367022D01*
X449480Y367028D01*
X449580Y367030D01*
X464820Y367030D01*
X464820Y318770D02*
X449580Y318770D01*
X467360Y321310D02*
X467360Y364490D01*
X457200Y365760D02*
X457200Y360680D01*
X457200Y325120D02*
X457200Y320040D01*
X464820Y342900D02*
X467360Y342900D01*
X449580Y342900D02*
X447040Y342900D01*
D12*
X464156Y353694D02*
X457200Y353061D01*
X457200Y353061D01*
X450244Y353694D01*
X450261Y353864D01*
X450283Y354034D01*
X450309Y354202D01*
X450339Y354371D01*
X450373Y354538D01*
X450411Y354705D01*
X450454Y354870D01*
X450500Y355035D01*
X450550Y355198D01*
X450604Y355360D01*
X450663Y355521D01*
X450725Y355680D01*
X450791Y355837D01*
X450861Y355993D01*
X450934Y356147D01*
X451012Y356300D01*
X451093Y356450D01*
X451178Y356598D01*
X451266Y356745D01*
X451358Y356889D01*
X451453Y357030D01*
X451552Y357170D01*
X451654Y357307D01*
X451760Y357441D01*
X451869Y357573D01*
X451981Y357702D01*
X452096Y357828D01*
X452214Y357952D01*
X452335Y358072D01*
X452459Y358190D01*
X452586Y358304D01*
X452715Y358415D01*
X452848Y358523D01*
X452983Y358628D01*
X453120Y358730D01*
X453260Y358828D01*
X453402Y358922D01*
X453547Y359014D01*
X453694Y359101D01*
X453842Y359185D01*
X453993Y359265D01*
X454146Y359342D01*
X454300Y359415D01*
X454457Y359484D01*
X454615Y359549D01*
X454774Y359610D01*
X454935Y359668D01*
X455097Y359721D01*
X455261Y359770D01*
X455426Y359816D01*
X455591Y359857D01*
X455758Y359895D01*
X455926Y359928D01*
X456094Y359957D01*
X456263Y359982D01*
X456433Y360003D01*
X456603Y360019D01*
X456773Y360032D01*
X456944Y360040D01*
X457115Y360044D01*
X457285Y360044D01*
X457456Y360040D01*
X457627Y360032D01*
X457797Y360019D01*
X457967Y360003D01*
X458137Y359982D01*
X458306Y359957D01*
X458474Y359928D01*
X458642Y359895D01*
X458809Y359857D01*
X458974Y359816D01*
X459139Y359770D01*
X459303Y359721D01*
X459465Y359668D01*
X459626Y359610D01*
X459785Y359549D01*
X459943Y359484D01*
X460100Y359415D01*
X460254Y359342D01*
X460407Y359265D01*
X460558Y359185D01*
X460706Y359101D01*
X460853Y359014D01*
X460998Y358922D01*
X461140Y358828D01*
X461280Y358730D01*
X461417Y358628D01*
X461552Y358523D01*
X461685Y358415D01*
X461814Y358304D01*
X461941Y358190D01*
X462065Y358072D01*
X462186Y357952D01*
X462304Y357828D01*
X462419Y357702D01*
X462531Y357573D01*
X462640Y357441D01*
X462746Y357307D01*
X462848Y357170D01*
X462947Y357030D01*
X463042Y356889D01*
X463134Y356745D01*
X463222Y356598D01*
X463307Y356450D01*
X463388Y356300D01*
X463466Y356147D01*
X463539Y355993D01*
X463609Y355837D01*
X463675Y355680D01*
X463737Y355521D01*
X463796Y355360D01*
X463850Y355198D01*
X463900Y355035D01*
X463946Y354870D01*
X463989Y354705D01*
X464027Y354538D01*
X464061Y354371D01*
X464091Y354202D01*
X464117Y354034D01*
X464139Y353864D01*
X464156Y353694D01*
X462944Y353694D01*
X462926Y353843D01*
X462903Y353992D01*
X462877Y354141D01*
X462847Y354289D01*
X462813Y354435D01*
X462775Y354581D01*
X462734Y354726D01*
X462688Y354870D01*
X462639Y355013D01*
X462586Y355154D01*
X462530Y355294D01*
X462470Y355432D01*
X462406Y355569D01*
X462339Y355704D01*
X462268Y355837D01*
X462194Y355968D01*
X462117Y356097D01*
X462036Y356224D01*
X461951Y356349D01*
X461864Y356472D01*
X461773Y356593D01*
X461680Y356711D01*
X461583Y356827D01*
X461483Y356940D01*
X461381Y357050D01*
X461275Y357158D01*
X461167Y357263D01*
X461056Y357365D01*
X460942Y357464D01*
X460826Y357560D01*
X460707Y357653D01*
X460586Y357743D01*
X460463Y357830D01*
X460338Y357913D01*
X460210Y357993D01*
X460080Y358070D01*
X459949Y358144D01*
X459815Y358213D01*
X459680Y358280D01*
X459543Y358343D01*
X459404Y358402D01*
X459264Y358458D01*
X459123Y358510D01*
X458980Y358558D01*
X458836Y358603D01*
X458691Y358643D01*
X458544Y358680D01*
X458397Y358714D01*
X458249Y358743D01*
X458101Y358768D01*
X457952Y358790D01*
X457802Y358808D01*
X457652Y358821D01*
X457501Y358831D01*
X457351Y358837D01*
X457200Y358839D01*
X457049Y358837D01*
X456899Y358831D01*
X456748Y358821D01*
X456598Y358808D01*
X456448Y358790D01*
X456299Y358768D01*
X456151Y358743D01*
X456003Y358714D01*
X455856Y358680D01*
X455709Y358643D01*
X455564Y358603D01*
X455420Y358558D01*
X455277Y358510D01*
X455136Y358458D01*
X454996Y358402D01*
X454857Y358343D01*
X454720Y358280D01*
X454585Y358213D01*
X454451Y358144D01*
X454320Y358070D01*
X454190Y357993D01*
X454062Y357913D01*
X453937Y357830D01*
X453814Y357743D01*
X453693Y357653D01*
X453574Y357560D01*
X453458Y357464D01*
X453344Y357365D01*
X453233Y357263D01*
X453125Y357158D01*
X453019Y357050D01*
X452917Y356940D01*
X452817Y356827D01*
X452720Y356711D01*
X452627Y356593D01*
X452536Y356472D01*
X452449Y356349D01*
X452364Y356224D01*
X452283Y356097D01*
X452206Y355968D01*
X452132Y355837D01*
X452061Y355704D01*
X451994Y355569D01*
X451930Y355432D01*
X451870Y355294D01*
X451814Y355154D01*
X451761Y355013D01*
X451712Y354870D01*
X451666Y354726D01*
X451625Y354581D01*
X451587Y354435D01*
X451553Y354289D01*
X451523Y354141D01*
X451497Y353992D01*
X451474Y353843D01*
X451456Y353694D01*
X452671Y353693D01*
X452691Y353825D01*
X452716Y353956D01*
X452744Y354087D01*
X452776Y354217D01*
X452811Y354346D01*
X452851Y354473D01*
X452894Y354600D01*
X452941Y354725D01*
X452991Y354849D01*
X453045Y354971D01*
X453103Y355091D01*
X453164Y355210D01*
X453229Y355327D01*
X453297Y355442D01*
X453368Y355555D01*
X453442Y355666D01*
X453520Y355775D01*
X453601Y355881D01*
X453685Y355985D01*
X453772Y356087D01*
X453862Y356186D01*
X453955Y356282D01*
X454050Y356375D01*
X454148Y356466D01*
X454249Y356554D01*
X454353Y356638D01*
X454458Y356720D01*
X454566Y356799D01*
X454677Y356874D01*
X454789Y356946D01*
X454904Y357015D01*
X455020Y357080D01*
X455139Y357142D01*
X455259Y357201D01*
X455381Y357256D01*
X455504Y357307D01*
X455629Y357355D01*
X455755Y357399D01*
X455883Y357439D01*
X456011Y357476D01*
X456141Y357509D01*
X456271Y357538D01*
X456402Y357563D01*
X456534Y357584D01*
X456667Y357602D01*
X456800Y357615D01*
X456933Y357625D01*
X457066Y357631D01*
X457200Y357633D01*
X457334Y357631D01*
X457467Y357625D01*
X457600Y357615D01*
X457733Y357602D01*
X457866Y357584D01*
X457998Y357563D01*
X458129Y357538D01*
X458259Y357509D01*
X458389Y357476D01*
X458517Y357439D01*
X458645Y357399D01*
X458771Y357355D01*
X458896Y357307D01*
X459019Y357256D01*
X459141Y357201D01*
X459261Y357142D01*
X459380Y357080D01*
X459496Y357015D01*
X459611Y356946D01*
X459723Y356874D01*
X459834Y356799D01*
X459942Y356720D01*
X460047Y356638D01*
X460151Y356554D01*
X460252Y356466D01*
X460350Y356375D01*
X460445Y356282D01*
X460538Y356186D01*
X460628Y356087D01*
X460715Y355985D01*
X460799Y355881D01*
X460880Y355775D01*
X460958Y355666D01*
X461032Y355555D01*
X461103Y355442D01*
X461171Y355327D01*
X461236Y355210D01*
X461297Y355091D01*
X461355Y354971D01*
X461409Y354849D01*
X461459Y354725D01*
X461506Y354600D01*
X461549Y354473D01*
X461589Y354346D01*
X461624Y354217D01*
X461656Y354087D01*
X461684Y353956D01*
X461709Y353825D01*
X461729Y353693D01*
X460507Y353691D01*
X460484Y353804D01*
X460457Y353915D01*
X460425Y354026D01*
X460391Y354135D01*
X460352Y354244D01*
X460310Y354351D01*
X460264Y354456D01*
X460215Y354560D01*
X460162Y354662D01*
X460105Y354762D01*
X460046Y354860D01*
X459982Y354956D01*
X459916Y355050D01*
X459847Y355141D01*
X459774Y355230D01*
X459699Y355317D01*
X459620Y355401D01*
X459539Y355482D01*
X459455Y355561D01*
X459368Y355636D01*
X459279Y355709D01*
X459187Y355778D01*
X459093Y355844D01*
X458997Y355907D01*
X458899Y355967D01*
X458799Y356023D01*
X458697Y356076D01*
X458593Y356125D01*
X458488Y356171D01*
X458381Y356213D01*
X458273Y356252D01*
X458163Y356286D01*
X458052Y356317D01*
X457941Y356344D01*
X457828Y356368D01*
X457715Y356387D01*
X457601Y356403D01*
X457487Y356415D01*
X457372Y356423D01*
X457257Y356427D01*
X457143Y356427D01*
X457028Y356423D01*
X456913Y356415D01*
X456799Y356403D01*
X456685Y356387D01*
X456572Y356368D01*
X456459Y356344D01*
X456348Y356317D01*
X456237Y356286D01*
X456127Y356252D01*
X456019Y356213D01*
X455912Y356171D01*
X455807Y356125D01*
X455703Y356076D01*
X455601Y356023D01*
X455501Y355967D01*
X455403Y355907D01*
X455307Y355844D01*
X455213Y355778D01*
X455121Y355709D01*
X455032Y355636D01*
X454945Y355561D01*
X454861Y355482D01*
X454780Y355401D01*
X454701Y355317D01*
X454626Y355230D01*
X454553Y355141D01*
X454484Y355050D01*
X454418Y354956D01*
X454354Y354860D01*
X454295Y354762D01*
X454238Y354662D01*
X454185Y354560D01*
X454136Y354456D01*
X454090Y354351D01*
X454048Y354244D01*
X454009Y354135D01*
X453975Y354026D01*
X453943Y353915D01*
X453916Y353804D01*
X453893Y353691D01*
X455132Y353686D01*
X455160Y353773D01*
X455192Y353860D01*
X455228Y353944D01*
X455268Y354027D01*
X455310Y354109D01*
X455357Y354188D01*
X455407Y354266D01*
X455459Y354341D01*
X455516Y354414D01*
X455575Y354484D01*
X455637Y354552D01*
X455702Y354617D01*
X455769Y354680D01*
X455839Y354739D01*
X455912Y354795D01*
X455987Y354849D01*
X456064Y354899D01*
X456144Y354945D01*
X456225Y354988D01*
X456308Y355028D01*
X456392Y355064D01*
X456478Y355097D01*
X456566Y355126D01*
X456654Y355151D01*
X456744Y355172D01*
X456834Y355190D01*
X456925Y355203D01*
X457016Y355213D01*
X457108Y355219D01*
X457200Y355221D01*
X457292Y355219D01*
X457384Y355213D01*
X457475Y355203D01*
X457566Y355190D01*
X457656Y355172D01*
X457746Y355151D01*
X457834Y355126D01*
X457922Y355097D01*
X458008Y355064D01*
X458092Y355028D01*
X458175Y354988D01*
X458256Y354945D01*
X458336Y354899D01*
X458413Y354849D01*
X458488Y354795D01*
X458561Y354739D01*
X458631Y354680D01*
X458698Y354617D01*
X458763Y354552D01*
X458825Y354484D01*
X458884Y354414D01*
X458941Y354341D01*
X458993Y354266D01*
X459043Y354188D01*
X459090Y354109D01*
X459132Y354027D01*
X459172Y353944D01*
X459208Y353860D01*
X459240Y353773D01*
X459268Y353686D01*
X457952Y353649D01*
X457913Y353695D01*
X457872Y353738D01*
X457829Y353779D01*
X457782Y353817D01*
X457734Y353852D01*
X457684Y353883D01*
X457631Y353912D01*
X457577Y353937D01*
X457522Y353959D01*
X457465Y353978D01*
X457407Y353992D01*
X457349Y354003D01*
X457289Y354011D01*
X457230Y354015D01*
X457170Y354015D01*
X457111Y354011D01*
X457051Y354003D01*
X456993Y353992D01*
X456935Y353978D01*
X456878Y353959D01*
X456823Y353937D01*
X456769Y353912D01*
X456716Y353883D01*
X456666Y353852D01*
X456618Y353817D01*
X456571Y353779D01*
X456528Y353738D01*
X456487Y353695D01*
X456448Y353649D01*
X450244Y332106D02*
X457200Y332739D01*
X457200Y332739D01*
X464156Y332106D01*
X464139Y331936D01*
X464117Y331766D01*
X464091Y331598D01*
X464061Y331429D01*
X464027Y331262D01*
X463989Y331095D01*
X463946Y330930D01*
X463900Y330765D01*
X463850Y330602D01*
X463796Y330440D01*
X463737Y330279D01*
X463675Y330120D01*
X463609Y329963D01*
X463539Y329807D01*
X463466Y329653D01*
X463388Y329500D01*
X463307Y329350D01*
X463222Y329202D01*
X463134Y329055D01*
X463042Y328911D01*
X462947Y328770D01*
X462848Y328630D01*
X462746Y328493D01*
X462640Y328359D01*
X462531Y328227D01*
X462419Y328098D01*
X462304Y327972D01*
X462186Y327848D01*
X462065Y327728D01*
X461941Y327610D01*
X461814Y327496D01*
X461685Y327385D01*
X461552Y327277D01*
X461417Y327172D01*
X461280Y327070D01*
X461140Y326972D01*
X460998Y326878D01*
X460853Y326786D01*
X460706Y326699D01*
X460558Y326615D01*
X460407Y326535D01*
X460254Y326458D01*
X460100Y326385D01*
X459943Y326316D01*
X459785Y326251D01*
X459626Y326190D01*
X459465Y326132D01*
X459303Y326079D01*
X459139Y326030D01*
X458974Y325984D01*
X458809Y325943D01*
X458642Y325905D01*
X458474Y325872D01*
X458306Y325843D01*
X458137Y325818D01*
X457967Y325797D01*
X457797Y325781D01*
X457627Y325768D01*
X457456Y325760D01*
X457285Y325756D01*
X457115Y325756D01*
X456944Y325760D01*
X456773Y325768D01*
X456603Y325781D01*
X456433Y325797D01*
X456263Y325818D01*
X456094Y325843D01*
X455926Y325872D01*
X455758Y325905D01*
X455591Y325943D01*
X455426Y325984D01*
X455261Y326030D01*
X455097Y326079D01*
X454935Y326132D01*
X454774Y326190D01*
X454615Y326251D01*
X454457Y326316D01*
X454300Y326385D01*
X454146Y326458D01*
X453993Y326535D01*
X453842Y326615D01*
X453694Y326699D01*
X453547Y326786D01*
X453402Y326878D01*
X453260Y326972D01*
X453120Y327070D01*
X452983Y327172D01*
X452848Y327277D01*
X452715Y327385D01*
X452586Y327496D01*
X452459Y327610D01*
X452335Y327728D01*
X452214Y327848D01*
X452096Y327972D01*
X451981Y328098D01*
X451869Y328227D01*
X451760Y328359D01*
X451654Y328493D01*
X451552Y328630D01*
X451453Y328770D01*
X451358Y328911D01*
X451266Y329055D01*
X451178Y329202D01*
X451093Y329350D01*
X451012Y329500D01*
X450934Y329653D01*
X450861Y329807D01*
X450791Y329963D01*
X450725Y330120D01*
X450663Y330279D01*
X450604Y330440D01*
X450550Y330602D01*
X450500Y330765D01*
X450454Y330930D01*
X450411Y331095D01*
X450373Y331262D01*
X450339Y331429D01*
X450309Y331598D01*
X450283Y331766D01*
X450261Y331936D01*
X450244Y332106D01*
X451456Y332106D01*
X451474Y331957D01*
X451497Y331808D01*
X451523Y331659D01*
X451553Y331511D01*
X451587Y331365D01*
X451625Y331219D01*
X451666Y331074D01*
X451712Y330930D01*
X451761Y330787D01*
X451814Y330646D01*
X451870Y330506D01*
X451930Y330368D01*
X451994Y330231D01*
X452061Y330096D01*
X452132Y329963D01*
X452206Y329832D01*
X452283Y329703D01*
X452364Y329576D01*
X452449Y329451D01*
X452536Y329328D01*
X452627Y329207D01*
X452720Y329089D01*
X452817Y328973D01*
X452917Y328860D01*
X453019Y328750D01*
X453125Y328642D01*
X453233Y328537D01*
X453344Y328435D01*
X453458Y328336D01*
X453574Y328240D01*
X453693Y328147D01*
X453814Y328057D01*
X453937Y327970D01*
X454062Y327887D01*
X454190Y327807D01*
X454320Y327730D01*
X454451Y327656D01*
X454585Y327587D01*
X454720Y327520D01*
X454857Y327457D01*
X454996Y327398D01*
X455136Y327342D01*
X455277Y327290D01*
X455420Y327242D01*
X455564Y327197D01*
X455709Y327157D01*
X455856Y327120D01*
X456003Y327086D01*
X456151Y327057D01*
X456299Y327032D01*
X456448Y327010D01*
X456598Y326992D01*
X456748Y326979D01*
X456899Y326969D01*
X457049Y326963D01*
X457200Y326961D01*
X457351Y326963D01*
X457501Y326969D01*
X457652Y326979D01*
X457802Y326992D01*
X457952Y327010D01*
X458101Y327032D01*
X458249Y327057D01*
X458397Y327086D01*
X458544Y327120D01*
X458691Y327157D01*
X458836Y327197D01*
X458980Y327242D01*
X459123Y327290D01*
X459264Y327342D01*
X459404Y327398D01*
X459543Y327457D01*
X459680Y327520D01*
X459815Y327587D01*
X459949Y327656D01*
X460080Y327730D01*
X460210Y327807D01*
X460338Y327887D01*
X460463Y327970D01*
X460586Y328057D01*
X460707Y328147D01*
X460826Y328240D01*
X460942Y328336D01*
X461056Y328435D01*
X461167Y328537D01*
X461275Y328642D01*
X461381Y328750D01*
X461483Y328860D01*
X461583Y328973D01*
X461680Y329089D01*
X461773Y329207D01*
X461864Y329328D01*
X461951Y329451D01*
X462036Y329576D01*
X462117Y329703D01*
X462194Y329832D01*
X462268Y329963D01*
X462339Y330096D01*
X462406Y330231D01*
X462470Y330368D01*
X462530Y330506D01*
X462586Y330646D01*
X462639Y330787D01*
X462688Y330930D01*
X462734Y331074D01*
X462775Y331219D01*
X462813Y331365D01*
X462847Y331511D01*
X462877Y331659D01*
X462903Y331808D01*
X462926Y331957D01*
X462944Y332106D01*
X461729Y332107D01*
X461709Y331975D01*
X461684Y331844D01*
X461656Y331713D01*
X461624Y331583D01*
X461589Y331454D01*
X461549Y331327D01*
X461506Y331200D01*
X461459Y331075D01*
X461409Y330951D01*
X461355Y330829D01*
X461297Y330709D01*
X461236Y330590D01*
X461171Y330473D01*
X461103Y330358D01*
X461032Y330245D01*
X460958Y330134D01*
X460880Y330025D01*
X460799Y329919D01*
X460715Y329815D01*
X460628Y329713D01*
X460538Y329614D01*
X460445Y329518D01*
X460350Y329425D01*
X460252Y329334D01*
X460151Y329246D01*
X460047Y329162D01*
X459942Y329080D01*
X459834Y329001D01*
X459723Y328926D01*
X459611Y328854D01*
X459496Y328785D01*
X459380Y328720D01*
X459261Y328658D01*
X459141Y328599D01*
X459019Y328544D01*
X458896Y328493D01*
X458771Y328445D01*
X458645Y328401D01*
X458517Y328361D01*
X458389Y328324D01*
X458259Y328291D01*
X458129Y328262D01*
X457998Y328237D01*
X457866Y328216D01*
X457733Y328198D01*
X457600Y328185D01*
X457467Y328175D01*
X457334Y328169D01*
X457200Y328167D01*
X457066Y328169D01*
X456933Y328175D01*
X456800Y328185D01*
X456667Y328198D01*
X456534Y328216D01*
X456402Y328237D01*
X456271Y328262D01*
X456141Y328291D01*
X456011Y328324D01*
X455883Y328361D01*
X455755Y328401D01*
X455629Y328445D01*
X455504Y328493D01*
X455381Y328544D01*
X455259Y328599D01*
X455139Y328658D01*
X455020Y328720D01*
X454904Y328785D01*
X454789Y328854D01*
X454677Y328926D01*
X454566Y329001D01*
X454458Y329080D01*
X454353Y329162D01*
X454249Y329246D01*
X454148Y329334D01*
X454050Y329425D01*
X453955Y329518D01*
X453862Y329614D01*
X453772Y329713D01*
X453685Y329815D01*
X453601Y329919D01*
X453520Y330025D01*
X453442Y330134D01*
X453368Y330245D01*
X453297Y330358D01*
X453229Y330473D01*
X453164Y330590D01*
X453103Y330709D01*
X453045Y330829D01*
X452991Y330951D01*
X452941Y331075D01*
X452894Y331200D01*
X452851Y331327D01*
X452811Y331454D01*
X452776Y331583D01*
X452744Y331713D01*
X452716Y331844D01*
X452691Y331975D01*
X452671Y332107D01*
X453893Y332109D01*
X453916Y331996D01*
X453943Y331885D01*
X453975Y331774D01*
X454009Y331665D01*
X454048Y331556D01*
X454090Y331449D01*
X454136Y331344D01*
X454185Y331240D01*
X454238Y331138D01*
X454295Y331038D01*
X454354Y330940D01*
X454418Y330844D01*
X454484Y330750D01*
X454553Y330659D01*
X454626Y330570D01*
X454701Y330483D01*
X454780Y330399D01*
X454861Y330318D01*
X454945Y330239D01*
X455032Y330164D01*
X455121Y330091D01*
X455213Y330022D01*
X455307Y329956D01*
X455403Y329893D01*
X455501Y329833D01*
X455601Y329777D01*
X455703Y329724D01*
X455807Y329675D01*
X455912Y329629D01*
X456019Y329587D01*
X456127Y329548D01*
X456237Y329514D01*
X456348Y329483D01*
X456459Y329456D01*
X456572Y329432D01*
X456685Y329413D01*
X456799Y329397D01*
X456913Y329385D01*
X457028Y329377D01*
X457143Y329373D01*
X457257Y329373D01*
X457372Y329377D01*
X457487Y329385D01*
X457601Y329397D01*
X457715Y329413D01*
X457828Y329432D01*
X457941Y329456D01*
X458052Y329483D01*
X458163Y329514D01*
X458273Y329548D01*
X458381Y329587D01*
X458488Y329629D01*
X458593Y329675D01*
X458697Y329724D01*
X458799Y329777D01*
X458899Y329833D01*
X458997Y329893D01*
X459093Y329956D01*
X459187Y330022D01*
X459279Y330091D01*
X459368Y330164D01*
X459455Y330239D01*
X459539Y330318D01*
X459620Y330399D01*
X459699Y330483D01*
X459774Y330570D01*
X459847Y330659D01*
X459916Y330750D01*
X459982Y330844D01*
X460046Y330940D01*
X460105Y331038D01*
X460162Y331138D01*
X460215Y331240D01*
X460264Y331344D01*
X460310Y331449D01*
X460352Y331556D01*
X460391Y331665D01*
X460425Y331774D01*
X460457Y331885D01*
X460484Y331996D01*
X460507Y332109D01*
X459268Y332114D01*
X459240Y332027D01*
X459208Y331940D01*
X459172Y331856D01*
X459132Y331773D01*
X459090Y331691D01*
X459043Y331612D01*
X458993Y331534D01*
X458941Y331459D01*
X458884Y331386D01*
X458825Y331316D01*
X458763Y331248D01*
X458698Y331183D01*
X458631Y331120D01*
X458561Y331061D01*
X458488Y331005D01*
X458413Y330951D01*
X458336Y330901D01*
X458256Y330855D01*
X458175Y330812D01*
X458092Y330772D01*
X458008Y330736D01*
X457922Y330703D01*
X457834Y330674D01*
X457746Y330649D01*
X457656Y330628D01*
X457566Y330610D01*
X457475Y330597D01*
X457384Y330587D01*
X457292Y330581D01*
X457200Y330579D01*
X457108Y330581D01*
X457016Y330587D01*
X456925Y330597D01*
X456834Y330610D01*
X456744Y330628D01*
X456654Y330649D01*
X456566Y330674D01*
X456478Y330703D01*
X456392Y330736D01*
X456308Y330772D01*
X456225Y330812D01*
X456144Y330855D01*
X456064Y330901D01*
X455987Y330951D01*
X455912Y331005D01*
X455839Y331061D01*
X455769Y331120D01*
X455702Y331183D01*
X455637Y331248D01*
X455575Y331316D01*
X455516Y331386D01*
X455459Y331459D01*
X455407Y331534D01*
X455357Y331612D01*
X455310Y331691D01*
X455268Y331773D01*
X455228Y331856D01*
X455192Y331940D01*
X455160Y332027D01*
X455132Y332114D01*
X456448Y332151D01*
X456487Y332105D01*
X456528Y332062D01*
X456571Y332021D01*
X456618Y331983D01*
X456666Y331948D01*
X456716Y331917D01*
X456769Y331888D01*
X456823Y331863D01*
X456878Y331841D01*
X456935Y331822D01*
X456993Y331808D01*
X457051Y331797D01*
X457111Y331789D01*
X457170Y331785D01*
X457230Y331785D01*
X457289Y331789D01*
X457349Y331797D01*
X457407Y331808D01*
X457465Y331822D01*
X457522Y331841D01*
X457577Y331863D01*
X457631Y331888D01*
X457684Y331917D01*
X457734Y331948D01*
X457782Y331983D01*
X457829Y332021D01*
X457872Y332062D01*
X457913Y332105D01*
X457952Y332151D01*
D13*
X457200Y342900D03*
D12*
X442933Y319322D02*
X444875Y317452D01*
X444949Y313640D01*
X443079Y311697D01*
X441173Y311660D01*
X439230Y313530D01*
X439157Y317343D01*
X437214Y319212D01*
X435307Y319176D01*
X433438Y317233D01*
X433511Y313420D01*
X435454Y311551D01*
X444651Y329144D02*
X442708Y331014D01*
X444651Y329144D02*
X444724Y325332D01*
X442854Y323389D01*
X435229Y323242D01*
X433287Y325112D01*
X433213Y328925D01*
X435083Y330868D01*
X433099Y334898D02*
X444536Y335117D01*
X444426Y340836D01*
X442484Y342706D01*
X440577Y342669D01*
X438708Y340726D01*
X436765Y342596D01*
X434859Y342559D01*
X432989Y340616D01*
X433099Y334898D01*
X438817Y335007D02*
X438708Y340726D01*
X442406Y346772D02*
X444312Y346809D01*
X442406Y346772D02*
X438520Y350512D01*
X442259Y354398D01*
X444165Y354434D01*
X438520Y350512D02*
X432801Y350402D01*
X432650Y358281D02*
X444087Y358501D01*
X443978Y364220D01*
X442035Y366089D01*
X438222Y366016D01*
X436352Y364073D01*
X436462Y358354D01*
D11*
X294640Y364490D02*
X294640Y321310D01*
X314960Y364490D02*
X314958Y364590D01*
X314952Y364689D01*
X314942Y364789D01*
X314929Y364887D01*
X314911Y364986D01*
X314890Y365083D01*
X314865Y365179D01*
X314836Y365275D01*
X314803Y365369D01*
X314767Y365462D01*
X314727Y365553D01*
X314683Y365643D01*
X314636Y365731D01*
X314586Y365817D01*
X314532Y365901D01*
X314475Y365983D01*
X314415Y366062D01*
X314351Y366140D01*
X314285Y366214D01*
X314216Y366286D01*
X314144Y366355D01*
X314070Y366421D01*
X313992Y366485D01*
X313913Y366545D01*
X313831Y366602D01*
X313747Y366656D01*
X313661Y366706D01*
X313573Y366753D01*
X313483Y366797D01*
X313392Y366837D01*
X313299Y366873D01*
X313205Y366906D01*
X313109Y366935D01*
X313013Y366960D01*
X312916Y366981D01*
X312817Y366999D01*
X312719Y367012D01*
X312619Y367022D01*
X312520Y367028D01*
X312420Y367030D01*
X314960Y321310D02*
X314958Y321210D01*
X314952Y321111D01*
X314942Y321011D01*
X314929Y320913D01*
X314911Y320814D01*
X314890Y320717D01*
X314865Y320621D01*
X314836Y320525D01*
X314803Y320431D01*
X314767Y320338D01*
X314727Y320247D01*
X314683Y320157D01*
X314636Y320069D01*
X314586Y319983D01*
X314532Y319899D01*
X314475Y319817D01*
X314415Y319738D01*
X314351Y319660D01*
X314285Y319586D01*
X314216Y319514D01*
X314144Y319445D01*
X314070Y319379D01*
X313992Y319315D01*
X313913Y319255D01*
X313831Y319198D01*
X313747Y319144D01*
X313661Y319094D01*
X313573Y319047D01*
X313483Y319003D01*
X313392Y318963D01*
X313299Y318927D01*
X313205Y318894D01*
X313109Y318865D01*
X313013Y318840D01*
X312916Y318819D01*
X312817Y318801D01*
X312719Y318788D01*
X312619Y318778D01*
X312520Y318772D01*
X312420Y318770D01*
X297180Y318770D02*
X297080Y318772D01*
X296981Y318778D01*
X296881Y318788D01*
X296783Y318801D01*
X296684Y318819D01*
X296587Y318840D01*
X296491Y318865D01*
X296395Y318894D01*
X296301Y318927D01*
X296208Y318963D01*
X296117Y319003D01*
X296027Y319047D01*
X295939Y319094D01*
X295853Y319144D01*
X295769Y319198D01*
X295687Y319255D01*
X295608Y319315D01*
X295530Y319379D01*
X295456Y319445D01*
X295384Y319514D01*
X295315Y319586D01*
X295249Y319660D01*
X295185Y319738D01*
X295125Y319817D01*
X295068Y319899D01*
X295014Y319983D01*
X294964Y320069D01*
X294917Y320157D01*
X294873Y320247D01*
X294833Y320338D01*
X294797Y320431D01*
X294764Y320525D01*
X294735Y320621D01*
X294710Y320717D01*
X294689Y320814D01*
X294671Y320913D01*
X294658Y321011D01*
X294648Y321111D01*
X294642Y321210D01*
X294640Y321310D01*
X294640Y364490D02*
X294642Y364590D01*
X294648Y364689D01*
X294658Y364789D01*
X294671Y364887D01*
X294689Y364986D01*
X294710Y365083D01*
X294735Y365179D01*
X294764Y365275D01*
X294797Y365369D01*
X294833Y365462D01*
X294873Y365553D01*
X294917Y365643D01*
X294964Y365731D01*
X295014Y365817D01*
X295068Y365901D01*
X295125Y365983D01*
X295185Y366062D01*
X295249Y366140D01*
X295315Y366214D01*
X295384Y366286D01*
X295456Y366355D01*
X295530Y366421D01*
X295608Y366485D01*
X295687Y366545D01*
X295769Y366602D01*
X295853Y366656D01*
X295939Y366706D01*
X296027Y366753D01*
X296117Y366797D01*
X296208Y366837D01*
X296301Y366873D01*
X296395Y366906D01*
X296491Y366935D01*
X296587Y366960D01*
X296684Y366981D01*
X296783Y366999D01*
X296881Y367012D01*
X296981Y367022D01*
X297080Y367028D01*
X297180Y367030D01*
X312420Y367030D01*
X312420Y318770D02*
X297180Y318770D01*
X314960Y321310D02*
X314960Y364490D01*
X304800Y365760D02*
X304800Y360680D01*
X304800Y325120D02*
X304800Y320040D01*
X312420Y342900D02*
X314960Y342900D01*
X297180Y342900D02*
X294640Y342900D01*
D12*
X311756Y353694D02*
X304800Y353061D01*
X304800Y353061D01*
X297844Y353694D01*
X297861Y353864D01*
X297883Y354034D01*
X297909Y354202D01*
X297939Y354371D01*
X297973Y354538D01*
X298011Y354705D01*
X298054Y354870D01*
X298100Y355035D01*
X298150Y355198D01*
X298204Y355360D01*
X298263Y355521D01*
X298325Y355680D01*
X298391Y355837D01*
X298461Y355993D01*
X298534Y356147D01*
X298612Y356300D01*
X298693Y356450D01*
X298778Y356598D01*
X298866Y356745D01*
X298958Y356889D01*
X299053Y357030D01*
X299152Y357170D01*
X299254Y357307D01*
X299360Y357441D01*
X299469Y357573D01*
X299581Y357702D01*
X299696Y357828D01*
X299814Y357952D01*
X299935Y358072D01*
X300059Y358190D01*
X300186Y358304D01*
X300315Y358415D01*
X300448Y358523D01*
X300583Y358628D01*
X300720Y358730D01*
X300860Y358828D01*
X301002Y358922D01*
X301147Y359014D01*
X301294Y359101D01*
X301442Y359185D01*
X301593Y359265D01*
X301746Y359342D01*
X301900Y359415D01*
X302057Y359484D01*
X302215Y359549D01*
X302374Y359610D01*
X302535Y359668D01*
X302697Y359721D01*
X302861Y359770D01*
X303026Y359816D01*
X303191Y359857D01*
X303358Y359895D01*
X303526Y359928D01*
X303694Y359957D01*
X303863Y359982D01*
X304033Y360003D01*
X304203Y360019D01*
X304373Y360032D01*
X304544Y360040D01*
X304715Y360044D01*
X304885Y360044D01*
X305056Y360040D01*
X305227Y360032D01*
X305397Y360019D01*
X305567Y360003D01*
X305737Y359982D01*
X305906Y359957D01*
X306074Y359928D01*
X306242Y359895D01*
X306409Y359857D01*
X306574Y359816D01*
X306739Y359770D01*
X306903Y359721D01*
X307065Y359668D01*
X307226Y359610D01*
X307385Y359549D01*
X307543Y359484D01*
X307700Y359415D01*
X307854Y359342D01*
X308007Y359265D01*
X308158Y359185D01*
X308306Y359101D01*
X308453Y359014D01*
X308598Y358922D01*
X308740Y358828D01*
X308880Y358730D01*
X309017Y358628D01*
X309152Y358523D01*
X309285Y358415D01*
X309414Y358304D01*
X309541Y358190D01*
X309665Y358072D01*
X309786Y357952D01*
X309904Y357828D01*
X310019Y357702D01*
X310131Y357573D01*
X310240Y357441D01*
X310346Y357307D01*
X310448Y357170D01*
X310547Y357030D01*
X310642Y356889D01*
X310734Y356745D01*
X310822Y356598D01*
X310907Y356450D01*
X310988Y356300D01*
X311066Y356147D01*
X311139Y355993D01*
X311209Y355837D01*
X311275Y355680D01*
X311337Y355521D01*
X311396Y355360D01*
X311450Y355198D01*
X311500Y355035D01*
X311546Y354870D01*
X311589Y354705D01*
X311627Y354538D01*
X311661Y354371D01*
X311691Y354202D01*
X311717Y354034D01*
X311739Y353864D01*
X311756Y353694D01*
X310544Y353694D01*
X310526Y353843D01*
X310503Y353992D01*
X310477Y354141D01*
X310447Y354289D01*
X310413Y354435D01*
X310375Y354581D01*
X310334Y354726D01*
X310288Y354870D01*
X310239Y355013D01*
X310186Y355154D01*
X310130Y355294D01*
X310070Y355432D01*
X310006Y355569D01*
X309939Y355704D01*
X309868Y355837D01*
X309794Y355968D01*
X309717Y356097D01*
X309636Y356224D01*
X309551Y356349D01*
X309464Y356472D01*
X309373Y356593D01*
X309280Y356711D01*
X309183Y356827D01*
X309083Y356940D01*
X308981Y357050D01*
X308875Y357158D01*
X308767Y357263D01*
X308656Y357365D01*
X308542Y357464D01*
X308426Y357560D01*
X308307Y357653D01*
X308186Y357743D01*
X308063Y357830D01*
X307938Y357913D01*
X307810Y357993D01*
X307680Y358070D01*
X307549Y358144D01*
X307415Y358213D01*
X307280Y358280D01*
X307143Y358343D01*
X307004Y358402D01*
X306864Y358458D01*
X306723Y358510D01*
X306580Y358558D01*
X306436Y358603D01*
X306291Y358643D01*
X306144Y358680D01*
X305997Y358714D01*
X305849Y358743D01*
X305701Y358768D01*
X305552Y358790D01*
X305402Y358808D01*
X305252Y358821D01*
X305101Y358831D01*
X304951Y358837D01*
X304800Y358839D01*
X304649Y358837D01*
X304499Y358831D01*
X304348Y358821D01*
X304198Y358808D01*
X304048Y358790D01*
X303899Y358768D01*
X303751Y358743D01*
X303603Y358714D01*
X303456Y358680D01*
X303309Y358643D01*
X303164Y358603D01*
X303020Y358558D01*
X302877Y358510D01*
X302736Y358458D01*
X302596Y358402D01*
X302457Y358343D01*
X302320Y358280D01*
X302185Y358213D01*
X302051Y358144D01*
X301920Y358070D01*
X301790Y357993D01*
X301662Y357913D01*
X301537Y357830D01*
X301414Y357743D01*
X301293Y357653D01*
X301174Y357560D01*
X301058Y357464D01*
X300944Y357365D01*
X300833Y357263D01*
X300725Y357158D01*
X300619Y357050D01*
X300517Y356940D01*
X300417Y356827D01*
X300320Y356711D01*
X300227Y356593D01*
X300136Y356472D01*
X300049Y356349D01*
X299964Y356224D01*
X299883Y356097D01*
X299806Y355968D01*
X299732Y355837D01*
X299661Y355704D01*
X299594Y355569D01*
X299530Y355432D01*
X299470Y355294D01*
X299414Y355154D01*
X299361Y355013D01*
X299312Y354870D01*
X299266Y354726D01*
X299225Y354581D01*
X299187Y354435D01*
X299153Y354289D01*
X299123Y354141D01*
X299097Y353992D01*
X299074Y353843D01*
X299056Y353694D01*
X300271Y353693D01*
X300291Y353825D01*
X300316Y353956D01*
X300344Y354087D01*
X300376Y354217D01*
X300411Y354346D01*
X300451Y354473D01*
X300494Y354600D01*
X300541Y354725D01*
X300591Y354849D01*
X300645Y354971D01*
X300703Y355091D01*
X300764Y355210D01*
X300829Y355327D01*
X300897Y355442D01*
X300968Y355555D01*
X301042Y355666D01*
X301120Y355775D01*
X301201Y355881D01*
X301285Y355985D01*
X301372Y356087D01*
X301462Y356186D01*
X301555Y356282D01*
X301650Y356375D01*
X301748Y356466D01*
X301849Y356554D01*
X301953Y356638D01*
X302058Y356720D01*
X302166Y356799D01*
X302277Y356874D01*
X302389Y356946D01*
X302504Y357015D01*
X302620Y357080D01*
X302739Y357142D01*
X302859Y357201D01*
X302981Y357256D01*
X303104Y357307D01*
X303229Y357355D01*
X303355Y357399D01*
X303483Y357439D01*
X303611Y357476D01*
X303741Y357509D01*
X303871Y357538D01*
X304002Y357563D01*
X304134Y357584D01*
X304267Y357602D01*
X304400Y357615D01*
X304533Y357625D01*
X304666Y357631D01*
X304800Y357633D01*
X304934Y357631D01*
X305067Y357625D01*
X305200Y357615D01*
X305333Y357602D01*
X305466Y357584D01*
X305598Y357563D01*
X305729Y357538D01*
X305859Y357509D01*
X305989Y357476D01*
X306117Y357439D01*
X306245Y357399D01*
X306371Y357355D01*
X306496Y357307D01*
X306619Y357256D01*
X306741Y357201D01*
X306861Y357142D01*
X306980Y357080D01*
X307096Y357015D01*
X307211Y356946D01*
X307323Y356874D01*
X307434Y356799D01*
X307542Y356720D01*
X307647Y356638D01*
X307751Y356554D01*
X307852Y356466D01*
X307950Y356375D01*
X308045Y356282D01*
X308138Y356186D01*
X308228Y356087D01*
X308315Y355985D01*
X308399Y355881D01*
X308480Y355775D01*
X308558Y355666D01*
X308632Y355555D01*
X308703Y355442D01*
X308771Y355327D01*
X308836Y355210D01*
X308897Y355091D01*
X308955Y354971D01*
X309009Y354849D01*
X309059Y354725D01*
X309106Y354600D01*
X309149Y354473D01*
X309189Y354346D01*
X309224Y354217D01*
X309256Y354087D01*
X309284Y353956D01*
X309309Y353825D01*
X309329Y353693D01*
X308107Y353691D01*
X308084Y353804D01*
X308057Y353915D01*
X308025Y354026D01*
X307991Y354135D01*
X307952Y354244D01*
X307910Y354351D01*
X307864Y354456D01*
X307815Y354560D01*
X307762Y354662D01*
X307705Y354762D01*
X307646Y354860D01*
X307582Y354956D01*
X307516Y355050D01*
X307447Y355141D01*
X307374Y355230D01*
X307299Y355317D01*
X307220Y355401D01*
X307139Y355482D01*
X307055Y355561D01*
X306968Y355636D01*
X306879Y355709D01*
X306787Y355778D01*
X306693Y355844D01*
X306597Y355907D01*
X306499Y355967D01*
X306399Y356023D01*
X306297Y356076D01*
X306193Y356125D01*
X306088Y356171D01*
X305981Y356213D01*
X305873Y356252D01*
X305763Y356286D01*
X305652Y356317D01*
X305541Y356344D01*
X305428Y356368D01*
X305315Y356387D01*
X305201Y356403D01*
X305087Y356415D01*
X304972Y356423D01*
X304857Y356427D01*
X304743Y356427D01*
X304628Y356423D01*
X304513Y356415D01*
X304399Y356403D01*
X304285Y356387D01*
X304172Y356368D01*
X304059Y356344D01*
X303948Y356317D01*
X303837Y356286D01*
X303727Y356252D01*
X303619Y356213D01*
X303512Y356171D01*
X303407Y356125D01*
X303303Y356076D01*
X303201Y356023D01*
X303101Y355967D01*
X303003Y355907D01*
X302907Y355844D01*
X302813Y355778D01*
X302721Y355709D01*
X302632Y355636D01*
X302545Y355561D01*
X302461Y355482D01*
X302380Y355401D01*
X302301Y355317D01*
X302226Y355230D01*
X302153Y355141D01*
X302084Y355050D01*
X302018Y354956D01*
X301954Y354860D01*
X301895Y354762D01*
X301838Y354662D01*
X301785Y354560D01*
X301736Y354456D01*
X301690Y354351D01*
X301648Y354244D01*
X301609Y354135D01*
X301575Y354026D01*
X301543Y353915D01*
X301516Y353804D01*
X301493Y353691D01*
X302732Y353686D01*
X302760Y353773D01*
X302792Y353860D01*
X302828Y353944D01*
X302868Y354027D01*
X302910Y354109D01*
X302957Y354188D01*
X303007Y354266D01*
X303059Y354341D01*
X303116Y354414D01*
X303175Y354484D01*
X303237Y354552D01*
X303302Y354617D01*
X303369Y354680D01*
X303439Y354739D01*
X303512Y354795D01*
X303587Y354849D01*
X303664Y354899D01*
X303744Y354945D01*
X303825Y354988D01*
X303908Y355028D01*
X303992Y355064D01*
X304078Y355097D01*
X304166Y355126D01*
X304254Y355151D01*
X304344Y355172D01*
X304434Y355190D01*
X304525Y355203D01*
X304616Y355213D01*
X304708Y355219D01*
X304800Y355221D01*
X304892Y355219D01*
X304984Y355213D01*
X305075Y355203D01*
X305166Y355190D01*
X305256Y355172D01*
X305346Y355151D01*
X305434Y355126D01*
X305522Y355097D01*
X305608Y355064D01*
X305692Y355028D01*
X305775Y354988D01*
X305856Y354945D01*
X305936Y354899D01*
X306013Y354849D01*
X306088Y354795D01*
X306161Y354739D01*
X306231Y354680D01*
X306298Y354617D01*
X306363Y354552D01*
X306425Y354484D01*
X306484Y354414D01*
X306541Y354341D01*
X306593Y354266D01*
X306643Y354188D01*
X306690Y354109D01*
X306732Y354027D01*
X306772Y353944D01*
X306808Y353860D01*
X306840Y353773D01*
X306868Y353686D01*
X305552Y353649D01*
X305513Y353695D01*
X305472Y353738D01*
X305429Y353779D01*
X305382Y353817D01*
X305334Y353852D01*
X305284Y353883D01*
X305231Y353912D01*
X305177Y353937D01*
X305122Y353959D01*
X305065Y353978D01*
X305007Y353992D01*
X304949Y354003D01*
X304889Y354011D01*
X304830Y354015D01*
X304770Y354015D01*
X304711Y354011D01*
X304651Y354003D01*
X304593Y353992D01*
X304535Y353978D01*
X304478Y353959D01*
X304423Y353937D01*
X304369Y353912D01*
X304316Y353883D01*
X304266Y353852D01*
X304218Y353817D01*
X304171Y353779D01*
X304128Y353738D01*
X304087Y353695D01*
X304048Y353649D01*
X297844Y332106D02*
X304800Y332739D01*
X304800Y332739D01*
X311756Y332106D01*
X311739Y331936D01*
X311717Y331766D01*
X311691Y331598D01*
X311661Y331429D01*
X311627Y331262D01*
X311589Y331095D01*
X311546Y330930D01*
X311500Y330765D01*
X311450Y330602D01*
X311396Y330440D01*
X311337Y330279D01*
X311275Y330120D01*
X311209Y329963D01*
X311139Y329807D01*
X311066Y329653D01*
X310988Y329500D01*
X310907Y329350D01*
X310822Y329202D01*
X310734Y329055D01*
X310642Y328911D01*
X310547Y328770D01*
X310448Y328630D01*
X310346Y328493D01*
X310240Y328359D01*
X310131Y328227D01*
X310019Y328098D01*
X309904Y327972D01*
X309786Y327848D01*
X309665Y327728D01*
X309541Y327610D01*
X309414Y327496D01*
X309285Y327385D01*
X309152Y327277D01*
X309017Y327172D01*
X308880Y327070D01*
X308740Y326972D01*
X308598Y326878D01*
X308453Y326786D01*
X308306Y326699D01*
X308158Y326615D01*
X308007Y326535D01*
X307854Y326458D01*
X307700Y326385D01*
X307543Y326316D01*
X307385Y326251D01*
X307226Y326190D01*
X307065Y326132D01*
X306903Y326079D01*
X306739Y326030D01*
X306574Y325984D01*
X306409Y325943D01*
X306242Y325905D01*
X306074Y325872D01*
X305906Y325843D01*
X305737Y325818D01*
X305567Y325797D01*
X305397Y325781D01*
X305227Y325768D01*
X305056Y325760D01*
X304885Y325756D01*
X304715Y325756D01*
X304544Y325760D01*
X304373Y325768D01*
X304203Y325781D01*
X304033Y325797D01*
X303863Y325818D01*
X303694Y325843D01*
X303526Y325872D01*
X303358Y325905D01*
X303191Y325943D01*
X303026Y325984D01*
X302861Y326030D01*
X302697Y326079D01*
X302535Y326132D01*
X302374Y326190D01*
X302215Y326251D01*
X302057Y326316D01*
X301900Y326385D01*
X301746Y326458D01*
X301593Y326535D01*
X301442Y326615D01*
X301294Y326699D01*
X301147Y326786D01*
X301002Y326878D01*
X300860Y326972D01*
X300720Y327070D01*
X300583Y327172D01*
X300448Y327277D01*
X300315Y327385D01*
X300186Y327496D01*
X300059Y327610D01*
X299935Y327728D01*
X299814Y327848D01*
X299696Y327972D01*
X299581Y328098D01*
X299469Y328227D01*
X299360Y328359D01*
X299254Y328493D01*
X299152Y328630D01*
X299053Y328770D01*
X298958Y328911D01*
X298866Y329055D01*
X298778Y329202D01*
X298693Y329350D01*
X298612Y329500D01*
X298534Y329653D01*
X298461Y329807D01*
X298391Y329963D01*
X298325Y330120D01*
X298263Y330279D01*
X298204Y330440D01*
X298150Y330602D01*
X298100Y330765D01*
X298054Y330930D01*
X298011Y331095D01*
X297973Y331262D01*
X297939Y331429D01*
X297909Y331598D01*
X297883Y331766D01*
X297861Y331936D01*
X297844Y332106D01*
X299056Y332106D01*
X299074Y331957D01*
X299097Y331808D01*
X299123Y331659D01*
X299153Y331511D01*
X299187Y331365D01*
X299225Y331219D01*
X299266Y331074D01*
X299312Y330930D01*
X299361Y330787D01*
X299414Y330646D01*
X299470Y330506D01*
X299530Y330368D01*
X299594Y330231D01*
X299661Y330096D01*
X299732Y329963D01*
X299806Y329832D01*
X299883Y329703D01*
X299964Y329576D01*
X300049Y329451D01*
X300136Y329328D01*
X300227Y329207D01*
X300320Y329089D01*
X300417Y328973D01*
X300517Y328860D01*
X300619Y328750D01*
X300725Y328642D01*
X300833Y328537D01*
X300944Y328435D01*
X301058Y328336D01*
X301174Y328240D01*
X301293Y328147D01*
X301414Y328057D01*
X301537Y327970D01*
X301662Y327887D01*
X301790Y327807D01*
X301920Y327730D01*
X302051Y327656D01*
X302185Y327587D01*
X302320Y327520D01*
X302457Y327457D01*
X302596Y327398D01*
X302736Y327342D01*
X302877Y327290D01*
X303020Y327242D01*
X303164Y327197D01*
X303309Y327157D01*
X303456Y327120D01*
X303603Y327086D01*
X303751Y327057D01*
X303899Y327032D01*
X304048Y327010D01*
X304198Y326992D01*
X304348Y326979D01*
X304499Y326969D01*
X304649Y326963D01*
X304800Y326961D01*
X304951Y326963D01*
X305101Y326969D01*
X305252Y326979D01*
X305402Y326992D01*
X305552Y327010D01*
X305701Y327032D01*
X305849Y327057D01*
X305997Y327086D01*
X306144Y327120D01*
X306291Y327157D01*
X306436Y327197D01*
X306580Y327242D01*
X306723Y327290D01*
X306864Y327342D01*
X307004Y327398D01*
X307143Y327457D01*
X307280Y327520D01*
X307415Y327587D01*
X307549Y327656D01*
X307680Y327730D01*
X307810Y327807D01*
X307938Y327887D01*
X308063Y327970D01*
X308186Y328057D01*
X308307Y328147D01*
X308426Y328240D01*
X308542Y328336D01*
X308656Y328435D01*
X308767Y328537D01*
X308875Y328642D01*
X308981Y328750D01*
X309083Y328860D01*
X309183Y328973D01*
X309280Y329089D01*
X309373Y329207D01*
X309464Y329328D01*
X309551Y329451D01*
X309636Y329576D01*
X309717Y329703D01*
X309794Y329832D01*
X309868Y329963D01*
X309939Y330096D01*
X310006Y330231D01*
X310070Y330368D01*
X310130Y330506D01*
X310186Y330646D01*
X310239Y330787D01*
X310288Y330930D01*
X310334Y331074D01*
X310375Y331219D01*
X310413Y331365D01*
X310447Y331511D01*
X310477Y331659D01*
X310503Y331808D01*
X310526Y331957D01*
X310544Y332106D01*
X309329Y332107D01*
X309309Y331975D01*
X309284Y331844D01*
X309256Y331713D01*
X309224Y331583D01*
X309189Y331454D01*
X309149Y331327D01*
X309106Y331200D01*
X309059Y331075D01*
X309009Y330951D01*
X308955Y330829D01*
X308897Y330709D01*
X308836Y330590D01*
X308771Y330473D01*
X308703Y330358D01*
X308632Y330245D01*
X308558Y330134D01*
X308480Y330025D01*
X308399Y329919D01*
X308315Y329815D01*
X308228Y329713D01*
X308138Y329614D01*
X308045Y329518D01*
X307950Y329425D01*
X307852Y329334D01*
X307751Y329246D01*
X307647Y329162D01*
X307542Y329080D01*
X307434Y329001D01*
X307323Y328926D01*
X307211Y328854D01*
X307096Y328785D01*
X306980Y328720D01*
X306861Y328658D01*
X306741Y328599D01*
X306619Y328544D01*
X306496Y328493D01*
X306371Y328445D01*
X306245Y328401D01*
X306117Y328361D01*
X305989Y328324D01*
X305859Y328291D01*
X305729Y328262D01*
X305598Y328237D01*
X305466Y328216D01*
X305333Y328198D01*
X305200Y328185D01*
X305067Y328175D01*
X304934Y328169D01*
X304800Y328167D01*
X304666Y328169D01*
X304533Y328175D01*
X304400Y328185D01*
X304267Y328198D01*
X304134Y328216D01*
X304002Y328237D01*
X303871Y328262D01*
X303741Y328291D01*
X303611Y328324D01*
X303483Y328361D01*
X303355Y328401D01*
X303229Y328445D01*
X303104Y328493D01*
X302981Y328544D01*
X302859Y328599D01*
X302739Y328658D01*
X302620Y328720D01*
X302504Y328785D01*
X302389Y328854D01*
X302277Y328926D01*
X302166Y329001D01*
X302058Y329080D01*
X301953Y329162D01*
X301849Y329246D01*
X301748Y329334D01*
X301650Y329425D01*
X301555Y329518D01*
X301462Y329614D01*
X301372Y329713D01*
X301285Y329815D01*
X301201Y329919D01*
X301120Y330025D01*
X301042Y330134D01*
X300968Y330245D01*
X300897Y330358D01*
X300829Y330473D01*
X300764Y330590D01*
X300703Y330709D01*
X300645Y330829D01*
X300591Y330951D01*
X300541Y331075D01*
X300494Y331200D01*
X300451Y331327D01*
X300411Y331454D01*
X300376Y331583D01*
X300344Y331713D01*
X300316Y331844D01*
X300291Y331975D01*
X300271Y332107D01*
X301493Y332109D01*
X301516Y331996D01*
X301543Y331885D01*
X301575Y331774D01*
X301609Y331665D01*
X301648Y331556D01*
X301690Y331449D01*
X301736Y331344D01*
X301785Y331240D01*
X301838Y331138D01*
X301895Y331038D01*
X301954Y330940D01*
X302018Y330844D01*
X302084Y330750D01*
X302153Y330659D01*
X302226Y330570D01*
X302301Y330483D01*
X302380Y330399D01*
X302461Y330318D01*
X302545Y330239D01*
X302632Y330164D01*
X302721Y330091D01*
X302813Y330022D01*
X302907Y329956D01*
X303003Y329893D01*
X303101Y329833D01*
X303201Y329777D01*
X303303Y329724D01*
X303407Y329675D01*
X303512Y329629D01*
X303619Y329587D01*
X303727Y329548D01*
X303837Y329514D01*
X303948Y329483D01*
X304059Y329456D01*
X304172Y329432D01*
X304285Y329413D01*
X304399Y329397D01*
X304513Y329385D01*
X304628Y329377D01*
X304743Y329373D01*
X304857Y329373D01*
X304972Y329377D01*
X305087Y329385D01*
X305201Y329397D01*
X305315Y329413D01*
X305428Y329432D01*
X305541Y329456D01*
X305652Y329483D01*
X305763Y329514D01*
X305873Y329548D01*
X305981Y329587D01*
X306088Y329629D01*
X306193Y329675D01*
X306297Y329724D01*
X306399Y329777D01*
X306499Y329833D01*
X306597Y329893D01*
X306693Y329956D01*
X306787Y330022D01*
X306879Y330091D01*
X306968Y330164D01*
X307055Y330239D01*
X307139Y330318D01*
X307220Y330399D01*
X307299Y330483D01*
X307374Y330570D01*
X307447Y330659D01*
X307516Y330750D01*
X307582Y330844D01*
X307646Y330940D01*
X307705Y331038D01*
X307762Y331138D01*
X307815Y331240D01*
X307864Y331344D01*
X307910Y331449D01*
X307952Y331556D01*
X307991Y331665D01*
X308025Y331774D01*
X308057Y331885D01*
X308084Y331996D01*
X308107Y332109D01*
X306868Y332114D01*
X306840Y332027D01*
X306808Y331940D01*
X306772Y331856D01*
X306732Y331773D01*
X306690Y331691D01*
X306643Y331612D01*
X306593Y331534D01*
X306541Y331459D01*
X306484Y331386D01*
X306425Y331316D01*
X306363Y331248D01*
X306298Y331183D01*
X306231Y331120D01*
X306161Y331061D01*
X306088Y331005D01*
X306013Y330951D01*
X305936Y330901D01*
X305856Y330855D01*
X305775Y330812D01*
X305692Y330772D01*
X305608Y330736D01*
X305522Y330703D01*
X305434Y330674D01*
X305346Y330649D01*
X305256Y330628D01*
X305166Y330610D01*
X305075Y330597D01*
X304984Y330587D01*
X304892Y330581D01*
X304800Y330579D01*
X304708Y330581D01*
X304616Y330587D01*
X304525Y330597D01*
X304434Y330610D01*
X304344Y330628D01*
X304254Y330649D01*
X304166Y330674D01*
X304078Y330703D01*
X303992Y330736D01*
X303908Y330772D01*
X303825Y330812D01*
X303744Y330855D01*
X303664Y330901D01*
X303587Y330951D01*
X303512Y331005D01*
X303439Y331061D01*
X303369Y331120D01*
X303302Y331183D01*
X303237Y331248D01*
X303175Y331316D01*
X303116Y331386D01*
X303059Y331459D01*
X303007Y331534D01*
X302957Y331612D01*
X302910Y331691D01*
X302868Y331773D01*
X302828Y331856D01*
X302792Y331940D01*
X302760Y332027D01*
X302732Y332114D01*
X304048Y332151D01*
X304087Y332105D01*
X304128Y332062D01*
X304171Y332021D01*
X304218Y331983D01*
X304266Y331948D01*
X304316Y331917D01*
X304369Y331888D01*
X304423Y331863D01*
X304478Y331841D01*
X304535Y331822D01*
X304593Y331808D01*
X304651Y331797D01*
X304711Y331789D01*
X304770Y331785D01*
X304830Y331785D01*
X304889Y331789D01*
X304949Y331797D01*
X305007Y331808D01*
X305065Y331822D01*
X305122Y331841D01*
X305177Y331863D01*
X305231Y331888D01*
X305284Y331917D01*
X305334Y331948D01*
X305382Y331983D01*
X305429Y332021D01*
X305472Y332062D01*
X305513Y332105D01*
X305552Y332151D01*
D13*
X304800Y342900D03*
D12*
X289568Y314332D02*
X291475Y312425D01*
X291475Y308612D01*
X289568Y306705D01*
X281942Y306705D01*
X280035Y308612D01*
X280035Y312425D01*
X281942Y314332D01*
X285755Y314332D01*
X285755Y310518D01*
X287662Y318399D02*
X291475Y322212D01*
X280035Y322212D01*
X280035Y318399D02*
X280035Y326025D01*
X289568Y333906D02*
X291475Y337719D01*
X289568Y333906D02*
X285755Y330093D01*
X281942Y330093D01*
X280035Y332000D01*
X280035Y335813D01*
X281942Y337719D01*
X283848Y337719D01*
X285755Y335813D01*
X285755Y330093D01*
X280035Y341787D02*
X291475Y341787D01*
X291475Y347507D01*
X289568Y349413D01*
X287662Y349413D01*
X285755Y347507D01*
X283848Y349413D01*
X281942Y349413D01*
X280035Y347507D01*
X280035Y341787D01*
X285755Y341787D02*
X285755Y347507D01*
X289568Y353481D02*
X291475Y353481D01*
X289568Y353481D02*
X285755Y357294D01*
X289568Y361107D01*
X291475Y361107D01*
X285755Y357294D02*
X280035Y357294D01*
X280035Y365175D02*
X291475Y365175D01*
X291475Y370895D01*
X289568Y372801D01*
X285755Y372801D01*
X283848Y370895D01*
X283848Y365175D01*
D14*
X423988Y505714D02*
X426361Y505714D01*
X423988Y505714D02*
X422802Y506900D01*
X422802Y509273D01*
X423988Y510459D01*
X426361Y510459D01*
X427547Y509273D01*
X427547Y506900D01*
X426361Y505714D01*
X420531Y503341D02*
X420531Y510459D01*
X416972Y510459D01*
X415785Y509273D01*
X415785Y506900D01*
X416972Y505714D01*
X420531Y505714D01*
X412328Y505714D02*
X409955Y505714D01*
X412328Y505714D02*
X413514Y506900D01*
X413514Y509273D01*
X412328Y510459D01*
X409955Y510459D01*
X408769Y509273D01*
X408769Y508087D01*
X413514Y508087D01*
X406498Y505714D02*
X406498Y510459D01*
X402939Y510459D01*
X401752Y509273D01*
X401752Y505714D01*
X392465Y505714D02*
X388906Y505714D01*
X387720Y506900D01*
X388906Y508087D01*
X391279Y508087D01*
X392465Y509273D01*
X391279Y510459D01*
X387720Y510459D01*
X384262Y505714D02*
X381890Y505714D01*
X380703Y506900D01*
X380703Y509273D01*
X381890Y510459D01*
X384262Y510459D01*
X385449Y509273D01*
X385449Y506900D01*
X384262Y505714D01*
X378432Y506900D02*
X378432Y510459D01*
X378432Y506900D02*
X377246Y505714D01*
X373687Y505714D01*
X373687Y510459D01*
X371416Y510459D02*
X371416Y505714D01*
X371416Y508087D02*
X369043Y510459D01*
X367857Y510459D01*
X364383Y510459D02*
X360824Y510459D01*
X364383Y510459D02*
X365569Y509273D01*
X365569Y506900D01*
X364383Y505714D01*
X360824Y505714D01*
X357366Y505714D02*
X354994Y505714D01*
X357366Y505714D02*
X358553Y506900D01*
X358553Y509273D01*
X357366Y510459D01*
X354994Y510459D01*
X353807Y509273D01*
X353807Y508087D01*
X358553Y508087D01*
X413514Y501402D02*
X413514Y494284D01*
X413514Y497843D02*
X412328Y499029D01*
X409955Y499029D01*
X408769Y497843D01*
X408769Y494284D01*
X405311Y499029D02*
X402939Y499029D01*
X401752Y497843D01*
X401752Y494284D01*
X405311Y494284D01*
X406498Y495470D01*
X405311Y496657D01*
X401752Y496657D01*
X399481Y499029D02*
X399481Y494284D01*
X399481Y496657D02*
X397109Y499029D01*
X395922Y499029D01*
X388889Y501402D02*
X388889Y494284D01*
X392448Y494284D01*
X393634Y495470D01*
X393634Y497843D01*
X392448Y499029D01*
X388889Y499029D01*
X386618Y499029D02*
X386618Y495470D01*
X385432Y494284D01*
X384245Y495470D01*
X383059Y494284D01*
X381873Y495470D01*
X381873Y499029D01*
X378415Y499029D02*
X376043Y499029D01*
X374856Y497843D01*
X374856Y494284D01*
X378415Y494284D01*
X379602Y495470D01*
X378415Y496657D01*
X374856Y496657D01*
X372585Y499029D02*
X372585Y494284D01*
X372585Y496657D02*
X370213Y499029D01*
X369026Y499029D01*
X365552Y494284D02*
X363179Y494284D01*
X365552Y494284D02*
X366738Y495470D01*
X366738Y497843D01*
X365552Y499029D01*
X363179Y499029D01*
X361993Y497843D01*
X361993Y496657D01*
X366738Y496657D01*
M02*
