G04 EAGLE Gerber RS-274X export*
G75*
%MOMM*%
%FSLAX34Y34*%
%LPD*%
%INSilkscreen Top*%
%IPPOS*%
%AMOC8*
5,1,8,0,0,1.08239X$1,22.5*%
G01*
%ADD10C,0.076200*%
%ADD11C,0.101600*%
%ADD12C,0.152400*%
%ADD13R,0.508000X0.508000*%
%ADD14C,0.127000*%
%ADD15R,0.254000X0.508000*%
%ADD16C,0.050800*%
%ADD17C,0.254000*%

G36*
X366919Y502169D02*
X366919Y502169D01*
X366972Y502168D01*
X366995Y502179D01*
X367006Y502181D01*
X367016Y502189D01*
X367046Y502203D01*
X372127Y505673D01*
X374914Y504219D01*
X374947Y504213D01*
X374977Y504197D01*
X375015Y504199D01*
X375052Y504192D01*
X375084Y504204D01*
X375117Y504206D01*
X375148Y504228D01*
X375184Y504242D01*
X375204Y504269D01*
X375231Y504289D01*
X375264Y504350D01*
X375268Y504355D01*
X375268Y504357D01*
X375270Y504360D01*
X378826Y514520D01*
X378830Y514590D01*
X378834Y514660D01*
X378834Y514661D01*
X378800Y514721D01*
X378766Y514783D01*
X378765Y514784D01*
X378763Y514785D01*
X378700Y514830D01*
X377462Y515450D01*
X376407Y516303D01*
X376248Y516501D01*
X375558Y517362D01*
X374956Y518578D01*
X374629Y519895D01*
X374591Y521252D01*
X374844Y522585D01*
X375377Y523833D01*
X376165Y524938D01*
X377171Y525849D01*
X378349Y526523D01*
X379643Y526930D01*
X380996Y527049D01*
X382304Y526889D01*
X383552Y526465D01*
X384688Y525795D01*
X385664Y524907D01*
X386437Y523840D01*
X386977Y522637D01*
X387261Y521349D01*
X387275Y520031D01*
X387021Y518737D01*
X386508Y517522D01*
X385758Y516437D01*
X384803Y515528D01*
X383661Y514819D01*
X383618Y514772D01*
X383573Y514727D01*
X383571Y514720D01*
X383566Y514715D01*
X383555Y514652D01*
X383541Y514590D01*
X383543Y514581D01*
X383542Y514576D01*
X383546Y514566D01*
X383559Y514510D01*
X387496Y504604D01*
X387507Y504590D01*
X387511Y504573D01*
X387549Y504536D01*
X387582Y504493D01*
X387599Y504487D01*
X387612Y504475D01*
X387664Y504464D01*
X387715Y504445D01*
X387732Y504449D01*
X387749Y504445D01*
X387828Y504464D01*
X389352Y505099D01*
X389362Y505107D01*
X389395Y505122D01*
X390776Y506042D01*
X395714Y502586D01*
X395767Y502568D01*
X395817Y502543D01*
X395832Y502545D01*
X395847Y502540D01*
X395901Y502553D01*
X395957Y502559D01*
X395975Y502571D01*
X395984Y502573D01*
X395993Y502582D01*
X396026Y502602D01*
X397042Y503491D01*
X397045Y503496D01*
X397054Y503503D01*
X397943Y504392D01*
X397946Y504396D01*
X397953Y504403D01*
X398969Y505546D01*
X398972Y505551D01*
X398980Y505559D01*
X399869Y506702D01*
X399887Y506746D01*
X399912Y506787D01*
X399912Y506810D01*
X399921Y506832D01*
X399912Y506880D01*
X399912Y506928D01*
X399897Y506959D01*
X399895Y506971D01*
X399888Y506979D01*
X399877Y507001D01*
X396286Y512202D01*
X397094Y513587D01*
X397097Y513600D01*
X397115Y513635D01*
X397623Y515159D01*
X397624Y515166D01*
X397629Y515178D01*
X398097Y517051D01*
X404160Y518165D01*
X404216Y518193D01*
X404274Y518218D01*
X404279Y518224D01*
X404286Y518228D01*
X404319Y518282D01*
X404354Y518334D01*
X404356Y518344D01*
X404359Y518349D01*
X404358Y518360D01*
X404367Y518414D01*
X404367Y521335D01*
X404365Y521342D01*
X404366Y521358D01*
X404239Y522755D01*
X404239Y522756D01*
X404239Y522757D01*
X404112Y524027D01*
X404093Y524075D01*
X404082Y524124D01*
X404067Y524139D01*
X404060Y524158D01*
X404018Y524188D01*
X403982Y524224D01*
X403955Y524234D01*
X403945Y524240D01*
X403934Y524241D01*
X403906Y524251D01*
X397834Y525366D01*
X397371Y526870D01*
X397366Y526879D01*
X397360Y526901D01*
X396725Y528298D01*
X396719Y528304D01*
X396713Y528321D01*
X395828Y529838D01*
X395773Y529948D01*
X399240Y534776D01*
X399257Y534825D01*
X399282Y534871D01*
X399280Y534891D01*
X399287Y534909D01*
X399275Y534960D01*
X399272Y535011D01*
X399258Y535035D01*
X399256Y535047D01*
X399247Y535055D01*
X399232Y535082D01*
X398216Y536352D01*
X398208Y536357D01*
X398197Y536373D01*
X396927Y537643D01*
X396922Y537646D01*
X396915Y537655D01*
X395899Y538544D01*
X395891Y538547D01*
X395879Y538559D01*
X394990Y539194D01*
X394948Y539209D01*
X394911Y539232D01*
X394883Y539232D01*
X394857Y539241D01*
X394814Y539231D01*
X394770Y539230D01*
X394732Y539212D01*
X394720Y539209D01*
X394714Y539203D01*
X394697Y539195D01*
X389620Y535604D01*
X388616Y536161D01*
X388609Y536163D01*
X388596Y536171D01*
X386310Y537187D01*
X386297Y537189D01*
X386262Y537203D01*
X385283Y537421D01*
X384170Y543479D01*
X384146Y543526D01*
X384130Y543576D01*
X384115Y543588D01*
X384107Y543605D01*
X384062Y543632D01*
X384021Y543666D01*
X383996Y543672D01*
X383986Y543678D01*
X383974Y543677D01*
X383942Y543685D01*
X382418Y543812D01*
X382411Y543811D01*
X382397Y543813D01*
X379476Y543813D01*
X379468Y543811D01*
X379451Y543812D01*
X378181Y543685D01*
X378132Y543665D01*
X378080Y543653D01*
X378067Y543639D01*
X378050Y543633D01*
X378019Y543590D01*
X377982Y543552D01*
X377974Y543527D01*
X377968Y543518D01*
X377967Y543506D01*
X377956Y543475D01*
X376965Y537529D01*
X375205Y536942D01*
X375201Y536939D01*
X375191Y536937D01*
X373921Y536429D01*
X373913Y536423D01*
X373889Y536414D01*
X372253Y535479D01*
X367306Y539066D01*
X367258Y539083D01*
X367213Y539108D01*
X367193Y539107D01*
X367173Y539114D01*
X367123Y539103D01*
X367073Y539100D01*
X367047Y539086D01*
X367035Y539083D01*
X367027Y539075D01*
X367002Y539061D01*
X365859Y538172D01*
X365853Y538164D01*
X365835Y538151D01*
X364565Y536881D01*
X364562Y536877D01*
X364555Y536870D01*
X363543Y535733D01*
X362914Y535103D01*
X362884Y535048D01*
X362850Y534996D01*
X362850Y534987D01*
X362846Y534980D01*
X362850Y534917D01*
X362849Y534855D01*
X362854Y534845D01*
X362854Y534839D01*
X362861Y534830D01*
X362884Y534781D01*
X366348Y529708D01*
X365670Y528577D01*
X365668Y528569D01*
X365657Y528553D01*
X364895Y526902D01*
X364893Y526890D01*
X364881Y526863D01*
X364504Y525483D01*
X364185Y524738D01*
X358099Y523744D01*
X358040Y523716D01*
X357980Y523690D01*
X357977Y523686D01*
X357972Y523683D01*
X357937Y523628D01*
X357900Y523574D01*
X357899Y523567D01*
X357897Y523564D01*
X357897Y523555D01*
X357887Y523494D01*
X357887Y517906D01*
X357905Y517843D01*
X357921Y517780D01*
X357924Y517776D01*
X357926Y517771D01*
X357975Y517727D01*
X358022Y517682D01*
X358029Y517680D01*
X358031Y517677D01*
X358040Y517676D01*
X358099Y517656D01*
X364164Y516666D01*
X364628Y515042D01*
X364628Y515041D01*
X364628Y515039D01*
X365009Y513769D01*
X365016Y513759D01*
X365026Y513729D01*
X365534Y512713D01*
X365537Y512709D01*
X365541Y512698D01*
X366347Y511317D01*
X362761Y506371D01*
X362741Y506315D01*
X362716Y506262D01*
X362718Y506250D01*
X362713Y506238D01*
X362725Y506184D01*
X362725Y506180D01*
X362727Y506175D01*
X362733Y506122D01*
X362742Y506108D01*
X362744Y506100D01*
X362753Y506091D01*
X362777Y506054D01*
X363793Y504911D01*
X363797Y504908D01*
X363803Y504900D01*
X364692Y504011D01*
X364696Y504008D01*
X364703Y504001D01*
X365846Y502985D01*
X365847Y502984D01*
X365849Y502982D01*
X366738Y502220D01*
X366787Y502198D01*
X366831Y502169D01*
X366850Y502169D01*
X366866Y502161D01*
X366919Y502169D01*
G37*
D10*
X256923Y634627D02*
X256923Y625221D01*
X256923Y628356D02*
X263193Y634627D01*
X258490Y629924D02*
X263193Y625221D01*
X266278Y626789D02*
X266278Y631492D01*
X266278Y626789D02*
X267846Y625221D01*
X272549Y625221D01*
X272549Y631492D01*
X275633Y634627D02*
X275633Y625221D01*
X280336Y625221D01*
X281904Y626789D01*
X281904Y629924D01*
X280336Y631492D01*
X275633Y631492D01*
X286556Y625221D02*
X289691Y625221D01*
X286556Y625221D02*
X284988Y626789D01*
X284988Y629924D01*
X286556Y631492D01*
X289691Y631492D01*
X291259Y629924D01*
X291259Y628356D01*
X284988Y628356D01*
X303699Y634627D02*
X309969Y634627D01*
X303699Y634627D02*
X303699Y625221D01*
X309969Y625221D01*
X306834Y629924D02*
X303699Y629924D01*
X317757Y634627D02*
X319325Y633059D01*
X317757Y634627D02*
X314622Y634627D01*
X313054Y633059D01*
X313054Y631492D01*
X314622Y629924D01*
X317757Y629924D01*
X319325Y628356D01*
X319325Y626789D01*
X317757Y625221D01*
X314622Y625221D01*
X313054Y626789D01*
X322409Y625221D02*
X322409Y634627D01*
X327112Y634627D01*
X328680Y633059D01*
X328680Y629924D01*
X327112Y628356D01*
X322409Y628356D01*
X331764Y633059D02*
X333332Y634627D01*
X336467Y634627D01*
X338035Y633059D01*
X338035Y631492D01*
X336467Y629924D01*
X334900Y629924D01*
X336467Y629924D02*
X338035Y628356D01*
X338035Y626789D01*
X336467Y625221D01*
X333332Y625221D01*
X331764Y626789D01*
X341119Y625221D02*
X347390Y625221D01*
X341119Y625221D02*
X347390Y631492D01*
X347390Y633059D01*
X345822Y634627D01*
X342687Y634627D01*
X341119Y633059D01*
X359830Y634627D02*
X359830Y625221D01*
X359830Y629924D02*
X366101Y629924D01*
X366101Y634627D02*
X366101Y625221D01*
X369185Y631492D02*
X370753Y631492D01*
X370753Y625221D01*
X372320Y625221D02*
X369185Y625221D01*
X370753Y634627D02*
X370753Y636195D01*
X375422Y634627D02*
X375422Y625221D01*
X381692Y625221D01*
X386345Y625221D02*
X389480Y625221D01*
X386345Y625221D02*
X384777Y626789D01*
X384777Y629924D01*
X386345Y631492D01*
X389480Y631492D01*
X391048Y629924D01*
X391048Y628356D01*
X384777Y628356D01*
X395700Y626789D02*
X395700Y633059D01*
X395700Y626789D02*
X397268Y625221D01*
X397268Y631492D02*
X394132Y631492D01*
X405072Y634627D02*
X406640Y633059D01*
X405072Y634627D02*
X401937Y634627D01*
X400369Y633059D01*
X400369Y626789D01*
X401937Y625221D01*
X405072Y625221D01*
X406640Y626789D01*
X406640Y629924D01*
X403504Y629924D01*
X411292Y625221D02*
X414427Y625221D01*
X415995Y626789D01*
X415995Y629924D01*
X414427Y631492D01*
X411292Y631492D01*
X409724Y629924D01*
X409724Y626789D01*
X411292Y625221D01*
X428435Y625221D02*
X428435Y634627D01*
X433138Y634627D01*
X434705Y633059D01*
X434705Y631492D01*
X433138Y629924D01*
X434705Y628356D01*
X434705Y626789D01*
X433138Y625221D01*
X428435Y625221D01*
X428435Y629924D02*
X433138Y629924D01*
X437790Y631492D02*
X437790Y625221D01*
X437790Y628356D02*
X440925Y631492D01*
X442493Y631492D01*
X445586Y634627D02*
X445586Y625221D01*
X445586Y628356D02*
X450289Y625221D01*
X445586Y628356D02*
X450289Y631492D01*
X454949Y625221D02*
X458085Y625221D01*
X459652Y626789D01*
X459652Y629924D01*
X458085Y631492D01*
X454949Y631492D01*
X453382Y629924D01*
X453382Y626789D01*
X454949Y625221D01*
X462737Y626789D02*
X462737Y631492D01*
X462737Y626789D02*
X464304Y625221D01*
X469008Y625221D01*
X469008Y631492D01*
X473660Y633059D02*
X473660Y626789D01*
X475227Y625221D01*
X475227Y631492D02*
X472092Y631492D01*
X487684Y631492D02*
X490819Y625221D01*
X493955Y631492D01*
X497039Y625221D02*
X503310Y625221D01*
X497039Y625221D02*
X503310Y631492D01*
X503310Y633059D01*
X501742Y634627D01*
X498607Y634627D01*
X497039Y633059D01*
X506394Y633059D02*
X506394Y626789D01*
X506394Y633059D02*
X507962Y634627D01*
X511097Y634627D01*
X512665Y633059D01*
X512665Y626789D01*
X511097Y625221D01*
X507962Y625221D01*
X506394Y626789D01*
X512665Y633059D01*
X515750Y625221D02*
X522020Y625221D01*
X515750Y625221D02*
X522020Y631492D01*
X522020Y633059D01*
X520453Y634627D01*
X517317Y634627D01*
X515750Y633059D01*
X525105Y625221D02*
X531375Y625221D01*
X525105Y625221D02*
X531375Y631492D01*
X531375Y633059D01*
X529808Y634627D01*
X526672Y634627D01*
X525105Y633059D01*
X534460Y631492D02*
X537595Y634627D01*
X537595Y625221D01*
X534460Y625221D02*
X540731Y625221D01*
X543815Y625221D02*
X550086Y625221D01*
X543815Y625221D02*
X550086Y631492D01*
X550086Y633059D01*
X548518Y634627D01*
X545383Y634627D01*
X543815Y633059D01*
X553170Y625221D02*
X559441Y625221D01*
X553170Y625221D02*
X559441Y631492D01*
X559441Y633059D01*
X557873Y634627D01*
X554738Y634627D01*
X553170Y633059D01*
X562525Y626789D02*
X564093Y625221D01*
X567228Y625221D01*
X568796Y626789D01*
X568796Y633059D01*
X567228Y634627D01*
X564093Y634627D01*
X562525Y633059D01*
X562525Y631492D01*
X564093Y629924D01*
X568796Y629924D01*
X256923Y619387D02*
X256923Y609981D01*
X256923Y614684D02*
X258490Y616252D01*
X261626Y616252D01*
X263193Y614684D01*
X263193Y609981D01*
X267846Y611549D02*
X267846Y617819D01*
X267846Y611549D02*
X269413Y609981D01*
X269413Y616252D02*
X266278Y616252D01*
X274082Y617819D02*
X274082Y611549D01*
X275650Y609981D01*
X275650Y616252D02*
X272515Y616252D01*
X278752Y616252D02*
X278752Y606846D01*
X278752Y616252D02*
X283455Y616252D01*
X285022Y614684D01*
X285022Y611549D01*
X283455Y609981D01*
X278752Y609981D01*
X288107Y616252D02*
X289674Y616252D01*
X289674Y614684D01*
X288107Y614684D01*
X288107Y616252D01*
X288107Y611549D02*
X289674Y611549D01*
X289674Y609981D01*
X288107Y609981D01*
X288107Y611549D01*
X292784Y609981D02*
X299055Y619387D01*
X308410Y619387D02*
X302139Y609981D01*
X311495Y611549D02*
X311495Y616252D01*
X311495Y611549D02*
X313062Y609981D01*
X314630Y611549D01*
X316198Y609981D01*
X317765Y611549D01*
X317765Y616252D01*
X320850Y616252D02*
X320850Y611549D01*
X322418Y609981D01*
X323985Y611549D01*
X325553Y609981D01*
X327121Y611549D01*
X327121Y616252D01*
X330205Y616252D02*
X330205Y611549D01*
X331773Y609981D01*
X333340Y611549D01*
X334908Y609981D01*
X336476Y611549D01*
X336476Y616252D01*
X339560Y611549D02*
X339560Y609981D01*
X339560Y611549D02*
X341128Y611549D01*
X341128Y609981D01*
X339560Y609981D01*
X344238Y611549D02*
X344238Y616252D01*
X344238Y611549D02*
X345805Y609981D01*
X350509Y609981D01*
X350509Y608413D02*
X350509Y616252D01*
X350509Y608413D02*
X348941Y606846D01*
X347373Y606846D01*
X355161Y609981D02*
X358296Y609981D01*
X359864Y611549D01*
X359864Y614684D01*
X358296Y616252D01*
X355161Y616252D01*
X353593Y614684D01*
X353593Y611549D01*
X355161Y609981D01*
X362948Y611549D02*
X362948Y616252D01*
X362948Y611549D02*
X364516Y609981D01*
X369219Y609981D01*
X369219Y616252D01*
X373871Y617819D02*
X373871Y611549D01*
X375439Y609981D01*
X375439Y616252D02*
X372303Y616252D01*
X378540Y616252D02*
X378540Y611549D01*
X380108Y609981D01*
X384811Y609981D01*
X384811Y616252D01*
X387895Y619387D02*
X387895Y609981D01*
X392598Y609981D01*
X394166Y611549D01*
X394166Y614684D01*
X392598Y616252D01*
X387895Y616252D01*
X398818Y609981D02*
X401954Y609981D01*
X398818Y609981D02*
X397251Y611549D01*
X397251Y614684D01*
X398818Y616252D01*
X401954Y616252D01*
X403521Y614684D01*
X403521Y613116D01*
X397251Y613116D01*
X406606Y611549D02*
X406606Y609981D01*
X406606Y611549D02*
X408173Y611549D01*
X408173Y609981D01*
X406606Y609981D01*
X412851Y616252D02*
X417554Y616252D01*
X412851Y616252D02*
X411283Y614684D01*
X411283Y611549D01*
X412851Y609981D01*
X417554Y609981D01*
X422206Y609981D02*
X425342Y609981D01*
X426909Y611549D01*
X426909Y614684D01*
X425342Y616252D01*
X422206Y616252D01*
X420639Y614684D01*
X420639Y611549D01*
X422206Y609981D01*
X429994Y609981D02*
X429994Y616252D01*
X431561Y616252D01*
X433129Y614684D01*
X433129Y609981D01*
X433129Y614684D02*
X434697Y616252D01*
X436264Y614684D01*
X436264Y609981D01*
X439349Y609981D02*
X445620Y619387D01*
X450272Y616252D02*
X454975Y616252D01*
X450272Y616252D02*
X448704Y614684D01*
X448704Y611549D01*
X450272Y609981D01*
X454975Y609981D01*
X458059Y609981D02*
X464330Y619387D01*
X467414Y619387D02*
X467414Y609981D01*
X467414Y619387D02*
X472117Y619387D01*
X473685Y617819D01*
X473685Y616252D01*
X472117Y614684D01*
X473685Y613116D01*
X473685Y611549D01*
X472117Y609981D01*
X467414Y609981D01*
X467414Y614684D02*
X472117Y614684D01*
X476770Y619387D02*
X476770Y609981D01*
X476770Y613116D02*
X483040Y619387D01*
X478337Y614684D02*
X483040Y609981D01*
X486125Y609981D02*
X486125Y619387D01*
X486125Y614684D02*
X492396Y614684D01*
X492396Y619387D02*
X492396Y609981D01*
X497048Y609981D02*
X500183Y609981D01*
X501751Y611549D01*
X501751Y614684D01*
X500183Y616252D01*
X497048Y616252D01*
X495480Y614684D01*
X495480Y611549D01*
X497048Y609981D01*
X504835Y609981D02*
X504835Y619387D01*
X504835Y609981D02*
X509538Y609981D01*
X511106Y611549D01*
X511106Y614684D01*
X509538Y616252D01*
X504835Y616252D01*
X514190Y619387D02*
X514190Y609981D01*
X518893Y609981D01*
X520461Y611549D01*
X520461Y614684D01*
X518893Y616252D01*
X514190Y616252D01*
X523546Y616252D02*
X523546Y611549D01*
X525113Y609981D01*
X529816Y609981D01*
X529816Y608413D02*
X529816Y616252D01*
X529816Y608413D02*
X528249Y606846D01*
X526681Y606846D01*
X444119Y330581D02*
X434713Y330581D01*
X444119Y330581D02*
X444119Y336852D01*
X440984Y339936D02*
X434713Y339936D01*
X440984Y339936D02*
X444119Y343072D01*
X440984Y346207D01*
X434713Y346207D01*
X434713Y349291D02*
X444119Y349291D01*
X444119Y355562D01*
X434713Y372705D02*
X436281Y374272D01*
X434713Y372705D02*
X434713Y369569D01*
X436281Y368002D01*
X437848Y368002D01*
X439416Y369569D01*
X439416Y372705D01*
X440984Y374272D01*
X442551Y374272D01*
X444119Y372705D01*
X444119Y369569D01*
X442551Y368002D01*
X444119Y377357D02*
X434713Y377357D01*
X439416Y377357D02*
X439416Y383628D01*
X434713Y383628D02*
X444119Y383628D01*
X444119Y386712D02*
X444119Y389847D01*
X444119Y388280D02*
X434713Y388280D01*
X434713Y389847D02*
X434713Y386712D01*
X434713Y392949D02*
X444119Y392949D01*
X434713Y392949D02*
X434713Y399220D01*
X439416Y396084D02*
X439416Y392949D01*
X444119Y405439D02*
X434713Y405439D01*
X434713Y402304D02*
X434713Y408575D01*
X434713Y411659D02*
X434713Y417930D01*
X434713Y411659D02*
X444119Y411659D01*
X444119Y417930D01*
X439416Y414795D02*
X439416Y411659D01*
X444119Y421014D02*
X434713Y421014D01*
X434713Y425717D01*
X436281Y427285D01*
X439416Y427285D01*
X440984Y425717D01*
X440984Y421014D01*
X440984Y424150D02*
X444119Y427285D01*
X222075Y627596D02*
X220847Y626367D01*
X220847Y623910D01*
X222075Y622681D01*
X226990Y622681D01*
X228219Y623910D01*
X228219Y626367D01*
X226990Y627596D01*
X224533Y627596D01*
X224533Y625138D01*
X223304Y630165D02*
X228219Y630165D01*
X223304Y630165D02*
X223304Y633851D01*
X224533Y635080D01*
X228219Y635080D01*
X228219Y642564D02*
X220847Y642564D01*
X228219Y642564D02*
X228219Y638878D01*
X226990Y637649D01*
X224533Y637649D01*
X223304Y638878D01*
X223304Y642564D01*
X246247Y626367D02*
X247475Y627596D01*
X246247Y626367D02*
X246247Y623910D01*
X247475Y622681D01*
X248704Y622681D01*
X249933Y623910D01*
X249933Y626367D01*
X251162Y627596D01*
X252390Y627596D01*
X253619Y626367D01*
X253619Y623910D01*
X252390Y622681D01*
X246247Y633851D02*
X247475Y635080D01*
X246247Y633851D02*
X246247Y631394D01*
X247475Y630165D01*
X252390Y630165D01*
X253619Y631394D01*
X253619Y633851D01*
X252390Y635080D01*
X253619Y637649D02*
X246247Y637649D01*
X253619Y637649D02*
X253619Y642564D01*
X271647Y626367D02*
X272875Y627596D01*
X271647Y626367D02*
X271647Y623910D01*
X272875Y622681D01*
X274104Y622681D01*
X275333Y623910D01*
X275333Y626367D01*
X276562Y627596D01*
X277790Y627596D01*
X279019Y626367D01*
X279019Y623910D01*
X277790Y622681D01*
X279019Y630165D02*
X271647Y630165D01*
X279019Y630165D02*
X279019Y633851D01*
X277790Y635080D01*
X272875Y635080D01*
X271647Y633851D01*
X271647Y630165D01*
X274104Y637649D02*
X279019Y637649D01*
X274104Y637649D02*
X271647Y640107D01*
X274104Y642564D01*
X279019Y642564D01*
X275333Y642564D02*
X275333Y637649D01*
X195447Y633946D02*
X195447Y629031D01*
X199133Y629031D01*
X197904Y631488D01*
X197904Y632717D01*
X199133Y633946D01*
X201590Y633946D01*
X202819Y632717D01*
X202819Y630260D01*
X201590Y629031D01*
X197904Y636515D02*
X202819Y638973D01*
X197904Y641430D01*
X322447Y630260D02*
X323675Y629031D01*
X322447Y630260D02*
X322447Y632717D01*
X323675Y633946D01*
X324904Y633946D01*
X326133Y632717D01*
X326133Y631488D01*
X326133Y632717D02*
X327362Y633946D01*
X328590Y633946D01*
X329819Y632717D01*
X329819Y630260D01*
X328590Y629031D01*
X324904Y636515D02*
X329819Y638973D01*
X324904Y641430D01*
X323675Y643999D02*
X322447Y645228D01*
X322447Y647685D01*
X323675Y648914D01*
X324904Y648914D01*
X326133Y647685D01*
X326133Y646457D01*
X326133Y647685D02*
X327362Y648914D01*
X328590Y648914D01*
X329819Y647685D01*
X329819Y645228D01*
X328590Y643999D01*
D11*
X555473Y151902D02*
X557422Y149953D01*
X555473Y151902D02*
X551575Y151902D01*
X549626Y149953D01*
X549626Y142157D01*
X551575Y140208D01*
X555473Y140208D01*
X557422Y142157D01*
X557422Y146055D01*
X553524Y146055D01*
X561320Y140208D02*
X561320Y151902D01*
X567167Y151902D01*
X569116Y149953D01*
X569116Y146055D01*
X567167Y144106D01*
X561320Y144106D01*
X573014Y151902D02*
X580810Y151902D01*
X580810Y149953D01*
X573014Y142157D01*
X573014Y140208D01*
X186104Y149953D02*
X184155Y151902D01*
X180257Y151902D01*
X178308Y149953D01*
X178308Y142157D01*
X180257Y140208D01*
X184155Y140208D01*
X186104Y142157D01*
X186104Y146055D01*
X182206Y146055D01*
X190002Y140208D02*
X190002Y151902D01*
X195849Y151902D01*
X197798Y149953D01*
X197798Y146055D01*
X195849Y144106D01*
X190002Y144106D01*
X201696Y148004D02*
X205594Y151902D01*
X205594Y140208D01*
X201696Y140208D02*
X209492Y140208D01*
X213390Y148004D02*
X217288Y151902D01*
X217288Y140208D01*
X213390Y140208D02*
X221186Y140208D01*
X186104Y175353D02*
X184155Y177302D01*
X180257Y177302D01*
X178308Y175353D01*
X178308Y167557D01*
X180257Y165608D01*
X184155Y165608D01*
X186104Y167557D01*
X186104Y171455D01*
X182206Y171455D01*
X190002Y165608D02*
X190002Y177302D01*
X195849Y177302D01*
X197798Y175353D01*
X197798Y171455D01*
X195849Y169506D01*
X190002Y169506D01*
X201696Y173404D02*
X205594Y177302D01*
X205594Y165608D01*
X201696Y165608D02*
X209492Y165608D01*
X213390Y167557D02*
X213390Y175353D01*
X215339Y177302D01*
X219237Y177302D01*
X221186Y175353D01*
X221186Y167557D01*
X219237Y165608D01*
X215339Y165608D01*
X213390Y167557D01*
X221186Y175353D01*
X186104Y200753D02*
X184155Y202702D01*
X180257Y202702D01*
X178308Y200753D01*
X178308Y192957D01*
X180257Y191008D01*
X184155Y191008D01*
X186104Y192957D01*
X186104Y196855D01*
X182206Y196855D01*
X190002Y191008D02*
X190002Y202702D01*
X195849Y202702D01*
X197798Y200753D01*
X197798Y196855D01*
X195849Y194906D01*
X190002Y194906D01*
X201696Y192957D02*
X203645Y191008D01*
X207543Y191008D01*
X209492Y192957D01*
X209492Y200753D01*
X207543Y202702D01*
X203645Y202702D01*
X201696Y200753D01*
X201696Y198804D01*
X203645Y196855D01*
X209492Y196855D01*
X186104Y226153D02*
X184155Y228102D01*
X180257Y228102D01*
X178308Y226153D01*
X178308Y218357D01*
X180257Y216408D01*
X184155Y216408D01*
X186104Y218357D01*
X186104Y222255D01*
X182206Y222255D01*
X190002Y216408D02*
X190002Y228102D01*
X195849Y228102D01*
X197798Y226153D01*
X197798Y222255D01*
X195849Y220306D01*
X190002Y220306D01*
X201696Y224204D02*
X205594Y228102D01*
X205594Y216408D01*
X201696Y216408D02*
X209492Y216408D01*
X213390Y226153D02*
X215339Y228102D01*
X219237Y228102D01*
X221186Y226153D01*
X221186Y224204D01*
X219237Y222255D01*
X217288Y222255D01*
X219237Y222255D02*
X221186Y220306D01*
X221186Y218357D01*
X219237Y216408D01*
X215339Y216408D01*
X213390Y218357D01*
X186104Y251553D02*
X184155Y253502D01*
X180257Y253502D01*
X178308Y251553D01*
X178308Y243757D01*
X180257Y241808D01*
X184155Y241808D01*
X186104Y243757D01*
X186104Y247655D01*
X182206Y247655D01*
X190002Y241808D02*
X190002Y253502D01*
X197798Y241808D01*
X197798Y253502D01*
X201696Y253502D02*
X201696Y241808D01*
X207543Y241808D01*
X209492Y243757D01*
X209492Y251553D01*
X207543Y253502D01*
X201696Y253502D01*
X186104Y276953D02*
X184155Y278902D01*
X180257Y278902D01*
X178308Y276953D01*
X178308Y269157D01*
X180257Y267208D01*
X184155Y267208D01*
X186104Y269157D01*
X186104Y273055D01*
X182206Y273055D01*
X190002Y267208D02*
X190002Y278902D01*
X195849Y278902D01*
X197798Y276953D01*
X197798Y273055D01*
X195849Y271106D01*
X190002Y271106D01*
X201696Y275004D02*
X205594Y278902D01*
X205594Y267208D01*
X201696Y267208D02*
X209492Y267208D01*
X213390Y267208D02*
X221186Y267208D01*
X213390Y267208D02*
X221186Y275004D01*
X221186Y276953D01*
X219237Y278902D01*
X215339Y278902D01*
X213390Y276953D01*
X186104Y302353D02*
X184155Y304302D01*
X180257Y304302D01*
X178308Y302353D01*
X178308Y294557D01*
X180257Y292608D01*
X184155Y292608D01*
X186104Y294557D01*
X186104Y298455D01*
X182206Y298455D01*
X190002Y292608D02*
X190002Y304302D01*
X195849Y304302D01*
X197798Y302353D01*
X197798Y298455D01*
X195849Y296506D01*
X190002Y296506D01*
X201696Y300404D02*
X205594Y304302D01*
X205594Y292608D01*
X201696Y292608D02*
X209492Y292608D01*
X219237Y292608D02*
X219237Y304302D01*
X213390Y298455D01*
X221186Y298455D01*
X186104Y327753D02*
X184155Y329702D01*
X180257Y329702D01*
X178308Y327753D01*
X178308Y319957D01*
X180257Y318008D01*
X184155Y318008D01*
X186104Y319957D01*
X186104Y323855D01*
X182206Y323855D01*
X190002Y318008D02*
X190002Y329702D01*
X195849Y329702D01*
X197798Y327753D01*
X197798Y323855D01*
X195849Y321906D01*
X190002Y321906D01*
X201696Y318008D02*
X209492Y318008D01*
X201696Y318008D02*
X209492Y325804D01*
X209492Y327753D01*
X207543Y329702D01*
X203645Y329702D01*
X201696Y327753D01*
X213390Y329702D02*
X221186Y329702D01*
X221186Y327753D01*
X213390Y319957D01*
X213390Y318008D01*
X186104Y353153D02*
X184155Y355102D01*
X180257Y355102D01*
X178308Y353153D01*
X178308Y345357D01*
X180257Y343408D01*
X184155Y343408D01*
X186104Y345357D01*
X186104Y349255D01*
X182206Y349255D01*
X190002Y343408D02*
X190002Y355102D01*
X195849Y355102D01*
X197798Y353153D01*
X197798Y349255D01*
X195849Y347306D01*
X190002Y347306D01*
X201696Y343408D02*
X209492Y343408D01*
X201696Y343408D02*
X209492Y351204D01*
X209492Y353153D01*
X207543Y355102D01*
X203645Y355102D01*
X201696Y353153D01*
X217288Y353153D02*
X221186Y355102D01*
X217288Y353153D02*
X213390Y349255D01*
X213390Y345357D01*
X215339Y343408D01*
X219237Y343408D01*
X221186Y345357D01*
X221186Y347306D01*
X219237Y349255D01*
X213390Y349255D01*
X186104Y378553D02*
X184155Y380502D01*
X180257Y380502D01*
X178308Y378553D01*
X178308Y370757D01*
X180257Y368808D01*
X184155Y368808D01*
X186104Y370757D01*
X186104Y374655D01*
X182206Y374655D01*
X190002Y368808D02*
X190002Y380502D01*
X195849Y380502D01*
X197798Y378553D01*
X197798Y374655D01*
X195849Y372706D01*
X190002Y372706D01*
X201696Y368808D02*
X209492Y368808D01*
X201696Y368808D02*
X209492Y376604D01*
X209492Y378553D01*
X207543Y380502D01*
X203645Y380502D01*
X201696Y378553D01*
X213390Y380502D02*
X221186Y380502D01*
X213390Y380502D02*
X213390Y374655D01*
X217288Y376604D01*
X219237Y376604D01*
X221186Y374655D01*
X221186Y370757D01*
X219237Y368808D01*
X215339Y368808D01*
X213390Y370757D01*
X186104Y403953D02*
X184155Y405902D01*
X180257Y405902D01*
X178308Y403953D01*
X178308Y396157D01*
X180257Y394208D01*
X184155Y394208D01*
X186104Y396157D01*
X186104Y400055D01*
X182206Y400055D01*
X190002Y394208D02*
X190002Y405902D01*
X195849Y405902D01*
X197798Y403953D01*
X197798Y400055D01*
X195849Y398106D01*
X190002Y398106D01*
X201696Y403953D02*
X203645Y405902D01*
X207543Y405902D01*
X209492Y403953D01*
X209492Y402004D01*
X207543Y400055D01*
X205594Y400055D01*
X207543Y400055D02*
X209492Y398106D01*
X209492Y396157D01*
X207543Y394208D01*
X203645Y394208D01*
X201696Y396157D01*
X213390Y403953D02*
X215339Y405902D01*
X219237Y405902D01*
X221186Y403953D01*
X221186Y402004D01*
X219237Y400055D01*
X217288Y400055D01*
X219237Y400055D02*
X221186Y398106D01*
X221186Y396157D01*
X219237Y394208D01*
X215339Y394208D01*
X213390Y396157D01*
X186104Y429353D02*
X184155Y431302D01*
X180257Y431302D01*
X178308Y429353D01*
X178308Y421557D01*
X180257Y419608D01*
X184155Y419608D01*
X186104Y421557D01*
X186104Y425455D01*
X182206Y425455D01*
X190002Y419608D02*
X190002Y431302D01*
X195849Y431302D01*
X197798Y429353D01*
X197798Y425455D01*
X195849Y423506D01*
X190002Y423506D01*
X201696Y429353D02*
X203645Y431302D01*
X207543Y431302D01*
X209492Y429353D01*
X209492Y427404D01*
X207543Y425455D01*
X205594Y425455D01*
X207543Y425455D02*
X209492Y423506D01*
X209492Y421557D01*
X207543Y419608D01*
X203645Y419608D01*
X201696Y421557D01*
X213390Y419608D02*
X221186Y419608D01*
X213390Y419608D02*
X221186Y427404D01*
X221186Y429353D01*
X219237Y431302D01*
X215339Y431302D01*
X213390Y429353D01*
X186104Y454753D02*
X184155Y456702D01*
X180257Y456702D01*
X178308Y454753D01*
X178308Y446957D01*
X180257Y445008D01*
X184155Y445008D01*
X186104Y446957D01*
X186104Y450855D01*
X182206Y450855D01*
X190002Y445008D02*
X190002Y456702D01*
X195849Y456702D01*
X197798Y454753D01*
X197798Y450855D01*
X195849Y448906D01*
X190002Y448906D01*
X201696Y454753D02*
X203645Y456702D01*
X207543Y456702D01*
X209492Y454753D01*
X209492Y452804D01*
X207543Y450855D01*
X205594Y450855D01*
X207543Y450855D02*
X209492Y448906D01*
X209492Y446957D01*
X207543Y445008D01*
X203645Y445008D01*
X201696Y446957D01*
X213390Y456702D02*
X221186Y456702D01*
X213390Y456702D02*
X213390Y450855D01*
X217288Y452804D01*
X219237Y452804D01*
X221186Y450855D01*
X221186Y446957D01*
X219237Y445008D01*
X215339Y445008D01*
X213390Y446957D01*
X186104Y480153D02*
X184155Y482102D01*
X180257Y482102D01*
X178308Y480153D01*
X178308Y472357D01*
X180257Y470408D01*
X184155Y470408D01*
X186104Y472357D01*
X186104Y476255D01*
X182206Y476255D01*
X190002Y470408D02*
X190002Y482102D01*
X195849Y482102D01*
X197798Y480153D01*
X197798Y476255D01*
X195849Y474306D01*
X190002Y474306D01*
X201696Y480153D02*
X203645Y482102D01*
X207543Y482102D01*
X209492Y480153D01*
X209492Y478204D01*
X207543Y476255D01*
X205594Y476255D01*
X207543Y476255D02*
X209492Y474306D01*
X209492Y472357D01*
X207543Y470408D01*
X203645Y470408D01*
X201696Y472357D01*
X219237Y470408D02*
X219237Y482102D01*
X213390Y476255D01*
X221186Y476255D01*
X186104Y505553D02*
X184155Y507502D01*
X180257Y507502D01*
X178308Y505553D01*
X178308Y497757D01*
X180257Y495808D01*
X184155Y495808D01*
X186104Y497757D01*
X186104Y501655D01*
X182206Y501655D01*
X190002Y495808D02*
X190002Y507502D01*
X195849Y507502D01*
X197798Y505553D01*
X197798Y501655D01*
X195849Y499706D01*
X190002Y499706D01*
X201696Y505553D02*
X203645Y507502D01*
X207543Y507502D01*
X209492Y505553D01*
X209492Y503604D01*
X207543Y501655D01*
X205594Y501655D01*
X207543Y501655D02*
X209492Y499706D01*
X209492Y497757D01*
X207543Y495808D01*
X203645Y495808D01*
X201696Y497757D01*
X213390Y497757D02*
X215339Y495808D01*
X219237Y495808D01*
X221186Y497757D01*
X221186Y505553D01*
X219237Y507502D01*
X215339Y507502D01*
X213390Y505553D01*
X213390Y503604D01*
X215339Y501655D01*
X221186Y501655D01*
X186104Y530953D02*
X184155Y532902D01*
X180257Y532902D01*
X178308Y530953D01*
X178308Y523157D01*
X180257Y521208D01*
X184155Y521208D01*
X186104Y523157D01*
X186104Y527055D01*
X182206Y527055D01*
X190002Y521208D02*
X190002Y532902D01*
X195849Y532902D01*
X197798Y530953D01*
X197798Y527055D01*
X195849Y525106D01*
X190002Y525106D01*
X201696Y530953D02*
X203645Y532902D01*
X207543Y532902D01*
X209492Y530953D01*
X209492Y529004D01*
X207543Y527055D01*
X205594Y527055D01*
X207543Y527055D02*
X209492Y525106D01*
X209492Y523157D01*
X207543Y521208D01*
X203645Y521208D01*
X201696Y523157D01*
X217288Y530953D02*
X221186Y532902D01*
X217288Y530953D02*
X213390Y527055D01*
X213390Y523157D01*
X215339Y521208D01*
X219237Y521208D01*
X221186Y523157D01*
X221186Y525106D01*
X219237Y527055D01*
X213390Y527055D01*
X178308Y546608D02*
X178308Y558302D01*
X184155Y558302D01*
X186104Y556353D01*
X186104Y552455D01*
X184155Y550506D01*
X178308Y550506D01*
X182206Y550506D02*
X186104Y546608D01*
X197798Y556353D02*
X195849Y558302D01*
X191951Y558302D01*
X190002Y556353D01*
X190002Y554404D01*
X191951Y552455D01*
X195849Y552455D01*
X197798Y550506D01*
X197798Y548557D01*
X195849Y546608D01*
X191951Y546608D01*
X190002Y548557D01*
X205594Y546608D02*
X205594Y558302D01*
X201696Y558302D02*
X209492Y558302D01*
X180257Y583702D02*
X178308Y581753D01*
X180257Y583702D02*
X184155Y583702D01*
X186104Y581753D01*
X186104Y579804D01*
X184155Y577855D01*
X182206Y577855D01*
X184155Y577855D02*
X186104Y575906D01*
X186104Y573957D01*
X184155Y572008D01*
X180257Y572008D01*
X178308Y573957D01*
X190002Y579804D02*
X193900Y572008D01*
X197798Y579804D01*
X201696Y581753D02*
X203645Y583702D01*
X207543Y583702D01*
X209492Y581753D01*
X209492Y579804D01*
X207543Y577855D01*
X205594Y577855D01*
X207543Y577855D02*
X209492Y575906D01*
X209492Y573957D01*
X207543Y572008D01*
X203645Y572008D01*
X201696Y573957D01*
X555473Y177302D02*
X557422Y175353D01*
X555473Y177302D02*
X551575Y177302D01*
X549626Y175353D01*
X549626Y167557D01*
X551575Y165608D01*
X555473Y165608D01*
X557422Y167557D01*
X557422Y171455D01*
X553524Y171455D01*
X561320Y165608D02*
X561320Y177302D01*
X567167Y177302D01*
X569116Y175353D01*
X569116Y171455D01*
X567167Y169506D01*
X561320Y169506D01*
X573014Y175353D02*
X574963Y177302D01*
X578861Y177302D01*
X580810Y175353D01*
X580810Y173404D01*
X578861Y171455D01*
X580810Y169506D01*
X580810Y167557D01*
X578861Y165608D01*
X574963Y165608D01*
X573014Y167557D01*
X573014Y169506D01*
X574963Y171455D01*
X573014Y173404D01*
X573014Y175353D01*
X574963Y171455D02*
X578861Y171455D01*
X545728Y200753D02*
X543779Y202702D01*
X539881Y202702D01*
X537932Y200753D01*
X537932Y192957D01*
X539881Y191008D01*
X543779Y191008D01*
X545728Y192957D01*
X545728Y196855D01*
X541830Y196855D01*
X549626Y191008D02*
X549626Y202702D01*
X555473Y202702D01*
X557422Y200753D01*
X557422Y196855D01*
X555473Y194906D01*
X549626Y194906D01*
X561320Y198804D02*
X565218Y202702D01*
X565218Y191008D01*
X561320Y191008D02*
X569116Y191008D01*
X573014Y202702D02*
X580810Y202702D01*
X573014Y202702D02*
X573014Y196855D01*
X576912Y198804D01*
X578861Y198804D01*
X580810Y196855D01*
X580810Y192957D01*
X578861Y191008D01*
X574963Y191008D01*
X573014Y192957D01*
X557422Y226153D02*
X555473Y228102D01*
X551575Y228102D01*
X549626Y226153D01*
X549626Y218357D01*
X551575Y216408D01*
X555473Y216408D01*
X557422Y218357D01*
X557422Y222255D01*
X553524Y222255D01*
X561320Y216408D02*
X561320Y228102D01*
X567167Y228102D01*
X569116Y226153D01*
X569116Y222255D01*
X567167Y220306D01*
X561320Y220306D01*
X573014Y216408D02*
X580810Y216408D01*
X573014Y216408D02*
X580810Y224204D01*
X580810Y226153D01*
X578861Y228102D01*
X574963Y228102D01*
X573014Y226153D01*
X557422Y251553D02*
X555473Y253502D01*
X551575Y253502D01*
X549626Y251553D01*
X549626Y243757D01*
X551575Y241808D01*
X555473Y241808D01*
X557422Y243757D01*
X557422Y247655D01*
X553524Y247655D01*
X561320Y241808D02*
X561320Y253502D01*
X567167Y253502D01*
X569116Y251553D01*
X569116Y247655D01*
X567167Y245706D01*
X561320Y245706D01*
X573014Y243757D02*
X573014Y251553D01*
X574963Y253502D01*
X578861Y253502D01*
X580810Y251553D01*
X580810Y243757D01*
X578861Y241808D01*
X574963Y241808D01*
X573014Y243757D01*
X580810Y251553D01*
X557422Y276953D02*
X555473Y278902D01*
X551575Y278902D01*
X549626Y276953D01*
X549626Y269157D01*
X551575Y267208D01*
X555473Y267208D01*
X557422Y269157D01*
X557422Y273055D01*
X553524Y273055D01*
X561320Y267208D02*
X561320Y278902D01*
X567167Y278902D01*
X569116Y276953D01*
X569116Y273055D01*
X567167Y271106D01*
X561320Y271106D01*
X578861Y267208D02*
X578861Y278902D01*
X573014Y273055D01*
X580810Y273055D01*
X545728Y302353D02*
X543779Y304302D01*
X539881Y304302D01*
X537932Y302353D01*
X537932Y294557D01*
X539881Y292608D01*
X543779Y292608D01*
X545728Y294557D01*
X545728Y298455D01*
X541830Y298455D01*
X549626Y292608D02*
X549626Y304302D01*
X555473Y304302D01*
X557422Y302353D01*
X557422Y298455D01*
X555473Y296506D01*
X549626Y296506D01*
X561320Y300404D02*
X565218Y304302D01*
X565218Y292608D01*
X561320Y292608D02*
X569116Y292608D01*
X576912Y302353D02*
X580810Y304302D01*
X576912Y302353D02*
X573014Y298455D01*
X573014Y294557D01*
X574963Y292608D01*
X578861Y292608D01*
X580810Y294557D01*
X580810Y296506D01*
X578861Y298455D01*
X573014Y298455D01*
X545728Y327753D02*
X543779Y329702D01*
X539881Y329702D01*
X537932Y327753D01*
X537932Y319957D01*
X539881Y318008D01*
X543779Y318008D01*
X545728Y319957D01*
X545728Y323855D01*
X541830Y323855D01*
X549626Y318008D02*
X549626Y329702D01*
X555473Y329702D01*
X557422Y327753D01*
X557422Y323855D01*
X555473Y321906D01*
X549626Y321906D01*
X561320Y325804D02*
X565218Y329702D01*
X565218Y318008D01*
X561320Y318008D02*
X569116Y318008D01*
X573014Y329702D02*
X580810Y329702D01*
X580810Y327753D01*
X573014Y319957D01*
X573014Y318008D01*
X545728Y378553D02*
X543779Y380502D01*
X539881Y380502D01*
X537932Y378553D01*
X537932Y370757D01*
X539881Y368808D01*
X543779Y368808D01*
X545728Y370757D01*
X545728Y374655D01*
X541830Y374655D01*
X549626Y368808D02*
X549626Y380502D01*
X555473Y380502D01*
X557422Y378553D01*
X557422Y374655D01*
X555473Y372706D01*
X549626Y372706D01*
X561320Y376604D02*
X565218Y380502D01*
X565218Y368808D01*
X561320Y368808D02*
X569116Y368808D01*
X573014Y378553D02*
X574963Y380502D01*
X578861Y380502D01*
X580810Y378553D01*
X580810Y376604D01*
X578861Y374655D01*
X580810Y372706D01*
X580810Y370757D01*
X578861Y368808D01*
X574963Y368808D01*
X573014Y370757D01*
X573014Y372706D01*
X574963Y374655D01*
X573014Y376604D01*
X573014Y378553D01*
X574963Y374655D02*
X578861Y374655D01*
X545728Y403953D02*
X543779Y405902D01*
X539881Y405902D01*
X537932Y403953D01*
X537932Y396157D01*
X539881Y394208D01*
X543779Y394208D01*
X545728Y396157D01*
X545728Y400055D01*
X541830Y400055D01*
X549626Y394208D02*
X549626Y405902D01*
X555473Y405902D01*
X557422Y403953D01*
X557422Y400055D01*
X555473Y398106D01*
X549626Y398106D01*
X561320Y402004D02*
X565218Y405902D01*
X565218Y394208D01*
X561320Y394208D02*
X569116Y394208D01*
X573014Y396157D02*
X574963Y394208D01*
X578861Y394208D01*
X580810Y396157D01*
X580810Y403953D01*
X578861Y405902D01*
X574963Y405902D01*
X573014Y403953D01*
X573014Y402004D01*
X574963Y400055D01*
X580810Y400055D01*
X557422Y429353D02*
X555473Y431302D01*
X551575Y431302D01*
X549626Y429353D01*
X549626Y421557D01*
X551575Y419608D01*
X555473Y419608D01*
X557422Y421557D01*
X557422Y425455D01*
X553524Y425455D01*
X561320Y419608D02*
X561320Y431302D01*
X569116Y419608D01*
X569116Y431302D01*
X573014Y431302D02*
X573014Y419608D01*
X578861Y419608D01*
X580810Y421557D01*
X580810Y429353D01*
X578861Y431302D01*
X573014Y431302D01*
X545728Y454753D02*
X543779Y456702D01*
X539881Y456702D01*
X537932Y454753D01*
X537932Y446957D01*
X539881Y445008D01*
X543779Y445008D01*
X545728Y446957D01*
X545728Y450855D01*
X541830Y450855D01*
X549626Y445008D02*
X549626Y456702D01*
X555473Y456702D01*
X557422Y454753D01*
X557422Y450855D01*
X555473Y448906D01*
X549626Y448906D01*
X561320Y445008D02*
X569116Y445008D01*
X561320Y445008D02*
X569116Y452804D01*
X569116Y454753D01*
X567167Y456702D01*
X563269Y456702D01*
X561320Y454753D01*
X573014Y452804D02*
X576912Y456702D01*
X576912Y445008D01*
X573014Y445008D02*
X580810Y445008D01*
X557422Y480153D02*
X555473Y482102D01*
X551575Y482102D01*
X549626Y480153D01*
X549626Y472357D01*
X551575Y470408D01*
X555473Y470408D01*
X557422Y472357D01*
X557422Y476255D01*
X553524Y476255D01*
X561320Y470408D02*
X561320Y482102D01*
X567167Y482102D01*
X569116Y480153D01*
X569116Y476255D01*
X567167Y474306D01*
X561320Y474306D01*
X573014Y480153D02*
X574963Y482102D01*
X578861Y482102D01*
X580810Y480153D01*
X580810Y478204D01*
X578861Y476255D01*
X576912Y476255D01*
X578861Y476255D02*
X580810Y474306D01*
X580810Y472357D01*
X578861Y470408D01*
X574963Y470408D01*
X573014Y472357D01*
X557422Y505553D02*
X555473Y507502D01*
X551575Y507502D01*
X549626Y505553D01*
X549626Y497757D01*
X551575Y495808D01*
X555473Y495808D01*
X557422Y497757D01*
X557422Y501655D01*
X553524Y501655D01*
X561320Y495808D02*
X561320Y507502D01*
X567167Y507502D01*
X569116Y505553D01*
X569116Y501655D01*
X567167Y499706D01*
X561320Y499706D01*
X573014Y503604D02*
X576912Y507502D01*
X576912Y495808D01*
X573014Y495808D02*
X580810Y495808D01*
X545728Y530953D02*
X543779Y532902D01*
X539881Y532902D01*
X537932Y530953D01*
X537932Y523157D01*
X539881Y521208D01*
X543779Y521208D01*
X545728Y523157D01*
X545728Y527055D01*
X541830Y527055D01*
X549626Y521208D02*
X549626Y532902D01*
X555473Y532902D01*
X557422Y530953D01*
X557422Y527055D01*
X555473Y525106D01*
X549626Y525106D01*
X561320Y521208D02*
X569116Y521208D01*
X561320Y521208D02*
X569116Y529004D01*
X569116Y530953D01*
X567167Y532902D01*
X563269Y532902D01*
X561320Y530953D01*
X573014Y521208D02*
X580810Y521208D01*
X573014Y521208D02*
X580810Y529004D01*
X580810Y530953D01*
X578861Y532902D01*
X574963Y532902D01*
X573014Y530953D01*
X545728Y556353D02*
X543779Y558302D01*
X539881Y558302D01*
X537932Y556353D01*
X537932Y548557D01*
X539881Y546608D01*
X543779Y546608D01*
X545728Y548557D01*
X545728Y552455D01*
X541830Y552455D01*
X549626Y546608D02*
X549626Y558302D01*
X555473Y558302D01*
X557422Y556353D01*
X557422Y552455D01*
X555473Y550506D01*
X549626Y550506D01*
X561320Y546608D02*
X569116Y546608D01*
X561320Y546608D02*
X569116Y554404D01*
X569116Y556353D01*
X567167Y558302D01*
X563269Y558302D01*
X561320Y556353D01*
X573014Y556353D02*
X574963Y558302D01*
X578861Y558302D01*
X580810Y556353D01*
X580810Y554404D01*
X578861Y552455D01*
X576912Y552455D01*
X578861Y552455D02*
X580810Y550506D01*
X580810Y548557D01*
X578861Y546608D01*
X574963Y546608D01*
X573014Y548557D01*
X557422Y581753D02*
X555473Y583702D01*
X551575Y583702D01*
X549626Y581753D01*
X549626Y573957D01*
X551575Y572008D01*
X555473Y572008D01*
X557422Y573957D01*
X557422Y577855D01*
X553524Y577855D01*
X561320Y572008D02*
X561320Y583702D01*
X569116Y572008D01*
X569116Y583702D01*
X573014Y583702D02*
X573014Y572008D01*
X578861Y572008D01*
X580810Y573957D01*
X580810Y581753D01*
X578861Y583702D01*
X573014Y583702D01*
D10*
X336844Y162815D02*
X330573Y162815D01*
X336844Y162815D02*
X339979Y165951D01*
X336844Y169086D01*
X330573Y169086D01*
X330573Y176874D02*
X332141Y178441D01*
X330573Y176874D02*
X330573Y173738D01*
X332141Y172171D01*
X333708Y172171D01*
X335276Y173738D01*
X335276Y176874D01*
X336844Y178441D01*
X338411Y178441D01*
X339979Y176874D01*
X339979Y173738D01*
X338411Y172171D01*
X330573Y186229D02*
X332141Y187797D01*
X330573Y186229D02*
X330573Y183093D01*
X332141Y181526D01*
X333708Y181526D01*
X335276Y183093D01*
X335276Y186229D01*
X336844Y187797D01*
X338411Y187797D01*
X339979Y186229D01*
X339979Y183093D01*
X338411Y181526D01*
X357541Y163076D02*
X355973Y161508D01*
X355973Y158373D01*
X357541Y156805D01*
X359108Y156805D01*
X360676Y158373D01*
X360676Y161508D01*
X362244Y163076D01*
X363811Y163076D01*
X365379Y161508D01*
X365379Y158373D01*
X363811Y156805D01*
X355973Y170863D02*
X357541Y172431D01*
X355973Y170863D02*
X355973Y167728D01*
X357541Y166160D01*
X363811Y166160D01*
X365379Y167728D01*
X365379Y170863D01*
X363811Y172431D01*
X360676Y172431D01*
X360676Y169296D01*
X365379Y175515D02*
X355973Y175515D01*
X355973Y180218D01*
X357541Y181786D01*
X360676Y181786D01*
X362244Y180218D01*
X362244Y175515D01*
X359108Y184871D02*
X355973Y188006D01*
X365379Y188006D01*
X365379Y184871D02*
X365379Y191141D01*
X357541Y197361D02*
X355973Y200496D01*
X357541Y197361D02*
X360676Y194226D01*
X363811Y194226D01*
X365379Y195793D01*
X365379Y198929D01*
X363811Y200496D01*
X362244Y200496D01*
X360676Y198929D01*
X360676Y194226D01*
X382941Y172431D02*
X381373Y170863D01*
X381373Y167728D01*
X382941Y166160D01*
X384508Y166160D01*
X386076Y167728D01*
X386076Y170863D01*
X387644Y172431D01*
X389211Y172431D01*
X390779Y170863D01*
X390779Y167728D01*
X389211Y166160D01*
X381373Y180218D02*
X382941Y181786D01*
X381373Y180218D02*
X381373Y177083D01*
X382941Y175515D01*
X389211Y175515D01*
X390779Y177083D01*
X390779Y180218D01*
X389211Y181786D01*
X386076Y181786D01*
X386076Y178651D01*
X390779Y184871D02*
X381373Y184871D01*
X381373Y189574D01*
X382941Y191141D01*
X386076Y191141D01*
X387644Y189574D01*
X387644Y184871D01*
X390779Y198929D02*
X381373Y198929D01*
X386076Y194226D01*
X386076Y200496D01*
X408341Y169086D02*
X406773Y167518D01*
X406773Y164383D01*
X408341Y162815D01*
X414611Y162815D01*
X416179Y164383D01*
X416179Y167518D01*
X414611Y169086D01*
X411476Y169086D01*
X411476Y165951D01*
X416179Y172171D02*
X406773Y172171D01*
X416179Y178441D01*
X406773Y178441D01*
X406773Y181526D02*
X416179Y181526D01*
X416179Y186229D01*
X414611Y187797D01*
X408341Y187797D01*
X406773Y186229D01*
X406773Y181526D01*
X319449Y251087D02*
X317881Y249519D01*
X319449Y251087D02*
X322584Y251087D01*
X324152Y249519D01*
X324152Y247952D01*
X322584Y246384D01*
X321016Y246384D01*
X322584Y246384D02*
X324152Y244816D01*
X324152Y243249D01*
X322584Y241681D01*
X319449Y241681D01*
X317881Y243249D01*
X327236Y244816D02*
X327236Y251087D01*
X327236Y244816D02*
X330372Y241681D01*
X333507Y244816D01*
X333507Y251087D01*
X336591Y249519D02*
X338159Y251087D01*
X341294Y251087D01*
X342862Y249519D01*
X342862Y247952D01*
X341294Y246384D01*
X339727Y246384D01*
X341294Y246384D02*
X342862Y244816D01*
X342862Y243249D01*
X341294Y241681D01*
X338159Y241681D01*
X336591Y243249D01*
X419481Y251087D02*
X425752Y251087D01*
X419481Y251087D02*
X419481Y246384D01*
X422616Y247952D01*
X424184Y247952D01*
X425752Y246384D01*
X425752Y243249D01*
X424184Y241681D01*
X421049Y241681D01*
X419481Y243249D01*
X428836Y244816D02*
X428836Y251087D01*
X428836Y244816D02*
X431972Y241681D01*
X435107Y244816D01*
X435107Y251087D01*
X300311Y158197D02*
X294041Y151927D01*
X300311Y151927D02*
X294041Y158197D01*
X297176Y158197D02*
X297176Y151927D01*
X300311Y155062D02*
X294041Y155062D01*
X297176Y170637D02*
X297176Y176908D01*
X301879Y189347D02*
X301879Y192483D01*
X301879Y190915D02*
X292473Y190915D01*
X292473Y189347D02*
X292473Y192483D01*
X292473Y195584D02*
X301879Y195584D01*
X301879Y201855D02*
X292473Y195584D01*
X292473Y201855D02*
X301879Y201855D01*
X301879Y204939D02*
X292473Y204939D01*
X292473Y209642D01*
X294041Y211210D01*
X297176Y211210D01*
X298744Y209642D01*
X298744Y204939D01*
X300311Y214295D02*
X292473Y214295D01*
X300311Y214295D02*
X301879Y215862D01*
X301879Y218998D01*
X300311Y220565D01*
X292473Y220565D01*
X292473Y226785D02*
X301879Y226785D01*
X292473Y223650D02*
X292473Y229920D01*
X292473Y243928D02*
X292473Y247063D01*
X292473Y243928D02*
X294041Y242360D01*
X300311Y242360D01*
X301879Y243928D01*
X301879Y247063D01*
X300311Y248631D01*
X294041Y248631D01*
X292473Y247063D01*
X292473Y251715D02*
X301879Y251715D01*
X301879Y257986D02*
X292473Y251715D01*
X292473Y257986D02*
X301879Y257986D01*
X301879Y261071D02*
X292473Y261071D01*
X301879Y261071D02*
X301879Y267341D01*
X294041Y270426D02*
X292473Y270426D01*
X294041Y270426D02*
X297176Y273561D01*
X294041Y276696D01*
X292473Y276696D01*
X297176Y273561D02*
X301879Y273561D01*
D11*
X555473Y355102D02*
X557422Y353153D01*
X555473Y355102D02*
X551575Y355102D01*
X549626Y353153D01*
X549626Y345357D01*
X551575Y343408D01*
X555473Y343408D01*
X557422Y345357D01*
X557422Y349255D01*
X553524Y349255D01*
X561320Y343408D02*
X561320Y355102D01*
X567167Y355102D01*
X569116Y353153D01*
X569116Y349255D01*
X567167Y347306D01*
X561320Y347306D01*
X573014Y355102D02*
X580810Y355102D01*
X573014Y355102D02*
X573014Y349255D01*
X576912Y351204D01*
X578861Y351204D01*
X580810Y349255D01*
X580810Y345357D01*
X578861Y343408D01*
X574963Y343408D01*
X573014Y345357D01*
X211504Y126502D02*
X203708Y126502D01*
X203708Y120655D01*
X207606Y122604D01*
X209555Y122604D01*
X211504Y120655D01*
X211504Y116757D01*
X209555Y114808D01*
X205657Y114808D01*
X203708Y116757D01*
X215402Y118706D02*
X215402Y126502D01*
X215402Y118706D02*
X219300Y114808D01*
X223198Y118706D01*
X223198Y126502D01*
X555473Y126502D02*
X557422Y124553D01*
X555473Y126502D02*
X551575Y126502D01*
X549626Y124553D01*
X549626Y116757D01*
X551575Y114808D01*
X555473Y114808D01*
X557422Y116757D01*
X557422Y120655D01*
X553524Y120655D01*
X561320Y114808D02*
X561320Y126502D01*
X567167Y126502D01*
X569116Y124553D01*
X569116Y120655D01*
X567167Y118706D01*
X561320Y118706D01*
X576912Y124553D02*
X580810Y126502D01*
X576912Y124553D02*
X573014Y120655D01*
X573014Y116757D01*
X574963Y114808D01*
X578861Y114808D01*
X580810Y116757D01*
X580810Y118706D01*
X578861Y120655D01*
X573014Y120655D01*
D12*
X230600Y584400D02*
X236950Y590750D01*
X230600Y584400D02*
X230600Y571700D01*
X236950Y565350D01*
X230600Y559000D01*
X230600Y546300D01*
X236950Y539950D01*
X230600Y533600D01*
X230600Y520900D01*
X236950Y514550D01*
X230600Y508200D01*
X230600Y495500D01*
X236950Y489150D01*
X230600Y482800D01*
X230600Y470100D01*
X236950Y463750D01*
X230600Y457400D01*
X230600Y444700D01*
X236950Y438350D01*
X236950Y590750D02*
X275050Y590750D01*
X281400Y584400D01*
X281400Y571700D01*
X275050Y565350D01*
X281400Y559000D01*
X281400Y546300D01*
X275050Y539950D01*
X281400Y533600D01*
X281400Y520900D01*
X275050Y514550D01*
X281400Y508200D01*
X281400Y495500D01*
X275050Y489150D01*
X281400Y482800D01*
X281400Y470100D01*
X275050Y463750D01*
X281400Y457400D01*
X281400Y444700D01*
X275050Y438350D01*
X281400Y432000D01*
X281400Y419300D01*
X275050Y412950D01*
X281400Y406600D01*
X281400Y393900D01*
X275050Y387550D01*
X281400Y381200D01*
X281400Y368500D01*
X275050Y362150D01*
X281400Y355800D01*
X281400Y343100D01*
X275050Y336750D01*
X281400Y330400D01*
X281400Y317700D01*
X275050Y311350D01*
X281400Y305000D01*
X281400Y292300D01*
X275050Y285950D01*
X281400Y279600D01*
X281400Y266900D01*
X275050Y260550D01*
X281400Y254200D01*
X281400Y241500D01*
X275050Y235150D01*
X281400Y228800D01*
X281400Y216100D01*
X275050Y209750D01*
X281400Y203400D01*
X281400Y190700D01*
X275050Y184350D01*
X281400Y178000D01*
X281400Y165300D01*
X275050Y158950D01*
X281400Y152600D01*
X281400Y139900D01*
X275050Y133550D01*
X281400Y127200D01*
X281400Y114500D01*
X275050Y108150D01*
X236950Y108150D02*
X230600Y114500D01*
X230600Y127200D01*
X236950Y133550D01*
X230600Y139900D01*
X230600Y152600D01*
X236950Y158950D01*
X230600Y165300D01*
X230600Y178000D01*
X236950Y184350D01*
X230600Y190700D01*
X230600Y203400D01*
X236950Y209750D01*
X230600Y216100D01*
X230600Y228800D01*
X236950Y235150D01*
X230600Y241500D01*
X230600Y254200D01*
X236950Y260550D01*
X230600Y266900D01*
X230600Y279600D01*
X236950Y285950D01*
X230600Y292300D01*
X230600Y305000D01*
X236950Y311350D01*
X230600Y317700D01*
X230600Y330400D01*
X236950Y336750D01*
X230600Y343100D01*
X230600Y355800D01*
X236950Y362150D01*
X230600Y368500D01*
X230600Y381200D01*
X236950Y387550D01*
X230600Y393900D01*
X230600Y406600D01*
X236950Y412950D01*
X230600Y419300D01*
X230600Y432000D01*
X236950Y438350D01*
X236950Y565350D02*
X275050Y565350D01*
X275050Y539950D02*
X236950Y539950D01*
X236950Y514550D02*
X275050Y514550D01*
X275050Y489150D02*
X236950Y489150D01*
X236950Y463750D02*
X275050Y463750D01*
X275050Y438350D02*
X236950Y438350D01*
X236950Y412950D02*
X275050Y412950D01*
X275050Y387550D02*
X236950Y387550D01*
X236950Y362150D02*
X275050Y362150D01*
X275050Y336750D02*
X236950Y336750D01*
X236950Y311350D02*
X275050Y311350D01*
X275050Y285950D02*
X236950Y285950D01*
X236950Y260550D02*
X275050Y260550D01*
X275050Y235150D02*
X236950Y235150D01*
X236950Y209750D02*
X275050Y209750D01*
X275050Y184350D02*
X236950Y184350D01*
X236950Y158950D02*
X275050Y158950D01*
X275050Y133550D02*
X236950Y133550D01*
X236950Y108150D02*
X275050Y108150D01*
D13*
X243300Y578050D03*
X268700Y578050D03*
X268700Y552650D03*
X243300Y552650D03*
X268700Y527250D03*
X243300Y527250D03*
X268700Y501850D03*
X268700Y476450D03*
X268700Y451050D03*
X243300Y501850D03*
X243300Y476450D03*
X243300Y451050D03*
X268700Y425650D03*
X243300Y425650D03*
X268700Y400250D03*
X243300Y400250D03*
X268700Y374850D03*
X243300Y374850D03*
X268700Y349450D03*
X243300Y349450D03*
X268700Y324050D03*
X243300Y324050D03*
X268700Y298650D03*
X243300Y298650D03*
X268700Y273250D03*
X243300Y273250D03*
X268700Y247850D03*
X243300Y247850D03*
X268700Y222450D03*
X243300Y222450D03*
X268700Y197050D03*
X243300Y197050D03*
X268700Y171650D03*
X243300Y171650D03*
X268700Y146250D03*
X243300Y146250D03*
X268700Y120850D03*
X243300Y120850D03*
D12*
X480600Y584400D02*
X486950Y590750D01*
X480600Y584400D02*
X480600Y571700D01*
X486950Y565350D01*
X480600Y559000D01*
X480600Y546300D01*
X486950Y539950D01*
X480600Y533600D01*
X480600Y520900D01*
X486950Y514550D01*
X480600Y508200D01*
X480600Y495500D01*
X486950Y489150D01*
X480600Y482800D01*
X480600Y470100D01*
X486950Y463750D01*
X480600Y457400D01*
X480600Y444700D01*
X486950Y438350D01*
X486950Y590750D02*
X525050Y590750D01*
X531400Y584400D01*
X531400Y571700D01*
X525050Y565350D01*
X531400Y559000D01*
X531400Y546300D01*
X525050Y539950D01*
X531400Y533600D01*
X531400Y520900D01*
X525050Y514550D01*
X531400Y508200D01*
X531400Y495500D01*
X525050Y489150D01*
X531400Y482800D01*
X531400Y470100D01*
X525050Y463750D01*
X531400Y457400D01*
X531400Y444700D01*
X525050Y438350D01*
X531400Y432000D01*
X531400Y419300D01*
X525050Y412950D01*
X531400Y406600D01*
X531400Y393900D01*
X525050Y387550D01*
X531400Y381200D01*
X531400Y368500D01*
X525050Y362150D01*
X531400Y355800D01*
X531400Y343100D01*
X525050Y336750D01*
X531400Y330400D01*
X531400Y317700D01*
X525050Y311350D01*
X531400Y305000D01*
X531400Y292300D01*
X525050Y285950D01*
X531400Y279600D01*
X531400Y266900D01*
X525050Y260550D01*
X531400Y254200D01*
X531400Y241500D01*
X525050Y235150D01*
X531400Y228800D01*
X531400Y216100D01*
X525050Y209750D01*
X531400Y203400D01*
X531400Y190700D01*
X525050Y184350D01*
X531400Y178000D01*
X531400Y165300D01*
X525050Y158950D01*
X531400Y152600D01*
X531400Y139900D01*
X525050Y133550D01*
X531400Y127200D01*
X531400Y114500D01*
X525050Y108150D01*
X486950Y108150D02*
X480600Y114500D01*
X480600Y127200D01*
X486950Y133550D01*
X480600Y139900D01*
X480600Y152600D01*
X486950Y158950D01*
X480600Y165300D01*
X480600Y178000D01*
X486950Y184350D01*
X480600Y190700D01*
X480600Y203400D01*
X486950Y209750D01*
X480600Y216100D01*
X480600Y228800D01*
X486950Y235150D01*
X480600Y241500D01*
X480600Y254200D01*
X486950Y260550D01*
X480600Y266900D01*
X480600Y279600D01*
X486950Y285950D01*
X480600Y292300D01*
X480600Y305000D01*
X486950Y311350D01*
X480600Y317700D01*
X480600Y330400D01*
X486950Y336750D01*
X480600Y343100D01*
X480600Y355800D01*
X486950Y362150D01*
X480600Y368500D01*
X480600Y381200D01*
X486950Y387550D01*
X480600Y393900D01*
X480600Y406600D01*
X486950Y412950D01*
X480600Y419300D01*
X480600Y432000D01*
X486950Y438350D01*
X486950Y565350D02*
X525050Y565350D01*
X525050Y539950D02*
X486950Y539950D01*
X486950Y514550D02*
X525050Y514550D01*
X525050Y489150D02*
X486950Y489150D01*
X486950Y463750D02*
X525050Y463750D01*
X525050Y438350D02*
X486950Y438350D01*
X486950Y412950D02*
X525050Y412950D01*
X525050Y387550D02*
X486950Y387550D01*
X486950Y362150D02*
X525050Y362150D01*
X525050Y336750D02*
X486950Y336750D01*
X486950Y311350D02*
X525050Y311350D01*
X525050Y285950D02*
X486950Y285950D01*
X486950Y260550D02*
X525050Y260550D01*
X525050Y235150D02*
X486950Y235150D01*
X486950Y209750D02*
X525050Y209750D01*
X525050Y184350D02*
X486950Y184350D01*
X486950Y158950D02*
X525050Y158950D01*
X525050Y133550D02*
X486950Y133550D01*
X486950Y108150D02*
X525050Y108150D01*
D13*
X493300Y578050D03*
X518700Y578050D03*
X518700Y552650D03*
X493300Y552650D03*
X518700Y527250D03*
X493300Y527250D03*
X518700Y501850D03*
X518700Y476450D03*
X518700Y451050D03*
X493300Y501850D03*
X493300Y476450D03*
X493300Y451050D03*
X518700Y425650D03*
X493300Y425650D03*
X518700Y400250D03*
X493300Y400250D03*
X518700Y374850D03*
X493300Y374850D03*
X518700Y349450D03*
X493300Y349450D03*
X518700Y324050D03*
X493300Y324050D03*
X518700Y298650D03*
X493300Y298650D03*
X518700Y273250D03*
X493300Y273250D03*
X518700Y247850D03*
X493300Y247850D03*
X518700Y222450D03*
X493300Y222450D03*
X518700Y197050D03*
X493300Y197050D03*
X518700Y171650D03*
X493300Y171650D03*
X518700Y146250D03*
X493300Y146250D03*
X518700Y120850D03*
X493300Y120850D03*
D12*
X190500Y596900D02*
X190500Y622300D01*
X190500Y596900D02*
X213360Y596900D01*
X215900Y599440D01*
X218440Y596900D01*
X238760Y596900D01*
X241300Y599440D01*
X243840Y596900D01*
X264160Y596900D01*
X266700Y599440D01*
X269240Y596900D01*
X289560Y596900D01*
X292100Y599440D01*
X294640Y596900D01*
X314960Y596900D01*
X320040Y596900D02*
X342900Y596900D01*
X342900Y622300D01*
X320040Y622300D01*
X314960Y622300D02*
X294640Y622300D01*
X292100Y619760D01*
X289560Y622300D01*
X269240Y622300D01*
X266700Y619760D01*
X264160Y622300D01*
X243840Y622300D01*
X241300Y619760D01*
X238760Y622300D01*
X218440Y622300D01*
X215900Y619760D01*
X213360Y622300D01*
X190500Y622300D01*
X200660Y617220D02*
X200660Y614680D01*
X198120Y614680D01*
X198120Y604520D01*
X200660Y604520D01*
X200660Y601980D01*
X205740Y601980D01*
X205740Y604520D01*
X208280Y604520D01*
X208280Y614680D01*
X205740Y614680D01*
X205740Y617220D01*
X200660Y617220D01*
X226060Y617220D02*
X226060Y614680D01*
X223520Y614680D01*
X223520Y604520D01*
X226060Y604520D01*
X226060Y601980D01*
X231140Y601980D01*
X231140Y604520D01*
X233680Y604520D01*
X233680Y614680D01*
X231140Y614680D01*
X231140Y617220D01*
X226060Y617220D01*
X251460Y617220D02*
X251460Y614680D01*
X248920Y614680D01*
X248920Y604520D01*
X251460Y604520D01*
X251460Y601980D01*
X256540Y601980D01*
X256540Y604520D01*
X259080Y604520D01*
X259080Y614680D01*
X256540Y614680D01*
X256540Y617220D01*
X251460Y617220D01*
X276860Y617220D02*
X276860Y614680D01*
X274320Y614680D01*
X274320Y604520D01*
X276860Y604520D01*
X276860Y601980D01*
X281940Y601980D01*
X281940Y604520D01*
X284480Y604520D01*
X284480Y614680D01*
X281940Y614680D01*
X281940Y617220D01*
X276860Y617220D01*
X302260Y617220D02*
X302260Y614680D01*
X299720Y614680D01*
X299720Y604520D01*
X302260Y604520D01*
X302260Y601980D01*
X307340Y601980D01*
X307340Y604520D01*
X309880Y604520D01*
X309880Y614680D01*
X307340Y614680D01*
X307340Y617220D01*
X302260Y617220D01*
X317500Y619760D02*
X320040Y622300D01*
X317500Y619760D02*
X314960Y622300D01*
X317500Y599440D02*
X320040Y596900D01*
X317500Y599440D02*
X314960Y596900D01*
X327660Y614680D02*
X327660Y617220D01*
X327660Y614680D02*
X325120Y614680D01*
X325120Y604520D01*
X327660Y604520D01*
X327660Y601980D01*
X332740Y601980D01*
X332740Y604520D01*
X335280Y604520D01*
X335280Y614680D01*
X332740Y614680D01*
X332740Y617220D01*
X327660Y617220D01*
D14*
X202568Y636915D02*
X198755Y633102D01*
X202568Y636915D02*
X202568Y625475D01*
X198755Y625475D02*
X206382Y625475D01*
X329568Y635008D02*
X333382Y636915D01*
X329568Y635008D02*
X325755Y631195D01*
X325755Y627382D01*
X327662Y625475D01*
X331475Y625475D01*
X333382Y627382D01*
X333382Y629288D01*
X331475Y631195D01*
X325755Y631195D01*
D15*
X203200Y614680D03*
X203200Y604520D03*
X228600Y614680D03*
X228600Y604520D03*
X254000Y614680D03*
X254000Y604520D03*
X279400Y614680D03*
X279400Y604520D03*
X304800Y614680D03*
X304800Y604520D03*
X330200Y614680D03*
X330200Y604520D03*
D14*
X330835Y575945D02*
X334648Y575945D01*
X332742Y575945D02*
X332742Y587385D01*
X334648Y587385D02*
X330835Y587385D01*
X338631Y575945D02*
X346257Y575945D01*
X338631Y575945D02*
X346257Y583572D01*
X346257Y585478D01*
X344351Y587385D01*
X340538Y587385D01*
X338631Y585478D01*
X356045Y587385D02*
X357951Y585478D01*
X356045Y587385D02*
X352232Y587385D01*
X350325Y585478D01*
X350325Y577852D01*
X352232Y575945D01*
X356045Y575945D01*
X357951Y577852D01*
D12*
X351790Y469900D02*
X351790Y292100D01*
X410210Y292100D02*
X410210Y469900D01*
X351790Y469900D01*
X351790Y292100D02*
X370840Y292100D01*
X391160Y292100D02*
X410210Y292100D01*
X391160Y292100D02*
X391157Y292347D01*
X391148Y292595D01*
X391133Y292842D01*
X391112Y293088D01*
X391085Y293334D01*
X391052Y293579D01*
X391013Y293824D01*
X390968Y294067D01*
X390917Y294309D01*
X390860Y294550D01*
X390798Y294789D01*
X390729Y295027D01*
X390655Y295263D01*
X390575Y295497D01*
X390490Y295729D01*
X390398Y295959D01*
X390302Y296187D01*
X390199Y296412D01*
X390092Y296635D01*
X389978Y296855D01*
X389860Y297072D01*
X389736Y297287D01*
X389607Y297498D01*
X389473Y297706D01*
X389334Y297911D01*
X389190Y298112D01*
X389042Y298310D01*
X388888Y298504D01*
X388730Y298694D01*
X388567Y298880D01*
X388400Y299062D01*
X388228Y299240D01*
X388052Y299414D01*
X387872Y299584D01*
X387687Y299749D01*
X387499Y299909D01*
X387307Y300065D01*
X387111Y300217D01*
X386912Y300363D01*
X386709Y300505D01*
X386502Y300641D01*
X386293Y300773D01*
X386080Y300899D01*
X385864Y301020D01*
X385646Y301136D01*
X385424Y301246D01*
X385200Y301351D01*
X384974Y301451D01*
X384745Y301545D01*
X384514Y301633D01*
X384280Y301716D01*
X384045Y301793D01*
X383808Y301864D01*
X383570Y301930D01*
X383330Y301989D01*
X383088Y302043D01*
X382845Y302091D01*
X382602Y302133D01*
X382357Y302169D01*
X382111Y302199D01*
X381865Y302223D01*
X381618Y302241D01*
X381371Y302253D01*
X381124Y302259D01*
X380876Y302259D01*
X380629Y302253D01*
X380382Y302241D01*
X380135Y302223D01*
X379889Y302199D01*
X379643Y302169D01*
X379398Y302133D01*
X379155Y302091D01*
X378912Y302043D01*
X378670Y301989D01*
X378430Y301930D01*
X378192Y301864D01*
X377955Y301793D01*
X377720Y301716D01*
X377486Y301633D01*
X377255Y301545D01*
X377026Y301451D01*
X376800Y301351D01*
X376576Y301246D01*
X376354Y301136D01*
X376136Y301020D01*
X375920Y300899D01*
X375707Y300773D01*
X375498Y300641D01*
X375291Y300505D01*
X375088Y300363D01*
X374889Y300217D01*
X374693Y300065D01*
X374501Y299909D01*
X374313Y299749D01*
X374128Y299584D01*
X373948Y299414D01*
X373772Y299240D01*
X373600Y299062D01*
X373433Y298880D01*
X373270Y298694D01*
X373112Y298504D01*
X372958Y298310D01*
X372810Y298112D01*
X372666Y297911D01*
X372527Y297706D01*
X372393Y297498D01*
X372264Y297287D01*
X372140Y297072D01*
X372022Y296855D01*
X371908Y296635D01*
X371801Y296412D01*
X371698Y296187D01*
X371602Y295959D01*
X371510Y295729D01*
X371425Y295497D01*
X371345Y295263D01*
X371271Y295027D01*
X371202Y294789D01*
X371140Y294550D01*
X371083Y294309D01*
X371032Y294067D01*
X370987Y293824D01*
X370948Y293579D01*
X370915Y293334D01*
X370888Y293088D01*
X370867Y292842D01*
X370852Y292595D01*
X370843Y292347D01*
X370840Y292100D01*
D14*
X372044Y276225D02*
X368231Y276225D01*
X370138Y276225D02*
X370138Y287665D01*
X372044Y287665D02*
X368231Y287665D01*
X381747Y287665D02*
X383654Y285758D01*
X381747Y287665D02*
X377934Y287665D01*
X376027Y285758D01*
X376027Y278132D01*
X377934Y276225D01*
X381747Y276225D01*
X383654Y278132D01*
X387721Y283852D02*
X391534Y287665D01*
X391534Y276225D01*
X387721Y276225D02*
X395347Y276225D01*
D16*
X338012Y493014D02*
X335639Y493014D01*
X338012Y493014D02*
X339198Y494200D01*
X339198Y496573D01*
X338012Y497759D01*
X335639Y497759D01*
X334453Y496573D01*
X334453Y494200D01*
X335639Y493014D01*
X341469Y490641D02*
X341469Y497759D01*
X345028Y497759D01*
X346215Y496573D01*
X346215Y494200D01*
X345028Y493014D01*
X341469Y493014D01*
X349672Y493014D02*
X352045Y493014D01*
X349672Y493014D02*
X348486Y494200D01*
X348486Y496573D01*
X349672Y497759D01*
X352045Y497759D01*
X353231Y496573D01*
X353231Y495387D01*
X348486Y495387D01*
X355502Y493014D02*
X355502Y497759D01*
X359061Y497759D01*
X360248Y496573D01*
X360248Y493014D01*
X369535Y493014D02*
X373094Y493014D01*
X374280Y494200D01*
X373094Y495387D01*
X370721Y495387D01*
X369535Y496573D01*
X370721Y497759D01*
X374280Y497759D01*
X377738Y493014D02*
X380110Y493014D01*
X381297Y494200D01*
X381297Y496573D01*
X380110Y497759D01*
X377738Y497759D01*
X376551Y496573D01*
X376551Y494200D01*
X377738Y493014D01*
X383568Y494200D02*
X383568Y497759D01*
X383568Y494200D02*
X384754Y493014D01*
X388313Y493014D01*
X388313Y497759D01*
X390584Y497759D02*
X390584Y493014D01*
X390584Y495387D02*
X392957Y497759D01*
X394143Y497759D01*
X397617Y497759D02*
X401176Y497759D01*
X397617Y497759D02*
X396431Y496573D01*
X396431Y494200D01*
X397617Y493014D01*
X401176Y493014D01*
X404634Y493014D02*
X407006Y493014D01*
X404634Y493014D02*
X403447Y494200D01*
X403447Y496573D01*
X404634Y497759D01*
X407006Y497759D01*
X408193Y496573D01*
X408193Y495387D01*
X403447Y495387D01*
X348486Y488702D02*
X348486Y481584D01*
X348486Y485143D02*
X349672Y486329D01*
X352045Y486329D01*
X353231Y485143D01*
X353231Y481584D01*
X356689Y486329D02*
X359061Y486329D01*
X360248Y485143D01*
X360248Y481584D01*
X356689Y481584D01*
X355502Y482770D01*
X356689Y483957D01*
X360248Y483957D01*
X362519Y486329D02*
X362519Y481584D01*
X362519Y483957D02*
X364891Y486329D01*
X366078Y486329D01*
X373111Y488702D02*
X373111Y481584D01*
X369552Y481584D01*
X368366Y482770D01*
X368366Y485143D01*
X369552Y486329D01*
X373111Y486329D01*
X375382Y486329D02*
X375382Y482770D01*
X376568Y481584D01*
X377755Y482770D01*
X378941Y481584D01*
X380127Y482770D01*
X380127Y486329D01*
X383585Y486329D02*
X385957Y486329D01*
X387144Y485143D01*
X387144Y481584D01*
X383585Y481584D01*
X382398Y482770D01*
X383585Y483957D01*
X387144Y483957D01*
X389415Y486329D02*
X389415Y481584D01*
X389415Y483957D02*
X391787Y486329D01*
X392974Y486329D01*
X396448Y481584D02*
X398821Y481584D01*
X396448Y481584D02*
X395262Y482770D01*
X395262Y485143D01*
X396448Y486329D01*
X398821Y486329D01*
X400007Y485143D01*
X400007Y483957D01*
X395262Y483957D01*
D12*
X361950Y254000D02*
X349250Y254000D01*
X361950Y254000D02*
X368300Y247650D01*
X368300Y234950D02*
X361950Y228600D01*
X368300Y247650D02*
X374650Y254000D01*
X387350Y254000D01*
X393700Y247650D01*
X393700Y234950D02*
X387350Y228600D01*
X374650Y228600D01*
X368300Y234950D01*
X342900Y234950D02*
X342900Y247650D01*
X349250Y254000D01*
X342900Y234950D02*
X349250Y228600D01*
X361950Y228600D01*
X393700Y247650D02*
X400050Y254000D01*
X412750Y254000D01*
X419100Y247650D01*
X419100Y234950D02*
X412750Y228600D01*
X400050Y228600D01*
X393700Y234950D01*
X419100Y234950D02*
X419100Y247650D01*
D14*
X334648Y247025D02*
X330835Y243212D01*
X334648Y247025D02*
X334648Y235585D01*
X330835Y235585D02*
X338462Y235585D01*
D13*
X381000Y241300D03*
X355600Y241300D03*
X406400Y241300D03*
D14*
X351162Y219085D02*
X343535Y219085D01*
X343535Y207645D01*
X351162Y207645D01*
X347348Y213365D02*
X343535Y213365D01*
X355229Y219085D02*
X362855Y207645D01*
X355229Y207645D02*
X362855Y219085D01*
X370736Y219085D02*
X370736Y207645D01*
X366923Y219085D02*
X374549Y219085D01*
X378617Y205738D02*
X386243Y205738D01*
X390311Y211458D02*
X390311Y219085D01*
X390311Y211458D02*
X394124Y207645D01*
X397937Y211458D01*
X397937Y219085D01*
X407725Y219085D02*
X409631Y217178D01*
X407725Y219085D02*
X403911Y219085D01*
X402005Y217178D01*
X402005Y215272D01*
X403911Y213365D01*
X407725Y213365D01*
X409631Y211458D01*
X409631Y209552D01*
X407725Y207645D01*
X403911Y207645D01*
X402005Y209552D01*
X413699Y219085D02*
X421325Y219085D01*
X413699Y219085D02*
X413699Y207645D01*
X421325Y207645D01*
X417512Y213365D02*
X413699Y213365D01*
X425393Y219085D02*
X425393Y207645D01*
X433019Y207645D01*
D17*
X433100Y125200D02*
X328900Y125200D01*
X433100Y125200D02*
X433100Y154200D01*
X328900Y154200D01*
X328900Y125200D01*
D12*
X330000Y150700D02*
X432000Y150700D01*
X347980Y146050D02*
X336550Y134620D01*
X360680Y137160D02*
X375920Y140970D01*
X388620Y146050D02*
X398780Y133350D01*
X411480Y143510D02*
X426720Y135890D01*
X334010Y139700D02*
X334013Y139918D01*
X334021Y140136D01*
X334034Y140354D01*
X334053Y140571D01*
X334077Y140788D01*
X334106Y141004D01*
X334141Y141220D01*
X334181Y141434D01*
X334226Y141648D01*
X334276Y141860D01*
X334332Y142071D01*
X334393Y142281D01*
X334459Y142489D01*
X334530Y142695D01*
X334606Y142899D01*
X334687Y143102D01*
X334773Y143303D01*
X334864Y143501D01*
X334959Y143697D01*
X335060Y143891D01*
X335165Y144082D01*
X335275Y144270D01*
X335389Y144456D01*
X335508Y144639D01*
X335632Y144819D01*
X335759Y144996D01*
X335892Y145169D01*
X336028Y145340D01*
X336168Y145507D01*
X336313Y145670D01*
X336461Y145830D01*
X336614Y145986D01*
X336770Y146139D01*
X336930Y146287D01*
X337093Y146432D01*
X337260Y146572D01*
X337431Y146708D01*
X337604Y146841D01*
X337781Y146968D01*
X337961Y147092D01*
X338144Y147211D01*
X338330Y147325D01*
X338518Y147435D01*
X338709Y147540D01*
X338903Y147641D01*
X339099Y147736D01*
X339297Y147827D01*
X339498Y147913D01*
X339701Y147994D01*
X339905Y148070D01*
X340111Y148141D01*
X340319Y148207D01*
X340529Y148268D01*
X340740Y148324D01*
X340952Y148374D01*
X341166Y148419D01*
X341380Y148459D01*
X341596Y148494D01*
X341812Y148523D01*
X342029Y148547D01*
X342246Y148566D01*
X342464Y148579D01*
X342682Y148587D01*
X342900Y148590D01*
X343118Y148587D01*
X343336Y148579D01*
X343554Y148566D01*
X343771Y148547D01*
X343988Y148523D01*
X344204Y148494D01*
X344420Y148459D01*
X344634Y148419D01*
X344848Y148374D01*
X345060Y148324D01*
X345271Y148268D01*
X345481Y148207D01*
X345689Y148141D01*
X345895Y148070D01*
X346099Y147994D01*
X346302Y147913D01*
X346503Y147827D01*
X346701Y147736D01*
X346897Y147641D01*
X347091Y147540D01*
X347282Y147435D01*
X347470Y147325D01*
X347656Y147211D01*
X347839Y147092D01*
X348019Y146968D01*
X348196Y146841D01*
X348369Y146708D01*
X348540Y146572D01*
X348707Y146432D01*
X348870Y146287D01*
X349030Y146139D01*
X349186Y145986D01*
X349339Y145830D01*
X349487Y145670D01*
X349632Y145507D01*
X349772Y145340D01*
X349908Y145169D01*
X350041Y144996D01*
X350168Y144819D01*
X350292Y144639D01*
X350411Y144456D01*
X350525Y144270D01*
X350635Y144082D01*
X350740Y143891D01*
X350841Y143697D01*
X350936Y143501D01*
X351027Y143303D01*
X351113Y143102D01*
X351194Y142899D01*
X351270Y142695D01*
X351341Y142489D01*
X351407Y142281D01*
X351468Y142071D01*
X351524Y141860D01*
X351574Y141648D01*
X351619Y141434D01*
X351659Y141220D01*
X351694Y141004D01*
X351723Y140788D01*
X351747Y140571D01*
X351766Y140354D01*
X351779Y140136D01*
X351787Y139918D01*
X351790Y139700D01*
X351787Y139482D01*
X351779Y139264D01*
X351766Y139046D01*
X351747Y138829D01*
X351723Y138612D01*
X351694Y138396D01*
X351659Y138180D01*
X351619Y137966D01*
X351574Y137752D01*
X351524Y137540D01*
X351468Y137329D01*
X351407Y137119D01*
X351341Y136911D01*
X351270Y136705D01*
X351194Y136501D01*
X351113Y136298D01*
X351027Y136097D01*
X350936Y135899D01*
X350841Y135703D01*
X350740Y135509D01*
X350635Y135318D01*
X350525Y135130D01*
X350411Y134944D01*
X350292Y134761D01*
X350168Y134581D01*
X350041Y134404D01*
X349908Y134231D01*
X349772Y134060D01*
X349632Y133893D01*
X349487Y133730D01*
X349339Y133570D01*
X349186Y133414D01*
X349030Y133261D01*
X348870Y133113D01*
X348707Y132968D01*
X348540Y132828D01*
X348369Y132692D01*
X348196Y132559D01*
X348019Y132432D01*
X347839Y132308D01*
X347656Y132189D01*
X347470Y132075D01*
X347282Y131965D01*
X347091Y131860D01*
X346897Y131759D01*
X346701Y131664D01*
X346503Y131573D01*
X346302Y131487D01*
X346099Y131406D01*
X345895Y131330D01*
X345689Y131259D01*
X345481Y131193D01*
X345271Y131132D01*
X345060Y131076D01*
X344848Y131026D01*
X344634Y130981D01*
X344420Y130941D01*
X344204Y130906D01*
X343988Y130877D01*
X343771Y130853D01*
X343554Y130834D01*
X343336Y130821D01*
X343118Y130813D01*
X342900Y130810D01*
X342682Y130813D01*
X342464Y130821D01*
X342246Y130834D01*
X342029Y130853D01*
X341812Y130877D01*
X341596Y130906D01*
X341380Y130941D01*
X341166Y130981D01*
X340952Y131026D01*
X340740Y131076D01*
X340529Y131132D01*
X340319Y131193D01*
X340111Y131259D01*
X339905Y131330D01*
X339701Y131406D01*
X339498Y131487D01*
X339297Y131573D01*
X339099Y131664D01*
X338903Y131759D01*
X338709Y131860D01*
X338518Y131965D01*
X338330Y132075D01*
X338144Y132189D01*
X337961Y132308D01*
X337781Y132432D01*
X337604Y132559D01*
X337431Y132692D01*
X337260Y132828D01*
X337093Y132968D01*
X336930Y133113D01*
X336770Y133261D01*
X336614Y133414D01*
X336461Y133570D01*
X336313Y133730D01*
X336168Y133893D01*
X336028Y134060D01*
X335892Y134231D01*
X335759Y134404D01*
X335632Y134581D01*
X335508Y134761D01*
X335389Y134944D01*
X335275Y135130D01*
X335165Y135318D01*
X335060Y135509D01*
X334959Y135703D01*
X334864Y135899D01*
X334773Y136097D01*
X334687Y136298D01*
X334606Y136501D01*
X334530Y136705D01*
X334459Y136911D01*
X334393Y137119D01*
X334332Y137329D01*
X334276Y137540D01*
X334226Y137752D01*
X334181Y137966D01*
X334141Y138180D01*
X334106Y138396D01*
X334077Y138612D01*
X334053Y138829D01*
X334034Y139046D01*
X334021Y139264D01*
X334013Y139482D01*
X334010Y139700D01*
X359410Y139700D02*
X359413Y139918D01*
X359421Y140136D01*
X359434Y140354D01*
X359453Y140571D01*
X359477Y140788D01*
X359506Y141004D01*
X359541Y141220D01*
X359581Y141434D01*
X359626Y141648D01*
X359676Y141860D01*
X359732Y142071D01*
X359793Y142281D01*
X359859Y142489D01*
X359930Y142695D01*
X360006Y142899D01*
X360087Y143102D01*
X360173Y143303D01*
X360264Y143501D01*
X360359Y143697D01*
X360460Y143891D01*
X360565Y144082D01*
X360675Y144270D01*
X360789Y144456D01*
X360908Y144639D01*
X361032Y144819D01*
X361159Y144996D01*
X361292Y145169D01*
X361428Y145340D01*
X361568Y145507D01*
X361713Y145670D01*
X361861Y145830D01*
X362014Y145986D01*
X362170Y146139D01*
X362330Y146287D01*
X362493Y146432D01*
X362660Y146572D01*
X362831Y146708D01*
X363004Y146841D01*
X363181Y146968D01*
X363361Y147092D01*
X363544Y147211D01*
X363730Y147325D01*
X363918Y147435D01*
X364109Y147540D01*
X364303Y147641D01*
X364499Y147736D01*
X364697Y147827D01*
X364898Y147913D01*
X365101Y147994D01*
X365305Y148070D01*
X365511Y148141D01*
X365719Y148207D01*
X365929Y148268D01*
X366140Y148324D01*
X366352Y148374D01*
X366566Y148419D01*
X366780Y148459D01*
X366996Y148494D01*
X367212Y148523D01*
X367429Y148547D01*
X367646Y148566D01*
X367864Y148579D01*
X368082Y148587D01*
X368300Y148590D01*
X368518Y148587D01*
X368736Y148579D01*
X368954Y148566D01*
X369171Y148547D01*
X369388Y148523D01*
X369604Y148494D01*
X369820Y148459D01*
X370034Y148419D01*
X370248Y148374D01*
X370460Y148324D01*
X370671Y148268D01*
X370881Y148207D01*
X371089Y148141D01*
X371295Y148070D01*
X371499Y147994D01*
X371702Y147913D01*
X371903Y147827D01*
X372101Y147736D01*
X372297Y147641D01*
X372491Y147540D01*
X372682Y147435D01*
X372870Y147325D01*
X373056Y147211D01*
X373239Y147092D01*
X373419Y146968D01*
X373596Y146841D01*
X373769Y146708D01*
X373940Y146572D01*
X374107Y146432D01*
X374270Y146287D01*
X374430Y146139D01*
X374586Y145986D01*
X374739Y145830D01*
X374887Y145670D01*
X375032Y145507D01*
X375172Y145340D01*
X375308Y145169D01*
X375441Y144996D01*
X375568Y144819D01*
X375692Y144639D01*
X375811Y144456D01*
X375925Y144270D01*
X376035Y144082D01*
X376140Y143891D01*
X376241Y143697D01*
X376336Y143501D01*
X376427Y143303D01*
X376513Y143102D01*
X376594Y142899D01*
X376670Y142695D01*
X376741Y142489D01*
X376807Y142281D01*
X376868Y142071D01*
X376924Y141860D01*
X376974Y141648D01*
X377019Y141434D01*
X377059Y141220D01*
X377094Y141004D01*
X377123Y140788D01*
X377147Y140571D01*
X377166Y140354D01*
X377179Y140136D01*
X377187Y139918D01*
X377190Y139700D01*
X377187Y139482D01*
X377179Y139264D01*
X377166Y139046D01*
X377147Y138829D01*
X377123Y138612D01*
X377094Y138396D01*
X377059Y138180D01*
X377019Y137966D01*
X376974Y137752D01*
X376924Y137540D01*
X376868Y137329D01*
X376807Y137119D01*
X376741Y136911D01*
X376670Y136705D01*
X376594Y136501D01*
X376513Y136298D01*
X376427Y136097D01*
X376336Y135899D01*
X376241Y135703D01*
X376140Y135509D01*
X376035Y135318D01*
X375925Y135130D01*
X375811Y134944D01*
X375692Y134761D01*
X375568Y134581D01*
X375441Y134404D01*
X375308Y134231D01*
X375172Y134060D01*
X375032Y133893D01*
X374887Y133730D01*
X374739Y133570D01*
X374586Y133414D01*
X374430Y133261D01*
X374270Y133113D01*
X374107Y132968D01*
X373940Y132828D01*
X373769Y132692D01*
X373596Y132559D01*
X373419Y132432D01*
X373239Y132308D01*
X373056Y132189D01*
X372870Y132075D01*
X372682Y131965D01*
X372491Y131860D01*
X372297Y131759D01*
X372101Y131664D01*
X371903Y131573D01*
X371702Y131487D01*
X371499Y131406D01*
X371295Y131330D01*
X371089Y131259D01*
X370881Y131193D01*
X370671Y131132D01*
X370460Y131076D01*
X370248Y131026D01*
X370034Y130981D01*
X369820Y130941D01*
X369604Y130906D01*
X369388Y130877D01*
X369171Y130853D01*
X368954Y130834D01*
X368736Y130821D01*
X368518Y130813D01*
X368300Y130810D01*
X368082Y130813D01*
X367864Y130821D01*
X367646Y130834D01*
X367429Y130853D01*
X367212Y130877D01*
X366996Y130906D01*
X366780Y130941D01*
X366566Y130981D01*
X366352Y131026D01*
X366140Y131076D01*
X365929Y131132D01*
X365719Y131193D01*
X365511Y131259D01*
X365305Y131330D01*
X365101Y131406D01*
X364898Y131487D01*
X364697Y131573D01*
X364499Y131664D01*
X364303Y131759D01*
X364109Y131860D01*
X363918Y131965D01*
X363730Y132075D01*
X363544Y132189D01*
X363361Y132308D01*
X363181Y132432D01*
X363004Y132559D01*
X362831Y132692D01*
X362660Y132828D01*
X362493Y132968D01*
X362330Y133113D01*
X362170Y133261D01*
X362014Y133414D01*
X361861Y133570D01*
X361713Y133730D01*
X361568Y133893D01*
X361428Y134060D01*
X361292Y134231D01*
X361159Y134404D01*
X361032Y134581D01*
X360908Y134761D01*
X360789Y134944D01*
X360675Y135130D01*
X360565Y135318D01*
X360460Y135509D01*
X360359Y135703D01*
X360264Y135899D01*
X360173Y136097D01*
X360087Y136298D01*
X360006Y136501D01*
X359930Y136705D01*
X359859Y136911D01*
X359793Y137119D01*
X359732Y137329D01*
X359676Y137540D01*
X359626Y137752D01*
X359581Y137966D01*
X359541Y138180D01*
X359506Y138396D01*
X359477Y138612D01*
X359453Y138829D01*
X359434Y139046D01*
X359421Y139264D01*
X359413Y139482D01*
X359410Y139700D01*
X384810Y139700D02*
X384813Y139918D01*
X384821Y140136D01*
X384834Y140354D01*
X384853Y140571D01*
X384877Y140788D01*
X384906Y141004D01*
X384941Y141220D01*
X384981Y141434D01*
X385026Y141648D01*
X385076Y141860D01*
X385132Y142071D01*
X385193Y142281D01*
X385259Y142489D01*
X385330Y142695D01*
X385406Y142899D01*
X385487Y143102D01*
X385573Y143303D01*
X385664Y143501D01*
X385759Y143697D01*
X385860Y143891D01*
X385965Y144082D01*
X386075Y144270D01*
X386189Y144456D01*
X386308Y144639D01*
X386432Y144819D01*
X386559Y144996D01*
X386692Y145169D01*
X386828Y145340D01*
X386968Y145507D01*
X387113Y145670D01*
X387261Y145830D01*
X387414Y145986D01*
X387570Y146139D01*
X387730Y146287D01*
X387893Y146432D01*
X388060Y146572D01*
X388231Y146708D01*
X388404Y146841D01*
X388581Y146968D01*
X388761Y147092D01*
X388944Y147211D01*
X389130Y147325D01*
X389318Y147435D01*
X389509Y147540D01*
X389703Y147641D01*
X389899Y147736D01*
X390097Y147827D01*
X390298Y147913D01*
X390501Y147994D01*
X390705Y148070D01*
X390911Y148141D01*
X391119Y148207D01*
X391329Y148268D01*
X391540Y148324D01*
X391752Y148374D01*
X391966Y148419D01*
X392180Y148459D01*
X392396Y148494D01*
X392612Y148523D01*
X392829Y148547D01*
X393046Y148566D01*
X393264Y148579D01*
X393482Y148587D01*
X393700Y148590D01*
X393918Y148587D01*
X394136Y148579D01*
X394354Y148566D01*
X394571Y148547D01*
X394788Y148523D01*
X395004Y148494D01*
X395220Y148459D01*
X395434Y148419D01*
X395648Y148374D01*
X395860Y148324D01*
X396071Y148268D01*
X396281Y148207D01*
X396489Y148141D01*
X396695Y148070D01*
X396899Y147994D01*
X397102Y147913D01*
X397303Y147827D01*
X397501Y147736D01*
X397697Y147641D01*
X397891Y147540D01*
X398082Y147435D01*
X398270Y147325D01*
X398456Y147211D01*
X398639Y147092D01*
X398819Y146968D01*
X398996Y146841D01*
X399169Y146708D01*
X399340Y146572D01*
X399507Y146432D01*
X399670Y146287D01*
X399830Y146139D01*
X399986Y145986D01*
X400139Y145830D01*
X400287Y145670D01*
X400432Y145507D01*
X400572Y145340D01*
X400708Y145169D01*
X400841Y144996D01*
X400968Y144819D01*
X401092Y144639D01*
X401211Y144456D01*
X401325Y144270D01*
X401435Y144082D01*
X401540Y143891D01*
X401641Y143697D01*
X401736Y143501D01*
X401827Y143303D01*
X401913Y143102D01*
X401994Y142899D01*
X402070Y142695D01*
X402141Y142489D01*
X402207Y142281D01*
X402268Y142071D01*
X402324Y141860D01*
X402374Y141648D01*
X402419Y141434D01*
X402459Y141220D01*
X402494Y141004D01*
X402523Y140788D01*
X402547Y140571D01*
X402566Y140354D01*
X402579Y140136D01*
X402587Y139918D01*
X402590Y139700D01*
X402587Y139482D01*
X402579Y139264D01*
X402566Y139046D01*
X402547Y138829D01*
X402523Y138612D01*
X402494Y138396D01*
X402459Y138180D01*
X402419Y137966D01*
X402374Y137752D01*
X402324Y137540D01*
X402268Y137329D01*
X402207Y137119D01*
X402141Y136911D01*
X402070Y136705D01*
X401994Y136501D01*
X401913Y136298D01*
X401827Y136097D01*
X401736Y135899D01*
X401641Y135703D01*
X401540Y135509D01*
X401435Y135318D01*
X401325Y135130D01*
X401211Y134944D01*
X401092Y134761D01*
X400968Y134581D01*
X400841Y134404D01*
X400708Y134231D01*
X400572Y134060D01*
X400432Y133893D01*
X400287Y133730D01*
X400139Y133570D01*
X399986Y133414D01*
X399830Y133261D01*
X399670Y133113D01*
X399507Y132968D01*
X399340Y132828D01*
X399169Y132692D01*
X398996Y132559D01*
X398819Y132432D01*
X398639Y132308D01*
X398456Y132189D01*
X398270Y132075D01*
X398082Y131965D01*
X397891Y131860D01*
X397697Y131759D01*
X397501Y131664D01*
X397303Y131573D01*
X397102Y131487D01*
X396899Y131406D01*
X396695Y131330D01*
X396489Y131259D01*
X396281Y131193D01*
X396071Y131132D01*
X395860Y131076D01*
X395648Y131026D01*
X395434Y130981D01*
X395220Y130941D01*
X395004Y130906D01*
X394788Y130877D01*
X394571Y130853D01*
X394354Y130834D01*
X394136Y130821D01*
X393918Y130813D01*
X393700Y130810D01*
X393482Y130813D01*
X393264Y130821D01*
X393046Y130834D01*
X392829Y130853D01*
X392612Y130877D01*
X392396Y130906D01*
X392180Y130941D01*
X391966Y130981D01*
X391752Y131026D01*
X391540Y131076D01*
X391329Y131132D01*
X391119Y131193D01*
X390911Y131259D01*
X390705Y131330D01*
X390501Y131406D01*
X390298Y131487D01*
X390097Y131573D01*
X389899Y131664D01*
X389703Y131759D01*
X389509Y131860D01*
X389318Y131965D01*
X389130Y132075D01*
X388944Y132189D01*
X388761Y132308D01*
X388581Y132432D01*
X388404Y132559D01*
X388231Y132692D01*
X388060Y132828D01*
X387893Y132968D01*
X387730Y133113D01*
X387570Y133261D01*
X387414Y133414D01*
X387261Y133570D01*
X387113Y133730D01*
X386968Y133893D01*
X386828Y134060D01*
X386692Y134231D01*
X386559Y134404D01*
X386432Y134581D01*
X386308Y134761D01*
X386189Y134944D01*
X386075Y135130D01*
X385965Y135318D01*
X385860Y135509D01*
X385759Y135703D01*
X385664Y135899D01*
X385573Y136097D01*
X385487Y136298D01*
X385406Y136501D01*
X385330Y136705D01*
X385259Y136911D01*
X385193Y137119D01*
X385132Y137329D01*
X385076Y137540D01*
X385026Y137752D01*
X384981Y137966D01*
X384941Y138180D01*
X384906Y138396D01*
X384877Y138612D01*
X384853Y138829D01*
X384834Y139046D01*
X384821Y139264D01*
X384813Y139482D01*
X384810Y139700D01*
X410210Y139700D02*
X410213Y139918D01*
X410221Y140136D01*
X410234Y140354D01*
X410253Y140571D01*
X410277Y140788D01*
X410306Y141004D01*
X410341Y141220D01*
X410381Y141434D01*
X410426Y141648D01*
X410476Y141860D01*
X410532Y142071D01*
X410593Y142281D01*
X410659Y142489D01*
X410730Y142695D01*
X410806Y142899D01*
X410887Y143102D01*
X410973Y143303D01*
X411064Y143501D01*
X411159Y143697D01*
X411260Y143891D01*
X411365Y144082D01*
X411475Y144270D01*
X411589Y144456D01*
X411708Y144639D01*
X411832Y144819D01*
X411959Y144996D01*
X412092Y145169D01*
X412228Y145340D01*
X412368Y145507D01*
X412513Y145670D01*
X412661Y145830D01*
X412814Y145986D01*
X412970Y146139D01*
X413130Y146287D01*
X413293Y146432D01*
X413460Y146572D01*
X413631Y146708D01*
X413804Y146841D01*
X413981Y146968D01*
X414161Y147092D01*
X414344Y147211D01*
X414530Y147325D01*
X414718Y147435D01*
X414909Y147540D01*
X415103Y147641D01*
X415299Y147736D01*
X415497Y147827D01*
X415698Y147913D01*
X415901Y147994D01*
X416105Y148070D01*
X416311Y148141D01*
X416519Y148207D01*
X416729Y148268D01*
X416940Y148324D01*
X417152Y148374D01*
X417366Y148419D01*
X417580Y148459D01*
X417796Y148494D01*
X418012Y148523D01*
X418229Y148547D01*
X418446Y148566D01*
X418664Y148579D01*
X418882Y148587D01*
X419100Y148590D01*
X419318Y148587D01*
X419536Y148579D01*
X419754Y148566D01*
X419971Y148547D01*
X420188Y148523D01*
X420404Y148494D01*
X420620Y148459D01*
X420834Y148419D01*
X421048Y148374D01*
X421260Y148324D01*
X421471Y148268D01*
X421681Y148207D01*
X421889Y148141D01*
X422095Y148070D01*
X422299Y147994D01*
X422502Y147913D01*
X422703Y147827D01*
X422901Y147736D01*
X423097Y147641D01*
X423291Y147540D01*
X423482Y147435D01*
X423670Y147325D01*
X423856Y147211D01*
X424039Y147092D01*
X424219Y146968D01*
X424396Y146841D01*
X424569Y146708D01*
X424740Y146572D01*
X424907Y146432D01*
X425070Y146287D01*
X425230Y146139D01*
X425386Y145986D01*
X425539Y145830D01*
X425687Y145670D01*
X425832Y145507D01*
X425972Y145340D01*
X426108Y145169D01*
X426241Y144996D01*
X426368Y144819D01*
X426492Y144639D01*
X426611Y144456D01*
X426725Y144270D01*
X426835Y144082D01*
X426940Y143891D01*
X427041Y143697D01*
X427136Y143501D01*
X427227Y143303D01*
X427313Y143102D01*
X427394Y142899D01*
X427470Y142695D01*
X427541Y142489D01*
X427607Y142281D01*
X427668Y142071D01*
X427724Y141860D01*
X427774Y141648D01*
X427819Y141434D01*
X427859Y141220D01*
X427894Y141004D01*
X427923Y140788D01*
X427947Y140571D01*
X427966Y140354D01*
X427979Y140136D01*
X427987Y139918D01*
X427990Y139700D01*
X427987Y139482D01*
X427979Y139264D01*
X427966Y139046D01*
X427947Y138829D01*
X427923Y138612D01*
X427894Y138396D01*
X427859Y138180D01*
X427819Y137966D01*
X427774Y137752D01*
X427724Y137540D01*
X427668Y137329D01*
X427607Y137119D01*
X427541Y136911D01*
X427470Y136705D01*
X427394Y136501D01*
X427313Y136298D01*
X427227Y136097D01*
X427136Y135899D01*
X427041Y135703D01*
X426940Y135509D01*
X426835Y135318D01*
X426725Y135130D01*
X426611Y134944D01*
X426492Y134761D01*
X426368Y134581D01*
X426241Y134404D01*
X426108Y134231D01*
X425972Y134060D01*
X425832Y133893D01*
X425687Y133730D01*
X425539Y133570D01*
X425386Y133414D01*
X425230Y133261D01*
X425070Y133113D01*
X424907Y132968D01*
X424740Y132828D01*
X424569Y132692D01*
X424396Y132559D01*
X424219Y132432D01*
X424039Y132308D01*
X423856Y132189D01*
X423670Y132075D01*
X423482Y131965D01*
X423291Y131860D01*
X423097Y131759D01*
X422901Y131664D01*
X422703Y131573D01*
X422502Y131487D01*
X422299Y131406D01*
X422095Y131330D01*
X421889Y131259D01*
X421681Y131193D01*
X421471Y131132D01*
X421260Y131076D01*
X421048Y131026D01*
X420834Y130981D01*
X420620Y130941D01*
X420404Y130906D01*
X420188Y130877D01*
X419971Y130853D01*
X419754Y130834D01*
X419536Y130821D01*
X419318Y130813D01*
X419100Y130810D01*
X418882Y130813D01*
X418664Y130821D01*
X418446Y130834D01*
X418229Y130853D01*
X418012Y130877D01*
X417796Y130906D01*
X417580Y130941D01*
X417366Y130981D01*
X417152Y131026D01*
X416940Y131076D01*
X416729Y131132D01*
X416519Y131193D01*
X416311Y131259D01*
X416105Y131330D01*
X415901Y131406D01*
X415698Y131487D01*
X415497Y131573D01*
X415299Y131664D01*
X415103Y131759D01*
X414909Y131860D01*
X414718Y131965D01*
X414530Y132075D01*
X414344Y132189D01*
X414161Y132308D01*
X413981Y132432D01*
X413804Y132559D01*
X413631Y132692D01*
X413460Y132828D01*
X413293Y132968D01*
X413130Y133113D01*
X412970Y133261D01*
X412814Y133414D01*
X412661Y133570D01*
X412513Y133730D01*
X412368Y133893D01*
X412228Y134060D01*
X412092Y134231D01*
X411959Y134404D01*
X411832Y134581D01*
X411708Y134761D01*
X411589Y134944D01*
X411475Y135130D01*
X411365Y135318D01*
X411260Y135509D01*
X411159Y135703D01*
X411064Y135899D01*
X410973Y136097D01*
X410887Y136298D01*
X410806Y136501D01*
X410730Y136705D01*
X410659Y136911D01*
X410593Y137119D01*
X410532Y137329D01*
X410476Y137540D01*
X410426Y137752D01*
X410381Y137966D01*
X410341Y138180D01*
X410306Y138396D01*
X410277Y138612D01*
X410253Y138829D01*
X410234Y139046D01*
X410221Y139264D01*
X410213Y139482D01*
X410210Y139700D01*
D11*
X297864Y144282D02*
X290068Y144282D01*
X290068Y132588D01*
X297864Y132588D01*
X293966Y138435D02*
X290068Y138435D01*
X301762Y144282D02*
X309558Y132588D01*
X301762Y132588D02*
X309558Y144282D01*
X317354Y144282D02*
X317354Y132588D01*
X313456Y144282D02*
X321252Y144282D01*
M02*
