G04 EAGLE Gerber RS-274X export*
G75*
%MOMM*%
%FSLAX34Y34*%
%LPD*%
%IN*%
%IPPOS*%
%AMOC8*
5,1,8,0,0,1.08239X$1,22.5*%
G01*
%ADD10C,0.254000*%


D10*
X165100Y101600D02*
X593600Y101600D01*
X593600Y647600D01*
X165100Y647600D01*
X165100Y101600D01*
X587850Y628213D02*
X587774Y627344D01*
X587622Y626484D01*
X587396Y625640D01*
X587098Y624820D01*
X586729Y624028D01*
X586292Y623272D01*
X585791Y622557D01*
X585230Y621888D01*
X584612Y621270D01*
X583943Y620709D01*
X583228Y620208D01*
X582472Y619771D01*
X581680Y619402D01*
X580860Y619104D01*
X580016Y618878D01*
X579157Y618726D01*
X578287Y618650D01*
X577413Y618650D01*
X576544Y618726D01*
X575684Y618878D01*
X574840Y619104D01*
X574020Y619402D01*
X573228Y619771D01*
X572472Y620208D01*
X571757Y620709D01*
X571088Y621270D01*
X570470Y621888D01*
X569909Y622557D01*
X569408Y623272D01*
X568971Y624028D01*
X568602Y624820D01*
X568304Y625640D01*
X568078Y626484D01*
X567926Y627344D01*
X567850Y628213D01*
X567850Y629087D01*
X567926Y629957D01*
X568078Y630816D01*
X568304Y631660D01*
X568602Y632480D01*
X568971Y633272D01*
X569408Y634028D01*
X569909Y634743D01*
X570470Y635412D01*
X571088Y636030D01*
X571757Y636591D01*
X572472Y637092D01*
X573228Y637529D01*
X574020Y637898D01*
X574840Y638196D01*
X575684Y638422D01*
X576544Y638574D01*
X577413Y638650D01*
X578287Y638650D01*
X579157Y638574D01*
X580016Y638422D01*
X580860Y638196D01*
X581680Y637898D01*
X582472Y637529D01*
X583228Y637092D01*
X583943Y636591D01*
X584612Y636030D01*
X585230Y635412D01*
X585791Y634743D01*
X586292Y634028D01*
X586729Y633272D01*
X587098Y632480D01*
X587396Y631660D01*
X587622Y630816D01*
X587774Y629957D01*
X587850Y629087D01*
X587850Y628213D01*
X187800Y113863D02*
X187724Y112994D01*
X187572Y112134D01*
X187346Y111290D01*
X187048Y110470D01*
X186679Y109678D01*
X186242Y108922D01*
X185741Y108207D01*
X185180Y107538D01*
X184562Y106920D01*
X183893Y106359D01*
X183178Y105858D01*
X182422Y105421D01*
X181630Y105052D01*
X180810Y104754D01*
X179966Y104528D01*
X179107Y104376D01*
X178237Y104300D01*
X177363Y104300D01*
X176494Y104376D01*
X175634Y104528D01*
X174790Y104754D01*
X173970Y105052D01*
X173178Y105421D01*
X172422Y105858D01*
X171707Y106359D01*
X171038Y106920D01*
X170420Y107538D01*
X169859Y108207D01*
X169358Y108922D01*
X168921Y109678D01*
X168552Y110470D01*
X168254Y111290D01*
X168028Y112134D01*
X167876Y112994D01*
X167800Y113863D01*
X167800Y114737D01*
X167876Y115607D01*
X168028Y116466D01*
X168254Y117310D01*
X168552Y118130D01*
X168921Y118922D01*
X169358Y119678D01*
X169859Y120393D01*
X170420Y121062D01*
X171038Y121680D01*
X171707Y122241D01*
X172422Y122742D01*
X173178Y123179D01*
X173970Y123548D01*
X174790Y123846D01*
X175634Y124072D01*
X176494Y124224D01*
X177363Y124300D01*
X178237Y124300D01*
X179107Y124224D01*
X179966Y124072D01*
X180810Y123846D01*
X181630Y123548D01*
X182422Y123179D01*
X183178Y122742D01*
X183893Y122241D01*
X184562Y121680D01*
X185180Y121062D01*
X185741Y120393D01*
X186242Y119678D01*
X186679Y118922D01*
X187048Y118130D01*
X187346Y117310D01*
X187572Y116466D01*
X187724Y115607D01*
X187800Y114737D01*
X187800Y113863D01*
M02*
