G04 EAGLE Gerber RS-274X export*
G75*
%MOMM*%
%FSLAX34Y34*%
%LPD*%
%INSilkscreen Bottom*%
%IPPOS*%
%AMOC8*
5,1,8,0,0,1.08239X$1,22.5*%
G01*
%ADD10C,0.076200*%
%ADD11C,0.152400*%
%ADD12C,0.127000*%
%ADD13C,0.050800*%

G36*
X560240Y591072D02*
X560240Y591072D01*
X560292Y591077D01*
X560314Y591091D01*
X560325Y591093D01*
X560333Y591102D01*
X560362Y591120D01*
X561251Y591882D01*
X561252Y591883D01*
X561254Y591885D01*
X562397Y592901D01*
X562400Y592905D01*
X562408Y592911D01*
X563297Y593800D01*
X563300Y593804D01*
X563307Y593811D01*
X564323Y594954D01*
X564339Y594986D01*
X564353Y595002D01*
X564355Y595018D01*
X564379Y595057D01*
X564379Y595070D01*
X564384Y595081D01*
X564377Y595140D01*
X564376Y595198D01*
X564368Y595213D01*
X564367Y595221D01*
X564359Y595231D01*
X564339Y595271D01*
X560753Y600217D01*
X561559Y601598D01*
X561560Y601604D01*
X561567Y601613D01*
X562075Y602629D01*
X562077Y602641D01*
X562091Y602669D01*
X562472Y603939D01*
X562472Y603940D01*
X562473Y603942D01*
X562936Y605566D01*
X569001Y606556D01*
X569060Y606584D01*
X569120Y606610D01*
X569123Y606614D01*
X569128Y606617D01*
X569163Y606672D01*
X569200Y606726D01*
X569201Y606733D01*
X569203Y606736D01*
X569203Y606745D01*
X569213Y606806D01*
X569213Y612394D01*
X569195Y612457D01*
X569179Y612521D01*
X569176Y612524D01*
X569174Y612529D01*
X569125Y612573D01*
X569078Y612618D01*
X569071Y612620D01*
X569069Y612623D01*
X569060Y612624D01*
X569001Y612644D01*
X562915Y613638D01*
X562596Y614383D01*
X562219Y615763D01*
X562213Y615773D01*
X562205Y615802D01*
X561443Y617453D01*
X561437Y617460D01*
X561430Y617477D01*
X560752Y618608D01*
X564216Y623681D01*
X564236Y623740D01*
X564259Y623799D01*
X564257Y623807D01*
X564260Y623815D01*
X564245Y623876D01*
X564234Y623937D01*
X564227Y623946D01*
X564226Y623952D01*
X564217Y623960D01*
X564186Y624003D01*
X563557Y624633D01*
X562545Y625770D01*
X562541Y625773D01*
X562535Y625781D01*
X561265Y627051D01*
X561256Y627056D01*
X561241Y627072D01*
X560098Y627961D01*
X560051Y627980D01*
X560008Y628006D01*
X559987Y628005D01*
X559968Y628013D01*
X559918Y628004D01*
X559867Y628003D01*
X559841Y627989D01*
X559829Y627987D01*
X559820Y627979D01*
X559794Y627966D01*
X554847Y624379D01*
X553211Y625314D01*
X553200Y625316D01*
X553179Y625329D01*
X551909Y625837D01*
X551904Y625838D01*
X551895Y625842D01*
X550135Y626429D01*
X549144Y632375D01*
X549121Y632422D01*
X549105Y632473D01*
X549091Y632485D01*
X549083Y632502D01*
X549038Y632530D01*
X548998Y632564D01*
X548973Y632571D01*
X548963Y632577D01*
X548951Y632576D01*
X548919Y632585D01*
X547649Y632712D01*
X547641Y632711D01*
X547624Y632713D01*
X544703Y632713D01*
X544696Y632711D01*
X544682Y632712D01*
X543158Y632585D01*
X543108Y632566D01*
X543057Y632555D01*
X543044Y632542D01*
X543026Y632535D01*
X542995Y632493D01*
X542957Y632455D01*
X542949Y632431D01*
X542942Y632422D01*
X542941Y632410D01*
X542930Y632379D01*
X541817Y626321D01*
X540838Y626103D01*
X540827Y626097D01*
X540790Y626087D01*
X538504Y625071D01*
X538498Y625067D01*
X538484Y625061D01*
X537480Y624504D01*
X532403Y628095D01*
X532361Y628109D01*
X532324Y628132D01*
X532296Y628132D01*
X532270Y628141D01*
X532227Y628131D01*
X532183Y628130D01*
X532145Y628112D01*
X532133Y628109D01*
X532127Y628102D01*
X532110Y628094D01*
X531221Y627459D01*
X531216Y627453D01*
X531201Y627444D01*
X530185Y626555D01*
X530182Y626550D01*
X530173Y626543D01*
X528903Y625273D01*
X528899Y625265D01*
X528884Y625252D01*
X527868Y623982D01*
X527848Y623934D01*
X527821Y623890D01*
X527822Y623870D01*
X527814Y623852D01*
X527823Y623801D01*
X527824Y623749D01*
X527836Y623724D01*
X527838Y623713D01*
X527846Y623704D01*
X527860Y623676D01*
X531327Y618848D01*
X531272Y618738D01*
X530387Y617221D01*
X530385Y617212D01*
X530375Y617198D01*
X529740Y615801D01*
X529739Y615791D01*
X529729Y615770D01*
X529266Y614266D01*
X523194Y613151D01*
X523149Y613128D01*
X523100Y613113D01*
X523087Y613097D01*
X523068Y613088D01*
X523042Y613044D01*
X523009Y613006D01*
X523001Y612978D01*
X522995Y612967D01*
X522996Y612956D01*
X522988Y612927D01*
X522861Y611657D01*
X522861Y611656D01*
X522861Y611655D01*
X522734Y610258D01*
X522735Y610250D01*
X522733Y610235D01*
X522733Y607314D01*
X522750Y607253D01*
X522764Y607192D01*
X522770Y607186D01*
X522772Y607179D01*
X522819Y607137D01*
X522864Y607092D01*
X522873Y607089D01*
X522877Y607085D01*
X522888Y607083D01*
X522940Y607065D01*
X529003Y605951D01*
X529471Y604078D01*
X529475Y604072D01*
X529477Y604059D01*
X529985Y602535D01*
X529992Y602524D01*
X530006Y602487D01*
X530814Y601102D01*
X527223Y595901D01*
X527207Y595855D01*
X527184Y595813D01*
X527185Y595790D01*
X527178Y595767D01*
X527189Y595721D01*
X527192Y595673D01*
X527209Y595643D01*
X527212Y595630D01*
X527219Y595623D01*
X527231Y595602D01*
X528120Y594459D01*
X528125Y594455D01*
X528131Y594446D01*
X529147Y593303D01*
X529151Y593300D01*
X529157Y593292D01*
X530046Y592403D01*
X530051Y592400D01*
X530058Y592391D01*
X531074Y591502D01*
X531125Y591479D01*
X531172Y591449D01*
X531188Y591449D01*
X531202Y591443D01*
X531257Y591450D01*
X531313Y591450D01*
X531332Y591459D01*
X531342Y591461D01*
X531352Y591469D01*
X531386Y591486D01*
X536324Y594942D01*
X537705Y594022D01*
X537717Y594018D01*
X537748Y593999D01*
X539272Y593364D01*
X539289Y593362D01*
X539305Y593353D01*
X539358Y593354D01*
X539412Y593348D01*
X539428Y593356D01*
X539445Y593357D01*
X539490Y593386D01*
X539538Y593410D01*
X539548Y593425D01*
X539563Y593435D01*
X539604Y593504D01*
X543541Y603410D01*
X543547Y603474D01*
X543557Y603537D01*
X543554Y603543D01*
X543555Y603551D01*
X543526Y603608D01*
X543501Y603666D01*
X543494Y603672D01*
X543491Y603677D01*
X543482Y603682D01*
X543440Y603719D01*
X542297Y604428D01*
X541342Y605337D01*
X540592Y606422D01*
X540079Y607637D01*
X539825Y608931D01*
X539839Y610249D01*
X540123Y611537D01*
X540663Y612740D01*
X541437Y613807D01*
X542412Y614695D01*
X543548Y615365D01*
X544796Y615789D01*
X546104Y615949D01*
X547457Y615830D01*
X548752Y615423D01*
X549929Y614749D01*
X550935Y613838D01*
X551723Y612733D01*
X552256Y611485D01*
X552509Y610152D01*
X552471Y608795D01*
X552144Y607478D01*
X551542Y606262D01*
X550693Y605203D01*
X549638Y604350D01*
X548400Y603730D01*
X548349Y603683D01*
X548297Y603636D01*
X548297Y603635D01*
X548296Y603635D01*
X548278Y603567D01*
X548260Y603500D01*
X548260Y603499D01*
X548260Y603497D01*
X548274Y603420D01*
X551830Y593260D01*
X551850Y593233D01*
X551860Y593201D01*
X551890Y593177D01*
X551912Y593146D01*
X551943Y593133D01*
X551969Y593111D01*
X552007Y593107D01*
X552042Y593092D01*
X552075Y593098D01*
X552109Y593094D01*
X552175Y593116D01*
X552181Y593117D01*
X552182Y593118D01*
X552186Y593119D01*
X554973Y594573D01*
X560054Y591103D01*
X560105Y591086D01*
X560152Y591063D01*
X560171Y591065D01*
X560188Y591059D01*
X560240Y591072D01*
G37*
D10*
X466571Y309753D02*
X466571Y317125D01*
X462885Y317125D01*
X461657Y315897D01*
X461657Y314668D01*
X462885Y313439D01*
X461657Y312210D01*
X461657Y310982D01*
X462885Y309753D01*
X466571Y309753D01*
X466571Y313439D02*
X462885Y313439D01*
X459087Y315897D02*
X459087Y317125D01*
X459087Y315897D02*
X456630Y313439D01*
X454172Y315897D01*
X454172Y317125D01*
X456630Y313439D02*
X456630Y309753D01*
X451603Y309753D02*
X451603Y317125D01*
X447917Y317125D01*
X446688Y315897D01*
X446688Y313439D01*
X447917Y312210D01*
X451603Y312210D01*
X314171Y309753D02*
X314171Y317125D01*
X310485Y317125D01*
X309257Y315897D01*
X309257Y314668D01*
X310485Y313439D01*
X309257Y312210D01*
X309257Y310982D01*
X310485Y309753D01*
X314171Y309753D01*
X314171Y313439D02*
X310485Y313439D01*
X306687Y315897D02*
X306687Y317125D01*
X306687Y315897D02*
X304230Y313439D01*
X301772Y315897D01*
X301772Y317125D01*
X304230Y313439D02*
X304230Y309753D01*
X299203Y309753D02*
X299203Y317125D01*
X295517Y317125D01*
X294288Y315897D01*
X294288Y313439D01*
X295517Y312210D01*
X299203Y312210D01*
X314171Y385953D02*
X314171Y393325D01*
X310485Y393325D01*
X309257Y392097D01*
X309257Y390868D01*
X310485Y389639D01*
X309257Y388410D01*
X309257Y387182D01*
X310485Y385953D01*
X314171Y385953D01*
X314171Y389639D02*
X310485Y389639D01*
X306687Y392097D02*
X306687Y393325D01*
X306687Y392097D02*
X304230Y389639D01*
X301772Y392097D01*
X301772Y393325D01*
X304230Y389639D02*
X304230Y385953D01*
X299203Y385953D02*
X299203Y393325D01*
X295517Y393325D01*
X294288Y392097D01*
X294288Y389639D01*
X295517Y388410D01*
X299203Y388410D01*
X466571Y385953D02*
X466571Y393325D01*
X462885Y393325D01*
X461657Y392097D01*
X461657Y390868D01*
X462885Y389639D01*
X461657Y388410D01*
X461657Y387182D01*
X462885Y385953D01*
X466571Y385953D01*
X466571Y389639D02*
X462885Y389639D01*
X459087Y392097D02*
X459087Y393325D01*
X459087Y392097D02*
X456630Y389639D01*
X454172Y392097D01*
X454172Y393325D01*
X456630Y389639D02*
X456630Y385953D01*
X451603Y385953D02*
X451603Y393325D01*
X447917Y393325D01*
X446688Y392097D01*
X446688Y389639D01*
X447917Y388410D01*
X451603Y388410D01*
X469141Y455597D02*
X470370Y456825D01*
X472827Y456825D01*
X474056Y455597D01*
X474056Y454368D01*
X472827Y453139D01*
X470370Y453139D01*
X469141Y451910D01*
X469141Y450682D01*
X470370Y449453D01*
X472827Y449453D01*
X474056Y450682D01*
X466571Y449453D02*
X466571Y456825D01*
X466571Y453139D02*
X461657Y453139D01*
X461657Y456825D02*
X461657Y449453D01*
X459087Y449453D02*
X459087Y456825D01*
X454172Y456825D01*
X456630Y453139D02*
X459087Y453139D01*
X449146Y449453D02*
X449146Y456825D01*
X451603Y456825D02*
X446688Y456825D01*
X317970Y456825D02*
X316741Y455597D01*
X317970Y456825D02*
X320427Y456825D01*
X321656Y455597D01*
X321656Y454368D01*
X320427Y453139D01*
X317970Y453139D01*
X316741Y451910D01*
X316741Y450682D01*
X317970Y449453D01*
X320427Y449453D01*
X321656Y450682D01*
X314171Y449453D02*
X314171Y456825D01*
X314171Y453139D02*
X309257Y453139D01*
X309257Y456825D02*
X309257Y449453D01*
X306687Y449453D02*
X306687Y456825D01*
X301772Y456825D01*
X304230Y453139D02*
X306687Y453139D01*
X296746Y449453D02*
X296746Y456825D01*
X299203Y456825D02*
X294288Y456825D01*
X317970Y380625D02*
X316741Y379397D01*
X317970Y380625D02*
X320427Y380625D01*
X321656Y379397D01*
X321656Y378168D01*
X320427Y376939D01*
X317970Y376939D01*
X316741Y375710D01*
X316741Y374482D01*
X317970Y373253D01*
X320427Y373253D01*
X321656Y374482D01*
X314171Y373253D02*
X314171Y380625D01*
X314171Y376939D02*
X309257Y376939D01*
X309257Y380625D02*
X309257Y373253D01*
X306687Y373253D02*
X306687Y380625D01*
X301772Y380625D01*
X304230Y376939D02*
X306687Y376939D01*
X296746Y373253D02*
X296746Y380625D01*
X299203Y380625D02*
X294288Y380625D01*
X469141Y379397D02*
X470370Y380625D01*
X472827Y380625D01*
X474056Y379397D01*
X474056Y378168D01*
X472827Y376939D01*
X470370Y376939D01*
X469141Y375710D01*
X469141Y374482D01*
X470370Y373253D01*
X472827Y373253D01*
X474056Y374482D01*
X466571Y373253D02*
X466571Y380625D01*
X466571Y376939D02*
X461657Y376939D01*
X461657Y380625D02*
X461657Y373253D01*
X459087Y373253D02*
X459087Y380625D01*
X454172Y380625D01*
X456630Y376939D02*
X459087Y376939D01*
X449146Y373253D02*
X449146Y380625D01*
X451603Y380625D02*
X446688Y380625D01*
X504197Y574421D02*
X504197Y583827D01*
X497927Y574421D01*
X497927Y583827D01*
X493274Y574421D02*
X490139Y574421D01*
X488571Y575989D01*
X488571Y579124D01*
X490139Y580692D01*
X493274Y580692D01*
X494842Y579124D01*
X494842Y575989D01*
X493274Y574421D01*
X479216Y574421D02*
X479216Y583827D01*
X479216Y574421D02*
X483919Y574421D01*
X485487Y575989D01*
X485487Y579124D01*
X483919Y580692D01*
X479216Y580692D01*
X474564Y574421D02*
X471429Y574421D01*
X474564Y574421D02*
X476132Y575989D01*
X476132Y579124D01*
X474564Y580692D01*
X471429Y580692D01*
X469861Y579124D01*
X469861Y577556D01*
X476132Y577556D01*
X466777Y574421D02*
X466777Y583827D01*
X463641Y580692D01*
X460506Y583827D01*
X460506Y574421D01*
X451151Y582259D02*
X452718Y583827D01*
X455854Y583827D01*
X457421Y582259D01*
X457421Y575989D01*
X455854Y574421D01*
X452718Y574421D01*
X451151Y575989D01*
X448066Y575989D02*
X448066Y583827D01*
X448066Y575989D02*
X446498Y574421D01*
X443363Y574421D01*
X441795Y575989D01*
X441795Y583827D01*
X429356Y583827D02*
X429356Y574421D01*
X429356Y583827D02*
X424653Y583827D01*
X423085Y582259D01*
X423085Y580692D01*
X424653Y579124D01*
X423085Y577556D01*
X423085Y575989D01*
X424653Y574421D01*
X429356Y574421D01*
X429356Y579124D02*
X424653Y579124D01*
X420001Y580692D02*
X420001Y574421D01*
X420001Y577556D02*
X416865Y580692D01*
X415298Y580692D01*
X410637Y574421D02*
X407502Y574421D01*
X410637Y574421D02*
X412205Y575989D01*
X412205Y579124D01*
X410637Y580692D01*
X407502Y580692D01*
X405934Y579124D01*
X405934Y577556D01*
X412205Y577556D01*
X401282Y580692D02*
X398146Y580692D01*
X396579Y579124D01*
X396579Y574421D01*
X401282Y574421D01*
X402849Y575989D01*
X401282Y577556D01*
X396579Y577556D01*
X393494Y574421D02*
X393494Y583827D01*
X393494Y577556D02*
X388791Y574421D01*
X393494Y577556D02*
X388791Y580692D01*
X384131Y574421D02*
X380995Y574421D01*
X379428Y575989D01*
X379428Y579124D01*
X380995Y580692D01*
X384131Y580692D01*
X385698Y579124D01*
X385698Y575989D01*
X384131Y574421D01*
X376343Y575989D02*
X376343Y580692D01*
X376343Y575989D02*
X374775Y574421D01*
X370072Y574421D01*
X370072Y580692D01*
X365420Y582259D02*
X365420Y575989D01*
X363853Y574421D01*
X363853Y580692D02*
X366988Y580692D01*
X351396Y580692D02*
X348261Y574421D01*
X345125Y580692D01*
X342041Y580692D02*
X338905Y583827D01*
X338905Y574421D01*
X335770Y574421D02*
X342041Y574421D01*
X332686Y574421D02*
X332686Y575989D01*
X331118Y575989D01*
X331118Y574421D01*
X332686Y574421D01*
X328008Y574421D02*
X321737Y574421D01*
X328008Y574421D02*
X321737Y580692D01*
X321737Y582259D01*
X323305Y583827D01*
X326440Y583827D01*
X328008Y582259D01*
X318653Y579124D02*
X312382Y579124D01*
X309298Y574421D02*
X303027Y574421D01*
X309298Y574421D02*
X303027Y580692D01*
X303027Y582259D01*
X304595Y583827D01*
X307730Y583827D01*
X309298Y582259D01*
X299942Y582259D02*
X299942Y575989D01*
X299942Y582259D02*
X298375Y583827D01*
X295239Y583827D01*
X293672Y582259D01*
X293672Y575989D01*
X295239Y574421D01*
X298375Y574421D01*
X299942Y575989D01*
X293672Y582259D01*
X290587Y580692D02*
X287452Y583827D01*
X287452Y574421D01*
X290587Y574421D02*
X284317Y574421D01*
X281232Y575989D02*
X279664Y574421D01*
X276529Y574421D01*
X274961Y575989D01*
X274961Y582259D01*
X276529Y583827D01*
X279664Y583827D01*
X281232Y582259D01*
X281232Y580692D01*
X279664Y579124D01*
X274961Y579124D01*
X271877Y575989D02*
X271877Y582259D01*
X270309Y583827D01*
X267174Y583827D01*
X265606Y582259D01*
X265606Y575989D01*
X267174Y574421D01*
X270309Y574421D01*
X271877Y575989D01*
X265606Y582259D01*
X262522Y580692D02*
X259386Y583827D01*
X259386Y574421D01*
X256251Y574421D02*
X262522Y574421D01*
X253166Y574421D02*
X246896Y574421D01*
X253166Y574421D02*
X246896Y580692D01*
X246896Y582259D01*
X248463Y583827D01*
X251599Y583827D01*
X253166Y582259D01*
X243811Y582259D02*
X242244Y583827D01*
X239108Y583827D01*
X237541Y582259D01*
X237541Y580692D01*
X239108Y579124D01*
X237541Y577556D01*
X237541Y575989D01*
X239108Y574421D01*
X242244Y574421D01*
X243811Y575989D01*
X243811Y577556D01*
X242244Y579124D01*
X243811Y580692D01*
X243811Y582259D01*
X242244Y579124D02*
X239108Y579124D01*
X504197Y568587D02*
X504197Y559181D01*
X504197Y563884D02*
X502630Y565452D01*
X499494Y565452D01*
X497927Y563884D01*
X497927Y559181D01*
X493274Y560749D02*
X493274Y567019D01*
X493274Y560749D02*
X491707Y559181D01*
X491707Y565452D02*
X494842Y565452D01*
X487038Y567019D02*
X487038Y560749D01*
X485470Y559181D01*
X485470Y565452D02*
X488605Y565452D01*
X482369Y565452D02*
X482369Y556046D01*
X482369Y565452D02*
X477666Y565452D01*
X476098Y563884D01*
X476098Y560749D01*
X477666Y559181D01*
X482369Y559181D01*
X473013Y565452D02*
X471446Y565452D01*
X471446Y563884D01*
X473013Y563884D01*
X473013Y565452D01*
X473013Y560749D02*
X471446Y560749D01*
X471446Y559181D01*
X473013Y559181D01*
X473013Y560749D01*
X468336Y559181D02*
X462065Y568587D01*
X452710Y568587D02*
X458981Y559181D01*
X449625Y560749D02*
X449625Y565452D01*
X449625Y560749D02*
X448058Y559181D01*
X446490Y560749D01*
X444922Y559181D01*
X443355Y560749D01*
X443355Y565452D01*
X440270Y565452D02*
X440270Y560749D01*
X438703Y559181D01*
X437135Y560749D01*
X435567Y559181D01*
X433999Y560749D01*
X433999Y565452D01*
X430915Y565452D02*
X430915Y560749D01*
X429347Y559181D01*
X427780Y560749D01*
X426212Y559181D01*
X424644Y560749D01*
X424644Y565452D01*
X421560Y560749D02*
X421560Y559181D01*
X421560Y560749D02*
X419992Y560749D01*
X419992Y559181D01*
X421560Y559181D01*
X416882Y560749D02*
X416882Y565452D01*
X416882Y560749D02*
X415315Y559181D01*
X410612Y559181D01*
X410612Y557613D02*
X410612Y565452D01*
X410612Y557613D02*
X412179Y556046D01*
X413747Y556046D01*
X405959Y559181D02*
X402824Y559181D01*
X401256Y560749D01*
X401256Y563884D01*
X402824Y565452D01*
X405959Y565452D01*
X407527Y563884D01*
X407527Y560749D01*
X405959Y559181D01*
X398172Y560749D02*
X398172Y565452D01*
X398172Y560749D02*
X396604Y559181D01*
X391901Y559181D01*
X391901Y565452D01*
X387249Y567019D02*
X387249Y560749D01*
X385681Y559181D01*
X385681Y565452D02*
X388817Y565452D01*
X382580Y565452D02*
X382580Y560749D01*
X381012Y559181D01*
X376309Y559181D01*
X376309Y565452D01*
X373225Y568587D02*
X373225Y559181D01*
X368522Y559181D01*
X366954Y560749D01*
X366954Y563884D01*
X368522Y565452D01*
X373225Y565452D01*
X362302Y559181D02*
X359166Y559181D01*
X362302Y559181D02*
X363869Y560749D01*
X363869Y563884D01*
X362302Y565452D01*
X359166Y565452D01*
X357599Y563884D01*
X357599Y562316D01*
X363869Y562316D01*
X354514Y560749D02*
X354514Y559181D01*
X354514Y560749D02*
X352947Y560749D01*
X352947Y559181D01*
X354514Y559181D01*
X348269Y565452D02*
X343566Y565452D01*
X348269Y565452D02*
X349837Y563884D01*
X349837Y560749D01*
X348269Y559181D01*
X343566Y559181D01*
X338914Y559181D02*
X335779Y559181D01*
X334211Y560749D01*
X334211Y563884D01*
X335779Y565452D01*
X338914Y565452D01*
X340482Y563884D01*
X340482Y560749D01*
X338914Y559181D01*
X331126Y559181D02*
X331126Y565452D01*
X329559Y565452D01*
X327991Y563884D01*
X327991Y559181D01*
X327991Y563884D02*
X326423Y565452D01*
X324856Y563884D01*
X324856Y559181D01*
X321771Y559181D02*
X315500Y568587D01*
X310848Y565452D02*
X306145Y565452D01*
X310848Y565452D02*
X312416Y563884D01*
X312416Y560749D01*
X310848Y559181D01*
X306145Y559181D01*
X303061Y559181D02*
X296790Y568587D01*
X293706Y568587D02*
X293706Y559181D01*
X293706Y568587D02*
X289003Y568587D01*
X287435Y567019D01*
X287435Y565452D01*
X289003Y563884D01*
X287435Y562316D01*
X287435Y560749D01*
X289003Y559181D01*
X293706Y559181D01*
X293706Y563884D02*
X289003Y563884D01*
X284350Y568587D02*
X284350Y559181D01*
X284350Y562316D02*
X278080Y568587D01*
X282783Y563884D02*
X278080Y559181D01*
X274995Y559181D02*
X274995Y568587D01*
X274995Y563884D02*
X268725Y563884D01*
X268725Y568587D02*
X268725Y559181D01*
X264072Y559181D02*
X260937Y559181D01*
X259369Y560749D01*
X259369Y563884D01*
X260937Y565452D01*
X264072Y565452D01*
X265640Y563884D01*
X265640Y560749D01*
X264072Y559181D01*
X256285Y559181D02*
X256285Y568587D01*
X256285Y559181D02*
X251582Y559181D01*
X250014Y560749D01*
X250014Y563884D01*
X251582Y565452D01*
X256285Y565452D01*
X246930Y568587D02*
X246930Y559181D01*
X242227Y559181D01*
X240659Y560749D01*
X240659Y563884D01*
X242227Y565452D01*
X246930Y565452D01*
X237574Y565452D02*
X237574Y560749D01*
X236007Y559181D01*
X231304Y559181D01*
X231304Y557613D02*
X231304Y565452D01*
X231304Y557613D02*
X232871Y556046D01*
X234439Y556046D01*
X533019Y124087D02*
X533019Y114681D01*
X533019Y119384D02*
X531451Y120952D01*
X528316Y120952D01*
X526748Y119384D01*
X526748Y114681D01*
X522096Y116249D02*
X522096Y122519D01*
X522096Y116249D02*
X520528Y114681D01*
X520528Y120952D02*
X523664Y120952D01*
X515859Y122519D02*
X515859Y116249D01*
X514292Y114681D01*
X514292Y120952D02*
X517427Y120952D01*
X511190Y120952D02*
X511190Y111546D01*
X511190Y120952D02*
X506487Y120952D01*
X504920Y119384D01*
X504920Y116249D01*
X506487Y114681D01*
X511190Y114681D01*
X501835Y120952D02*
X500267Y120952D01*
X500267Y119384D01*
X501835Y119384D01*
X501835Y120952D01*
X501835Y116249D02*
X500267Y116249D01*
X500267Y114681D01*
X501835Y114681D01*
X501835Y116249D01*
X497157Y114681D02*
X490887Y124087D01*
X481532Y124087D02*
X487802Y114681D01*
X478447Y116249D02*
X478447Y120952D01*
X478447Y116249D02*
X476879Y114681D01*
X475312Y116249D01*
X473744Y114681D01*
X472176Y116249D01*
X472176Y120952D01*
X469092Y120952D02*
X469092Y116249D01*
X467524Y114681D01*
X465957Y116249D01*
X464389Y114681D01*
X462821Y116249D01*
X462821Y120952D01*
X459737Y120952D02*
X459737Y116249D01*
X458169Y114681D01*
X456601Y116249D01*
X455034Y114681D01*
X453466Y116249D01*
X453466Y120952D01*
X450382Y116249D02*
X450382Y114681D01*
X450382Y116249D02*
X448814Y116249D01*
X448814Y114681D01*
X450382Y114681D01*
X444136Y116249D02*
X444136Y122519D01*
X444136Y116249D02*
X442569Y114681D01*
X442569Y120952D02*
X445704Y120952D01*
X439467Y124087D02*
X439467Y114681D01*
X439467Y119384D02*
X437900Y120952D01*
X434764Y120952D01*
X433196Y119384D01*
X433196Y114681D01*
X430112Y120952D02*
X428544Y120952D01*
X428544Y114681D01*
X426977Y114681D02*
X430112Y114681D01*
X428544Y124087D02*
X428544Y125655D01*
X423875Y120952D02*
X423875Y114681D01*
X423875Y120952D02*
X419172Y120952D01*
X417605Y119384D01*
X417605Y114681D01*
X411385Y111546D02*
X409817Y111546D01*
X408249Y113113D01*
X408249Y120952D01*
X412952Y120952D01*
X414520Y119384D01*
X414520Y116249D01*
X412952Y114681D01*
X408249Y114681D01*
X405165Y120952D02*
X403597Y120952D01*
X403597Y114681D01*
X405165Y114681D02*
X402029Y114681D01*
X403597Y124087D02*
X403597Y125655D01*
X398928Y120952D02*
X395793Y114681D01*
X392657Y120952D01*
X388005Y114681D02*
X384870Y114681D01*
X388005Y114681D02*
X389573Y116249D01*
X389573Y119384D01*
X388005Y120952D01*
X384870Y120952D01*
X383302Y119384D01*
X383302Y117816D01*
X389573Y117816D01*
X380218Y114681D02*
X380218Y120952D01*
X380218Y117816D02*
X377082Y120952D01*
X375515Y120952D01*
X372422Y114681D02*
X367719Y114681D01*
X366151Y116249D01*
X367719Y117816D01*
X370854Y117816D01*
X372422Y119384D01*
X370854Y120952D01*
X366151Y120952D01*
X361499Y114681D02*
X358364Y114681D01*
X361499Y114681D02*
X363067Y116249D01*
X363067Y119384D01*
X361499Y120952D01*
X358364Y120952D01*
X356796Y119384D01*
X356796Y117816D01*
X363067Y117816D01*
X353711Y116249D02*
X353711Y114681D01*
X353711Y116249D02*
X352144Y116249D01*
X352144Y114681D01*
X353711Y114681D01*
X347466Y120952D02*
X342763Y120952D01*
X347466Y120952D02*
X349034Y119384D01*
X349034Y116249D01*
X347466Y114681D01*
X342763Y114681D01*
X338111Y114681D02*
X334976Y114681D01*
X333408Y116249D01*
X333408Y119384D01*
X334976Y120952D01*
X338111Y120952D01*
X339679Y119384D01*
X339679Y116249D01*
X338111Y114681D01*
X330323Y114681D02*
X330323Y120952D01*
X328756Y120952D01*
X327188Y119384D01*
X327188Y114681D01*
X327188Y119384D02*
X325620Y120952D01*
X324053Y119384D01*
X324053Y114681D01*
X320968Y114681D02*
X314697Y124087D01*
X310045Y122519D02*
X310045Y116249D01*
X308478Y114681D01*
X308478Y120952D02*
X311613Y120952D01*
X305376Y124087D02*
X305376Y114681D01*
X305376Y119384D02*
X303809Y120952D01*
X300673Y120952D01*
X299106Y119384D01*
X299106Y114681D01*
X296021Y120952D02*
X294453Y120952D01*
X294453Y114681D01*
X292886Y114681D02*
X296021Y114681D01*
X294453Y124087D02*
X294453Y125655D01*
X289784Y120952D02*
X289784Y114681D01*
X289784Y120952D02*
X285081Y120952D01*
X283514Y119384D01*
X283514Y114681D01*
X277294Y111546D02*
X275726Y111546D01*
X274158Y113113D01*
X274158Y120952D01*
X278861Y120952D01*
X280429Y119384D01*
X280429Y116249D01*
X278861Y114681D01*
X274158Y114681D01*
X271074Y120952D02*
X269506Y120952D01*
X269506Y119384D01*
X271074Y119384D01*
X271074Y120952D01*
X271074Y116249D02*
X269506Y116249D01*
X269506Y114681D01*
X271074Y114681D01*
X271074Y116249D01*
X266396Y114681D02*
X260126Y114681D01*
X266396Y114681D02*
X260126Y120952D01*
X260126Y122519D01*
X261693Y124087D01*
X264829Y124087D01*
X266396Y122519D01*
X257041Y124087D02*
X250770Y124087D01*
X257041Y124087D02*
X257041Y119384D01*
X253906Y120952D01*
X252338Y120952D01*
X250770Y119384D01*
X250770Y116249D01*
X252338Y114681D01*
X255473Y114681D01*
X257041Y116249D01*
X247686Y122519D02*
X246118Y124087D01*
X242983Y124087D01*
X241415Y122519D01*
X241415Y120952D01*
X242983Y119384D01*
X244551Y119384D01*
X242983Y119384D02*
X241415Y117816D01*
X241415Y116249D01*
X242983Y114681D01*
X246118Y114681D01*
X247686Y116249D01*
X238331Y116249D02*
X236763Y114681D01*
X233628Y114681D01*
X232060Y116249D01*
X232060Y122519D01*
X233628Y124087D01*
X236763Y124087D01*
X238331Y122519D01*
X238331Y120952D01*
X236763Y119384D01*
X232060Y119384D01*
X228976Y122519D02*
X227408Y124087D01*
X224273Y124087D01*
X222705Y122519D01*
X222705Y120952D01*
X224273Y119384D01*
X222705Y117816D01*
X222705Y116249D01*
X224273Y114681D01*
X227408Y114681D01*
X228976Y116249D01*
X228976Y117816D01*
X227408Y119384D01*
X228976Y120952D01*
X228976Y122519D01*
X227408Y119384D02*
X224273Y119384D01*
X219620Y116249D02*
X218053Y114681D01*
X214917Y114681D01*
X213350Y116249D01*
X213350Y122519D01*
X214917Y124087D01*
X218053Y124087D01*
X219620Y122519D01*
X219620Y120952D01*
X218053Y119384D01*
X213350Y119384D01*
X210265Y124087D02*
X203994Y124087D01*
X203994Y122519D01*
X210265Y116249D01*
X210265Y114681D01*
D11*
X294640Y397510D02*
X294640Y440690D01*
X312420Y443230D02*
X312520Y443228D01*
X312619Y443222D01*
X312719Y443212D01*
X312817Y443199D01*
X312916Y443181D01*
X313013Y443160D01*
X313109Y443135D01*
X313205Y443106D01*
X313299Y443073D01*
X313392Y443037D01*
X313483Y442997D01*
X313573Y442953D01*
X313661Y442906D01*
X313747Y442856D01*
X313831Y442802D01*
X313913Y442745D01*
X313992Y442685D01*
X314070Y442621D01*
X314144Y442555D01*
X314216Y442486D01*
X314285Y442414D01*
X314351Y442340D01*
X314415Y442262D01*
X314475Y442183D01*
X314532Y442101D01*
X314586Y442017D01*
X314636Y441931D01*
X314683Y441843D01*
X314727Y441753D01*
X314767Y441662D01*
X314803Y441569D01*
X314836Y441475D01*
X314865Y441379D01*
X314890Y441283D01*
X314911Y441186D01*
X314929Y441087D01*
X314942Y440989D01*
X314952Y440889D01*
X314958Y440790D01*
X314960Y440690D01*
X314960Y397510D02*
X314958Y397410D01*
X314952Y397311D01*
X314942Y397211D01*
X314929Y397113D01*
X314911Y397014D01*
X314890Y396917D01*
X314865Y396821D01*
X314836Y396725D01*
X314803Y396631D01*
X314767Y396538D01*
X314727Y396447D01*
X314683Y396357D01*
X314636Y396269D01*
X314586Y396183D01*
X314532Y396099D01*
X314475Y396017D01*
X314415Y395938D01*
X314351Y395860D01*
X314285Y395786D01*
X314216Y395714D01*
X314144Y395645D01*
X314070Y395579D01*
X313992Y395515D01*
X313913Y395455D01*
X313831Y395398D01*
X313747Y395344D01*
X313661Y395294D01*
X313573Y395247D01*
X313483Y395203D01*
X313392Y395163D01*
X313299Y395127D01*
X313205Y395094D01*
X313109Y395065D01*
X313013Y395040D01*
X312916Y395019D01*
X312817Y395001D01*
X312719Y394988D01*
X312619Y394978D01*
X312520Y394972D01*
X312420Y394970D01*
X297180Y394970D02*
X297080Y394972D01*
X296981Y394978D01*
X296881Y394988D01*
X296783Y395001D01*
X296684Y395019D01*
X296587Y395040D01*
X296491Y395065D01*
X296395Y395094D01*
X296301Y395127D01*
X296208Y395163D01*
X296117Y395203D01*
X296027Y395247D01*
X295939Y395294D01*
X295853Y395344D01*
X295769Y395398D01*
X295687Y395455D01*
X295608Y395515D01*
X295530Y395579D01*
X295456Y395645D01*
X295384Y395714D01*
X295315Y395786D01*
X295249Y395860D01*
X295185Y395938D01*
X295125Y396017D01*
X295068Y396099D01*
X295014Y396183D01*
X294964Y396269D01*
X294917Y396357D01*
X294873Y396447D01*
X294833Y396538D01*
X294797Y396631D01*
X294764Y396725D01*
X294735Y396821D01*
X294710Y396917D01*
X294689Y397014D01*
X294671Y397113D01*
X294658Y397211D01*
X294648Y397311D01*
X294642Y397410D01*
X294640Y397510D01*
X294640Y440690D02*
X294642Y440790D01*
X294648Y440889D01*
X294658Y440989D01*
X294671Y441087D01*
X294689Y441186D01*
X294710Y441283D01*
X294735Y441379D01*
X294764Y441475D01*
X294797Y441569D01*
X294833Y441662D01*
X294873Y441753D01*
X294917Y441843D01*
X294964Y441931D01*
X295014Y442017D01*
X295068Y442101D01*
X295125Y442183D01*
X295185Y442262D01*
X295249Y442340D01*
X295315Y442414D01*
X295384Y442486D01*
X295456Y442555D01*
X295530Y442621D01*
X295608Y442685D01*
X295687Y442745D01*
X295769Y442802D01*
X295853Y442856D01*
X295939Y442906D01*
X296027Y442953D01*
X296117Y442997D01*
X296208Y443037D01*
X296301Y443073D01*
X296395Y443106D01*
X296491Y443135D01*
X296587Y443160D01*
X296684Y443181D01*
X296783Y443199D01*
X296881Y443212D01*
X296981Y443222D01*
X297080Y443228D01*
X297180Y443230D01*
X312420Y443230D01*
X312420Y394970D02*
X297180Y394970D01*
X314960Y397510D02*
X314960Y440690D01*
D12*
X295285Y394335D02*
X283845Y394335D01*
X283845Y400055D01*
X285752Y401962D01*
X293378Y401962D01*
X295285Y400055D01*
X295285Y394335D01*
X295285Y411749D02*
X283845Y411749D01*
X289565Y406029D02*
X295285Y411749D01*
X289565Y413655D02*
X289565Y406029D01*
X283845Y417723D02*
X295285Y417723D01*
X295285Y423443D01*
X293378Y425349D01*
X291472Y425349D01*
X289565Y423443D01*
X287658Y425349D01*
X285752Y425349D01*
X283845Y423443D01*
X283845Y417723D01*
X289565Y417723D02*
X289565Y423443D01*
X293378Y429417D02*
X295285Y429417D01*
X293378Y429417D02*
X289565Y433230D01*
X293378Y437043D01*
X295285Y437043D01*
X289565Y433230D02*
X283845Y433230D01*
X283845Y441111D02*
X295285Y441111D01*
X295285Y446831D01*
X293378Y448737D01*
X289565Y448737D01*
X287658Y446831D01*
X287658Y441111D01*
D11*
X447040Y440690D02*
X447040Y397510D01*
X467360Y440690D02*
X467358Y440790D01*
X467352Y440889D01*
X467342Y440989D01*
X467329Y441087D01*
X467311Y441186D01*
X467290Y441283D01*
X467265Y441379D01*
X467236Y441475D01*
X467203Y441569D01*
X467167Y441662D01*
X467127Y441753D01*
X467083Y441843D01*
X467036Y441931D01*
X466986Y442017D01*
X466932Y442101D01*
X466875Y442183D01*
X466815Y442262D01*
X466751Y442340D01*
X466685Y442414D01*
X466616Y442486D01*
X466544Y442555D01*
X466470Y442621D01*
X466392Y442685D01*
X466313Y442745D01*
X466231Y442802D01*
X466147Y442856D01*
X466061Y442906D01*
X465973Y442953D01*
X465883Y442997D01*
X465792Y443037D01*
X465699Y443073D01*
X465605Y443106D01*
X465509Y443135D01*
X465413Y443160D01*
X465316Y443181D01*
X465217Y443199D01*
X465119Y443212D01*
X465019Y443222D01*
X464920Y443228D01*
X464820Y443230D01*
X467360Y397510D02*
X467358Y397410D01*
X467352Y397311D01*
X467342Y397211D01*
X467329Y397113D01*
X467311Y397014D01*
X467290Y396917D01*
X467265Y396821D01*
X467236Y396725D01*
X467203Y396631D01*
X467167Y396538D01*
X467127Y396447D01*
X467083Y396357D01*
X467036Y396269D01*
X466986Y396183D01*
X466932Y396099D01*
X466875Y396017D01*
X466815Y395938D01*
X466751Y395860D01*
X466685Y395786D01*
X466616Y395714D01*
X466544Y395645D01*
X466470Y395579D01*
X466392Y395515D01*
X466313Y395455D01*
X466231Y395398D01*
X466147Y395344D01*
X466061Y395294D01*
X465973Y395247D01*
X465883Y395203D01*
X465792Y395163D01*
X465699Y395127D01*
X465605Y395094D01*
X465509Y395065D01*
X465413Y395040D01*
X465316Y395019D01*
X465217Y395001D01*
X465119Y394988D01*
X465019Y394978D01*
X464920Y394972D01*
X464820Y394970D01*
X449580Y394970D02*
X449480Y394972D01*
X449381Y394978D01*
X449281Y394988D01*
X449183Y395001D01*
X449084Y395019D01*
X448987Y395040D01*
X448891Y395065D01*
X448795Y395094D01*
X448701Y395127D01*
X448608Y395163D01*
X448517Y395203D01*
X448427Y395247D01*
X448339Y395294D01*
X448253Y395344D01*
X448169Y395398D01*
X448087Y395455D01*
X448008Y395515D01*
X447930Y395579D01*
X447856Y395645D01*
X447784Y395714D01*
X447715Y395786D01*
X447649Y395860D01*
X447585Y395938D01*
X447525Y396017D01*
X447468Y396099D01*
X447414Y396183D01*
X447364Y396269D01*
X447317Y396357D01*
X447273Y396447D01*
X447233Y396538D01*
X447197Y396631D01*
X447164Y396725D01*
X447135Y396821D01*
X447110Y396917D01*
X447089Y397014D01*
X447071Y397113D01*
X447058Y397211D01*
X447048Y397311D01*
X447042Y397410D01*
X447040Y397510D01*
X447040Y440690D02*
X447042Y440790D01*
X447048Y440889D01*
X447058Y440989D01*
X447071Y441087D01*
X447089Y441186D01*
X447110Y441283D01*
X447135Y441379D01*
X447164Y441475D01*
X447197Y441569D01*
X447233Y441662D01*
X447273Y441753D01*
X447317Y441843D01*
X447364Y441931D01*
X447414Y442017D01*
X447468Y442101D01*
X447525Y442183D01*
X447585Y442262D01*
X447649Y442340D01*
X447715Y442414D01*
X447784Y442486D01*
X447856Y442555D01*
X447930Y442621D01*
X448008Y442685D01*
X448087Y442745D01*
X448169Y442802D01*
X448253Y442856D01*
X448339Y442906D01*
X448427Y442953D01*
X448517Y442997D01*
X448608Y443037D01*
X448701Y443073D01*
X448795Y443106D01*
X448891Y443135D01*
X448987Y443160D01*
X449084Y443181D01*
X449183Y443199D01*
X449281Y443212D01*
X449381Y443222D01*
X449480Y443228D01*
X449580Y443230D01*
X464820Y443230D01*
X464820Y394970D02*
X449580Y394970D01*
X467360Y397510D02*
X467360Y440690D01*
D12*
X447685Y394335D02*
X436245Y394335D01*
X436245Y400055D01*
X438152Y401962D01*
X445778Y401962D01*
X447685Y400055D01*
X447685Y394335D01*
X443872Y406029D02*
X447685Y409842D01*
X436245Y409842D01*
X436245Y406029D02*
X436245Y413655D01*
X436245Y417723D02*
X447685Y417723D01*
X447685Y423443D01*
X445778Y425349D01*
X443872Y425349D01*
X441965Y423443D01*
X440058Y425349D01*
X438152Y425349D01*
X436245Y423443D01*
X436245Y417723D01*
X441965Y417723D02*
X441965Y423443D01*
X445778Y429417D02*
X447685Y429417D01*
X445778Y429417D02*
X441965Y433230D01*
X445778Y437043D01*
X447685Y437043D01*
X441965Y433230D02*
X436245Y433230D01*
X436245Y441111D02*
X447685Y441111D01*
X447685Y446831D01*
X445778Y448737D01*
X441965Y448737D01*
X440058Y446831D01*
X440058Y441111D01*
D11*
X447040Y364490D02*
X447040Y321310D01*
X467360Y364490D02*
X467358Y364590D01*
X467352Y364689D01*
X467342Y364789D01*
X467329Y364887D01*
X467311Y364986D01*
X467290Y365083D01*
X467265Y365179D01*
X467236Y365275D01*
X467203Y365369D01*
X467167Y365462D01*
X467127Y365553D01*
X467083Y365643D01*
X467036Y365731D01*
X466986Y365817D01*
X466932Y365901D01*
X466875Y365983D01*
X466815Y366062D01*
X466751Y366140D01*
X466685Y366214D01*
X466616Y366286D01*
X466544Y366355D01*
X466470Y366421D01*
X466392Y366485D01*
X466313Y366545D01*
X466231Y366602D01*
X466147Y366656D01*
X466061Y366706D01*
X465973Y366753D01*
X465883Y366797D01*
X465792Y366837D01*
X465699Y366873D01*
X465605Y366906D01*
X465509Y366935D01*
X465413Y366960D01*
X465316Y366981D01*
X465217Y366999D01*
X465119Y367012D01*
X465019Y367022D01*
X464920Y367028D01*
X464820Y367030D01*
X467360Y321310D02*
X467358Y321210D01*
X467352Y321111D01*
X467342Y321011D01*
X467329Y320913D01*
X467311Y320814D01*
X467290Y320717D01*
X467265Y320621D01*
X467236Y320525D01*
X467203Y320431D01*
X467167Y320338D01*
X467127Y320247D01*
X467083Y320157D01*
X467036Y320069D01*
X466986Y319983D01*
X466932Y319899D01*
X466875Y319817D01*
X466815Y319738D01*
X466751Y319660D01*
X466685Y319586D01*
X466616Y319514D01*
X466544Y319445D01*
X466470Y319379D01*
X466392Y319315D01*
X466313Y319255D01*
X466231Y319198D01*
X466147Y319144D01*
X466061Y319094D01*
X465973Y319047D01*
X465883Y319003D01*
X465792Y318963D01*
X465699Y318927D01*
X465605Y318894D01*
X465509Y318865D01*
X465413Y318840D01*
X465316Y318819D01*
X465217Y318801D01*
X465119Y318788D01*
X465019Y318778D01*
X464920Y318772D01*
X464820Y318770D01*
X449580Y318770D02*
X449480Y318772D01*
X449381Y318778D01*
X449281Y318788D01*
X449183Y318801D01*
X449084Y318819D01*
X448987Y318840D01*
X448891Y318865D01*
X448795Y318894D01*
X448701Y318927D01*
X448608Y318963D01*
X448517Y319003D01*
X448427Y319047D01*
X448339Y319094D01*
X448253Y319144D01*
X448169Y319198D01*
X448087Y319255D01*
X448008Y319315D01*
X447930Y319379D01*
X447856Y319445D01*
X447784Y319514D01*
X447715Y319586D01*
X447649Y319660D01*
X447585Y319738D01*
X447525Y319817D01*
X447468Y319899D01*
X447414Y319983D01*
X447364Y320069D01*
X447317Y320157D01*
X447273Y320247D01*
X447233Y320338D01*
X447197Y320431D01*
X447164Y320525D01*
X447135Y320621D01*
X447110Y320717D01*
X447089Y320814D01*
X447071Y320913D01*
X447058Y321011D01*
X447048Y321111D01*
X447042Y321210D01*
X447040Y321310D01*
X447040Y364490D02*
X447042Y364590D01*
X447048Y364689D01*
X447058Y364789D01*
X447071Y364887D01*
X447089Y364986D01*
X447110Y365083D01*
X447135Y365179D01*
X447164Y365275D01*
X447197Y365369D01*
X447233Y365462D01*
X447273Y365553D01*
X447317Y365643D01*
X447364Y365731D01*
X447414Y365817D01*
X447468Y365901D01*
X447525Y365983D01*
X447585Y366062D01*
X447649Y366140D01*
X447715Y366214D01*
X447784Y366286D01*
X447856Y366355D01*
X447930Y366421D01*
X448008Y366485D01*
X448087Y366545D01*
X448169Y366602D01*
X448253Y366656D01*
X448339Y366706D01*
X448427Y366753D01*
X448517Y366797D01*
X448608Y366837D01*
X448701Y366873D01*
X448795Y366906D01*
X448891Y366935D01*
X448987Y366960D01*
X449084Y366981D01*
X449183Y366999D01*
X449281Y367012D01*
X449381Y367022D01*
X449480Y367028D01*
X449580Y367030D01*
X464820Y367030D01*
X464820Y318770D02*
X449580Y318770D01*
X467360Y321310D02*
X467360Y364490D01*
D12*
X444985Y311734D02*
X433548Y311514D01*
X433438Y317233D01*
X435307Y319176D01*
X442933Y319322D01*
X444875Y317452D01*
X444985Y311734D01*
X433323Y323206D02*
X433177Y330831D01*
X433323Y323206D02*
X440802Y330977D01*
X442708Y331014D01*
X444651Y329144D01*
X444724Y325332D01*
X442854Y323389D01*
X444536Y335117D02*
X433099Y334898D01*
X444536Y335117D02*
X444426Y340836D01*
X442484Y342706D01*
X440577Y342669D01*
X438708Y340726D01*
X436765Y342596D01*
X434859Y342559D01*
X432989Y340616D01*
X433099Y334898D01*
X438817Y335007D02*
X438708Y340726D01*
X442406Y346772D02*
X444312Y346809D01*
X442406Y346772D02*
X438520Y350512D01*
X442259Y354398D01*
X444165Y354434D01*
X438520Y350512D02*
X432801Y350402D01*
X432650Y358281D02*
X444087Y358501D01*
X443978Y364220D01*
X442035Y366089D01*
X438222Y366016D01*
X436352Y364073D01*
X436462Y358354D01*
D11*
X294640Y364490D02*
X294640Y321310D01*
X314960Y364490D02*
X314958Y364590D01*
X314952Y364689D01*
X314942Y364789D01*
X314929Y364887D01*
X314911Y364986D01*
X314890Y365083D01*
X314865Y365179D01*
X314836Y365275D01*
X314803Y365369D01*
X314767Y365462D01*
X314727Y365553D01*
X314683Y365643D01*
X314636Y365731D01*
X314586Y365817D01*
X314532Y365901D01*
X314475Y365983D01*
X314415Y366062D01*
X314351Y366140D01*
X314285Y366214D01*
X314216Y366286D01*
X314144Y366355D01*
X314070Y366421D01*
X313992Y366485D01*
X313913Y366545D01*
X313831Y366602D01*
X313747Y366656D01*
X313661Y366706D01*
X313573Y366753D01*
X313483Y366797D01*
X313392Y366837D01*
X313299Y366873D01*
X313205Y366906D01*
X313109Y366935D01*
X313013Y366960D01*
X312916Y366981D01*
X312817Y366999D01*
X312719Y367012D01*
X312619Y367022D01*
X312520Y367028D01*
X312420Y367030D01*
X314960Y321310D02*
X314958Y321210D01*
X314952Y321111D01*
X314942Y321011D01*
X314929Y320913D01*
X314911Y320814D01*
X314890Y320717D01*
X314865Y320621D01*
X314836Y320525D01*
X314803Y320431D01*
X314767Y320338D01*
X314727Y320247D01*
X314683Y320157D01*
X314636Y320069D01*
X314586Y319983D01*
X314532Y319899D01*
X314475Y319817D01*
X314415Y319738D01*
X314351Y319660D01*
X314285Y319586D01*
X314216Y319514D01*
X314144Y319445D01*
X314070Y319379D01*
X313992Y319315D01*
X313913Y319255D01*
X313831Y319198D01*
X313747Y319144D01*
X313661Y319094D01*
X313573Y319047D01*
X313483Y319003D01*
X313392Y318963D01*
X313299Y318927D01*
X313205Y318894D01*
X313109Y318865D01*
X313013Y318840D01*
X312916Y318819D01*
X312817Y318801D01*
X312719Y318788D01*
X312619Y318778D01*
X312520Y318772D01*
X312420Y318770D01*
X297180Y318770D02*
X297080Y318772D01*
X296981Y318778D01*
X296881Y318788D01*
X296783Y318801D01*
X296684Y318819D01*
X296587Y318840D01*
X296491Y318865D01*
X296395Y318894D01*
X296301Y318927D01*
X296208Y318963D01*
X296117Y319003D01*
X296027Y319047D01*
X295939Y319094D01*
X295853Y319144D01*
X295769Y319198D01*
X295687Y319255D01*
X295608Y319315D01*
X295530Y319379D01*
X295456Y319445D01*
X295384Y319514D01*
X295315Y319586D01*
X295249Y319660D01*
X295185Y319738D01*
X295125Y319817D01*
X295068Y319899D01*
X295014Y319983D01*
X294964Y320069D01*
X294917Y320157D01*
X294873Y320247D01*
X294833Y320338D01*
X294797Y320431D01*
X294764Y320525D01*
X294735Y320621D01*
X294710Y320717D01*
X294689Y320814D01*
X294671Y320913D01*
X294658Y321011D01*
X294648Y321111D01*
X294642Y321210D01*
X294640Y321310D01*
X294640Y364490D02*
X294642Y364590D01*
X294648Y364689D01*
X294658Y364789D01*
X294671Y364887D01*
X294689Y364986D01*
X294710Y365083D01*
X294735Y365179D01*
X294764Y365275D01*
X294797Y365369D01*
X294833Y365462D01*
X294873Y365553D01*
X294917Y365643D01*
X294964Y365731D01*
X295014Y365817D01*
X295068Y365901D01*
X295125Y365983D01*
X295185Y366062D01*
X295249Y366140D01*
X295315Y366214D01*
X295384Y366286D01*
X295456Y366355D01*
X295530Y366421D01*
X295608Y366485D01*
X295687Y366545D01*
X295769Y366602D01*
X295853Y366656D01*
X295939Y366706D01*
X296027Y366753D01*
X296117Y366797D01*
X296208Y366837D01*
X296301Y366873D01*
X296395Y366906D01*
X296491Y366935D01*
X296587Y366960D01*
X296684Y366981D01*
X296783Y366999D01*
X296881Y367012D01*
X296981Y367022D01*
X297080Y367028D01*
X297180Y367030D01*
X312420Y367030D01*
X312420Y318770D02*
X297180Y318770D01*
X314960Y321310D02*
X314960Y364490D01*
D12*
X291475Y306705D02*
X280035Y306705D01*
X280035Y312425D01*
X281942Y314332D01*
X289568Y314332D01*
X291475Y312425D01*
X291475Y306705D01*
X291475Y318399D02*
X291475Y326025D01*
X291475Y318399D02*
X285755Y318399D01*
X287662Y322212D01*
X287662Y324119D01*
X285755Y326025D01*
X281942Y326025D01*
X280035Y324119D01*
X280035Y320306D01*
X281942Y318399D01*
X280035Y330093D02*
X291475Y330093D01*
X291475Y335813D01*
X289568Y337719D01*
X287662Y337719D01*
X285755Y335813D01*
X283848Y337719D01*
X281942Y337719D01*
X280035Y335813D01*
X280035Y330093D01*
X285755Y330093D02*
X285755Y335813D01*
X289568Y341787D02*
X291475Y341787D01*
X289568Y341787D02*
X285755Y345600D01*
X289568Y349413D01*
X291475Y349413D01*
X285755Y345600D02*
X280035Y345600D01*
X280035Y353481D02*
X291475Y353481D01*
X291475Y359201D01*
X289568Y361107D01*
X285755Y361107D01*
X283848Y359201D01*
X283848Y353481D01*
D13*
X589088Y581914D02*
X591461Y581914D01*
X589088Y581914D02*
X587902Y583100D01*
X587902Y585473D01*
X589088Y586659D01*
X591461Y586659D01*
X592647Y585473D01*
X592647Y583100D01*
X591461Y581914D01*
X585631Y579541D02*
X585631Y586659D01*
X582072Y586659D01*
X580885Y585473D01*
X580885Y583100D01*
X582072Y581914D01*
X585631Y581914D01*
X577428Y581914D02*
X575055Y581914D01*
X577428Y581914D02*
X578614Y583100D01*
X578614Y585473D01*
X577428Y586659D01*
X575055Y586659D01*
X573869Y585473D01*
X573869Y584287D01*
X578614Y584287D01*
X571598Y581914D02*
X571598Y586659D01*
X568039Y586659D01*
X566852Y585473D01*
X566852Y581914D01*
X557565Y581914D02*
X554006Y581914D01*
X552820Y583100D01*
X554006Y584287D01*
X556379Y584287D01*
X557565Y585473D01*
X556379Y586659D01*
X552820Y586659D01*
X549362Y581914D02*
X546990Y581914D01*
X545803Y583100D01*
X545803Y585473D01*
X546990Y586659D01*
X549362Y586659D01*
X550549Y585473D01*
X550549Y583100D01*
X549362Y581914D01*
X543532Y583100D02*
X543532Y586659D01*
X543532Y583100D02*
X542346Y581914D01*
X538787Y581914D01*
X538787Y586659D01*
X536516Y586659D02*
X536516Y581914D01*
X536516Y584287D02*
X534143Y586659D01*
X532957Y586659D01*
X529483Y586659D02*
X525924Y586659D01*
X529483Y586659D02*
X530669Y585473D01*
X530669Y583100D01*
X529483Y581914D01*
X525924Y581914D01*
X522466Y581914D02*
X520094Y581914D01*
X522466Y581914D02*
X523653Y583100D01*
X523653Y585473D01*
X522466Y586659D01*
X520094Y586659D01*
X518907Y585473D01*
X518907Y584287D01*
X523653Y584287D01*
X578614Y577602D02*
X578614Y570484D01*
X578614Y574043D02*
X577428Y575229D01*
X575055Y575229D01*
X573869Y574043D01*
X573869Y570484D01*
X570411Y575229D02*
X568039Y575229D01*
X566852Y574043D01*
X566852Y570484D01*
X570411Y570484D01*
X571598Y571670D01*
X570411Y572857D01*
X566852Y572857D01*
X564581Y575229D02*
X564581Y570484D01*
X564581Y572857D02*
X562209Y575229D01*
X561022Y575229D01*
X553989Y577602D02*
X553989Y570484D01*
X557548Y570484D01*
X558734Y571670D01*
X558734Y574043D01*
X557548Y575229D01*
X553989Y575229D01*
X551718Y575229D02*
X551718Y571670D01*
X550532Y570484D01*
X549345Y571670D01*
X548159Y570484D01*
X546973Y571670D01*
X546973Y575229D01*
X543515Y575229D02*
X541143Y575229D01*
X539956Y574043D01*
X539956Y570484D01*
X543515Y570484D01*
X544702Y571670D01*
X543515Y572857D01*
X539956Y572857D01*
X537685Y575229D02*
X537685Y570484D01*
X537685Y572857D02*
X535313Y575229D01*
X534126Y575229D01*
X530652Y570484D02*
X528279Y570484D01*
X530652Y570484D02*
X531838Y571670D01*
X531838Y574043D01*
X530652Y575229D01*
X528279Y575229D01*
X527093Y574043D01*
X527093Y572857D01*
X531838Y572857D01*
M02*
