G04 EAGLE Gerber RS-274X export*
G75*
%MOMM*%
%FSLAX34Y34*%
%LPD*%
%INBottom Copper*%
%IPPOS*%
%AMOC8*
5,1,8,0,0,1.08239X$1,22.5*%
G01*
%ADD10R,1.168400X1.600200*%
%ADD11C,1.320800*%
%ADD12R,1.508000X1.508000*%
%ADD13C,1.508000*%
%ADD14C,1.422400*%
%ADD15C,0.152400*%

G36*
X582698Y111764D02*
X582698Y111764D01*
X582717Y111762D01*
X582819Y111784D01*
X582921Y111800D01*
X582938Y111810D01*
X582958Y111814D01*
X583047Y111867D01*
X583138Y111916D01*
X583152Y111930D01*
X583169Y111940D01*
X583236Y112019D01*
X583308Y112094D01*
X583316Y112112D01*
X583329Y112127D01*
X583368Y112223D01*
X583411Y112317D01*
X583413Y112337D01*
X583421Y112355D01*
X583439Y112522D01*
X583439Y608004D01*
X583432Y608049D01*
X583434Y608095D01*
X583412Y608170D01*
X583400Y608247D01*
X583378Y608287D01*
X583365Y608332D01*
X583321Y608396D01*
X583284Y608464D01*
X583251Y608496D01*
X583225Y608534D01*
X583162Y608580D01*
X583106Y608634D01*
X583065Y608653D01*
X583028Y608680D01*
X582953Y608704D01*
X582883Y608737D01*
X582837Y608742D01*
X582794Y608756D01*
X582716Y608756D01*
X582639Y608764D01*
X582594Y608755D01*
X582548Y608754D01*
X582417Y608716D01*
X582398Y608712D01*
X582394Y608709D01*
X582387Y608707D01*
X581860Y608489D01*
X573840Y608489D01*
X566430Y611559D01*
X560759Y617230D01*
X557689Y624640D01*
X557689Y632660D01*
X559233Y636387D01*
X559243Y636431D01*
X559263Y636473D01*
X559271Y636550D01*
X559289Y636626D01*
X559285Y636672D01*
X559290Y636717D01*
X559273Y636794D01*
X559266Y636871D01*
X559247Y636913D01*
X559238Y636958D01*
X559198Y637025D01*
X559166Y637096D01*
X559135Y637130D01*
X559111Y637169D01*
X559052Y637220D01*
X559000Y637277D01*
X558959Y637299D01*
X558924Y637329D01*
X558852Y637358D01*
X558784Y637395D01*
X558739Y637404D01*
X558696Y637421D01*
X558560Y637436D01*
X558542Y637439D01*
X558537Y637438D01*
X558530Y637439D01*
X176022Y637439D01*
X176002Y637436D01*
X175983Y637438D01*
X175881Y637416D01*
X175779Y637400D01*
X175762Y637390D01*
X175742Y637386D01*
X175653Y637333D01*
X175562Y637284D01*
X175548Y637270D01*
X175531Y637260D01*
X175464Y637181D01*
X175392Y637106D01*
X175384Y637088D01*
X175371Y637073D01*
X175332Y636977D01*
X175289Y636883D01*
X175287Y636863D01*
X175279Y636845D01*
X175261Y636678D01*
X175261Y137242D01*
X175268Y137197D01*
X175266Y137151D01*
X175288Y137076D01*
X175300Y136999D01*
X175322Y136959D01*
X175335Y136914D01*
X175379Y136850D01*
X175416Y136782D01*
X175449Y136750D01*
X175475Y136712D01*
X175537Y136666D01*
X175594Y136612D01*
X175636Y136593D01*
X175672Y136566D01*
X175746Y136542D01*
X175817Y136509D01*
X175863Y136504D01*
X175906Y136489D01*
X175984Y136490D01*
X176061Y136482D01*
X176106Y136491D01*
X176152Y136492D01*
X176284Y136530D01*
X176302Y136534D01*
X176306Y136536D01*
X176313Y136539D01*
X178306Y137364D01*
X186326Y137364D01*
X193736Y134295D01*
X199408Y128623D01*
X202477Y121213D01*
X202477Y113193D01*
X202320Y112813D01*
X202309Y112769D01*
X202290Y112727D01*
X202281Y112650D01*
X202263Y112574D01*
X202268Y112528D01*
X202263Y112483D01*
X202279Y112406D01*
X202286Y112329D01*
X202305Y112287D01*
X202315Y112242D01*
X202355Y112175D01*
X202386Y112104D01*
X202418Y112070D01*
X202441Y112031D01*
X202500Y111980D01*
X202553Y111923D01*
X202593Y111901D01*
X202628Y111871D01*
X202700Y111842D01*
X202768Y111805D01*
X202813Y111796D01*
X202856Y111779D01*
X202992Y111764D01*
X203010Y111761D01*
X203015Y111762D01*
X203023Y111761D01*
X582678Y111761D01*
X582698Y111764D01*
G37*
%LPC*%
G36*
X359286Y193674D02*
X359286Y193674D01*
X358393Y194567D01*
X358393Y211833D01*
X359286Y212726D01*
X362712Y212726D01*
X362732Y212729D01*
X362751Y212727D01*
X362853Y212749D01*
X362955Y212765D01*
X362972Y212775D01*
X362992Y212779D01*
X363081Y212832D01*
X363172Y212881D01*
X363186Y212895D01*
X363203Y212905D01*
X363270Y212984D01*
X363342Y213059D01*
X363350Y213077D01*
X363363Y213092D01*
X363402Y213188D01*
X363445Y213282D01*
X363447Y213302D01*
X363455Y213320D01*
X363473Y213487D01*
X363473Y230385D01*
X363459Y230476D01*
X363451Y230566D01*
X363439Y230596D01*
X363434Y230628D01*
X363391Y230709D01*
X363355Y230793D01*
X363329Y230825D01*
X363318Y230846D01*
X363295Y230868D01*
X363250Y230924D01*
X340613Y253561D01*
X340613Y393453D01*
X340612Y393461D01*
X340612Y393463D01*
X340610Y393471D01*
X340599Y393544D01*
X340591Y393634D01*
X340579Y393664D01*
X340574Y393696D01*
X340531Y393777D01*
X340495Y393861D01*
X340469Y393893D01*
X340458Y393914D01*
X340435Y393936D01*
X340390Y393992D01*
X204977Y529405D01*
X204977Y590049D01*
X204963Y590140D01*
X204955Y590230D01*
X204943Y590260D01*
X204938Y590292D01*
X204895Y590373D01*
X204859Y590457D01*
X204833Y590489D01*
X204822Y590510D01*
X204799Y590532D01*
X204754Y590588D01*
X201929Y593413D01*
X201929Y594215D01*
X201910Y594330D01*
X201893Y594446D01*
X201891Y594452D01*
X201890Y594458D01*
X201835Y594561D01*
X201782Y594665D01*
X201777Y594670D01*
X201774Y594675D01*
X201690Y594755D01*
X201606Y594838D01*
X201600Y594841D01*
X201596Y594845D01*
X201579Y594853D01*
X201459Y594919D01*
X198595Y596105D01*
X196309Y598391D01*
X195071Y601379D01*
X195071Y617821D01*
X196309Y620809D01*
X198595Y623095D01*
X201583Y624333D01*
X204817Y624333D01*
X207805Y623095D01*
X210091Y620809D01*
X211329Y617821D01*
X211329Y601379D01*
X210091Y598391D01*
X207805Y596105D01*
X207373Y595926D01*
X207334Y595902D01*
X207290Y595886D01*
X207230Y595837D01*
X207164Y595796D01*
X207134Y595761D01*
X207098Y595732D01*
X207056Y595667D01*
X207007Y595607D01*
X206990Y595564D01*
X206965Y595525D01*
X206946Y595450D01*
X206919Y595377D01*
X206917Y595331D01*
X206905Y595287D01*
X206911Y595209D01*
X206908Y595131D01*
X206921Y595087D01*
X206925Y595042D01*
X206955Y594970D01*
X206977Y594895D01*
X207003Y594857D01*
X207021Y594815D01*
X207106Y594708D01*
X207117Y594693D01*
X207121Y594690D01*
X207126Y594684D01*
X209551Y592259D01*
X209551Y531615D01*
X209565Y531524D01*
X209573Y531434D01*
X209585Y531404D01*
X209590Y531372D01*
X209633Y531291D01*
X209669Y531207D01*
X209695Y531175D01*
X209706Y531154D01*
X209729Y531132D01*
X209774Y531076D01*
X345187Y395663D01*
X345187Y255771D01*
X345201Y255680D01*
X345209Y255590D01*
X345221Y255560D01*
X345226Y255528D01*
X345269Y255447D01*
X345305Y255363D01*
X345331Y255331D01*
X345342Y255310D01*
X345365Y255288D01*
X345410Y255232D01*
X368047Y232595D01*
X368047Y213487D01*
X368050Y213467D01*
X368048Y213448D01*
X368070Y213346D01*
X368086Y213244D01*
X368096Y213227D01*
X368100Y213207D01*
X368153Y213118D01*
X368202Y213027D01*
X368216Y213013D01*
X368226Y212996D01*
X368305Y212929D01*
X368380Y212857D01*
X368398Y212849D01*
X368413Y212836D01*
X368509Y212797D01*
X368603Y212754D01*
X368623Y212752D01*
X368641Y212744D01*
X368808Y212726D01*
X372234Y212726D01*
X372842Y212118D01*
X372858Y212106D01*
X372870Y212090D01*
X372958Y212034D01*
X373041Y211974D01*
X373060Y211968D01*
X373077Y211957D01*
X373178Y211932D01*
X373277Y211902D01*
X373296Y211902D01*
X373316Y211897D01*
X373419Y211905D01*
X373522Y211908D01*
X373541Y211915D01*
X373561Y211916D01*
X373656Y211957D01*
X373753Y211992D01*
X373769Y212005D01*
X373787Y212013D01*
X373918Y212118D01*
X374526Y212726D01*
X378340Y212726D01*
X378431Y212740D01*
X378521Y212748D01*
X378551Y212760D01*
X378583Y212765D01*
X378664Y212808D01*
X378748Y212844D01*
X378780Y212870D01*
X378801Y212881D01*
X378823Y212904D01*
X378879Y212949D01*
X380276Y214346D01*
X423528Y257598D01*
X423595Y257691D01*
X423666Y257786D01*
X423668Y257792D01*
X423671Y257797D01*
X423705Y257908D01*
X423742Y258020D01*
X423742Y258026D01*
X423744Y258032D01*
X423741Y258149D01*
X423739Y258266D01*
X423737Y258273D01*
X423737Y258278D01*
X423731Y258296D01*
X423693Y258427D01*
X423671Y258479D01*
X423671Y274921D01*
X424909Y277909D01*
X427195Y280195D01*
X430183Y281433D01*
X433417Y281433D01*
X436405Y280195D01*
X438691Y277909D01*
X439929Y274921D01*
X439929Y258479D01*
X438691Y255491D01*
X436405Y253205D01*
X433417Y251967D01*
X430183Y251967D01*
X427195Y253205D01*
X426937Y253463D01*
X426921Y253474D01*
X426909Y253490D01*
X426821Y253546D01*
X426738Y253606D01*
X426719Y253612D01*
X426702Y253623D01*
X426601Y253648D01*
X426503Y253679D01*
X426483Y253678D01*
X426463Y253683D01*
X426360Y253675D01*
X426257Y253672D01*
X426238Y253666D01*
X426218Y253664D01*
X426123Y253624D01*
X426026Y253588D01*
X426010Y253575D01*
X425992Y253568D01*
X425861Y253463D01*
X386423Y214025D01*
X386381Y213967D01*
X386332Y213915D01*
X386310Y213868D01*
X386280Y213826D01*
X386259Y213757D01*
X386228Y213692D01*
X386223Y213640D01*
X386207Y213590D01*
X386209Y213519D01*
X386201Y213448D01*
X386212Y213397D01*
X386214Y213345D01*
X386238Y213277D01*
X386253Y213207D01*
X386280Y213163D01*
X386298Y213114D01*
X386343Y213058D01*
X386380Y212996D01*
X386419Y212962D01*
X386452Y212922D01*
X386512Y212883D01*
X386567Y212836D01*
X386615Y212817D01*
X386659Y212789D01*
X386728Y212771D01*
X386795Y212744D01*
X386866Y212736D01*
X386897Y212728D01*
X386921Y212730D01*
X386961Y212726D01*
X387474Y212726D01*
X388082Y212118D01*
X388098Y212106D01*
X388110Y212090D01*
X388198Y212034D01*
X388281Y211974D01*
X388300Y211968D01*
X388317Y211957D01*
X388418Y211932D01*
X388517Y211902D01*
X388536Y211902D01*
X388556Y211897D01*
X388659Y211905D01*
X388762Y211908D01*
X388781Y211915D01*
X388801Y211916D01*
X388896Y211957D01*
X388993Y211992D01*
X389009Y212005D01*
X389027Y212013D01*
X389158Y212118D01*
X389766Y212726D01*
X402714Y212726D01*
X403607Y211833D01*
X403607Y207264D01*
X403610Y207244D01*
X403608Y207225D01*
X403630Y207123D01*
X403646Y207021D01*
X403656Y207004D01*
X403660Y206984D01*
X403713Y206895D01*
X403762Y206804D01*
X403776Y206790D01*
X403786Y206773D01*
X403865Y206706D01*
X403940Y206634D01*
X403958Y206626D01*
X403973Y206613D01*
X404069Y206574D01*
X404163Y206531D01*
X404183Y206529D01*
X404201Y206521D01*
X404368Y206503D01*
X509277Y206503D01*
X509368Y206517D01*
X509458Y206525D01*
X509488Y206537D01*
X509520Y206542D01*
X509601Y206585D01*
X509685Y206621D01*
X509717Y206647D01*
X509738Y206658D01*
X509760Y206681D01*
X509816Y206726D01*
X521785Y218695D01*
X544329Y218695D01*
X544420Y218709D01*
X544510Y218717D01*
X544540Y218729D01*
X544572Y218734D01*
X544653Y218777D01*
X544737Y218813D01*
X544769Y218839D01*
X544790Y218850D01*
X544812Y218873D01*
X544868Y218918D01*
X550702Y224752D01*
X550755Y224826D01*
X550815Y224896D01*
X550827Y224926D01*
X550846Y224952D01*
X550873Y225039D01*
X550907Y225124D01*
X550911Y225165D01*
X550918Y225187D01*
X550917Y225219D01*
X550925Y225291D01*
X550925Y231909D01*
X550911Y232000D01*
X550903Y232090D01*
X550891Y232120D01*
X550886Y232152D01*
X550843Y232233D01*
X550807Y232317D01*
X550781Y232349D01*
X550770Y232370D01*
X550747Y232392D01*
X550702Y232448D01*
X537502Y245648D01*
X537428Y245701D01*
X537358Y245761D01*
X537328Y245773D01*
X537302Y245792D01*
X537215Y245819D01*
X537130Y245853D01*
X537089Y245857D01*
X537067Y245864D01*
X537035Y245863D01*
X536963Y245871D01*
X527296Y245871D01*
X527226Y245860D01*
X527154Y245858D01*
X527105Y245840D01*
X527054Y245832D01*
X526990Y245798D01*
X526923Y245773D01*
X526882Y245741D01*
X526836Y245716D01*
X526787Y245664D01*
X526731Y245620D01*
X526703Y245576D01*
X526667Y245538D01*
X526637Y245473D01*
X526598Y245413D01*
X526585Y245362D01*
X526563Y245315D01*
X526555Y245244D01*
X526538Y245174D01*
X526542Y245122D01*
X526536Y245071D01*
X526551Y245000D01*
X526557Y244929D01*
X526577Y244881D01*
X526588Y244830D01*
X526625Y244769D01*
X526653Y244703D01*
X526698Y244647D01*
X526715Y244619D01*
X526732Y244604D01*
X526758Y244572D01*
X534378Y236952D01*
X534452Y236899D01*
X534522Y236839D01*
X534552Y236827D01*
X534578Y236808D01*
X534665Y236781D01*
X534750Y236747D01*
X534791Y236743D01*
X534813Y236736D01*
X534845Y236737D01*
X534917Y236729D01*
X541621Y236729D01*
X544609Y235491D01*
X546895Y233205D01*
X548133Y230217D01*
X548133Y226983D01*
X546895Y223995D01*
X544609Y221709D01*
X541621Y220471D01*
X525179Y220471D01*
X522191Y221709D01*
X519905Y223995D01*
X518667Y226983D01*
X518667Y230217D01*
X519905Y233205D01*
X522191Y235491D01*
X525179Y236729D01*
X526296Y236729D01*
X526366Y236740D01*
X526438Y236742D01*
X526487Y236760D01*
X526538Y236768D01*
X526602Y236802D01*
X526669Y236827D01*
X526710Y236859D01*
X526756Y236884D01*
X526805Y236936D01*
X526861Y236980D01*
X526889Y237024D01*
X526925Y237062D01*
X526955Y237127D01*
X526994Y237187D01*
X527007Y237238D01*
X527029Y237285D01*
X527037Y237356D01*
X527054Y237426D01*
X527050Y237478D01*
X527056Y237529D01*
X527041Y237600D01*
X527035Y237671D01*
X527015Y237719D01*
X527004Y237770D01*
X526967Y237831D01*
X526939Y237897D01*
X526894Y237953D01*
X526877Y237981D01*
X526860Y237996D01*
X526834Y238028D01*
X506768Y258094D01*
X505205Y259657D01*
X505205Y283464D01*
X505202Y283484D01*
X505204Y283503D01*
X505182Y283605D01*
X505166Y283707D01*
X505156Y283724D01*
X505152Y283744D01*
X505099Y283833D01*
X505050Y283924D01*
X505036Y283938D01*
X505026Y283955D01*
X504947Y284022D01*
X504872Y284094D01*
X504854Y284102D01*
X504839Y284115D01*
X504743Y284154D01*
X504649Y284197D01*
X504629Y284199D01*
X504611Y284207D01*
X504444Y284225D01*
X373119Y284225D01*
X373028Y284211D01*
X372938Y284203D01*
X372908Y284191D01*
X372876Y284186D01*
X372795Y284143D01*
X372711Y284107D01*
X372679Y284081D01*
X372658Y284070D01*
X372636Y284047D01*
X372580Y284002D01*
X363952Y275374D01*
X363899Y275300D01*
X363839Y275230D01*
X363827Y275200D01*
X363808Y275174D01*
X363781Y275087D01*
X363747Y275002D01*
X363743Y274961D01*
X363736Y274939D01*
X363737Y274907D01*
X363729Y274836D01*
X363729Y258479D01*
X362491Y255491D01*
X360205Y253205D01*
X357217Y251967D01*
X353983Y251967D01*
X350995Y253205D01*
X348709Y255491D01*
X347471Y258479D01*
X347471Y274921D01*
X348709Y277909D01*
X350995Y280195D01*
X353983Y281433D01*
X357217Y281433D01*
X360205Y280195D01*
X360717Y279683D01*
X360733Y279671D01*
X360745Y279656D01*
X360832Y279600D01*
X360916Y279540D01*
X360935Y279534D01*
X360952Y279523D01*
X361053Y279498D01*
X361151Y279467D01*
X361171Y279468D01*
X361191Y279463D01*
X361294Y279471D01*
X361397Y279474D01*
X361416Y279480D01*
X361436Y279482D01*
X361531Y279522D01*
X361628Y279558D01*
X361644Y279571D01*
X361662Y279578D01*
X361793Y279683D01*
X369346Y287236D01*
X370909Y288799D01*
X504444Y288799D01*
X504464Y288802D01*
X504483Y288800D01*
X504585Y288822D01*
X504687Y288838D01*
X504704Y288848D01*
X504724Y288852D01*
X504813Y288905D01*
X504904Y288954D01*
X504918Y288968D01*
X504935Y288978D01*
X505002Y289057D01*
X505074Y289132D01*
X505082Y289150D01*
X505095Y289165D01*
X505134Y289261D01*
X505177Y289355D01*
X505179Y289375D01*
X505187Y289393D01*
X505205Y289560D01*
X505205Y320862D01*
X505190Y320958D01*
X505180Y321055D01*
X505170Y321079D01*
X505166Y321105D01*
X505120Y321191D01*
X505080Y321280D01*
X505063Y321299D01*
X505050Y321322D01*
X504980Y321389D01*
X504914Y321461D01*
X504891Y321474D01*
X504872Y321492D01*
X504784Y321533D01*
X504698Y321580D01*
X504673Y321584D01*
X504649Y321595D01*
X504552Y321606D01*
X504456Y321623D01*
X504430Y321620D01*
X504405Y321623D01*
X504309Y321602D01*
X504213Y321588D01*
X504190Y321576D01*
X504164Y321570D01*
X504081Y321520D01*
X503994Y321476D01*
X503975Y321457D01*
X503953Y321444D01*
X503890Y321370D01*
X503822Y321301D01*
X503806Y321272D01*
X503793Y321257D01*
X503781Y321226D01*
X503741Y321154D01*
X502231Y317510D01*
X496560Y311839D01*
X489150Y308769D01*
X481130Y308769D01*
X473720Y311839D01*
X468049Y317510D01*
X464979Y324920D01*
X464979Y332940D01*
X468049Y340350D01*
X473720Y346021D01*
X481130Y349091D01*
X489150Y349091D01*
X496560Y346021D01*
X502231Y340350D01*
X503741Y336706D01*
X503792Y336624D01*
X503838Y336538D01*
X503857Y336520D01*
X503870Y336497D01*
X503945Y336435D01*
X504016Y336368D01*
X504040Y336357D01*
X504060Y336341D01*
X504151Y336306D01*
X504239Y336265D01*
X504265Y336262D01*
X504289Y336252D01*
X504387Y336248D01*
X504483Y336237D01*
X504509Y336243D01*
X504535Y336242D01*
X504629Y336269D01*
X504724Y336290D01*
X504746Y336303D01*
X504771Y336310D01*
X504851Y336366D01*
X504935Y336416D01*
X504952Y336436D01*
X504973Y336451D01*
X505032Y336529D01*
X505095Y336603D01*
X505105Y336627D01*
X505120Y336648D01*
X505150Y336741D01*
X505187Y336831D01*
X505190Y336863D01*
X505196Y336882D01*
X505196Y336915D01*
X505205Y336998D01*
X505205Y489465D01*
X505191Y489556D01*
X505183Y489646D01*
X505171Y489676D01*
X505166Y489708D01*
X505123Y489789D01*
X505087Y489873D01*
X505061Y489905D01*
X505050Y489926D01*
X505027Y489948D01*
X504982Y490004D01*
X500672Y494314D01*
X500598Y494367D01*
X500528Y494427D01*
X500498Y494439D01*
X500472Y494458D01*
X500385Y494485D01*
X500300Y494519D01*
X500259Y494523D01*
X500237Y494530D01*
X500205Y494529D01*
X500133Y494537D01*
X412057Y494537D01*
X408343Y498251D01*
X408269Y498304D01*
X408199Y498364D01*
X408169Y498376D01*
X408143Y498395D01*
X408056Y498422D01*
X407971Y498456D01*
X407930Y498460D01*
X407908Y498467D01*
X407876Y498466D01*
X407804Y498474D01*
X397386Y498474D01*
X396493Y499367D01*
X396493Y512834D01*
X396479Y512924D01*
X396471Y513015D01*
X396459Y513044D01*
X396454Y513076D01*
X396411Y513157D01*
X396375Y513241D01*
X396349Y513273D01*
X396338Y513294D01*
X396315Y513316D01*
X396270Y513372D01*
X381800Y527842D01*
X380237Y529405D01*
X380237Y564142D01*
X380226Y564212D01*
X380224Y564284D01*
X380206Y564333D01*
X380198Y564384D01*
X380164Y564448D01*
X380139Y564515D01*
X380107Y564556D01*
X380082Y564602D01*
X380030Y564651D01*
X379986Y564707D01*
X379942Y564735D01*
X379904Y564771D01*
X379839Y564801D01*
X379779Y564840D01*
X379728Y564853D01*
X379681Y564875D01*
X379610Y564883D01*
X379540Y564900D01*
X379488Y564896D01*
X379437Y564902D01*
X379366Y564887D01*
X379295Y564881D01*
X379247Y564861D01*
X379196Y564850D01*
X379135Y564813D01*
X379069Y564785D01*
X379013Y564740D01*
X378985Y564723D01*
X378970Y564706D01*
X378938Y564680D01*
X360650Y546392D01*
X360597Y546318D01*
X360537Y546248D01*
X360525Y546218D01*
X360506Y546192D01*
X360479Y546105D01*
X360445Y546020D01*
X360441Y545979D01*
X360434Y545957D01*
X360435Y545925D01*
X360427Y545853D01*
X360427Y518287D01*
X360430Y518267D01*
X360428Y518248D01*
X360450Y518146D01*
X360466Y518044D01*
X360476Y518027D01*
X360480Y518007D01*
X360533Y517918D01*
X360582Y517827D01*
X360596Y517813D01*
X360606Y517796D01*
X360685Y517729D01*
X360760Y517657D01*
X360778Y517649D01*
X360793Y517636D01*
X360889Y517597D01*
X360983Y517554D01*
X361003Y517552D01*
X361021Y517544D01*
X361188Y517526D01*
X364614Y517526D01*
X365507Y516633D01*
X365507Y499367D01*
X364614Y498474D01*
X351666Y498474D01*
X351058Y499082D01*
X351042Y499094D01*
X351030Y499110D01*
X350942Y499166D01*
X350859Y499226D01*
X350840Y499232D01*
X350823Y499243D01*
X350722Y499268D01*
X350623Y499298D01*
X350604Y499298D01*
X350584Y499303D01*
X350481Y499295D01*
X350378Y499292D01*
X350359Y499285D01*
X350339Y499284D01*
X350244Y499243D01*
X350147Y499208D01*
X350131Y499195D01*
X350113Y499187D01*
X349982Y499082D01*
X349374Y498474D01*
X336383Y498474D01*
X336337Y498508D01*
X336318Y498513D01*
X336301Y498524D01*
X336201Y498549D01*
X336102Y498580D01*
X336082Y498579D01*
X336063Y498584D01*
X335960Y498576D01*
X335856Y498574D01*
X335837Y498567D01*
X335817Y498565D01*
X335722Y498525D01*
X335625Y498489D01*
X335609Y498477D01*
X335591Y498469D01*
X335460Y498364D01*
X335062Y497966D01*
X334483Y497631D01*
X333836Y497458D01*
X329183Y497458D01*
X329183Y507238D01*
X329180Y507258D01*
X329182Y507277D01*
X329160Y507379D01*
X329143Y507481D01*
X329134Y507498D01*
X329130Y507518D01*
X329077Y507607D01*
X329028Y507698D01*
X329014Y507712D01*
X329004Y507729D01*
X328925Y507796D01*
X328850Y507867D01*
X328832Y507876D01*
X328817Y507889D01*
X328721Y507928D01*
X328627Y507971D01*
X328607Y507973D01*
X328589Y507981D01*
X328422Y507999D01*
X327659Y507999D01*
X327659Y508001D01*
X328422Y508001D01*
X328442Y508004D01*
X328461Y508002D01*
X328563Y508024D01*
X328665Y508041D01*
X328682Y508050D01*
X328702Y508054D01*
X328791Y508107D01*
X328882Y508156D01*
X328896Y508170D01*
X328913Y508180D01*
X328980Y508259D01*
X329051Y508334D01*
X329060Y508352D01*
X329073Y508367D01*
X329112Y508463D01*
X329155Y508557D01*
X329157Y508577D01*
X329165Y508595D01*
X329183Y508762D01*
X329183Y518542D01*
X333836Y518542D01*
X334483Y518369D01*
X335062Y518034D01*
X335460Y517636D01*
X335476Y517624D01*
X335489Y517609D01*
X335576Y517553D01*
X335660Y517492D01*
X335679Y517487D01*
X335696Y517476D01*
X335796Y517451D01*
X335895Y517420D01*
X335915Y517421D01*
X335934Y517416D01*
X336037Y517424D01*
X336141Y517426D01*
X336160Y517433D01*
X336180Y517435D01*
X336275Y517475D01*
X336372Y517511D01*
X336387Y517523D01*
X336393Y517526D01*
X339852Y517526D01*
X339872Y517529D01*
X339891Y517527D01*
X339993Y517549D01*
X340095Y517565D01*
X340112Y517575D01*
X340132Y517579D01*
X340221Y517632D01*
X340312Y517681D01*
X340326Y517695D01*
X340343Y517705D01*
X340410Y517784D01*
X340482Y517859D01*
X340490Y517877D01*
X340503Y517892D01*
X340542Y517988D01*
X340585Y518082D01*
X340587Y518102D01*
X340595Y518120D01*
X340613Y518287D01*
X340613Y548063D01*
X359758Y567208D01*
X359815Y567287D01*
X359847Y567321D01*
X359860Y567348D01*
X359896Y567396D01*
X359898Y567402D01*
X359901Y567407D01*
X359928Y567496D01*
X359951Y567544D01*
X359955Y567578D01*
X359972Y567630D01*
X359972Y567636D01*
X359974Y567642D01*
X359971Y567728D01*
X359978Y567789D01*
X359970Y567827D01*
X359969Y567876D01*
X359967Y567883D01*
X359967Y567888D01*
X359961Y567906D01*
X359929Y568017D01*
X359926Y568029D01*
X359924Y568032D01*
X359923Y568037D01*
X359235Y569697D01*
X359235Y573303D01*
X360615Y576635D01*
X362562Y578582D01*
X362604Y578640D01*
X362653Y578692D01*
X362675Y578739D01*
X362706Y578781D01*
X362727Y578850D01*
X362757Y578915D01*
X362763Y578967D01*
X362778Y579017D01*
X362776Y579088D01*
X362784Y579159D01*
X362773Y579210D01*
X362772Y579262D01*
X362747Y579330D01*
X362732Y579400D01*
X362705Y579445D01*
X362687Y579493D01*
X362642Y579549D01*
X362606Y579611D01*
X362566Y579645D01*
X362534Y579685D01*
X362473Y579724D01*
X362419Y579771D01*
X362371Y579790D01*
X362327Y579818D01*
X362257Y579836D01*
X362191Y579863D01*
X362119Y579871D01*
X362088Y579879D01*
X362065Y579877D01*
X362024Y579881D01*
X352726Y579881D01*
X352706Y579878D01*
X352687Y579880D01*
X352585Y579858D01*
X352483Y579842D01*
X352466Y579832D01*
X352446Y579828D01*
X352357Y579775D01*
X352266Y579726D01*
X352252Y579712D01*
X352235Y579702D01*
X352168Y579623D01*
X352096Y579548D01*
X352088Y579530D01*
X352075Y579515D01*
X352036Y579419D01*
X351993Y579325D01*
X351991Y579305D01*
X351983Y579287D01*
X351965Y579120D01*
X351965Y563328D01*
X351072Y562435D01*
X334728Y562435D01*
X333835Y563328D01*
X333835Y568452D01*
X333832Y568472D01*
X333834Y568491D01*
X333812Y568593D01*
X333796Y568695D01*
X333786Y568712D01*
X333782Y568732D01*
X333729Y568821D01*
X333680Y568912D01*
X333666Y568926D01*
X333656Y568943D01*
X333577Y569010D01*
X333502Y569082D01*
X333484Y569090D01*
X333469Y569103D01*
X333373Y569142D01*
X333279Y569185D01*
X333259Y569187D01*
X333241Y569195D01*
X333074Y569213D01*
X328923Y569213D01*
X328832Y569199D01*
X328742Y569191D01*
X328712Y569179D01*
X328680Y569174D01*
X328599Y569131D01*
X328515Y569095D01*
X328483Y569069D01*
X328462Y569058D01*
X328440Y569035D01*
X328384Y568990D01*
X279235Y519841D01*
X279193Y519783D01*
X279144Y519731D01*
X279122Y519684D01*
X279092Y519642D01*
X279071Y519573D01*
X279040Y519508D01*
X279035Y519456D01*
X279019Y519406D01*
X279021Y519335D01*
X279013Y519264D01*
X279024Y519213D01*
X279026Y519161D01*
X279050Y519093D01*
X279065Y519023D01*
X279092Y518978D01*
X279110Y518930D01*
X279155Y518874D01*
X279192Y518812D01*
X279231Y518778D01*
X279264Y518738D01*
X279324Y518699D01*
X279379Y518652D01*
X279427Y518633D01*
X279471Y518605D01*
X279540Y518587D01*
X279607Y518560D01*
X279678Y518552D01*
X279709Y518544D01*
X279733Y518546D01*
X279773Y518542D01*
X280417Y518542D01*
X280417Y508762D01*
X280420Y508742D01*
X280418Y508723D01*
X280440Y508621D01*
X280457Y508519D01*
X280466Y508502D01*
X280470Y508482D01*
X280523Y508393D01*
X280572Y508302D01*
X280586Y508288D01*
X280596Y508271D01*
X280675Y508204D01*
X280750Y508133D01*
X280768Y508124D01*
X280783Y508111D01*
X280879Y508072D01*
X280973Y508029D01*
X280993Y508027D01*
X281011Y508019D01*
X281178Y508001D01*
X281941Y508001D01*
X281941Y507999D01*
X281178Y507999D01*
X281158Y507996D01*
X281139Y507998D01*
X281037Y507976D01*
X280935Y507959D01*
X280918Y507950D01*
X280898Y507946D01*
X280809Y507893D01*
X280718Y507844D01*
X280704Y507830D01*
X280687Y507820D01*
X280620Y507741D01*
X280549Y507666D01*
X280540Y507648D01*
X280527Y507633D01*
X280488Y507537D01*
X280445Y507443D01*
X280443Y507423D01*
X280435Y507405D01*
X280417Y507238D01*
X280417Y497458D01*
X275764Y497458D01*
X275117Y497631D01*
X274538Y497966D01*
X274140Y498364D01*
X274124Y498376D01*
X274111Y498391D01*
X274024Y498447D01*
X273940Y498508D01*
X273921Y498513D01*
X273904Y498524D01*
X273804Y498549D01*
X273705Y498580D01*
X273685Y498579D01*
X273666Y498584D01*
X273563Y498576D01*
X273459Y498574D01*
X273440Y498567D01*
X273420Y498565D01*
X273325Y498525D01*
X273228Y498489D01*
X273213Y498477D01*
X273207Y498474D01*
X260226Y498474D01*
X259618Y499082D01*
X259602Y499094D01*
X259590Y499110D01*
X259502Y499166D01*
X259419Y499226D01*
X259400Y499232D01*
X259383Y499243D01*
X259282Y499268D01*
X259183Y499298D01*
X259164Y499298D01*
X259144Y499303D01*
X259041Y499295D01*
X258938Y499292D01*
X258919Y499285D01*
X258899Y499284D01*
X258804Y499243D01*
X258707Y499208D01*
X258691Y499195D01*
X258673Y499187D01*
X258542Y499082D01*
X257934Y498474D01*
X244986Y498474D01*
X244093Y499367D01*
X244093Y516633D01*
X244986Y517526D01*
X254896Y517526D01*
X254987Y517540D01*
X255077Y517548D01*
X255107Y517560D01*
X255139Y517565D01*
X255220Y517608D01*
X255304Y517644D01*
X255336Y517670D01*
X255357Y517681D01*
X255379Y517704D01*
X255435Y517749D01*
X276296Y538610D01*
X276338Y538668D01*
X276387Y538720D01*
X276409Y538767D01*
X276439Y538809D01*
X276460Y538878D01*
X276491Y538943D01*
X276496Y538995D01*
X276512Y539045D01*
X276510Y539116D01*
X276518Y539187D01*
X276507Y539238D01*
X276505Y539290D01*
X276481Y539358D01*
X276466Y539428D01*
X276439Y539473D01*
X276421Y539521D01*
X276376Y539577D01*
X276339Y539639D01*
X276300Y539673D01*
X276267Y539713D01*
X276207Y539752D01*
X276152Y539799D01*
X276104Y539818D01*
X276060Y539846D01*
X275991Y539864D01*
X275924Y539891D01*
X275853Y539899D01*
X275822Y539907D01*
X275798Y539905D01*
X275758Y539909D01*
X272850Y539909D01*
X265440Y542979D01*
X259769Y548650D01*
X256699Y556060D01*
X256699Y564080D01*
X259769Y571490D01*
X265440Y577161D01*
X272850Y580231D01*
X280870Y580231D01*
X288280Y577161D01*
X293951Y571490D01*
X297021Y564080D01*
X297021Y556060D01*
X296490Y554779D01*
X296468Y554685D01*
X296440Y554592D01*
X296440Y554565D01*
X296434Y554540D01*
X296443Y554443D01*
X296446Y554346D01*
X296455Y554321D01*
X296457Y554295D01*
X296497Y554206D01*
X296530Y554115D01*
X296547Y554094D01*
X296557Y554070D01*
X296623Y553999D01*
X296684Y553923D01*
X296706Y553909D01*
X296724Y553889D01*
X296809Y553842D01*
X296891Y553790D01*
X296916Y553783D01*
X296939Y553771D01*
X297035Y553753D01*
X297129Y553730D01*
X297156Y553732D01*
X297181Y553727D01*
X297278Y553741D01*
X297375Y553749D01*
X297399Y553759D01*
X297425Y553763D01*
X297512Y553807D01*
X297601Y553845D01*
X297626Y553865D01*
X297644Y553874D01*
X297667Y553898D01*
X297732Y553950D01*
X326674Y582892D01*
X326727Y582966D01*
X326787Y583036D01*
X326799Y583066D01*
X326818Y583092D01*
X326845Y583179D01*
X326879Y583264D01*
X326883Y583305D01*
X326890Y583327D01*
X326889Y583359D01*
X326897Y583430D01*
X326897Y595057D01*
X326878Y595172D01*
X326861Y595288D01*
X326859Y595293D01*
X326858Y595300D01*
X326803Y595402D01*
X326750Y595507D01*
X326745Y595512D01*
X326742Y595517D01*
X326658Y595597D01*
X326574Y595679D01*
X326568Y595683D01*
X326564Y595686D01*
X326547Y595694D01*
X326427Y595760D01*
X325595Y596105D01*
X323309Y598391D01*
X322071Y601379D01*
X322071Y617821D01*
X323309Y620809D01*
X325278Y622778D01*
X325320Y622836D01*
X325369Y622888D01*
X325391Y622935D01*
X325422Y622977D01*
X325443Y623046D01*
X325473Y623111D01*
X325479Y623163D01*
X325494Y623213D01*
X325492Y623284D01*
X325500Y623355D01*
X325489Y623406D01*
X325488Y623458D01*
X325463Y623526D01*
X325448Y623596D01*
X325421Y623641D01*
X325403Y623689D01*
X325358Y623745D01*
X325321Y623807D01*
X325282Y623841D01*
X325249Y623881D01*
X325189Y623920D01*
X325135Y623967D01*
X325086Y623986D01*
X325042Y624014D01*
X324973Y624032D01*
X324906Y624059D01*
X324835Y624067D01*
X324804Y624075D01*
X324781Y624073D01*
X324740Y624077D01*
X310260Y624077D01*
X310190Y624066D01*
X310118Y624064D01*
X310069Y624046D01*
X310018Y624038D01*
X309954Y624004D01*
X309887Y623979D01*
X309846Y623947D01*
X309800Y623922D01*
X309751Y623870D01*
X309695Y623826D01*
X309667Y623782D01*
X309631Y623744D01*
X309601Y623679D01*
X309562Y623619D01*
X309549Y623568D01*
X309527Y623521D01*
X309519Y623450D01*
X309502Y623380D01*
X309506Y623328D01*
X309500Y623277D01*
X309515Y623206D01*
X309521Y623135D01*
X309541Y623087D01*
X309552Y623036D01*
X309589Y622975D01*
X309617Y622909D01*
X309662Y622853D01*
X309679Y622825D01*
X309696Y622810D01*
X309722Y622778D01*
X311691Y620809D01*
X312929Y617821D01*
X312929Y601379D01*
X311691Y598391D01*
X309405Y596105D01*
X306417Y594867D01*
X303183Y594867D01*
X300195Y596105D01*
X297909Y598391D01*
X296671Y601379D01*
X296671Y616212D01*
X296660Y616282D01*
X296658Y616354D01*
X296640Y616403D01*
X296632Y616454D01*
X296598Y616518D01*
X296573Y616585D01*
X296541Y616626D01*
X296516Y616672D01*
X296464Y616721D01*
X296420Y616777D01*
X296376Y616805D01*
X296338Y616841D01*
X296273Y616871D01*
X296213Y616910D01*
X296162Y616923D01*
X296115Y616945D01*
X296044Y616953D01*
X295974Y616970D01*
X295922Y616966D01*
X295871Y616972D01*
X295800Y616957D01*
X295729Y616951D01*
X295681Y616931D01*
X295630Y616920D01*
X295569Y616883D01*
X295503Y616855D01*
X295447Y616810D01*
X295419Y616793D01*
X295404Y616776D01*
X295372Y616750D01*
X287752Y609130D01*
X287699Y609056D01*
X287639Y608986D01*
X287627Y608956D01*
X287608Y608930D01*
X287581Y608843D01*
X287547Y608758D01*
X287543Y608717D01*
X287536Y608695D01*
X287537Y608663D01*
X287529Y608591D01*
X287529Y601379D01*
X286291Y598391D01*
X284005Y596105D01*
X281017Y594867D01*
X277783Y594867D01*
X274795Y596105D01*
X272509Y598391D01*
X271271Y601379D01*
X271271Y617821D01*
X272509Y620809D01*
X274795Y623095D01*
X277783Y624333D01*
X281017Y624333D01*
X284005Y623095D01*
X286291Y620809D01*
X287529Y617821D01*
X287529Y617212D01*
X287531Y617200D01*
X287530Y617191D01*
X287540Y617146D01*
X287540Y617142D01*
X287542Y617070D01*
X287560Y617021D01*
X287568Y616970D01*
X287602Y616906D01*
X287627Y616839D01*
X287659Y616798D01*
X287684Y616752D01*
X287735Y616703D01*
X287780Y616647D01*
X287824Y616619D01*
X287862Y616583D01*
X287927Y616553D01*
X287987Y616514D01*
X288038Y616501D01*
X288085Y616479D01*
X288156Y616471D01*
X288226Y616454D01*
X288278Y616458D01*
X288329Y616452D01*
X288400Y616467D01*
X288471Y616473D01*
X288519Y616493D01*
X288570Y616504D01*
X288631Y616541D01*
X288697Y616569D01*
X288753Y616614D01*
X288781Y616631D01*
X288796Y616648D01*
X288828Y616674D01*
X297980Y625826D01*
X298022Y625884D01*
X298071Y625936D01*
X298093Y625983D01*
X298123Y626025D01*
X298144Y626094D01*
X298175Y626159D01*
X298180Y626211D01*
X298196Y626261D01*
X298194Y626332D01*
X298202Y626403D01*
X298191Y626454D01*
X298189Y626506D01*
X298165Y626574D01*
X298150Y626644D01*
X298123Y626688D01*
X298105Y626737D01*
X298060Y626793D01*
X298023Y626855D01*
X297984Y626889D01*
X297951Y626929D01*
X297891Y626968D01*
X297836Y627015D01*
X297788Y627034D01*
X297744Y627062D01*
X297675Y627080D01*
X297608Y627107D01*
X297537Y627115D01*
X297506Y627123D01*
X297482Y627121D01*
X297442Y627125D01*
X275583Y627125D01*
X275492Y627111D01*
X275402Y627103D01*
X275372Y627091D01*
X275340Y627086D01*
X275259Y627043D01*
X275175Y627007D01*
X275143Y626981D01*
X275122Y626970D01*
X275100Y626947D01*
X275044Y626902D01*
X262352Y614210D01*
X262299Y614136D01*
X262239Y614066D01*
X262227Y614036D01*
X262208Y614010D01*
X262181Y613923D01*
X262147Y613838D01*
X262143Y613797D01*
X262136Y613775D01*
X262137Y613743D01*
X262129Y613672D01*
X262129Y601379D01*
X260891Y598391D01*
X258605Y596105D01*
X255617Y594867D01*
X252383Y594867D01*
X249395Y596105D01*
X247109Y598391D01*
X245871Y601379D01*
X245871Y617821D01*
X247109Y620809D01*
X249395Y623095D01*
X252383Y624333D01*
X255617Y624333D01*
X258605Y623095D01*
X260891Y620809D01*
X260921Y620736D01*
X260946Y620697D01*
X260961Y620654D01*
X261010Y620593D01*
X261034Y620554D01*
X261039Y620546D01*
X261051Y620527D01*
X261086Y620498D01*
X261115Y620462D01*
X261180Y620420D01*
X261240Y620370D01*
X261283Y620353D01*
X261322Y620329D01*
X261397Y620310D01*
X261470Y620282D01*
X261516Y620280D01*
X261560Y620269D01*
X261638Y620275D01*
X261716Y620271D01*
X261760Y620284D01*
X261806Y620288D01*
X261867Y620314D01*
X261877Y620315D01*
X261889Y620321D01*
X261952Y620340D01*
X261990Y620366D01*
X262032Y620384D01*
X262081Y620423D01*
X262095Y620431D01*
X262109Y620446D01*
X262139Y620469D01*
X262154Y620480D01*
X262157Y620484D01*
X262163Y620489D01*
X273373Y631699D01*
X351467Y631699D01*
X406147Y577019D01*
X406147Y572763D01*
X406161Y572672D01*
X406169Y572582D01*
X406181Y572552D01*
X406186Y572520D01*
X406229Y572439D01*
X406265Y572355D01*
X406291Y572323D01*
X406302Y572302D01*
X406325Y572280D01*
X406370Y572224D01*
X408736Y569858D01*
X408794Y569816D01*
X408846Y569767D01*
X408893Y569745D01*
X408935Y569715D01*
X409004Y569694D01*
X409069Y569663D01*
X409121Y569658D01*
X409171Y569642D01*
X409242Y569644D01*
X409313Y569636D01*
X409364Y569647D01*
X409416Y569649D01*
X409484Y569673D01*
X409554Y569688D01*
X409599Y569715D01*
X409647Y569733D01*
X409703Y569778D01*
X409765Y569815D01*
X409799Y569854D01*
X409839Y569887D01*
X409878Y569947D01*
X409925Y570002D01*
X409944Y570050D01*
X409972Y570094D01*
X409990Y570163D01*
X410017Y570230D01*
X410025Y570301D01*
X410033Y570332D01*
X410031Y570356D01*
X410035Y570396D01*
X410035Y573303D01*
X411415Y576635D01*
X413965Y579185D01*
X417297Y580565D01*
X420903Y580565D01*
X424235Y579185D01*
X426785Y576635D01*
X427770Y574257D01*
X427832Y574157D01*
X427891Y574057D01*
X427896Y574053D01*
X427899Y574048D01*
X427990Y573973D01*
X428078Y573897D01*
X428084Y573895D01*
X428089Y573891D01*
X428197Y573849D01*
X428306Y573805D01*
X428314Y573804D01*
X428318Y573803D01*
X428337Y573802D01*
X428473Y573787D01*
X435287Y573787D01*
X436850Y572224D01*
X491325Y517749D01*
X491399Y517696D01*
X491469Y517636D01*
X491499Y517624D01*
X491525Y517605D01*
X491612Y517578D01*
X491697Y517544D01*
X491738Y517540D01*
X491760Y517533D01*
X491792Y517534D01*
X491863Y517526D01*
X501774Y517526D01*
X502382Y516918D01*
X502398Y516906D01*
X502410Y516890D01*
X502498Y516834D01*
X502581Y516774D01*
X502600Y516768D01*
X502617Y516757D01*
X502718Y516732D01*
X502817Y516702D01*
X502836Y516702D01*
X502856Y516697D01*
X502959Y516705D01*
X503062Y516708D01*
X503081Y516715D01*
X503101Y516716D01*
X503196Y516757D01*
X503293Y516792D01*
X503309Y516805D01*
X503327Y516813D01*
X503458Y516918D01*
X504066Y517526D01*
X517014Y517526D01*
X517907Y516633D01*
X517907Y499367D01*
X517014Y498474D01*
X506596Y498474D01*
X506506Y498460D01*
X506415Y498452D01*
X506385Y498440D01*
X506353Y498435D01*
X506272Y498392D01*
X506188Y498356D01*
X506156Y498330D01*
X506135Y498319D01*
X506113Y498296D01*
X506057Y498251D01*
X505168Y497362D01*
X505157Y497346D01*
X505141Y497334D01*
X505085Y497246D01*
X505025Y497163D01*
X505019Y497144D01*
X505008Y497127D01*
X504983Y497026D01*
X504952Y496927D01*
X504953Y496908D01*
X504948Y496888D01*
X504956Y496785D01*
X504959Y496682D01*
X504966Y496663D01*
X504967Y496643D01*
X505007Y496548D01*
X505043Y496451D01*
X505056Y496435D01*
X505063Y496417D01*
X505168Y496286D01*
X509779Y491675D01*
X509779Y261867D01*
X509793Y261776D01*
X509801Y261686D01*
X509813Y261656D01*
X509818Y261624D01*
X509861Y261543D01*
X509897Y261459D01*
X509923Y261427D01*
X509934Y261406D01*
X509957Y261384D01*
X510002Y261328D01*
X517368Y253962D01*
X517426Y253920D01*
X517478Y253871D01*
X517525Y253849D01*
X517567Y253819D01*
X517636Y253798D01*
X517701Y253767D01*
X517753Y253762D01*
X517803Y253746D01*
X517874Y253748D01*
X517945Y253740D01*
X517996Y253751D01*
X518048Y253753D01*
X518116Y253777D01*
X518186Y253792D01*
X518231Y253819D01*
X518279Y253837D01*
X518335Y253882D01*
X518397Y253919D01*
X518431Y253958D01*
X518471Y253991D01*
X518510Y254051D01*
X518557Y254106D01*
X518576Y254154D01*
X518604Y254198D01*
X518622Y254267D01*
X518649Y254334D01*
X518657Y254405D01*
X518665Y254436D01*
X518663Y254460D01*
X518667Y254500D01*
X518667Y255617D01*
X519905Y258605D01*
X522191Y260891D01*
X525179Y262129D01*
X541621Y262129D01*
X544609Y260891D01*
X546895Y258605D01*
X548133Y255617D01*
X548133Y252383D01*
X546895Y249395D01*
X544609Y247109D01*
X544177Y246930D01*
X544138Y246906D01*
X544094Y246890D01*
X544034Y246841D01*
X543968Y246800D01*
X543938Y246765D01*
X543902Y246736D01*
X543860Y246671D01*
X543811Y246611D01*
X543794Y246568D01*
X543769Y246529D01*
X543750Y246454D01*
X543723Y246381D01*
X543721Y246335D01*
X543709Y246291D01*
X543715Y246213D01*
X543712Y246135D01*
X543725Y246091D01*
X543729Y246046D01*
X543759Y245974D01*
X543781Y245899D01*
X543807Y245861D01*
X543825Y245819D01*
X543910Y245712D01*
X543921Y245697D01*
X543925Y245694D01*
X543930Y245688D01*
X555499Y234119D01*
X555499Y223081D01*
X546539Y214121D01*
X523995Y214121D01*
X523904Y214107D01*
X523814Y214099D01*
X523784Y214087D01*
X523752Y214082D01*
X523671Y214039D01*
X523587Y214003D01*
X523555Y213977D01*
X523534Y213966D01*
X523512Y213943D01*
X523456Y213898D01*
X511487Y201929D01*
X404368Y201929D01*
X404348Y201926D01*
X404329Y201928D01*
X404227Y201906D01*
X404125Y201890D01*
X404108Y201880D01*
X404088Y201876D01*
X403999Y201823D01*
X403908Y201774D01*
X403894Y201760D01*
X403877Y201750D01*
X403810Y201671D01*
X403738Y201596D01*
X403730Y201578D01*
X403717Y201563D01*
X403678Y201467D01*
X403635Y201373D01*
X403633Y201353D01*
X403625Y201335D01*
X403607Y201168D01*
X403607Y194567D01*
X402714Y193674D01*
X389766Y193674D01*
X389158Y194282D01*
X389142Y194294D01*
X389130Y194310D01*
X389042Y194366D01*
X388959Y194426D01*
X388940Y194432D01*
X388923Y194443D01*
X388822Y194468D01*
X388723Y194498D01*
X388704Y194498D01*
X388684Y194503D01*
X388581Y194495D01*
X388478Y194492D01*
X388459Y194485D01*
X388439Y194484D01*
X388344Y194443D01*
X388247Y194408D01*
X388231Y194395D01*
X388213Y194387D01*
X388082Y194282D01*
X387474Y193674D01*
X374526Y193674D01*
X373918Y194282D01*
X373902Y194294D01*
X373890Y194310D01*
X373802Y194366D01*
X373719Y194426D01*
X373700Y194432D01*
X373683Y194443D01*
X373582Y194468D01*
X373483Y194498D01*
X373464Y194498D01*
X373444Y194503D01*
X373341Y194495D01*
X373238Y194492D01*
X373219Y194485D01*
X373199Y194484D01*
X373104Y194443D01*
X373007Y194408D01*
X372991Y194395D01*
X372973Y194387D01*
X372842Y194282D01*
X372234Y193674D01*
X359286Y193674D01*
G37*
%LPD*%
%LPC*%
G36*
X481130Y539909D02*
X481130Y539909D01*
X473720Y542979D01*
X468049Y548650D01*
X464979Y556060D01*
X464979Y564080D01*
X468049Y571490D01*
X473720Y577161D01*
X481130Y580231D01*
X489150Y580231D01*
X496560Y577161D01*
X502231Y571490D01*
X505301Y564080D01*
X505301Y556060D01*
X502231Y548650D01*
X496560Y542979D01*
X489150Y539909D01*
X481130Y539909D01*
G37*
%LPD*%
%LPC*%
G36*
X272850Y308769D02*
X272850Y308769D01*
X265440Y311839D01*
X259769Y317510D01*
X256699Y324920D01*
X256699Y332940D01*
X259769Y340350D01*
X265440Y346021D01*
X272850Y349091D01*
X280870Y349091D01*
X288280Y346021D01*
X293951Y340350D01*
X297021Y332940D01*
X297021Y324920D01*
X293951Y317510D01*
X288280Y311839D01*
X280870Y308769D01*
X272850Y308769D01*
G37*
%LPD*%
%LPC*%
G36*
X229552Y169594D02*
X229552Y169594D01*
X226378Y170908D01*
X223948Y173338D01*
X222633Y176512D01*
X222633Y179948D01*
X223948Y183123D01*
X226378Y185552D01*
X229552Y186867D01*
X247212Y186867D01*
X250387Y185552D01*
X252816Y183123D01*
X254131Y179948D01*
X254131Y176512D01*
X252816Y173338D01*
X250387Y170908D01*
X247212Y169594D01*
X229552Y169594D01*
G37*
%LPD*%
%LPC*%
G36*
X229552Y144194D02*
X229552Y144194D01*
X226378Y145508D01*
X223948Y147938D01*
X222633Y151112D01*
X222633Y154548D01*
X223948Y157723D01*
X226378Y160152D01*
X229552Y161467D01*
X247212Y161467D01*
X250387Y160152D01*
X252816Y157723D01*
X254131Y154548D01*
X254131Y151112D01*
X252816Y147938D01*
X250387Y145508D01*
X247212Y144194D01*
X229552Y144194D01*
G37*
%LPD*%
%LPC*%
G36*
X379383Y251967D02*
X379383Y251967D01*
X376395Y253205D01*
X374109Y255491D01*
X372871Y258479D01*
X372871Y274921D01*
X374109Y277909D01*
X376395Y280195D01*
X379383Y281433D01*
X382617Y281433D01*
X385605Y280195D01*
X387891Y277909D01*
X389129Y274921D01*
X389129Y258479D01*
X387891Y255491D01*
X385605Y253205D01*
X382617Y251967D01*
X379383Y251967D01*
G37*
%LPD*%
%LPC*%
G36*
X328583Y251967D02*
X328583Y251967D01*
X325595Y253205D01*
X323309Y255491D01*
X322071Y258479D01*
X322071Y274921D01*
X323309Y277909D01*
X325595Y280195D01*
X328583Y281433D01*
X331817Y281433D01*
X334805Y280195D01*
X337091Y277909D01*
X338329Y274921D01*
X338329Y258479D01*
X337091Y255491D01*
X334805Y253205D01*
X331817Y251967D01*
X328583Y251967D01*
G37*
%LPD*%
%LPC*%
G36*
X303183Y251967D02*
X303183Y251967D01*
X300195Y253205D01*
X297909Y255491D01*
X296671Y258479D01*
X296671Y274921D01*
X297909Y277909D01*
X300195Y280195D01*
X303183Y281433D01*
X306417Y281433D01*
X309405Y280195D01*
X311691Y277909D01*
X312929Y274921D01*
X312929Y258479D01*
X311691Y255491D01*
X309405Y253205D01*
X306417Y251967D01*
X303183Y251967D01*
G37*
%LPD*%
%LPC*%
G36*
X525179Y195071D02*
X525179Y195071D01*
X522191Y196309D01*
X519905Y198595D01*
X518667Y201583D01*
X518667Y204817D01*
X519905Y207805D01*
X522191Y210091D01*
X525179Y211329D01*
X541621Y211329D01*
X544609Y210091D01*
X546895Y207805D01*
X548133Y204817D01*
X548133Y201583D01*
X546895Y198595D01*
X544609Y196309D01*
X541621Y195071D01*
X525179Y195071D01*
G37*
%LPD*%
%LPC*%
G36*
X525179Y169671D02*
X525179Y169671D01*
X522191Y170909D01*
X519905Y173195D01*
X518667Y176183D01*
X518667Y179417D01*
X519905Y182405D01*
X522191Y184691D01*
X525179Y185929D01*
X541621Y185929D01*
X544609Y184691D01*
X546895Y182405D01*
X548133Y179417D01*
X548133Y176183D01*
X546895Y173195D01*
X544609Y170909D01*
X541621Y169671D01*
X525179Y169671D01*
G37*
%LPD*%
%LPC*%
G36*
X230123Y611123D02*
X230123Y611123D01*
X230123Y625225D01*
X231267Y624997D01*
X232932Y624308D01*
X234430Y623307D01*
X235703Y622034D01*
X236704Y620536D01*
X237393Y618871D01*
X237745Y617105D01*
X237745Y611123D01*
X230123Y611123D01*
G37*
%LPD*%
%LPC*%
G36*
X407923Y268223D02*
X407923Y268223D01*
X407923Y282325D01*
X409067Y282097D01*
X410732Y281408D01*
X412230Y280407D01*
X413503Y279134D01*
X414504Y277636D01*
X415193Y275971D01*
X415545Y274205D01*
X415545Y268223D01*
X407923Y268223D01*
G37*
%LPD*%
%LPC*%
G36*
X534923Y153923D02*
X534923Y153923D01*
X534923Y161545D01*
X540905Y161545D01*
X542671Y161193D01*
X544336Y160504D01*
X545834Y159503D01*
X547107Y158230D01*
X548108Y156732D01*
X548797Y155067D01*
X549025Y153923D01*
X534923Y153923D01*
G37*
%LPD*%
%LPC*%
G36*
X230123Y608077D02*
X230123Y608077D01*
X237745Y608077D01*
X237745Y602095D01*
X237393Y600329D01*
X236704Y598664D01*
X235703Y597166D01*
X234430Y595893D01*
X232932Y594892D01*
X231267Y594203D01*
X230123Y593975D01*
X230123Y608077D01*
G37*
%LPD*%
%LPC*%
G36*
X407923Y265177D02*
X407923Y265177D01*
X415545Y265177D01*
X415545Y259195D01*
X415193Y257429D01*
X414504Y255764D01*
X413503Y254266D01*
X412230Y252993D01*
X410732Y251992D01*
X409067Y251303D01*
X407923Y251075D01*
X407923Y265177D01*
G37*
%LPD*%
%LPC*%
G36*
X517775Y153923D02*
X517775Y153923D01*
X518003Y155067D01*
X518692Y156732D01*
X519693Y158230D01*
X520966Y159503D01*
X522464Y160504D01*
X524129Y161193D01*
X525895Y161545D01*
X531877Y161545D01*
X531877Y153923D01*
X517775Y153923D01*
G37*
%LPD*%
%LPC*%
G36*
X219455Y611123D02*
X219455Y611123D01*
X219455Y617105D01*
X219807Y618871D01*
X220496Y620536D01*
X221497Y622034D01*
X222770Y623307D01*
X224268Y624308D01*
X225933Y624997D01*
X227077Y625225D01*
X227077Y611123D01*
X219455Y611123D01*
G37*
%LPD*%
%LPC*%
G36*
X397255Y268223D02*
X397255Y268223D01*
X397255Y274205D01*
X397607Y275971D01*
X398296Y277636D01*
X399297Y279134D01*
X400570Y280407D01*
X402068Y281408D01*
X403733Y282097D01*
X404877Y282325D01*
X404877Y268223D01*
X397255Y268223D01*
G37*
%LPD*%
%LPC*%
G36*
X534923Y143255D02*
X534923Y143255D01*
X534923Y150877D01*
X549025Y150877D01*
X548797Y149733D01*
X548108Y148068D01*
X547107Y146570D01*
X545834Y145297D01*
X544336Y144296D01*
X542671Y143607D01*
X540905Y143255D01*
X534923Y143255D01*
G37*
%LPD*%
%LPC*%
G36*
X225933Y594203D02*
X225933Y594203D01*
X224268Y594892D01*
X222770Y595893D01*
X221497Y597166D01*
X220496Y598664D01*
X219807Y600329D01*
X219455Y602095D01*
X219455Y608077D01*
X227077Y608077D01*
X227077Y593975D01*
X225933Y594203D01*
G37*
%LPD*%
%LPC*%
G36*
X403733Y251303D02*
X403733Y251303D01*
X402068Y251992D01*
X400570Y252993D01*
X399297Y254266D01*
X398296Y255764D01*
X397607Y257429D01*
X397255Y259195D01*
X397255Y265177D01*
X404877Y265177D01*
X404877Y251075D01*
X403733Y251303D01*
G37*
%LPD*%
%LPC*%
G36*
X525895Y143255D02*
X525895Y143255D01*
X524129Y143607D01*
X522464Y144296D01*
X520966Y145297D01*
X519693Y146570D01*
X518692Y148068D01*
X518003Y149733D01*
X517775Y150877D01*
X531877Y150877D01*
X531877Y143255D01*
X525895Y143255D01*
G37*
%LPD*%
%LPC*%
G36*
X283463Y509523D02*
X283463Y509523D01*
X283463Y518542D01*
X288116Y518542D01*
X288763Y518369D01*
X289342Y518034D01*
X289815Y517561D01*
X290150Y516982D01*
X290323Y516335D01*
X290323Y509523D01*
X283463Y509523D01*
G37*
%LPD*%
%LPC*%
G36*
X319277Y509523D02*
X319277Y509523D01*
X319277Y516335D01*
X319450Y516982D01*
X319785Y517561D01*
X320258Y518034D01*
X320837Y518369D01*
X321484Y518542D01*
X326137Y518542D01*
X326137Y509523D01*
X319277Y509523D01*
G37*
%LPD*%
%LPC*%
G36*
X283463Y497458D02*
X283463Y497458D01*
X283463Y506477D01*
X290323Y506477D01*
X290323Y499665D01*
X290150Y499018D01*
X289815Y498439D01*
X289342Y497966D01*
X288763Y497631D01*
X288116Y497458D01*
X283463Y497458D01*
G37*
%LPD*%
%LPC*%
G36*
X321484Y497458D02*
X321484Y497458D01*
X320837Y497631D01*
X320258Y497966D01*
X319785Y498439D01*
X319450Y499018D01*
X319277Y499665D01*
X319277Y506477D01*
X326137Y506477D01*
X326137Y497458D01*
X321484Y497458D01*
G37*
%LPD*%
%LPC*%
G36*
X228599Y609599D02*
X228599Y609599D01*
X228599Y609601D01*
X228601Y609601D01*
X228601Y609599D01*
X228599Y609599D01*
G37*
%LPD*%
%LPC*%
G36*
X406399Y266699D02*
X406399Y266699D01*
X406399Y266701D01*
X406401Y266701D01*
X406401Y266699D01*
X406399Y266699D01*
G37*
%LPD*%
%LPC*%
G36*
X533399Y152399D02*
X533399Y152399D01*
X533399Y152401D01*
X533401Y152401D01*
X533401Y152399D01*
X533399Y152399D01*
G37*
%LPD*%
D10*
X281940Y508000D03*
X266700Y508000D03*
X251460Y508000D03*
X358140Y508000D03*
X342900Y508000D03*
X327660Y508000D03*
X434340Y508000D03*
X419100Y508000D03*
X403860Y508000D03*
X510540Y508000D03*
X495300Y508000D03*
X480060Y508000D03*
D11*
X203200Y602996D02*
X203200Y616204D01*
X228600Y616204D02*
X228600Y602996D01*
X254000Y602996D02*
X254000Y616204D01*
X279400Y616204D02*
X279400Y602996D01*
X304800Y602996D02*
X304800Y616204D01*
X330200Y616204D02*
X330200Y602996D01*
D12*
X342900Y571500D03*
D13*
X368300Y571500D03*
X393700Y571500D03*
X419100Y571500D03*
D11*
X526796Y254000D02*
X540004Y254000D01*
X540004Y228600D02*
X526796Y228600D01*
X526796Y203200D02*
X540004Y203200D01*
X540004Y177800D02*
X526796Y177800D01*
X526796Y152400D02*
X540004Y152400D01*
D14*
X245494Y152830D02*
X231270Y152830D01*
X231270Y178230D02*
X245494Y178230D01*
D11*
X304800Y260096D02*
X304800Y273304D01*
X330200Y273304D02*
X330200Y260096D01*
X355600Y260096D02*
X355600Y273304D01*
X381000Y273304D02*
X381000Y260096D01*
X406400Y260096D02*
X406400Y273304D01*
X431800Y273304D02*
X431800Y260096D01*
D10*
X396240Y203200D03*
X381000Y203200D03*
X365760Y203200D03*
D15*
X342900Y508000D02*
X342900Y547116D01*
X367284Y571500D01*
X368300Y571500D01*
X419100Y547116D02*
X419100Y508000D01*
X419100Y547116D02*
X394716Y571500D01*
X393700Y571500D01*
X489204Y515112D02*
X495300Y509016D01*
X489204Y515112D02*
X489204Y516636D01*
X434340Y571500D01*
X419100Y571500D01*
X495300Y509016D02*
X495300Y508000D01*
X272796Y515112D02*
X266700Y509016D01*
X272796Y515112D02*
X272796Y516636D01*
X327660Y571500D01*
X342900Y571500D01*
X266700Y509016D02*
X266700Y508000D01*
X434340Y509016D02*
X480060Y509016D01*
X480060Y508000D01*
X434340Y509016D02*
X434340Y541020D01*
X403860Y571500D01*
X403860Y576072D01*
X350520Y629412D01*
X274320Y629412D01*
X254508Y609600D01*
X434340Y509016D02*
X434340Y508000D01*
X254508Y609600D02*
X254000Y609600D01*
X403860Y507492D02*
X409956Y501396D01*
X409956Y499872D01*
X413004Y496824D01*
X501396Y496824D01*
X510540Y505968D01*
X510540Y508000D01*
X403860Y508000D02*
X403860Y507492D01*
X533400Y234696D02*
X533400Y228600D01*
X533400Y234696D02*
X507492Y260604D01*
X507492Y286512D02*
X507492Y490728D01*
X507492Y286512D02*
X507492Y260604D01*
X507492Y490728D02*
X501396Y496824D01*
X284988Y609600D02*
X279400Y609600D01*
X284988Y609600D02*
X301752Y626364D01*
X333756Y626364D01*
X382524Y577596D01*
X382524Y530352D01*
X403860Y509016D01*
X403860Y508000D01*
X356616Y271272D02*
X356616Y266700D01*
X356616Y271272D02*
X371856Y286512D01*
X507492Y286512D01*
X356616Y266700D02*
X355600Y266700D01*
X251460Y509016D02*
X257556Y515112D01*
X257556Y516636D01*
X278892Y537972D01*
X284988Y537972D01*
X329184Y582168D01*
X329184Y609600D01*
X251460Y509016D02*
X251460Y508000D01*
X329184Y609600D02*
X330200Y609600D01*
X358140Y547116D02*
X358140Y508000D01*
X358140Y547116D02*
X379476Y568452D01*
X379476Y574548D01*
X371856Y582168D01*
X329184Y582168D01*
X396240Y204216D02*
X510540Y204216D01*
X522732Y216408D01*
X545592Y216408D01*
X553212Y224028D01*
X553212Y233172D01*
X533400Y252984D01*
X396240Y204216D02*
X396240Y203200D01*
X533400Y252984D02*
X533400Y254000D01*
X365760Y231648D02*
X365760Y203200D01*
X365760Y231648D02*
X342900Y254508D01*
X342900Y394716D01*
X207264Y530352D01*
X207264Y591312D01*
X204216Y594360D01*
X204216Y609600D01*
X203200Y609600D01*
X381000Y211836D02*
X381000Y203200D01*
X381000Y211836D02*
X431292Y262128D01*
X431292Y266700D01*
X431800Y266700D01*
M02*
