G04 EAGLE Gerber RS-274X export*
G75*
%MOMM*%
%FSLAX34Y34*%
%LPD*%
%INTop Copper*%
%IPPOS*%
%AMOC8*
5,1,8,0,0,1.08239X$1,22.5*%
G01*
%ADD10C,1.320800*%
%ADD11R,1.508000X1.508000*%
%ADD12C,1.508000*%
%ADD13C,1.422400*%
%ADD14C,0.152400*%

G36*
X582698Y111764D02*
X582698Y111764D01*
X582717Y111762D01*
X582819Y111784D01*
X582921Y111800D01*
X582938Y111810D01*
X582958Y111814D01*
X583047Y111867D01*
X583138Y111916D01*
X583152Y111930D01*
X583169Y111940D01*
X583236Y112019D01*
X583308Y112094D01*
X583316Y112112D01*
X583329Y112127D01*
X583368Y112223D01*
X583411Y112317D01*
X583413Y112337D01*
X583421Y112355D01*
X583439Y112522D01*
X583439Y608004D01*
X583432Y608049D01*
X583434Y608095D01*
X583412Y608170D01*
X583400Y608247D01*
X583378Y608287D01*
X583365Y608332D01*
X583321Y608396D01*
X583284Y608464D01*
X583251Y608496D01*
X583225Y608534D01*
X583162Y608580D01*
X583106Y608634D01*
X583065Y608653D01*
X583028Y608680D01*
X582953Y608704D01*
X582883Y608737D01*
X582837Y608742D01*
X582794Y608756D01*
X582716Y608756D01*
X582639Y608764D01*
X582594Y608755D01*
X582548Y608754D01*
X582417Y608716D01*
X582398Y608712D01*
X582394Y608709D01*
X582387Y608707D01*
X581860Y608489D01*
X573840Y608489D01*
X566430Y611559D01*
X560759Y617230D01*
X557689Y624640D01*
X557689Y632660D01*
X559233Y636387D01*
X559243Y636431D01*
X559263Y636473D01*
X559271Y636550D01*
X559289Y636626D01*
X559285Y636672D01*
X559290Y636717D01*
X559273Y636794D01*
X559266Y636871D01*
X559247Y636913D01*
X559238Y636958D01*
X559198Y637025D01*
X559166Y637096D01*
X559135Y637130D01*
X559111Y637169D01*
X559052Y637220D01*
X559000Y637277D01*
X558959Y637299D01*
X558924Y637329D01*
X558852Y637358D01*
X558784Y637395D01*
X558739Y637404D01*
X558696Y637421D01*
X558560Y637436D01*
X558542Y637439D01*
X558537Y637438D01*
X558530Y637439D01*
X176022Y637439D01*
X176002Y637436D01*
X175983Y637438D01*
X175881Y637416D01*
X175779Y637400D01*
X175762Y637390D01*
X175742Y637386D01*
X175653Y637333D01*
X175562Y637284D01*
X175548Y637270D01*
X175531Y637260D01*
X175464Y637181D01*
X175392Y637106D01*
X175384Y637088D01*
X175371Y637073D01*
X175332Y636977D01*
X175289Y636883D01*
X175287Y636863D01*
X175279Y636845D01*
X175261Y636678D01*
X175261Y137242D01*
X175268Y137197D01*
X175266Y137151D01*
X175288Y137076D01*
X175300Y136999D01*
X175322Y136959D01*
X175335Y136914D01*
X175379Y136850D01*
X175416Y136782D01*
X175449Y136750D01*
X175475Y136712D01*
X175537Y136666D01*
X175594Y136612D01*
X175636Y136593D01*
X175672Y136566D01*
X175746Y136542D01*
X175817Y136509D01*
X175863Y136504D01*
X175906Y136489D01*
X175984Y136490D01*
X176061Y136482D01*
X176106Y136491D01*
X176152Y136492D01*
X176284Y136530D01*
X176302Y136534D01*
X176306Y136536D01*
X176313Y136539D01*
X178306Y137364D01*
X186326Y137364D01*
X193736Y134295D01*
X199408Y128623D01*
X202477Y121213D01*
X202477Y113193D01*
X202320Y112813D01*
X202309Y112769D01*
X202290Y112727D01*
X202281Y112650D01*
X202263Y112574D01*
X202268Y112528D01*
X202263Y112483D01*
X202279Y112406D01*
X202286Y112329D01*
X202305Y112287D01*
X202315Y112242D01*
X202355Y112175D01*
X202386Y112104D01*
X202418Y112070D01*
X202441Y112031D01*
X202500Y111980D01*
X202553Y111923D01*
X202593Y111901D01*
X202628Y111871D01*
X202700Y111842D01*
X202768Y111805D01*
X202813Y111796D01*
X202856Y111779D01*
X202992Y111764D01*
X203010Y111761D01*
X203015Y111762D01*
X203023Y111761D01*
X582678Y111761D01*
X582698Y111764D01*
G37*
%LPC*%
G36*
X525179Y195071D02*
X525179Y195071D01*
X522191Y196309D01*
X519905Y198595D01*
X518667Y201583D01*
X518667Y204817D01*
X519905Y207805D01*
X522191Y210091D01*
X525179Y211329D01*
X525788Y211329D01*
X525858Y211340D01*
X525930Y211342D01*
X525979Y211360D01*
X526030Y211368D01*
X526094Y211402D01*
X526161Y211427D01*
X526202Y211459D01*
X526248Y211484D01*
X526297Y211535D01*
X526353Y211580D01*
X526381Y211624D01*
X526417Y211662D01*
X526447Y211727D01*
X526486Y211787D01*
X526499Y211838D01*
X526521Y211885D01*
X526529Y211956D01*
X526546Y212026D01*
X526542Y212078D01*
X526548Y212129D01*
X526533Y212200D01*
X526527Y212271D01*
X526507Y212319D01*
X526496Y212370D01*
X526459Y212431D01*
X526431Y212497D01*
X526386Y212553D01*
X526369Y212581D01*
X526352Y212596D01*
X526326Y212628D01*
X424210Y314744D01*
X424194Y314755D01*
X424182Y314771D01*
X424094Y314827D01*
X424011Y314887D01*
X423992Y314893D01*
X423975Y314904D01*
X423874Y314929D01*
X423775Y314960D01*
X423756Y314959D01*
X423736Y314964D01*
X423633Y314956D01*
X423530Y314953D01*
X423511Y314946D01*
X423491Y314945D01*
X423396Y314905D01*
X423299Y314869D01*
X423283Y314856D01*
X423265Y314849D01*
X423134Y314744D01*
X387633Y279243D01*
X387621Y279227D01*
X387606Y279215D01*
X387550Y279127D01*
X387490Y279043D01*
X387484Y279024D01*
X387473Y279008D01*
X387448Y278907D01*
X387417Y278808D01*
X387418Y278788D01*
X387413Y278769D01*
X387421Y278666D01*
X387424Y278563D01*
X387430Y278544D01*
X387432Y278524D01*
X387472Y278429D01*
X387508Y278331D01*
X387521Y278316D01*
X387528Y278298D01*
X387633Y278167D01*
X387891Y277909D01*
X389129Y274921D01*
X389129Y258479D01*
X387891Y255491D01*
X385605Y253205D01*
X382617Y251967D01*
X379383Y251967D01*
X376395Y253205D01*
X374109Y255491D01*
X372871Y258479D01*
X372871Y274921D01*
X374109Y277909D01*
X376395Y280195D01*
X379383Y281433D01*
X382617Y281433D01*
X382669Y281411D01*
X382782Y281385D01*
X382896Y281356D01*
X382902Y281357D01*
X382908Y281355D01*
X383025Y281366D01*
X383141Y281375D01*
X383147Y281378D01*
X383153Y281378D01*
X383261Y281426D01*
X383367Y281471D01*
X383373Y281476D01*
X383378Y281478D01*
X383392Y281491D01*
X383498Y281576D01*
X419900Y317978D01*
X419911Y317994D01*
X419927Y318006D01*
X419983Y318094D01*
X420043Y318177D01*
X420049Y318196D01*
X420060Y318213D01*
X420085Y318314D01*
X420116Y318413D01*
X420115Y318432D01*
X420120Y318452D01*
X420112Y318555D01*
X420109Y318658D01*
X420102Y318677D01*
X420101Y318697D01*
X420060Y318792D01*
X420025Y318889D01*
X420012Y318905D01*
X420005Y318923D01*
X419900Y319054D01*
X253784Y485170D01*
X252221Y486733D01*
X252221Y594426D01*
X252220Y594432D01*
X252220Y594433D01*
X252220Y594435D01*
X252202Y594540D01*
X252185Y594657D01*
X252183Y594662D01*
X252182Y594668D01*
X252127Y594771D01*
X252074Y594876D01*
X252069Y594880D01*
X252066Y594886D01*
X251982Y594966D01*
X251898Y595048D01*
X251892Y595052D01*
X251888Y595055D01*
X251871Y595063D01*
X251751Y595129D01*
X249395Y596105D01*
X247109Y598391D01*
X245871Y601379D01*
X245871Y617821D01*
X247109Y620809D01*
X249395Y623095D01*
X252383Y624333D01*
X255617Y624333D01*
X258605Y623095D01*
X260891Y620809D01*
X262129Y617821D01*
X262129Y601379D01*
X260891Y598391D01*
X258605Y596105D01*
X257265Y595550D01*
X257165Y595488D01*
X257065Y595428D01*
X257061Y595423D01*
X257056Y595420D01*
X256981Y595330D01*
X256905Y595241D01*
X256903Y595236D01*
X256899Y595231D01*
X256857Y595122D01*
X256813Y595013D01*
X256812Y595006D01*
X256811Y595001D01*
X256810Y594983D01*
X256795Y594846D01*
X256795Y568138D01*
X256810Y568042D01*
X256820Y567945D01*
X256830Y567921D01*
X256834Y567895D01*
X256880Y567809D01*
X256920Y567720D01*
X256937Y567701D01*
X256950Y567678D01*
X257020Y567611D01*
X257086Y567539D01*
X257109Y567526D01*
X257128Y567508D01*
X257216Y567467D01*
X257302Y567420D01*
X257327Y567416D01*
X257351Y567405D01*
X257448Y567394D01*
X257544Y567377D01*
X257570Y567380D01*
X257595Y567377D01*
X257691Y567398D01*
X257787Y567412D01*
X257810Y567424D01*
X257836Y567430D01*
X257919Y567480D01*
X258006Y567524D01*
X258025Y567543D01*
X258047Y567556D01*
X258110Y567630D01*
X258178Y567699D01*
X258194Y567728D01*
X258207Y567743D01*
X258219Y567774D01*
X258259Y567846D01*
X259769Y571490D01*
X265440Y577161D01*
X272850Y580231D01*
X280870Y580231D01*
X288280Y577161D01*
X293951Y571490D01*
X297021Y564080D01*
X297021Y556060D01*
X293951Y548650D01*
X288280Y542979D01*
X280870Y539909D01*
X272850Y539909D01*
X265440Y542979D01*
X259769Y548650D01*
X258259Y552294D01*
X258208Y552376D01*
X258162Y552462D01*
X258143Y552480D01*
X258130Y552503D01*
X258055Y552565D01*
X257984Y552632D01*
X257960Y552643D01*
X257940Y552659D01*
X257849Y552694D01*
X257761Y552735D01*
X257735Y552738D01*
X257711Y552748D01*
X257613Y552752D01*
X257517Y552763D01*
X257491Y552757D01*
X257465Y552758D01*
X257371Y552731D01*
X257276Y552710D01*
X257254Y552697D01*
X257229Y552690D01*
X257149Y552634D01*
X257065Y552584D01*
X257048Y552564D01*
X257027Y552549D01*
X256968Y552471D01*
X256905Y552397D01*
X256895Y552373D01*
X256880Y552352D01*
X256850Y552259D01*
X256813Y552169D01*
X256810Y552137D01*
X256804Y552118D01*
X256804Y552085D01*
X256795Y552002D01*
X256795Y488943D01*
X256809Y488852D01*
X256817Y488762D01*
X256829Y488732D01*
X256834Y488700D01*
X256877Y488619D01*
X256913Y488535D01*
X256939Y488503D01*
X256950Y488482D01*
X256973Y488460D01*
X257018Y488404D01*
X424396Y321026D01*
X426182Y319240D01*
X517368Y228054D01*
X517426Y228012D01*
X517478Y227963D01*
X517525Y227941D01*
X517567Y227911D01*
X517636Y227890D01*
X517701Y227859D01*
X517753Y227854D01*
X517803Y227838D01*
X517874Y227840D01*
X517945Y227832D01*
X517996Y227843D01*
X518048Y227845D01*
X518116Y227869D01*
X518186Y227884D01*
X518230Y227911D01*
X518279Y227929D01*
X518335Y227974D01*
X518397Y228011D01*
X518431Y228050D01*
X518471Y228083D01*
X518510Y228143D01*
X518557Y228198D01*
X518576Y228246D01*
X518604Y228290D01*
X518622Y228359D01*
X518649Y228426D01*
X518657Y228497D01*
X518665Y228528D01*
X518663Y228552D01*
X518667Y228592D01*
X518667Y230217D01*
X519905Y233205D01*
X522191Y235491D01*
X525179Y236729D01*
X541621Y236729D01*
X544609Y235491D01*
X546895Y233205D01*
X548133Y230217D01*
X548133Y226983D01*
X546895Y223995D01*
X544609Y221709D01*
X541621Y220471D01*
X526788Y220471D01*
X526718Y220460D01*
X526646Y220458D01*
X526597Y220440D01*
X526546Y220432D01*
X526482Y220398D01*
X526415Y220373D01*
X526374Y220341D01*
X526328Y220316D01*
X526279Y220265D01*
X526223Y220220D01*
X526195Y220176D01*
X526159Y220138D01*
X526129Y220073D01*
X526090Y220013D01*
X526077Y219962D01*
X526055Y219915D01*
X526047Y219844D01*
X526030Y219774D01*
X526034Y219722D01*
X526028Y219671D01*
X526043Y219600D01*
X526049Y219529D01*
X526069Y219481D01*
X526080Y219430D01*
X526117Y219369D01*
X526145Y219303D01*
X526190Y219247D01*
X526207Y219219D01*
X526224Y219204D01*
X526250Y219172D01*
X533870Y211552D01*
X533944Y211499D01*
X534014Y211439D01*
X534044Y211427D01*
X534070Y211408D01*
X534157Y211381D01*
X534242Y211347D01*
X534283Y211343D01*
X534305Y211336D01*
X534337Y211337D01*
X534408Y211329D01*
X541621Y211329D01*
X544609Y210091D01*
X546895Y207805D01*
X548133Y204817D01*
X548133Y201583D01*
X546895Y198595D01*
X544609Y196309D01*
X541621Y195071D01*
X525179Y195071D01*
G37*
%LPD*%
%LPC*%
G36*
X525179Y245871D02*
X525179Y245871D01*
X522191Y247109D01*
X519905Y249395D01*
X518667Y252383D01*
X518667Y255617D01*
X519905Y258605D01*
X522191Y260891D01*
X525179Y262129D01*
X530352Y262129D01*
X530372Y262132D01*
X530391Y262130D01*
X530493Y262152D01*
X530595Y262168D01*
X530612Y262178D01*
X530632Y262182D01*
X530721Y262235D01*
X530812Y262284D01*
X530826Y262298D01*
X530843Y262308D01*
X530910Y262387D01*
X530982Y262462D01*
X530990Y262480D01*
X531003Y262495D01*
X531042Y262591D01*
X531085Y262685D01*
X531087Y262705D01*
X531095Y262723D01*
X531113Y262890D01*
X531113Y359925D01*
X531108Y359956D01*
X531110Y359968D01*
X531098Y360020D01*
X531091Y360106D01*
X531079Y360136D01*
X531074Y360168D01*
X531061Y360193D01*
X531057Y360208D01*
X531026Y360261D01*
X530995Y360333D01*
X530969Y360365D01*
X530958Y360386D01*
X530941Y360402D01*
X530931Y360419D01*
X530915Y360433D01*
X530890Y360464D01*
X328421Y562933D01*
X328421Y594426D01*
X328420Y594432D01*
X328420Y594433D01*
X328420Y594435D01*
X328402Y594540D01*
X328385Y594657D01*
X328383Y594662D01*
X328382Y594668D01*
X328327Y594771D01*
X328274Y594876D01*
X328269Y594880D01*
X328266Y594886D01*
X328182Y594966D01*
X328098Y595048D01*
X328092Y595052D01*
X328088Y595055D01*
X328071Y595063D01*
X327951Y595129D01*
X325595Y596105D01*
X323309Y598391D01*
X322071Y601379D01*
X322071Y617821D01*
X323309Y620809D01*
X325595Y623095D01*
X328583Y624333D01*
X331817Y624333D01*
X334805Y623095D01*
X337091Y620809D01*
X338329Y617821D01*
X338329Y601379D01*
X337091Y598391D01*
X334805Y596105D01*
X333465Y595550D01*
X333365Y595488D01*
X333265Y595428D01*
X333261Y595423D01*
X333256Y595420D01*
X333181Y595330D01*
X333105Y595241D01*
X333103Y595236D01*
X333099Y595231D01*
X333057Y595122D01*
X333013Y595013D01*
X333012Y595006D01*
X333011Y595001D01*
X333010Y594983D01*
X332995Y594846D01*
X332995Y580669D01*
X332997Y580658D01*
X332996Y580651D01*
X333003Y580616D01*
X333006Y580598D01*
X333008Y580526D01*
X333026Y580477D01*
X333034Y580426D01*
X333068Y580363D01*
X333093Y580295D01*
X333125Y580255D01*
X333150Y580209D01*
X333201Y580159D01*
X333246Y580103D01*
X333290Y580075D01*
X333328Y580039D01*
X333393Y580009D01*
X333453Y579970D01*
X333504Y579958D01*
X333551Y579936D01*
X333622Y579928D01*
X333692Y579910D01*
X333744Y579914D01*
X333795Y579909D01*
X333866Y579924D01*
X333937Y579929D01*
X333985Y579950D01*
X334036Y579961D01*
X334097Y579998D01*
X334163Y580026D01*
X334219Y580071D01*
X334247Y580087D01*
X334262Y580105D01*
X334294Y580131D01*
X334728Y580565D01*
X351072Y580565D01*
X351965Y579672D01*
X351965Y563328D01*
X351072Y562435D01*
X337224Y562435D01*
X337154Y562424D01*
X337082Y562422D01*
X337033Y562404D01*
X336982Y562396D01*
X336918Y562362D01*
X336851Y562337D01*
X336810Y562305D01*
X336764Y562280D01*
X336715Y562228D01*
X336659Y562184D01*
X336631Y562140D01*
X336595Y562102D01*
X336565Y562037D01*
X336526Y561977D01*
X336513Y561926D01*
X336491Y561879D01*
X336483Y561808D01*
X336466Y561738D01*
X336470Y561686D01*
X336464Y561635D01*
X336479Y561564D01*
X336485Y561493D01*
X336505Y561445D01*
X336516Y561394D01*
X336553Y561333D01*
X336581Y561267D01*
X336626Y561211D01*
X336643Y561183D01*
X336655Y561173D01*
X336657Y561169D01*
X336666Y561161D01*
X336686Y561136D01*
X535687Y362135D01*
X535687Y262890D01*
X535690Y262870D01*
X535688Y262851D01*
X535710Y262749D01*
X535726Y262647D01*
X535736Y262630D01*
X535740Y262610D01*
X535793Y262521D01*
X535842Y262430D01*
X535856Y262416D01*
X535866Y262399D01*
X535945Y262332D01*
X536020Y262260D01*
X536038Y262252D01*
X536053Y262239D01*
X536149Y262200D01*
X536243Y262157D01*
X536263Y262155D01*
X536281Y262147D01*
X536448Y262129D01*
X541621Y262129D01*
X544609Y260891D01*
X546895Y258605D01*
X548133Y255617D01*
X548133Y252383D01*
X546895Y249395D01*
X544609Y247109D01*
X541621Y245871D01*
X525179Y245871D01*
G37*
%LPD*%
%LPC*%
G36*
X272850Y308769D02*
X272850Y308769D01*
X265440Y311839D01*
X259769Y317510D01*
X256699Y324920D01*
X256699Y332940D01*
X259769Y340350D01*
X265440Y346021D01*
X272850Y349091D01*
X280870Y349091D01*
X288280Y346021D01*
X293951Y340350D01*
X297021Y332940D01*
X297021Y324920D01*
X293951Y317510D01*
X288280Y311839D01*
X280870Y308769D01*
X272850Y308769D01*
G37*
%LPD*%
%LPC*%
G36*
X481130Y539909D02*
X481130Y539909D01*
X473720Y542979D01*
X468049Y548650D01*
X464979Y556060D01*
X464979Y564080D01*
X468049Y571490D01*
X473720Y577161D01*
X481130Y580231D01*
X489150Y580231D01*
X496560Y577161D01*
X502231Y571490D01*
X505301Y564080D01*
X505301Y556060D01*
X502231Y548650D01*
X496560Y542979D01*
X489150Y539909D01*
X481130Y539909D01*
G37*
%LPD*%
%LPC*%
G36*
X481130Y308769D02*
X481130Y308769D01*
X473720Y311839D01*
X468049Y317510D01*
X464979Y324920D01*
X464979Y332940D01*
X468049Y340350D01*
X473720Y346021D01*
X481130Y349091D01*
X489150Y349091D01*
X496560Y346021D01*
X502231Y340350D01*
X505301Y332940D01*
X505301Y324920D01*
X502231Y317510D01*
X496560Y311839D01*
X489150Y308769D01*
X481130Y308769D01*
G37*
%LPD*%
%LPC*%
G36*
X229552Y169594D02*
X229552Y169594D01*
X226378Y170908D01*
X223948Y173338D01*
X222633Y176512D01*
X222633Y179948D01*
X223948Y183123D01*
X226378Y185552D01*
X229552Y186867D01*
X247212Y186867D01*
X250387Y185552D01*
X252816Y183123D01*
X254131Y179948D01*
X254131Y176512D01*
X252816Y173338D01*
X250387Y170908D01*
X247212Y169594D01*
X229552Y169594D01*
G37*
%LPD*%
%LPC*%
G36*
X229552Y144194D02*
X229552Y144194D01*
X226378Y145508D01*
X223948Y147938D01*
X222633Y151112D01*
X222633Y154548D01*
X223948Y157723D01*
X226378Y160152D01*
X229552Y161467D01*
X247212Y161467D01*
X250387Y160152D01*
X252816Y157723D01*
X254131Y154548D01*
X254131Y151112D01*
X252816Y147938D01*
X250387Y145508D01*
X247212Y144194D01*
X229552Y144194D01*
G37*
%LPD*%
%LPC*%
G36*
X303183Y251967D02*
X303183Y251967D01*
X300195Y253205D01*
X297909Y255491D01*
X296671Y258479D01*
X296671Y274921D01*
X297909Y277909D01*
X300195Y280195D01*
X303183Y281433D01*
X306417Y281433D01*
X309405Y280195D01*
X311691Y277909D01*
X312929Y274921D01*
X312929Y258479D01*
X311691Y255491D01*
X309405Y253205D01*
X306417Y251967D01*
X303183Y251967D01*
G37*
%LPD*%
%LPC*%
G36*
X201583Y594867D02*
X201583Y594867D01*
X198595Y596105D01*
X196309Y598391D01*
X195071Y601379D01*
X195071Y617821D01*
X196309Y620809D01*
X198595Y623095D01*
X201583Y624333D01*
X204817Y624333D01*
X207805Y623095D01*
X210091Y620809D01*
X211329Y617821D01*
X211329Y601379D01*
X210091Y598391D01*
X207805Y596105D01*
X204817Y594867D01*
X201583Y594867D01*
G37*
%LPD*%
%LPC*%
G36*
X303183Y594867D02*
X303183Y594867D01*
X300195Y596105D01*
X297909Y598391D01*
X296671Y601379D01*
X296671Y617821D01*
X297909Y620809D01*
X300195Y623095D01*
X303183Y624333D01*
X306417Y624333D01*
X309405Y623095D01*
X311691Y620809D01*
X312929Y617821D01*
X312929Y601379D01*
X311691Y598391D01*
X309405Y596105D01*
X306417Y594867D01*
X303183Y594867D01*
G37*
%LPD*%
%LPC*%
G36*
X277783Y594867D02*
X277783Y594867D01*
X274795Y596105D01*
X272509Y598391D01*
X271271Y601379D01*
X271271Y617821D01*
X272509Y620809D01*
X274795Y623095D01*
X277783Y624333D01*
X281017Y624333D01*
X284005Y623095D01*
X286291Y620809D01*
X287529Y617821D01*
X287529Y601379D01*
X286291Y598391D01*
X284005Y596105D01*
X281017Y594867D01*
X277783Y594867D01*
G37*
%LPD*%
%LPC*%
G36*
X328583Y251967D02*
X328583Y251967D01*
X325595Y253205D01*
X323309Y255491D01*
X322071Y258479D01*
X322071Y274921D01*
X323309Y277909D01*
X325595Y280195D01*
X328583Y281433D01*
X331817Y281433D01*
X334805Y280195D01*
X337091Y277909D01*
X338329Y274921D01*
X338329Y258479D01*
X337091Y255491D01*
X334805Y253205D01*
X331817Y251967D01*
X328583Y251967D01*
G37*
%LPD*%
%LPC*%
G36*
X353983Y251967D02*
X353983Y251967D01*
X350995Y253205D01*
X348709Y255491D01*
X347471Y258479D01*
X347471Y274921D01*
X348709Y277909D01*
X350995Y280195D01*
X353983Y281433D01*
X357217Y281433D01*
X360205Y280195D01*
X362491Y277909D01*
X363729Y274921D01*
X363729Y258479D01*
X362491Y255491D01*
X360205Y253205D01*
X357217Y251967D01*
X353983Y251967D01*
G37*
%LPD*%
%LPC*%
G36*
X430183Y251967D02*
X430183Y251967D01*
X427195Y253205D01*
X424909Y255491D01*
X423671Y258479D01*
X423671Y274921D01*
X424909Y277909D01*
X427195Y280195D01*
X430183Y281433D01*
X433417Y281433D01*
X436405Y280195D01*
X438691Y277909D01*
X439929Y274921D01*
X439929Y258479D01*
X438691Y255491D01*
X436405Y253205D01*
X433417Y251967D01*
X430183Y251967D01*
G37*
%LPD*%
%LPC*%
G36*
X525179Y169671D02*
X525179Y169671D01*
X522191Y170909D01*
X519905Y173195D01*
X518667Y176183D01*
X518667Y179417D01*
X519905Y182405D01*
X522191Y184691D01*
X525179Y185929D01*
X541621Y185929D01*
X544609Y184691D01*
X546895Y182405D01*
X548133Y179417D01*
X548133Y176183D01*
X546895Y173195D01*
X544609Y170909D01*
X541621Y169671D01*
X525179Y169671D01*
G37*
%LPD*%
%LPC*%
G36*
X366497Y562435D02*
X366497Y562435D01*
X363165Y563815D01*
X360615Y566365D01*
X359235Y569697D01*
X359235Y573303D01*
X360615Y576635D01*
X363165Y579185D01*
X366497Y580565D01*
X370103Y580565D01*
X373435Y579185D01*
X375985Y576635D01*
X377365Y573303D01*
X377365Y569697D01*
X375985Y566365D01*
X373435Y563815D01*
X370103Y562435D01*
X366497Y562435D01*
G37*
%LPD*%
%LPC*%
G36*
X391897Y562435D02*
X391897Y562435D01*
X388565Y563815D01*
X386015Y566365D01*
X384635Y569697D01*
X384635Y573303D01*
X386015Y576635D01*
X388565Y579185D01*
X391897Y580565D01*
X395503Y580565D01*
X398835Y579185D01*
X401385Y576635D01*
X402765Y573303D01*
X402765Y569697D01*
X401385Y566365D01*
X398835Y563815D01*
X395503Y562435D01*
X391897Y562435D01*
G37*
%LPD*%
%LPC*%
G36*
X417297Y562435D02*
X417297Y562435D01*
X413965Y563815D01*
X411415Y566365D01*
X410035Y569697D01*
X410035Y573303D01*
X411415Y576635D01*
X413965Y579185D01*
X417297Y580565D01*
X420903Y580565D01*
X424235Y579185D01*
X426785Y576635D01*
X428165Y573303D01*
X428165Y569697D01*
X426785Y566365D01*
X424235Y563815D01*
X420903Y562435D01*
X417297Y562435D01*
G37*
%LPD*%
%LPC*%
G36*
X407923Y268223D02*
X407923Y268223D01*
X407923Y282325D01*
X409067Y282097D01*
X410732Y281408D01*
X412230Y280407D01*
X413503Y279134D01*
X414504Y277636D01*
X415193Y275971D01*
X415545Y274205D01*
X415545Y268223D01*
X407923Y268223D01*
G37*
%LPD*%
%LPC*%
G36*
X534923Y153923D02*
X534923Y153923D01*
X534923Y161545D01*
X540905Y161545D01*
X542671Y161193D01*
X544336Y160504D01*
X545834Y159503D01*
X547107Y158230D01*
X548108Y156732D01*
X548797Y155067D01*
X549025Y153923D01*
X534923Y153923D01*
G37*
%LPD*%
%LPC*%
G36*
X230123Y611123D02*
X230123Y611123D01*
X230123Y625225D01*
X231267Y624997D01*
X232932Y624308D01*
X234430Y623307D01*
X235703Y622034D01*
X236704Y620536D01*
X237393Y618871D01*
X237745Y617105D01*
X237745Y611123D01*
X230123Y611123D01*
G37*
%LPD*%
%LPC*%
G36*
X407923Y265177D02*
X407923Y265177D01*
X415545Y265177D01*
X415545Y259195D01*
X415193Y257429D01*
X414504Y255764D01*
X413503Y254266D01*
X412230Y252993D01*
X410732Y251992D01*
X409067Y251303D01*
X407923Y251075D01*
X407923Y265177D01*
G37*
%LPD*%
%LPC*%
G36*
X230123Y608077D02*
X230123Y608077D01*
X237745Y608077D01*
X237745Y602095D01*
X237393Y600329D01*
X236704Y598664D01*
X235703Y597166D01*
X234430Y595893D01*
X232932Y594892D01*
X231267Y594203D01*
X230123Y593975D01*
X230123Y608077D01*
G37*
%LPD*%
%LPC*%
G36*
X517775Y153923D02*
X517775Y153923D01*
X518003Y155067D01*
X518692Y156732D01*
X519693Y158230D01*
X520966Y159503D01*
X522464Y160504D01*
X524129Y161193D01*
X525895Y161545D01*
X531877Y161545D01*
X531877Y153923D01*
X517775Y153923D01*
G37*
%LPD*%
%LPC*%
G36*
X219455Y611123D02*
X219455Y611123D01*
X219455Y617105D01*
X219807Y618871D01*
X220496Y620536D01*
X221497Y622034D01*
X222770Y623307D01*
X224268Y624308D01*
X225933Y624997D01*
X227077Y625225D01*
X227077Y611123D01*
X219455Y611123D01*
G37*
%LPD*%
%LPC*%
G36*
X397255Y268223D02*
X397255Y268223D01*
X397255Y274205D01*
X397607Y275971D01*
X398296Y277636D01*
X399297Y279134D01*
X400570Y280407D01*
X402068Y281408D01*
X403733Y282097D01*
X404877Y282325D01*
X404877Y268223D01*
X397255Y268223D01*
G37*
%LPD*%
%LPC*%
G36*
X534923Y143255D02*
X534923Y143255D01*
X534923Y150877D01*
X549025Y150877D01*
X548797Y149733D01*
X548108Y148068D01*
X547107Y146570D01*
X545834Y145297D01*
X544336Y144296D01*
X542671Y143607D01*
X540905Y143255D01*
X534923Y143255D01*
G37*
%LPD*%
%LPC*%
G36*
X403733Y251303D02*
X403733Y251303D01*
X402068Y251992D01*
X400570Y252993D01*
X399297Y254266D01*
X398296Y255764D01*
X397607Y257429D01*
X397255Y259195D01*
X397255Y265177D01*
X404877Y265177D01*
X404877Y251075D01*
X403733Y251303D01*
G37*
%LPD*%
%LPC*%
G36*
X225933Y594203D02*
X225933Y594203D01*
X224268Y594892D01*
X222770Y595893D01*
X221497Y597166D01*
X220496Y598664D01*
X219807Y600329D01*
X219455Y602095D01*
X219455Y608077D01*
X227077Y608077D01*
X227077Y593975D01*
X225933Y594203D01*
G37*
%LPD*%
%LPC*%
G36*
X525895Y143255D02*
X525895Y143255D01*
X524129Y143607D01*
X522464Y144296D01*
X520966Y145297D01*
X519693Y146570D01*
X518692Y148068D01*
X518003Y149733D01*
X517775Y150877D01*
X531877Y150877D01*
X531877Y143255D01*
X525895Y143255D01*
G37*
%LPD*%
%LPC*%
G36*
X406399Y266699D02*
X406399Y266699D01*
X406399Y266701D01*
X406401Y266701D01*
X406401Y266699D01*
X406399Y266699D01*
G37*
%LPD*%
%LPC*%
G36*
X228599Y609599D02*
X228599Y609599D01*
X228599Y609601D01*
X228601Y609601D01*
X228601Y609599D01*
X228599Y609599D01*
G37*
%LPD*%
%LPC*%
G36*
X533399Y152399D02*
X533399Y152399D01*
X533399Y152401D01*
X533401Y152401D01*
X533401Y152399D01*
X533399Y152399D01*
G37*
%LPD*%
D10*
X203200Y602996D02*
X203200Y616204D01*
X228600Y616204D02*
X228600Y602996D01*
X254000Y602996D02*
X254000Y616204D01*
X279400Y616204D02*
X279400Y602996D01*
X304800Y602996D02*
X304800Y616204D01*
X330200Y616204D02*
X330200Y602996D01*
D11*
X342900Y571500D03*
D12*
X368300Y571500D03*
X393700Y571500D03*
X419100Y571500D03*
D10*
X526796Y254000D02*
X540004Y254000D01*
X540004Y228600D02*
X526796Y228600D01*
X526796Y203200D02*
X540004Y203200D01*
X540004Y177800D02*
X526796Y177800D01*
X526796Y152400D02*
X540004Y152400D01*
D13*
X245494Y152830D02*
X231270Y152830D01*
X231270Y178230D02*
X245494Y178230D01*
D10*
X304800Y260096D02*
X304800Y273304D01*
X330200Y273304D02*
X330200Y260096D01*
X355600Y260096D02*
X355600Y273304D01*
X381000Y273304D02*
X381000Y260096D01*
X406400Y260096D02*
X406400Y273304D01*
X431800Y273304D02*
X431800Y260096D01*
D14*
X533400Y208788D02*
X533400Y203200D01*
X423672Y318516D02*
X254508Y487680D01*
X423672Y318516D02*
X533400Y208788D01*
X254508Y487680D02*
X254508Y609600D01*
X254000Y609600D01*
X381000Y275844D02*
X381000Y266700D01*
X381000Y275844D02*
X423672Y318516D01*
X533400Y361188D02*
X533400Y254000D01*
X533400Y361188D02*
X330708Y563880D01*
X330708Y609600D01*
X330200Y609600D01*
M02*
