G04 EAGLE Gerber RS-274X export*
G75*
%MOMM*%
%FSLAX34Y34*%
%LPD*%
%INSilkscreen Bottom*%
%IPPOS*%
%AMOC8*
5,1,8,0,0,1.08239X$1,22.5*%
G01*
%ADD10C,0.101600*%
%ADD11C,0.076200*%
%ADD12C,0.152400*%
%ADD13C,0.127000*%


D10*
X570992Y114808D02*
X570992Y126492D01*
X564501Y126492D02*
X570992Y119352D01*
X568396Y121948D02*
X564501Y114808D01*
X559844Y116755D02*
X559844Y122597D01*
X559844Y116755D02*
X559842Y116668D01*
X559836Y116580D01*
X559826Y116494D01*
X559813Y116407D01*
X559795Y116322D01*
X559774Y116237D01*
X559749Y116153D01*
X559720Y116071D01*
X559687Y115990D01*
X559651Y115910D01*
X559612Y115832D01*
X559568Y115756D01*
X559522Y115682D01*
X559472Y115611D01*
X559419Y115541D01*
X559363Y115474D01*
X559304Y115410D01*
X559242Y115348D01*
X559178Y115289D01*
X559111Y115233D01*
X559041Y115180D01*
X558970Y115130D01*
X558896Y115084D01*
X558820Y115040D01*
X558742Y115001D01*
X558662Y114965D01*
X558581Y114932D01*
X558499Y114903D01*
X558415Y114878D01*
X558330Y114857D01*
X558245Y114839D01*
X558158Y114826D01*
X558072Y114816D01*
X557984Y114810D01*
X557897Y114808D01*
X554651Y114808D01*
X554651Y122597D01*
X549117Y126492D02*
X549117Y114808D01*
X545872Y114808D01*
X545785Y114810D01*
X545697Y114816D01*
X545611Y114826D01*
X545524Y114839D01*
X545439Y114857D01*
X545354Y114878D01*
X545270Y114903D01*
X545188Y114932D01*
X545107Y114965D01*
X545027Y115001D01*
X544949Y115040D01*
X544873Y115084D01*
X544799Y115130D01*
X544728Y115180D01*
X544658Y115233D01*
X544591Y115289D01*
X544527Y115348D01*
X544465Y115409D01*
X544406Y115474D01*
X544350Y115541D01*
X544297Y115611D01*
X544247Y115682D01*
X544201Y115756D01*
X544158Y115832D01*
X544118Y115910D01*
X544082Y115990D01*
X544049Y116071D01*
X544020Y116153D01*
X543995Y116237D01*
X543974Y116322D01*
X543956Y116407D01*
X543943Y116494D01*
X543933Y116580D01*
X543927Y116668D01*
X543925Y116755D01*
X543925Y120650D01*
X543927Y120737D01*
X543933Y120825D01*
X543943Y120911D01*
X543956Y120998D01*
X543974Y121083D01*
X543995Y121168D01*
X544020Y121252D01*
X544049Y121334D01*
X544082Y121415D01*
X544118Y121495D01*
X544157Y121573D01*
X544201Y121649D01*
X544247Y121723D01*
X544297Y121794D01*
X544350Y121864D01*
X544406Y121931D01*
X544465Y121996D01*
X544527Y122057D01*
X544591Y122116D01*
X544658Y122172D01*
X544728Y122225D01*
X544799Y122275D01*
X544873Y122321D01*
X544949Y122365D01*
X545027Y122404D01*
X545107Y122440D01*
X545188Y122473D01*
X545270Y122502D01*
X545354Y122527D01*
X545439Y122548D01*
X545524Y122566D01*
X545611Y122579D01*
X545698Y122589D01*
X545785Y122595D01*
X545872Y122597D01*
X549117Y122597D01*
X537323Y114808D02*
X534077Y114808D01*
X537323Y114808D02*
X537410Y114810D01*
X537498Y114816D01*
X537584Y114826D01*
X537671Y114839D01*
X537756Y114857D01*
X537841Y114878D01*
X537925Y114903D01*
X538007Y114932D01*
X538088Y114965D01*
X538168Y115001D01*
X538246Y115040D01*
X538322Y115084D01*
X538396Y115130D01*
X538467Y115180D01*
X538537Y115233D01*
X538604Y115289D01*
X538668Y115348D01*
X538730Y115410D01*
X538789Y115474D01*
X538845Y115541D01*
X538898Y115611D01*
X538948Y115682D01*
X538994Y115756D01*
X539038Y115832D01*
X539077Y115910D01*
X539113Y115990D01*
X539146Y116071D01*
X539175Y116153D01*
X539200Y116237D01*
X539221Y116322D01*
X539239Y116407D01*
X539252Y116494D01*
X539262Y116580D01*
X539268Y116668D01*
X539270Y116755D01*
X539270Y120001D01*
X539268Y120102D01*
X539262Y120202D01*
X539252Y120302D01*
X539239Y120402D01*
X539221Y120501D01*
X539200Y120600D01*
X539175Y120697D01*
X539146Y120794D01*
X539113Y120889D01*
X539077Y120983D01*
X539037Y121075D01*
X538994Y121166D01*
X538947Y121255D01*
X538897Y121342D01*
X538843Y121428D01*
X538786Y121511D01*
X538726Y121591D01*
X538663Y121670D01*
X538596Y121746D01*
X538527Y121819D01*
X538455Y121889D01*
X538381Y121957D01*
X538304Y122022D01*
X538224Y122083D01*
X538142Y122142D01*
X538058Y122197D01*
X537972Y122249D01*
X537884Y122298D01*
X537794Y122343D01*
X537702Y122385D01*
X537609Y122423D01*
X537514Y122457D01*
X537419Y122488D01*
X537322Y122515D01*
X537224Y122538D01*
X537125Y122558D01*
X537025Y122573D01*
X536925Y122585D01*
X536825Y122593D01*
X536724Y122597D01*
X536624Y122597D01*
X536523Y122593D01*
X536423Y122585D01*
X536323Y122573D01*
X536223Y122558D01*
X536124Y122538D01*
X536026Y122515D01*
X535929Y122488D01*
X535834Y122457D01*
X535739Y122423D01*
X535646Y122385D01*
X535554Y122343D01*
X535464Y122298D01*
X535376Y122249D01*
X535290Y122197D01*
X535206Y122142D01*
X535124Y122083D01*
X535044Y122022D01*
X534967Y121957D01*
X534893Y121889D01*
X534821Y121819D01*
X534752Y121746D01*
X534685Y121670D01*
X534622Y121591D01*
X534562Y121511D01*
X534505Y121428D01*
X534451Y121342D01*
X534401Y121255D01*
X534354Y121166D01*
X534311Y121075D01*
X534271Y120983D01*
X534235Y120889D01*
X534202Y120794D01*
X534173Y120697D01*
X534148Y120600D01*
X534127Y120501D01*
X534109Y120402D01*
X534096Y120302D01*
X534086Y120202D01*
X534080Y120102D01*
X534078Y120001D01*
X534077Y120001D02*
X534077Y118703D01*
X539270Y118703D01*
X529139Y119352D02*
X521349Y119352D01*
X515804Y114808D02*
X515804Y126492D01*
X511909Y120001D01*
X508014Y126492D01*
X508014Y114808D01*
X502694Y117404D02*
X502694Y120001D01*
X502692Y120102D01*
X502686Y120202D01*
X502676Y120302D01*
X502663Y120402D01*
X502645Y120501D01*
X502624Y120600D01*
X502599Y120697D01*
X502570Y120794D01*
X502537Y120889D01*
X502501Y120983D01*
X502461Y121075D01*
X502418Y121166D01*
X502371Y121255D01*
X502321Y121342D01*
X502267Y121428D01*
X502210Y121511D01*
X502150Y121591D01*
X502087Y121670D01*
X502020Y121746D01*
X501951Y121819D01*
X501879Y121889D01*
X501805Y121957D01*
X501728Y122022D01*
X501648Y122083D01*
X501566Y122142D01*
X501482Y122197D01*
X501396Y122249D01*
X501308Y122298D01*
X501218Y122343D01*
X501126Y122385D01*
X501033Y122423D01*
X500938Y122457D01*
X500843Y122488D01*
X500746Y122515D01*
X500648Y122538D01*
X500549Y122558D01*
X500449Y122573D01*
X500349Y122585D01*
X500249Y122593D01*
X500148Y122597D01*
X500048Y122597D01*
X499947Y122593D01*
X499847Y122585D01*
X499747Y122573D01*
X499647Y122558D01*
X499548Y122538D01*
X499450Y122515D01*
X499353Y122488D01*
X499258Y122457D01*
X499163Y122423D01*
X499070Y122385D01*
X498978Y122343D01*
X498888Y122298D01*
X498800Y122249D01*
X498714Y122197D01*
X498630Y122142D01*
X498548Y122083D01*
X498468Y122022D01*
X498391Y121957D01*
X498317Y121889D01*
X498245Y121819D01*
X498176Y121746D01*
X498109Y121670D01*
X498046Y121591D01*
X497986Y121511D01*
X497929Y121428D01*
X497875Y121342D01*
X497825Y121255D01*
X497778Y121166D01*
X497735Y121075D01*
X497695Y120983D01*
X497659Y120889D01*
X497626Y120794D01*
X497597Y120697D01*
X497572Y120600D01*
X497551Y120501D01*
X497533Y120402D01*
X497520Y120302D01*
X497510Y120202D01*
X497504Y120102D01*
X497502Y120001D01*
X497501Y120001D02*
X497501Y117404D01*
X497502Y117404D02*
X497504Y117303D01*
X497510Y117203D01*
X497520Y117103D01*
X497533Y117003D01*
X497551Y116904D01*
X497572Y116805D01*
X497597Y116708D01*
X497626Y116611D01*
X497659Y116516D01*
X497695Y116422D01*
X497735Y116330D01*
X497778Y116239D01*
X497825Y116150D01*
X497875Y116063D01*
X497929Y115977D01*
X497986Y115894D01*
X498046Y115814D01*
X498109Y115735D01*
X498176Y115659D01*
X498245Y115586D01*
X498317Y115516D01*
X498391Y115448D01*
X498468Y115383D01*
X498548Y115322D01*
X498630Y115263D01*
X498714Y115208D01*
X498800Y115156D01*
X498888Y115107D01*
X498978Y115062D01*
X499070Y115020D01*
X499163Y114982D01*
X499258Y114948D01*
X499353Y114917D01*
X499450Y114890D01*
X499548Y114867D01*
X499647Y114847D01*
X499747Y114832D01*
X499847Y114820D01*
X499947Y114812D01*
X500048Y114808D01*
X500148Y114808D01*
X500249Y114812D01*
X500349Y114820D01*
X500449Y114832D01*
X500549Y114847D01*
X500648Y114867D01*
X500746Y114890D01*
X500843Y114917D01*
X500938Y114948D01*
X501033Y114982D01*
X501126Y115020D01*
X501218Y115062D01*
X501308Y115107D01*
X501396Y115156D01*
X501482Y115208D01*
X501566Y115263D01*
X501648Y115322D01*
X501728Y115383D01*
X501805Y115448D01*
X501879Y115516D01*
X501951Y115586D01*
X502020Y115659D01*
X502087Y115735D01*
X502150Y115814D01*
X502210Y115894D01*
X502267Y115977D01*
X502321Y116063D01*
X502371Y116150D01*
X502418Y116239D01*
X502461Y116330D01*
X502501Y116422D01*
X502537Y116516D01*
X502570Y116611D01*
X502599Y116708D01*
X502624Y116805D01*
X502645Y116904D01*
X502663Y117003D01*
X502676Y117103D01*
X502686Y117203D01*
X502692Y117303D01*
X502694Y117404D01*
X487654Y114808D02*
X487654Y126492D01*
X487654Y114808D02*
X490900Y114808D01*
X490987Y114810D01*
X491075Y114816D01*
X491161Y114826D01*
X491248Y114839D01*
X491333Y114857D01*
X491418Y114878D01*
X491502Y114903D01*
X491584Y114932D01*
X491665Y114965D01*
X491745Y115001D01*
X491823Y115040D01*
X491899Y115084D01*
X491973Y115130D01*
X492044Y115180D01*
X492114Y115233D01*
X492181Y115289D01*
X492245Y115348D01*
X492307Y115410D01*
X492366Y115474D01*
X492422Y115541D01*
X492475Y115611D01*
X492525Y115682D01*
X492571Y115756D01*
X492615Y115832D01*
X492654Y115910D01*
X492690Y115990D01*
X492723Y116071D01*
X492752Y116153D01*
X492777Y116237D01*
X492798Y116322D01*
X492816Y116407D01*
X492829Y116494D01*
X492839Y116580D01*
X492845Y116668D01*
X492847Y116755D01*
X492847Y120650D01*
X492845Y120737D01*
X492839Y120825D01*
X492829Y120911D01*
X492816Y120998D01*
X492798Y121083D01*
X492777Y121168D01*
X492752Y121252D01*
X492723Y121334D01*
X492690Y121415D01*
X492654Y121495D01*
X492615Y121573D01*
X492571Y121649D01*
X492525Y121723D01*
X492475Y121794D01*
X492422Y121864D01*
X492366Y121931D01*
X492307Y121995D01*
X492245Y122057D01*
X492181Y122116D01*
X492114Y122172D01*
X492044Y122225D01*
X491973Y122275D01*
X491899Y122321D01*
X491823Y122365D01*
X491745Y122404D01*
X491665Y122440D01*
X491584Y122473D01*
X491502Y122502D01*
X491418Y122527D01*
X491333Y122548D01*
X491248Y122566D01*
X491161Y122579D01*
X491075Y122589D01*
X490987Y122595D01*
X490900Y122597D01*
X487654Y122597D01*
X482120Y122597D02*
X482120Y116755D01*
X482118Y116668D01*
X482112Y116580D01*
X482102Y116494D01*
X482089Y116407D01*
X482071Y116322D01*
X482050Y116237D01*
X482025Y116153D01*
X481996Y116071D01*
X481963Y115990D01*
X481927Y115910D01*
X481888Y115832D01*
X481844Y115756D01*
X481798Y115682D01*
X481748Y115611D01*
X481695Y115541D01*
X481639Y115474D01*
X481580Y115410D01*
X481518Y115348D01*
X481454Y115289D01*
X481387Y115233D01*
X481317Y115180D01*
X481246Y115130D01*
X481172Y115084D01*
X481096Y115040D01*
X481018Y115001D01*
X480938Y114965D01*
X480857Y114932D01*
X480775Y114903D01*
X480691Y114878D01*
X480606Y114857D01*
X480521Y114839D01*
X480434Y114826D01*
X480348Y114816D01*
X480260Y114810D01*
X480173Y114808D01*
X476927Y114808D01*
X476927Y122597D01*
X471684Y126492D02*
X471684Y116755D01*
X471683Y116755D02*
X471681Y116668D01*
X471675Y116580D01*
X471665Y116494D01*
X471652Y116407D01*
X471634Y116322D01*
X471613Y116237D01*
X471588Y116153D01*
X471559Y116071D01*
X471526Y115990D01*
X471490Y115910D01*
X471451Y115832D01*
X471407Y115756D01*
X471361Y115682D01*
X471311Y115611D01*
X471258Y115541D01*
X471202Y115474D01*
X471143Y115410D01*
X471081Y115348D01*
X471017Y115289D01*
X470950Y115233D01*
X470880Y115180D01*
X470809Y115130D01*
X470735Y115084D01*
X470659Y115040D01*
X470581Y115001D01*
X470501Y114965D01*
X470420Y114932D01*
X470338Y114903D01*
X470254Y114878D01*
X470169Y114857D01*
X470084Y114839D01*
X469997Y114826D01*
X469911Y114816D01*
X469823Y114810D01*
X469736Y114808D01*
X463790Y114808D02*
X460544Y114808D01*
X463790Y114808D02*
X463877Y114810D01*
X463965Y114816D01*
X464051Y114826D01*
X464138Y114839D01*
X464223Y114857D01*
X464308Y114878D01*
X464392Y114903D01*
X464474Y114932D01*
X464555Y114965D01*
X464635Y115001D01*
X464713Y115040D01*
X464789Y115084D01*
X464863Y115130D01*
X464934Y115180D01*
X465004Y115233D01*
X465071Y115289D01*
X465135Y115348D01*
X465197Y115410D01*
X465256Y115474D01*
X465312Y115541D01*
X465365Y115611D01*
X465415Y115682D01*
X465461Y115756D01*
X465505Y115832D01*
X465544Y115910D01*
X465580Y115990D01*
X465613Y116071D01*
X465642Y116153D01*
X465667Y116237D01*
X465688Y116322D01*
X465706Y116407D01*
X465719Y116494D01*
X465729Y116580D01*
X465735Y116668D01*
X465737Y116755D01*
X465737Y120001D01*
X465735Y120102D01*
X465729Y120202D01*
X465719Y120302D01*
X465706Y120402D01*
X465688Y120501D01*
X465667Y120600D01*
X465642Y120697D01*
X465613Y120794D01*
X465580Y120889D01*
X465544Y120983D01*
X465504Y121075D01*
X465461Y121166D01*
X465414Y121255D01*
X465364Y121342D01*
X465310Y121428D01*
X465253Y121511D01*
X465193Y121591D01*
X465130Y121670D01*
X465063Y121746D01*
X464994Y121819D01*
X464922Y121889D01*
X464848Y121957D01*
X464771Y122022D01*
X464691Y122083D01*
X464609Y122142D01*
X464525Y122197D01*
X464439Y122249D01*
X464351Y122298D01*
X464261Y122343D01*
X464169Y122385D01*
X464076Y122423D01*
X463981Y122457D01*
X463886Y122488D01*
X463789Y122515D01*
X463691Y122538D01*
X463592Y122558D01*
X463492Y122573D01*
X463392Y122585D01*
X463292Y122593D01*
X463191Y122597D01*
X463091Y122597D01*
X462990Y122593D01*
X462890Y122585D01*
X462790Y122573D01*
X462690Y122558D01*
X462591Y122538D01*
X462493Y122515D01*
X462396Y122488D01*
X462301Y122457D01*
X462206Y122423D01*
X462113Y122385D01*
X462021Y122343D01*
X461931Y122298D01*
X461843Y122249D01*
X461757Y122197D01*
X461673Y122142D01*
X461591Y122083D01*
X461511Y122022D01*
X461434Y121957D01*
X461360Y121889D01*
X461288Y121819D01*
X461219Y121746D01*
X461152Y121670D01*
X461089Y121591D01*
X461029Y121511D01*
X460972Y121428D01*
X460918Y121342D01*
X460868Y121255D01*
X460821Y121166D01*
X460778Y121075D01*
X460738Y120983D01*
X460702Y120889D01*
X460669Y120794D01*
X460640Y120697D01*
X460615Y120600D01*
X460594Y120501D01*
X460576Y120402D01*
X460563Y120302D01*
X460553Y120202D01*
X460547Y120102D01*
X460545Y120001D01*
X460544Y120001D02*
X460544Y118703D01*
X465737Y118703D01*
X455606Y119352D02*
X447816Y119352D01*
X442764Y118054D02*
X442764Y123246D01*
X442765Y123246D02*
X442763Y123359D01*
X442757Y123472D01*
X442747Y123585D01*
X442733Y123698D01*
X442716Y123810D01*
X442694Y123921D01*
X442669Y124031D01*
X442639Y124141D01*
X442606Y124249D01*
X442569Y124356D01*
X442529Y124462D01*
X442484Y124566D01*
X442436Y124669D01*
X442385Y124770D01*
X442330Y124869D01*
X442272Y124966D01*
X442210Y125061D01*
X442145Y125154D01*
X442077Y125244D01*
X442006Y125332D01*
X441931Y125418D01*
X441854Y125501D01*
X441774Y125581D01*
X441691Y125658D01*
X441605Y125733D01*
X441517Y125804D01*
X441427Y125872D01*
X441334Y125937D01*
X441239Y125999D01*
X441142Y126057D01*
X441043Y126112D01*
X440942Y126163D01*
X440839Y126211D01*
X440735Y126256D01*
X440629Y126296D01*
X440522Y126333D01*
X440414Y126366D01*
X440304Y126396D01*
X440194Y126421D01*
X440083Y126443D01*
X439971Y126460D01*
X439858Y126474D01*
X439745Y126484D01*
X439632Y126490D01*
X439519Y126492D01*
X439406Y126490D01*
X439293Y126484D01*
X439180Y126474D01*
X439067Y126460D01*
X438955Y126443D01*
X438844Y126421D01*
X438734Y126396D01*
X438624Y126366D01*
X438516Y126333D01*
X438409Y126296D01*
X438303Y126256D01*
X438199Y126211D01*
X438096Y126163D01*
X437995Y126112D01*
X437896Y126057D01*
X437799Y125999D01*
X437704Y125937D01*
X437611Y125872D01*
X437521Y125804D01*
X437433Y125733D01*
X437347Y125658D01*
X437264Y125581D01*
X437184Y125501D01*
X437107Y125418D01*
X437032Y125332D01*
X436961Y125244D01*
X436893Y125154D01*
X436828Y125061D01*
X436766Y124966D01*
X436708Y124869D01*
X436653Y124770D01*
X436602Y124669D01*
X436554Y124566D01*
X436509Y124462D01*
X436469Y124356D01*
X436432Y124249D01*
X436399Y124141D01*
X436369Y124031D01*
X436344Y123921D01*
X436322Y123810D01*
X436305Y123698D01*
X436291Y123585D01*
X436281Y123472D01*
X436275Y123359D01*
X436273Y123246D01*
X436273Y118054D01*
X436275Y117941D01*
X436281Y117828D01*
X436291Y117715D01*
X436305Y117602D01*
X436322Y117490D01*
X436344Y117379D01*
X436369Y117269D01*
X436399Y117159D01*
X436432Y117051D01*
X436469Y116944D01*
X436509Y116838D01*
X436554Y116734D01*
X436602Y116631D01*
X436653Y116530D01*
X436708Y116431D01*
X436766Y116334D01*
X436828Y116239D01*
X436893Y116146D01*
X436961Y116056D01*
X437032Y115968D01*
X437107Y115882D01*
X437184Y115799D01*
X437264Y115719D01*
X437347Y115642D01*
X437433Y115567D01*
X437521Y115496D01*
X437611Y115428D01*
X437704Y115363D01*
X437799Y115301D01*
X437896Y115243D01*
X437995Y115188D01*
X438096Y115137D01*
X438199Y115089D01*
X438303Y115044D01*
X438409Y115004D01*
X438516Y114967D01*
X438624Y114934D01*
X438734Y114904D01*
X438844Y114879D01*
X438955Y114857D01*
X439067Y114840D01*
X439180Y114826D01*
X439293Y114816D01*
X439406Y114810D01*
X439519Y114808D01*
X439632Y114810D01*
X439745Y114816D01*
X439858Y114826D01*
X439971Y114840D01*
X440083Y114857D01*
X440194Y114879D01*
X440304Y114904D01*
X440414Y114934D01*
X440522Y114967D01*
X440629Y115004D01*
X440735Y115044D01*
X440839Y115089D01*
X440942Y115137D01*
X441043Y115188D01*
X441142Y115243D01*
X441239Y115301D01*
X441334Y115363D01*
X441427Y115428D01*
X441517Y115496D01*
X441605Y115567D01*
X441691Y115642D01*
X441774Y115719D01*
X441854Y115799D01*
X441931Y115882D01*
X442006Y115968D01*
X442077Y116056D01*
X442145Y116146D01*
X442210Y116239D01*
X442272Y116334D01*
X442330Y116431D01*
X442385Y116530D01*
X442436Y116631D01*
X442484Y116734D01*
X442529Y116838D01*
X442569Y116944D01*
X442606Y117051D01*
X442639Y117159D01*
X442669Y117269D01*
X442694Y117379D01*
X442716Y117490D01*
X442733Y117602D01*
X442747Y117715D01*
X442757Y117828D01*
X442763Y117941D01*
X442765Y118054D01*
X430931Y114808D02*
X430931Y126492D01*
X430931Y114808D02*
X425738Y114808D01*
X421025Y114808D02*
X415832Y114808D01*
X421025Y114808D02*
X421025Y126492D01*
X415832Y126492D01*
X417130Y121299D02*
X421025Y121299D01*
X411142Y126492D02*
X411142Y114808D01*
X411142Y126492D02*
X407896Y126492D01*
X407783Y126490D01*
X407670Y126484D01*
X407557Y126474D01*
X407444Y126460D01*
X407332Y126443D01*
X407221Y126421D01*
X407111Y126396D01*
X407001Y126366D01*
X406893Y126333D01*
X406786Y126296D01*
X406680Y126256D01*
X406576Y126211D01*
X406473Y126163D01*
X406372Y126112D01*
X406273Y126057D01*
X406176Y125999D01*
X406081Y125937D01*
X405988Y125872D01*
X405898Y125804D01*
X405810Y125733D01*
X405724Y125658D01*
X405641Y125581D01*
X405561Y125501D01*
X405484Y125418D01*
X405409Y125332D01*
X405338Y125244D01*
X405270Y125154D01*
X405205Y125061D01*
X405143Y124966D01*
X405085Y124869D01*
X405030Y124770D01*
X404979Y124669D01*
X404931Y124566D01*
X404886Y124462D01*
X404846Y124356D01*
X404809Y124249D01*
X404776Y124141D01*
X404746Y124031D01*
X404721Y123921D01*
X404699Y123810D01*
X404682Y123698D01*
X404668Y123585D01*
X404658Y123472D01*
X404652Y123359D01*
X404650Y123246D01*
X404650Y118054D01*
X404652Y117941D01*
X404658Y117828D01*
X404668Y117715D01*
X404682Y117602D01*
X404699Y117490D01*
X404721Y117379D01*
X404746Y117269D01*
X404776Y117159D01*
X404809Y117051D01*
X404846Y116944D01*
X404886Y116838D01*
X404931Y116734D01*
X404979Y116631D01*
X405030Y116530D01*
X405085Y116431D01*
X405143Y116334D01*
X405205Y116239D01*
X405270Y116146D01*
X405338Y116056D01*
X405409Y115968D01*
X405484Y115882D01*
X405561Y115799D01*
X405641Y115719D01*
X405724Y115642D01*
X405810Y115567D01*
X405898Y115496D01*
X405988Y115428D01*
X406081Y115363D01*
X406176Y115301D01*
X406273Y115243D01*
X406372Y115188D01*
X406473Y115137D01*
X406576Y115089D01*
X406680Y115044D01*
X406786Y115004D01*
X406893Y114967D01*
X407001Y114934D01*
X407111Y114904D01*
X407221Y114879D01*
X407332Y114857D01*
X407444Y114840D01*
X407557Y114826D01*
X407670Y114816D01*
X407783Y114810D01*
X407896Y114808D01*
X411142Y114808D01*
X399824Y113510D02*
X394632Y113510D01*
X390836Y114808D02*
X386941Y126492D01*
X383046Y114808D01*
X384020Y117729D02*
X389862Y117729D01*
X378263Y114808D02*
X378263Y122597D01*
X372421Y122597D01*
X372334Y122595D01*
X372246Y122589D01*
X372160Y122579D01*
X372073Y122566D01*
X371988Y122548D01*
X371903Y122527D01*
X371819Y122502D01*
X371737Y122473D01*
X371656Y122440D01*
X371576Y122404D01*
X371498Y122365D01*
X371422Y122321D01*
X371348Y122275D01*
X371277Y122225D01*
X371207Y122172D01*
X371140Y122116D01*
X371076Y122057D01*
X371014Y121995D01*
X370955Y121931D01*
X370899Y121864D01*
X370846Y121794D01*
X370796Y121723D01*
X370750Y121649D01*
X370706Y121573D01*
X370667Y121495D01*
X370631Y121415D01*
X370598Y121334D01*
X370569Y121252D01*
X370544Y121168D01*
X370523Y121083D01*
X370505Y120998D01*
X370492Y120911D01*
X370482Y120825D01*
X370476Y120737D01*
X370474Y120650D01*
X370473Y120650D02*
X370473Y114808D01*
X374368Y114808D02*
X374368Y122597D01*
X364714Y126492D02*
X364714Y114808D01*
X361468Y114808D01*
X361381Y114810D01*
X361293Y114816D01*
X361207Y114826D01*
X361120Y114839D01*
X361035Y114857D01*
X360950Y114878D01*
X360866Y114903D01*
X360784Y114932D01*
X360703Y114965D01*
X360623Y115001D01*
X360545Y115040D01*
X360469Y115084D01*
X360395Y115130D01*
X360324Y115180D01*
X360254Y115233D01*
X360187Y115289D01*
X360123Y115348D01*
X360061Y115409D01*
X360002Y115474D01*
X359946Y115541D01*
X359893Y115611D01*
X359843Y115682D01*
X359797Y115756D01*
X359754Y115832D01*
X359714Y115910D01*
X359678Y115990D01*
X359645Y116071D01*
X359616Y116153D01*
X359591Y116237D01*
X359570Y116322D01*
X359552Y116407D01*
X359539Y116494D01*
X359529Y116580D01*
X359523Y116668D01*
X359521Y116755D01*
X359521Y120650D01*
X359523Y120737D01*
X359529Y120825D01*
X359539Y120911D01*
X359552Y120998D01*
X359570Y121083D01*
X359591Y121168D01*
X359616Y121252D01*
X359645Y121334D01*
X359678Y121415D01*
X359714Y121495D01*
X359753Y121573D01*
X359797Y121649D01*
X359843Y121723D01*
X359893Y121794D01*
X359946Y121864D01*
X360002Y121931D01*
X360061Y121996D01*
X360123Y122057D01*
X360187Y122116D01*
X360254Y122172D01*
X360324Y122225D01*
X360395Y122275D01*
X360469Y122321D01*
X360545Y122365D01*
X360623Y122404D01*
X360703Y122440D01*
X360784Y122473D01*
X360866Y122502D01*
X360950Y122527D01*
X361035Y122548D01*
X361120Y122566D01*
X361207Y122579D01*
X361294Y122589D01*
X361381Y122595D01*
X361468Y122597D01*
X364714Y122597D01*
X354937Y122597D02*
X354937Y114808D01*
X355262Y125843D02*
X355262Y126492D01*
X354612Y126492D01*
X354612Y125843D01*
X355262Y125843D01*
X349688Y126492D02*
X349688Y114808D01*
X345793Y120001D02*
X349688Y126492D01*
X345793Y120001D02*
X341898Y126492D01*
X341898Y114808D01*
X334366Y119352D02*
X331445Y119352D01*
X334366Y119352D02*
X334460Y119350D01*
X334554Y119344D01*
X334647Y119335D01*
X334740Y119321D01*
X334832Y119304D01*
X334924Y119282D01*
X335014Y119258D01*
X335104Y119229D01*
X335192Y119197D01*
X335279Y119161D01*
X335364Y119121D01*
X335447Y119078D01*
X335529Y119032D01*
X335609Y118982D01*
X335686Y118929D01*
X335761Y118873D01*
X335834Y118814D01*
X335905Y118752D01*
X335973Y118687D01*
X336038Y118619D01*
X336100Y118548D01*
X336159Y118475D01*
X336215Y118400D01*
X336268Y118323D01*
X336318Y118243D01*
X336364Y118161D01*
X336407Y118078D01*
X336447Y117993D01*
X336483Y117906D01*
X336515Y117818D01*
X336544Y117728D01*
X336568Y117638D01*
X336590Y117546D01*
X336607Y117454D01*
X336621Y117361D01*
X336630Y117268D01*
X336636Y117174D01*
X336638Y117080D01*
X336636Y116986D01*
X336630Y116892D01*
X336621Y116799D01*
X336607Y116706D01*
X336590Y116614D01*
X336568Y116522D01*
X336544Y116432D01*
X336515Y116342D01*
X336483Y116254D01*
X336447Y116167D01*
X336407Y116082D01*
X336364Y115999D01*
X336318Y115917D01*
X336268Y115837D01*
X336215Y115760D01*
X336159Y115685D01*
X336100Y115612D01*
X336038Y115541D01*
X335973Y115473D01*
X335905Y115408D01*
X335834Y115346D01*
X335761Y115287D01*
X335686Y115231D01*
X335609Y115178D01*
X335529Y115128D01*
X335447Y115082D01*
X335364Y115039D01*
X335279Y114999D01*
X335192Y114963D01*
X335104Y114931D01*
X335014Y114902D01*
X334924Y114878D01*
X334832Y114856D01*
X334740Y114839D01*
X334647Y114825D01*
X334554Y114816D01*
X334460Y114810D01*
X334366Y114808D01*
X331445Y114808D01*
X331445Y120650D01*
X331447Y120737D01*
X331453Y120825D01*
X331463Y120911D01*
X331476Y120998D01*
X331494Y121083D01*
X331515Y121168D01*
X331540Y121252D01*
X331569Y121334D01*
X331602Y121415D01*
X331638Y121495D01*
X331677Y121573D01*
X331721Y121649D01*
X331767Y121723D01*
X331817Y121794D01*
X331870Y121864D01*
X331926Y121931D01*
X331985Y121996D01*
X332047Y122057D01*
X332111Y122116D01*
X332178Y122172D01*
X332248Y122225D01*
X332319Y122275D01*
X332393Y122321D01*
X332469Y122365D01*
X332547Y122404D01*
X332627Y122440D01*
X332708Y122473D01*
X332790Y122502D01*
X332874Y122527D01*
X332959Y122548D01*
X333044Y122566D01*
X333131Y122579D01*
X333218Y122589D01*
X333305Y122595D01*
X333392Y122597D01*
X335988Y122597D01*
X327259Y122597D02*
X323364Y122597D01*
X325961Y126492D02*
X325961Y116755D01*
X325960Y116755D02*
X325958Y116668D01*
X325952Y116580D01*
X325942Y116494D01*
X325929Y116407D01*
X325911Y116322D01*
X325890Y116237D01*
X325865Y116153D01*
X325836Y116071D01*
X325803Y115990D01*
X325767Y115910D01*
X325728Y115832D01*
X325684Y115756D01*
X325638Y115682D01*
X325588Y115611D01*
X325535Y115541D01*
X325479Y115474D01*
X325420Y115410D01*
X325358Y115348D01*
X325294Y115289D01*
X325227Y115233D01*
X325157Y115180D01*
X325086Y115130D01*
X325012Y115084D01*
X324936Y115040D01*
X324858Y115001D01*
X324778Y114965D01*
X324697Y114932D01*
X324615Y114903D01*
X324531Y114878D01*
X324446Y114857D01*
X324361Y114839D01*
X324274Y114826D01*
X324188Y114816D01*
X324100Y114810D01*
X324013Y114808D01*
X323364Y114808D01*
X317105Y114808D02*
X313860Y114808D01*
X317105Y114808D02*
X317192Y114810D01*
X317280Y114816D01*
X317366Y114826D01*
X317453Y114839D01*
X317538Y114857D01*
X317623Y114878D01*
X317707Y114903D01*
X317789Y114932D01*
X317870Y114965D01*
X317950Y115001D01*
X318028Y115040D01*
X318104Y115084D01*
X318178Y115130D01*
X318249Y115180D01*
X318319Y115233D01*
X318386Y115289D01*
X318450Y115348D01*
X318512Y115410D01*
X318571Y115474D01*
X318627Y115541D01*
X318680Y115611D01*
X318730Y115682D01*
X318776Y115756D01*
X318820Y115832D01*
X318859Y115910D01*
X318895Y115990D01*
X318928Y116071D01*
X318957Y116153D01*
X318982Y116237D01*
X319003Y116322D01*
X319021Y116407D01*
X319034Y116494D01*
X319044Y116580D01*
X319050Y116668D01*
X319052Y116755D01*
X319053Y116755D02*
X319053Y120001D01*
X319052Y120001D02*
X319050Y120102D01*
X319044Y120202D01*
X319034Y120302D01*
X319021Y120402D01*
X319003Y120501D01*
X318982Y120600D01*
X318957Y120697D01*
X318928Y120794D01*
X318895Y120889D01*
X318859Y120983D01*
X318819Y121075D01*
X318776Y121166D01*
X318729Y121255D01*
X318679Y121342D01*
X318625Y121428D01*
X318568Y121511D01*
X318508Y121591D01*
X318445Y121670D01*
X318378Y121746D01*
X318309Y121819D01*
X318237Y121889D01*
X318163Y121957D01*
X318086Y122022D01*
X318006Y122083D01*
X317924Y122142D01*
X317840Y122197D01*
X317754Y122249D01*
X317666Y122298D01*
X317576Y122343D01*
X317484Y122385D01*
X317391Y122423D01*
X317296Y122457D01*
X317201Y122488D01*
X317104Y122515D01*
X317006Y122538D01*
X316907Y122558D01*
X316807Y122573D01*
X316707Y122585D01*
X316607Y122593D01*
X316506Y122597D01*
X316406Y122597D01*
X316305Y122593D01*
X316205Y122585D01*
X316105Y122573D01*
X316005Y122558D01*
X315906Y122538D01*
X315808Y122515D01*
X315711Y122488D01*
X315616Y122457D01*
X315521Y122423D01*
X315428Y122385D01*
X315336Y122343D01*
X315246Y122298D01*
X315158Y122249D01*
X315072Y122197D01*
X314988Y122142D01*
X314906Y122083D01*
X314826Y122022D01*
X314749Y121957D01*
X314675Y121889D01*
X314603Y121819D01*
X314534Y121746D01*
X314467Y121670D01*
X314404Y121591D01*
X314344Y121511D01*
X314287Y121428D01*
X314233Y121342D01*
X314183Y121255D01*
X314136Y121166D01*
X314093Y121075D01*
X314053Y120983D01*
X314017Y120889D01*
X313984Y120794D01*
X313955Y120697D01*
X313930Y120600D01*
X313909Y120501D01*
X313891Y120402D01*
X313878Y120302D01*
X313868Y120202D01*
X313862Y120102D01*
X313860Y120001D01*
X313860Y118703D01*
X319053Y118703D01*
X309528Y113510D02*
X304335Y113510D01*
X297787Y114808D02*
X300384Y122597D01*
X295191Y122597D02*
X297787Y114808D01*
X291254Y114808D02*
X291254Y115457D01*
X290605Y115457D01*
X290605Y114808D01*
X291254Y114808D01*
X279683Y123571D02*
X279685Y123678D01*
X279691Y123784D01*
X279701Y123890D01*
X279714Y123996D01*
X279732Y124102D01*
X279753Y124206D01*
X279778Y124310D01*
X279807Y124413D01*
X279839Y124514D01*
X279876Y124614D01*
X279916Y124713D01*
X279959Y124811D01*
X280006Y124907D01*
X280057Y125001D01*
X280111Y125093D01*
X280168Y125183D01*
X280228Y125271D01*
X280292Y125356D01*
X280359Y125439D01*
X280429Y125520D01*
X280501Y125598D01*
X280577Y125674D01*
X280655Y125746D01*
X280736Y125816D01*
X280819Y125883D01*
X280904Y125947D01*
X280992Y126007D01*
X281082Y126064D01*
X281174Y126118D01*
X281268Y126169D01*
X281364Y126216D01*
X281462Y126259D01*
X281561Y126299D01*
X281661Y126336D01*
X281762Y126368D01*
X281865Y126397D01*
X281969Y126422D01*
X282073Y126443D01*
X282179Y126461D01*
X282285Y126474D01*
X282391Y126484D01*
X282497Y126490D01*
X282604Y126492D01*
X282725Y126490D01*
X282846Y126484D01*
X282966Y126474D01*
X283087Y126461D01*
X283206Y126443D01*
X283326Y126422D01*
X283444Y126397D01*
X283561Y126368D01*
X283678Y126335D01*
X283793Y126299D01*
X283907Y126258D01*
X284020Y126215D01*
X284132Y126167D01*
X284241Y126116D01*
X284349Y126061D01*
X284456Y126003D01*
X284560Y125942D01*
X284662Y125877D01*
X284762Y125809D01*
X284860Y125738D01*
X284956Y125664D01*
X285049Y125587D01*
X285139Y125506D01*
X285227Y125423D01*
X285312Y125337D01*
X285395Y125248D01*
X285474Y125157D01*
X285551Y125063D01*
X285624Y124967D01*
X285694Y124869D01*
X285761Y124768D01*
X285825Y124665D01*
X285886Y124560D01*
X285943Y124453D01*
X285996Y124345D01*
X286046Y124235D01*
X286092Y124123D01*
X286135Y124010D01*
X286174Y123895D01*
X280657Y121299D02*
X280578Y121377D01*
X280502Y121457D01*
X280429Y121540D01*
X280359Y121626D01*
X280292Y121713D01*
X280228Y121804D01*
X280168Y121896D01*
X280110Y121990D01*
X280056Y122087D01*
X280006Y122185D01*
X279959Y122285D01*
X279915Y122386D01*
X279875Y122489D01*
X279839Y122594D01*
X279807Y122699D01*
X279778Y122806D01*
X279753Y122913D01*
X279731Y123022D01*
X279714Y123131D01*
X279700Y123240D01*
X279691Y123350D01*
X279685Y123461D01*
X279683Y123571D01*
X280656Y121299D02*
X286174Y114808D01*
X279683Y114808D01*
X274744Y120650D02*
X274741Y120880D01*
X274733Y121110D01*
X274719Y121339D01*
X274700Y121568D01*
X274675Y121797D01*
X274645Y122025D01*
X274610Y122252D01*
X274569Y122478D01*
X274523Y122703D01*
X274471Y122927D01*
X274414Y123150D01*
X274352Y123371D01*
X274284Y123591D01*
X274211Y123809D01*
X274133Y124025D01*
X274050Y124239D01*
X273962Y124452D01*
X273869Y124662D01*
X273770Y124869D01*
X273737Y124959D01*
X273701Y125048D01*
X273661Y125136D01*
X273617Y125221D01*
X273570Y125305D01*
X273520Y125387D01*
X273466Y125467D01*
X273410Y125544D01*
X273350Y125620D01*
X273287Y125693D01*
X273222Y125763D01*
X273153Y125831D01*
X273082Y125895D01*
X273009Y125957D01*
X272933Y126016D01*
X272855Y126072D01*
X272774Y126125D01*
X272692Y126174D01*
X272608Y126220D01*
X272521Y126263D01*
X272434Y126302D01*
X272344Y126338D01*
X272254Y126370D01*
X272162Y126398D01*
X272069Y126423D01*
X271975Y126444D01*
X271881Y126461D01*
X271786Y126475D01*
X271690Y126484D01*
X271594Y126490D01*
X271498Y126492D01*
X271402Y126490D01*
X271306Y126484D01*
X271210Y126475D01*
X271115Y126461D01*
X271021Y126444D01*
X270927Y126423D01*
X270834Y126398D01*
X270742Y126370D01*
X270652Y126338D01*
X270562Y126302D01*
X270475Y126263D01*
X270388Y126220D01*
X270304Y126174D01*
X270222Y126125D01*
X270141Y126072D01*
X270063Y126016D01*
X269987Y125957D01*
X269914Y125895D01*
X269843Y125831D01*
X269774Y125763D01*
X269709Y125693D01*
X269646Y125620D01*
X269586Y125545D01*
X269530Y125467D01*
X269476Y125387D01*
X269426Y125305D01*
X269379Y125221D01*
X269336Y125136D01*
X269295Y125048D01*
X269259Y124959D01*
X269226Y124869D01*
X269227Y124869D02*
X269128Y124661D01*
X269035Y124451D01*
X268947Y124239D01*
X268864Y124025D01*
X268786Y123808D01*
X268713Y123590D01*
X268645Y123371D01*
X268583Y123149D01*
X268526Y122927D01*
X268474Y122703D01*
X268428Y122478D01*
X268387Y122252D01*
X268352Y122024D01*
X268322Y121797D01*
X268297Y121568D01*
X268278Y121339D01*
X268264Y121110D01*
X268256Y120880D01*
X268253Y120650D01*
X274744Y120650D02*
X274741Y120420D01*
X274733Y120190D01*
X274719Y119961D01*
X274700Y119732D01*
X274675Y119503D01*
X274645Y119275D01*
X274610Y119048D01*
X274569Y118822D01*
X274523Y118597D01*
X274471Y118373D01*
X274414Y118150D01*
X274352Y117929D01*
X274284Y117709D01*
X274211Y117491D01*
X274133Y117275D01*
X274050Y117061D01*
X273962Y116849D01*
X273869Y116638D01*
X273770Y116431D01*
X273737Y116341D01*
X273701Y116252D01*
X273660Y116164D01*
X273617Y116079D01*
X273570Y115995D01*
X273520Y115913D01*
X273466Y115833D01*
X273410Y115756D01*
X273350Y115680D01*
X273287Y115607D01*
X273222Y115537D01*
X273153Y115469D01*
X273082Y115405D01*
X273009Y115343D01*
X272933Y115284D01*
X272855Y115228D01*
X272774Y115175D01*
X272692Y115126D01*
X272608Y115080D01*
X272521Y115037D01*
X272434Y114998D01*
X272344Y114962D01*
X272254Y114930D01*
X272162Y114902D01*
X272069Y114877D01*
X271975Y114856D01*
X271881Y114839D01*
X271786Y114825D01*
X271690Y114816D01*
X271594Y114810D01*
X271498Y114808D01*
X269226Y116431D02*
X269127Y116638D01*
X269034Y116849D01*
X268946Y117061D01*
X268863Y117275D01*
X268785Y117491D01*
X268712Y117709D01*
X268644Y117929D01*
X268582Y118150D01*
X268525Y118373D01*
X268473Y118597D01*
X268427Y118822D01*
X268386Y119048D01*
X268351Y119275D01*
X268321Y119503D01*
X268296Y119732D01*
X268277Y119961D01*
X268263Y120190D01*
X268255Y120420D01*
X268252Y120650D01*
X269226Y116431D02*
X269259Y116341D01*
X269295Y116252D01*
X269336Y116164D01*
X269379Y116079D01*
X269426Y115995D01*
X269476Y115913D01*
X269530Y115833D01*
X269586Y115755D01*
X269646Y115680D01*
X269709Y115607D01*
X269774Y115537D01*
X269843Y115469D01*
X269914Y115405D01*
X269987Y115343D01*
X270063Y115284D01*
X270141Y115228D01*
X270222Y115175D01*
X270304Y115126D01*
X270388Y115080D01*
X270475Y115037D01*
X270562Y114998D01*
X270652Y114962D01*
X270742Y114930D01*
X270834Y114902D01*
X270927Y114877D01*
X271021Y114856D01*
X271115Y114839D01*
X271210Y114825D01*
X271306Y114816D01*
X271402Y114810D01*
X271498Y114808D01*
X274095Y117404D02*
X268902Y123896D01*
X263314Y123896D02*
X260068Y126492D01*
X260068Y114808D01*
X256823Y114808D02*
X263314Y114808D01*
X249287Y120001D02*
X245393Y120001D01*
X249287Y120001D02*
X249386Y120003D01*
X249486Y120009D01*
X249585Y120018D01*
X249683Y120031D01*
X249781Y120048D01*
X249879Y120069D01*
X249975Y120094D01*
X250070Y120122D01*
X250164Y120154D01*
X250257Y120189D01*
X250349Y120228D01*
X250439Y120271D01*
X250527Y120316D01*
X250614Y120366D01*
X250698Y120418D01*
X250781Y120474D01*
X250861Y120532D01*
X250939Y120594D01*
X251014Y120659D01*
X251087Y120727D01*
X251157Y120797D01*
X251225Y120870D01*
X251290Y120945D01*
X251352Y121023D01*
X251410Y121103D01*
X251466Y121186D01*
X251518Y121270D01*
X251568Y121357D01*
X251613Y121445D01*
X251656Y121535D01*
X251695Y121627D01*
X251730Y121720D01*
X251762Y121814D01*
X251790Y121909D01*
X251815Y122005D01*
X251836Y122103D01*
X251853Y122201D01*
X251866Y122299D01*
X251875Y122398D01*
X251881Y122498D01*
X251883Y122597D01*
X251884Y122597D02*
X251884Y123246D01*
X251882Y123359D01*
X251876Y123472D01*
X251866Y123585D01*
X251852Y123698D01*
X251835Y123810D01*
X251813Y123921D01*
X251788Y124031D01*
X251758Y124141D01*
X251725Y124249D01*
X251688Y124356D01*
X251648Y124462D01*
X251603Y124566D01*
X251555Y124669D01*
X251504Y124770D01*
X251449Y124869D01*
X251391Y124966D01*
X251329Y125061D01*
X251264Y125154D01*
X251196Y125244D01*
X251125Y125332D01*
X251050Y125418D01*
X250973Y125501D01*
X250893Y125581D01*
X250810Y125658D01*
X250724Y125733D01*
X250636Y125804D01*
X250546Y125872D01*
X250453Y125937D01*
X250358Y125999D01*
X250261Y126057D01*
X250162Y126112D01*
X250061Y126163D01*
X249958Y126211D01*
X249854Y126256D01*
X249748Y126296D01*
X249641Y126333D01*
X249533Y126366D01*
X249423Y126396D01*
X249313Y126421D01*
X249202Y126443D01*
X249090Y126460D01*
X248977Y126474D01*
X248864Y126484D01*
X248751Y126490D01*
X248638Y126492D01*
X248525Y126490D01*
X248412Y126484D01*
X248299Y126474D01*
X248186Y126460D01*
X248074Y126443D01*
X247963Y126421D01*
X247853Y126396D01*
X247743Y126366D01*
X247635Y126333D01*
X247528Y126296D01*
X247422Y126256D01*
X247318Y126211D01*
X247215Y126163D01*
X247114Y126112D01*
X247015Y126057D01*
X246918Y125999D01*
X246823Y125937D01*
X246730Y125872D01*
X246640Y125804D01*
X246552Y125733D01*
X246466Y125658D01*
X246383Y125581D01*
X246303Y125501D01*
X246226Y125418D01*
X246151Y125332D01*
X246080Y125244D01*
X246012Y125154D01*
X245947Y125061D01*
X245885Y124966D01*
X245827Y124869D01*
X245772Y124770D01*
X245721Y124669D01*
X245673Y124566D01*
X245628Y124462D01*
X245588Y124356D01*
X245551Y124249D01*
X245518Y124141D01*
X245488Y124031D01*
X245463Y123921D01*
X245441Y123810D01*
X245424Y123698D01*
X245410Y123585D01*
X245400Y123472D01*
X245394Y123359D01*
X245392Y123246D01*
X245393Y123246D02*
X245393Y120001D01*
X245395Y119858D01*
X245401Y119715D01*
X245411Y119572D01*
X245425Y119430D01*
X245442Y119288D01*
X245464Y119146D01*
X245489Y119005D01*
X245519Y118865D01*
X245552Y118726D01*
X245589Y118588D01*
X245630Y118451D01*
X245674Y118315D01*
X245723Y118180D01*
X245775Y118047D01*
X245830Y117915D01*
X245890Y117785D01*
X245953Y117656D01*
X246019Y117529D01*
X246089Y117405D01*
X246162Y117282D01*
X246239Y117161D01*
X246319Y117042D01*
X246402Y116926D01*
X246488Y116811D01*
X246577Y116700D01*
X246670Y116590D01*
X246765Y116484D01*
X246864Y116380D01*
X246965Y116279D01*
X247069Y116180D01*
X247175Y116085D01*
X247285Y115992D01*
X247396Y115903D01*
X247511Y115817D01*
X247627Y115734D01*
X247746Y115654D01*
X247867Y115577D01*
X247989Y115504D01*
X248114Y115434D01*
X248241Y115368D01*
X248370Y115305D01*
X248500Y115245D01*
X248632Y115190D01*
X248765Y115138D01*
X248900Y115089D01*
X249036Y115045D01*
X249173Y115004D01*
X249311Y114967D01*
X249450Y114934D01*
X249590Y114904D01*
X249731Y114879D01*
X249873Y114857D01*
X250015Y114840D01*
X250157Y114826D01*
X250300Y114816D01*
X250443Y114810D01*
X250586Y114808D01*
X240454Y120650D02*
X240451Y120880D01*
X240443Y121110D01*
X240429Y121339D01*
X240410Y121568D01*
X240385Y121797D01*
X240355Y122025D01*
X240320Y122252D01*
X240279Y122478D01*
X240233Y122703D01*
X240181Y122927D01*
X240124Y123150D01*
X240062Y123371D01*
X239994Y123591D01*
X239921Y123809D01*
X239843Y124025D01*
X239760Y124239D01*
X239672Y124452D01*
X239579Y124662D01*
X239480Y124869D01*
X239447Y124959D01*
X239411Y125048D01*
X239371Y125136D01*
X239327Y125221D01*
X239280Y125305D01*
X239230Y125387D01*
X239176Y125467D01*
X239120Y125544D01*
X239060Y125620D01*
X238997Y125693D01*
X238932Y125763D01*
X238863Y125831D01*
X238792Y125895D01*
X238719Y125957D01*
X238643Y126016D01*
X238565Y126072D01*
X238484Y126125D01*
X238402Y126174D01*
X238318Y126220D01*
X238231Y126263D01*
X238144Y126302D01*
X238054Y126338D01*
X237964Y126370D01*
X237872Y126398D01*
X237779Y126423D01*
X237685Y126444D01*
X237591Y126461D01*
X237496Y126475D01*
X237400Y126484D01*
X237304Y126490D01*
X237208Y126492D01*
X237112Y126490D01*
X237016Y126484D01*
X236920Y126475D01*
X236825Y126461D01*
X236731Y126444D01*
X236637Y126423D01*
X236544Y126398D01*
X236452Y126370D01*
X236362Y126338D01*
X236272Y126302D01*
X236185Y126263D01*
X236098Y126220D01*
X236014Y126174D01*
X235932Y126125D01*
X235851Y126072D01*
X235773Y126016D01*
X235697Y125957D01*
X235624Y125895D01*
X235553Y125831D01*
X235484Y125763D01*
X235419Y125693D01*
X235356Y125620D01*
X235296Y125545D01*
X235240Y125467D01*
X235186Y125387D01*
X235136Y125305D01*
X235089Y125221D01*
X235046Y125136D01*
X235005Y125048D01*
X234969Y124959D01*
X234936Y124869D01*
X234937Y124869D02*
X234838Y124661D01*
X234745Y124451D01*
X234657Y124239D01*
X234574Y124025D01*
X234496Y123808D01*
X234423Y123590D01*
X234355Y123371D01*
X234293Y123149D01*
X234236Y122927D01*
X234184Y122703D01*
X234138Y122478D01*
X234097Y122252D01*
X234062Y122024D01*
X234032Y121797D01*
X234007Y121568D01*
X233988Y121339D01*
X233974Y121110D01*
X233966Y120880D01*
X233963Y120650D01*
X240454Y120650D02*
X240451Y120420D01*
X240443Y120190D01*
X240429Y119961D01*
X240410Y119732D01*
X240385Y119503D01*
X240355Y119275D01*
X240320Y119048D01*
X240279Y118822D01*
X240233Y118597D01*
X240181Y118373D01*
X240124Y118150D01*
X240062Y117929D01*
X239994Y117709D01*
X239921Y117491D01*
X239843Y117275D01*
X239760Y117061D01*
X239672Y116849D01*
X239579Y116638D01*
X239480Y116431D01*
X239447Y116341D01*
X239411Y116252D01*
X239370Y116164D01*
X239327Y116079D01*
X239280Y115995D01*
X239230Y115913D01*
X239176Y115833D01*
X239120Y115756D01*
X239060Y115680D01*
X238997Y115607D01*
X238932Y115537D01*
X238863Y115469D01*
X238792Y115405D01*
X238719Y115343D01*
X238643Y115284D01*
X238565Y115228D01*
X238484Y115175D01*
X238402Y115126D01*
X238318Y115080D01*
X238231Y115037D01*
X238144Y114998D01*
X238054Y114962D01*
X237964Y114930D01*
X237872Y114902D01*
X237779Y114877D01*
X237685Y114856D01*
X237591Y114839D01*
X237496Y114825D01*
X237400Y114816D01*
X237304Y114810D01*
X237208Y114808D01*
X234936Y116431D02*
X234837Y116638D01*
X234744Y116849D01*
X234656Y117061D01*
X234573Y117275D01*
X234495Y117491D01*
X234422Y117709D01*
X234354Y117929D01*
X234292Y118150D01*
X234235Y118373D01*
X234183Y118597D01*
X234137Y118822D01*
X234096Y119048D01*
X234061Y119275D01*
X234031Y119503D01*
X234006Y119732D01*
X233987Y119961D01*
X233973Y120190D01*
X233965Y120420D01*
X233962Y120650D01*
X234936Y116431D02*
X234969Y116341D01*
X235005Y116252D01*
X235046Y116164D01*
X235089Y116079D01*
X235136Y115995D01*
X235186Y115913D01*
X235240Y115833D01*
X235296Y115755D01*
X235356Y115680D01*
X235419Y115607D01*
X235484Y115537D01*
X235553Y115469D01*
X235624Y115405D01*
X235697Y115343D01*
X235773Y115284D01*
X235851Y115228D01*
X235932Y115175D01*
X236014Y115126D01*
X236098Y115080D01*
X236185Y115037D01*
X236272Y114998D01*
X236362Y114962D01*
X236452Y114930D01*
X236544Y114902D01*
X236637Y114877D01*
X236731Y114856D01*
X236825Y114839D01*
X236920Y114825D01*
X237016Y114816D01*
X237112Y114810D01*
X237208Y114808D01*
X239805Y117404D02*
X234612Y123896D01*
X225454Y126492D02*
X225347Y126490D01*
X225241Y126484D01*
X225135Y126474D01*
X225029Y126461D01*
X224923Y126443D01*
X224819Y126422D01*
X224715Y126397D01*
X224612Y126368D01*
X224511Y126336D01*
X224411Y126299D01*
X224312Y126259D01*
X224214Y126216D01*
X224118Y126169D01*
X224024Y126118D01*
X223932Y126064D01*
X223842Y126007D01*
X223754Y125947D01*
X223669Y125883D01*
X223586Y125816D01*
X223505Y125746D01*
X223427Y125674D01*
X223351Y125598D01*
X223279Y125520D01*
X223209Y125439D01*
X223142Y125356D01*
X223078Y125271D01*
X223018Y125183D01*
X222961Y125093D01*
X222907Y125001D01*
X222856Y124907D01*
X222809Y124811D01*
X222766Y124713D01*
X222726Y124614D01*
X222689Y124514D01*
X222657Y124413D01*
X222628Y124310D01*
X222603Y124206D01*
X222582Y124102D01*
X222564Y123996D01*
X222551Y123890D01*
X222541Y123784D01*
X222535Y123678D01*
X222533Y123571D01*
X225454Y126492D02*
X225575Y126490D01*
X225696Y126484D01*
X225816Y126474D01*
X225937Y126461D01*
X226056Y126443D01*
X226176Y126422D01*
X226294Y126397D01*
X226411Y126368D01*
X226528Y126335D01*
X226643Y126299D01*
X226757Y126258D01*
X226870Y126215D01*
X226982Y126167D01*
X227091Y126116D01*
X227199Y126061D01*
X227306Y126003D01*
X227410Y125942D01*
X227512Y125877D01*
X227612Y125809D01*
X227710Y125738D01*
X227806Y125664D01*
X227899Y125587D01*
X227989Y125506D01*
X228077Y125423D01*
X228162Y125337D01*
X228245Y125248D01*
X228324Y125157D01*
X228401Y125063D01*
X228474Y124967D01*
X228544Y124869D01*
X228611Y124768D01*
X228675Y124665D01*
X228736Y124560D01*
X228793Y124453D01*
X228846Y124345D01*
X228896Y124235D01*
X228942Y124123D01*
X228985Y124010D01*
X229024Y123895D01*
X223507Y121299D02*
X223428Y121377D01*
X223352Y121457D01*
X223279Y121540D01*
X223209Y121626D01*
X223142Y121713D01*
X223078Y121804D01*
X223018Y121896D01*
X222960Y121990D01*
X222906Y122087D01*
X222856Y122185D01*
X222809Y122285D01*
X222765Y122386D01*
X222725Y122489D01*
X222689Y122594D01*
X222657Y122699D01*
X222628Y122806D01*
X222603Y122913D01*
X222581Y123022D01*
X222564Y123131D01*
X222550Y123240D01*
X222541Y123350D01*
X222535Y123461D01*
X222533Y123571D01*
X223506Y121299D02*
X229024Y114808D01*
X222533Y114808D01*
X217594Y120650D02*
X217591Y120880D01*
X217583Y121110D01*
X217569Y121339D01*
X217550Y121568D01*
X217525Y121797D01*
X217495Y122025D01*
X217460Y122252D01*
X217419Y122478D01*
X217373Y122703D01*
X217321Y122927D01*
X217264Y123150D01*
X217202Y123371D01*
X217134Y123591D01*
X217061Y123809D01*
X216983Y124025D01*
X216900Y124239D01*
X216812Y124452D01*
X216719Y124662D01*
X216620Y124869D01*
X216587Y124959D01*
X216551Y125048D01*
X216511Y125136D01*
X216467Y125221D01*
X216420Y125305D01*
X216370Y125387D01*
X216316Y125467D01*
X216260Y125544D01*
X216200Y125620D01*
X216137Y125693D01*
X216072Y125763D01*
X216003Y125831D01*
X215932Y125895D01*
X215859Y125957D01*
X215783Y126016D01*
X215705Y126072D01*
X215624Y126125D01*
X215542Y126174D01*
X215458Y126220D01*
X215371Y126263D01*
X215284Y126302D01*
X215194Y126338D01*
X215104Y126370D01*
X215012Y126398D01*
X214919Y126423D01*
X214825Y126444D01*
X214731Y126461D01*
X214636Y126475D01*
X214540Y126484D01*
X214444Y126490D01*
X214348Y126492D01*
X214252Y126490D01*
X214156Y126484D01*
X214060Y126475D01*
X213965Y126461D01*
X213871Y126444D01*
X213777Y126423D01*
X213684Y126398D01*
X213592Y126370D01*
X213502Y126338D01*
X213412Y126302D01*
X213325Y126263D01*
X213238Y126220D01*
X213154Y126174D01*
X213072Y126125D01*
X212991Y126072D01*
X212913Y126016D01*
X212837Y125957D01*
X212764Y125895D01*
X212693Y125831D01*
X212624Y125763D01*
X212559Y125693D01*
X212496Y125620D01*
X212436Y125545D01*
X212380Y125467D01*
X212326Y125387D01*
X212276Y125305D01*
X212229Y125221D01*
X212186Y125136D01*
X212145Y125048D01*
X212109Y124959D01*
X212076Y124869D01*
X212077Y124869D02*
X211978Y124661D01*
X211885Y124451D01*
X211797Y124239D01*
X211714Y124025D01*
X211636Y123808D01*
X211563Y123590D01*
X211495Y123371D01*
X211433Y123149D01*
X211376Y122927D01*
X211324Y122703D01*
X211278Y122478D01*
X211237Y122252D01*
X211202Y122024D01*
X211172Y121797D01*
X211147Y121568D01*
X211128Y121339D01*
X211114Y121110D01*
X211106Y120880D01*
X211103Y120650D01*
X217594Y120650D02*
X217591Y120420D01*
X217583Y120190D01*
X217569Y119961D01*
X217550Y119732D01*
X217525Y119503D01*
X217495Y119275D01*
X217460Y119048D01*
X217419Y118822D01*
X217373Y118597D01*
X217321Y118373D01*
X217264Y118150D01*
X217202Y117929D01*
X217134Y117709D01*
X217061Y117491D01*
X216983Y117275D01*
X216900Y117061D01*
X216812Y116849D01*
X216719Y116638D01*
X216620Y116431D01*
X216587Y116341D01*
X216551Y116252D01*
X216510Y116164D01*
X216467Y116079D01*
X216420Y115995D01*
X216370Y115913D01*
X216316Y115833D01*
X216260Y115756D01*
X216200Y115680D01*
X216137Y115607D01*
X216072Y115537D01*
X216003Y115469D01*
X215932Y115405D01*
X215859Y115343D01*
X215783Y115284D01*
X215705Y115228D01*
X215624Y115175D01*
X215542Y115126D01*
X215458Y115080D01*
X215371Y115037D01*
X215284Y114998D01*
X215194Y114962D01*
X215104Y114930D01*
X215012Y114902D01*
X214919Y114877D01*
X214825Y114856D01*
X214731Y114839D01*
X214636Y114825D01*
X214540Y114816D01*
X214444Y114810D01*
X214348Y114808D01*
X212076Y116431D02*
X211977Y116638D01*
X211884Y116849D01*
X211796Y117061D01*
X211713Y117275D01*
X211635Y117491D01*
X211562Y117709D01*
X211494Y117929D01*
X211432Y118150D01*
X211375Y118373D01*
X211323Y118597D01*
X211277Y118822D01*
X211236Y119048D01*
X211201Y119275D01*
X211171Y119503D01*
X211146Y119732D01*
X211127Y119961D01*
X211113Y120190D01*
X211105Y120420D01*
X211102Y120650D01*
X212076Y116431D02*
X212109Y116341D01*
X212145Y116252D01*
X212186Y116164D01*
X212229Y116079D01*
X212276Y115995D01*
X212326Y115913D01*
X212380Y115833D01*
X212436Y115755D01*
X212496Y115680D01*
X212559Y115607D01*
X212624Y115537D01*
X212693Y115469D01*
X212764Y115405D01*
X212837Y115343D01*
X212913Y115284D01*
X212991Y115228D01*
X213072Y115175D01*
X213154Y115126D01*
X213238Y115080D01*
X213325Y115037D01*
X213412Y114998D01*
X213502Y114962D01*
X213592Y114930D01*
X213684Y114902D01*
X213777Y114877D01*
X213871Y114856D01*
X213965Y114839D01*
X214060Y114825D01*
X214156Y114816D01*
X214252Y114810D01*
X214348Y114808D01*
X216945Y117404D02*
X211752Y123896D01*
X206164Y114808D02*
X202918Y114808D01*
X202805Y114810D01*
X202692Y114816D01*
X202579Y114826D01*
X202466Y114840D01*
X202354Y114857D01*
X202243Y114879D01*
X202133Y114904D01*
X202023Y114934D01*
X201915Y114967D01*
X201808Y115004D01*
X201702Y115044D01*
X201598Y115089D01*
X201495Y115137D01*
X201394Y115188D01*
X201295Y115243D01*
X201198Y115301D01*
X201103Y115363D01*
X201010Y115428D01*
X200920Y115496D01*
X200832Y115567D01*
X200746Y115642D01*
X200663Y115719D01*
X200583Y115799D01*
X200506Y115882D01*
X200431Y115968D01*
X200360Y116056D01*
X200292Y116146D01*
X200227Y116239D01*
X200165Y116334D01*
X200107Y116431D01*
X200052Y116530D01*
X200001Y116631D01*
X199953Y116734D01*
X199908Y116838D01*
X199868Y116944D01*
X199831Y117051D01*
X199798Y117159D01*
X199768Y117269D01*
X199743Y117379D01*
X199721Y117490D01*
X199704Y117602D01*
X199690Y117715D01*
X199680Y117828D01*
X199674Y117941D01*
X199672Y118054D01*
X199674Y118167D01*
X199680Y118280D01*
X199690Y118393D01*
X199704Y118506D01*
X199721Y118618D01*
X199743Y118729D01*
X199768Y118839D01*
X199798Y118949D01*
X199831Y119057D01*
X199868Y119164D01*
X199908Y119270D01*
X199953Y119374D01*
X200001Y119477D01*
X200052Y119578D01*
X200107Y119677D01*
X200165Y119774D01*
X200227Y119869D01*
X200292Y119962D01*
X200360Y120052D01*
X200431Y120140D01*
X200506Y120226D01*
X200583Y120309D01*
X200663Y120389D01*
X200746Y120466D01*
X200832Y120541D01*
X200920Y120612D01*
X201010Y120680D01*
X201103Y120745D01*
X201198Y120807D01*
X201295Y120865D01*
X201394Y120920D01*
X201495Y120971D01*
X201598Y121019D01*
X201702Y121064D01*
X201808Y121104D01*
X201915Y121141D01*
X202023Y121174D01*
X202133Y121204D01*
X202243Y121229D01*
X202354Y121251D01*
X202466Y121268D01*
X202579Y121282D01*
X202692Y121292D01*
X202805Y121298D01*
X202918Y121300D01*
X202269Y126492D02*
X206164Y126492D01*
X202269Y126492D02*
X202168Y126490D01*
X202068Y126484D01*
X201968Y126474D01*
X201868Y126461D01*
X201769Y126443D01*
X201670Y126422D01*
X201573Y126397D01*
X201476Y126368D01*
X201381Y126335D01*
X201287Y126299D01*
X201195Y126259D01*
X201104Y126216D01*
X201015Y126169D01*
X200928Y126119D01*
X200842Y126065D01*
X200759Y126008D01*
X200679Y125948D01*
X200600Y125885D01*
X200524Y125818D01*
X200451Y125749D01*
X200381Y125677D01*
X200313Y125603D01*
X200248Y125526D01*
X200187Y125446D01*
X200128Y125364D01*
X200073Y125280D01*
X200021Y125194D01*
X199972Y125106D01*
X199927Y125016D01*
X199885Y124924D01*
X199847Y124831D01*
X199813Y124736D01*
X199782Y124641D01*
X199755Y124544D01*
X199732Y124446D01*
X199712Y124347D01*
X199697Y124247D01*
X199685Y124147D01*
X199677Y124047D01*
X199673Y123946D01*
X199673Y123846D01*
X199677Y123745D01*
X199685Y123645D01*
X199697Y123545D01*
X199712Y123445D01*
X199732Y123346D01*
X199755Y123248D01*
X199782Y123151D01*
X199813Y123056D01*
X199847Y122961D01*
X199885Y122868D01*
X199927Y122776D01*
X199972Y122686D01*
X200021Y122598D01*
X200073Y122512D01*
X200128Y122428D01*
X200187Y122346D01*
X200248Y122266D01*
X200313Y122189D01*
X200381Y122115D01*
X200451Y122043D01*
X200524Y121974D01*
X200600Y121907D01*
X200679Y121844D01*
X200759Y121784D01*
X200842Y121727D01*
X200928Y121673D01*
X201015Y121623D01*
X201104Y121576D01*
X201195Y121533D01*
X201287Y121493D01*
X201381Y121457D01*
X201476Y121424D01*
X201573Y121395D01*
X201670Y121370D01*
X201769Y121349D01*
X201868Y121331D01*
X201968Y121318D01*
X202068Y121308D01*
X202168Y121302D01*
X202269Y121300D01*
X202269Y121299D02*
X204866Y121299D01*
D11*
X288445Y478086D02*
X288445Y479313D01*
X284353Y479313D01*
X284353Y476858D01*
X284355Y476780D01*
X284360Y476702D01*
X284370Y476625D01*
X284383Y476548D01*
X284399Y476472D01*
X284419Y476397D01*
X284443Y476323D01*
X284470Y476250D01*
X284501Y476178D01*
X284535Y476108D01*
X284572Y476040D01*
X284613Y475973D01*
X284657Y475908D01*
X284703Y475846D01*
X284753Y475786D01*
X284805Y475728D01*
X284860Y475673D01*
X284918Y475621D01*
X284978Y475571D01*
X285040Y475525D01*
X285105Y475481D01*
X285172Y475440D01*
X285240Y475403D01*
X285310Y475369D01*
X285382Y475338D01*
X285455Y475311D01*
X285529Y475287D01*
X285604Y475267D01*
X285680Y475251D01*
X285757Y475238D01*
X285834Y475228D01*
X285912Y475223D01*
X285990Y475221D01*
X290082Y475221D01*
X290160Y475223D01*
X290238Y475228D01*
X290315Y475238D01*
X290392Y475251D01*
X290468Y475267D01*
X290543Y475287D01*
X290617Y475311D01*
X290690Y475338D01*
X290762Y475369D01*
X290832Y475403D01*
X290901Y475440D01*
X290967Y475481D01*
X291032Y475525D01*
X291094Y475571D01*
X291154Y475621D01*
X291212Y475673D01*
X291267Y475728D01*
X291319Y475786D01*
X291369Y475846D01*
X291415Y475908D01*
X291459Y475973D01*
X291500Y476040D01*
X291537Y476108D01*
X291571Y476178D01*
X291602Y476250D01*
X291629Y476323D01*
X291653Y476397D01*
X291673Y476472D01*
X291689Y476548D01*
X291702Y476625D01*
X291712Y476702D01*
X291717Y476780D01*
X291719Y476858D01*
X291719Y479313D01*
X291719Y483024D02*
X284353Y483024D01*
X284353Y487116D02*
X291719Y483024D01*
X291719Y487116D02*
X284353Y487116D01*
X284353Y490827D02*
X291719Y490827D01*
X291719Y492873D01*
X291717Y492962D01*
X291711Y493051D01*
X291701Y493140D01*
X291688Y493228D01*
X291671Y493316D01*
X291649Y493403D01*
X291624Y493488D01*
X291596Y493573D01*
X291563Y493656D01*
X291527Y493738D01*
X291488Y493818D01*
X291445Y493896D01*
X291399Y493972D01*
X291349Y494047D01*
X291296Y494119D01*
X291240Y494188D01*
X291181Y494255D01*
X291120Y494320D01*
X291055Y494381D01*
X290988Y494440D01*
X290919Y494496D01*
X290847Y494549D01*
X290772Y494599D01*
X290696Y494645D01*
X290618Y494688D01*
X290538Y494727D01*
X290456Y494763D01*
X290373Y494796D01*
X290288Y494824D01*
X290203Y494849D01*
X290116Y494871D01*
X290028Y494888D01*
X289940Y494901D01*
X289851Y494911D01*
X289762Y494917D01*
X289673Y494919D01*
X286399Y494919D01*
X286310Y494917D01*
X286221Y494911D01*
X286132Y494901D01*
X286044Y494888D01*
X285956Y494871D01*
X285869Y494849D01*
X285784Y494824D01*
X285699Y494796D01*
X285616Y494763D01*
X285534Y494727D01*
X285454Y494688D01*
X285376Y494645D01*
X285300Y494599D01*
X285225Y494549D01*
X285153Y494496D01*
X285084Y494440D01*
X285017Y494381D01*
X284952Y494320D01*
X284891Y494255D01*
X284832Y494188D01*
X284776Y494119D01*
X284723Y494047D01*
X284673Y493972D01*
X284627Y493896D01*
X284584Y493818D01*
X284545Y493738D01*
X284509Y493656D01*
X284476Y493573D01*
X284448Y493488D01*
X284423Y493403D01*
X284401Y493316D01*
X284384Y493228D01*
X284371Y493140D01*
X284361Y493051D01*
X284355Y492962D01*
X284353Y492873D01*
X284353Y490827D01*
X326545Y479313D02*
X326545Y478086D01*
X326545Y479313D02*
X322453Y479313D01*
X322453Y476858D01*
X322455Y476780D01*
X322460Y476702D01*
X322470Y476625D01*
X322483Y476548D01*
X322499Y476472D01*
X322519Y476397D01*
X322543Y476323D01*
X322570Y476250D01*
X322601Y476178D01*
X322635Y476108D01*
X322672Y476040D01*
X322713Y475973D01*
X322757Y475908D01*
X322803Y475846D01*
X322853Y475786D01*
X322905Y475728D01*
X322960Y475673D01*
X323018Y475621D01*
X323078Y475571D01*
X323140Y475525D01*
X323205Y475481D01*
X323272Y475440D01*
X323340Y475403D01*
X323410Y475369D01*
X323482Y475338D01*
X323555Y475311D01*
X323629Y475287D01*
X323704Y475267D01*
X323780Y475251D01*
X323857Y475238D01*
X323934Y475228D01*
X324012Y475223D01*
X324090Y475221D01*
X328182Y475221D01*
X328260Y475223D01*
X328338Y475228D01*
X328415Y475238D01*
X328492Y475251D01*
X328568Y475267D01*
X328643Y475287D01*
X328717Y475311D01*
X328790Y475338D01*
X328862Y475369D01*
X328932Y475403D01*
X329001Y475440D01*
X329067Y475481D01*
X329132Y475525D01*
X329194Y475571D01*
X329254Y475621D01*
X329312Y475673D01*
X329367Y475728D01*
X329419Y475786D01*
X329469Y475846D01*
X329515Y475908D01*
X329559Y475973D01*
X329600Y476040D01*
X329637Y476108D01*
X329671Y476178D01*
X329702Y476250D01*
X329729Y476323D01*
X329753Y476397D01*
X329773Y476472D01*
X329789Y476548D01*
X329802Y476625D01*
X329812Y476702D01*
X329817Y476780D01*
X329819Y476858D01*
X329819Y479313D01*
X329819Y483024D02*
X322453Y483024D01*
X322453Y487116D02*
X329819Y483024D01*
X329819Y487116D02*
X322453Y487116D01*
X322453Y490827D02*
X329819Y490827D01*
X329819Y492873D01*
X329817Y492962D01*
X329811Y493051D01*
X329801Y493140D01*
X329788Y493228D01*
X329771Y493316D01*
X329749Y493403D01*
X329724Y493488D01*
X329696Y493573D01*
X329663Y493656D01*
X329627Y493738D01*
X329588Y493818D01*
X329545Y493896D01*
X329499Y493972D01*
X329449Y494047D01*
X329396Y494119D01*
X329340Y494188D01*
X329281Y494255D01*
X329220Y494320D01*
X329155Y494381D01*
X329088Y494440D01*
X329019Y494496D01*
X328947Y494549D01*
X328872Y494599D01*
X328796Y494645D01*
X328718Y494688D01*
X328638Y494727D01*
X328556Y494763D01*
X328473Y494796D01*
X328388Y494824D01*
X328303Y494849D01*
X328216Y494871D01*
X328128Y494888D01*
X328040Y494901D01*
X327951Y494911D01*
X327862Y494917D01*
X327773Y494919D01*
X324499Y494919D01*
X324410Y494917D01*
X324321Y494911D01*
X324232Y494901D01*
X324144Y494888D01*
X324056Y494871D01*
X323969Y494849D01*
X323884Y494824D01*
X323799Y494796D01*
X323716Y494763D01*
X323634Y494727D01*
X323554Y494688D01*
X323476Y494645D01*
X323400Y494599D01*
X323325Y494549D01*
X323253Y494496D01*
X323184Y494440D01*
X323117Y494381D01*
X323052Y494320D01*
X322991Y494255D01*
X322932Y494188D01*
X322876Y494119D01*
X322823Y494047D01*
X322773Y493972D01*
X322727Y493896D01*
X322684Y493818D01*
X322645Y493738D01*
X322609Y493656D01*
X322576Y493573D01*
X322548Y493488D01*
X322523Y493403D01*
X322501Y493316D01*
X322484Y493228D01*
X322471Y493140D01*
X322461Y493051D01*
X322455Y492962D01*
X322453Y492873D01*
X322453Y490827D01*
X246253Y479706D02*
X246253Y477659D01*
X246253Y479706D02*
X246255Y479795D01*
X246261Y479884D01*
X246271Y479973D01*
X246284Y480061D01*
X246301Y480149D01*
X246323Y480236D01*
X246348Y480321D01*
X246376Y480406D01*
X246409Y480489D01*
X246445Y480571D01*
X246484Y480651D01*
X246527Y480729D01*
X246573Y480805D01*
X246623Y480880D01*
X246676Y480952D01*
X246732Y481021D01*
X246791Y481088D01*
X246852Y481153D01*
X246917Y481214D01*
X246984Y481273D01*
X247053Y481329D01*
X247125Y481382D01*
X247200Y481432D01*
X247276Y481478D01*
X247354Y481521D01*
X247434Y481560D01*
X247516Y481596D01*
X247599Y481629D01*
X247684Y481657D01*
X247769Y481682D01*
X247856Y481704D01*
X247944Y481721D01*
X248032Y481734D01*
X248121Y481744D01*
X248210Y481750D01*
X248299Y481752D01*
X248388Y481750D01*
X248477Y481744D01*
X248566Y481734D01*
X248654Y481721D01*
X248742Y481704D01*
X248829Y481682D01*
X248914Y481657D01*
X248999Y481629D01*
X249082Y481596D01*
X249164Y481560D01*
X249244Y481521D01*
X249322Y481478D01*
X249398Y481432D01*
X249473Y481382D01*
X249545Y481329D01*
X249614Y481273D01*
X249681Y481214D01*
X249746Y481153D01*
X249807Y481088D01*
X249866Y481021D01*
X249922Y480952D01*
X249975Y480880D01*
X250025Y480805D01*
X250071Y480729D01*
X250114Y480651D01*
X250153Y480571D01*
X250189Y480489D01*
X250222Y480406D01*
X250250Y480321D01*
X250275Y480236D01*
X250297Y480149D01*
X250314Y480061D01*
X250327Y479973D01*
X250337Y479884D01*
X250343Y479795D01*
X250345Y479706D01*
X253619Y480115D02*
X253619Y477659D01*
X253619Y480115D02*
X253617Y480194D01*
X253611Y480273D01*
X253602Y480352D01*
X253589Y480430D01*
X253571Y480507D01*
X253551Y480583D01*
X253526Y480658D01*
X253498Y480732D01*
X253467Y480805D01*
X253431Y480876D01*
X253393Y480945D01*
X253351Y481012D01*
X253306Y481077D01*
X253258Y481140D01*
X253207Y481201D01*
X253153Y481258D01*
X253097Y481314D01*
X253038Y481366D01*
X252976Y481416D01*
X252912Y481462D01*
X252846Y481506D01*
X252778Y481546D01*
X252708Y481582D01*
X252636Y481616D01*
X252562Y481646D01*
X252488Y481672D01*
X252412Y481695D01*
X252335Y481713D01*
X252258Y481729D01*
X252179Y481740D01*
X252101Y481748D01*
X252022Y481752D01*
X251942Y481752D01*
X251863Y481748D01*
X251785Y481740D01*
X251706Y481729D01*
X251629Y481713D01*
X251552Y481695D01*
X251476Y481672D01*
X251402Y481646D01*
X251328Y481616D01*
X251256Y481582D01*
X251186Y481546D01*
X251118Y481506D01*
X251052Y481462D01*
X250988Y481416D01*
X250926Y481366D01*
X250867Y481314D01*
X250811Y481258D01*
X250757Y481201D01*
X250706Y481140D01*
X250658Y481077D01*
X250613Y481012D01*
X250571Y480945D01*
X250533Y480876D01*
X250497Y480805D01*
X250466Y480732D01*
X250438Y480658D01*
X250413Y480583D01*
X250393Y480507D01*
X250375Y480430D01*
X250362Y480352D01*
X250353Y480273D01*
X250347Y480194D01*
X250345Y480115D01*
X250345Y478478D01*
X251164Y484652D02*
X246253Y486289D01*
X251164Y487926D01*
X246253Y490827D02*
X246253Y492873D01*
X246255Y492962D01*
X246261Y493051D01*
X246271Y493140D01*
X246284Y493228D01*
X246301Y493316D01*
X246323Y493403D01*
X246348Y493488D01*
X246376Y493573D01*
X246409Y493656D01*
X246445Y493738D01*
X246484Y493818D01*
X246527Y493896D01*
X246573Y493972D01*
X246623Y494047D01*
X246676Y494119D01*
X246732Y494188D01*
X246791Y494255D01*
X246852Y494320D01*
X246917Y494381D01*
X246984Y494440D01*
X247053Y494496D01*
X247125Y494549D01*
X247200Y494599D01*
X247276Y494645D01*
X247354Y494688D01*
X247434Y494727D01*
X247516Y494763D01*
X247599Y494796D01*
X247684Y494824D01*
X247769Y494849D01*
X247856Y494871D01*
X247944Y494888D01*
X248032Y494901D01*
X248121Y494911D01*
X248210Y494917D01*
X248299Y494919D01*
X248388Y494917D01*
X248477Y494911D01*
X248566Y494901D01*
X248654Y494888D01*
X248742Y494871D01*
X248829Y494849D01*
X248914Y494824D01*
X248999Y494796D01*
X249082Y494763D01*
X249164Y494727D01*
X249244Y494688D01*
X249322Y494645D01*
X249398Y494599D01*
X249473Y494549D01*
X249545Y494496D01*
X249614Y494440D01*
X249681Y494381D01*
X249746Y494320D01*
X249807Y494255D01*
X249866Y494188D01*
X249922Y494119D01*
X249975Y494047D01*
X250025Y493972D01*
X250071Y493896D01*
X250114Y493818D01*
X250153Y493738D01*
X250189Y493656D01*
X250222Y493573D01*
X250250Y493488D01*
X250275Y493403D01*
X250297Y493316D01*
X250314Y493228D01*
X250327Y493140D01*
X250337Y493051D01*
X250343Y492962D01*
X250345Y492873D01*
X253619Y493282D02*
X253619Y490827D01*
X253619Y493282D02*
X253617Y493361D01*
X253611Y493440D01*
X253602Y493519D01*
X253589Y493597D01*
X253571Y493674D01*
X253551Y493750D01*
X253526Y493825D01*
X253498Y493899D01*
X253467Y493972D01*
X253431Y494043D01*
X253393Y494112D01*
X253351Y494179D01*
X253306Y494244D01*
X253258Y494307D01*
X253207Y494368D01*
X253153Y494425D01*
X253097Y494481D01*
X253038Y494533D01*
X252976Y494583D01*
X252912Y494629D01*
X252846Y494673D01*
X252778Y494713D01*
X252708Y494749D01*
X252636Y494783D01*
X252562Y494813D01*
X252488Y494839D01*
X252412Y494862D01*
X252335Y494880D01*
X252258Y494896D01*
X252179Y494907D01*
X252101Y494915D01*
X252022Y494919D01*
X251942Y494919D01*
X251863Y494915D01*
X251785Y494907D01*
X251706Y494896D01*
X251629Y494880D01*
X251552Y494862D01*
X251476Y494839D01*
X251402Y494813D01*
X251328Y494783D01*
X251256Y494749D01*
X251186Y494713D01*
X251118Y494673D01*
X251052Y494629D01*
X250988Y494583D01*
X250926Y494533D01*
X250867Y494481D01*
X250811Y494425D01*
X250757Y494368D01*
X250706Y494307D01*
X250658Y494244D01*
X250613Y494179D01*
X250571Y494112D01*
X250533Y494043D01*
X250497Y493972D01*
X250466Y493899D01*
X250438Y493825D01*
X250413Y493750D01*
X250393Y493674D01*
X250375Y493597D01*
X250362Y493519D01*
X250353Y493440D01*
X250347Y493361D01*
X250345Y493282D01*
X250345Y491645D01*
X360553Y479706D02*
X360553Y477659D01*
X360553Y479706D02*
X360555Y479795D01*
X360561Y479884D01*
X360571Y479973D01*
X360584Y480061D01*
X360601Y480149D01*
X360623Y480236D01*
X360648Y480321D01*
X360676Y480406D01*
X360709Y480489D01*
X360745Y480571D01*
X360784Y480651D01*
X360827Y480729D01*
X360873Y480805D01*
X360923Y480880D01*
X360976Y480952D01*
X361032Y481021D01*
X361091Y481088D01*
X361152Y481153D01*
X361217Y481214D01*
X361284Y481273D01*
X361353Y481329D01*
X361425Y481382D01*
X361500Y481432D01*
X361576Y481478D01*
X361654Y481521D01*
X361734Y481560D01*
X361816Y481596D01*
X361899Y481629D01*
X361984Y481657D01*
X362069Y481682D01*
X362156Y481704D01*
X362244Y481721D01*
X362332Y481734D01*
X362421Y481744D01*
X362510Y481750D01*
X362599Y481752D01*
X362688Y481750D01*
X362777Y481744D01*
X362866Y481734D01*
X362954Y481721D01*
X363042Y481704D01*
X363129Y481682D01*
X363214Y481657D01*
X363299Y481629D01*
X363382Y481596D01*
X363464Y481560D01*
X363544Y481521D01*
X363622Y481478D01*
X363698Y481432D01*
X363773Y481382D01*
X363845Y481329D01*
X363914Y481273D01*
X363981Y481214D01*
X364046Y481153D01*
X364107Y481088D01*
X364166Y481021D01*
X364222Y480952D01*
X364275Y480880D01*
X364325Y480805D01*
X364371Y480729D01*
X364414Y480651D01*
X364453Y480571D01*
X364489Y480489D01*
X364522Y480406D01*
X364550Y480321D01*
X364575Y480236D01*
X364597Y480149D01*
X364614Y480061D01*
X364627Y479973D01*
X364637Y479884D01*
X364643Y479795D01*
X364645Y479706D01*
X367919Y480115D02*
X367919Y477659D01*
X367919Y480115D02*
X367917Y480194D01*
X367911Y480273D01*
X367902Y480352D01*
X367889Y480430D01*
X367871Y480507D01*
X367851Y480583D01*
X367826Y480658D01*
X367798Y480732D01*
X367767Y480805D01*
X367731Y480876D01*
X367693Y480945D01*
X367651Y481012D01*
X367606Y481077D01*
X367558Y481140D01*
X367507Y481201D01*
X367453Y481258D01*
X367397Y481314D01*
X367338Y481366D01*
X367276Y481416D01*
X367212Y481462D01*
X367146Y481506D01*
X367078Y481546D01*
X367008Y481582D01*
X366936Y481616D01*
X366862Y481646D01*
X366788Y481672D01*
X366712Y481695D01*
X366635Y481713D01*
X366558Y481729D01*
X366479Y481740D01*
X366401Y481748D01*
X366322Y481752D01*
X366242Y481752D01*
X366163Y481748D01*
X366085Y481740D01*
X366006Y481729D01*
X365929Y481713D01*
X365852Y481695D01*
X365776Y481672D01*
X365702Y481646D01*
X365628Y481616D01*
X365556Y481582D01*
X365486Y481546D01*
X365418Y481506D01*
X365352Y481462D01*
X365288Y481416D01*
X365226Y481366D01*
X365167Y481314D01*
X365111Y481258D01*
X365057Y481201D01*
X365006Y481140D01*
X364958Y481077D01*
X364913Y481012D01*
X364871Y480945D01*
X364833Y480876D01*
X364797Y480805D01*
X364766Y480732D01*
X364738Y480658D01*
X364713Y480583D01*
X364693Y480507D01*
X364675Y480430D01*
X364662Y480352D01*
X364653Y480273D01*
X364647Y480194D01*
X364645Y480115D01*
X364645Y478478D01*
X365464Y484652D02*
X360553Y486289D01*
X365464Y487926D01*
X360553Y490827D02*
X360553Y492873D01*
X360555Y492962D01*
X360561Y493051D01*
X360571Y493140D01*
X360584Y493228D01*
X360601Y493316D01*
X360623Y493403D01*
X360648Y493488D01*
X360676Y493573D01*
X360709Y493656D01*
X360745Y493738D01*
X360784Y493818D01*
X360827Y493896D01*
X360873Y493972D01*
X360923Y494047D01*
X360976Y494119D01*
X361032Y494188D01*
X361091Y494255D01*
X361152Y494320D01*
X361217Y494381D01*
X361284Y494440D01*
X361353Y494496D01*
X361425Y494549D01*
X361500Y494599D01*
X361576Y494645D01*
X361654Y494688D01*
X361734Y494727D01*
X361816Y494763D01*
X361899Y494796D01*
X361984Y494824D01*
X362069Y494849D01*
X362156Y494871D01*
X362244Y494888D01*
X362332Y494901D01*
X362421Y494911D01*
X362510Y494917D01*
X362599Y494919D01*
X362688Y494917D01*
X362777Y494911D01*
X362866Y494901D01*
X362954Y494888D01*
X363042Y494871D01*
X363129Y494849D01*
X363214Y494824D01*
X363299Y494796D01*
X363382Y494763D01*
X363464Y494727D01*
X363544Y494688D01*
X363622Y494645D01*
X363698Y494599D01*
X363773Y494549D01*
X363845Y494496D01*
X363914Y494440D01*
X363981Y494381D01*
X364046Y494320D01*
X364107Y494255D01*
X364166Y494188D01*
X364222Y494119D01*
X364275Y494047D01*
X364325Y493972D01*
X364371Y493896D01*
X364414Y493818D01*
X364453Y493738D01*
X364489Y493656D01*
X364522Y493573D01*
X364550Y493488D01*
X364575Y493403D01*
X364597Y493316D01*
X364614Y493228D01*
X364627Y493140D01*
X364637Y493051D01*
X364643Y492962D01*
X364645Y492873D01*
X367919Y493282D02*
X367919Y490827D01*
X367919Y493282D02*
X367917Y493361D01*
X367911Y493440D01*
X367902Y493519D01*
X367889Y493597D01*
X367871Y493674D01*
X367851Y493750D01*
X367826Y493825D01*
X367798Y493899D01*
X367767Y493972D01*
X367731Y494043D01*
X367693Y494112D01*
X367651Y494179D01*
X367606Y494244D01*
X367558Y494307D01*
X367507Y494368D01*
X367453Y494425D01*
X367397Y494481D01*
X367338Y494533D01*
X367276Y494583D01*
X367212Y494629D01*
X367146Y494673D01*
X367078Y494713D01*
X367008Y494749D01*
X366936Y494783D01*
X366862Y494813D01*
X366788Y494839D01*
X366712Y494862D01*
X366635Y494880D01*
X366558Y494896D01*
X366479Y494907D01*
X366401Y494915D01*
X366322Y494919D01*
X366242Y494919D01*
X366163Y494915D01*
X366085Y494907D01*
X366006Y494896D01*
X365929Y494880D01*
X365852Y494862D01*
X365776Y494839D01*
X365702Y494813D01*
X365628Y494783D01*
X365556Y494749D01*
X365486Y494713D01*
X365418Y494673D01*
X365352Y494629D01*
X365288Y494583D01*
X365226Y494533D01*
X365167Y494481D01*
X365111Y494425D01*
X365057Y494368D01*
X365006Y494307D01*
X364958Y494244D01*
X364913Y494179D01*
X364871Y494112D01*
X364833Y494043D01*
X364797Y493972D01*
X364766Y493899D01*
X364738Y493825D01*
X364713Y493750D01*
X364693Y493674D01*
X364675Y493597D01*
X364662Y493519D01*
X364653Y493440D01*
X364647Y493361D01*
X364645Y493282D01*
X364645Y491645D01*
X436753Y480674D02*
X436755Y480752D01*
X436760Y480830D01*
X436770Y480907D01*
X436783Y480984D01*
X436799Y481060D01*
X436819Y481135D01*
X436843Y481209D01*
X436870Y481282D01*
X436901Y481354D01*
X436935Y481424D01*
X436972Y481493D01*
X437013Y481559D01*
X437057Y481624D01*
X437103Y481686D01*
X437153Y481746D01*
X437205Y481804D01*
X437260Y481859D01*
X437318Y481911D01*
X437378Y481961D01*
X437440Y482007D01*
X437505Y482051D01*
X437572Y482092D01*
X437640Y482129D01*
X437710Y482163D01*
X437782Y482194D01*
X437855Y482221D01*
X437929Y482245D01*
X438004Y482265D01*
X438080Y482281D01*
X438157Y482294D01*
X438234Y482304D01*
X438312Y482309D01*
X438390Y482311D01*
X436753Y480674D02*
X436755Y480560D01*
X436760Y480447D01*
X436770Y480333D01*
X436783Y480220D01*
X436800Y480108D01*
X436820Y479996D01*
X436844Y479885D01*
X436872Y479774D01*
X436903Y479665D01*
X436938Y479557D01*
X436977Y479450D01*
X437019Y479344D01*
X437064Y479240D01*
X437113Y479137D01*
X437166Y479036D01*
X437221Y478937D01*
X437280Y478839D01*
X437342Y478744D01*
X437407Y478651D01*
X437475Y478559D01*
X437546Y478471D01*
X437620Y478384D01*
X437697Y478300D01*
X437776Y478219D01*
X442482Y478423D02*
X442560Y478425D01*
X442638Y478430D01*
X442715Y478440D01*
X442792Y478453D01*
X442868Y478469D01*
X442943Y478489D01*
X443017Y478513D01*
X443090Y478540D01*
X443162Y478571D01*
X443232Y478605D01*
X443301Y478642D01*
X443367Y478683D01*
X443432Y478727D01*
X443494Y478773D01*
X443554Y478823D01*
X443612Y478875D01*
X443667Y478930D01*
X443719Y478988D01*
X443769Y479048D01*
X443815Y479110D01*
X443859Y479175D01*
X443900Y479242D01*
X443937Y479310D01*
X443971Y479380D01*
X444002Y479452D01*
X444029Y479525D01*
X444053Y479599D01*
X444073Y479674D01*
X444089Y479750D01*
X444102Y479827D01*
X444112Y479904D01*
X444117Y479982D01*
X444119Y480060D01*
X444117Y480170D01*
X444111Y480279D01*
X444101Y480389D01*
X444088Y480497D01*
X444070Y480606D01*
X444049Y480713D01*
X444023Y480820D01*
X443994Y480926D01*
X443962Y481031D01*
X443925Y481134D01*
X443885Y481236D01*
X443841Y481337D01*
X443793Y481436D01*
X443743Y481533D01*
X443688Y481628D01*
X443630Y481721D01*
X443569Y481812D01*
X443505Y481901D01*
X441049Y479241D02*
X441091Y479174D01*
X441135Y479109D01*
X441183Y479047D01*
X441233Y478987D01*
X441286Y478929D01*
X441342Y478874D01*
X441401Y478822D01*
X441461Y478772D01*
X441525Y478725D01*
X441590Y478682D01*
X441657Y478641D01*
X441726Y478604D01*
X441797Y478570D01*
X441869Y478539D01*
X441943Y478512D01*
X442017Y478488D01*
X442093Y478468D01*
X442170Y478452D01*
X442247Y478439D01*
X442325Y478429D01*
X442404Y478424D01*
X442482Y478422D01*
X439822Y481492D02*
X439780Y481558D01*
X439736Y481623D01*
X439689Y481685D01*
X439638Y481745D01*
X439585Y481803D01*
X439529Y481858D01*
X439471Y481911D01*
X439410Y481960D01*
X439347Y482007D01*
X439282Y482050D01*
X439215Y482091D01*
X439146Y482128D01*
X439075Y482162D01*
X439003Y482193D01*
X438929Y482220D01*
X438854Y482244D01*
X438779Y482264D01*
X438702Y482280D01*
X438625Y482293D01*
X438547Y482303D01*
X438468Y482308D01*
X438390Y482310D01*
X439822Y481492D02*
X441050Y479241D01*
X436753Y486904D02*
X436753Y488540D01*
X436753Y486904D02*
X436755Y486826D01*
X436760Y486748D01*
X436770Y486671D01*
X436783Y486594D01*
X436799Y486518D01*
X436819Y486443D01*
X436843Y486369D01*
X436870Y486296D01*
X436901Y486224D01*
X436935Y486154D01*
X436972Y486086D01*
X437013Y486019D01*
X437057Y485954D01*
X437103Y485892D01*
X437153Y485832D01*
X437205Y485774D01*
X437260Y485719D01*
X437318Y485667D01*
X437378Y485617D01*
X437440Y485571D01*
X437505Y485527D01*
X437572Y485486D01*
X437640Y485449D01*
X437710Y485415D01*
X437782Y485384D01*
X437855Y485357D01*
X437929Y485333D01*
X438004Y485313D01*
X438080Y485297D01*
X438157Y485284D01*
X438234Y485274D01*
X438312Y485269D01*
X438390Y485267D01*
X442482Y485267D01*
X442560Y485269D01*
X442638Y485274D01*
X442715Y485284D01*
X442792Y485297D01*
X442868Y485313D01*
X442943Y485333D01*
X443017Y485357D01*
X443090Y485384D01*
X443162Y485415D01*
X443232Y485449D01*
X443301Y485486D01*
X443367Y485527D01*
X443432Y485571D01*
X443494Y485617D01*
X443554Y485667D01*
X443612Y485719D01*
X443667Y485774D01*
X443719Y485832D01*
X443769Y485892D01*
X443815Y485954D01*
X443859Y486019D01*
X443900Y486086D01*
X443937Y486154D01*
X443971Y486224D01*
X444002Y486296D01*
X444029Y486369D01*
X444053Y486443D01*
X444073Y486518D01*
X444089Y486594D01*
X444102Y486671D01*
X444112Y486748D01*
X444117Y486826D01*
X444119Y486904D01*
X444119Y488540D01*
X444119Y491645D02*
X436753Y491645D01*
X436753Y494919D01*
X474853Y480674D02*
X474855Y480752D01*
X474860Y480830D01*
X474870Y480907D01*
X474883Y480984D01*
X474899Y481060D01*
X474919Y481135D01*
X474943Y481209D01*
X474970Y481282D01*
X475001Y481354D01*
X475035Y481424D01*
X475072Y481493D01*
X475113Y481559D01*
X475157Y481624D01*
X475203Y481686D01*
X475253Y481746D01*
X475305Y481804D01*
X475360Y481859D01*
X475418Y481911D01*
X475478Y481961D01*
X475540Y482007D01*
X475605Y482051D01*
X475672Y482092D01*
X475740Y482129D01*
X475810Y482163D01*
X475882Y482194D01*
X475955Y482221D01*
X476029Y482245D01*
X476104Y482265D01*
X476180Y482281D01*
X476257Y482294D01*
X476334Y482304D01*
X476412Y482309D01*
X476490Y482311D01*
X474853Y480674D02*
X474855Y480560D01*
X474860Y480447D01*
X474870Y480333D01*
X474883Y480220D01*
X474900Y480108D01*
X474920Y479996D01*
X474944Y479885D01*
X474972Y479774D01*
X475003Y479665D01*
X475038Y479557D01*
X475077Y479450D01*
X475119Y479344D01*
X475164Y479240D01*
X475213Y479137D01*
X475266Y479036D01*
X475321Y478937D01*
X475380Y478839D01*
X475442Y478744D01*
X475507Y478651D01*
X475575Y478559D01*
X475646Y478471D01*
X475720Y478384D01*
X475797Y478300D01*
X475876Y478219D01*
X480582Y478423D02*
X480660Y478425D01*
X480738Y478430D01*
X480815Y478440D01*
X480892Y478453D01*
X480968Y478469D01*
X481043Y478489D01*
X481117Y478513D01*
X481190Y478540D01*
X481262Y478571D01*
X481332Y478605D01*
X481401Y478642D01*
X481467Y478683D01*
X481532Y478727D01*
X481594Y478773D01*
X481654Y478823D01*
X481712Y478875D01*
X481767Y478930D01*
X481819Y478988D01*
X481869Y479048D01*
X481915Y479110D01*
X481959Y479175D01*
X482000Y479242D01*
X482037Y479310D01*
X482071Y479380D01*
X482102Y479452D01*
X482129Y479525D01*
X482153Y479599D01*
X482173Y479674D01*
X482189Y479750D01*
X482202Y479827D01*
X482212Y479904D01*
X482217Y479982D01*
X482219Y480060D01*
X482217Y480170D01*
X482211Y480279D01*
X482201Y480389D01*
X482188Y480497D01*
X482170Y480606D01*
X482149Y480713D01*
X482123Y480820D01*
X482094Y480926D01*
X482062Y481031D01*
X482025Y481134D01*
X481985Y481236D01*
X481941Y481337D01*
X481893Y481436D01*
X481843Y481533D01*
X481788Y481628D01*
X481730Y481721D01*
X481669Y481812D01*
X481605Y481901D01*
X479149Y479241D02*
X479191Y479174D01*
X479235Y479109D01*
X479283Y479047D01*
X479333Y478987D01*
X479386Y478929D01*
X479442Y478874D01*
X479501Y478822D01*
X479561Y478772D01*
X479625Y478725D01*
X479690Y478682D01*
X479757Y478641D01*
X479826Y478604D01*
X479897Y478570D01*
X479969Y478539D01*
X480043Y478512D01*
X480117Y478488D01*
X480193Y478468D01*
X480270Y478452D01*
X480347Y478439D01*
X480425Y478429D01*
X480504Y478424D01*
X480582Y478422D01*
X477922Y481492D02*
X477880Y481558D01*
X477836Y481623D01*
X477789Y481685D01*
X477738Y481745D01*
X477685Y481803D01*
X477629Y481858D01*
X477571Y481911D01*
X477510Y481960D01*
X477447Y482007D01*
X477382Y482050D01*
X477315Y482091D01*
X477246Y482128D01*
X477175Y482162D01*
X477103Y482193D01*
X477029Y482220D01*
X476954Y482244D01*
X476879Y482264D01*
X476802Y482280D01*
X476725Y482293D01*
X476647Y482303D01*
X476568Y482308D01*
X476490Y482310D01*
X477922Y481492D02*
X479150Y479241D01*
X474853Y486904D02*
X474853Y488540D01*
X474853Y486904D02*
X474855Y486826D01*
X474860Y486748D01*
X474870Y486671D01*
X474883Y486594D01*
X474899Y486518D01*
X474919Y486443D01*
X474943Y486369D01*
X474970Y486296D01*
X475001Y486224D01*
X475035Y486154D01*
X475072Y486086D01*
X475113Y486019D01*
X475157Y485954D01*
X475203Y485892D01*
X475253Y485832D01*
X475305Y485774D01*
X475360Y485719D01*
X475418Y485667D01*
X475478Y485617D01*
X475540Y485571D01*
X475605Y485527D01*
X475672Y485486D01*
X475740Y485449D01*
X475810Y485415D01*
X475882Y485384D01*
X475955Y485357D01*
X476029Y485333D01*
X476104Y485313D01*
X476180Y485297D01*
X476257Y485284D01*
X476334Y485274D01*
X476412Y485269D01*
X476490Y485267D01*
X480582Y485267D01*
X480660Y485269D01*
X480738Y485274D01*
X480815Y485284D01*
X480892Y485297D01*
X480968Y485313D01*
X481043Y485333D01*
X481117Y485357D01*
X481190Y485384D01*
X481262Y485415D01*
X481332Y485449D01*
X481401Y485486D01*
X481467Y485527D01*
X481532Y485571D01*
X481594Y485617D01*
X481654Y485667D01*
X481712Y485719D01*
X481767Y485774D01*
X481819Y485832D01*
X481869Y485892D01*
X481915Y485954D01*
X481959Y486019D01*
X482000Y486086D01*
X482037Y486154D01*
X482071Y486224D01*
X482102Y486296D01*
X482129Y486369D01*
X482153Y486443D01*
X482173Y486518D01*
X482189Y486594D01*
X482202Y486671D01*
X482212Y486748D01*
X482217Y486826D01*
X482219Y486904D01*
X482219Y488540D01*
X482219Y491645D02*
X474853Y491645D01*
X474853Y494919D01*
X400290Y479636D02*
X400212Y479634D01*
X400134Y479629D01*
X400057Y479619D01*
X399980Y479606D01*
X399904Y479590D01*
X399829Y479570D01*
X399755Y479546D01*
X399682Y479519D01*
X399610Y479488D01*
X399540Y479454D01*
X399472Y479417D01*
X399405Y479376D01*
X399340Y479332D01*
X399278Y479286D01*
X399218Y479236D01*
X399160Y479184D01*
X399105Y479129D01*
X399053Y479071D01*
X399003Y479011D01*
X398957Y478949D01*
X398913Y478884D01*
X398872Y478818D01*
X398835Y478749D01*
X398801Y478679D01*
X398770Y478607D01*
X398743Y478534D01*
X398719Y478460D01*
X398699Y478385D01*
X398683Y478309D01*
X398670Y478232D01*
X398660Y478155D01*
X398655Y478077D01*
X398653Y477999D01*
X398655Y477885D01*
X398660Y477772D01*
X398670Y477658D01*
X398683Y477545D01*
X398700Y477433D01*
X398720Y477321D01*
X398744Y477210D01*
X398772Y477099D01*
X398803Y476990D01*
X398838Y476882D01*
X398877Y476775D01*
X398919Y476669D01*
X398964Y476565D01*
X399013Y476462D01*
X399066Y476361D01*
X399121Y476262D01*
X399180Y476164D01*
X399242Y476069D01*
X399307Y475976D01*
X399375Y475884D01*
X399446Y475796D01*
X399520Y475709D01*
X399597Y475625D01*
X399676Y475544D01*
X404382Y475748D02*
X404460Y475750D01*
X404538Y475755D01*
X404615Y475765D01*
X404692Y475778D01*
X404768Y475794D01*
X404843Y475814D01*
X404917Y475838D01*
X404990Y475865D01*
X405062Y475896D01*
X405132Y475930D01*
X405201Y475967D01*
X405267Y476008D01*
X405332Y476052D01*
X405394Y476098D01*
X405454Y476148D01*
X405512Y476200D01*
X405567Y476255D01*
X405619Y476313D01*
X405669Y476373D01*
X405715Y476435D01*
X405759Y476500D01*
X405800Y476567D01*
X405837Y476635D01*
X405871Y476705D01*
X405902Y476777D01*
X405929Y476850D01*
X405953Y476924D01*
X405973Y476999D01*
X405989Y477075D01*
X406002Y477152D01*
X406012Y477229D01*
X406017Y477307D01*
X406019Y477385D01*
X406017Y477495D01*
X406011Y477604D01*
X406001Y477714D01*
X405988Y477822D01*
X405970Y477931D01*
X405949Y478038D01*
X405923Y478145D01*
X405894Y478251D01*
X405862Y478356D01*
X405825Y478459D01*
X405785Y478561D01*
X405741Y478662D01*
X405693Y478761D01*
X405643Y478858D01*
X405588Y478953D01*
X405530Y479046D01*
X405469Y479137D01*
X405405Y479226D01*
X402949Y476566D02*
X402991Y476499D01*
X403035Y476434D01*
X403083Y476372D01*
X403133Y476312D01*
X403186Y476254D01*
X403242Y476199D01*
X403301Y476147D01*
X403361Y476097D01*
X403425Y476050D01*
X403490Y476007D01*
X403557Y475966D01*
X403626Y475929D01*
X403697Y475895D01*
X403769Y475864D01*
X403843Y475837D01*
X403917Y475813D01*
X403993Y475793D01*
X404070Y475777D01*
X404147Y475764D01*
X404225Y475754D01*
X404304Y475749D01*
X404382Y475747D01*
X401722Y478817D02*
X401680Y478883D01*
X401636Y478948D01*
X401589Y479010D01*
X401538Y479070D01*
X401485Y479128D01*
X401429Y479183D01*
X401371Y479236D01*
X401310Y479285D01*
X401247Y479332D01*
X401182Y479375D01*
X401115Y479416D01*
X401046Y479453D01*
X400975Y479487D01*
X400903Y479518D01*
X400829Y479545D01*
X400754Y479569D01*
X400679Y479589D01*
X400602Y479605D01*
X400525Y479618D01*
X400447Y479628D01*
X400368Y479633D01*
X400290Y479635D01*
X401722Y478817D02*
X402950Y476566D01*
X406019Y482859D02*
X398653Y482859D01*
X406019Y482859D02*
X406019Y484905D01*
X406017Y484994D01*
X406011Y485083D01*
X406001Y485172D01*
X405988Y485260D01*
X405971Y485348D01*
X405949Y485435D01*
X405924Y485520D01*
X405896Y485605D01*
X405863Y485688D01*
X405827Y485770D01*
X405788Y485850D01*
X405745Y485928D01*
X405699Y486004D01*
X405649Y486079D01*
X405596Y486151D01*
X405540Y486220D01*
X405481Y486287D01*
X405420Y486352D01*
X405355Y486413D01*
X405288Y486472D01*
X405219Y486528D01*
X405147Y486581D01*
X405072Y486631D01*
X404996Y486677D01*
X404918Y486720D01*
X404838Y486759D01*
X404756Y486795D01*
X404673Y486828D01*
X404588Y486856D01*
X404503Y486881D01*
X404416Y486903D01*
X404328Y486920D01*
X404240Y486933D01*
X404151Y486943D01*
X404062Y486949D01*
X403973Y486951D01*
X400699Y486951D01*
X400610Y486949D01*
X400521Y486943D01*
X400432Y486933D01*
X400344Y486920D01*
X400256Y486903D01*
X400169Y486881D01*
X400084Y486856D01*
X399999Y486828D01*
X399916Y486795D01*
X399834Y486759D01*
X399754Y486720D01*
X399676Y486677D01*
X399600Y486631D01*
X399525Y486581D01*
X399453Y486528D01*
X399384Y486472D01*
X399317Y486413D01*
X399252Y486352D01*
X399191Y486287D01*
X399132Y486220D01*
X399076Y486151D01*
X399023Y486079D01*
X398973Y486004D01*
X398927Y485928D01*
X398884Y485850D01*
X398845Y485770D01*
X398809Y485688D01*
X398776Y485605D01*
X398748Y485520D01*
X398723Y485435D01*
X398701Y485348D01*
X398684Y485260D01*
X398671Y485172D01*
X398661Y485083D01*
X398655Y484994D01*
X398653Y484905D01*
X398653Y482859D01*
X398653Y490008D02*
X406019Y492464D01*
X398653Y494919D01*
X400495Y494305D02*
X400495Y490622D01*
X512953Y477999D02*
X512955Y478077D01*
X512960Y478155D01*
X512970Y478232D01*
X512983Y478309D01*
X512999Y478385D01*
X513019Y478460D01*
X513043Y478534D01*
X513070Y478607D01*
X513101Y478679D01*
X513135Y478749D01*
X513172Y478818D01*
X513213Y478884D01*
X513257Y478949D01*
X513303Y479011D01*
X513353Y479071D01*
X513405Y479129D01*
X513460Y479184D01*
X513518Y479236D01*
X513578Y479286D01*
X513640Y479332D01*
X513705Y479376D01*
X513772Y479417D01*
X513840Y479454D01*
X513910Y479488D01*
X513982Y479519D01*
X514055Y479546D01*
X514129Y479570D01*
X514204Y479590D01*
X514280Y479606D01*
X514357Y479619D01*
X514434Y479629D01*
X514512Y479634D01*
X514590Y479636D01*
X512953Y477999D02*
X512955Y477885D01*
X512960Y477772D01*
X512970Y477658D01*
X512983Y477545D01*
X513000Y477433D01*
X513020Y477321D01*
X513044Y477210D01*
X513072Y477099D01*
X513103Y476990D01*
X513138Y476882D01*
X513177Y476775D01*
X513219Y476669D01*
X513264Y476565D01*
X513313Y476462D01*
X513366Y476361D01*
X513421Y476262D01*
X513480Y476164D01*
X513542Y476069D01*
X513607Y475976D01*
X513675Y475884D01*
X513746Y475796D01*
X513820Y475709D01*
X513897Y475625D01*
X513976Y475544D01*
X518682Y475748D02*
X518760Y475750D01*
X518838Y475755D01*
X518915Y475765D01*
X518992Y475778D01*
X519068Y475794D01*
X519143Y475814D01*
X519217Y475838D01*
X519290Y475865D01*
X519362Y475896D01*
X519432Y475930D01*
X519501Y475967D01*
X519567Y476008D01*
X519632Y476052D01*
X519694Y476098D01*
X519754Y476148D01*
X519812Y476200D01*
X519867Y476255D01*
X519919Y476313D01*
X519969Y476373D01*
X520015Y476435D01*
X520059Y476500D01*
X520100Y476567D01*
X520137Y476635D01*
X520171Y476705D01*
X520202Y476777D01*
X520229Y476850D01*
X520253Y476924D01*
X520273Y476999D01*
X520289Y477075D01*
X520302Y477152D01*
X520312Y477229D01*
X520317Y477307D01*
X520319Y477385D01*
X520317Y477495D01*
X520311Y477604D01*
X520301Y477714D01*
X520288Y477822D01*
X520270Y477931D01*
X520249Y478038D01*
X520223Y478145D01*
X520194Y478251D01*
X520162Y478356D01*
X520125Y478459D01*
X520085Y478561D01*
X520041Y478662D01*
X519993Y478761D01*
X519943Y478858D01*
X519888Y478953D01*
X519830Y479046D01*
X519769Y479137D01*
X519705Y479226D01*
X517249Y476566D02*
X517291Y476499D01*
X517335Y476434D01*
X517383Y476372D01*
X517433Y476312D01*
X517486Y476254D01*
X517542Y476199D01*
X517601Y476147D01*
X517661Y476097D01*
X517725Y476050D01*
X517790Y476007D01*
X517857Y475966D01*
X517926Y475929D01*
X517997Y475895D01*
X518069Y475864D01*
X518143Y475837D01*
X518217Y475813D01*
X518293Y475793D01*
X518370Y475777D01*
X518447Y475764D01*
X518525Y475754D01*
X518604Y475749D01*
X518682Y475747D01*
X516022Y478817D02*
X515980Y478883D01*
X515936Y478948D01*
X515889Y479010D01*
X515838Y479070D01*
X515785Y479128D01*
X515729Y479183D01*
X515671Y479236D01*
X515610Y479285D01*
X515547Y479332D01*
X515482Y479375D01*
X515415Y479416D01*
X515346Y479453D01*
X515275Y479487D01*
X515203Y479518D01*
X515129Y479545D01*
X515054Y479569D01*
X514979Y479589D01*
X514902Y479605D01*
X514825Y479618D01*
X514747Y479628D01*
X514668Y479633D01*
X514590Y479635D01*
X516022Y478817D02*
X517250Y476566D01*
X520319Y482859D02*
X512953Y482859D01*
X520319Y482859D02*
X520319Y484905D01*
X520317Y484994D01*
X520311Y485083D01*
X520301Y485172D01*
X520288Y485260D01*
X520271Y485348D01*
X520249Y485435D01*
X520224Y485520D01*
X520196Y485605D01*
X520163Y485688D01*
X520127Y485770D01*
X520088Y485850D01*
X520045Y485928D01*
X519999Y486004D01*
X519949Y486079D01*
X519896Y486151D01*
X519840Y486220D01*
X519781Y486287D01*
X519720Y486352D01*
X519655Y486413D01*
X519588Y486472D01*
X519519Y486528D01*
X519447Y486581D01*
X519372Y486631D01*
X519296Y486677D01*
X519218Y486720D01*
X519138Y486759D01*
X519056Y486795D01*
X518973Y486828D01*
X518888Y486856D01*
X518803Y486881D01*
X518716Y486903D01*
X518628Y486920D01*
X518540Y486933D01*
X518451Y486943D01*
X518362Y486949D01*
X518273Y486951D01*
X514999Y486951D01*
X514910Y486949D01*
X514821Y486943D01*
X514732Y486933D01*
X514644Y486920D01*
X514556Y486903D01*
X514469Y486881D01*
X514384Y486856D01*
X514299Y486828D01*
X514216Y486795D01*
X514134Y486759D01*
X514054Y486720D01*
X513976Y486677D01*
X513900Y486631D01*
X513825Y486581D01*
X513753Y486528D01*
X513684Y486472D01*
X513617Y486413D01*
X513552Y486352D01*
X513491Y486287D01*
X513432Y486220D01*
X513376Y486151D01*
X513323Y486079D01*
X513273Y486004D01*
X513227Y485928D01*
X513184Y485850D01*
X513145Y485770D01*
X513109Y485688D01*
X513076Y485605D01*
X513048Y485520D01*
X513023Y485435D01*
X513001Y485348D01*
X512984Y485260D01*
X512971Y485172D01*
X512961Y485083D01*
X512955Y484994D01*
X512953Y484905D01*
X512953Y482859D01*
X512953Y490008D02*
X520319Y492464D01*
X512953Y494919D01*
X514795Y494305D02*
X514795Y490622D01*
D10*
X532892Y304292D02*
X532892Y292608D01*
X532892Y300397D02*
X529646Y300397D01*
X529559Y300395D01*
X529471Y300389D01*
X529385Y300379D01*
X529298Y300366D01*
X529213Y300348D01*
X529128Y300327D01*
X529044Y300302D01*
X528962Y300273D01*
X528881Y300240D01*
X528801Y300204D01*
X528723Y300165D01*
X528647Y300121D01*
X528573Y300075D01*
X528502Y300025D01*
X528432Y299972D01*
X528365Y299916D01*
X528301Y299857D01*
X528239Y299796D01*
X528180Y299731D01*
X528124Y299664D01*
X528071Y299594D01*
X528021Y299523D01*
X527975Y299449D01*
X527932Y299373D01*
X527892Y299295D01*
X527856Y299215D01*
X527823Y299134D01*
X527794Y299052D01*
X527769Y298968D01*
X527748Y298883D01*
X527730Y298798D01*
X527717Y298711D01*
X527707Y298625D01*
X527701Y298537D01*
X527699Y298450D01*
X527699Y292608D01*
X523572Y300397D02*
X519678Y300397D01*
X522274Y304292D02*
X522274Y294555D01*
X522272Y294468D01*
X522266Y294380D01*
X522256Y294294D01*
X522243Y294207D01*
X522225Y294122D01*
X522204Y294037D01*
X522179Y293953D01*
X522150Y293871D01*
X522117Y293790D01*
X522081Y293710D01*
X522042Y293632D01*
X521998Y293556D01*
X521952Y293482D01*
X521902Y293411D01*
X521849Y293341D01*
X521793Y293274D01*
X521734Y293210D01*
X521672Y293148D01*
X521608Y293089D01*
X521541Y293033D01*
X521471Y292980D01*
X521400Y292930D01*
X521326Y292884D01*
X521250Y292840D01*
X521172Y292801D01*
X521092Y292765D01*
X521011Y292732D01*
X520929Y292703D01*
X520845Y292678D01*
X520760Y292657D01*
X520675Y292639D01*
X520588Y292626D01*
X520502Y292616D01*
X520414Y292610D01*
X520327Y292608D01*
X519678Y292608D01*
X516333Y300397D02*
X512439Y300397D01*
X515035Y304292D02*
X515035Y294555D01*
X515033Y294468D01*
X515027Y294380D01*
X515017Y294294D01*
X515004Y294207D01*
X514986Y294122D01*
X514965Y294037D01*
X514940Y293953D01*
X514911Y293871D01*
X514878Y293790D01*
X514842Y293710D01*
X514803Y293632D01*
X514759Y293556D01*
X514713Y293482D01*
X514663Y293411D01*
X514610Y293341D01*
X514554Y293274D01*
X514495Y293210D01*
X514433Y293148D01*
X514369Y293089D01*
X514302Y293033D01*
X514232Y292980D01*
X514161Y292930D01*
X514087Y292884D01*
X514011Y292840D01*
X513933Y292801D01*
X513853Y292765D01*
X513772Y292732D01*
X513690Y292703D01*
X513606Y292678D01*
X513521Y292657D01*
X513436Y292639D01*
X513349Y292626D01*
X513263Y292616D01*
X513175Y292610D01*
X513088Y292608D01*
X512439Y292608D01*
X507687Y288713D02*
X507687Y300397D01*
X504442Y300397D01*
X504355Y300395D01*
X504267Y300389D01*
X504181Y300379D01*
X504094Y300366D01*
X504009Y300348D01*
X503924Y300327D01*
X503840Y300302D01*
X503758Y300273D01*
X503677Y300240D01*
X503597Y300204D01*
X503519Y300165D01*
X503443Y300121D01*
X503369Y300075D01*
X503298Y300025D01*
X503228Y299972D01*
X503161Y299916D01*
X503097Y299857D01*
X503035Y299796D01*
X502976Y299731D01*
X502920Y299664D01*
X502867Y299594D01*
X502817Y299523D01*
X502771Y299449D01*
X502728Y299373D01*
X502688Y299295D01*
X502652Y299215D01*
X502619Y299134D01*
X502590Y299052D01*
X502565Y298968D01*
X502544Y298883D01*
X502526Y298798D01*
X502513Y298711D01*
X502503Y298625D01*
X502497Y298537D01*
X502495Y298450D01*
X502494Y298450D02*
X502494Y294555D01*
X502495Y294555D02*
X502497Y294468D01*
X502503Y294380D01*
X502513Y294294D01*
X502526Y294207D01*
X502544Y294122D01*
X502565Y294037D01*
X502590Y293953D01*
X502619Y293871D01*
X502652Y293790D01*
X502688Y293710D01*
X502727Y293632D01*
X502771Y293556D01*
X502817Y293482D01*
X502867Y293411D01*
X502920Y293341D01*
X502976Y293274D01*
X503035Y293209D01*
X503097Y293148D01*
X503161Y293089D01*
X503228Y293033D01*
X503298Y292980D01*
X503369Y292930D01*
X503443Y292884D01*
X503519Y292840D01*
X503597Y292801D01*
X503677Y292765D01*
X503758Y292732D01*
X503840Y292703D01*
X503924Y292678D01*
X504009Y292657D01*
X504094Y292639D01*
X504181Y292626D01*
X504268Y292616D01*
X504355Y292610D01*
X504442Y292608D01*
X507687Y292608D01*
X497854Y293582D02*
X497854Y294231D01*
X497205Y294231D01*
X497205Y293582D01*
X497854Y293582D01*
X497854Y298775D02*
X497854Y299424D01*
X497205Y299424D01*
X497205Y298775D01*
X497854Y298775D01*
X492887Y291310D02*
X487694Y305590D01*
X478550Y305590D02*
X483743Y291310D01*
X472426Y292608D02*
X474373Y300397D01*
X470479Y297801D02*
X472426Y292608D01*
X468531Y292608D02*
X470479Y297801D01*
X466584Y300397D02*
X468531Y292608D01*
X460234Y292608D02*
X462181Y300397D01*
X458287Y297801D02*
X460234Y292608D01*
X456339Y292608D02*
X458287Y297801D01*
X454392Y300397D02*
X456339Y292608D01*
X448042Y292608D02*
X449989Y300397D01*
X446095Y297801D02*
X448042Y292608D01*
X444147Y292608D02*
X446095Y297801D01*
X442200Y300397D02*
X444147Y292608D01*
X438037Y292608D02*
X438037Y293257D01*
X437388Y293257D01*
X437388Y292608D01*
X438037Y292608D01*
X433451Y288713D02*
X432153Y288713D01*
X428258Y300397D01*
X433451Y300397D02*
X430855Y292608D01*
X423926Y295204D02*
X423926Y297801D01*
X423924Y297902D01*
X423918Y298002D01*
X423908Y298102D01*
X423895Y298202D01*
X423877Y298301D01*
X423856Y298400D01*
X423831Y298497D01*
X423802Y298594D01*
X423769Y298689D01*
X423733Y298783D01*
X423693Y298875D01*
X423650Y298966D01*
X423603Y299055D01*
X423553Y299142D01*
X423499Y299228D01*
X423442Y299311D01*
X423382Y299391D01*
X423319Y299470D01*
X423252Y299546D01*
X423183Y299619D01*
X423111Y299689D01*
X423037Y299757D01*
X422960Y299822D01*
X422880Y299883D01*
X422798Y299942D01*
X422714Y299997D01*
X422628Y300049D01*
X422540Y300098D01*
X422450Y300143D01*
X422358Y300185D01*
X422265Y300223D01*
X422170Y300257D01*
X422075Y300288D01*
X421978Y300315D01*
X421880Y300338D01*
X421781Y300358D01*
X421681Y300373D01*
X421581Y300385D01*
X421481Y300393D01*
X421380Y300397D01*
X421280Y300397D01*
X421179Y300393D01*
X421079Y300385D01*
X420979Y300373D01*
X420879Y300358D01*
X420780Y300338D01*
X420682Y300315D01*
X420585Y300288D01*
X420490Y300257D01*
X420395Y300223D01*
X420302Y300185D01*
X420210Y300143D01*
X420120Y300098D01*
X420032Y300049D01*
X419946Y299997D01*
X419862Y299942D01*
X419780Y299883D01*
X419700Y299822D01*
X419623Y299757D01*
X419549Y299689D01*
X419477Y299619D01*
X419408Y299546D01*
X419341Y299470D01*
X419278Y299391D01*
X419218Y299311D01*
X419161Y299228D01*
X419107Y299142D01*
X419057Y299055D01*
X419010Y298966D01*
X418967Y298875D01*
X418927Y298783D01*
X418891Y298689D01*
X418858Y298594D01*
X418829Y298497D01*
X418804Y298400D01*
X418783Y298301D01*
X418765Y298202D01*
X418752Y298102D01*
X418742Y298002D01*
X418736Y297902D01*
X418734Y297801D01*
X418733Y297801D02*
X418733Y295204D01*
X418734Y295204D02*
X418736Y295103D01*
X418742Y295003D01*
X418752Y294903D01*
X418765Y294803D01*
X418783Y294704D01*
X418804Y294605D01*
X418829Y294508D01*
X418858Y294411D01*
X418891Y294316D01*
X418927Y294222D01*
X418967Y294130D01*
X419010Y294039D01*
X419057Y293950D01*
X419107Y293863D01*
X419161Y293777D01*
X419218Y293694D01*
X419278Y293614D01*
X419341Y293535D01*
X419408Y293459D01*
X419477Y293386D01*
X419549Y293316D01*
X419623Y293248D01*
X419700Y293183D01*
X419780Y293122D01*
X419862Y293063D01*
X419946Y293008D01*
X420032Y292956D01*
X420120Y292907D01*
X420210Y292862D01*
X420302Y292820D01*
X420395Y292782D01*
X420490Y292748D01*
X420585Y292717D01*
X420682Y292690D01*
X420780Y292667D01*
X420879Y292647D01*
X420979Y292632D01*
X421079Y292620D01*
X421179Y292612D01*
X421280Y292608D01*
X421380Y292608D01*
X421481Y292612D01*
X421581Y292620D01*
X421681Y292632D01*
X421781Y292647D01*
X421880Y292667D01*
X421978Y292690D01*
X422075Y292717D01*
X422170Y292748D01*
X422265Y292782D01*
X422358Y292820D01*
X422450Y292862D01*
X422540Y292907D01*
X422628Y292956D01*
X422714Y293008D01*
X422798Y293063D01*
X422880Y293122D01*
X422960Y293183D01*
X423037Y293248D01*
X423111Y293316D01*
X423183Y293386D01*
X423252Y293459D01*
X423319Y293535D01*
X423382Y293614D01*
X423442Y293694D01*
X423499Y293777D01*
X423553Y293863D01*
X423603Y293950D01*
X423650Y294039D01*
X423693Y294130D01*
X423733Y294222D01*
X423769Y294316D01*
X423802Y294411D01*
X423831Y294508D01*
X423856Y294605D01*
X423877Y294704D01*
X423895Y294803D01*
X423908Y294903D01*
X423918Y295003D01*
X423924Y295103D01*
X423926Y295204D01*
X413639Y294555D02*
X413639Y300397D01*
X413639Y294555D02*
X413637Y294468D01*
X413631Y294380D01*
X413621Y294294D01*
X413608Y294207D01*
X413590Y294122D01*
X413569Y294037D01*
X413544Y293953D01*
X413515Y293871D01*
X413482Y293790D01*
X413446Y293710D01*
X413407Y293632D01*
X413363Y293556D01*
X413317Y293482D01*
X413267Y293411D01*
X413214Y293341D01*
X413158Y293274D01*
X413099Y293210D01*
X413037Y293148D01*
X412973Y293089D01*
X412906Y293033D01*
X412836Y292980D01*
X412765Y292930D01*
X412691Y292884D01*
X412615Y292840D01*
X412537Y292801D01*
X412457Y292765D01*
X412376Y292732D01*
X412294Y292703D01*
X412210Y292678D01*
X412125Y292657D01*
X412040Y292639D01*
X411953Y292626D01*
X411867Y292616D01*
X411779Y292610D01*
X411692Y292608D01*
X408446Y292608D01*
X408446Y300397D01*
X404319Y300397D02*
X400425Y300397D01*
X403021Y304292D02*
X403021Y294555D01*
X403019Y294468D01*
X403013Y294380D01*
X403003Y294294D01*
X402990Y294207D01*
X402972Y294122D01*
X402951Y294037D01*
X402926Y293953D01*
X402897Y293871D01*
X402864Y293790D01*
X402828Y293710D01*
X402789Y293632D01*
X402745Y293556D01*
X402699Y293482D01*
X402649Y293411D01*
X402596Y293341D01*
X402540Y293274D01*
X402481Y293210D01*
X402419Y293148D01*
X402355Y293089D01*
X402288Y293033D01*
X402218Y292980D01*
X402147Y292930D01*
X402073Y292884D01*
X401997Y292840D01*
X401919Y292801D01*
X401839Y292765D01*
X401758Y292732D01*
X401676Y292703D01*
X401592Y292678D01*
X401507Y292657D01*
X401422Y292639D01*
X401335Y292626D01*
X401249Y292616D01*
X401161Y292610D01*
X401074Y292608D01*
X400425Y292608D01*
X395732Y294555D02*
X395732Y300397D01*
X395732Y294555D02*
X395730Y294468D01*
X395724Y294380D01*
X395714Y294294D01*
X395701Y294207D01*
X395683Y294122D01*
X395662Y294037D01*
X395637Y293953D01*
X395608Y293871D01*
X395575Y293790D01*
X395539Y293710D01*
X395500Y293632D01*
X395456Y293556D01*
X395410Y293482D01*
X395360Y293411D01*
X395307Y293341D01*
X395251Y293274D01*
X395192Y293210D01*
X395130Y293148D01*
X395066Y293089D01*
X394999Y293033D01*
X394929Y292980D01*
X394858Y292930D01*
X394784Y292884D01*
X394708Y292840D01*
X394630Y292801D01*
X394550Y292765D01*
X394469Y292732D01*
X394387Y292703D01*
X394303Y292678D01*
X394218Y292657D01*
X394133Y292639D01*
X394046Y292626D01*
X393960Y292616D01*
X393872Y292610D01*
X393785Y292608D01*
X390539Y292608D01*
X390539Y300397D01*
X385005Y304292D02*
X385005Y292608D01*
X381760Y292608D01*
X381673Y292610D01*
X381585Y292616D01*
X381499Y292626D01*
X381412Y292639D01*
X381327Y292657D01*
X381242Y292678D01*
X381158Y292703D01*
X381076Y292732D01*
X380995Y292765D01*
X380915Y292801D01*
X380837Y292840D01*
X380761Y292884D01*
X380687Y292930D01*
X380616Y292980D01*
X380546Y293033D01*
X380479Y293089D01*
X380415Y293148D01*
X380353Y293209D01*
X380294Y293274D01*
X380238Y293341D01*
X380185Y293411D01*
X380135Y293482D01*
X380089Y293556D01*
X380046Y293632D01*
X380006Y293710D01*
X379970Y293790D01*
X379937Y293871D01*
X379908Y293953D01*
X379883Y294037D01*
X379862Y294122D01*
X379844Y294207D01*
X379831Y294294D01*
X379821Y294380D01*
X379815Y294468D01*
X379813Y294555D01*
X379812Y294555D02*
X379812Y298450D01*
X379813Y298450D02*
X379815Y298537D01*
X379821Y298625D01*
X379831Y298711D01*
X379844Y298798D01*
X379862Y298883D01*
X379883Y298968D01*
X379908Y299052D01*
X379937Y299134D01*
X379970Y299215D01*
X380006Y299295D01*
X380045Y299373D01*
X380089Y299449D01*
X380135Y299523D01*
X380185Y299594D01*
X380238Y299664D01*
X380294Y299731D01*
X380353Y299796D01*
X380415Y299857D01*
X380479Y299916D01*
X380546Y299972D01*
X380616Y300025D01*
X380687Y300075D01*
X380761Y300121D01*
X380837Y300165D01*
X380915Y300204D01*
X380995Y300240D01*
X381076Y300273D01*
X381158Y300302D01*
X381242Y300327D01*
X381327Y300348D01*
X381412Y300366D01*
X381499Y300379D01*
X381586Y300389D01*
X381673Y300395D01*
X381760Y300397D01*
X385005Y300397D01*
X373211Y292608D02*
X369965Y292608D01*
X373211Y292608D02*
X373298Y292610D01*
X373386Y292616D01*
X373472Y292626D01*
X373559Y292639D01*
X373644Y292657D01*
X373729Y292678D01*
X373813Y292703D01*
X373895Y292732D01*
X373976Y292765D01*
X374056Y292801D01*
X374134Y292840D01*
X374210Y292884D01*
X374284Y292930D01*
X374355Y292980D01*
X374425Y293033D01*
X374492Y293089D01*
X374556Y293148D01*
X374618Y293210D01*
X374677Y293274D01*
X374733Y293341D01*
X374786Y293411D01*
X374836Y293482D01*
X374882Y293556D01*
X374926Y293632D01*
X374965Y293710D01*
X375001Y293790D01*
X375034Y293871D01*
X375063Y293953D01*
X375088Y294037D01*
X375109Y294122D01*
X375127Y294207D01*
X375140Y294294D01*
X375150Y294380D01*
X375156Y294468D01*
X375158Y294555D01*
X375158Y297801D01*
X375156Y297902D01*
X375150Y298002D01*
X375140Y298102D01*
X375127Y298202D01*
X375109Y298301D01*
X375088Y298400D01*
X375063Y298497D01*
X375034Y298594D01*
X375001Y298689D01*
X374965Y298783D01*
X374925Y298875D01*
X374882Y298966D01*
X374835Y299055D01*
X374785Y299142D01*
X374731Y299228D01*
X374674Y299311D01*
X374614Y299391D01*
X374551Y299470D01*
X374484Y299546D01*
X374415Y299619D01*
X374343Y299689D01*
X374269Y299757D01*
X374192Y299822D01*
X374112Y299883D01*
X374030Y299942D01*
X373946Y299997D01*
X373860Y300049D01*
X373772Y300098D01*
X373682Y300143D01*
X373590Y300185D01*
X373497Y300223D01*
X373402Y300257D01*
X373307Y300288D01*
X373210Y300315D01*
X373112Y300338D01*
X373013Y300358D01*
X372913Y300373D01*
X372813Y300385D01*
X372713Y300393D01*
X372612Y300397D01*
X372512Y300397D01*
X372411Y300393D01*
X372311Y300385D01*
X372211Y300373D01*
X372111Y300358D01*
X372012Y300338D01*
X371914Y300315D01*
X371817Y300288D01*
X371722Y300257D01*
X371627Y300223D01*
X371534Y300185D01*
X371442Y300143D01*
X371352Y300098D01*
X371264Y300049D01*
X371178Y299997D01*
X371094Y299942D01*
X371012Y299883D01*
X370932Y299822D01*
X370855Y299757D01*
X370781Y299689D01*
X370709Y299619D01*
X370640Y299546D01*
X370573Y299470D01*
X370510Y299391D01*
X370450Y299311D01*
X370393Y299228D01*
X370339Y299142D01*
X370289Y299055D01*
X370242Y298966D01*
X370199Y298875D01*
X370159Y298783D01*
X370123Y298689D01*
X370090Y298594D01*
X370061Y298497D01*
X370036Y298400D01*
X370015Y298301D01*
X369997Y298202D01*
X369984Y298102D01*
X369974Y298002D01*
X369968Y297902D01*
X369966Y297801D01*
X369965Y297801D02*
X369965Y296503D01*
X375158Y296503D01*
X365647Y293257D02*
X365647Y292608D01*
X365647Y293257D02*
X364998Y293257D01*
X364998Y292608D01*
X365647Y292608D01*
X358720Y292608D02*
X356123Y292608D01*
X358720Y292608D02*
X358807Y292610D01*
X358895Y292616D01*
X358981Y292626D01*
X359068Y292639D01*
X359153Y292657D01*
X359238Y292678D01*
X359322Y292703D01*
X359404Y292732D01*
X359485Y292765D01*
X359565Y292801D01*
X359643Y292840D01*
X359719Y292884D01*
X359793Y292930D01*
X359864Y292980D01*
X359934Y293033D01*
X360001Y293089D01*
X360065Y293148D01*
X360127Y293210D01*
X360186Y293274D01*
X360242Y293341D01*
X360295Y293411D01*
X360345Y293482D01*
X360391Y293556D01*
X360435Y293632D01*
X360474Y293710D01*
X360510Y293790D01*
X360543Y293871D01*
X360572Y293953D01*
X360597Y294037D01*
X360618Y294122D01*
X360636Y294207D01*
X360649Y294294D01*
X360659Y294380D01*
X360665Y294468D01*
X360667Y294555D01*
X360667Y298450D01*
X360665Y298537D01*
X360659Y298625D01*
X360649Y298711D01*
X360636Y298798D01*
X360618Y298883D01*
X360597Y298968D01*
X360572Y299052D01*
X360543Y299134D01*
X360510Y299215D01*
X360474Y299295D01*
X360435Y299373D01*
X360391Y299449D01*
X360345Y299523D01*
X360295Y299594D01*
X360242Y299664D01*
X360186Y299731D01*
X360127Y299795D01*
X360065Y299857D01*
X360001Y299916D01*
X359934Y299972D01*
X359864Y300025D01*
X359793Y300075D01*
X359719Y300121D01*
X359643Y300165D01*
X359565Y300204D01*
X359485Y300240D01*
X359404Y300273D01*
X359322Y300302D01*
X359238Y300327D01*
X359153Y300348D01*
X359068Y300366D01*
X358981Y300379D01*
X358895Y300389D01*
X358807Y300395D01*
X358720Y300397D01*
X356123Y300397D01*
X351917Y297801D02*
X351917Y295204D01*
X351917Y297801D02*
X351915Y297902D01*
X351909Y298002D01*
X351899Y298102D01*
X351886Y298202D01*
X351868Y298301D01*
X351847Y298400D01*
X351822Y298497D01*
X351793Y298594D01*
X351760Y298689D01*
X351724Y298783D01*
X351684Y298875D01*
X351641Y298966D01*
X351594Y299055D01*
X351544Y299142D01*
X351490Y299228D01*
X351433Y299311D01*
X351373Y299391D01*
X351310Y299470D01*
X351243Y299546D01*
X351174Y299619D01*
X351102Y299689D01*
X351028Y299757D01*
X350951Y299822D01*
X350871Y299883D01*
X350789Y299942D01*
X350705Y299997D01*
X350619Y300049D01*
X350531Y300098D01*
X350441Y300143D01*
X350349Y300185D01*
X350256Y300223D01*
X350161Y300257D01*
X350066Y300288D01*
X349969Y300315D01*
X349871Y300338D01*
X349772Y300358D01*
X349672Y300373D01*
X349572Y300385D01*
X349472Y300393D01*
X349371Y300397D01*
X349271Y300397D01*
X349170Y300393D01*
X349070Y300385D01*
X348970Y300373D01*
X348870Y300358D01*
X348771Y300338D01*
X348673Y300315D01*
X348576Y300288D01*
X348481Y300257D01*
X348386Y300223D01*
X348293Y300185D01*
X348201Y300143D01*
X348111Y300098D01*
X348023Y300049D01*
X347937Y299997D01*
X347853Y299942D01*
X347771Y299883D01*
X347691Y299822D01*
X347614Y299757D01*
X347540Y299689D01*
X347468Y299619D01*
X347399Y299546D01*
X347332Y299470D01*
X347269Y299391D01*
X347209Y299311D01*
X347152Y299228D01*
X347098Y299142D01*
X347048Y299055D01*
X347001Y298966D01*
X346958Y298875D01*
X346918Y298783D01*
X346882Y298689D01*
X346849Y298594D01*
X346820Y298497D01*
X346795Y298400D01*
X346774Y298301D01*
X346756Y298202D01*
X346743Y298102D01*
X346733Y298002D01*
X346727Y297902D01*
X346725Y297801D01*
X346724Y297801D02*
X346724Y295204D01*
X346725Y295204D02*
X346727Y295103D01*
X346733Y295003D01*
X346743Y294903D01*
X346756Y294803D01*
X346774Y294704D01*
X346795Y294605D01*
X346820Y294508D01*
X346849Y294411D01*
X346882Y294316D01*
X346918Y294222D01*
X346958Y294130D01*
X347001Y294039D01*
X347048Y293950D01*
X347098Y293863D01*
X347152Y293777D01*
X347209Y293694D01*
X347269Y293614D01*
X347332Y293535D01*
X347399Y293459D01*
X347468Y293386D01*
X347540Y293316D01*
X347614Y293248D01*
X347691Y293183D01*
X347771Y293122D01*
X347853Y293063D01*
X347937Y293008D01*
X348023Y292956D01*
X348111Y292907D01*
X348201Y292862D01*
X348293Y292820D01*
X348386Y292782D01*
X348481Y292748D01*
X348576Y292717D01*
X348673Y292690D01*
X348771Y292667D01*
X348870Y292647D01*
X348970Y292632D01*
X349070Y292620D01*
X349170Y292612D01*
X349271Y292608D01*
X349371Y292608D01*
X349472Y292612D01*
X349572Y292620D01*
X349672Y292632D01*
X349772Y292647D01*
X349871Y292667D01*
X349969Y292690D01*
X350066Y292717D01*
X350161Y292748D01*
X350256Y292782D01*
X350349Y292820D01*
X350441Y292862D01*
X350531Y292907D01*
X350619Y292956D01*
X350705Y293008D01*
X350789Y293063D01*
X350871Y293122D01*
X350951Y293183D01*
X351028Y293248D01*
X351102Y293316D01*
X351174Y293386D01*
X351243Y293459D01*
X351310Y293535D01*
X351373Y293614D01*
X351433Y293694D01*
X351490Y293777D01*
X351544Y293863D01*
X351594Y293950D01*
X351641Y294039D01*
X351684Y294130D01*
X351724Y294222D01*
X351760Y294316D01*
X351793Y294411D01*
X351822Y294508D01*
X351847Y294605D01*
X351868Y294704D01*
X351886Y294803D01*
X351899Y294903D01*
X351909Y295003D01*
X351915Y295103D01*
X351917Y295204D01*
X341405Y292608D02*
X341405Y300397D01*
X335563Y300397D01*
X335476Y300395D01*
X335388Y300389D01*
X335302Y300379D01*
X335215Y300366D01*
X335130Y300348D01*
X335045Y300327D01*
X334961Y300302D01*
X334879Y300273D01*
X334798Y300240D01*
X334718Y300204D01*
X334640Y300165D01*
X334564Y300121D01*
X334490Y300075D01*
X334419Y300025D01*
X334349Y299972D01*
X334282Y299916D01*
X334218Y299857D01*
X334156Y299795D01*
X334097Y299731D01*
X334041Y299664D01*
X333988Y299594D01*
X333938Y299523D01*
X333892Y299449D01*
X333848Y299373D01*
X333809Y299295D01*
X333773Y299215D01*
X333740Y299134D01*
X333711Y299052D01*
X333686Y298968D01*
X333665Y298883D01*
X333647Y298798D01*
X333634Y298711D01*
X333624Y298625D01*
X333618Y298537D01*
X333616Y298450D01*
X333615Y298450D02*
X333615Y292608D01*
X337510Y292608D02*
X337510Y300397D01*
X328676Y291310D02*
X323483Y305590D01*
X317191Y292608D02*
X314594Y292608D01*
X317191Y292608D02*
X317278Y292610D01*
X317366Y292616D01*
X317452Y292626D01*
X317539Y292639D01*
X317624Y292657D01*
X317709Y292678D01*
X317793Y292703D01*
X317875Y292732D01*
X317956Y292765D01*
X318036Y292801D01*
X318114Y292840D01*
X318190Y292884D01*
X318264Y292930D01*
X318335Y292980D01*
X318405Y293033D01*
X318472Y293089D01*
X318536Y293148D01*
X318598Y293210D01*
X318657Y293274D01*
X318713Y293341D01*
X318766Y293411D01*
X318816Y293482D01*
X318862Y293556D01*
X318906Y293632D01*
X318945Y293710D01*
X318981Y293790D01*
X319014Y293871D01*
X319043Y293953D01*
X319068Y294037D01*
X319089Y294122D01*
X319107Y294207D01*
X319120Y294294D01*
X319130Y294380D01*
X319136Y294468D01*
X319138Y294555D01*
X319138Y298450D01*
X319136Y298537D01*
X319130Y298625D01*
X319120Y298711D01*
X319107Y298798D01*
X319089Y298883D01*
X319068Y298968D01*
X319043Y299052D01*
X319014Y299134D01*
X318981Y299215D01*
X318945Y299295D01*
X318906Y299373D01*
X318862Y299449D01*
X318816Y299523D01*
X318766Y299594D01*
X318713Y299664D01*
X318657Y299731D01*
X318598Y299795D01*
X318536Y299857D01*
X318472Y299916D01*
X318405Y299972D01*
X318335Y300025D01*
X318264Y300075D01*
X318190Y300121D01*
X318114Y300165D01*
X318036Y300204D01*
X317956Y300240D01*
X317875Y300273D01*
X317793Y300302D01*
X317709Y300327D01*
X317624Y300348D01*
X317539Y300366D01*
X317452Y300379D01*
X317366Y300389D01*
X317278Y300395D01*
X317191Y300397D01*
X314594Y300397D01*
X310769Y291310D02*
X305576Y305590D01*
X300581Y299099D02*
X297336Y299099D01*
X297336Y299100D02*
X297223Y299098D01*
X297110Y299092D01*
X296997Y299082D01*
X296884Y299068D01*
X296772Y299051D01*
X296661Y299029D01*
X296551Y299004D01*
X296441Y298974D01*
X296333Y298941D01*
X296226Y298904D01*
X296120Y298864D01*
X296016Y298819D01*
X295913Y298771D01*
X295812Y298720D01*
X295713Y298665D01*
X295616Y298607D01*
X295521Y298545D01*
X295428Y298480D01*
X295338Y298412D01*
X295250Y298341D01*
X295164Y298266D01*
X295081Y298189D01*
X295001Y298109D01*
X294924Y298026D01*
X294849Y297940D01*
X294778Y297852D01*
X294710Y297762D01*
X294645Y297669D01*
X294583Y297574D01*
X294525Y297477D01*
X294470Y297378D01*
X294419Y297277D01*
X294371Y297174D01*
X294326Y297070D01*
X294286Y296964D01*
X294249Y296857D01*
X294216Y296749D01*
X294186Y296639D01*
X294161Y296529D01*
X294139Y296418D01*
X294122Y296306D01*
X294108Y296193D01*
X294098Y296080D01*
X294092Y295967D01*
X294090Y295854D01*
X294092Y295741D01*
X294098Y295628D01*
X294108Y295515D01*
X294122Y295402D01*
X294139Y295290D01*
X294161Y295179D01*
X294186Y295069D01*
X294216Y294959D01*
X294249Y294851D01*
X294286Y294744D01*
X294326Y294638D01*
X294371Y294534D01*
X294419Y294431D01*
X294470Y294330D01*
X294525Y294231D01*
X294583Y294134D01*
X294645Y294039D01*
X294710Y293946D01*
X294778Y293856D01*
X294849Y293768D01*
X294924Y293682D01*
X295001Y293599D01*
X295081Y293519D01*
X295164Y293442D01*
X295250Y293367D01*
X295338Y293296D01*
X295428Y293228D01*
X295521Y293163D01*
X295616Y293101D01*
X295713Y293043D01*
X295812Y292988D01*
X295913Y292937D01*
X296016Y292889D01*
X296120Y292844D01*
X296226Y292804D01*
X296333Y292767D01*
X296441Y292734D01*
X296551Y292704D01*
X296661Y292679D01*
X296772Y292657D01*
X296884Y292640D01*
X296997Y292626D01*
X297110Y292616D01*
X297223Y292610D01*
X297336Y292608D01*
X300581Y292608D01*
X300581Y304292D01*
X297336Y304292D01*
X297235Y304290D01*
X297135Y304284D01*
X297035Y304274D01*
X296935Y304261D01*
X296836Y304243D01*
X296737Y304222D01*
X296640Y304197D01*
X296543Y304168D01*
X296448Y304135D01*
X296354Y304099D01*
X296262Y304059D01*
X296171Y304016D01*
X296082Y303969D01*
X295995Y303919D01*
X295909Y303865D01*
X295826Y303808D01*
X295746Y303748D01*
X295667Y303685D01*
X295591Y303618D01*
X295518Y303549D01*
X295448Y303477D01*
X295380Y303403D01*
X295315Y303326D01*
X295254Y303246D01*
X295195Y303164D01*
X295140Y303080D01*
X295088Y302994D01*
X295039Y302906D01*
X294994Y302816D01*
X294952Y302724D01*
X294914Y302631D01*
X294880Y302536D01*
X294849Y302441D01*
X294822Y302344D01*
X294799Y302246D01*
X294779Y302147D01*
X294764Y302047D01*
X294752Y301947D01*
X294744Y301847D01*
X294740Y301746D01*
X294740Y301646D01*
X294744Y301545D01*
X294752Y301445D01*
X294764Y301345D01*
X294779Y301245D01*
X294799Y301146D01*
X294822Y301048D01*
X294849Y300951D01*
X294880Y300856D01*
X294914Y300761D01*
X294952Y300668D01*
X294994Y300576D01*
X295039Y300486D01*
X295088Y300398D01*
X295140Y300312D01*
X295195Y300228D01*
X295254Y300146D01*
X295315Y300066D01*
X295380Y299989D01*
X295448Y299915D01*
X295518Y299843D01*
X295591Y299774D01*
X295667Y299707D01*
X295746Y299644D01*
X295826Y299584D01*
X295909Y299527D01*
X295995Y299473D01*
X296082Y299423D01*
X296171Y299376D01*
X296262Y299333D01*
X296354Y299293D01*
X296448Y299257D01*
X296543Y299224D01*
X296640Y299195D01*
X296737Y299170D01*
X296836Y299149D01*
X296935Y299131D01*
X297035Y299118D01*
X297135Y299108D01*
X297235Y299102D01*
X297336Y299100D01*
X289151Y304292D02*
X289151Y292608D01*
X289151Y297152D02*
X282660Y304292D01*
X286555Y299748D02*
X282660Y292608D01*
X277891Y292608D02*
X277891Y304292D01*
X277891Y299099D02*
X271399Y299099D01*
X271399Y304292D02*
X271399Y292608D01*
X266192Y295204D02*
X266192Y297801D01*
X266190Y297902D01*
X266184Y298002D01*
X266174Y298102D01*
X266161Y298202D01*
X266143Y298301D01*
X266122Y298400D01*
X266097Y298497D01*
X266068Y298594D01*
X266035Y298689D01*
X265999Y298783D01*
X265959Y298875D01*
X265916Y298966D01*
X265869Y299055D01*
X265819Y299142D01*
X265765Y299228D01*
X265708Y299311D01*
X265648Y299391D01*
X265585Y299470D01*
X265518Y299546D01*
X265449Y299619D01*
X265377Y299689D01*
X265303Y299757D01*
X265226Y299822D01*
X265146Y299883D01*
X265064Y299942D01*
X264980Y299997D01*
X264894Y300049D01*
X264806Y300098D01*
X264716Y300143D01*
X264624Y300185D01*
X264531Y300223D01*
X264436Y300257D01*
X264341Y300288D01*
X264244Y300315D01*
X264146Y300338D01*
X264047Y300358D01*
X263947Y300373D01*
X263847Y300385D01*
X263747Y300393D01*
X263646Y300397D01*
X263546Y300397D01*
X263445Y300393D01*
X263345Y300385D01*
X263245Y300373D01*
X263145Y300358D01*
X263046Y300338D01*
X262948Y300315D01*
X262851Y300288D01*
X262756Y300257D01*
X262661Y300223D01*
X262568Y300185D01*
X262476Y300143D01*
X262386Y300098D01*
X262298Y300049D01*
X262212Y299997D01*
X262128Y299942D01*
X262046Y299883D01*
X261966Y299822D01*
X261889Y299757D01*
X261815Y299689D01*
X261743Y299619D01*
X261674Y299546D01*
X261607Y299470D01*
X261544Y299391D01*
X261484Y299311D01*
X261427Y299228D01*
X261373Y299142D01*
X261323Y299055D01*
X261276Y298966D01*
X261233Y298875D01*
X261193Y298783D01*
X261157Y298689D01*
X261124Y298594D01*
X261095Y298497D01*
X261070Y298400D01*
X261049Y298301D01*
X261031Y298202D01*
X261018Y298102D01*
X261008Y298002D01*
X261002Y297902D01*
X261000Y297801D01*
X261000Y295204D01*
X261002Y295103D01*
X261008Y295003D01*
X261018Y294903D01*
X261031Y294803D01*
X261049Y294704D01*
X261070Y294605D01*
X261095Y294508D01*
X261124Y294411D01*
X261157Y294316D01*
X261193Y294222D01*
X261233Y294130D01*
X261276Y294039D01*
X261323Y293950D01*
X261373Y293863D01*
X261427Y293777D01*
X261484Y293694D01*
X261544Y293614D01*
X261607Y293535D01*
X261674Y293459D01*
X261743Y293386D01*
X261815Y293316D01*
X261889Y293248D01*
X261966Y293183D01*
X262046Y293122D01*
X262128Y293063D01*
X262212Y293008D01*
X262298Y292956D01*
X262386Y292907D01*
X262476Y292862D01*
X262568Y292820D01*
X262661Y292782D01*
X262756Y292748D01*
X262851Y292717D01*
X262948Y292690D01*
X263046Y292667D01*
X263145Y292647D01*
X263245Y292632D01*
X263345Y292620D01*
X263445Y292612D01*
X263546Y292608D01*
X263646Y292608D01*
X263747Y292612D01*
X263847Y292620D01*
X263947Y292632D01*
X264047Y292647D01*
X264146Y292667D01*
X264244Y292690D01*
X264341Y292717D01*
X264436Y292748D01*
X264531Y292782D01*
X264624Y292820D01*
X264716Y292862D01*
X264806Y292907D01*
X264894Y292956D01*
X264980Y293008D01*
X265064Y293063D01*
X265146Y293122D01*
X265226Y293183D01*
X265303Y293248D01*
X265377Y293316D01*
X265449Y293386D01*
X265518Y293459D01*
X265585Y293535D01*
X265648Y293614D01*
X265708Y293694D01*
X265765Y293777D01*
X265819Y293863D01*
X265869Y293950D01*
X265916Y294039D01*
X265959Y294130D01*
X265999Y294222D01*
X266035Y294316D01*
X266068Y294411D01*
X266097Y294508D01*
X266122Y294605D01*
X266143Y294704D01*
X266161Y294803D01*
X266174Y294903D01*
X266184Y295003D01*
X266190Y295103D01*
X266192Y295204D01*
X255847Y292608D02*
X255847Y304292D01*
X255847Y292608D02*
X252601Y292608D01*
X252514Y292610D01*
X252426Y292616D01*
X252340Y292626D01*
X252253Y292639D01*
X252168Y292657D01*
X252083Y292678D01*
X251999Y292703D01*
X251917Y292732D01*
X251836Y292765D01*
X251756Y292801D01*
X251678Y292840D01*
X251602Y292884D01*
X251528Y292930D01*
X251457Y292980D01*
X251387Y293033D01*
X251320Y293089D01*
X251256Y293148D01*
X251194Y293209D01*
X251135Y293274D01*
X251079Y293341D01*
X251026Y293411D01*
X250976Y293482D01*
X250930Y293556D01*
X250887Y293632D01*
X250847Y293710D01*
X250811Y293790D01*
X250778Y293871D01*
X250749Y293953D01*
X250724Y294037D01*
X250703Y294122D01*
X250685Y294207D01*
X250672Y294294D01*
X250662Y294380D01*
X250656Y294468D01*
X250654Y294555D01*
X250654Y298450D01*
X250656Y298537D01*
X250662Y298625D01*
X250672Y298711D01*
X250685Y298798D01*
X250703Y298883D01*
X250724Y298968D01*
X250749Y299052D01*
X250778Y299134D01*
X250811Y299215D01*
X250847Y299295D01*
X250886Y299373D01*
X250930Y299449D01*
X250976Y299523D01*
X251026Y299594D01*
X251079Y299664D01*
X251135Y299731D01*
X251194Y299796D01*
X251256Y299857D01*
X251320Y299916D01*
X251387Y299972D01*
X251457Y300025D01*
X251528Y300075D01*
X251602Y300121D01*
X251678Y300165D01*
X251756Y300204D01*
X251836Y300240D01*
X251917Y300273D01*
X251999Y300302D01*
X252083Y300327D01*
X252168Y300348D01*
X252253Y300366D01*
X252340Y300379D01*
X252427Y300389D01*
X252514Y300395D01*
X252601Y300397D01*
X255847Y300397D01*
X245560Y304292D02*
X245560Y292608D01*
X242314Y292608D01*
X242227Y292610D01*
X242139Y292616D01*
X242053Y292626D01*
X241966Y292639D01*
X241881Y292657D01*
X241796Y292678D01*
X241712Y292703D01*
X241630Y292732D01*
X241549Y292765D01*
X241469Y292801D01*
X241391Y292840D01*
X241315Y292884D01*
X241241Y292930D01*
X241170Y292980D01*
X241100Y293033D01*
X241033Y293089D01*
X240969Y293148D01*
X240907Y293209D01*
X240848Y293274D01*
X240792Y293341D01*
X240739Y293411D01*
X240689Y293482D01*
X240643Y293556D01*
X240600Y293632D01*
X240560Y293710D01*
X240524Y293790D01*
X240491Y293871D01*
X240462Y293953D01*
X240437Y294037D01*
X240416Y294122D01*
X240398Y294207D01*
X240385Y294294D01*
X240375Y294380D01*
X240369Y294468D01*
X240367Y294555D01*
X240367Y298450D01*
X240369Y298537D01*
X240375Y298625D01*
X240385Y298711D01*
X240398Y298798D01*
X240416Y298883D01*
X240437Y298968D01*
X240462Y299052D01*
X240491Y299134D01*
X240524Y299215D01*
X240560Y299295D01*
X240599Y299373D01*
X240643Y299449D01*
X240689Y299523D01*
X240739Y299594D01*
X240792Y299664D01*
X240848Y299731D01*
X240907Y299796D01*
X240969Y299857D01*
X241033Y299916D01*
X241100Y299972D01*
X241170Y300025D01*
X241241Y300075D01*
X241315Y300121D01*
X241391Y300165D01*
X241469Y300204D01*
X241549Y300240D01*
X241630Y300273D01*
X241712Y300302D01*
X241796Y300327D01*
X241881Y300348D01*
X241966Y300366D01*
X242053Y300379D01*
X242140Y300389D01*
X242227Y300395D01*
X242314Y300397D01*
X245560Y300397D01*
X236093Y288713D02*
X234795Y288713D01*
X230901Y300397D01*
X236093Y300397D02*
X233497Y292608D01*
D12*
X245110Y497840D02*
X288290Y497840D01*
X245110Y518160D02*
X245010Y518158D01*
X244911Y518152D01*
X244811Y518142D01*
X244713Y518129D01*
X244614Y518111D01*
X244517Y518090D01*
X244421Y518065D01*
X244325Y518036D01*
X244231Y518003D01*
X244138Y517967D01*
X244047Y517927D01*
X243957Y517883D01*
X243869Y517836D01*
X243783Y517786D01*
X243699Y517732D01*
X243617Y517675D01*
X243538Y517615D01*
X243460Y517551D01*
X243386Y517485D01*
X243314Y517416D01*
X243245Y517344D01*
X243179Y517270D01*
X243115Y517192D01*
X243055Y517113D01*
X242998Y517031D01*
X242944Y516947D01*
X242894Y516861D01*
X242847Y516773D01*
X242803Y516683D01*
X242763Y516592D01*
X242727Y516499D01*
X242694Y516405D01*
X242665Y516309D01*
X242640Y516213D01*
X242619Y516116D01*
X242601Y516017D01*
X242588Y515919D01*
X242578Y515819D01*
X242572Y515720D01*
X242570Y515620D01*
X288290Y518160D02*
X288390Y518158D01*
X288489Y518152D01*
X288589Y518142D01*
X288687Y518129D01*
X288786Y518111D01*
X288883Y518090D01*
X288979Y518065D01*
X289075Y518036D01*
X289169Y518003D01*
X289262Y517967D01*
X289353Y517927D01*
X289443Y517883D01*
X289531Y517836D01*
X289617Y517786D01*
X289701Y517732D01*
X289783Y517675D01*
X289862Y517615D01*
X289940Y517551D01*
X290014Y517485D01*
X290086Y517416D01*
X290155Y517344D01*
X290221Y517270D01*
X290285Y517192D01*
X290345Y517113D01*
X290402Y517031D01*
X290456Y516947D01*
X290506Y516861D01*
X290553Y516773D01*
X290597Y516683D01*
X290637Y516592D01*
X290673Y516499D01*
X290706Y516405D01*
X290735Y516309D01*
X290760Y516213D01*
X290781Y516116D01*
X290799Y516017D01*
X290812Y515919D01*
X290822Y515819D01*
X290828Y515720D01*
X290830Y515620D01*
X290830Y500380D02*
X290828Y500280D01*
X290822Y500181D01*
X290812Y500081D01*
X290799Y499983D01*
X290781Y499884D01*
X290760Y499787D01*
X290735Y499691D01*
X290706Y499595D01*
X290673Y499501D01*
X290637Y499408D01*
X290597Y499317D01*
X290553Y499227D01*
X290506Y499139D01*
X290456Y499053D01*
X290402Y498969D01*
X290345Y498887D01*
X290285Y498808D01*
X290221Y498730D01*
X290155Y498656D01*
X290086Y498584D01*
X290014Y498515D01*
X289940Y498449D01*
X289862Y498385D01*
X289783Y498325D01*
X289701Y498268D01*
X289617Y498214D01*
X289531Y498164D01*
X289443Y498117D01*
X289353Y498073D01*
X289262Y498033D01*
X289169Y497997D01*
X289075Y497964D01*
X288979Y497935D01*
X288883Y497910D01*
X288786Y497889D01*
X288687Y497871D01*
X288589Y497858D01*
X288489Y497848D01*
X288390Y497842D01*
X288290Y497840D01*
X245110Y497840D02*
X245010Y497842D01*
X244911Y497848D01*
X244811Y497858D01*
X244713Y497871D01*
X244614Y497889D01*
X244517Y497910D01*
X244421Y497935D01*
X244325Y497964D01*
X244231Y497997D01*
X244138Y498033D01*
X244047Y498073D01*
X243957Y498117D01*
X243869Y498164D01*
X243783Y498214D01*
X243699Y498268D01*
X243617Y498325D01*
X243538Y498385D01*
X243460Y498449D01*
X243386Y498515D01*
X243314Y498584D01*
X243245Y498656D01*
X243179Y498730D01*
X243115Y498808D01*
X243055Y498887D01*
X242998Y498969D01*
X242944Y499053D01*
X242894Y499139D01*
X242847Y499227D01*
X242803Y499317D01*
X242763Y499408D01*
X242727Y499501D01*
X242694Y499595D01*
X242665Y499691D01*
X242640Y499787D01*
X242619Y499884D01*
X242601Y499983D01*
X242588Y500081D01*
X242578Y500181D01*
X242572Y500280D01*
X242570Y500380D01*
X242570Y515620D01*
X290830Y515620D02*
X290830Y500380D01*
X288290Y518160D02*
X245110Y518160D01*
D13*
X283845Y523875D02*
X283847Y523775D01*
X283853Y523676D01*
X283863Y523576D01*
X283876Y523478D01*
X283894Y523379D01*
X283915Y523282D01*
X283940Y523186D01*
X283969Y523090D01*
X284002Y522996D01*
X284038Y522903D01*
X284078Y522812D01*
X284122Y522722D01*
X284169Y522634D01*
X284219Y522548D01*
X284273Y522464D01*
X284330Y522382D01*
X284390Y522303D01*
X284454Y522225D01*
X284520Y522151D01*
X284589Y522079D01*
X284661Y522010D01*
X284735Y521944D01*
X284813Y521880D01*
X284892Y521820D01*
X284974Y521763D01*
X285058Y521709D01*
X285144Y521659D01*
X285232Y521612D01*
X285322Y521568D01*
X285413Y521528D01*
X285506Y521492D01*
X285600Y521459D01*
X285696Y521430D01*
X285792Y521405D01*
X285889Y521384D01*
X285988Y521366D01*
X286086Y521353D01*
X286186Y521343D01*
X286285Y521337D01*
X286385Y521335D01*
X286526Y521337D01*
X286667Y521342D01*
X286808Y521352D01*
X286949Y521365D01*
X287089Y521381D01*
X287229Y521402D01*
X287368Y521426D01*
X287507Y521454D01*
X287644Y521485D01*
X287781Y521520D01*
X287917Y521558D01*
X288052Y521600D01*
X288185Y521646D01*
X288318Y521695D01*
X288449Y521748D01*
X288578Y521804D01*
X288707Y521863D01*
X288833Y521926D01*
X288958Y521992D01*
X289081Y522061D01*
X289202Y522134D01*
X289321Y522210D01*
X289439Y522289D01*
X289554Y522370D01*
X289666Y522455D01*
X289777Y522543D01*
X289885Y522634D01*
X289991Y522727D01*
X290094Y522824D01*
X290195Y522923D01*
X289878Y530225D02*
X289876Y530325D01*
X289870Y530424D01*
X289860Y530524D01*
X289847Y530622D01*
X289829Y530721D01*
X289808Y530818D01*
X289783Y530914D01*
X289754Y531010D01*
X289721Y531104D01*
X289685Y531197D01*
X289645Y531288D01*
X289601Y531378D01*
X289554Y531466D01*
X289504Y531552D01*
X289450Y531636D01*
X289393Y531718D01*
X289333Y531797D01*
X289269Y531875D01*
X289203Y531949D01*
X289134Y532021D01*
X289062Y532090D01*
X288988Y532156D01*
X288910Y532220D01*
X288831Y532280D01*
X288749Y532337D01*
X288665Y532391D01*
X288579Y532441D01*
X288491Y532488D01*
X288401Y532532D01*
X288310Y532572D01*
X288217Y532608D01*
X288123Y532641D01*
X288027Y532670D01*
X287931Y532695D01*
X287834Y532716D01*
X287735Y532734D01*
X287637Y532747D01*
X287537Y532757D01*
X287438Y532763D01*
X287338Y532765D01*
X287338Y532766D02*
X287205Y532764D01*
X287072Y532759D01*
X286939Y532749D01*
X286806Y532736D01*
X286674Y532719D01*
X286542Y532699D01*
X286411Y532675D01*
X286281Y532647D01*
X286151Y532616D01*
X286023Y532581D01*
X285895Y532542D01*
X285769Y532500D01*
X285644Y532454D01*
X285520Y532405D01*
X285397Y532353D01*
X285276Y532297D01*
X285157Y532237D01*
X285039Y532175D01*
X284924Y532109D01*
X284810Y532040D01*
X284698Y531967D01*
X284588Y531892D01*
X284480Y531813D01*
X288608Y528002D02*
X288692Y528054D01*
X288775Y528109D01*
X288855Y528168D01*
X288933Y528229D01*
X289008Y528293D01*
X289081Y528361D01*
X289152Y528431D01*
X289219Y528503D01*
X289284Y528578D01*
X289346Y528656D01*
X289405Y528736D01*
X289461Y528818D01*
X289513Y528902D01*
X289562Y528988D01*
X289608Y529076D01*
X289651Y529166D01*
X289690Y529257D01*
X289725Y529350D01*
X289757Y529444D01*
X289785Y529539D01*
X289810Y529635D01*
X289830Y529732D01*
X289848Y529830D01*
X289861Y529928D01*
X289870Y530027D01*
X289876Y530126D01*
X289878Y530225D01*
X285115Y526098D02*
X285031Y526046D01*
X284948Y525991D01*
X284868Y525932D01*
X284790Y525871D01*
X284715Y525807D01*
X284642Y525739D01*
X284571Y525669D01*
X284504Y525597D01*
X284439Y525522D01*
X284377Y525444D01*
X284318Y525364D01*
X284262Y525282D01*
X284210Y525198D01*
X284161Y525112D01*
X284115Y525024D01*
X284072Y524934D01*
X284033Y524843D01*
X283998Y524750D01*
X283966Y524656D01*
X283938Y524561D01*
X283913Y524465D01*
X283893Y524368D01*
X283875Y524270D01*
X283862Y524172D01*
X283853Y524073D01*
X283847Y523974D01*
X283845Y523875D01*
X285115Y526098D02*
X288608Y528003D01*
X276554Y523875D02*
X276554Y532765D01*
X276554Y523875D02*
X276556Y523775D01*
X276562Y523676D01*
X276572Y523576D01*
X276585Y523478D01*
X276603Y523379D01*
X276624Y523282D01*
X276649Y523186D01*
X276678Y523090D01*
X276711Y522996D01*
X276747Y522903D01*
X276787Y522812D01*
X276831Y522722D01*
X276878Y522634D01*
X276928Y522548D01*
X276982Y522464D01*
X277039Y522382D01*
X277099Y522303D01*
X277163Y522225D01*
X277229Y522151D01*
X277298Y522079D01*
X277370Y522010D01*
X277444Y521944D01*
X277522Y521880D01*
X277601Y521820D01*
X277683Y521763D01*
X277767Y521709D01*
X277853Y521659D01*
X277941Y521612D01*
X278031Y521568D01*
X278122Y521528D01*
X278215Y521492D01*
X278309Y521459D01*
X278405Y521430D01*
X278501Y521405D01*
X278598Y521384D01*
X278697Y521366D01*
X278795Y521353D01*
X278895Y521343D01*
X278994Y521337D01*
X279094Y521335D01*
X280364Y521335D01*
X271145Y530225D02*
X267970Y532765D01*
X267970Y521335D01*
X271145Y521335D02*
X264795Y521335D01*
D12*
X321310Y497840D02*
X364490Y497840D01*
X321310Y518160D02*
X321210Y518158D01*
X321111Y518152D01*
X321011Y518142D01*
X320913Y518129D01*
X320814Y518111D01*
X320717Y518090D01*
X320621Y518065D01*
X320525Y518036D01*
X320431Y518003D01*
X320338Y517967D01*
X320247Y517927D01*
X320157Y517883D01*
X320069Y517836D01*
X319983Y517786D01*
X319899Y517732D01*
X319817Y517675D01*
X319738Y517615D01*
X319660Y517551D01*
X319586Y517485D01*
X319514Y517416D01*
X319445Y517344D01*
X319379Y517270D01*
X319315Y517192D01*
X319255Y517113D01*
X319198Y517031D01*
X319144Y516947D01*
X319094Y516861D01*
X319047Y516773D01*
X319003Y516683D01*
X318963Y516592D01*
X318927Y516499D01*
X318894Y516405D01*
X318865Y516309D01*
X318840Y516213D01*
X318819Y516116D01*
X318801Y516017D01*
X318788Y515919D01*
X318778Y515819D01*
X318772Y515720D01*
X318770Y515620D01*
X364490Y518160D02*
X364590Y518158D01*
X364689Y518152D01*
X364789Y518142D01*
X364887Y518129D01*
X364986Y518111D01*
X365083Y518090D01*
X365179Y518065D01*
X365275Y518036D01*
X365369Y518003D01*
X365462Y517967D01*
X365553Y517927D01*
X365643Y517883D01*
X365731Y517836D01*
X365817Y517786D01*
X365901Y517732D01*
X365983Y517675D01*
X366062Y517615D01*
X366140Y517551D01*
X366214Y517485D01*
X366286Y517416D01*
X366355Y517344D01*
X366421Y517270D01*
X366485Y517192D01*
X366545Y517113D01*
X366602Y517031D01*
X366656Y516947D01*
X366706Y516861D01*
X366753Y516773D01*
X366797Y516683D01*
X366837Y516592D01*
X366873Y516499D01*
X366906Y516405D01*
X366935Y516309D01*
X366960Y516213D01*
X366981Y516116D01*
X366999Y516017D01*
X367012Y515919D01*
X367022Y515819D01*
X367028Y515720D01*
X367030Y515620D01*
X367030Y500380D02*
X367028Y500280D01*
X367022Y500181D01*
X367012Y500081D01*
X366999Y499983D01*
X366981Y499884D01*
X366960Y499787D01*
X366935Y499691D01*
X366906Y499595D01*
X366873Y499501D01*
X366837Y499408D01*
X366797Y499317D01*
X366753Y499227D01*
X366706Y499139D01*
X366656Y499053D01*
X366602Y498969D01*
X366545Y498887D01*
X366485Y498808D01*
X366421Y498730D01*
X366355Y498656D01*
X366286Y498584D01*
X366214Y498515D01*
X366140Y498449D01*
X366062Y498385D01*
X365983Y498325D01*
X365901Y498268D01*
X365817Y498214D01*
X365731Y498164D01*
X365643Y498117D01*
X365553Y498073D01*
X365462Y498033D01*
X365369Y497997D01*
X365275Y497964D01*
X365179Y497935D01*
X365083Y497910D01*
X364986Y497889D01*
X364887Y497871D01*
X364789Y497858D01*
X364689Y497848D01*
X364590Y497842D01*
X364490Y497840D01*
X321310Y497840D02*
X321210Y497842D01*
X321111Y497848D01*
X321011Y497858D01*
X320913Y497871D01*
X320814Y497889D01*
X320717Y497910D01*
X320621Y497935D01*
X320525Y497964D01*
X320431Y497997D01*
X320338Y498033D01*
X320247Y498073D01*
X320157Y498117D01*
X320069Y498164D01*
X319983Y498214D01*
X319899Y498268D01*
X319817Y498325D01*
X319738Y498385D01*
X319660Y498449D01*
X319586Y498515D01*
X319514Y498584D01*
X319445Y498656D01*
X319379Y498730D01*
X319315Y498808D01*
X319255Y498887D01*
X319198Y498969D01*
X319144Y499053D01*
X319094Y499139D01*
X319047Y499227D01*
X319003Y499317D01*
X318963Y499408D01*
X318927Y499501D01*
X318894Y499595D01*
X318865Y499691D01*
X318840Y499787D01*
X318819Y499884D01*
X318801Y499983D01*
X318788Y500081D01*
X318778Y500181D01*
X318772Y500280D01*
X318770Y500380D01*
X318770Y515620D01*
X367030Y515620D02*
X367030Y500380D01*
X364490Y518160D02*
X321310Y518160D01*
D13*
X360045Y523875D02*
X360047Y523775D01*
X360053Y523676D01*
X360063Y523576D01*
X360076Y523478D01*
X360094Y523379D01*
X360115Y523282D01*
X360140Y523186D01*
X360169Y523090D01*
X360202Y522996D01*
X360238Y522903D01*
X360278Y522812D01*
X360322Y522722D01*
X360369Y522634D01*
X360419Y522548D01*
X360473Y522464D01*
X360530Y522382D01*
X360590Y522303D01*
X360654Y522225D01*
X360720Y522151D01*
X360789Y522079D01*
X360861Y522010D01*
X360935Y521944D01*
X361013Y521880D01*
X361092Y521820D01*
X361174Y521763D01*
X361258Y521709D01*
X361344Y521659D01*
X361432Y521612D01*
X361522Y521568D01*
X361613Y521528D01*
X361706Y521492D01*
X361800Y521459D01*
X361896Y521430D01*
X361992Y521405D01*
X362089Y521384D01*
X362188Y521366D01*
X362286Y521353D01*
X362386Y521343D01*
X362485Y521337D01*
X362585Y521335D01*
X362726Y521337D01*
X362867Y521342D01*
X363008Y521352D01*
X363149Y521365D01*
X363289Y521381D01*
X363429Y521402D01*
X363568Y521426D01*
X363707Y521454D01*
X363844Y521485D01*
X363981Y521520D01*
X364117Y521558D01*
X364252Y521600D01*
X364385Y521646D01*
X364518Y521695D01*
X364649Y521748D01*
X364778Y521804D01*
X364907Y521863D01*
X365033Y521926D01*
X365158Y521992D01*
X365281Y522061D01*
X365402Y522134D01*
X365521Y522210D01*
X365639Y522289D01*
X365754Y522370D01*
X365866Y522455D01*
X365977Y522543D01*
X366085Y522634D01*
X366191Y522727D01*
X366294Y522824D01*
X366395Y522923D01*
X366078Y530225D02*
X366076Y530325D01*
X366070Y530424D01*
X366060Y530524D01*
X366047Y530622D01*
X366029Y530721D01*
X366008Y530818D01*
X365983Y530914D01*
X365954Y531010D01*
X365921Y531104D01*
X365885Y531197D01*
X365845Y531288D01*
X365801Y531378D01*
X365754Y531466D01*
X365704Y531552D01*
X365650Y531636D01*
X365593Y531718D01*
X365533Y531797D01*
X365469Y531875D01*
X365403Y531949D01*
X365334Y532021D01*
X365262Y532090D01*
X365188Y532156D01*
X365110Y532220D01*
X365031Y532280D01*
X364949Y532337D01*
X364865Y532391D01*
X364779Y532441D01*
X364691Y532488D01*
X364601Y532532D01*
X364510Y532572D01*
X364417Y532608D01*
X364323Y532641D01*
X364227Y532670D01*
X364131Y532695D01*
X364034Y532716D01*
X363935Y532734D01*
X363837Y532747D01*
X363737Y532757D01*
X363638Y532763D01*
X363538Y532765D01*
X363538Y532766D02*
X363405Y532764D01*
X363272Y532759D01*
X363139Y532749D01*
X363006Y532736D01*
X362874Y532719D01*
X362742Y532699D01*
X362611Y532675D01*
X362481Y532647D01*
X362351Y532616D01*
X362223Y532581D01*
X362095Y532542D01*
X361969Y532500D01*
X361844Y532454D01*
X361720Y532405D01*
X361597Y532353D01*
X361476Y532297D01*
X361357Y532237D01*
X361239Y532175D01*
X361124Y532109D01*
X361010Y532040D01*
X360898Y531967D01*
X360788Y531892D01*
X360680Y531813D01*
X364808Y528002D02*
X364892Y528054D01*
X364975Y528109D01*
X365055Y528168D01*
X365133Y528229D01*
X365208Y528293D01*
X365281Y528361D01*
X365352Y528431D01*
X365419Y528503D01*
X365484Y528578D01*
X365546Y528656D01*
X365605Y528736D01*
X365661Y528818D01*
X365713Y528902D01*
X365762Y528988D01*
X365808Y529076D01*
X365851Y529166D01*
X365890Y529257D01*
X365925Y529350D01*
X365957Y529444D01*
X365985Y529539D01*
X366010Y529635D01*
X366030Y529732D01*
X366048Y529830D01*
X366061Y529928D01*
X366070Y530027D01*
X366076Y530126D01*
X366078Y530225D01*
X361315Y526098D02*
X361231Y526046D01*
X361148Y525991D01*
X361068Y525932D01*
X360990Y525871D01*
X360915Y525807D01*
X360842Y525739D01*
X360771Y525669D01*
X360704Y525597D01*
X360639Y525522D01*
X360577Y525444D01*
X360518Y525364D01*
X360462Y525282D01*
X360410Y525198D01*
X360361Y525112D01*
X360315Y525024D01*
X360272Y524934D01*
X360233Y524843D01*
X360198Y524750D01*
X360166Y524656D01*
X360138Y524561D01*
X360113Y524465D01*
X360093Y524368D01*
X360075Y524270D01*
X360062Y524172D01*
X360053Y524073D01*
X360047Y523974D01*
X360045Y523875D01*
X361315Y526098D02*
X364808Y528003D01*
X352754Y523875D02*
X352754Y532765D01*
X352754Y523875D02*
X352756Y523775D01*
X352762Y523676D01*
X352772Y523576D01*
X352785Y523478D01*
X352803Y523379D01*
X352824Y523282D01*
X352849Y523186D01*
X352878Y523090D01*
X352911Y522996D01*
X352947Y522903D01*
X352987Y522812D01*
X353031Y522722D01*
X353078Y522634D01*
X353128Y522548D01*
X353182Y522464D01*
X353239Y522382D01*
X353299Y522303D01*
X353363Y522225D01*
X353429Y522151D01*
X353498Y522079D01*
X353570Y522010D01*
X353644Y521944D01*
X353722Y521880D01*
X353801Y521820D01*
X353883Y521763D01*
X353967Y521709D01*
X354053Y521659D01*
X354141Y521612D01*
X354231Y521568D01*
X354322Y521528D01*
X354415Y521492D01*
X354509Y521459D01*
X354605Y521430D01*
X354701Y521405D01*
X354798Y521384D01*
X354897Y521366D01*
X354995Y521353D01*
X355095Y521343D01*
X355194Y521337D01*
X355294Y521335D01*
X356564Y521335D01*
X343853Y532766D02*
X343749Y532764D01*
X343644Y532758D01*
X343540Y532749D01*
X343437Y532736D01*
X343334Y532718D01*
X343232Y532698D01*
X343130Y532673D01*
X343030Y532645D01*
X342930Y532613D01*
X342832Y532577D01*
X342735Y532538D01*
X342640Y532496D01*
X342546Y532450D01*
X342454Y532400D01*
X342364Y532348D01*
X342276Y532292D01*
X342190Y532232D01*
X342106Y532170D01*
X342025Y532105D01*
X341946Y532037D01*
X341869Y531965D01*
X341796Y531892D01*
X341724Y531815D01*
X341656Y531736D01*
X341591Y531655D01*
X341529Y531571D01*
X341469Y531485D01*
X341413Y531397D01*
X341361Y531307D01*
X341311Y531215D01*
X341265Y531121D01*
X341223Y531026D01*
X341184Y530929D01*
X341148Y530831D01*
X341116Y530731D01*
X341088Y530631D01*
X341063Y530529D01*
X341043Y530427D01*
X341025Y530324D01*
X341012Y530221D01*
X341003Y530117D01*
X340997Y530012D01*
X340995Y529908D01*
X343853Y532765D02*
X343971Y532763D01*
X344090Y532757D01*
X344208Y532748D01*
X344325Y532735D01*
X344442Y532717D01*
X344559Y532697D01*
X344675Y532672D01*
X344790Y532644D01*
X344903Y532611D01*
X345016Y532576D01*
X345128Y532536D01*
X345238Y532494D01*
X345347Y532447D01*
X345455Y532397D01*
X345560Y532344D01*
X345664Y532287D01*
X345766Y532227D01*
X345866Y532164D01*
X345964Y532097D01*
X346060Y532028D01*
X346153Y531955D01*
X346244Y531879D01*
X346333Y531801D01*
X346419Y531719D01*
X346502Y531635D01*
X346583Y531549D01*
X346660Y531459D01*
X346735Y531368D01*
X346807Y531274D01*
X346876Y531177D01*
X346941Y531079D01*
X347004Y530978D01*
X347063Y530875D01*
X347119Y530771D01*
X347171Y530665D01*
X347220Y530557D01*
X347265Y530448D01*
X347307Y530337D01*
X347345Y530225D01*
X341947Y527686D02*
X341871Y527761D01*
X341796Y527840D01*
X341725Y527921D01*
X341656Y528005D01*
X341591Y528091D01*
X341529Y528179D01*
X341469Y528269D01*
X341413Y528361D01*
X341360Y528456D01*
X341311Y528552D01*
X341265Y528650D01*
X341222Y528749D01*
X341183Y528850D01*
X341148Y528952D01*
X341116Y529055D01*
X341088Y529159D01*
X341063Y529264D01*
X341042Y529371D01*
X341025Y529477D01*
X341012Y529584D01*
X341003Y529692D01*
X340997Y529800D01*
X340995Y529908D01*
X341948Y527685D02*
X347345Y521335D01*
X340995Y521335D01*
D12*
X397510Y497840D02*
X440690Y497840D01*
X397510Y518160D02*
X397410Y518158D01*
X397311Y518152D01*
X397211Y518142D01*
X397113Y518129D01*
X397014Y518111D01*
X396917Y518090D01*
X396821Y518065D01*
X396725Y518036D01*
X396631Y518003D01*
X396538Y517967D01*
X396447Y517927D01*
X396357Y517883D01*
X396269Y517836D01*
X396183Y517786D01*
X396099Y517732D01*
X396017Y517675D01*
X395938Y517615D01*
X395860Y517551D01*
X395786Y517485D01*
X395714Y517416D01*
X395645Y517344D01*
X395579Y517270D01*
X395515Y517192D01*
X395455Y517113D01*
X395398Y517031D01*
X395344Y516947D01*
X395294Y516861D01*
X395247Y516773D01*
X395203Y516683D01*
X395163Y516592D01*
X395127Y516499D01*
X395094Y516405D01*
X395065Y516309D01*
X395040Y516213D01*
X395019Y516116D01*
X395001Y516017D01*
X394988Y515919D01*
X394978Y515819D01*
X394972Y515720D01*
X394970Y515620D01*
X440690Y518160D02*
X440790Y518158D01*
X440889Y518152D01*
X440989Y518142D01*
X441087Y518129D01*
X441186Y518111D01*
X441283Y518090D01*
X441379Y518065D01*
X441475Y518036D01*
X441569Y518003D01*
X441662Y517967D01*
X441753Y517927D01*
X441843Y517883D01*
X441931Y517836D01*
X442017Y517786D01*
X442101Y517732D01*
X442183Y517675D01*
X442262Y517615D01*
X442340Y517551D01*
X442414Y517485D01*
X442486Y517416D01*
X442555Y517344D01*
X442621Y517270D01*
X442685Y517192D01*
X442745Y517113D01*
X442802Y517031D01*
X442856Y516947D01*
X442906Y516861D01*
X442953Y516773D01*
X442997Y516683D01*
X443037Y516592D01*
X443073Y516499D01*
X443106Y516405D01*
X443135Y516309D01*
X443160Y516213D01*
X443181Y516116D01*
X443199Y516017D01*
X443212Y515919D01*
X443222Y515819D01*
X443228Y515720D01*
X443230Y515620D01*
X443230Y500380D02*
X443228Y500280D01*
X443222Y500181D01*
X443212Y500081D01*
X443199Y499983D01*
X443181Y499884D01*
X443160Y499787D01*
X443135Y499691D01*
X443106Y499595D01*
X443073Y499501D01*
X443037Y499408D01*
X442997Y499317D01*
X442953Y499227D01*
X442906Y499139D01*
X442856Y499053D01*
X442802Y498969D01*
X442745Y498887D01*
X442685Y498808D01*
X442621Y498730D01*
X442555Y498656D01*
X442486Y498584D01*
X442414Y498515D01*
X442340Y498449D01*
X442262Y498385D01*
X442183Y498325D01*
X442101Y498268D01*
X442017Y498214D01*
X441931Y498164D01*
X441843Y498117D01*
X441753Y498073D01*
X441662Y498033D01*
X441569Y497997D01*
X441475Y497964D01*
X441379Y497935D01*
X441283Y497910D01*
X441186Y497889D01*
X441087Y497871D01*
X440989Y497858D01*
X440889Y497848D01*
X440790Y497842D01*
X440690Y497840D01*
X397510Y497840D02*
X397410Y497842D01*
X397311Y497848D01*
X397211Y497858D01*
X397113Y497871D01*
X397014Y497889D01*
X396917Y497910D01*
X396821Y497935D01*
X396725Y497964D01*
X396631Y497997D01*
X396538Y498033D01*
X396447Y498073D01*
X396357Y498117D01*
X396269Y498164D01*
X396183Y498214D01*
X396099Y498268D01*
X396017Y498325D01*
X395938Y498385D01*
X395860Y498449D01*
X395786Y498515D01*
X395714Y498584D01*
X395645Y498656D01*
X395579Y498730D01*
X395515Y498808D01*
X395455Y498887D01*
X395398Y498969D01*
X395344Y499053D01*
X395294Y499139D01*
X395247Y499227D01*
X395203Y499317D01*
X395163Y499408D01*
X395127Y499501D01*
X395094Y499595D01*
X395065Y499691D01*
X395040Y499787D01*
X395019Y499884D01*
X395001Y499983D01*
X394988Y500081D01*
X394978Y500181D01*
X394972Y500280D01*
X394970Y500380D01*
X394970Y515620D01*
X443230Y515620D02*
X443230Y500380D01*
X440690Y518160D02*
X397510Y518160D01*
D13*
X436245Y523875D02*
X436247Y523775D01*
X436253Y523676D01*
X436263Y523576D01*
X436276Y523478D01*
X436294Y523379D01*
X436315Y523282D01*
X436340Y523186D01*
X436369Y523090D01*
X436402Y522996D01*
X436438Y522903D01*
X436478Y522812D01*
X436522Y522722D01*
X436569Y522634D01*
X436619Y522548D01*
X436673Y522464D01*
X436730Y522382D01*
X436790Y522303D01*
X436854Y522225D01*
X436920Y522151D01*
X436989Y522079D01*
X437061Y522010D01*
X437135Y521944D01*
X437213Y521880D01*
X437292Y521820D01*
X437374Y521763D01*
X437458Y521709D01*
X437544Y521659D01*
X437632Y521612D01*
X437722Y521568D01*
X437813Y521528D01*
X437906Y521492D01*
X438000Y521459D01*
X438096Y521430D01*
X438192Y521405D01*
X438289Y521384D01*
X438388Y521366D01*
X438486Y521353D01*
X438586Y521343D01*
X438685Y521337D01*
X438785Y521335D01*
X438926Y521337D01*
X439067Y521342D01*
X439208Y521352D01*
X439349Y521365D01*
X439489Y521381D01*
X439629Y521402D01*
X439768Y521426D01*
X439907Y521454D01*
X440044Y521485D01*
X440181Y521520D01*
X440317Y521558D01*
X440452Y521600D01*
X440585Y521646D01*
X440718Y521695D01*
X440849Y521748D01*
X440978Y521804D01*
X441107Y521863D01*
X441233Y521926D01*
X441358Y521992D01*
X441481Y522061D01*
X441602Y522134D01*
X441721Y522210D01*
X441839Y522289D01*
X441954Y522370D01*
X442066Y522455D01*
X442177Y522543D01*
X442285Y522634D01*
X442391Y522727D01*
X442494Y522824D01*
X442595Y522923D01*
X442278Y530225D02*
X442276Y530325D01*
X442270Y530424D01*
X442260Y530524D01*
X442247Y530622D01*
X442229Y530721D01*
X442208Y530818D01*
X442183Y530914D01*
X442154Y531010D01*
X442121Y531104D01*
X442085Y531197D01*
X442045Y531288D01*
X442001Y531378D01*
X441954Y531466D01*
X441904Y531552D01*
X441850Y531636D01*
X441793Y531718D01*
X441733Y531797D01*
X441669Y531875D01*
X441603Y531949D01*
X441534Y532021D01*
X441462Y532090D01*
X441388Y532156D01*
X441310Y532220D01*
X441231Y532280D01*
X441149Y532337D01*
X441065Y532391D01*
X440979Y532441D01*
X440891Y532488D01*
X440801Y532532D01*
X440710Y532572D01*
X440617Y532608D01*
X440523Y532641D01*
X440427Y532670D01*
X440331Y532695D01*
X440234Y532716D01*
X440135Y532734D01*
X440037Y532747D01*
X439937Y532757D01*
X439838Y532763D01*
X439738Y532765D01*
X439738Y532766D02*
X439605Y532764D01*
X439472Y532759D01*
X439339Y532749D01*
X439206Y532736D01*
X439074Y532719D01*
X438942Y532699D01*
X438811Y532675D01*
X438681Y532647D01*
X438551Y532616D01*
X438423Y532581D01*
X438295Y532542D01*
X438169Y532500D01*
X438044Y532454D01*
X437920Y532405D01*
X437797Y532353D01*
X437676Y532297D01*
X437557Y532237D01*
X437439Y532175D01*
X437324Y532109D01*
X437210Y532040D01*
X437098Y531967D01*
X436988Y531892D01*
X436880Y531813D01*
X441008Y528002D02*
X441092Y528054D01*
X441175Y528109D01*
X441255Y528168D01*
X441333Y528229D01*
X441408Y528293D01*
X441481Y528361D01*
X441552Y528431D01*
X441619Y528503D01*
X441684Y528578D01*
X441746Y528656D01*
X441805Y528736D01*
X441861Y528818D01*
X441913Y528902D01*
X441962Y528988D01*
X442008Y529076D01*
X442051Y529166D01*
X442090Y529257D01*
X442125Y529350D01*
X442157Y529444D01*
X442185Y529539D01*
X442210Y529635D01*
X442230Y529732D01*
X442248Y529830D01*
X442261Y529928D01*
X442270Y530027D01*
X442276Y530126D01*
X442278Y530225D01*
X437515Y526098D02*
X437431Y526046D01*
X437348Y525991D01*
X437268Y525932D01*
X437190Y525871D01*
X437115Y525807D01*
X437042Y525739D01*
X436971Y525669D01*
X436904Y525597D01*
X436839Y525522D01*
X436777Y525444D01*
X436718Y525364D01*
X436662Y525282D01*
X436610Y525198D01*
X436561Y525112D01*
X436515Y525024D01*
X436472Y524934D01*
X436433Y524843D01*
X436398Y524750D01*
X436366Y524656D01*
X436338Y524561D01*
X436313Y524465D01*
X436293Y524368D01*
X436275Y524270D01*
X436262Y524172D01*
X436253Y524073D01*
X436247Y523974D01*
X436245Y523875D01*
X437515Y526098D02*
X441008Y528003D01*
X428954Y523875D02*
X428954Y532765D01*
X428954Y523875D02*
X428956Y523775D01*
X428962Y523676D01*
X428972Y523576D01*
X428985Y523478D01*
X429003Y523379D01*
X429024Y523282D01*
X429049Y523186D01*
X429078Y523090D01*
X429111Y522996D01*
X429147Y522903D01*
X429187Y522812D01*
X429231Y522722D01*
X429278Y522634D01*
X429328Y522548D01*
X429382Y522464D01*
X429439Y522382D01*
X429499Y522303D01*
X429563Y522225D01*
X429629Y522151D01*
X429698Y522079D01*
X429770Y522010D01*
X429844Y521944D01*
X429922Y521880D01*
X430001Y521820D01*
X430083Y521763D01*
X430167Y521709D01*
X430253Y521659D01*
X430341Y521612D01*
X430431Y521568D01*
X430522Y521528D01*
X430615Y521492D01*
X430709Y521459D01*
X430805Y521430D01*
X430901Y521405D01*
X430998Y521384D01*
X431097Y521366D01*
X431195Y521353D01*
X431295Y521343D01*
X431394Y521337D01*
X431494Y521335D01*
X432764Y521335D01*
X423545Y521335D02*
X420370Y521335D01*
X420259Y521337D01*
X420149Y521343D01*
X420038Y521352D01*
X419928Y521366D01*
X419819Y521383D01*
X419710Y521404D01*
X419602Y521429D01*
X419495Y521458D01*
X419389Y521490D01*
X419284Y521526D01*
X419181Y521566D01*
X419079Y521609D01*
X418978Y521656D01*
X418879Y521707D01*
X418783Y521760D01*
X418688Y521817D01*
X418595Y521878D01*
X418504Y521941D01*
X418415Y522008D01*
X418329Y522078D01*
X418246Y522151D01*
X418164Y522226D01*
X418086Y522304D01*
X418011Y522386D01*
X417938Y522469D01*
X417868Y522555D01*
X417801Y522644D01*
X417738Y522735D01*
X417677Y522828D01*
X417620Y522923D01*
X417567Y523019D01*
X417516Y523118D01*
X417469Y523219D01*
X417426Y523321D01*
X417386Y523424D01*
X417350Y523529D01*
X417318Y523635D01*
X417289Y523742D01*
X417264Y523850D01*
X417243Y523959D01*
X417226Y524068D01*
X417212Y524178D01*
X417203Y524289D01*
X417197Y524399D01*
X417195Y524510D01*
X417197Y524621D01*
X417203Y524731D01*
X417212Y524842D01*
X417226Y524952D01*
X417243Y525061D01*
X417264Y525170D01*
X417289Y525278D01*
X417318Y525385D01*
X417350Y525491D01*
X417386Y525596D01*
X417426Y525699D01*
X417469Y525801D01*
X417516Y525902D01*
X417567Y526001D01*
X417620Y526098D01*
X417677Y526192D01*
X417738Y526285D01*
X417801Y526376D01*
X417868Y526465D01*
X417938Y526551D01*
X418011Y526634D01*
X418086Y526716D01*
X418164Y526794D01*
X418246Y526869D01*
X418329Y526942D01*
X418415Y527012D01*
X418504Y527079D01*
X418595Y527142D01*
X418688Y527203D01*
X418783Y527260D01*
X418879Y527313D01*
X418978Y527364D01*
X419079Y527411D01*
X419181Y527454D01*
X419284Y527494D01*
X419389Y527530D01*
X419495Y527562D01*
X419602Y527591D01*
X419710Y527616D01*
X419819Y527637D01*
X419928Y527654D01*
X420038Y527668D01*
X420149Y527677D01*
X420259Y527683D01*
X420370Y527685D01*
X419735Y532765D02*
X423545Y532765D01*
X419735Y532765D02*
X419635Y532763D01*
X419536Y532757D01*
X419436Y532747D01*
X419338Y532734D01*
X419239Y532716D01*
X419142Y532695D01*
X419046Y532670D01*
X418950Y532641D01*
X418856Y532608D01*
X418763Y532572D01*
X418672Y532532D01*
X418582Y532488D01*
X418494Y532441D01*
X418408Y532391D01*
X418324Y532337D01*
X418242Y532280D01*
X418163Y532220D01*
X418085Y532156D01*
X418011Y532090D01*
X417939Y532021D01*
X417870Y531949D01*
X417804Y531875D01*
X417740Y531797D01*
X417680Y531718D01*
X417623Y531636D01*
X417569Y531552D01*
X417519Y531466D01*
X417472Y531378D01*
X417428Y531288D01*
X417388Y531197D01*
X417352Y531104D01*
X417319Y531010D01*
X417290Y530914D01*
X417265Y530818D01*
X417244Y530721D01*
X417226Y530622D01*
X417213Y530524D01*
X417203Y530424D01*
X417197Y530325D01*
X417195Y530225D01*
X417197Y530125D01*
X417203Y530026D01*
X417213Y529926D01*
X417226Y529828D01*
X417244Y529729D01*
X417265Y529632D01*
X417290Y529536D01*
X417319Y529440D01*
X417352Y529346D01*
X417388Y529253D01*
X417428Y529162D01*
X417472Y529072D01*
X417519Y528984D01*
X417569Y528898D01*
X417623Y528814D01*
X417680Y528732D01*
X417740Y528653D01*
X417804Y528575D01*
X417870Y528501D01*
X417939Y528429D01*
X418011Y528360D01*
X418085Y528294D01*
X418163Y528230D01*
X418242Y528170D01*
X418324Y528113D01*
X418408Y528059D01*
X418494Y528009D01*
X418582Y527962D01*
X418672Y527918D01*
X418763Y527878D01*
X418856Y527842D01*
X418950Y527809D01*
X419046Y527780D01*
X419142Y527755D01*
X419239Y527734D01*
X419338Y527716D01*
X419436Y527703D01*
X419536Y527693D01*
X419635Y527687D01*
X419735Y527685D01*
X422275Y527685D01*
D12*
X473710Y497840D02*
X516890Y497840D01*
X473710Y518160D02*
X473610Y518158D01*
X473511Y518152D01*
X473411Y518142D01*
X473313Y518129D01*
X473214Y518111D01*
X473117Y518090D01*
X473021Y518065D01*
X472925Y518036D01*
X472831Y518003D01*
X472738Y517967D01*
X472647Y517927D01*
X472557Y517883D01*
X472469Y517836D01*
X472383Y517786D01*
X472299Y517732D01*
X472217Y517675D01*
X472138Y517615D01*
X472060Y517551D01*
X471986Y517485D01*
X471914Y517416D01*
X471845Y517344D01*
X471779Y517270D01*
X471715Y517192D01*
X471655Y517113D01*
X471598Y517031D01*
X471544Y516947D01*
X471494Y516861D01*
X471447Y516773D01*
X471403Y516683D01*
X471363Y516592D01*
X471327Y516499D01*
X471294Y516405D01*
X471265Y516309D01*
X471240Y516213D01*
X471219Y516116D01*
X471201Y516017D01*
X471188Y515919D01*
X471178Y515819D01*
X471172Y515720D01*
X471170Y515620D01*
X516890Y518160D02*
X516990Y518158D01*
X517089Y518152D01*
X517189Y518142D01*
X517287Y518129D01*
X517386Y518111D01*
X517483Y518090D01*
X517579Y518065D01*
X517675Y518036D01*
X517769Y518003D01*
X517862Y517967D01*
X517953Y517927D01*
X518043Y517883D01*
X518131Y517836D01*
X518217Y517786D01*
X518301Y517732D01*
X518383Y517675D01*
X518462Y517615D01*
X518540Y517551D01*
X518614Y517485D01*
X518686Y517416D01*
X518755Y517344D01*
X518821Y517270D01*
X518885Y517192D01*
X518945Y517113D01*
X519002Y517031D01*
X519056Y516947D01*
X519106Y516861D01*
X519153Y516773D01*
X519197Y516683D01*
X519237Y516592D01*
X519273Y516499D01*
X519306Y516405D01*
X519335Y516309D01*
X519360Y516213D01*
X519381Y516116D01*
X519399Y516017D01*
X519412Y515919D01*
X519422Y515819D01*
X519428Y515720D01*
X519430Y515620D01*
X519430Y500380D02*
X519428Y500280D01*
X519422Y500181D01*
X519412Y500081D01*
X519399Y499983D01*
X519381Y499884D01*
X519360Y499787D01*
X519335Y499691D01*
X519306Y499595D01*
X519273Y499501D01*
X519237Y499408D01*
X519197Y499317D01*
X519153Y499227D01*
X519106Y499139D01*
X519056Y499053D01*
X519002Y498969D01*
X518945Y498887D01*
X518885Y498808D01*
X518821Y498730D01*
X518755Y498656D01*
X518686Y498584D01*
X518614Y498515D01*
X518540Y498449D01*
X518462Y498385D01*
X518383Y498325D01*
X518301Y498268D01*
X518217Y498214D01*
X518131Y498164D01*
X518043Y498117D01*
X517953Y498073D01*
X517862Y498033D01*
X517769Y497997D01*
X517675Y497964D01*
X517579Y497935D01*
X517483Y497910D01*
X517386Y497889D01*
X517287Y497871D01*
X517189Y497858D01*
X517089Y497848D01*
X516990Y497842D01*
X516890Y497840D01*
X473710Y497840D02*
X473610Y497842D01*
X473511Y497848D01*
X473411Y497858D01*
X473313Y497871D01*
X473214Y497889D01*
X473117Y497910D01*
X473021Y497935D01*
X472925Y497964D01*
X472831Y497997D01*
X472738Y498033D01*
X472647Y498073D01*
X472557Y498117D01*
X472469Y498164D01*
X472383Y498214D01*
X472299Y498268D01*
X472217Y498325D01*
X472138Y498385D01*
X472060Y498449D01*
X471986Y498515D01*
X471914Y498584D01*
X471845Y498656D01*
X471779Y498730D01*
X471715Y498808D01*
X471655Y498887D01*
X471598Y498969D01*
X471544Y499053D01*
X471494Y499139D01*
X471447Y499227D01*
X471403Y499317D01*
X471363Y499408D01*
X471327Y499501D01*
X471294Y499595D01*
X471265Y499691D01*
X471240Y499787D01*
X471219Y499884D01*
X471201Y499983D01*
X471188Y500081D01*
X471178Y500181D01*
X471172Y500280D01*
X471170Y500380D01*
X471170Y515620D01*
X519430Y515620D02*
X519430Y500380D01*
X516890Y518160D02*
X473710Y518160D01*
D13*
X512445Y523875D02*
X512447Y523775D01*
X512453Y523676D01*
X512463Y523576D01*
X512476Y523478D01*
X512494Y523379D01*
X512515Y523282D01*
X512540Y523186D01*
X512569Y523090D01*
X512602Y522996D01*
X512638Y522903D01*
X512678Y522812D01*
X512722Y522722D01*
X512769Y522634D01*
X512819Y522548D01*
X512873Y522464D01*
X512930Y522382D01*
X512990Y522303D01*
X513054Y522225D01*
X513120Y522151D01*
X513189Y522079D01*
X513261Y522010D01*
X513335Y521944D01*
X513413Y521880D01*
X513492Y521820D01*
X513574Y521763D01*
X513658Y521709D01*
X513744Y521659D01*
X513832Y521612D01*
X513922Y521568D01*
X514013Y521528D01*
X514106Y521492D01*
X514200Y521459D01*
X514296Y521430D01*
X514392Y521405D01*
X514489Y521384D01*
X514588Y521366D01*
X514686Y521353D01*
X514786Y521343D01*
X514885Y521337D01*
X514985Y521335D01*
X515126Y521337D01*
X515267Y521342D01*
X515408Y521352D01*
X515549Y521365D01*
X515689Y521381D01*
X515829Y521402D01*
X515968Y521426D01*
X516107Y521454D01*
X516244Y521485D01*
X516381Y521520D01*
X516517Y521558D01*
X516652Y521600D01*
X516785Y521646D01*
X516918Y521695D01*
X517049Y521748D01*
X517178Y521804D01*
X517307Y521863D01*
X517433Y521926D01*
X517558Y521992D01*
X517681Y522061D01*
X517802Y522134D01*
X517921Y522210D01*
X518039Y522289D01*
X518154Y522370D01*
X518266Y522455D01*
X518377Y522543D01*
X518485Y522634D01*
X518591Y522727D01*
X518694Y522824D01*
X518795Y522923D01*
X518478Y530225D02*
X518476Y530325D01*
X518470Y530424D01*
X518460Y530524D01*
X518447Y530622D01*
X518429Y530721D01*
X518408Y530818D01*
X518383Y530914D01*
X518354Y531010D01*
X518321Y531104D01*
X518285Y531197D01*
X518245Y531288D01*
X518201Y531378D01*
X518154Y531466D01*
X518104Y531552D01*
X518050Y531636D01*
X517993Y531718D01*
X517933Y531797D01*
X517869Y531875D01*
X517803Y531949D01*
X517734Y532021D01*
X517662Y532090D01*
X517588Y532156D01*
X517510Y532220D01*
X517431Y532280D01*
X517349Y532337D01*
X517265Y532391D01*
X517179Y532441D01*
X517091Y532488D01*
X517001Y532532D01*
X516910Y532572D01*
X516817Y532608D01*
X516723Y532641D01*
X516627Y532670D01*
X516531Y532695D01*
X516434Y532716D01*
X516335Y532734D01*
X516237Y532747D01*
X516137Y532757D01*
X516038Y532763D01*
X515938Y532765D01*
X515938Y532766D02*
X515805Y532764D01*
X515672Y532759D01*
X515539Y532749D01*
X515406Y532736D01*
X515274Y532719D01*
X515142Y532699D01*
X515011Y532675D01*
X514881Y532647D01*
X514751Y532616D01*
X514623Y532581D01*
X514495Y532542D01*
X514369Y532500D01*
X514244Y532454D01*
X514120Y532405D01*
X513997Y532353D01*
X513876Y532297D01*
X513757Y532237D01*
X513639Y532175D01*
X513524Y532109D01*
X513410Y532040D01*
X513298Y531967D01*
X513188Y531892D01*
X513080Y531813D01*
X517208Y528002D02*
X517292Y528054D01*
X517375Y528109D01*
X517455Y528168D01*
X517533Y528229D01*
X517608Y528293D01*
X517681Y528361D01*
X517752Y528431D01*
X517819Y528503D01*
X517884Y528578D01*
X517946Y528656D01*
X518005Y528736D01*
X518061Y528818D01*
X518113Y528902D01*
X518162Y528988D01*
X518208Y529076D01*
X518251Y529166D01*
X518290Y529257D01*
X518325Y529350D01*
X518357Y529444D01*
X518385Y529539D01*
X518410Y529635D01*
X518430Y529732D01*
X518448Y529830D01*
X518461Y529928D01*
X518470Y530027D01*
X518476Y530126D01*
X518478Y530225D01*
X513715Y526098D02*
X513631Y526046D01*
X513548Y525991D01*
X513468Y525932D01*
X513390Y525871D01*
X513315Y525807D01*
X513242Y525739D01*
X513171Y525669D01*
X513104Y525597D01*
X513039Y525522D01*
X512977Y525444D01*
X512918Y525364D01*
X512862Y525282D01*
X512810Y525198D01*
X512761Y525112D01*
X512715Y525024D01*
X512672Y524934D01*
X512633Y524843D01*
X512598Y524750D01*
X512566Y524656D01*
X512538Y524561D01*
X512513Y524465D01*
X512493Y524368D01*
X512475Y524270D01*
X512462Y524172D01*
X512453Y524073D01*
X512447Y523974D01*
X512445Y523875D01*
X513715Y526098D02*
X517208Y528003D01*
X505154Y523875D02*
X505154Y532765D01*
X505154Y523875D02*
X505156Y523775D01*
X505162Y523676D01*
X505172Y523576D01*
X505185Y523478D01*
X505203Y523379D01*
X505224Y523282D01*
X505249Y523186D01*
X505278Y523090D01*
X505311Y522996D01*
X505347Y522903D01*
X505387Y522812D01*
X505431Y522722D01*
X505478Y522634D01*
X505528Y522548D01*
X505582Y522464D01*
X505639Y522382D01*
X505699Y522303D01*
X505763Y522225D01*
X505829Y522151D01*
X505898Y522079D01*
X505970Y522010D01*
X506044Y521944D01*
X506122Y521880D01*
X506201Y521820D01*
X506283Y521763D01*
X506367Y521709D01*
X506453Y521659D01*
X506541Y521612D01*
X506631Y521568D01*
X506722Y521528D01*
X506815Y521492D01*
X506909Y521459D01*
X507005Y521430D01*
X507101Y521405D01*
X507198Y521384D01*
X507297Y521366D01*
X507395Y521353D01*
X507495Y521343D01*
X507594Y521337D01*
X507694Y521335D01*
X508964Y521335D01*
X499745Y523875D02*
X497205Y532765D01*
X499745Y523875D02*
X493395Y523875D01*
X495300Y526415D02*
X495300Y521335D01*
D12*
X445770Y167640D02*
X417830Y167640D01*
X415290Y185420D02*
X415292Y185520D01*
X415298Y185619D01*
X415308Y185719D01*
X415321Y185817D01*
X415339Y185916D01*
X415360Y186013D01*
X415385Y186109D01*
X415414Y186205D01*
X415447Y186299D01*
X415483Y186392D01*
X415523Y186483D01*
X415567Y186573D01*
X415614Y186661D01*
X415664Y186747D01*
X415718Y186831D01*
X415775Y186913D01*
X415835Y186992D01*
X415899Y187070D01*
X415965Y187144D01*
X416034Y187216D01*
X416106Y187285D01*
X416180Y187351D01*
X416258Y187415D01*
X416337Y187475D01*
X416419Y187532D01*
X416503Y187586D01*
X416589Y187636D01*
X416677Y187683D01*
X416767Y187727D01*
X416858Y187767D01*
X416951Y187803D01*
X417045Y187836D01*
X417141Y187865D01*
X417237Y187890D01*
X417334Y187911D01*
X417433Y187929D01*
X417531Y187942D01*
X417631Y187952D01*
X417730Y187958D01*
X417830Y187960D01*
X445770Y187960D02*
X445870Y187958D01*
X445969Y187952D01*
X446069Y187942D01*
X446167Y187929D01*
X446266Y187911D01*
X446363Y187890D01*
X446459Y187865D01*
X446555Y187836D01*
X446649Y187803D01*
X446742Y187767D01*
X446833Y187727D01*
X446923Y187683D01*
X447011Y187636D01*
X447097Y187586D01*
X447181Y187532D01*
X447263Y187475D01*
X447342Y187415D01*
X447420Y187351D01*
X447494Y187285D01*
X447566Y187216D01*
X447635Y187144D01*
X447701Y187070D01*
X447765Y186992D01*
X447825Y186913D01*
X447882Y186831D01*
X447936Y186747D01*
X447986Y186661D01*
X448033Y186573D01*
X448077Y186483D01*
X448117Y186392D01*
X448153Y186299D01*
X448186Y186205D01*
X448215Y186109D01*
X448240Y186013D01*
X448261Y185916D01*
X448279Y185817D01*
X448292Y185719D01*
X448302Y185619D01*
X448308Y185520D01*
X448310Y185420D01*
X448310Y170180D02*
X448308Y170080D01*
X448302Y169981D01*
X448292Y169881D01*
X448279Y169783D01*
X448261Y169684D01*
X448240Y169587D01*
X448215Y169491D01*
X448186Y169395D01*
X448153Y169301D01*
X448117Y169208D01*
X448077Y169117D01*
X448033Y169027D01*
X447986Y168939D01*
X447936Y168853D01*
X447882Y168769D01*
X447825Y168687D01*
X447765Y168608D01*
X447701Y168530D01*
X447635Y168456D01*
X447566Y168384D01*
X447494Y168315D01*
X447420Y168249D01*
X447342Y168185D01*
X447263Y168125D01*
X447181Y168068D01*
X447097Y168014D01*
X447011Y167964D01*
X446923Y167917D01*
X446833Y167873D01*
X446742Y167833D01*
X446649Y167797D01*
X446555Y167764D01*
X446459Y167735D01*
X446363Y167710D01*
X446266Y167689D01*
X446167Y167671D01*
X446069Y167658D01*
X445969Y167648D01*
X445870Y167642D01*
X445770Y167640D01*
X417830Y167640D02*
X417730Y167642D01*
X417631Y167648D01*
X417531Y167658D01*
X417433Y167671D01*
X417334Y167689D01*
X417237Y167710D01*
X417141Y167735D01*
X417045Y167764D01*
X416951Y167797D01*
X416858Y167833D01*
X416767Y167873D01*
X416677Y167917D01*
X416589Y167964D01*
X416503Y168014D01*
X416419Y168068D01*
X416337Y168125D01*
X416258Y168185D01*
X416180Y168249D01*
X416106Y168315D01*
X416034Y168384D01*
X415965Y168456D01*
X415899Y168530D01*
X415835Y168608D01*
X415775Y168687D01*
X415718Y168769D01*
X415664Y168853D01*
X415614Y168939D01*
X415567Y169027D01*
X415523Y169117D01*
X415483Y169208D01*
X415447Y169301D01*
X415414Y169395D01*
X415385Y169491D01*
X415360Y169587D01*
X415339Y169684D01*
X415321Y169783D01*
X415308Y169881D01*
X415298Y169981D01*
X415292Y170080D01*
X415290Y170180D01*
X415290Y185420D01*
X448310Y185420D02*
X448310Y170180D01*
X445770Y187960D02*
X417830Y187960D01*
D13*
X442595Y189865D02*
X447675Y189865D01*
X447675Y201295D01*
X442595Y201295D01*
X443865Y196215D02*
X447675Y196215D01*
X438810Y201295D02*
X435000Y189865D01*
X431190Y201295D01*
X426339Y189865D02*
X421259Y189865D01*
X426339Y189865D02*
X426339Y201295D01*
X421259Y201295D01*
X422529Y196215D02*
X426339Y196215D01*
X416458Y201295D02*
X416458Y189865D01*
X410108Y189865D02*
X416458Y201295D01*
X410108Y201295D02*
X410108Y189865D01*
X402234Y189865D02*
X402234Y201295D01*
X405409Y201295D02*
X399059Y201295D01*
X395249Y188595D02*
X390169Y188595D01*
X385597Y193040D02*
X385597Y198120D01*
X385595Y198231D01*
X385589Y198341D01*
X385580Y198452D01*
X385566Y198562D01*
X385549Y198671D01*
X385528Y198780D01*
X385503Y198888D01*
X385474Y198995D01*
X385442Y199101D01*
X385406Y199206D01*
X385366Y199309D01*
X385323Y199411D01*
X385276Y199512D01*
X385225Y199611D01*
X385172Y199708D01*
X385115Y199802D01*
X385054Y199895D01*
X384991Y199986D01*
X384924Y200075D01*
X384854Y200161D01*
X384781Y200244D01*
X384706Y200326D01*
X384628Y200404D01*
X384546Y200479D01*
X384463Y200552D01*
X384377Y200622D01*
X384288Y200689D01*
X384197Y200752D01*
X384104Y200813D01*
X384010Y200870D01*
X383913Y200923D01*
X383814Y200974D01*
X383713Y201021D01*
X383611Y201064D01*
X383508Y201104D01*
X383403Y201140D01*
X383297Y201172D01*
X383190Y201201D01*
X383082Y201226D01*
X382973Y201247D01*
X382864Y201264D01*
X382754Y201278D01*
X382643Y201287D01*
X382533Y201293D01*
X382422Y201295D01*
X382311Y201293D01*
X382201Y201287D01*
X382090Y201278D01*
X381980Y201264D01*
X381871Y201247D01*
X381762Y201226D01*
X381654Y201201D01*
X381547Y201172D01*
X381441Y201140D01*
X381336Y201104D01*
X381233Y201064D01*
X381131Y201021D01*
X381030Y200974D01*
X380931Y200923D01*
X380835Y200870D01*
X380740Y200813D01*
X380647Y200752D01*
X380556Y200689D01*
X380467Y200622D01*
X380381Y200552D01*
X380298Y200479D01*
X380216Y200404D01*
X380138Y200326D01*
X380063Y200244D01*
X379990Y200161D01*
X379920Y200075D01*
X379853Y199986D01*
X379790Y199895D01*
X379729Y199802D01*
X379672Y199708D01*
X379619Y199611D01*
X379568Y199512D01*
X379521Y199411D01*
X379478Y199309D01*
X379438Y199206D01*
X379402Y199101D01*
X379370Y198995D01*
X379341Y198888D01*
X379316Y198780D01*
X379295Y198671D01*
X379278Y198562D01*
X379264Y198452D01*
X379255Y198341D01*
X379249Y198231D01*
X379247Y198120D01*
X379247Y193040D01*
X379249Y192929D01*
X379255Y192819D01*
X379264Y192708D01*
X379278Y192598D01*
X379295Y192489D01*
X379316Y192380D01*
X379341Y192272D01*
X379370Y192165D01*
X379402Y192059D01*
X379438Y191954D01*
X379478Y191851D01*
X379521Y191749D01*
X379568Y191648D01*
X379619Y191549D01*
X379672Y191453D01*
X379729Y191358D01*
X379790Y191265D01*
X379853Y191174D01*
X379920Y191085D01*
X379990Y190999D01*
X380063Y190916D01*
X380138Y190834D01*
X380216Y190756D01*
X380298Y190681D01*
X380381Y190608D01*
X380467Y190538D01*
X380556Y190471D01*
X380647Y190408D01*
X380740Y190347D01*
X380835Y190290D01*
X380931Y190237D01*
X381030Y190186D01*
X381131Y190139D01*
X381233Y190096D01*
X381336Y190056D01*
X381441Y190020D01*
X381547Y189988D01*
X381654Y189959D01*
X381762Y189934D01*
X381871Y189913D01*
X381980Y189896D01*
X382090Y189882D01*
X382201Y189873D01*
X382311Y189867D01*
X382422Y189865D01*
X382533Y189867D01*
X382643Y189873D01*
X382754Y189882D01*
X382864Y189896D01*
X382973Y189913D01*
X383082Y189934D01*
X383190Y189959D01*
X383297Y189988D01*
X383403Y190020D01*
X383508Y190056D01*
X383611Y190096D01*
X383713Y190139D01*
X383814Y190186D01*
X383913Y190237D01*
X384009Y190290D01*
X384104Y190347D01*
X384197Y190408D01*
X384288Y190471D01*
X384377Y190538D01*
X384463Y190608D01*
X384546Y190681D01*
X384628Y190756D01*
X384706Y190834D01*
X384781Y190916D01*
X384854Y190999D01*
X384924Y191085D01*
X384991Y191174D01*
X385054Y191265D01*
X385115Y191358D01*
X385172Y191452D01*
X385225Y191549D01*
X385276Y191648D01*
X385323Y191749D01*
X385366Y191851D01*
X385406Y191954D01*
X385442Y192059D01*
X385474Y192165D01*
X385503Y192272D01*
X385528Y192380D01*
X385549Y192489D01*
X385566Y192598D01*
X385580Y192708D01*
X385589Y192819D01*
X385595Y192929D01*
X385597Y193040D01*
X373786Y193040D02*
X373786Y201295D01*
X373786Y193040D02*
X373784Y192929D01*
X373778Y192819D01*
X373769Y192708D01*
X373755Y192598D01*
X373738Y192489D01*
X373717Y192380D01*
X373692Y192272D01*
X373663Y192165D01*
X373631Y192059D01*
X373595Y191954D01*
X373555Y191851D01*
X373512Y191749D01*
X373465Y191648D01*
X373414Y191549D01*
X373361Y191452D01*
X373304Y191358D01*
X373243Y191265D01*
X373180Y191174D01*
X373113Y191085D01*
X373043Y190999D01*
X372970Y190916D01*
X372895Y190834D01*
X372817Y190756D01*
X372735Y190681D01*
X372652Y190608D01*
X372566Y190538D01*
X372477Y190471D01*
X372386Y190408D01*
X372293Y190347D01*
X372198Y190290D01*
X372102Y190237D01*
X372003Y190186D01*
X371902Y190139D01*
X371800Y190096D01*
X371697Y190056D01*
X371592Y190020D01*
X371486Y189988D01*
X371379Y189959D01*
X371271Y189934D01*
X371162Y189913D01*
X371053Y189896D01*
X370943Y189882D01*
X370832Y189873D01*
X370722Y189867D01*
X370611Y189865D01*
X370500Y189867D01*
X370390Y189873D01*
X370279Y189882D01*
X370169Y189896D01*
X370060Y189913D01*
X369951Y189934D01*
X369843Y189959D01*
X369736Y189988D01*
X369630Y190020D01*
X369525Y190056D01*
X369422Y190096D01*
X369320Y190139D01*
X369219Y190186D01*
X369120Y190237D01*
X369024Y190290D01*
X368929Y190347D01*
X368836Y190408D01*
X368745Y190471D01*
X368656Y190538D01*
X368570Y190608D01*
X368487Y190681D01*
X368405Y190756D01*
X368327Y190834D01*
X368252Y190916D01*
X368179Y190999D01*
X368109Y191085D01*
X368042Y191174D01*
X367979Y191265D01*
X367918Y191358D01*
X367861Y191453D01*
X367808Y191549D01*
X367757Y191648D01*
X367710Y191749D01*
X367667Y191851D01*
X367627Y191954D01*
X367591Y192059D01*
X367559Y192165D01*
X367530Y192272D01*
X367505Y192380D01*
X367484Y192489D01*
X367467Y192598D01*
X367453Y192708D01*
X367444Y192819D01*
X367438Y192929D01*
X367436Y193040D01*
X367436Y201295D01*
X359562Y201295D02*
X359562Y189865D01*
X362737Y201295D02*
X356387Y201295D01*
M02*
