G04 EAGLE Gerber RS-274X export*
G75*
%MOMM*%
%FSLAX34Y34*%
%LPD*%
%INSilkscreen Top*%
%IPPOS*%
%AMOC8*
5,1,8,0,0,1.08239X$1,22.5*%
G01*
%ADD10C,0.152400*%
%ADD11C,0.101600*%
%ADD12C,0.076200*%
%ADD13C,0.127000*%


D10*
X203200Y127000D02*
X203200Y279400D01*
X558800Y279400D01*
X558800Y127000D01*
X203200Y127000D01*
D11*
X219654Y254508D02*
X219654Y266192D01*
X222899Y266192D02*
X216408Y266192D01*
X227480Y254508D02*
X232672Y254508D01*
X227480Y254508D02*
X227480Y266192D01*
X232672Y266192D01*
X231374Y260999D02*
X227480Y260999D01*
X242429Y254508D02*
X246324Y266192D01*
X250218Y254508D01*
X249245Y257429D02*
X243403Y257429D01*
X255002Y254508D02*
X255002Y262297D01*
X260844Y262297D01*
X260931Y262295D01*
X261019Y262289D01*
X261105Y262279D01*
X261192Y262266D01*
X261277Y262248D01*
X261362Y262227D01*
X261446Y262202D01*
X261528Y262173D01*
X261609Y262140D01*
X261689Y262104D01*
X261767Y262065D01*
X261843Y262021D01*
X261917Y261975D01*
X261988Y261925D01*
X262058Y261872D01*
X262125Y261816D01*
X262189Y261757D01*
X262251Y261695D01*
X262310Y261631D01*
X262366Y261564D01*
X262419Y261494D01*
X262469Y261423D01*
X262515Y261349D01*
X262559Y261273D01*
X262598Y261195D01*
X262634Y261115D01*
X262667Y261034D01*
X262696Y260952D01*
X262721Y260868D01*
X262742Y260783D01*
X262760Y260698D01*
X262773Y260611D01*
X262783Y260525D01*
X262789Y260437D01*
X262791Y260350D01*
X262791Y254508D01*
X258897Y254508D02*
X258897Y262297D01*
X268551Y266192D02*
X268551Y254508D01*
X271797Y254508D01*
X271884Y254510D01*
X271972Y254516D01*
X272058Y254526D01*
X272145Y254539D01*
X272230Y254557D01*
X272315Y254578D01*
X272399Y254603D01*
X272481Y254632D01*
X272562Y254665D01*
X272642Y254701D01*
X272720Y254740D01*
X272796Y254784D01*
X272870Y254830D01*
X272941Y254880D01*
X273011Y254933D01*
X273078Y254989D01*
X273142Y255048D01*
X273204Y255109D01*
X273263Y255174D01*
X273319Y255241D01*
X273372Y255311D01*
X273422Y255382D01*
X273468Y255456D01*
X273512Y255532D01*
X273551Y255610D01*
X273587Y255690D01*
X273620Y255771D01*
X273649Y255853D01*
X273674Y255937D01*
X273695Y256022D01*
X273713Y256107D01*
X273726Y256194D01*
X273736Y256280D01*
X273742Y256368D01*
X273744Y256455D01*
X273744Y260350D01*
X273742Y260437D01*
X273736Y260525D01*
X273726Y260611D01*
X273713Y260698D01*
X273695Y260783D01*
X273674Y260868D01*
X273649Y260952D01*
X273620Y261034D01*
X273587Y261115D01*
X273551Y261195D01*
X273512Y261273D01*
X273468Y261349D01*
X273422Y261423D01*
X273372Y261494D01*
X273319Y261564D01*
X273263Y261631D01*
X273204Y261695D01*
X273142Y261757D01*
X273078Y261816D01*
X273011Y261872D01*
X272941Y261925D01*
X272870Y261975D01*
X272796Y262021D01*
X272720Y262065D01*
X272642Y262104D01*
X272562Y262140D01*
X272481Y262173D01*
X272399Y262202D01*
X272315Y262227D01*
X272230Y262248D01*
X272145Y262266D01*
X272058Y262279D01*
X271972Y262289D01*
X271884Y262295D01*
X271797Y262297D01*
X268551Y262297D01*
X278327Y262297D02*
X278327Y254508D01*
X278003Y265543D02*
X278003Y266192D01*
X278652Y266192D01*
X278652Y265543D01*
X278003Y265543D01*
X283577Y266192D02*
X283577Y254508D01*
X287471Y259701D02*
X283577Y266192D01*
X287471Y259701D02*
X291366Y266192D01*
X291366Y254508D01*
X298899Y259052D02*
X301820Y259052D01*
X298899Y259052D02*
X298805Y259050D01*
X298711Y259044D01*
X298618Y259035D01*
X298525Y259021D01*
X298433Y259004D01*
X298341Y258982D01*
X298251Y258958D01*
X298161Y258929D01*
X298073Y258897D01*
X297986Y258861D01*
X297901Y258821D01*
X297818Y258778D01*
X297736Y258732D01*
X297656Y258682D01*
X297579Y258629D01*
X297504Y258573D01*
X297431Y258514D01*
X297360Y258452D01*
X297292Y258387D01*
X297227Y258319D01*
X297165Y258248D01*
X297106Y258175D01*
X297050Y258100D01*
X296997Y258023D01*
X296947Y257943D01*
X296901Y257861D01*
X296858Y257778D01*
X296818Y257693D01*
X296782Y257606D01*
X296750Y257518D01*
X296721Y257428D01*
X296697Y257338D01*
X296675Y257246D01*
X296658Y257154D01*
X296644Y257061D01*
X296635Y256968D01*
X296629Y256874D01*
X296627Y256780D01*
X296629Y256686D01*
X296635Y256592D01*
X296644Y256499D01*
X296658Y256406D01*
X296675Y256314D01*
X296697Y256222D01*
X296721Y256132D01*
X296750Y256042D01*
X296782Y255954D01*
X296818Y255867D01*
X296858Y255782D01*
X296901Y255699D01*
X296947Y255617D01*
X296997Y255537D01*
X297050Y255460D01*
X297106Y255385D01*
X297165Y255312D01*
X297227Y255241D01*
X297292Y255173D01*
X297360Y255108D01*
X297431Y255046D01*
X297504Y254987D01*
X297579Y254931D01*
X297656Y254878D01*
X297736Y254828D01*
X297818Y254782D01*
X297901Y254739D01*
X297986Y254699D01*
X298073Y254663D01*
X298161Y254631D01*
X298251Y254602D01*
X298341Y254578D01*
X298433Y254556D01*
X298525Y254539D01*
X298618Y254525D01*
X298711Y254516D01*
X298805Y254510D01*
X298899Y254508D01*
X301820Y254508D01*
X301820Y260350D01*
X301818Y260437D01*
X301812Y260525D01*
X301802Y260611D01*
X301789Y260698D01*
X301771Y260783D01*
X301750Y260868D01*
X301725Y260952D01*
X301696Y261034D01*
X301663Y261115D01*
X301627Y261195D01*
X301588Y261273D01*
X301544Y261349D01*
X301498Y261423D01*
X301448Y261494D01*
X301395Y261564D01*
X301339Y261631D01*
X301280Y261695D01*
X301218Y261757D01*
X301154Y261816D01*
X301087Y261872D01*
X301017Y261925D01*
X300946Y261975D01*
X300872Y262021D01*
X300796Y262065D01*
X300718Y262104D01*
X300638Y262140D01*
X300557Y262173D01*
X300475Y262202D01*
X300391Y262227D01*
X300306Y262248D01*
X300221Y262266D01*
X300134Y262279D01*
X300048Y262289D01*
X299960Y262295D01*
X299873Y262297D01*
X297276Y262297D01*
X306006Y262297D02*
X309900Y262297D01*
X307304Y266192D02*
X307304Y256455D01*
X307306Y256368D01*
X307312Y256280D01*
X307322Y256194D01*
X307335Y256107D01*
X307353Y256022D01*
X307374Y255937D01*
X307399Y255853D01*
X307428Y255771D01*
X307461Y255690D01*
X307497Y255610D01*
X307536Y255532D01*
X307580Y255456D01*
X307626Y255382D01*
X307676Y255311D01*
X307729Y255241D01*
X307785Y255174D01*
X307844Y255110D01*
X307906Y255048D01*
X307970Y254989D01*
X308037Y254933D01*
X308107Y254880D01*
X308178Y254830D01*
X308252Y254784D01*
X308328Y254740D01*
X308406Y254701D01*
X308486Y254665D01*
X308567Y254632D01*
X308649Y254603D01*
X308733Y254578D01*
X308818Y254557D01*
X308903Y254539D01*
X308990Y254526D01*
X309076Y254516D01*
X309164Y254510D01*
X309251Y254508D01*
X309900Y254508D01*
X316159Y254508D02*
X319405Y254508D01*
X316159Y254508D02*
X316072Y254510D01*
X315984Y254516D01*
X315898Y254526D01*
X315811Y254539D01*
X315726Y254557D01*
X315641Y254578D01*
X315557Y254603D01*
X315475Y254632D01*
X315394Y254665D01*
X315314Y254701D01*
X315236Y254740D01*
X315160Y254784D01*
X315086Y254830D01*
X315015Y254880D01*
X314945Y254933D01*
X314878Y254989D01*
X314814Y255048D01*
X314752Y255110D01*
X314693Y255174D01*
X314637Y255241D01*
X314584Y255311D01*
X314534Y255382D01*
X314488Y255456D01*
X314444Y255532D01*
X314405Y255610D01*
X314369Y255690D01*
X314336Y255771D01*
X314307Y255853D01*
X314282Y255937D01*
X314261Y256022D01*
X314243Y256107D01*
X314230Y256194D01*
X314220Y256280D01*
X314214Y256368D01*
X314212Y256455D01*
X314212Y259701D01*
X314214Y259802D01*
X314220Y259902D01*
X314230Y260002D01*
X314243Y260102D01*
X314261Y260201D01*
X314282Y260300D01*
X314307Y260397D01*
X314336Y260494D01*
X314369Y260589D01*
X314405Y260683D01*
X314445Y260775D01*
X314488Y260866D01*
X314535Y260955D01*
X314585Y261042D01*
X314639Y261128D01*
X314696Y261211D01*
X314756Y261291D01*
X314819Y261370D01*
X314886Y261446D01*
X314955Y261519D01*
X315027Y261589D01*
X315101Y261657D01*
X315178Y261722D01*
X315258Y261783D01*
X315340Y261842D01*
X315424Y261897D01*
X315510Y261949D01*
X315598Y261998D01*
X315688Y262043D01*
X315780Y262085D01*
X315873Y262123D01*
X315968Y262157D01*
X316063Y262188D01*
X316160Y262215D01*
X316258Y262238D01*
X316357Y262258D01*
X316457Y262273D01*
X316557Y262285D01*
X316657Y262293D01*
X316758Y262297D01*
X316858Y262297D01*
X316959Y262293D01*
X317059Y262285D01*
X317159Y262273D01*
X317259Y262258D01*
X317358Y262238D01*
X317456Y262215D01*
X317553Y262188D01*
X317648Y262157D01*
X317743Y262123D01*
X317836Y262085D01*
X317928Y262043D01*
X318018Y261998D01*
X318106Y261949D01*
X318192Y261897D01*
X318276Y261842D01*
X318358Y261783D01*
X318438Y261722D01*
X318515Y261657D01*
X318589Y261589D01*
X318661Y261519D01*
X318730Y261446D01*
X318797Y261370D01*
X318860Y261291D01*
X318920Y261211D01*
X318977Y261128D01*
X319031Y261042D01*
X319081Y260955D01*
X319128Y260866D01*
X319171Y260775D01*
X319211Y260683D01*
X319247Y260589D01*
X319280Y260494D01*
X319309Y260397D01*
X319334Y260300D01*
X319355Y260201D01*
X319373Y260102D01*
X319386Y260002D01*
X319396Y259902D01*
X319402Y259802D01*
X319404Y259701D01*
X319405Y259701D02*
X319405Y258403D01*
X314212Y258403D01*
X330821Y254508D02*
X330821Y266192D01*
X334715Y259701D01*
X338610Y266192D01*
X338610Y254508D01*
X347557Y254508D02*
X347656Y254510D01*
X347756Y254516D01*
X347855Y254525D01*
X347953Y254538D01*
X348051Y254555D01*
X348149Y254576D01*
X348245Y254601D01*
X348340Y254629D01*
X348434Y254661D01*
X348527Y254696D01*
X348619Y254735D01*
X348709Y254778D01*
X348797Y254823D01*
X348884Y254873D01*
X348968Y254925D01*
X349051Y254981D01*
X349131Y255039D01*
X349209Y255101D01*
X349284Y255166D01*
X349357Y255234D01*
X349427Y255304D01*
X349495Y255377D01*
X349560Y255452D01*
X349622Y255530D01*
X349680Y255610D01*
X349736Y255693D01*
X349788Y255777D01*
X349838Y255864D01*
X349883Y255952D01*
X349926Y256042D01*
X349965Y256134D01*
X350000Y256227D01*
X350032Y256321D01*
X350060Y256416D01*
X350085Y256512D01*
X350106Y256610D01*
X350123Y256708D01*
X350136Y256806D01*
X350145Y256905D01*
X350151Y257005D01*
X350153Y257104D01*
X347557Y254508D02*
X347413Y254510D01*
X347268Y254516D01*
X347124Y254525D01*
X346981Y254538D01*
X346837Y254555D01*
X346694Y254576D01*
X346552Y254601D01*
X346411Y254629D01*
X346270Y254661D01*
X346130Y254697D01*
X345991Y254736D01*
X345853Y254779D01*
X345717Y254826D01*
X345581Y254876D01*
X345447Y254930D01*
X345315Y254987D01*
X345184Y255048D01*
X345055Y255112D01*
X344927Y255180D01*
X344801Y255250D01*
X344677Y255325D01*
X344556Y255402D01*
X344436Y255483D01*
X344318Y255566D01*
X344203Y255653D01*
X344090Y255743D01*
X343979Y255836D01*
X343871Y255931D01*
X343765Y256030D01*
X343662Y256131D01*
X343987Y263596D02*
X343989Y263695D01*
X343995Y263795D01*
X344004Y263894D01*
X344017Y263992D01*
X344034Y264090D01*
X344055Y264188D01*
X344080Y264284D01*
X344108Y264379D01*
X344140Y264473D01*
X344175Y264566D01*
X344214Y264658D01*
X344257Y264748D01*
X344302Y264836D01*
X344352Y264923D01*
X344404Y265007D01*
X344460Y265090D01*
X344518Y265170D01*
X344580Y265248D01*
X344645Y265323D01*
X344713Y265396D01*
X344783Y265466D01*
X344856Y265534D01*
X344931Y265599D01*
X345009Y265661D01*
X345089Y265719D01*
X345172Y265775D01*
X345256Y265827D01*
X345343Y265877D01*
X345431Y265922D01*
X345521Y265965D01*
X345613Y266004D01*
X345706Y266039D01*
X345800Y266071D01*
X345895Y266099D01*
X345992Y266124D01*
X346089Y266145D01*
X346187Y266162D01*
X346285Y266175D01*
X346384Y266184D01*
X346484Y266190D01*
X346583Y266192D01*
X346719Y266190D01*
X346855Y266184D01*
X346991Y266175D01*
X347127Y266162D01*
X347262Y266144D01*
X347396Y266124D01*
X347530Y266099D01*
X347664Y266071D01*
X347796Y266038D01*
X347927Y266003D01*
X348058Y265963D01*
X348187Y265920D01*
X348315Y265874D01*
X348441Y265823D01*
X348567Y265770D01*
X348690Y265712D01*
X348812Y265652D01*
X348932Y265588D01*
X349051Y265520D01*
X349167Y265450D01*
X349281Y265376D01*
X349394Y265299D01*
X349504Y265218D01*
X345284Y261324D02*
X345198Y261377D01*
X345114Y261434D01*
X345032Y261493D01*
X344952Y261556D01*
X344875Y261622D01*
X344800Y261690D01*
X344728Y261762D01*
X344659Y261836D01*
X344593Y261913D01*
X344530Y261992D01*
X344470Y262074D01*
X344413Y262158D01*
X344359Y262244D01*
X344309Y262332D01*
X344262Y262422D01*
X344218Y262513D01*
X344179Y262607D01*
X344142Y262701D01*
X344110Y262797D01*
X344081Y262895D01*
X344056Y262993D01*
X344035Y263092D01*
X344017Y263192D01*
X344004Y263292D01*
X343994Y263393D01*
X343988Y263495D01*
X343986Y263596D01*
X348855Y259376D02*
X348941Y259323D01*
X349025Y259266D01*
X349107Y259207D01*
X349187Y259144D01*
X349264Y259078D01*
X349339Y259010D01*
X349411Y258938D01*
X349480Y258864D01*
X349546Y258787D01*
X349609Y258708D01*
X349669Y258626D01*
X349726Y258542D01*
X349780Y258456D01*
X349830Y258368D01*
X349877Y258278D01*
X349921Y258187D01*
X349960Y258093D01*
X349997Y257999D01*
X350029Y257903D01*
X350058Y257805D01*
X350083Y257707D01*
X350104Y257608D01*
X350122Y257508D01*
X350135Y257408D01*
X350145Y257307D01*
X350151Y257205D01*
X350153Y257104D01*
X348855Y259376D02*
X345285Y261324D01*
X354711Y257104D02*
X357307Y266192D01*
X354711Y257104D02*
X361202Y257104D01*
X359255Y259701D02*
X359255Y254508D01*
X375750Y254508D02*
X375849Y254510D01*
X375949Y254516D01*
X376048Y254525D01*
X376146Y254538D01*
X376244Y254555D01*
X376342Y254576D01*
X376438Y254601D01*
X376533Y254629D01*
X376627Y254661D01*
X376720Y254696D01*
X376812Y254735D01*
X376902Y254778D01*
X376990Y254823D01*
X377077Y254873D01*
X377161Y254925D01*
X377244Y254981D01*
X377324Y255039D01*
X377402Y255101D01*
X377477Y255166D01*
X377550Y255234D01*
X377620Y255304D01*
X377688Y255377D01*
X377753Y255452D01*
X377815Y255530D01*
X377873Y255610D01*
X377929Y255693D01*
X377981Y255777D01*
X378031Y255864D01*
X378076Y255952D01*
X378119Y256042D01*
X378158Y256134D01*
X378193Y256227D01*
X378225Y256321D01*
X378253Y256416D01*
X378278Y256512D01*
X378299Y256610D01*
X378316Y256708D01*
X378329Y256806D01*
X378338Y256905D01*
X378344Y257005D01*
X378346Y257104D01*
X375750Y254508D02*
X375606Y254510D01*
X375461Y254516D01*
X375317Y254525D01*
X375174Y254538D01*
X375030Y254555D01*
X374887Y254576D01*
X374745Y254601D01*
X374604Y254629D01*
X374463Y254661D01*
X374323Y254697D01*
X374184Y254736D01*
X374046Y254779D01*
X373910Y254826D01*
X373774Y254876D01*
X373640Y254930D01*
X373508Y254987D01*
X373377Y255048D01*
X373248Y255112D01*
X373120Y255180D01*
X372994Y255250D01*
X372870Y255325D01*
X372749Y255402D01*
X372629Y255483D01*
X372511Y255566D01*
X372396Y255653D01*
X372283Y255743D01*
X372172Y255836D01*
X372064Y255931D01*
X371958Y256030D01*
X371855Y256131D01*
X372181Y263596D02*
X372183Y263695D01*
X372189Y263795D01*
X372198Y263894D01*
X372211Y263992D01*
X372228Y264090D01*
X372249Y264188D01*
X372274Y264284D01*
X372302Y264379D01*
X372334Y264473D01*
X372369Y264566D01*
X372408Y264658D01*
X372451Y264748D01*
X372496Y264836D01*
X372546Y264923D01*
X372598Y265007D01*
X372654Y265090D01*
X372712Y265170D01*
X372774Y265248D01*
X372839Y265323D01*
X372907Y265396D01*
X372977Y265466D01*
X373050Y265534D01*
X373125Y265599D01*
X373203Y265661D01*
X373283Y265719D01*
X373366Y265775D01*
X373450Y265827D01*
X373537Y265877D01*
X373625Y265922D01*
X373715Y265965D01*
X373807Y266004D01*
X373900Y266039D01*
X373994Y266071D01*
X374089Y266099D01*
X374186Y266124D01*
X374283Y266145D01*
X374381Y266162D01*
X374479Y266175D01*
X374578Y266184D01*
X374678Y266190D01*
X374777Y266192D01*
X374913Y266190D01*
X375049Y266184D01*
X375185Y266175D01*
X375321Y266162D01*
X375456Y266144D01*
X375590Y266124D01*
X375724Y266099D01*
X375858Y266071D01*
X375990Y266038D01*
X376121Y266003D01*
X376252Y265963D01*
X376381Y265920D01*
X376509Y265874D01*
X376635Y265823D01*
X376761Y265770D01*
X376884Y265712D01*
X377006Y265652D01*
X377126Y265588D01*
X377245Y265520D01*
X377361Y265450D01*
X377475Y265376D01*
X377588Y265299D01*
X377698Y265218D01*
X373478Y261324D02*
X373392Y261377D01*
X373308Y261434D01*
X373226Y261493D01*
X373146Y261556D01*
X373069Y261622D01*
X372994Y261690D01*
X372922Y261762D01*
X372853Y261836D01*
X372787Y261913D01*
X372724Y261992D01*
X372664Y262074D01*
X372607Y262158D01*
X372553Y262244D01*
X372503Y262332D01*
X372456Y262422D01*
X372412Y262513D01*
X372373Y262607D01*
X372336Y262701D01*
X372304Y262797D01*
X372275Y262895D01*
X372250Y262993D01*
X372229Y263092D01*
X372211Y263192D01*
X372198Y263292D01*
X372188Y263393D01*
X372182Y263495D01*
X372180Y263596D01*
X377049Y259376D02*
X377135Y259323D01*
X377219Y259266D01*
X377301Y259207D01*
X377381Y259144D01*
X377458Y259078D01*
X377533Y259010D01*
X377605Y258938D01*
X377674Y258864D01*
X377740Y258787D01*
X377803Y258708D01*
X377863Y258626D01*
X377920Y258542D01*
X377974Y258456D01*
X378024Y258368D01*
X378071Y258278D01*
X378115Y258187D01*
X378154Y258093D01*
X378191Y257999D01*
X378223Y257903D01*
X378252Y257805D01*
X378277Y257707D01*
X378298Y257608D01*
X378316Y257508D01*
X378329Y257408D01*
X378339Y257307D01*
X378345Y257205D01*
X378347Y257104D01*
X377049Y259376D02*
X373479Y261324D01*
X384739Y254508D02*
X387985Y254508D01*
X384739Y254508D02*
X384652Y254510D01*
X384564Y254516D01*
X384478Y254526D01*
X384391Y254539D01*
X384306Y254557D01*
X384221Y254578D01*
X384137Y254603D01*
X384055Y254632D01*
X383974Y254665D01*
X383894Y254701D01*
X383816Y254740D01*
X383740Y254784D01*
X383666Y254830D01*
X383595Y254880D01*
X383525Y254933D01*
X383458Y254989D01*
X383394Y255048D01*
X383332Y255110D01*
X383273Y255174D01*
X383217Y255241D01*
X383164Y255311D01*
X383114Y255382D01*
X383068Y255456D01*
X383024Y255532D01*
X382985Y255610D01*
X382949Y255690D01*
X382916Y255771D01*
X382887Y255853D01*
X382862Y255937D01*
X382841Y256022D01*
X382823Y256107D01*
X382810Y256194D01*
X382800Y256280D01*
X382794Y256368D01*
X382792Y256455D01*
X382792Y259701D01*
X382794Y259802D01*
X382800Y259902D01*
X382810Y260002D01*
X382823Y260102D01*
X382841Y260201D01*
X382862Y260300D01*
X382887Y260397D01*
X382916Y260494D01*
X382949Y260589D01*
X382985Y260683D01*
X383025Y260775D01*
X383068Y260866D01*
X383115Y260955D01*
X383165Y261042D01*
X383219Y261128D01*
X383276Y261211D01*
X383336Y261291D01*
X383399Y261370D01*
X383466Y261446D01*
X383535Y261519D01*
X383607Y261589D01*
X383681Y261657D01*
X383758Y261722D01*
X383838Y261783D01*
X383920Y261842D01*
X384004Y261897D01*
X384090Y261949D01*
X384178Y261998D01*
X384268Y262043D01*
X384360Y262085D01*
X384453Y262123D01*
X384548Y262157D01*
X384643Y262188D01*
X384740Y262215D01*
X384838Y262238D01*
X384937Y262258D01*
X385037Y262273D01*
X385137Y262285D01*
X385237Y262293D01*
X385338Y262297D01*
X385438Y262297D01*
X385539Y262293D01*
X385639Y262285D01*
X385739Y262273D01*
X385839Y262258D01*
X385938Y262238D01*
X386036Y262215D01*
X386133Y262188D01*
X386228Y262157D01*
X386323Y262123D01*
X386416Y262085D01*
X386508Y262043D01*
X386598Y261998D01*
X386686Y261949D01*
X386772Y261897D01*
X386856Y261842D01*
X386938Y261783D01*
X387018Y261722D01*
X387095Y261657D01*
X387169Y261589D01*
X387241Y261519D01*
X387310Y261446D01*
X387377Y261370D01*
X387440Y261291D01*
X387500Y261211D01*
X387557Y261128D01*
X387611Y261042D01*
X387661Y260955D01*
X387708Y260866D01*
X387751Y260775D01*
X387791Y260683D01*
X387827Y260589D01*
X387860Y260494D01*
X387889Y260397D01*
X387914Y260300D01*
X387935Y260201D01*
X387953Y260102D01*
X387966Y260002D01*
X387976Y259902D01*
X387982Y259802D01*
X387984Y259701D01*
X387985Y259701D02*
X387985Y258403D01*
X382792Y258403D01*
X393079Y254508D02*
X393079Y262297D01*
X396324Y262297D01*
X396411Y262295D01*
X396499Y262289D01*
X396585Y262279D01*
X396672Y262266D01*
X396757Y262248D01*
X396842Y262227D01*
X396926Y262202D01*
X397008Y262173D01*
X397089Y262140D01*
X397169Y262104D01*
X397247Y262065D01*
X397323Y262021D01*
X397397Y261975D01*
X397468Y261925D01*
X397538Y261872D01*
X397605Y261816D01*
X397669Y261757D01*
X397731Y261696D01*
X397790Y261631D01*
X397846Y261564D01*
X397899Y261494D01*
X397949Y261423D01*
X397995Y261349D01*
X398039Y261273D01*
X398078Y261195D01*
X398114Y261115D01*
X398147Y261034D01*
X398176Y260952D01*
X398201Y260868D01*
X398222Y260783D01*
X398240Y260698D01*
X398253Y260611D01*
X398263Y260525D01*
X398269Y260437D01*
X398271Y260350D01*
X398272Y260350D02*
X398272Y254508D01*
X404340Y259052D02*
X407585Y257754D01*
X404340Y259051D02*
X404265Y259084D01*
X404191Y259120D01*
X404119Y259159D01*
X404049Y259202D01*
X403982Y259248D01*
X403916Y259298D01*
X403854Y259350D01*
X403793Y259406D01*
X403736Y259464D01*
X403681Y259525D01*
X403630Y259589D01*
X403582Y259655D01*
X403537Y259724D01*
X403495Y259794D01*
X403457Y259867D01*
X403422Y259941D01*
X403391Y260017D01*
X403364Y260094D01*
X403341Y260173D01*
X403321Y260252D01*
X403306Y260333D01*
X403294Y260414D01*
X403286Y260496D01*
X403282Y260577D01*
X403283Y260659D01*
X403287Y260741D01*
X403295Y260823D01*
X403307Y260904D01*
X403323Y260984D01*
X403343Y261064D01*
X403367Y261142D01*
X403395Y261219D01*
X403426Y261295D01*
X403461Y261369D01*
X403499Y261441D01*
X403541Y261512D01*
X403587Y261580D01*
X403635Y261646D01*
X403687Y261709D01*
X403742Y261770D01*
X403800Y261828D01*
X403860Y261884D01*
X403923Y261936D01*
X403989Y261985D01*
X404057Y262031D01*
X404127Y262073D01*
X404199Y262113D01*
X404273Y262148D01*
X404348Y262180D01*
X404425Y262208D01*
X404503Y262232D01*
X404583Y262253D01*
X404663Y262270D01*
X404744Y262282D01*
X404825Y262291D01*
X404907Y262296D01*
X404989Y262297D01*
X404988Y262297D02*
X405165Y262293D01*
X405342Y262284D01*
X405519Y262270D01*
X405696Y262253D01*
X405871Y262231D01*
X406047Y262206D01*
X406221Y262175D01*
X406395Y262141D01*
X406568Y262103D01*
X406740Y262060D01*
X406911Y262013D01*
X407081Y261963D01*
X407250Y261908D01*
X407417Y261849D01*
X407582Y261786D01*
X407747Y261719D01*
X407909Y261648D01*
X407585Y257754D02*
X407660Y257721D01*
X407734Y257685D01*
X407806Y257646D01*
X407876Y257603D01*
X407943Y257557D01*
X408009Y257507D01*
X408071Y257455D01*
X408132Y257399D01*
X408189Y257341D01*
X408244Y257280D01*
X408295Y257216D01*
X408343Y257150D01*
X408388Y257081D01*
X408430Y257011D01*
X408468Y256938D01*
X408503Y256864D01*
X408534Y256788D01*
X408561Y256711D01*
X408584Y256632D01*
X408604Y256553D01*
X408619Y256472D01*
X408631Y256391D01*
X408639Y256309D01*
X408643Y256228D01*
X408642Y256146D01*
X408638Y256064D01*
X408630Y255982D01*
X408618Y255901D01*
X408602Y255821D01*
X408582Y255741D01*
X408558Y255663D01*
X408530Y255586D01*
X408499Y255510D01*
X408464Y255436D01*
X408426Y255364D01*
X408384Y255293D01*
X408338Y255225D01*
X408290Y255159D01*
X408238Y255096D01*
X408183Y255035D01*
X408125Y254977D01*
X408065Y254921D01*
X408002Y254869D01*
X407936Y254820D01*
X407868Y254774D01*
X407798Y254732D01*
X407726Y254692D01*
X407652Y254657D01*
X407577Y254625D01*
X407500Y254597D01*
X407422Y254573D01*
X407342Y254552D01*
X407262Y254535D01*
X407181Y254523D01*
X407100Y254514D01*
X407018Y254509D01*
X406936Y254508D01*
X406676Y254515D01*
X406416Y254528D01*
X406156Y254547D01*
X405897Y254572D01*
X405638Y254604D01*
X405381Y254641D01*
X405124Y254685D01*
X404868Y254734D01*
X404614Y254790D01*
X404361Y254851D01*
X404110Y254919D01*
X403860Y254993D01*
X403612Y255072D01*
X403366Y255157D01*
X413272Y257104D02*
X413272Y259701D01*
X413274Y259802D01*
X413280Y259902D01*
X413290Y260002D01*
X413303Y260102D01*
X413321Y260201D01*
X413342Y260300D01*
X413367Y260397D01*
X413396Y260494D01*
X413429Y260589D01*
X413465Y260683D01*
X413505Y260775D01*
X413548Y260866D01*
X413595Y260955D01*
X413645Y261042D01*
X413699Y261128D01*
X413756Y261211D01*
X413816Y261291D01*
X413879Y261370D01*
X413946Y261446D01*
X414015Y261519D01*
X414087Y261589D01*
X414161Y261657D01*
X414238Y261722D01*
X414318Y261783D01*
X414400Y261842D01*
X414484Y261897D01*
X414570Y261949D01*
X414658Y261998D01*
X414748Y262043D01*
X414840Y262085D01*
X414933Y262123D01*
X415028Y262157D01*
X415123Y262188D01*
X415220Y262215D01*
X415318Y262238D01*
X415417Y262258D01*
X415517Y262273D01*
X415617Y262285D01*
X415717Y262293D01*
X415818Y262297D01*
X415918Y262297D01*
X416019Y262293D01*
X416119Y262285D01*
X416219Y262273D01*
X416319Y262258D01*
X416418Y262238D01*
X416516Y262215D01*
X416613Y262188D01*
X416708Y262157D01*
X416803Y262123D01*
X416896Y262085D01*
X416988Y262043D01*
X417078Y261998D01*
X417166Y261949D01*
X417252Y261897D01*
X417336Y261842D01*
X417418Y261783D01*
X417498Y261722D01*
X417575Y261657D01*
X417649Y261589D01*
X417721Y261519D01*
X417790Y261446D01*
X417857Y261370D01*
X417920Y261291D01*
X417980Y261211D01*
X418037Y261128D01*
X418091Y261042D01*
X418141Y260955D01*
X418188Y260866D01*
X418231Y260775D01*
X418271Y260683D01*
X418307Y260589D01*
X418340Y260494D01*
X418369Y260397D01*
X418394Y260300D01*
X418415Y260201D01*
X418433Y260102D01*
X418446Y260002D01*
X418456Y259902D01*
X418462Y259802D01*
X418464Y259701D01*
X418465Y259701D02*
X418465Y257104D01*
X418464Y257104D02*
X418462Y257003D01*
X418456Y256903D01*
X418446Y256803D01*
X418433Y256703D01*
X418415Y256604D01*
X418394Y256505D01*
X418369Y256408D01*
X418340Y256311D01*
X418307Y256216D01*
X418271Y256122D01*
X418231Y256030D01*
X418188Y255939D01*
X418141Y255850D01*
X418091Y255763D01*
X418037Y255677D01*
X417980Y255594D01*
X417920Y255514D01*
X417857Y255435D01*
X417790Y255359D01*
X417721Y255286D01*
X417649Y255216D01*
X417575Y255148D01*
X417498Y255083D01*
X417418Y255022D01*
X417336Y254963D01*
X417252Y254908D01*
X417166Y254856D01*
X417078Y254807D01*
X416988Y254762D01*
X416896Y254720D01*
X416803Y254682D01*
X416708Y254648D01*
X416613Y254617D01*
X416516Y254590D01*
X416418Y254567D01*
X416319Y254547D01*
X416219Y254532D01*
X416119Y254520D01*
X416019Y254512D01*
X415918Y254508D01*
X415818Y254508D01*
X415717Y254512D01*
X415617Y254520D01*
X415517Y254532D01*
X415417Y254547D01*
X415318Y254567D01*
X415220Y254590D01*
X415123Y254617D01*
X415028Y254648D01*
X414933Y254682D01*
X414840Y254720D01*
X414748Y254762D01*
X414658Y254807D01*
X414570Y254856D01*
X414484Y254908D01*
X414400Y254963D01*
X414318Y255022D01*
X414238Y255083D01*
X414161Y255148D01*
X414087Y255216D01*
X414015Y255286D01*
X413946Y255359D01*
X413879Y255435D01*
X413816Y255514D01*
X413756Y255594D01*
X413699Y255677D01*
X413645Y255763D01*
X413595Y255850D01*
X413548Y255939D01*
X413505Y256030D01*
X413465Y256122D01*
X413429Y256216D01*
X413396Y256311D01*
X413367Y256408D01*
X413342Y256505D01*
X413321Y256604D01*
X413303Y256703D01*
X413290Y256803D01*
X413280Y256903D01*
X413274Y257003D01*
X413272Y257104D01*
X423625Y254508D02*
X423625Y262297D01*
X427520Y262297D01*
X427520Y260999D01*
X203708Y126492D02*
X203708Y114808D01*
X203708Y119352D02*
X210199Y126492D01*
X206304Y121948D02*
X210199Y114808D01*
X214856Y116755D02*
X214856Y122597D01*
X214856Y116755D02*
X214858Y116668D01*
X214864Y116580D01*
X214874Y116494D01*
X214887Y116407D01*
X214905Y116322D01*
X214926Y116237D01*
X214951Y116153D01*
X214980Y116071D01*
X215013Y115990D01*
X215049Y115910D01*
X215088Y115832D01*
X215132Y115756D01*
X215178Y115682D01*
X215228Y115611D01*
X215281Y115541D01*
X215337Y115474D01*
X215396Y115410D01*
X215458Y115348D01*
X215522Y115289D01*
X215589Y115233D01*
X215659Y115180D01*
X215730Y115130D01*
X215804Y115084D01*
X215880Y115040D01*
X215958Y115001D01*
X216038Y114965D01*
X216119Y114932D01*
X216201Y114903D01*
X216285Y114878D01*
X216370Y114857D01*
X216455Y114839D01*
X216542Y114826D01*
X216628Y114816D01*
X216716Y114810D01*
X216803Y114808D01*
X220049Y114808D01*
X220049Y122597D01*
X225583Y126492D02*
X225583Y114808D01*
X228828Y114808D01*
X228915Y114810D01*
X229003Y114816D01*
X229089Y114826D01*
X229176Y114839D01*
X229261Y114857D01*
X229346Y114878D01*
X229430Y114903D01*
X229512Y114932D01*
X229593Y114965D01*
X229673Y115001D01*
X229751Y115040D01*
X229827Y115084D01*
X229901Y115130D01*
X229972Y115180D01*
X230042Y115233D01*
X230109Y115289D01*
X230173Y115348D01*
X230235Y115409D01*
X230294Y115474D01*
X230350Y115541D01*
X230403Y115611D01*
X230453Y115682D01*
X230499Y115756D01*
X230543Y115832D01*
X230582Y115910D01*
X230618Y115990D01*
X230651Y116071D01*
X230680Y116153D01*
X230705Y116237D01*
X230726Y116322D01*
X230744Y116407D01*
X230757Y116494D01*
X230767Y116580D01*
X230773Y116668D01*
X230775Y116755D01*
X230776Y116755D02*
X230776Y120650D01*
X230775Y120650D02*
X230773Y120737D01*
X230767Y120825D01*
X230757Y120911D01*
X230744Y120998D01*
X230726Y121083D01*
X230705Y121168D01*
X230680Y121252D01*
X230651Y121334D01*
X230618Y121415D01*
X230582Y121495D01*
X230543Y121573D01*
X230499Y121649D01*
X230453Y121723D01*
X230403Y121794D01*
X230350Y121864D01*
X230294Y121931D01*
X230235Y121995D01*
X230173Y122057D01*
X230109Y122116D01*
X230042Y122172D01*
X229972Y122225D01*
X229901Y122275D01*
X229827Y122321D01*
X229751Y122365D01*
X229673Y122404D01*
X229593Y122440D01*
X229512Y122473D01*
X229430Y122502D01*
X229346Y122527D01*
X229261Y122548D01*
X229176Y122566D01*
X229089Y122579D01*
X229003Y122589D01*
X228915Y122595D01*
X228828Y122597D01*
X225583Y122597D01*
X237377Y114808D02*
X240623Y114808D01*
X237377Y114808D02*
X237290Y114810D01*
X237202Y114816D01*
X237116Y114826D01*
X237029Y114839D01*
X236944Y114857D01*
X236859Y114878D01*
X236775Y114903D01*
X236693Y114932D01*
X236612Y114965D01*
X236532Y115001D01*
X236454Y115040D01*
X236378Y115084D01*
X236304Y115130D01*
X236233Y115180D01*
X236163Y115233D01*
X236096Y115289D01*
X236032Y115348D01*
X235970Y115410D01*
X235911Y115474D01*
X235855Y115541D01*
X235802Y115611D01*
X235752Y115682D01*
X235706Y115756D01*
X235662Y115832D01*
X235623Y115910D01*
X235587Y115990D01*
X235554Y116071D01*
X235525Y116153D01*
X235500Y116237D01*
X235479Y116322D01*
X235461Y116407D01*
X235448Y116494D01*
X235438Y116580D01*
X235432Y116668D01*
X235430Y116755D01*
X235430Y120001D01*
X235432Y120102D01*
X235438Y120202D01*
X235448Y120302D01*
X235461Y120402D01*
X235479Y120501D01*
X235500Y120600D01*
X235525Y120697D01*
X235554Y120794D01*
X235587Y120889D01*
X235623Y120983D01*
X235663Y121075D01*
X235706Y121166D01*
X235753Y121255D01*
X235803Y121342D01*
X235857Y121428D01*
X235914Y121511D01*
X235974Y121591D01*
X236037Y121670D01*
X236104Y121746D01*
X236173Y121819D01*
X236245Y121889D01*
X236319Y121957D01*
X236396Y122022D01*
X236476Y122083D01*
X236558Y122142D01*
X236642Y122197D01*
X236728Y122249D01*
X236816Y122298D01*
X236906Y122343D01*
X236998Y122385D01*
X237091Y122423D01*
X237186Y122457D01*
X237281Y122488D01*
X237378Y122515D01*
X237476Y122538D01*
X237575Y122558D01*
X237675Y122573D01*
X237775Y122585D01*
X237875Y122593D01*
X237976Y122597D01*
X238076Y122597D01*
X238177Y122593D01*
X238277Y122585D01*
X238377Y122573D01*
X238477Y122558D01*
X238576Y122538D01*
X238674Y122515D01*
X238771Y122488D01*
X238866Y122457D01*
X238961Y122423D01*
X239054Y122385D01*
X239146Y122343D01*
X239236Y122298D01*
X239324Y122249D01*
X239410Y122197D01*
X239494Y122142D01*
X239576Y122083D01*
X239656Y122022D01*
X239733Y121957D01*
X239807Y121889D01*
X239879Y121819D01*
X239948Y121746D01*
X240015Y121670D01*
X240078Y121591D01*
X240138Y121511D01*
X240195Y121428D01*
X240249Y121342D01*
X240299Y121255D01*
X240346Y121166D01*
X240389Y121075D01*
X240429Y120983D01*
X240465Y120889D01*
X240498Y120794D01*
X240527Y120697D01*
X240552Y120600D01*
X240573Y120501D01*
X240591Y120402D01*
X240604Y120302D01*
X240614Y120202D01*
X240620Y120102D01*
X240622Y120001D01*
X240623Y120001D02*
X240623Y118703D01*
X235430Y118703D01*
X245562Y119352D02*
X253351Y119352D01*
X258897Y114808D02*
X258897Y126492D01*
X262791Y120001D01*
X266686Y126492D01*
X266686Y114808D01*
X272006Y117404D02*
X272006Y120001D01*
X272008Y120102D01*
X272014Y120202D01*
X272024Y120302D01*
X272037Y120402D01*
X272055Y120501D01*
X272076Y120600D01*
X272101Y120697D01*
X272130Y120794D01*
X272163Y120889D01*
X272199Y120983D01*
X272239Y121075D01*
X272282Y121166D01*
X272329Y121255D01*
X272379Y121342D01*
X272433Y121428D01*
X272490Y121511D01*
X272550Y121591D01*
X272613Y121670D01*
X272680Y121746D01*
X272749Y121819D01*
X272821Y121889D01*
X272895Y121957D01*
X272972Y122022D01*
X273052Y122083D01*
X273134Y122142D01*
X273218Y122197D01*
X273304Y122249D01*
X273392Y122298D01*
X273482Y122343D01*
X273574Y122385D01*
X273667Y122423D01*
X273762Y122457D01*
X273857Y122488D01*
X273954Y122515D01*
X274052Y122538D01*
X274151Y122558D01*
X274251Y122573D01*
X274351Y122585D01*
X274451Y122593D01*
X274552Y122597D01*
X274652Y122597D01*
X274753Y122593D01*
X274853Y122585D01*
X274953Y122573D01*
X275053Y122558D01*
X275152Y122538D01*
X275250Y122515D01*
X275347Y122488D01*
X275442Y122457D01*
X275537Y122423D01*
X275630Y122385D01*
X275722Y122343D01*
X275812Y122298D01*
X275900Y122249D01*
X275986Y122197D01*
X276070Y122142D01*
X276152Y122083D01*
X276232Y122022D01*
X276309Y121957D01*
X276383Y121889D01*
X276455Y121819D01*
X276524Y121746D01*
X276591Y121670D01*
X276654Y121591D01*
X276714Y121511D01*
X276771Y121428D01*
X276825Y121342D01*
X276875Y121255D01*
X276922Y121166D01*
X276965Y121075D01*
X277005Y120983D01*
X277041Y120889D01*
X277074Y120794D01*
X277103Y120697D01*
X277128Y120600D01*
X277149Y120501D01*
X277167Y120402D01*
X277180Y120302D01*
X277190Y120202D01*
X277196Y120102D01*
X277198Y120001D01*
X277199Y120001D02*
X277199Y117404D01*
X277198Y117404D02*
X277196Y117303D01*
X277190Y117203D01*
X277180Y117103D01*
X277167Y117003D01*
X277149Y116904D01*
X277128Y116805D01*
X277103Y116708D01*
X277074Y116611D01*
X277041Y116516D01*
X277005Y116422D01*
X276965Y116330D01*
X276922Y116239D01*
X276875Y116150D01*
X276825Y116063D01*
X276771Y115977D01*
X276714Y115894D01*
X276654Y115814D01*
X276591Y115735D01*
X276524Y115659D01*
X276455Y115586D01*
X276383Y115516D01*
X276309Y115448D01*
X276232Y115383D01*
X276152Y115322D01*
X276070Y115263D01*
X275986Y115208D01*
X275900Y115156D01*
X275812Y115107D01*
X275722Y115062D01*
X275630Y115020D01*
X275537Y114982D01*
X275442Y114948D01*
X275347Y114917D01*
X275250Y114890D01*
X275152Y114867D01*
X275053Y114847D01*
X274953Y114832D01*
X274853Y114820D01*
X274753Y114812D01*
X274652Y114808D01*
X274552Y114808D01*
X274451Y114812D01*
X274351Y114820D01*
X274251Y114832D01*
X274151Y114847D01*
X274052Y114867D01*
X273954Y114890D01*
X273857Y114917D01*
X273762Y114948D01*
X273667Y114982D01*
X273574Y115020D01*
X273482Y115062D01*
X273392Y115107D01*
X273304Y115156D01*
X273218Y115208D01*
X273134Y115263D01*
X273052Y115322D01*
X272972Y115383D01*
X272895Y115448D01*
X272821Y115516D01*
X272749Y115586D01*
X272680Y115659D01*
X272613Y115735D01*
X272550Y115814D01*
X272490Y115894D01*
X272433Y115977D01*
X272379Y116063D01*
X272329Y116150D01*
X272282Y116239D01*
X272239Y116330D01*
X272199Y116422D01*
X272163Y116516D01*
X272130Y116611D01*
X272101Y116708D01*
X272076Y116805D01*
X272055Y116904D01*
X272037Y117003D01*
X272024Y117103D01*
X272014Y117203D01*
X272008Y117303D01*
X272006Y117404D01*
X287046Y114808D02*
X287046Y126492D01*
X287046Y114808D02*
X283800Y114808D01*
X283713Y114810D01*
X283625Y114816D01*
X283539Y114826D01*
X283452Y114839D01*
X283367Y114857D01*
X283282Y114878D01*
X283198Y114903D01*
X283116Y114932D01*
X283035Y114965D01*
X282955Y115001D01*
X282877Y115040D01*
X282801Y115084D01*
X282727Y115130D01*
X282656Y115180D01*
X282586Y115233D01*
X282519Y115289D01*
X282455Y115348D01*
X282393Y115410D01*
X282334Y115474D01*
X282278Y115541D01*
X282225Y115611D01*
X282175Y115682D01*
X282129Y115756D01*
X282085Y115832D01*
X282046Y115910D01*
X282010Y115990D01*
X281977Y116071D01*
X281948Y116153D01*
X281923Y116237D01*
X281902Y116322D01*
X281884Y116407D01*
X281871Y116494D01*
X281861Y116580D01*
X281855Y116668D01*
X281853Y116755D01*
X281853Y120650D01*
X281855Y120737D01*
X281861Y120825D01*
X281871Y120911D01*
X281884Y120998D01*
X281902Y121083D01*
X281923Y121168D01*
X281948Y121252D01*
X281977Y121334D01*
X282010Y121415D01*
X282046Y121495D01*
X282085Y121573D01*
X282129Y121649D01*
X282175Y121723D01*
X282225Y121794D01*
X282278Y121864D01*
X282334Y121931D01*
X282393Y121995D01*
X282455Y122057D01*
X282519Y122116D01*
X282586Y122172D01*
X282656Y122225D01*
X282727Y122275D01*
X282801Y122321D01*
X282877Y122365D01*
X282955Y122404D01*
X283035Y122440D01*
X283116Y122473D01*
X283198Y122502D01*
X283282Y122527D01*
X283367Y122548D01*
X283452Y122566D01*
X283539Y122579D01*
X283625Y122589D01*
X283713Y122595D01*
X283800Y122597D01*
X287046Y122597D01*
X292580Y122597D02*
X292580Y116755D01*
X292582Y116668D01*
X292588Y116580D01*
X292598Y116494D01*
X292611Y116407D01*
X292629Y116322D01*
X292650Y116237D01*
X292675Y116153D01*
X292704Y116071D01*
X292737Y115990D01*
X292773Y115910D01*
X292812Y115832D01*
X292856Y115756D01*
X292902Y115682D01*
X292952Y115611D01*
X293005Y115541D01*
X293061Y115474D01*
X293120Y115410D01*
X293182Y115348D01*
X293246Y115289D01*
X293313Y115233D01*
X293383Y115180D01*
X293454Y115130D01*
X293528Y115084D01*
X293604Y115040D01*
X293682Y115001D01*
X293762Y114965D01*
X293843Y114932D01*
X293925Y114903D01*
X294009Y114878D01*
X294094Y114857D01*
X294179Y114839D01*
X294266Y114826D01*
X294352Y114816D01*
X294440Y114810D01*
X294527Y114808D01*
X297773Y114808D01*
X297773Y122597D01*
X303016Y126492D02*
X303016Y116755D01*
X303017Y116755D02*
X303019Y116668D01*
X303025Y116580D01*
X303035Y116494D01*
X303048Y116407D01*
X303066Y116322D01*
X303087Y116237D01*
X303112Y116153D01*
X303141Y116071D01*
X303174Y115990D01*
X303210Y115910D01*
X303249Y115832D01*
X303293Y115756D01*
X303339Y115682D01*
X303389Y115611D01*
X303442Y115541D01*
X303498Y115474D01*
X303557Y115410D01*
X303619Y115348D01*
X303683Y115289D01*
X303750Y115233D01*
X303820Y115180D01*
X303891Y115130D01*
X303965Y115084D01*
X304041Y115040D01*
X304119Y115001D01*
X304199Y114965D01*
X304280Y114932D01*
X304362Y114903D01*
X304446Y114878D01*
X304531Y114857D01*
X304616Y114839D01*
X304703Y114826D01*
X304789Y114816D01*
X304877Y114810D01*
X304964Y114808D01*
X310910Y114808D02*
X314156Y114808D01*
X310910Y114808D02*
X310823Y114810D01*
X310735Y114816D01*
X310649Y114826D01*
X310562Y114839D01*
X310477Y114857D01*
X310392Y114878D01*
X310308Y114903D01*
X310226Y114932D01*
X310145Y114965D01*
X310065Y115001D01*
X309987Y115040D01*
X309911Y115084D01*
X309837Y115130D01*
X309766Y115180D01*
X309696Y115233D01*
X309629Y115289D01*
X309565Y115348D01*
X309503Y115410D01*
X309444Y115474D01*
X309388Y115541D01*
X309335Y115611D01*
X309285Y115682D01*
X309239Y115756D01*
X309195Y115832D01*
X309156Y115910D01*
X309120Y115990D01*
X309087Y116071D01*
X309058Y116153D01*
X309033Y116237D01*
X309012Y116322D01*
X308994Y116407D01*
X308981Y116494D01*
X308971Y116580D01*
X308965Y116668D01*
X308963Y116755D01*
X308963Y120001D01*
X308965Y120102D01*
X308971Y120202D01*
X308981Y120302D01*
X308994Y120402D01*
X309012Y120501D01*
X309033Y120600D01*
X309058Y120697D01*
X309087Y120794D01*
X309120Y120889D01*
X309156Y120983D01*
X309196Y121075D01*
X309239Y121166D01*
X309286Y121255D01*
X309336Y121342D01*
X309390Y121428D01*
X309447Y121511D01*
X309507Y121591D01*
X309570Y121670D01*
X309637Y121746D01*
X309706Y121819D01*
X309778Y121889D01*
X309852Y121957D01*
X309929Y122022D01*
X310009Y122083D01*
X310091Y122142D01*
X310175Y122197D01*
X310261Y122249D01*
X310349Y122298D01*
X310439Y122343D01*
X310531Y122385D01*
X310624Y122423D01*
X310719Y122457D01*
X310814Y122488D01*
X310911Y122515D01*
X311009Y122538D01*
X311108Y122558D01*
X311208Y122573D01*
X311308Y122585D01*
X311408Y122593D01*
X311509Y122597D01*
X311609Y122597D01*
X311710Y122593D01*
X311810Y122585D01*
X311910Y122573D01*
X312010Y122558D01*
X312109Y122538D01*
X312207Y122515D01*
X312304Y122488D01*
X312399Y122457D01*
X312494Y122423D01*
X312587Y122385D01*
X312679Y122343D01*
X312769Y122298D01*
X312857Y122249D01*
X312943Y122197D01*
X313027Y122142D01*
X313109Y122083D01*
X313189Y122022D01*
X313266Y121957D01*
X313340Y121889D01*
X313412Y121819D01*
X313481Y121746D01*
X313548Y121670D01*
X313611Y121591D01*
X313671Y121511D01*
X313728Y121428D01*
X313782Y121342D01*
X313832Y121255D01*
X313879Y121166D01*
X313922Y121075D01*
X313962Y120983D01*
X313998Y120889D01*
X314031Y120794D01*
X314060Y120697D01*
X314085Y120600D01*
X314106Y120501D01*
X314124Y120402D01*
X314137Y120302D01*
X314147Y120202D01*
X314153Y120102D01*
X314155Y120001D01*
X314156Y120001D02*
X314156Y118703D01*
X308963Y118703D01*
X319094Y119352D02*
X326884Y119352D01*
X331936Y118054D02*
X331936Y123246D01*
X331935Y123246D02*
X331937Y123359D01*
X331943Y123472D01*
X331953Y123585D01*
X331967Y123698D01*
X331984Y123810D01*
X332006Y123921D01*
X332031Y124031D01*
X332061Y124141D01*
X332094Y124249D01*
X332131Y124356D01*
X332171Y124462D01*
X332216Y124566D01*
X332264Y124669D01*
X332315Y124770D01*
X332370Y124869D01*
X332428Y124966D01*
X332490Y125061D01*
X332555Y125154D01*
X332623Y125244D01*
X332694Y125332D01*
X332769Y125418D01*
X332846Y125501D01*
X332926Y125581D01*
X333009Y125658D01*
X333095Y125733D01*
X333183Y125804D01*
X333273Y125872D01*
X333366Y125937D01*
X333461Y125999D01*
X333558Y126057D01*
X333657Y126112D01*
X333758Y126163D01*
X333861Y126211D01*
X333965Y126256D01*
X334071Y126296D01*
X334178Y126333D01*
X334286Y126366D01*
X334396Y126396D01*
X334506Y126421D01*
X334617Y126443D01*
X334729Y126460D01*
X334842Y126474D01*
X334955Y126484D01*
X335068Y126490D01*
X335181Y126492D01*
X335294Y126490D01*
X335407Y126484D01*
X335520Y126474D01*
X335633Y126460D01*
X335745Y126443D01*
X335856Y126421D01*
X335966Y126396D01*
X336076Y126366D01*
X336184Y126333D01*
X336291Y126296D01*
X336397Y126256D01*
X336501Y126211D01*
X336604Y126163D01*
X336705Y126112D01*
X336804Y126057D01*
X336901Y125999D01*
X336996Y125937D01*
X337089Y125872D01*
X337179Y125804D01*
X337267Y125733D01*
X337353Y125658D01*
X337436Y125581D01*
X337516Y125501D01*
X337593Y125418D01*
X337668Y125332D01*
X337739Y125244D01*
X337807Y125154D01*
X337872Y125061D01*
X337934Y124966D01*
X337992Y124869D01*
X338047Y124770D01*
X338098Y124669D01*
X338146Y124566D01*
X338191Y124462D01*
X338231Y124356D01*
X338268Y124249D01*
X338301Y124141D01*
X338331Y124031D01*
X338356Y123921D01*
X338378Y123810D01*
X338395Y123698D01*
X338409Y123585D01*
X338419Y123472D01*
X338425Y123359D01*
X338427Y123246D01*
X338427Y118054D01*
X338425Y117941D01*
X338419Y117828D01*
X338409Y117715D01*
X338395Y117602D01*
X338378Y117490D01*
X338356Y117379D01*
X338331Y117269D01*
X338301Y117159D01*
X338268Y117051D01*
X338231Y116944D01*
X338191Y116838D01*
X338146Y116734D01*
X338098Y116631D01*
X338047Y116530D01*
X337992Y116431D01*
X337934Y116334D01*
X337872Y116239D01*
X337807Y116146D01*
X337739Y116056D01*
X337668Y115968D01*
X337593Y115882D01*
X337516Y115799D01*
X337436Y115719D01*
X337353Y115642D01*
X337267Y115567D01*
X337179Y115496D01*
X337089Y115428D01*
X336996Y115363D01*
X336901Y115301D01*
X336804Y115243D01*
X336705Y115188D01*
X336604Y115137D01*
X336501Y115089D01*
X336397Y115044D01*
X336291Y115004D01*
X336184Y114967D01*
X336076Y114934D01*
X335966Y114904D01*
X335856Y114879D01*
X335745Y114857D01*
X335633Y114840D01*
X335520Y114826D01*
X335407Y114816D01*
X335294Y114810D01*
X335181Y114808D01*
X335068Y114810D01*
X334955Y114816D01*
X334842Y114826D01*
X334729Y114840D01*
X334617Y114857D01*
X334506Y114879D01*
X334396Y114904D01*
X334286Y114934D01*
X334178Y114967D01*
X334071Y115004D01*
X333965Y115044D01*
X333861Y115089D01*
X333758Y115137D01*
X333657Y115188D01*
X333558Y115243D01*
X333461Y115301D01*
X333366Y115363D01*
X333273Y115428D01*
X333183Y115496D01*
X333095Y115567D01*
X333009Y115642D01*
X332926Y115719D01*
X332846Y115799D01*
X332769Y115882D01*
X332694Y115968D01*
X332623Y116056D01*
X332555Y116146D01*
X332490Y116239D01*
X332428Y116334D01*
X332370Y116431D01*
X332315Y116530D01*
X332264Y116631D01*
X332216Y116734D01*
X332171Y116838D01*
X332131Y116944D01*
X332094Y117051D01*
X332061Y117159D01*
X332031Y117269D01*
X332006Y117379D01*
X331984Y117490D01*
X331967Y117602D01*
X331953Y117715D01*
X331943Y117828D01*
X331937Y117941D01*
X331935Y118054D01*
X343769Y114808D02*
X343769Y126492D01*
X343769Y114808D02*
X348962Y114808D01*
X353675Y114808D02*
X358868Y114808D01*
X353675Y114808D02*
X353675Y126492D01*
X358868Y126492D01*
X357570Y121299D02*
X353675Y121299D01*
X363559Y126492D02*
X363559Y114808D01*
X363559Y126492D02*
X366804Y126492D01*
X366917Y126490D01*
X367030Y126484D01*
X367143Y126474D01*
X367256Y126460D01*
X367368Y126443D01*
X367479Y126421D01*
X367589Y126396D01*
X367699Y126366D01*
X367807Y126333D01*
X367914Y126296D01*
X368020Y126256D01*
X368124Y126211D01*
X368227Y126163D01*
X368328Y126112D01*
X368427Y126057D01*
X368524Y125999D01*
X368619Y125937D01*
X368712Y125872D01*
X368802Y125804D01*
X368890Y125733D01*
X368976Y125658D01*
X369059Y125581D01*
X369139Y125501D01*
X369216Y125418D01*
X369291Y125332D01*
X369362Y125244D01*
X369430Y125154D01*
X369495Y125061D01*
X369557Y124966D01*
X369615Y124869D01*
X369670Y124770D01*
X369721Y124669D01*
X369769Y124566D01*
X369814Y124462D01*
X369854Y124356D01*
X369891Y124249D01*
X369924Y124141D01*
X369954Y124031D01*
X369979Y123921D01*
X370001Y123810D01*
X370018Y123698D01*
X370032Y123585D01*
X370042Y123472D01*
X370048Y123359D01*
X370050Y123246D01*
X370050Y118054D01*
X370048Y117941D01*
X370042Y117828D01*
X370032Y117715D01*
X370018Y117602D01*
X370001Y117490D01*
X369979Y117379D01*
X369954Y117269D01*
X369924Y117159D01*
X369891Y117051D01*
X369854Y116944D01*
X369814Y116838D01*
X369769Y116734D01*
X369721Y116631D01*
X369670Y116530D01*
X369615Y116431D01*
X369557Y116334D01*
X369495Y116239D01*
X369430Y116146D01*
X369362Y116056D01*
X369291Y115968D01*
X369216Y115882D01*
X369139Y115799D01*
X369059Y115719D01*
X368976Y115642D01*
X368890Y115567D01*
X368802Y115496D01*
X368712Y115428D01*
X368619Y115363D01*
X368524Y115301D01*
X368427Y115243D01*
X368328Y115188D01*
X368227Y115137D01*
X368124Y115089D01*
X368020Y115044D01*
X367914Y115004D01*
X367807Y114967D01*
X367699Y114934D01*
X367589Y114904D01*
X367479Y114879D01*
X367368Y114857D01*
X367256Y114840D01*
X367143Y114826D01*
X367030Y114816D01*
X366917Y114810D01*
X366804Y114808D01*
X363559Y114808D01*
X374876Y113510D02*
X380068Y113510D01*
X383864Y114808D02*
X387759Y126492D01*
X391654Y114808D01*
X390680Y117729D02*
X384838Y117729D01*
X396437Y114808D02*
X396437Y122597D01*
X402279Y122597D01*
X402366Y122595D01*
X402454Y122589D01*
X402540Y122579D01*
X402627Y122566D01*
X402712Y122548D01*
X402797Y122527D01*
X402881Y122502D01*
X402963Y122473D01*
X403044Y122440D01*
X403124Y122404D01*
X403202Y122365D01*
X403278Y122321D01*
X403352Y122275D01*
X403423Y122225D01*
X403493Y122172D01*
X403560Y122116D01*
X403624Y122057D01*
X403686Y121995D01*
X403745Y121931D01*
X403801Y121864D01*
X403854Y121794D01*
X403904Y121723D01*
X403950Y121649D01*
X403994Y121573D01*
X404033Y121495D01*
X404069Y121415D01*
X404102Y121334D01*
X404131Y121252D01*
X404156Y121168D01*
X404177Y121083D01*
X404195Y120998D01*
X404208Y120911D01*
X404218Y120825D01*
X404224Y120737D01*
X404226Y120650D01*
X404227Y120650D02*
X404227Y114808D01*
X400332Y114808D02*
X400332Y122597D01*
X409986Y126492D02*
X409986Y114808D01*
X413232Y114808D01*
X413319Y114810D01*
X413407Y114816D01*
X413493Y114826D01*
X413580Y114839D01*
X413665Y114857D01*
X413750Y114878D01*
X413834Y114903D01*
X413916Y114932D01*
X413997Y114965D01*
X414077Y115001D01*
X414155Y115040D01*
X414231Y115084D01*
X414305Y115130D01*
X414376Y115180D01*
X414446Y115233D01*
X414513Y115289D01*
X414577Y115348D01*
X414639Y115409D01*
X414698Y115474D01*
X414754Y115541D01*
X414807Y115611D01*
X414857Y115682D01*
X414903Y115756D01*
X414947Y115832D01*
X414986Y115910D01*
X415022Y115990D01*
X415055Y116071D01*
X415084Y116153D01*
X415109Y116237D01*
X415130Y116322D01*
X415148Y116407D01*
X415161Y116494D01*
X415171Y116580D01*
X415177Y116668D01*
X415179Y116755D01*
X415179Y120650D01*
X415177Y120737D01*
X415171Y120825D01*
X415161Y120911D01*
X415148Y120998D01*
X415130Y121083D01*
X415109Y121168D01*
X415084Y121252D01*
X415055Y121334D01*
X415022Y121415D01*
X414986Y121495D01*
X414947Y121573D01*
X414903Y121649D01*
X414857Y121723D01*
X414807Y121794D01*
X414754Y121864D01*
X414698Y121931D01*
X414639Y121995D01*
X414577Y122057D01*
X414513Y122116D01*
X414446Y122172D01*
X414376Y122225D01*
X414305Y122275D01*
X414231Y122321D01*
X414155Y122365D01*
X414077Y122404D01*
X413997Y122440D01*
X413916Y122473D01*
X413834Y122502D01*
X413750Y122527D01*
X413665Y122548D01*
X413580Y122566D01*
X413493Y122579D01*
X413407Y122589D01*
X413319Y122595D01*
X413232Y122597D01*
X409986Y122597D01*
X419763Y122597D02*
X419763Y114808D01*
X419438Y125843D02*
X419438Y126492D01*
X420088Y126492D01*
X420088Y125843D01*
X419438Y125843D01*
X425012Y126492D02*
X425012Y114808D01*
X428907Y120001D02*
X425012Y126492D01*
X428907Y120001D02*
X432802Y126492D01*
X432802Y114808D01*
X440335Y119352D02*
X443256Y119352D01*
X440335Y119352D02*
X440241Y119350D01*
X440147Y119344D01*
X440054Y119335D01*
X439961Y119321D01*
X439869Y119304D01*
X439777Y119282D01*
X439687Y119258D01*
X439597Y119229D01*
X439509Y119197D01*
X439422Y119161D01*
X439337Y119121D01*
X439254Y119078D01*
X439172Y119032D01*
X439092Y118982D01*
X439015Y118929D01*
X438940Y118873D01*
X438867Y118814D01*
X438796Y118752D01*
X438728Y118687D01*
X438663Y118619D01*
X438601Y118548D01*
X438542Y118475D01*
X438486Y118400D01*
X438433Y118323D01*
X438383Y118243D01*
X438337Y118161D01*
X438294Y118078D01*
X438254Y117993D01*
X438218Y117906D01*
X438186Y117818D01*
X438157Y117728D01*
X438133Y117638D01*
X438111Y117546D01*
X438094Y117454D01*
X438080Y117361D01*
X438071Y117268D01*
X438065Y117174D01*
X438063Y117080D01*
X438065Y116986D01*
X438071Y116892D01*
X438080Y116799D01*
X438094Y116706D01*
X438111Y116614D01*
X438133Y116522D01*
X438157Y116432D01*
X438186Y116342D01*
X438218Y116254D01*
X438254Y116167D01*
X438294Y116082D01*
X438337Y115999D01*
X438383Y115917D01*
X438433Y115837D01*
X438486Y115760D01*
X438542Y115685D01*
X438601Y115612D01*
X438663Y115541D01*
X438728Y115473D01*
X438796Y115408D01*
X438867Y115346D01*
X438940Y115287D01*
X439015Y115231D01*
X439092Y115178D01*
X439172Y115128D01*
X439254Y115082D01*
X439337Y115039D01*
X439422Y114999D01*
X439509Y114963D01*
X439597Y114931D01*
X439687Y114902D01*
X439777Y114878D01*
X439869Y114856D01*
X439961Y114839D01*
X440054Y114825D01*
X440147Y114816D01*
X440241Y114810D01*
X440335Y114808D01*
X443256Y114808D01*
X443256Y120650D01*
X443255Y120650D02*
X443253Y120737D01*
X443247Y120825D01*
X443237Y120911D01*
X443224Y120998D01*
X443206Y121083D01*
X443185Y121168D01*
X443160Y121252D01*
X443131Y121334D01*
X443098Y121415D01*
X443062Y121495D01*
X443023Y121573D01*
X442979Y121649D01*
X442933Y121723D01*
X442883Y121794D01*
X442830Y121864D01*
X442774Y121931D01*
X442715Y121995D01*
X442653Y122057D01*
X442589Y122116D01*
X442522Y122172D01*
X442452Y122225D01*
X442381Y122275D01*
X442307Y122321D01*
X442231Y122365D01*
X442153Y122404D01*
X442073Y122440D01*
X441992Y122473D01*
X441910Y122502D01*
X441826Y122527D01*
X441741Y122548D01*
X441656Y122566D01*
X441569Y122579D01*
X441483Y122589D01*
X441395Y122595D01*
X441308Y122597D01*
X438712Y122597D01*
X447441Y122597D02*
X451336Y122597D01*
X448739Y126492D02*
X448739Y116755D01*
X448740Y116755D02*
X448742Y116668D01*
X448748Y116580D01*
X448758Y116494D01*
X448771Y116407D01*
X448789Y116322D01*
X448810Y116237D01*
X448835Y116153D01*
X448864Y116071D01*
X448897Y115990D01*
X448933Y115910D01*
X448972Y115832D01*
X449016Y115756D01*
X449062Y115682D01*
X449112Y115611D01*
X449165Y115541D01*
X449221Y115474D01*
X449280Y115410D01*
X449342Y115348D01*
X449406Y115289D01*
X449473Y115233D01*
X449543Y115180D01*
X449614Y115130D01*
X449688Y115084D01*
X449764Y115040D01*
X449842Y115001D01*
X449922Y114965D01*
X450003Y114932D01*
X450085Y114903D01*
X450169Y114878D01*
X450254Y114857D01*
X450339Y114839D01*
X450426Y114826D01*
X450512Y114816D01*
X450600Y114810D01*
X450687Y114808D01*
X451336Y114808D01*
X457595Y114808D02*
X460840Y114808D01*
X457595Y114808D02*
X457508Y114810D01*
X457420Y114816D01*
X457334Y114826D01*
X457247Y114839D01*
X457162Y114857D01*
X457077Y114878D01*
X456993Y114903D01*
X456911Y114932D01*
X456830Y114965D01*
X456750Y115001D01*
X456672Y115040D01*
X456596Y115084D01*
X456522Y115130D01*
X456451Y115180D01*
X456381Y115233D01*
X456314Y115289D01*
X456250Y115348D01*
X456188Y115410D01*
X456129Y115474D01*
X456073Y115541D01*
X456020Y115611D01*
X455970Y115682D01*
X455924Y115756D01*
X455880Y115832D01*
X455841Y115910D01*
X455805Y115990D01*
X455772Y116071D01*
X455743Y116153D01*
X455718Y116237D01*
X455697Y116322D01*
X455679Y116407D01*
X455666Y116494D01*
X455656Y116580D01*
X455650Y116668D01*
X455648Y116755D01*
X455647Y116755D02*
X455647Y120001D01*
X455648Y120001D02*
X455650Y120102D01*
X455656Y120202D01*
X455666Y120302D01*
X455679Y120402D01*
X455697Y120501D01*
X455718Y120600D01*
X455743Y120697D01*
X455772Y120794D01*
X455805Y120889D01*
X455841Y120983D01*
X455881Y121075D01*
X455924Y121166D01*
X455971Y121255D01*
X456021Y121342D01*
X456075Y121428D01*
X456132Y121511D01*
X456192Y121591D01*
X456255Y121670D01*
X456322Y121746D01*
X456391Y121819D01*
X456463Y121889D01*
X456537Y121957D01*
X456614Y122022D01*
X456694Y122083D01*
X456776Y122142D01*
X456860Y122197D01*
X456946Y122249D01*
X457034Y122298D01*
X457124Y122343D01*
X457216Y122385D01*
X457309Y122423D01*
X457404Y122457D01*
X457499Y122488D01*
X457596Y122515D01*
X457694Y122538D01*
X457793Y122558D01*
X457893Y122573D01*
X457993Y122585D01*
X458093Y122593D01*
X458194Y122597D01*
X458294Y122597D01*
X458395Y122593D01*
X458495Y122585D01*
X458595Y122573D01*
X458695Y122558D01*
X458794Y122538D01*
X458892Y122515D01*
X458989Y122488D01*
X459084Y122457D01*
X459179Y122423D01*
X459272Y122385D01*
X459364Y122343D01*
X459454Y122298D01*
X459542Y122249D01*
X459628Y122197D01*
X459712Y122142D01*
X459794Y122083D01*
X459874Y122022D01*
X459951Y121957D01*
X460025Y121889D01*
X460097Y121819D01*
X460166Y121746D01*
X460233Y121670D01*
X460296Y121591D01*
X460356Y121511D01*
X460413Y121428D01*
X460467Y121342D01*
X460517Y121255D01*
X460564Y121166D01*
X460607Y121075D01*
X460647Y120983D01*
X460683Y120889D01*
X460716Y120794D01*
X460745Y120697D01*
X460770Y120600D01*
X460791Y120501D01*
X460809Y120402D01*
X460822Y120302D01*
X460832Y120202D01*
X460838Y120102D01*
X460840Y120001D01*
X460840Y118703D01*
X455647Y118703D01*
X465172Y113510D02*
X470365Y113510D01*
X476913Y114808D02*
X474316Y122597D01*
X479509Y122597D02*
X476913Y114808D01*
X483446Y114808D02*
X483446Y115457D01*
X484095Y115457D01*
X484095Y114808D01*
X483446Y114808D01*
X495017Y123571D02*
X495015Y123678D01*
X495009Y123784D01*
X494999Y123890D01*
X494986Y123996D01*
X494968Y124102D01*
X494947Y124206D01*
X494922Y124310D01*
X494893Y124413D01*
X494861Y124514D01*
X494824Y124614D01*
X494784Y124713D01*
X494741Y124811D01*
X494694Y124907D01*
X494643Y125001D01*
X494589Y125093D01*
X494532Y125183D01*
X494472Y125271D01*
X494408Y125356D01*
X494341Y125439D01*
X494271Y125520D01*
X494199Y125598D01*
X494123Y125674D01*
X494045Y125746D01*
X493964Y125816D01*
X493881Y125883D01*
X493796Y125947D01*
X493708Y126007D01*
X493618Y126064D01*
X493526Y126118D01*
X493432Y126169D01*
X493336Y126216D01*
X493238Y126259D01*
X493139Y126299D01*
X493039Y126336D01*
X492938Y126368D01*
X492835Y126397D01*
X492731Y126422D01*
X492627Y126443D01*
X492521Y126461D01*
X492415Y126474D01*
X492309Y126484D01*
X492203Y126490D01*
X492096Y126492D01*
X491975Y126490D01*
X491854Y126484D01*
X491734Y126474D01*
X491613Y126461D01*
X491494Y126443D01*
X491374Y126422D01*
X491256Y126397D01*
X491139Y126368D01*
X491022Y126335D01*
X490907Y126299D01*
X490793Y126258D01*
X490680Y126215D01*
X490568Y126167D01*
X490459Y126116D01*
X490351Y126061D01*
X490244Y126003D01*
X490140Y125942D01*
X490038Y125877D01*
X489938Y125809D01*
X489840Y125738D01*
X489744Y125664D01*
X489651Y125587D01*
X489561Y125506D01*
X489473Y125423D01*
X489388Y125337D01*
X489305Y125248D01*
X489226Y125157D01*
X489149Y125063D01*
X489076Y124967D01*
X489006Y124869D01*
X488939Y124768D01*
X488875Y124665D01*
X488815Y124560D01*
X488758Y124453D01*
X488704Y124345D01*
X488654Y124235D01*
X488608Y124123D01*
X488565Y124010D01*
X488526Y123895D01*
X494044Y121299D02*
X494123Y121376D01*
X494199Y121457D01*
X494272Y121540D01*
X494342Y121625D01*
X494409Y121713D01*
X494473Y121803D01*
X494533Y121895D01*
X494590Y121990D01*
X494644Y122086D01*
X494695Y122184D01*
X494742Y122284D01*
X494786Y122386D01*
X494826Y122489D01*
X494862Y122593D01*
X494894Y122699D01*
X494923Y122805D01*
X494948Y122913D01*
X494970Y123021D01*
X494987Y123131D01*
X495001Y123240D01*
X495010Y123350D01*
X495016Y123461D01*
X495018Y123571D01*
X494044Y121299D02*
X488526Y114808D01*
X495017Y114808D01*
X499957Y120650D02*
X499960Y120880D01*
X499968Y121110D01*
X499982Y121339D01*
X500001Y121568D01*
X500026Y121797D01*
X500056Y122024D01*
X500091Y122252D01*
X500132Y122478D01*
X500178Y122703D01*
X500230Y122927D01*
X500287Y123149D01*
X500349Y123371D01*
X500417Y123590D01*
X500490Y123808D01*
X500568Y124025D01*
X500651Y124239D01*
X500739Y124451D01*
X500832Y124661D01*
X500931Y124869D01*
X500930Y124869D02*
X500963Y124959D01*
X500999Y125048D01*
X501039Y125136D01*
X501083Y125221D01*
X501130Y125305D01*
X501180Y125387D01*
X501234Y125467D01*
X501290Y125544D01*
X501350Y125620D01*
X501413Y125693D01*
X501478Y125763D01*
X501547Y125831D01*
X501618Y125895D01*
X501691Y125957D01*
X501767Y126016D01*
X501845Y126072D01*
X501926Y126125D01*
X502008Y126174D01*
X502092Y126220D01*
X502179Y126263D01*
X502266Y126302D01*
X502356Y126338D01*
X502446Y126370D01*
X502538Y126398D01*
X502631Y126423D01*
X502725Y126444D01*
X502819Y126461D01*
X502914Y126475D01*
X503010Y126484D01*
X503106Y126490D01*
X503202Y126492D01*
X503298Y126490D01*
X503394Y126484D01*
X503490Y126475D01*
X503585Y126461D01*
X503679Y126444D01*
X503773Y126423D01*
X503866Y126398D01*
X503958Y126370D01*
X504048Y126338D01*
X504138Y126302D01*
X504225Y126263D01*
X504312Y126220D01*
X504396Y126174D01*
X504478Y126125D01*
X504559Y126072D01*
X504637Y126016D01*
X504713Y125957D01*
X504786Y125895D01*
X504857Y125831D01*
X504926Y125763D01*
X504991Y125693D01*
X505054Y125620D01*
X505114Y125544D01*
X505170Y125467D01*
X505224Y125387D01*
X505274Y125305D01*
X505321Y125221D01*
X505365Y125136D01*
X505405Y125048D01*
X505441Y124959D01*
X505474Y124869D01*
X505573Y124662D01*
X505666Y124452D01*
X505754Y124239D01*
X505837Y124025D01*
X505915Y123809D01*
X505988Y123591D01*
X506056Y123371D01*
X506118Y123150D01*
X506175Y122927D01*
X506227Y122703D01*
X506273Y122478D01*
X506314Y122252D01*
X506349Y122025D01*
X506379Y121797D01*
X506404Y121568D01*
X506423Y121339D01*
X506437Y121110D01*
X506445Y120880D01*
X506448Y120650D01*
X499956Y120650D02*
X499959Y120420D01*
X499967Y120190D01*
X499981Y119961D01*
X500000Y119732D01*
X500025Y119503D01*
X500055Y119275D01*
X500090Y119048D01*
X500131Y118822D01*
X500177Y118597D01*
X500229Y118373D01*
X500286Y118150D01*
X500348Y117929D01*
X500416Y117709D01*
X500489Y117491D01*
X500567Y117275D01*
X500650Y117061D01*
X500738Y116849D01*
X500831Y116638D01*
X500930Y116431D01*
X500963Y116341D01*
X500999Y116252D01*
X501040Y116164D01*
X501083Y116079D01*
X501130Y115995D01*
X501180Y115913D01*
X501234Y115833D01*
X501290Y115756D01*
X501350Y115680D01*
X501413Y115607D01*
X501478Y115537D01*
X501547Y115469D01*
X501618Y115405D01*
X501691Y115343D01*
X501767Y115284D01*
X501845Y115228D01*
X501926Y115175D01*
X502008Y115126D01*
X502092Y115080D01*
X502179Y115037D01*
X502266Y114998D01*
X502356Y114962D01*
X502446Y114930D01*
X502538Y114902D01*
X502631Y114877D01*
X502725Y114856D01*
X502819Y114839D01*
X502914Y114825D01*
X503010Y114816D01*
X503106Y114810D01*
X503202Y114808D01*
X505474Y116431D02*
X505573Y116638D01*
X505666Y116849D01*
X505754Y117061D01*
X505837Y117275D01*
X505915Y117491D01*
X505988Y117709D01*
X506056Y117929D01*
X506118Y118150D01*
X506175Y118373D01*
X506227Y118597D01*
X506273Y118822D01*
X506314Y119048D01*
X506349Y119275D01*
X506379Y119503D01*
X506404Y119732D01*
X506423Y119961D01*
X506437Y120190D01*
X506445Y120420D01*
X506448Y120650D01*
X505474Y116431D02*
X505441Y116341D01*
X505405Y116252D01*
X505365Y116164D01*
X505321Y116079D01*
X505274Y115995D01*
X505224Y115913D01*
X505170Y115833D01*
X505114Y115756D01*
X505054Y115680D01*
X504991Y115607D01*
X504926Y115537D01*
X504857Y115469D01*
X504786Y115405D01*
X504713Y115343D01*
X504637Y115284D01*
X504559Y115228D01*
X504478Y115175D01*
X504396Y115126D01*
X504312Y115080D01*
X504225Y115037D01*
X504138Y114998D01*
X504048Y114962D01*
X503958Y114930D01*
X503866Y114902D01*
X503773Y114877D01*
X503679Y114856D01*
X503585Y114839D01*
X503490Y114825D01*
X503394Y114816D01*
X503298Y114810D01*
X503202Y114808D01*
X500605Y117404D02*
X505798Y123896D01*
X511386Y123896D02*
X514632Y126492D01*
X514632Y114808D01*
X517877Y114808D02*
X511386Y114808D01*
X525413Y120001D02*
X529307Y120001D01*
X525413Y120001D02*
X525314Y120003D01*
X525214Y120009D01*
X525115Y120018D01*
X525017Y120031D01*
X524919Y120048D01*
X524821Y120069D01*
X524725Y120094D01*
X524630Y120122D01*
X524536Y120154D01*
X524443Y120189D01*
X524351Y120228D01*
X524261Y120271D01*
X524173Y120316D01*
X524086Y120366D01*
X524002Y120418D01*
X523919Y120474D01*
X523839Y120532D01*
X523761Y120594D01*
X523686Y120659D01*
X523613Y120727D01*
X523543Y120797D01*
X523475Y120870D01*
X523410Y120945D01*
X523348Y121023D01*
X523290Y121103D01*
X523234Y121186D01*
X523182Y121270D01*
X523132Y121357D01*
X523087Y121445D01*
X523044Y121535D01*
X523005Y121627D01*
X522970Y121720D01*
X522938Y121814D01*
X522910Y121909D01*
X522885Y122005D01*
X522864Y122103D01*
X522847Y122201D01*
X522834Y122299D01*
X522825Y122398D01*
X522819Y122498D01*
X522817Y122597D01*
X522816Y122597D02*
X522816Y123246D01*
X522818Y123359D01*
X522824Y123472D01*
X522834Y123585D01*
X522848Y123698D01*
X522865Y123810D01*
X522887Y123921D01*
X522912Y124031D01*
X522942Y124141D01*
X522975Y124249D01*
X523012Y124356D01*
X523052Y124462D01*
X523097Y124566D01*
X523145Y124669D01*
X523196Y124770D01*
X523251Y124869D01*
X523309Y124966D01*
X523371Y125061D01*
X523436Y125154D01*
X523504Y125244D01*
X523575Y125332D01*
X523650Y125418D01*
X523727Y125501D01*
X523807Y125581D01*
X523890Y125658D01*
X523976Y125733D01*
X524064Y125804D01*
X524154Y125872D01*
X524247Y125937D01*
X524342Y125999D01*
X524439Y126057D01*
X524538Y126112D01*
X524639Y126163D01*
X524742Y126211D01*
X524846Y126256D01*
X524952Y126296D01*
X525059Y126333D01*
X525167Y126366D01*
X525277Y126396D01*
X525387Y126421D01*
X525498Y126443D01*
X525610Y126460D01*
X525723Y126474D01*
X525836Y126484D01*
X525949Y126490D01*
X526062Y126492D01*
X526175Y126490D01*
X526288Y126484D01*
X526401Y126474D01*
X526514Y126460D01*
X526626Y126443D01*
X526737Y126421D01*
X526847Y126396D01*
X526957Y126366D01*
X527065Y126333D01*
X527172Y126296D01*
X527278Y126256D01*
X527382Y126211D01*
X527485Y126163D01*
X527586Y126112D01*
X527685Y126057D01*
X527782Y125999D01*
X527877Y125937D01*
X527970Y125872D01*
X528060Y125804D01*
X528148Y125733D01*
X528234Y125658D01*
X528317Y125581D01*
X528397Y125501D01*
X528474Y125418D01*
X528549Y125332D01*
X528620Y125244D01*
X528688Y125154D01*
X528753Y125061D01*
X528815Y124966D01*
X528873Y124869D01*
X528928Y124770D01*
X528979Y124669D01*
X529027Y124566D01*
X529072Y124462D01*
X529112Y124356D01*
X529149Y124249D01*
X529182Y124141D01*
X529212Y124031D01*
X529237Y123921D01*
X529259Y123810D01*
X529276Y123698D01*
X529290Y123585D01*
X529300Y123472D01*
X529306Y123359D01*
X529308Y123246D01*
X529307Y123246D02*
X529307Y120001D01*
X529305Y119858D01*
X529299Y119715D01*
X529289Y119572D01*
X529275Y119430D01*
X529258Y119288D01*
X529236Y119146D01*
X529211Y119005D01*
X529181Y118865D01*
X529148Y118726D01*
X529111Y118588D01*
X529070Y118451D01*
X529026Y118315D01*
X528977Y118180D01*
X528925Y118047D01*
X528870Y117915D01*
X528810Y117785D01*
X528747Y117656D01*
X528681Y117529D01*
X528611Y117404D01*
X528538Y117282D01*
X528461Y117161D01*
X528381Y117042D01*
X528298Y116926D01*
X528212Y116811D01*
X528123Y116700D01*
X528030Y116590D01*
X527935Y116484D01*
X527836Y116380D01*
X527735Y116279D01*
X527631Y116180D01*
X527525Y116085D01*
X527415Y115992D01*
X527304Y115903D01*
X527189Y115817D01*
X527073Y115734D01*
X526954Y115654D01*
X526833Y115577D01*
X526711Y115504D01*
X526586Y115434D01*
X526459Y115368D01*
X526330Y115305D01*
X526200Y115245D01*
X526068Y115190D01*
X525935Y115138D01*
X525800Y115089D01*
X525664Y115045D01*
X525527Y115004D01*
X525389Y114967D01*
X525250Y114934D01*
X525110Y114904D01*
X524969Y114879D01*
X524827Y114857D01*
X524685Y114840D01*
X524543Y114826D01*
X524400Y114816D01*
X524257Y114810D01*
X524114Y114808D01*
X534247Y120650D02*
X534250Y120880D01*
X534258Y121110D01*
X534272Y121339D01*
X534291Y121568D01*
X534316Y121797D01*
X534346Y122024D01*
X534381Y122252D01*
X534422Y122478D01*
X534468Y122703D01*
X534520Y122927D01*
X534577Y123149D01*
X534639Y123371D01*
X534707Y123590D01*
X534780Y123808D01*
X534858Y124025D01*
X534941Y124239D01*
X535029Y124451D01*
X535122Y124661D01*
X535221Y124869D01*
X535220Y124869D02*
X535253Y124959D01*
X535289Y125048D01*
X535329Y125136D01*
X535373Y125221D01*
X535420Y125305D01*
X535470Y125387D01*
X535524Y125467D01*
X535580Y125544D01*
X535640Y125620D01*
X535703Y125693D01*
X535768Y125763D01*
X535837Y125831D01*
X535908Y125895D01*
X535981Y125957D01*
X536057Y126016D01*
X536135Y126072D01*
X536216Y126125D01*
X536298Y126174D01*
X536382Y126220D01*
X536469Y126263D01*
X536556Y126302D01*
X536646Y126338D01*
X536736Y126370D01*
X536828Y126398D01*
X536921Y126423D01*
X537015Y126444D01*
X537109Y126461D01*
X537204Y126475D01*
X537300Y126484D01*
X537396Y126490D01*
X537492Y126492D01*
X537588Y126490D01*
X537684Y126484D01*
X537780Y126475D01*
X537875Y126461D01*
X537969Y126444D01*
X538063Y126423D01*
X538156Y126398D01*
X538248Y126370D01*
X538338Y126338D01*
X538428Y126302D01*
X538515Y126263D01*
X538602Y126220D01*
X538686Y126174D01*
X538768Y126125D01*
X538849Y126072D01*
X538927Y126016D01*
X539003Y125957D01*
X539076Y125895D01*
X539147Y125831D01*
X539216Y125763D01*
X539281Y125693D01*
X539344Y125620D01*
X539404Y125544D01*
X539460Y125467D01*
X539514Y125387D01*
X539564Y125305D01*
X539611Y125221D01*
X539655Y125136D01*
X539695Y125048D01*
X539731Y124959D01*
X539764Y124869D01*
X539863Y124662D01*
X539956Y124452D01*
X540044Y124239D01*
X540127Y124025D01*
X540205Y123809D01*
X540278Y123591D01*
X540346Y123371D01*
X540408Y123150D01*
X540465Y122927D01*
X540517Y122703D01*
X540563Y122478D01*
X540604Y122252D01*
X540639Y122025D01*
X540669Y121797D01*
X540694Y121568D01*
X540713Y121339D01*
X540727Y121110D01*
X540735Y120880D01*
X540738Y120650D01*
X534246Y120650D02*
X534249Y120420D01*
X534257Y120190D01*
X534271Y119961D01*
X534290Y119732D01*
X534315Y119503D01*
X534345Y119275D01*
X534380Y119048D01*
X534421Y118822D01*
X534467Y118597D01*
X534519Y118373D01*
X534576Y118150D01*
X534638Y117929D01*
X534706Y117709D01*
X534779Y117491D01*
X534857Y117275D01*
X534940Y117061D01*
X535028Y116849D01*
X535121Y116638D01*
X535220Y116431D01*
X535253Y116341D01*
X535289Y116252D01*
X535330Y116164D01*
X535373Y116079D01*
X535420Y115995D01*
X535470Y115913D01*
X535524Y115833D01*
X535580Y115756D01*
X535640Y115680D01*
X535703Y115607D01*
X535768Y115537D01*
X535837Y115469D01*
X535908Y115405D01*
X535981Y115343D01*
X536057Y115284D01*
X536135Y115228D01*
X536216Y115175D01*
X536298Y115126D01*
X536382Y115080D01*
X536469Y115037D01*
X536556Y114998D01*
X536646Y114962D01*
X536736Y114930D01*
X536828Y114902D01*
X536921Y114877D01*
X537015Y114856D01*
X537109Y114839D01*
X537204Y114825D01*
X537300Y114816D01*
X537396Y114810D01*
X537492Y114808D01*
X539764Y116431D02*
X539863Y116638D01*
X539956Y116849D01*
X540044Y117061D01*
X540127Y117275D01*
X540205Y117491D01*
X540278Y117709D01*
X540346Y117929D01*
X540408Y118150D01*
X540465Y118373D01*
X540517Y118597D01*
X540563Y118822D01*
X540604Y119048D01*
X540639Y119275D01*
X540669Y119503D01*
X540694Y119732D01*
X540713Y119961D01*
X540727Y120190D01*
X540735Y120420D01*
X540738Y120650D01*
X539764Y116431D02*
X539731Y116341D01*
X539695Y116252D01*
X539655Y116164D01*
X539611Y116079D01*
X539564Y115995D01*
X539514Y115913D01*
X539460Y115833D01*
X539404Y115756D01*
X539344Y115680D01*
X539281Y115607D01*
X539216Y115537D01*
X539147Y115469D01*
X539076Y115405D01*
X539003Y115343D01*
X538927Y115284D01*
X538849Y115228D01*
X538768Y115175D01*
X538686Y115126D01*
X538602Y115080D01*
X538515Y115037D01*
X538428Y114998D01*
X538338Y114962D01*
X538248Y114930D01*
X538156Y114902D01*
X538063Y114877D01*
X537969Y114856D01*
X537875Y114839D01*
X537780Y114825D01*
X537684Y114816D01*
X537588Y114810D01*
X537492Y114808D01*
X534895Y117404D02*
X540088Y123896D01*
X545676Y125194D02*
X545676Y126492D01*
X552167Y126492D01*
X548922Y114808D01*
X560676Y126492D02*
X560783Y126490D01*
X560889Y126484D01*
X560995Y126474D01*
X561101Y126461D01*
X561207Y126443D01*
X561311Y126422D01*
X561415Y126397D01*
X561518Y126368D01*
X561619Y126336D01*
X561719Y126299D01*
X561818Y126259D01*
X561916Y126216D01*
X562012Y126169D01*
X562106Y126118D01*
X562198Y126064D01*
X562288Y126007D01*
X562376Y125947D01*
X562461Y125883D01*
X562544Y125816D01*
X562625Y125746D01*
X562703Y125674D01*
X562779Y125598D01*
X562851Y125520D01*
X562921Y125439D01*
X562988Y125356D01*
X563052Y125271D01*
X563112Y125183D01*
X563169Y125093D01*
X563223Y125001D01*
X563274Y124907D01*
X563321Y124811D01*
X563364Y124713D01*
X563404Y124614D01*
X563441Y124514D01*
X563473Y124413D01*
X563502Y124310D01*
X563527Y124206D01*
X563548Y124102D01*
X563566Y123996D01*
X563579Y123890D01*
X563589Y123784D01*
X563595Y123678D01*
X563597Y123571D01*
X560676Y126492D02*
X560555Y126490D01*
X560434Y126484D01*
X560314Y126474D01*
X560193Y126461D01*
X560074Y126443D01*
X559954Y126422D01*
X559836Y126397D01*
X559719Y126368D01*
X559602Y126335D01*
X559487Y126299D01*
X559373Y126258D01*
X559260Y126215D01*
X559148Y126167D01*
X559039Y126116D01*
X558931Y126061D01*
X558824Y126003D01*
X558720Y125942D01*
X558618Y125877D01*
X558518Y125809D01*
X558420Y125738D01*
X558324Y125664D01*
X558231Y125587D01*
X558141Y125506D01*
X558053Y125423D01*
X557968Y125337D01*
X557885Y125248D01*
X557806Y125157D01*
X557729Y125063D01*
X557656Y124967D01*
X557586Y124869D01*
X557519Y124768D01*
X557455Y124665D01*
X557395Y124560D01*
X557338Y124453D01*
X557284Y124345D01*
X557234Y124235D01*
X557188Y124123D01*
X557145Y124010D01*
X557106Y123895D01*
X562624Y121299D02*
X562703Y121376D01*
X562779Y121457D01*
X562852Y121540D01*
X562922Y121625D01*
X562989Y121713D01*
X563053Y121803D01*
X563113Y121895D01*
X563170Y121990D01*
X563224Y122086D01*
X563275Y122184D01*
X563322Y122284D01*
X563366Y122386D01*
X563406Y122489D01*
X563442Y122593D01*
X563474Y122699D01*
X563503Y122805D01*
X563528Y122913D01*
X563550Y123021D01*
X563567Y123131D01*
X563581Y123240D01*
X563590Y123350D01*
X563596Y123461D01*
X563598Y123571D01*
X562624Y121299D02*
X557106Y114808D01*
X563597Y114808D01*
X568536Y117404D02*
X571133Y126492D01*
X568536Y117404D02*
X575027Y117404D01*
X573080Y120001D02*
X573080Y114808D01*
D12*
X497727Y254381D02*
X495681Y254381D01*
X497727Y254381D02*
X497816Y254383D01*
X497905Y254389D01*
X497994Y254399D01*
X498082Y254412D01*
X498170Y254429D01*
X498257Y254451D01*
X498342Y254476D01*
X498427Y254504D01*
X498510Y254537D01*
X498592Y254573D01*
X498672Y254612D01*
X498750Y254655D01*
X498826Y254701D01*
X498901Y254751D01*
X498973Y254804D01*
X499042Y254860D01*
X499109Y254919D01*
X499174Y254980D01*
X499235Y255045D01*
X499294Y255112D01*
X499350Y255181D01*
X499403Y255253D01*
X499453Y255328D01*
X499499Y255404D01*
X499542Y255482D01*
X499581Y255562D01*
X499617Y255644D01*
X499650Y255727D01*
X499678Y255812D01*
X499703Y255897D01*
X499725Y255984D01*
X499742Y256072D01*
X499755Y256160D01*
X499765Y256249D01*
X499771Y256338D01*
X499773Y256427D01*
X499771Y256516D01*
X499765Y256605D01*
X499755Y256694D01*
X499742Y256782D01*
X499725Y256870D01*
X499703Y256957D01*
X499678Y257042D01*
X499650Y257127D01*
X499617Y257210D01*
X499581Y257292D01*
X499542Y257372D01*
X499499Y257450D01*
X499453Y257526D01*
X499403Y257601D01*
X499350Y257673D01*
X499294Y257742D01*
X499235Y257809D01*
X499174Y257874D01*
X499109Y257935D01*
X499042Y257994D01*
X498973Y258050D01*
X498901Y258103D01*
X498826Y258153D01*
X498750Y258199D01*
X498672Y258242D01*
X498592Y258281D01*
X498510Y258317D01*
X498427Y258350D01*
X498342Y258378D01*
X498257Y258403D01*
X498170Y258425D01*
X498082Y258442D01*
X497994Y258455D01*
X497905Y258465D01*
X497816Y258471D01*
X497727Y258473D01*
X498136Y261747D02*
X495681Y261747D01*
X498136Y261747D02*
X498215Y261745D01*
X498294Y261739D01*
X498373Y261730D01*
X498451Y261717D01*
X498528Y261699D01*
X498604Y261679D01*
X498679Y261654D01*
X498753Y261626D01*
X498826Y261595D01*
X498897Y261559D01*
X498966Y261521D01*
X499033Y261479D01*
X499098Y261434D01*
X499161Y261386D01*
X499222Y261335D01*
X499279Y261281D01*
X499335Y261225D01*
X499387Y261166D01*
X499437Y261104D01*
X499483Y261040D01*
X499527Y260974D01*
X499567Y260906D01*
X499603Y260836D01*
X499637Y260764D01*
X499667Y260690D01*
X499693Y260616D01*
X499716Y260540D01*
X499734Y260463D01*
X499750Y260386D01*
X499761Y260307D01*
X499769Y260229D01*
X499773Y260150D01*
X499773Y260070D01*
X499769Y259991D01*
X499761Y259913D01*
X499750Y259834D01*
X499734Y259757D01*
X499716Y259680D01*
X499693Y259604D01*
X499667Y259530D01*
X499637Y259456D01*
X499603Y259384D01*
X499567Y259314D01*
X499527Y259246D01*
X499483Y259180D01*
X499437Y259116D01*
X499387Y259054D01*
X499335Y258995D01*
X499279Y258939D01*
X499222Y258885D01*
X499161Y258834D01*
X499098Y258786D01*
X499033Y258741D01*
X498966Y258699D01*
X498897Y258661D01*
X498826Y258625D01*
X498753Y258594D01*
X498679Y258566D01*
X498604Y258541D01*
X498528Y258521D01*
X498451Y258503D01*
X498373Y258490D01*
X498294Y258481D01*
X498215Y258475D01*
X498136Y258473D01*
X496499Y258473D01*
X502674Y259292D02*
X504311Y254381D01*
X505948Y259292D01*
X508848Y254381D02*
X510894Y254381D01*
X510983Y254383D01*
X511072Y254389D01*
X511161Y254399D01*
X511249Y254412D01*
X511337Y254429D01*
X511424Y254451D01*
X511509Y254476D01*
X511594Y254504D01*
X511677Y254537D01*
X511759Y254573D01*
X511839Y254612D01*
X511917Y254655D01*
X511993Y254701D01*
X512068Y254751D01*
X512140Y254804D01*
X512209Y254860D01*
X512276Y254919D01*
X512341Y254980D01*
X512402Y255045D01*
X512461Y255112D01*
X512517Y255181D01*
X512570Y255253D01*
X512620Y255328D01*
X512666Y255404D01*
X512709Y255482D01*
X512748Y255562D01*
X512784Y255644D01*
X512817Y255727D01*
X512845Y255812D01*
X512870Y255897D01*
X512892Y255984D01*
X512909Y256072D01*
X512922Y256160D01*
X512932Y256249D01*
X512938Y256338D01*
X512940Y256427D01*
X512938Y256516D01*
X512932Y256605D01*
X512922Y256694D01*
X512909Y256782D01*
X512892Y256870D01*
X512870Y256957D01*
X512845Y257042D01*
X512817Y257127D01*
X512784Y257210D01*
X512748Y257292D01*
X512709Y257372D01*
X512666Y257450D01*
X512620Y257526D01*
X512570Y257601D01*
X512517Y257673D01*
X512461Y257742D01*
X512402Y257809D01*
X512341Y257874D01*
X512276Y257935D01*
X512209Y257994D01*
X512140Y258050D01*
X512068Y258103D01*
X511993Y258153D01*
X511917Y258199D01*
X511839Y258242D01*
X511759Y258281D01*
X511677Y258317D01*
X511594Y258350D01*
X511509Y258378D01*
X511424Y258403D01*
X511337Y258425D01*
X511249Y258442D01*
X511161Y258455D01*
X511072Y258465D01*
X510983Y258471D01*
X510894Y258473D01*
X511304Y261747D02*
X508848Y261747D01*
X511304Y261747D02*
X511383Y261745D01*
X511462Y261739D01*
X511541Y261730D01*
X511619Y261717D01*
X511696Y261699D01*
X511772Y261679D01*
X511847Y261654D01*
X511921Y261626D01*
X511994Y261595D01*
X512065Y261559D01*
X512134Y261521D01*
X512201Y261479D01*
X512266Y261434D01*
X512329Y261386D01*
X512390Y261335D01*
X512447Y261281D01*
X512503Y261225D01*
X512555Y261166D01*
X512605Y261104D01*
X512651Y261040D01*
X512695Y260974D01*
X512735Y260906D01*
X512771Y260836D01*
X512805Y260764D01*
X512835Y260690D01*
X512861Y260616D01*
X512884Y260540D01*
X512902Y260463D01*
X512918Y260386D01*
X512929Y260307D01*
X512937Y260229D01*
X512941Y260150D01*
X512941Y260070D01*
X512937Y259991D01*
X512929Y259913D01*
X512918Y259834D01*
X512902Y259757D01*
X512884Y259680D01*
X512861Y259604D01*
X512835Y259530D01*
X512805Y259456D01*
X512771Y259384D01*
X512735Y259314D01*
X512695Y259246D01*
X512651Y259180D01*
X512605Y259116D01*
X512555Y259054D01*
X512503Y258995D01*
X512447Y258939D01*
X512390Y258885D01*
X512329Y258834D01*
X512266Y258786D01*
X512201Y258741D01*
X512134Y258699D01*
X512065Y258661D01*
X511994Y258625D01*
X511921Y258594D01*
X511847Y258566D01*
X511772Y258541D01*
X511696Y258521D01*
X511619Y258503D01*
X511541Y258490D01*
X511462Y258481D01*
X511383Y258475D01*
X511304Y258473D01*
X509667Y258473D01*
X329819Y622681D02*
X329819Y624727D01*
X329817Y624816D01*
X329811Y624905D01*
X329801Y624994D01*
X329788Y625082D01*
X329771Y625170D01*
X329749Y625257D01*
X329724Y625342D01*
X329696Y625427D01*
X329663Y625510D01*
X329627Y625592D01*
X329588Y625672D01*
X329545Y625750D01*
X329499Y625826D01*
X329449Y625901D01*
X329396Y625973D01*
X329340Y626042D01*
X329281Y626109D01*
X329220Y626174D01*
X329155Y626235D01*
X329088Y626294D01*
X329019Y626350D01*
X328947Y626403D01*
X328872Y626453D01*
X328796Y626499D01*
X328718Y626542D01*
X328638Y626581D01*
X328556Y626617D01*
X328473Y626650D01*
X328388Y626678D01*
X328303Y626703D01*
X328216Y626725D01*
X328128Y626742D01*
X328040Y626755D01*
X327951Y626765D01*
X327862Y626771D01*
X327773Y626773D01*
X327684Y626771D01*
X327595Y626765D01*
X327506Y626755D01*
X327418Y626742D01*
X327330Y626725D01*
X327243Y626703D01*
X327158Y626678D01*
X327073Y626650D01*
X326990Y626617D01*
X326908Y626581D01*
X326828Y626542D01*
X326750Y626499D01*
X326674Y626453D01*
X326599Y626403D01*
X326527Y626350D01*
X326458Y626294D01*
X326391Y626235D01*
X326326Y626174D01*
X326265Y626109D01*
X326206Y626042D01*
X326150Y625973D01*
X326097Y625901D01*
X326047Y625826D01*
X326001Y625750D01*
X325958Y625672D01*
X325919Y625592D01*
X325883Y625510D01*
X325850Y625427D01*
X325822Y625342D01*
X325797Y625257D01*
X325775Y625170D01*
X325758Y625082D01*
X325745Y624994D01*
X325735Y624905D01*
X325729Y624816D01*
X325727Y624727D01*
X322453Y625136D02*
X322453Y622681D01*
X322453Y625136D02*
X322455Y625215D01*
X322461Y625294D01*
X322470Y625373D01*
X322483Y625451D01*
X322501Y625528D01*
X322521Y625604D01*
X322546Y625679D01*
X322574Y625753D01*
X322605Y625826D01*
X322641Y625897D01*
X322679Y625966D01*
X322721Y626033D01*
X322766Y626098D01*
X322814Y626161D01*
X322865Y626222D01*
X322919Y626279D01*
X322975Y626335D01*
X323034Y626387D01*
X323096Y626437D01*
X323160Y626483D01*
X323226Y626527D01*
X323294Y626567D01*
X323364Y626603D01*
X323436Y626637D01*
X323510Y626667D01*
X323584Y626693D01*
X323660Y626716D01*
X323737Y626734D01*
X323814Y626750D01*
X323893Y626761D01*
X323971Y626769D01*
X324050Y626773D01*
X324130Y626773D01*
X324209Y626769D01*
X324287Y626761D01*
X324366Y626750D01*
X324443Y626734D01*
X324520Y626716D01*
X324596Y626693D01*
X324670Y626667D01*
X324744Y626637D01*
X324816Y626603D01*
X324886Y626567D01*
X324954Y626527D01*
X325020Y626483D01*
X325084Y626437D01*
X325146Y626387D01*
X325205Y626335D01*
X325261Y626279D01*
X325315Y626222D01*
X325366Y626161D01*
X325414Y626098D01*
X325459Y626033D01*
X325501Y625966D01*
X325539Y625897D01*
X325575Y625826D01*
X325606Y625753D01*
X325634Y625679D01*
X325659Y625604D01*
X325679Y625528D01*
X325697Y625451D01*
X325710Y625373D01*
X325719Y625294D01*
X325725Y625215D01*
X325727Y625136D01*
X325727Y623499D01*
X324908Y629674D02*
X329819Y631311D01*
X324908Y632948D01*
X329819Y635848D02*
X329819Y637894D01*
X329817Y637983D01*
X329811Y638072D01*
X329801Y638161D01*
X329788Y638249D01*
X329771Y638337D01*
X329749Y638424D01*
X329724Y638509D01*
X329696Y638594D01*
X329663Y638677D01*
X329627Y638759D01*
X329588Y638839D01*
X329545Y638917D01*
X329499Y638993D01*
X329449Y639068D01*
X329396Y639140D01*
X329340Y639209D01*
X329281Y639276D01*
X329220Y639341D01*
X329155Y639402D01*
X329088Y639461D01*
X329019Y639517D01*
X328947Y639570D01*
X328872Y639620D01*
X328796Y639666D01*
X328718Y639709D01*
X328638Y639748D01*
X328556Y639784D01*
X328473Y639817D01*
X328388Y639845D01*
X328303Y639870D01*
X328216Y639892D01*
X328128Y639909D01*
X328040Y639922D01*
X327951Y639932D01*
X327862Y639938D01*
X327773Y639940D01*
X327684Y639938D01*
X327595Y639932D01*
X327506Y639922D01*
X327418Y639909D01*
X327330Y639892D01*
X327243Y639870D01*
X327158Y639845D01*
X327073Y639817D01*
X326990Y639784D01*
X326908Y639748D01*
X326828Y639709D01*
X326750Y639666D01*
X326674Y639620D01*
X326599Y639570D01*
X326527Y639517D01*
X326458Y639461D01*
X326391Y639402D01*
X326326Y639341D01*
X326265Y639276D01*
X326206Y639209D01*
X326150Y639140D01*
X326097Y639068D01*
X326047Y638993D01*
X326001Y638917D01*
X325958Y638839D01*
X325919Y638759D01*
X325883Y638677D01*
X325850Y638594D01*
X325822Y638509D01*
X325797Y638424D01*
X325775Y638337D01*
X325758Y638249D01*
X325745Y638161D01*
X325735Y638072D01*
X325729Y637983D01*
X325727Y637894D01*
X322453Y638304D02*
X322453Y635848D01*
X322453Y638304D02*
X322455Y638383D01*
X322461Y638462D01*
X322470Y638541D01*
X322483Y638619D01*
X322501Y638696D01*
X322521Y638772D01*
X322546Y638847D01*
X322574Y638921D01*
X322605Y638994D01*
X322641Y639065D01*
X322679Y639134D01*
X322721Y639201D01*
X322766Y639266D01*
X322814Y639329D01*
X322865Y639390D01*
X322919Y639447D01*
X322975Y639503D01*
X323034Y639555D01*
X323096Y639605D01*
X323160Y639651D01*
X323226Y639695D01*
X323294Y639735D01*
X323364Y639771D01*
X323436Y639805D01*
X323510Y639835D01*
X323584Y639861D01*
X323660Y639884D01*
X323737Y639902D01*
X323814Y639918D01*
X323893Y639929D01*
X323971Y639937D01*
X324050Y639941D01*
X324130Y639941D01*
X324209Y639937D01*
X324287Y639929D01*
X324366Y639918D01*
X324443Y639902D01*
X324520Y639884D01*
X324596Y639861D01*
X324670Y639835D01*
X324744Y639805D01*
X324816Y639771D01*
X324886Y639735D01*
X324954Y639695D01*
X325020Y639651D01*
X325084Y639605D01*
X325146Y639555D01*
X325205Y639503D01*
X325261Y639447D01*
X325315Y639390D01*
X325366Y639329D01*
X325414Y639266D01*
X325459Y639201D01*
X325501Y639134D01*
X325539Y639065D01*
X325575Y638994D01*
X325606Y638921D01*
X325634Y638847D01*
X325659Y638772D01*
X325679Y638696D01*
X325697Y638619D01*
X325710Y638541D01*
X325719Y638462D01*
X325725Y638383D01*
X325727Y638304D01*
X325727Y636667D01*
X499773Y230618D02*
X499771Y230540D01*
X499766Y230462D01*
X499756Y230385D01*
X499743Y230308D01*
X499727Y230232D01*
X499707Y230157D01*
X499683Y230083D01*
X499656Y230010D01*
X499625Y229938D01*
X499591Y229868D01*
X499554Y229800D01*
X499513Y229733D01*
X499469Y229668D01*
X499423Y229606D01*
X499373Y229546D01*
X499321Y229488D01*
X499266Y229433D01*
X499208Y229381D01*
X499148Y229331D01*
X499086Y229285D01*
X499021Y229241D01*
X498955Y229200D01*
X498886Y229163D01*
X498816Y229129D01*
X498744Y229098D01*
X498671Y229071D01*
X498597Y229047D01*
X498522Y229027D01*
X498446Y229011D01*
X498369Y228998D01*
X498292Y228988D01*
X498214Y228983D01*
X498136Y228981D01*
X498022Y228983D01*
X497909Y228988D01*
X497795Y228998D01*
X497682Y229011D01*
X497570Y229028D01*
X497458Y229048D01*
X497347Y229072D01*
X497236Y229100D01*
X497127Y229131D01*
X497019Y229166D01*
X496912Y229205D01*
X496806Y229247D01*
X496702Y229292D01*
X496599Y229341D01*
X496498Y229394D01*
X496399Y229449D01*
X496301Y229508D01*
X496206Y229570D01*
X496113Y229635D01*
X496021Y229703D01*
X495933Y229774D01*
X495846Y229848D01*
X495762Y229925D01*
X495681Y230004D01*
X495885Y234710D02*
X495887Y234788D01*
X495892Y234866D01*
X495902Y234943D01*
X495915Y235020D01*
X495931Y235096D01*
X495951Y235171D01*
X495975Y235245D01*
X496002Y235318D01*
X496033Y235390D01*
X496067Y235460D01*
X496104Y235529D01*
X496145Y235595D01*
X496189Y235660D01*
X496235Y235722D01*
X496285Y235782D01*
X496337Y235840D01*
X496392Y235895D01*
X496450Y235947D01*
X496510Y235997D01*
X496572Y236043D01*
X496637Y236087D01*
X496704Y236128D01*
X496772Y236165D01*
X496842Y236199D01*
X496914Y236230D01*
X496987Y236257D01*
X497061Y236281D01*
X497136Y236301D01*
X497212Y236317D01*
X497289Y236330D01*
X497366Y236340D01*
X497444Y236345D01*
X497522Y236347D01*
X497632Y236345D01*
X497741Y236339D01*
X497851Y236329D01*
X497959Y236316D01*
X498068Y236298D01*
X498175Y236277D01*
X498282Y236251D01*
X498388Y236222D01*
X498493Y236190D01*
X498596Y236153D01*
X498698Y236113D01*
X498799Y236069D01*
X498898Y236021D01*
X498995Y235971D01*
X499090Y235916D01*
X499183Y235858D01*
X499274Y235797D01*
X499363Y235733D01*
X496704Y233277D02*
X496637Y233319D01*
X496572Y233363D01*
X496510Y233411D01*
X496450Y233461D01*
X496392Y233514D01*
X496337Y233570D01*
X496285Y233629D01*
X496235Y233689D01*
X496188Y233753D01*
X496145Y233818D01*
X496104Y233885D01*
X496067Y233954D01*
X496033Y234025D01*
X496002Y234097D01*
X495975Y234171D01*
X495951Y234245D01*
X495931Y234321D01*
X495915Y234398D01*
X495902Y234475D01*
X495892Y234553D01*
X495887Y234632D01*
X495885Y234710D01*
X498955Y232050D02*
X499021Y232008D01*
X499086Y231964D01*
X499148Y231917D01*
X499208Y231866D01*
X499266Y231813D01*
X499321Y231757D01*
X499374Y231699D01*
X499423Y231638D01*
X499470Y231575D01*
X499513Y231510D01*
X499554Y231443D01*
X499591Y231374D01*
X499625Y231303D01*
X499656Y231231D01*
X499683Y231157D01*
X499707Y231082D01*
X499727Y231007D01*
X499743Y230930D01*
X499756Y230853D01*
X499766Y230775D01*
X499771Y230696D01*
X499773Y230618D01*
X498955Y232050D02*
X496704Y233278D01*
X502996Y236347D02*
X502996Y228981D01*
X502996Y236347D02*
X505042Y236347D01*
X505131Y236345D01*
X505220Y236339D01*
X505309Y236329D01*
X505397Y236316D01*
X505485Y236299D01*
X505572Y236277D01*
X505657Y236252D01*
X505742Y236224D01*
X505825Y236191D01*
X505907Y236155D01*
X505987Y236116D01*
X506065Y236073D01*
X506141Y236027D01*
X506216Y235977D01*
X506288Y235924D01*
X506357Y235868D01*
X506424Y235809D01*
X506489Y235748D01*
X506550Y235683D01*
X506609Y235616D01*
X506665Y235547D01*
X506718Y235475D01*
X506768Y235400D01*
X506814Y235324D01*
X506857Y235246D01*
X506896Y235166D01*
X506932Y235084D01*
X506965Y235001D01*
X506993Y234916D01*
X507018Y234831D01*
X507040Y234744D01*
X507057Y234656D01*
X507070Y234568D01*
X507080Y234479D01*
X507086Y234390D01*
X507088Y234301D01*
X507088Y231027D01*
X507086Y230938D01*
X507080Y230849D01*
X507070Y230760D01*
X507057Y230672D01*
X507040Y230584D01*
X507018Y230497D01*
X506993Y230412D01*
X506965Y230327D01*
X506932Y230244D01*
X506896Y230162D01*
X506857Y230082D01*
X506814Y230004D01*
X506768Y229928D01*
X506718Y229853D01*
X506665Y229781D01*
X506609Y229712D01*
X506550Y229645D01*
X506489Y229580D01*
X506424Y229519D01*
X506357Y229460D01*
X506288Y229404D01*
X506216Y229351D01*
X506141Y229301D01*
X506065Y229255D01*
X505987Y229212D01*
X505907Y229173D01*
X505825Y229137D01*
X505742Y229104D01*
X505657Y229076D01*
X505572Y229051D01*
X505485Y229029D01*
X505397Y229012D01*
X505309Y228999D01*
X505220Y228989D01*
X505131Y228983D01*
X505042Y228981D01*
X502996Y228981D01*
X510146Y228981D02*
X512601Y236347D01*
X515057Y228981D01*
X514443Y230823D02*
X510760Y230823D01*
X279019Y625136D02*
X279017Y625214D01*
X279012Y625292D01*
X279002Y625369D01*
X278989Y625446D01*
X278973Y625522D01*
X278953Y625597D01*
X278929Y625671D01*
X278902Y625744D01*
X278871Y625816D01*
X278837Y625886D01*
X278800Y625955D01*
X278759Y626021D01*
X278715Y626086D01*
X278669Y626148D01*
X278619Y626208D01*
X278567Y626266D01*
X278512Y626321D01*
X278454Y626373D01*
X278394Y626423D01*
X278332Y626469D01*
X278267Y626513D01*
X278201Y626554D01*
X278132Y626591D01*
X278062Y626625D01*
X277990Y626656D01*
X277917Y626683D01*
X277843Y626707D01*
X277768Y626727D01*
X277692Y626743D01*
X277615Y626756D01*
X277538Y626766D01*
X277460Y626771D01*
X277382Y626773D01*
X279019Y625136D02*
X279017Y625022D01*
X279012Y624909D01*
X279002Y624795D01*
X278989Y624682D01*
X278972Y624570D01*
X278952Y624458D01*
X278928Y624347D01*
X278900Y624236D01*
X278869Y624127D01*
X278834Y624019D01*
X278795Y623912D01*
X278753Y623806D01*
X278708Y623702D01*
X278659Y623599D01*
X278606Y623498D01*
X278551Y623399D01*
X278492Y623301D01*
X278430Y623206D01*
X278365Y623113D01*
X278297Y623021D01*
X278226Y622933D01*
X278152Y622846D01*
X278075Y622762D01*
X277996Y622681D01*
X273290Y622886D02*
X273212Y622888D01*
X273134Y622893D01*
X273057Y622903D01*
X272980Y622916D01*
X272904Y622932D01*
X272829Y622952D01*
X272755Y622976D01*
X272682Y623003D01*
X272610Y623034D01*
X272540Y623068D01*
X272472Y623105D01*
X272405Y623146D01*
X272340Y623190D01*
X272278Y623236D01*
X272218Y623286D01*
X272160Y623338D01*
X272105Y623393D01*
X272053Y623451D01*
X272003Y623511D01*
X271957Y623573D01*
X271913Y623638D01*
X271872Y623705D01*
X271835Y623773D01*
X271801Y623843D01*
X271770Y623915D01*
X271743Y623988D01*
X271719Y624062D01*
X271699Y624137D01*
X271683Y624213D01*
X271670Y624290D01*
X271660Y624367D01*
X271655Y624445D01*
X271653Y624523D01*
X271655Y624633D01*
X271661Y624742D01*
X271671Y624852D01*
X271684Y624960D01*
X271702Y625069D01*
X271723Y625176D01*
X271749Y625283D01*
X271778Y625389D01*
X271810Y625494D01*
X271847Y625597D01*
X271887Y625699D01*
X271931Y625800D01*
X271979Y625899D01*
X272029Y625996D01*
X272084Y626091D01*
X272142Y626184D01*
X272203Y626275D01*
X272267Y626364D01*
X274722Y623704D02*
X274680Y623638D01*
X274636Y623573D01*
X274588Y623511D01*
X274538Y623451D01*
X274485Y623393D01*
X274429Y623338D01*
X274371Y623285D01*
X274310Y623236D01*
X274247Y623189D01*
X274182Y623145D01*
X274115Y623105D01*
X274046Y623068D01*
X273975Y623034D01*
X273903Y623003D01*
X273829Y622976D01*
X273754Y622952D01*
X273679Y622932D01*
X273602Y622916D01*
X273525Y622903D01*
X273447Y622893D01*
X273368Y622888D01*
X273290Y622886D01*
X275949Y625955D02*
X275991Y626022D01*
X276035Y626087D01*
X276083Y626149D01*
X276133Y626209D01*
X276186Y626267D01*
X276242Y626322D01*
X276301Y626374D01*
X276361Y626424D01*
X276425Y626471D01*
X276490Y626514D01*
X276557Y626555D01*
X276626Y626592D01*
X276697Y626626D01*
X276769Y626657D01*
X276843Y626684D01*
X276917Y626708D01*
X276993Y626728D01*
X277070Y626744D01*
X277147Y626757D01*
X277225Y626767D01*
X277304Y626772D01*
X277382Y626774D01*
X275950Y625955D02*
X274722Y623704D01*
X271653Y629996D02*
X279019Y629996D01*
X271653Y629996D02*
X271653Y632042D01*
X271655Y632131D01*
X271661Y632220D01*
X271671Y632309D01*
X271684Y632397D01*
X271701Y632485D01*
X271723Y632572D01*
X271748Y632657D01*
X271776Y632742D01*
X271809Y632825D01*
X271845Y632907D01*
X271884Y632987D01*
X271927Y633065D01*
X271973Y633141D01*
X272023Y633216D01*
X272076Y633288D01*
X272132Y633357D01*
X272191Y633424D01*
X272252Y633489D01*
X272317Y633550D01*
X272384Y633609D01*
X272453Y633665D01*
X272525Y633718D01*
X272600Y633768D01*
X272676Y633814D01*
X272754Y633857D01*
X272834Y633896D01*
X272916Y633932D01*
X272999Y633965D01*
X273084Y633993D01*
X273169Y634018D01*
X273256Y634040D01*
X273344Y634057D01*
X273432Y634070D01*
X273521Y634080D01*
X273610Y634086D01*
X273699Y634088D01*
X276973Y634088D01*
X277062Y634086D01*
X277151Y634080D01*
X277240Y634070D01*
X277328Y634057D01*
X277416Y634040D01*
X277503Y634018D01*
X277588Y633993D01*
X277673Y633965D01*
X277756Y633932D01*
X277838Y633896D01*
X277918Y633857D01*
X277996Y633814D01*
X278072Y633768D01*
X278147Y633718D01*
X278219Y633665D01*
X278288Y633609D01*
X278355Y633550D01*
X278420Y633489D01*
X278481Y633424D01*
X278540Y633357D01*
X278596Y633288D01*
X278649Y633216D01*
X278699Y633141D01*
X278745Y633065D01*
X278788Y632987D01*
X278827Y632907D01*
X278863Y632825D01*
X278896Y632742D01*
X278924Y632657D01*
X278949Y632572D01*
X278971Y632485D01*
X278988Y632397D01*
X279001Y632309D01*
X279011Y632220D01*
X279017Y632131D01*
X279019Y632042D01*
X279019Y629996D01*
X279019Y637146D02*
X271653Y639601D01*
X279019Y642057D01*
X277178Y641443D02*
X277178Y637760D01*
X253619Y625136D02*
X253617Y625214D01*
X253612Y625292D01*
X253602Y625369D01*
X253589Y625446D01*
X253573Y625522D01*
X253553Y625597D01*
X253529Y625671D01*
X253502Y625744D01*
X253471Y625816D01*
X253437Y625886D01*
X253400Y625955D01*
X253359Y626021D01*
X253315Y626086D01*
X253269Y626148D01*
X253219Y626208D01*
X253167Y626266D01*
X253112Y626321D01*
X253054Y626373D01*
X252994Y626423D01*
X252932Y626469D01*
X252867Y626513D01*
X252801Y626554D01*
X252732Y626591D01*
X252662Y626625D01*
X252590Y626656D01*
X252517Y626683D01*
X252443Y626707D01*
X252368Y626727D01*
X252292Y626743D01*
X252215Y626756D01*
X252138Y626766D01*
X252060Y626771D01*
X251982Y626773D01*
X253619Y625136D02*
X253617Y625022D01*
X253612Y624909D01*
X253602Y624795D01*
X253589Y624682D01*
X253572Y624570D01*
X253552Y624458D01*
X253528Y624347D01*
X253500Y624236D01*
X253469Y624127D01*
X253434Y624019D01*
X253395Y623912D01*
X253353Y623806D01*
X253308Y623702D01*
X253259Y623599D01*
X253206Y623498D01*
X253151Y623399D01*
X253092Y623301D01*
X253030Y623206D01*
X252965Y623113D01*
X252897Y623021D01*
X252826Y622933D01*
X252752Y622846D01*
X252675Y622762D01*
X252596Y622681D01*
X247890Y622886D02*
X247812Y622888D01*
X247734Y622893D01*
X247657Y622903D01*
X247580Y622916D01*
X247504Y622932D01*
X247429Y622952D01*
X247355Y622976D01*
X247282Y623003D01*
X247210Y623034D01*
X247140Y623068D01*
X247072Y623105D01*
X247005Y623146D01*
X246940Y623190D01*
X246878Y623236D01*
X246818Y623286D01*
X246760Y623338D01*
X246705Y623393D01*
X246653Y623451D01*
X246603Y623511D01*
X246557Y623573D01*
X246513Y623638D01*
X246472Y623705D01*
X246435Y623773D01*
X246401Y623843D01*
X246370Y623915D01*
X246343Y623988D01*
X246319Y624062D01*
X246299Y624137D01*
X246283Y624213D01*
X246270Y624290D01*
X246260Y624367D01*
X246255Y624445D01*
X246253Y624523D01*
X246255Y624633D01*
X246261Y624742D01*
X246271Y624852D01*
X246284Y624960D01*
X246302Y625069D01*
X246323Y625176D01*
X246349Y625283D01*
X246378Y625389D01*
X246410Y625494D01*
X246447Y625597D01*
X246487Y625699D01*
X246531Y625800D01*
X246579Y625899D01*
X246629Y625996D01*
X246684Y626091D01*
X246742Y626184D01*
X246803Y626275D01*
X246867Y626364D01*
X249322Y623704D02*
X249280Y623638D01*
X249236Y623573D01*
X249188Y623511D01*
X249138Y623451D01*
X249085Y623393D01*
X249029Y623338D01*
X248971Y623285D01*
X248910Y623236D01*
X248847Y623189D01*
X248782Y623145D01*
X248715Y623105D01*
X248646Y623068D01*
X248575Y623034D01*
X248503Y623003D01*
X248429Y622976D01*
X248354Y622952D01*
X248279Y622932D01*
X248202Y622916D01*
X248125Y622903D01*
X248047Y622893D01*
X247968Y622888D01*
X247890Y622886D01*
X250549Y625955D02*
X250591Y626022D01*
X250635Y626087D01*
X250683Y626149D01*
X250733Y626209D01*
X250786Y626267D01*
X250842Y626322D01*
X250901Y626374D01*
X250961Y626424D01*
X251025Y626471D01*
X251090Y626514D01*
X251157Y626555D01*
X251226Y626592D01*
X251297Y626626D01*
X251369Y626657D01*
X251443Y626684D01*
X251517Y626708D01*
X251593Y626728D01*
X251670Y626744D01*
X251747Y626757D01*
X251825Y626767D01*
X251904Y626772D01*
X251982Y626774D01*
X250550Y625955D02*
X249322Y623704D01*
X253619Y631366D02*
X253619Y633003D01*
X253619Y631366D02*
X253617Y631288D01*
X253612Y631210D01*
X253602Y631133D01*
X253589Y631056D01*
X253573Y630980D01*
X253553Y630905D01*
X253529Y630831D01*
X253502Y630758D01*
X253471Y630686D01*
X253437Y630616D01*
X253400Y630548D01*
X253359Y630481D01*
X253315Y630416D01*
X253269Y630354D01*
X253219Y630294D01*
X253167Y630236D01*
X253112Y630181D01*
X253054Y630129D01*
X252994Y630079D01*
X252932Y630033D01*
X252867Y629989D01*
X252801Y629948D01*
X252732Y629911D01*
X252662Y629877D01*
X252590Y629846D01*
X252517Y629819D01*
X252443Y629795D01*
X252368Y629775D01*
X252292Y629759D01*
X252215Y629746D01*
X252138Y629736D01*
X252060Y629731D01*
X251982Y629729D01*
X247890Y629729D01*
X247810Y629731D01*
X247730Y629737D01*
X247650Y629747D01*
X247571Y629760D01*
X247492Y629778D01*
X247415Y629799D01*
X247339Y629825D01*
X247264Y629854D01*
X247190Y629886D01*
X247118Y629922D01*
X247048Y629962D01*
X246981Y630005D01*
X246915Y630051D01*
X246852Y630101D01*
X246791Y630153D01*
X246732Y630208D01*
X246677Y630267D01*
X246625Y630327D01*
X246575Y630391D01*
X246529Y630456D01*
X246486Y630524D01*
X246446Y630594D01*
X246410Y630666D01*
X246378Y630740D01*
X246349Y630814D01*
X246324Y630891D01*
X246302Y630968D01*
X246284Y631047D01*
X246271Y631126D01*
X246261Y631205D01*
X246255Y631286D01*
X246253Y631366D01*
X246253Y633003D01*
X246253Y636108D02*
X253619Y636108D01*
X253619Y639382D01*
X499773Y205218D02*
X499771Y205140D01*
X499766Y205062D01*
X499756Y204985D01*
X499743Y204908D01*
X499727Y204832D01*
X499707Y204757D01*
X499683Y204683D01*
X499656Y204610D01*
X499625Y204538D01*
X499591Y204468D01*
X499554Y204400D01*
X499513Y204333D01*
X499469Y204268D01*
X499423Y204206D01*
X499373Y204146D01*
X499321Y204088D01*
X499266Y204033D01*
X499208Y203981D01*
X499148Y203931D01*
X499086Y203885D01*
X499021Y203841D01*
X498955Y203800D01*
X498886Y203763D01*
X498816Y203729D01*
X498744Y203698D01*
X498671Y203671D01*
X498597Y203647D01*
X498522Y203627D01*
X498446Y203611D01*
X498369Y203598D01*
X498292Y203588D01*
X498214Y203583D01*
X498136Y203581D01*
X498022Y203583D01*
X497909Y203588D01*
X497795Y203598D01*
X497682Y203611D01*
X497570Y203628D01*
X497458Y203648D01*
X497347Y203672D01*
X497236Y203700D01*
X497127Y203731D01*
X497019Y203766D01*
X496912Y203805D01*
X496806Y203847D01*
X496702Y203892D01*
X496599Y203941D01*
X496498Y203994D01*
X496399Y204049D01*
X496301Y204108D01*
X496206Y204170D01*
X496113Y204235D01*
X496021Y204303D01*
X495933Y204374D01*
X495846Y204448D01*
X495762Y204525D01*
X495681Y204604D01*
X495885Y209310D02*
X495887Y209388D01*
X495892Y209466D01*
X495902Y209543D01*
X495915Y209620D01*
X495931Y209696D01*
X495951Y209771D01*
X495975Y209845D01*
X496002Y209918D01*
X496033Y209990D01*
X496067Y210060D01*
X496104Y210129D01*
X496145Y210195D01*
X496189Y210260D01*
X496235Y210322D01*
X496285Y210382D01*
X496337Y210440D01*
X496392Y210495D01*
X496450Y210547D01*
X496510Y210597D01*
X496572Y210643D01*
X496637Y210687D01*
X496704Y210728D01*
X496772Y210765D01*
X496842Y210799D01*
X496914Y210830D01*
X496987Y210857D01*
X497061Y210881D01*
X497136Y210901D01*
X497212Y210917D01*
X497289Y210930D01*
X497366Y210940D01*
X497444Y210945D01*
X497522Y210947D01*
X497632Y210945D01*
X497741Y210939D01*
X497851Y210929D01*
X497959Y210916D01*
X498068Y210898D01*
X498175Y210877D01*
X498282Y210851D01*
X498388Y210822D01*
X498493Y210790D01*
X498596Y210753D01*
X498698Y210713D01*
X498799Y210669D01*
X498898Y210621D01*
X498995Y210571D01*
X499090Y210516D01*
X499183Y210458D01*
X499274Y210397D01*
X499363Y210333D01*
X496704Y207877D02*
X496637Y207919D01*
X496572Y207963D01*
X496510Y208011D01*
X496450Y208061D01*
X496392Y208114D01*
X496337Y208170D01*
X496285Y208229D01*
X496235Y208289D01*
X496188Y208353D01*
X496145Y208418D01*
X496104Y208485D01*
X496067Y208554D01*
X496033Y208625D01*
X496002Y208697D01*
X495975Y208771D01*
X495951Y208845D01*
X495931Y208921D01*
X495915Y208998D01*
X495902Y209075D01*
X495892Y209153D01*
X495887Y209232D01*
X495885Y209310D01*
X498955Y206650D02*
X499021Y206608D01*
X499086Y206564D01*
X499148Y206517D01*
X499208Y206466D01*
X499266Y206413D01*
X499321Y206357D01*
X499374Y206299D01*
X499423Y206238D01*
X499470Y206175D01*
X499513Y206110D01*
X499554Y206043D01*
X499591Y205974D01*
X499625Y205903D01*
X499656Y205831D01*
X499683Y205757D01*
X499707Y205682D01*
X499727Y205607D01*
X499743Y205530D01*
X499756Y205453D01*
X499766Y205375D01*
X499771Y205296D01*
X499773Y205218D01*
X498955Y206650D02*
X496704Y207878D01*
X504366Y203581D02*
X506003Y203581D01*
X504366Y203581D02*
X504288Y203583D01*
X504210Y203588D01*
X504133Y203598D01*
X504056Y203611D01*
X503980Y203627D01*
X503905Y203647D01*
X503831Y203671D01*
X503758Y203698D01*
X503686Y203729D01*
X503616Y203763D01*
X503548Y203800D01*
X503481Y203841D01*
X503416Y203885D01*
X503354Y203931D01*
X503294Y203981D01*
X503236Y204033D01*
X503181Y204088D01*
X503129Y204146D01*
X503079Y204206D01*
X503033Y204268D01*
X502989Y204333D01*
X502948Y204400D01*
X502911Y204468D01*
X502877Y204538D01*
X502846Y204610D01*
X502819Y204683D01*
X502795Y204757D01*
X502775Y204832D01*
X502759Y204908D01*
X502746Y204985D01*
X502736Y205062D01*
X502731Y205140D01*
X502729Y205218D01*
X502729Y209310D01*
X502731Y209390D01*
X502737Y209470D01*
X502747Y209550D01*
X502760Y209629D01*
X502778Y209708D01*
X502799Y209785D01*
X502825Y209861D01*
X502854Y209936D01*
X502886Y210010D01*
X502922Y210082D01*
X502962Y210152D01*
X503005Y210219D01*
X503051Y210285D01*
X503101Y210348D01*
X503153Y210409D01*
X503208Y210468D01*
X503267Y210523D01*
X503327Y210575D01*
X503391Y210625D01*
X503457Y210671D01*
X503524Y210714D01*
X503594Y210754D01*
X503666Y210790D01*
X503740Y210822D01*
X503814Y210851D01*
X503891Y210877D01*
X503968Y210898D01*
X504047Y210916D01*
X504126Y210929D01*
X504206Y210939D01*
X504286Y210945D01*
X504366Y210947D01*
X506003Y210947D01*
X509108Y210947D02*
X509108Y203581D01*
X512382Y203581D01*
X486255Y178181D02*
X482981Y178181D01*
X482981Y185547D01*
X486255Y185547D01*
X485436Y182273D02*
X482981Y182273D01*
X488652Y185547D02*
X491107Y178181D01*
X493563Y185547D01*
X496636Y178181D02*
X499910Y178181D01*
X496636Y178181D02*
X496636Y185547D01*
X499910Y185547D01*
X499091Y182273D02*
X496636Y182273D01*
X502960Y185547D02*
X502960Y178181D01*
X507052Y178181D02*
X502960Y185547D01*
X507052Y185547D02*
X507052Y178181D01*
X512078Y178181D02*
X512078Y185547D01*
X514124Y185547D02*
X510031Y185547D01*
X499773Y156873D02*
X498546Y156873D01*
X499773Y156873D02*
X499773Y152781D01*
X497318Y152781D01*
X497240Y152783D01*
X497162Y152788D01*
X497085Y152798D01*
X497008Y152811D01*
X496932Y152827D01*
X496857Y152847D01*
X496783Y152871D01*
X496710Y152898D01*
X496638Y152929D01*
X496568Y152963D01*
X496500Y153000D01*
X496433Y153041D01*
X496368Y153085D01*
X496306Y153131D01*
X496246Y153181D01*
X496188Y153233D01*
X496133Y153288D01*
X496081Y153346D01*
X496031Y153406D01*
X495985Y153468D01*
X495941Y153533D01*
X495900Y153600D01*
X495863Y153668D01*
X495829Y153738D01*
X495798Y153810D01*
X495771Y153883D01*
X495747Y153957D01*
X495727Y154032D01*
X495711Y154108D01*
X495698Y154185D01*
X495688Y154262D01*
X495683Y154340D01*
X495681Y154418D01*
X495681Y158510D01*
X495683Y158590D01*
X495689Y158670D01*
X495699Y158750D01*
X495712Y158829D01*
X495730Y158908D01*
X495751Y158985D01*
X495777Y159061D01*
X495806Y159136D01*
X495838Y159210D01*
X495874Y159282D01*
X495914Y159352D01*
X495957Y159419D01*
X496003Y159485D01*
X496053Y159548D01*
X496105Y159609D01*
X496160Y159668D01*
X496219Y159723D01*
X496279Y159775D01*
X496343Y159825D01*
X496409Y159871D01*
X496476Y159914D01*
X496546Y159954D01*
X496618Y159990D01*
X496692Y160022D01*
X496766Y160051D01*
X496843Y160077D01*
X496920Y160098D01*
X496999Y160116D01*
X497078Y160129D01*
X497158Y160139D01*
X497238Y160145D01*
X497318Y160147D01*
X499773Y160147D01*
X503484Y160147D02*
X503484Y152781D01*
X507576Y152781D02*
X503484Y160147D01*
X507576Y160147D02*
X507576Y152781D01*
X511287Y152781D02*
X511287Y160147D01*
X513333Y160147D01*
X513422Y160145D01*
X513511Y160139D01*
X513600Y160129D01*
X513688Y160116D01*
X513776Y160099D01*
X513863Y160077D01*
X513948Y160052D01*
X514033Y160024D01*
X514116Y159991D01*
X514198Y159955D01*
X514278Y159916D01*
X514356Y159873D01*
X514432Y159827D01*
X514507Y159777D01*
X514579Y159724D01*
X514648Y159668D01*
X514715Y159609D01*
X514780Y159548D01*
X514841Y159483D01*
X514900Y159416D01*
X514956Y159347D01*
X515009Y159275D01*
X515059Y159200D01*
X515105Y159124D01*
X515148Y159046D01*
X515187Y158966D01*
X515223Y158884D01*
X515256Y158801D01*
X515284Y158716D01*
X515309Y158631D01*
X515331Y158544D01*
X515348Y158456D01*
X515361Y158368D01*
X515371Y158279D01*
X515377Y158190D01*
X515379Y158101D01*
X515379Y154827D01*
X515377Y154738D01*
X515371Y154649D01*
X515361Y154560D01*
X515348Y154472D01*
X515331Y154384D01*
X515309Y154297D01*
X515284Y154212D01*
X515256Y154127D01*
X515223Y154044D01*
X515187Y153962D01*
X515148Y153882D01*
X515105Y153804D01*
X515059Y153728D01*
X515009Y153653D01*
X514956Y153581D01*
X514900Y153512D01*
X514841Y153445D01*
X514780Y153380D01*
X514715Y153319D01*
X514648Y153260D01*
X514579Y153204D01*
X514507Y153151D01*
X514432Y153101D01*
X514356Y153055D01*
X514278Y153012D01*
X514198Y152973D01*
X514116Y152937D01*
X514033Y152904D01*
X513948Y152876D01*
X513863Y152851D01*
X513776Y152829D01*
X513688Y152812D01*
X513600Y152799D01*
X513511Y152789D01*
X513422Y152783D01*
X513333Y152781D01*
X511287Y152781D01*
X224127Y625546D02*
X224127Y626773D01*
X228219Y626773D01*
X228219Y624318D01*
X228217Y624240D01*
X228212Y624162D01*
X228202Y624085D01*
X228189Y624008D01*
X228173Y623932D01*
X228153Y623857D01*
X228129Y623783D01*
X228102Y623710D01*
X228071Y623638D01*
X228037Y623568D01*
X228000Y623500D01*
X227959Y623433D01*
X227915Y623368D01*
X227869Y623306D01*
X227819Y623246D01*
X227767Y623188D01*
X227712Y623133D01*
X227654Y623081D01*
X227594Y623031D01*
X227532Y622985D01*
X227467Y622941D01*
X227401Y622900D01*
X227332Y622863D01*
X227262Y622829D01*
X227190Y622798D01*
X227117Y622771D01*
X227043Y622747D01*
X226968Y622727D01*
X226892Y622711D01*
X226815Y622698D01*
X226738Y622688D01*
X226660Y622683D01*
X226582Y622681D01*
X222490Y622681D01*
X222410Y622683D01*
X222330Y622689D01*
X222250Y622699D01*
X222171Y622712D01*
X222092Y622730D01*
X222015Y622751D01*
X221939Y622777D01*
X221864Y622806D01*
X221790Y622838D01*
X221718Y622874D01*
X221648Y622914D01*
X221581Y622957D01*
X221515Y623003D01*
X221452Y623053D01*
X221391Y623105D01*
X221332Y623160D01*
X221277Y623219D01*
X221225Y623279D01*
X221175Y623343D01*
X221129Y623408D01*
X221086Y623476D01*
X221046Y623546D01*
X221010Y623618D01*
X220978Y623692D01*
X220949Y623766D01*
X220924Y623843D01*
X220902Y623920D01*
X220884Y623999D01*
X220871Y624078D01*
X220861Y624157D01*
X220855Y624238D01*
X220853Y624318D01*
X220853Y626773D01*
X220853Y630484D02*
X228219Y630484D01*
X228219Y634576D02*
X220853Y630484D01*
X220853Y634576D02*
X228219Y634576D01*
X228219Y638287D02*
X220853Y638287D01*
X220853Y640333D01*
X220855Y640422D01*
X220861Y640511D01*
X220871Y640600D01*
X220884Y640688D01*
X220901Y640776D01*
X220923Y640863D01*
X220948Y640948D01*
X220976Y641033D01*
X221009Y641116D01*
X221045Y641198D01*
X221084Y641278D01*
X221127Y641356D01*
X221173Y641432D01*
X221223Y641507D01*
X221276Y641579D01*
X221332Y641648D01*
X221391Y641715D01*
X221452Y641780D01*
X221517Y641841D01*
X221584Y641900D01*
X221653Y641956D01*
X221725Y642009D01*
X221800Y642059D01*
X221876Y642105D01*
X221954Y642148D01*
X222034Y642187D01*
X222116Y642223D01*
X222199Y642256D01*
X222284Y642284D01*
X222369Y642309D01*
X222456Y642331D01*
X222544Y642348D01*
X222632Y642361D01*
X222721Y642371D01*
X222810Y642377D01*
X222899Y642379D01*
X226173Y642379D01*
X226262Y642377D01*
X226351Y642371D01*
X226440Y642361D01*
X226528Y642348D01*
X226616Y642331D01*
X226703Y642309D01*
X226788Y642284D01*
X226873Y642256D01*
X226956Y642223D01*
X227038Y642187D01*
X227118Y642148D01*
X227196Y642105D01*
X227272Y642059D01*
X227347Y642009D01*
X227419Y641956D01*
X227488Y641900D01*
X227555Y641841D01*
X227620Y641780D01*
X227681Y641715D01*
X227740Y641648D01*
X227796Y641579D01*
X227849Y641507D01*
X227899Y641432D01*
X227945Y641356D01*
X227988Y641278D01*
X228027Y641198D01*
X228063Y641116D01*
X228096Y641033D01*
X228124Y640948D01*
X228149Y640863D01*
X228171Y640776D01*
X228188Y640688D01*
X228201Y640600D01*
X228211Y640511D01*
X228217Y640422D01*
X228219Y640333D01*
X228219Y638287D01*
X202819Y625136D02*
X202819Y622681D01*
X202819Y625136D02*
X202817Y625214D01*
X202812Y625292D01*
X202802Y625369D01*
X202789Y625446D01*
X202773Y625522D01*
X202753Y625597D01*
X202729Y625671D01*
X202702Y625744D01*
X202671Y625816D01*
X202637Y625886D01*
X202600Y625955D01*
X202559Y626021D01*
X202515Y626086D01*
X202469Y626148D01*
X202419Y626208D01*
X202367Y626266D01*
X202312Y626321D01*
X202254Y626373D01*
X202194Y626423D01*
X202132Y626469D01*
X202067Y626513D01*
X202001Y626554D01*
X201932Y626591D01*
X201862Y626625D01*
X201790Y626656D01*
X201717Y626683D01*
X201643Y626707D01*
X201568Y626727D01*
X201492Y626743D01*
X201415Y626756D01*
X201338Y626766D01*
X201260Y626771D01*
X201182Y626773D01*
X200364Y626773D01*
X200284Y626771D01*
X200204Y626765D01*
X200124Y626755D01*
X200045Y626742D01*
X199966Y626724D01*
X199889Y626703D01*
X199813Y626677D01*
X199738Y626648D01*
X199664Y626616D01*
X199592Y626580D01*
X199522Y626540D01*
X199455Y626497D01*
X199389Y626451D01*
X199326Y626401D01*
X199265Y626349D01*
X199206Y626294D01*
X199151Y626235D01*
X199099Y626175D01*
X199049Y626111D01*
X199003Y626045D01*
X198960Y625978D01*
X198920Y625908D01*
X198884Y625836D01*
X198852Y625762D01*
X198823Y625688D01*
X198797Y625611D01*
X198776Y625534D01*
X198758Y625455D01*
X198745Y625376D01*
X198735Y625296D01*
X198729Y625216D01*
X198727Y625136D01*
X198727Y622681D01*
X195453Y622681D01*
X195453Y626773D01*
X197908Y629674D02*
X202819Y631311D01*
X197908Y632948D01*
X297053Y622681D02*
X304419Y622681D01*
X297053Y622681D02*
X297053Y624727D01*
X297055Y624816D01*
X297061Y624905D01*
X297071Y624994D01*
X297084Y625082D01*
X297101Y625170D01*
X297123Y625257D01*
X297148Y625342D01*
X297176Y625427D01*
X297209Y625510D01*
X297245Y625592D01*
X297284Y625672D01*
X297327Y625750D01*
X297373Y625826D01*
X297423Y625901D01*
X297476Y625973D01*
X297532Y626042D01*
X297591Y626109D01*
X297652Y626174D01*
X297717Y626235D01*
X297784Y626294D01*
X297853Y626350D01*
X297925Y626403D01*
X298000Y626453D01*
X298076Y626499D01*
X298154Y626542D01*
X298234Y626581D01*
X298316Y626617D01*
X298399Y626650D01*
X298484Y626678D01*
X298569Y626703D01*
X298656Y626725D01*
X298744Y626742D01*
X298832Y626755D01*
X298921Y626765D01*
X299010Y626771D01*
X299099Y626773D01*
X302373Y626773D01*
X302462Y626771D01*
X302551Y626765D01*
X302640Y626755D01*
X302728Y626742D01*
X302816Y626725D01*
X302903Y626703D01*
X302988Y626678D01*
X303073Y626650D01*
X303156Y626617D01*
X303238Y626581D01*
X303318Y626542D01*
X303396Y626499D01*
X303472Y626453D01*
X303547Y626403D01*
X303619Y626350D01*
X303688Y626294D01*
X303755Y626235D01*
X303820Y626174D01*
X303881Y626109D01*
X303940Y626042D01*
X303996Y625973D01*
X304049Y625901D01*
X304099Y625826D01*
X304145Y625750D01*
X304188Y625672D01*
X304227Y625592D01*
X304263Y625510D01*
X304296Y625427D01*
X304324Y625342D01*
X304349Y625257D01*
X304371Y625170D01*
X304388Y625082D01*
X304401Y624994D01*
X304411Y624905D01*
X304417Y624816D01*
X304419Y624727D01*
X304419Y622681D01*
X302782Y630240D02*
X297053Y631877D01*
X302782Y630240D02*
X302782Y634332D01*
X301145Y633105D02*
X304419Y633105D01*
D11*
X241808Y304292D02*
X241808Y292608D01*
X241808Y300397D02*
X245054Y300397D01*
X245141Y300395D01*
X245229Y300389D01*
X245315Y300379D01*
X245402Y300366D01*
X245487Y300348D01*
X245572Y300327D01*
X245656Y300302D01*
X245738Y300273D01*
X245819Y300240D01*
X245899Y300204D01*
X245977Y300165D01*
X246053Y300121D01*
X246127Y300075D01*
X246198Y300025D01*
X246268Y299972D01*
X246335Y299916D01*
X246399Y299857D01*
X246461Y299796D01*
X246520Y299731D01*
X246576Y299664D01*
X246629Y299594D01*
X246679Y299523D01*
X246725Y299449D01*
X246769Y299373D01*
X246808Y299295D01*
X246844Y299215D01*
X246877Y299134D01*
X246906Y299052D01*
X246931Y298968D01*
X246952Y298883D01*
X246970Y298798D01*
X246983Y298711D01*
X246993Y298625D01*
X246999Y298537D01*
X247001Y298450D01*
X247001Y292608D01*
X251128Y300397D02*
X255022Y300397D01*
X252426Y304292D02*
X252426Y294555D01*
X252428Y294468D01*
X252434Y294380D01*
X252444Y294294D01*
X252457Y294207D01*
X252475Y294122D01*
X252496Y294037D01*
X252521Y293953D01*
X252550Y293871D01*
X252583Y293790D01*
X252619Y293710D01*
X252658Y293632D01*
X252702Y293556D01*
X252748Y293482D01*
X252798Y293411D01*
X252851Y293341D01*
X252907Y293274D01*
X252966Y293210D01*
X253028Y293148D01*
X253092Y293089D01*
X253159Y293033D01*
X253229Y292980D01*
X253300Y292930D01*
X253374Y292884D01*
X253450Y292840D01*
X253528Y292801D01*
X253608Y292765D01*
X253689Y292732D01*
X253771Y292703D01*
X253855Y292678D01*
X253940Y292657D01*
X254025Y292639D01*
X254112Y292626D01*
X254198Y292616D01*
X254286Y292610D01*
X254373Y292608D01*
X255022Y292608D01*
X258367Y300397D02*
X262261Y300397D01*
X259665Y304292D02*
X259665Y294555D01*
X259667Y294468D01*
X259673Y294380D01*
X259683Y294294D01*
X259696Y294207D01*
X259714Y294122D01*
X259735Y294037D01*
X259760Y293953D01*
X259789Y293871D01*
X259822Y293790D01*
X259858Y293710D01*
X259897Y293632D01*
X259941Y293556D01*
X259987Y293482D01*
X260037Y293411D01*
X260090Y293341D01*
X260146Y293274D01*
X260205Y293210D01*
X260267Y293148D01*
X260331Y293089D01*
X260398Y293033D01*
X260468Y292980D01*
X260539Y292930D01*
X260613Y292884D01*
X260689Y292840D01*
X260767Y292801D01*
X260847Y292765D01*
X260928Y292732D01*
X261010Y292703D01*
X261094Y292678D01*
X261179Y292657D01*
X261264Y292639D01*
X261351Y292626D01*
X261437Y292616D01*
X261525Y292610D01*
X261612Y292608D01*
X262261Y292608D01*
X267013Y288713D02*
X267013Y300397D01*
X270258Y300397D01*
X270345Y300395D01*
X270433Y300389D01*
X270519Y300379D01*
X270606Y300366D01*
X270691Y300348D01*
X270776Y300327D01*
X270860Y300302D01*
X270942Y300273D01*
X271023Y300240D01*
X271103Y300204D01*
X271181Y300165D01*
X271257Y300121D01*
X271331Y300075D01*
X271402Y300025D01*
X271472Y299972D01*
X271539Y299916D01*
X271603Y299857D01*
X271665Y299796D01*
X271724Y299731D01*
X271780Y299664D01*
X271833Y299594D01*
X271883Y299523D01*
X271929Y299449D01*
X271973Y299373D01*
X272012Y299295D01*
X272048Y299215D01*
X272081Y299134D01*
X272110Y299052D01*
X272135Y298968D01*
X272156Y298883D01*
X272174Y298798D01*
X272187Y298711D01*
X272197Y298625D01*
X272203Y298537D01*
X272205Y298450D01*
X272206Y298450D02*
X272206Y294555D01*
X272205Y294555D02*
X272203Y294468D01*
X272197Y294380D01*
X272187Y294294D01*
X272174Y294207D01*
X272156Y294122D01*
X272135Y294037D01*
X272110Y293953D01*
X272081Y293871D01*
X272048Y293790D01*
X272012Y293710D01*
X271973Y293632D01*
X271929Y293556D01*
X271883Y293482D01*
X271833Y293411D01*
X271780Y293341D01*
X271724Y293274D01*
X271665Y293210D01*
X271603Y293148D01*
X271539Y293089D01*
X271472Y293033D01*
X271402Y292980D01*
X271331Y292930D01*
X271257Y292884D01*
X271181Y292840D01*
X271103Y292801D01*
X271023Y292765D01*
X270942Y292732D01*
X270860Y292703D01*
X270776Y292678D01*
X270691Y292657D01*
X270606Y292639D01*
X270519Y292626D01*
X270433Y292616D01*
X270345Y292610D01*
X270258Y292608D01*
X267013Y292608D01*
X276846Y293582D02*
X276846Y294231D01*
X277495Y294231D01*
X277495Y293582D01*
X276846Y293582D01*
X276846Y298775D02*
X276846Y299424D01*
X277495Y299424D01*
X277495Y298775D01*
X276846Y298775D01*
X281813Y291310D02*
X287006Y305590D01*
X296150Y305590D02*
X290957Y291310D01*
X302274Y292608D02*
X300327Y300397D01*
X304221Y297801D02*
X302274Y292608D01*
X306169Y292608D02*
X304221Y297801D01*
X308116Y300397D02*
X306169Y292608D01*
X314466Y292608D02*
X312519Y300397D01*
X316413Y297801D02*
X314466Y292608D01*
X318361Y292608D02*
X316413Y297801D01*
X320308Y300397D02*
X318361Y292608D01*
X326658Y292608D02*
X324711Y300397D01*
X328605Y297801D02*
X326658Y292608D01*
X330553Y292608D02*
X328605Y297801D01*
X332500Y300397D02*
X330553Y292608D01*
X336663Y292608D02*
X336663Y293257D01*
X337312Y293257D01*
X337312Y292608D01*
X336663Y292608D01*
X341249Y288713D02*
X342547Y288713D01*
X346442Y300397D01*
X341249Y300397D02*
X343845Y292608D01*
X350774Y295204D02*
X350774Y297801D01*
X350776Y297902D01*
X350782Y298002D01*
X350792Y298102D01*
X350805Y298202D01*
X350823Y298301D01*
X350844Y298400D01*
X350869Y298497D01*
X350898Y298594D01*
X350931Y298689D01*
X350967Y298783D01*
X351007Y298875D01*
X351050Y298966D01*
X351097Y299055D01*
X351147Y299142D01*
X351201Y299228D01*
X351258Y299311D01*
X351318Y299391D01*
X351381Y299470D01*
X351448Y299546D01*
X351517Y299619D01*
X351589Y299689D01*
X351663Y299757D01*
X351740Y299822D01*
X351820Y299883D01*
X351902Y299942D01*
X351986Y299997D01*
X352072Y300049D01*
X352160Y300098D01*
X352250Y300143D01*
X352342Y300185D01*
X352435Y300223D01*
X352530Y300257D01*
X352625Y300288D01*
X352722Y300315D01*
X352820Y300338D01*
X352919Y300358D01*
X353019Y300373D01*
X353119Y300385D01*
X353219Y300393D01*
X353320Y300397D01*
X353420Y300397D01*
X353521Y300393D01*
X353621Y300385D01*
X353721Y300373D01*
X353821Y300358D01*
X353920Y300338D01*
X354018Y300315D01*
X354115Y300288D01*
X354210Y300257D01*
X354305Y300223D01*
X354398Y300185D01*
X354490Y300143D01*
X354580Y300098D01*
X354668Y300049D01*
X354754Y299997D01*
X354838Y299942D01*
X354920Y299883D01*
X355000Y299822D01*
X355077Y299757D01*
X355151Y299689D01*
X355223Y299619D01*
X355292Y299546D01*
X355359Y299470D01*
X355422Y299391D01*
X355482Y299311D01*
X355539Y299228D01*
X355593Y299142D01*
X355643Y299055D01*
X355690Y298966D01*
X355733Y298875D01*
X355773Y298783D01*
X355809Y298689D01*
X355842Y298594D01*
X355871Y298497D01*
X355896Y298400D01*
X355917Y298301D01*
X355935Y298202D01*
X355948Y298102D01*
X355958Y298002D01*
X355964Y297902D01*
X355966Y297801D01*
X355967Y297801D02*
X355967Y295204D01*
X355966Y295204D02*
X355964Y295103D01*
X355958Y295003D01*
X355948Y294903D01*
X355935Y294803D01*
X355917Y294704D01*
X355896Y294605D01*
X355871Y294508D01*
X355842Y294411D01*
X355809Y294316D01*
X355773Y294222D01*
X355733Y294130D01*
X355690Y294039D01*
X355643Y293950D01*
X355593Y293863D01*
X355539Y293777D01*
X355482Y293694D01*
X355422Y293614D01*
X355359Y293535D01*
X355292Y293459D01*
X355223Y293386D01*
X355151Y293316D01*
X355077Y293248D01*
X355000Y293183D01*
X354920Y293122D01*
X354838Y293063D01*
X354754Y293008D01*
X354668Y292956D01*
X354580Y292907D01*
X354490Y292862D01*
X354398Y292820D01*
X354305Y292782D01*
X354210Y292748D01*
X354115Y292717D01*
X354018Y292690D01*
X353920Y292667D01*
X353821Y292647D01*
X353721Y292632D01*
X353621Y292620D01*
X353521Y292612D01*
X353420Y292608D01*
X353320Y292608D01*
X353219Y292612D01*
X353119Y292620D01*
X353019Y292632D01*
X352919Y292647D01*
X352820Y292667D01*
X352722Y292690D01*
X352625Y292717D01*
X352530Y292748D01*
X352435Y292782D01*
X352342Y292820D01*
X352250Y292862D01*
X352160Y292907D01*
X352072Y292956D01*
X351986Y293008D01*
X351902Y293063D01*
X351820Y293122D01*
X351740Y293183D01*
X351663Y293248D01*
X351589Y293316D01*
X351517Y293386D01*
X351448Y293459D01*
X351381Y293535D01*
X351318Y293614D01*
X351258Y293694D01*
X351201Y293777D01*
X351147Y293863D01*
X351097Y293950D01*
X351050Y294039D01*
X351007Y294130D01*
X350967Y294222D01*
X350931Y294316D01*
X350898Y294411D01*
X350869Y294508D01*
X350844Y294605D01*
X350823Y294704D01*
X350805Y294803D01*
X350792Y294903D01*
X350782Y295003D01*
X350776Y295103D01*
X350774Y295204D01*
X361061Y294555D02*
X361061Y300397D01*
X361061Y294555D02*
X361063Y294468D01*
X361069Y294380D01*
X361079Y294294D01*
X361092Y294207D01*
X361110Y294122D01*
X361131Y294037D01*
X361156Y293953D01*
X361185Y293871D01*
X361218Y293790D01*
X361254Y293710D01*
X361293Y293632D01*
X361337Y293556D01*
X361383Y293482D01*
X361433Y293411D01*
X361486Y293341D01*
X361542Y293274D01*
X361601Y293210D01*
X361663Y293148D01*
X361727Y293089D01*
X361794Y293033D01*
X361864Y292980D01*
X361935Y292930D01*
X362009Y292884D01*
X362085Y292840D01*
X362163Y292801D01*
X362243Y292765D01*
X362324Y292732D01*
X362406Y292703D01*
X362490Y292678D01*
X362575Y292657D01*
X362660Y292639D01*
X362747Y292626D01*
X362833Y292616D01*
X362921Y292610D01*
X363008Y292608D01*
X366254Y292608D01*
X366254Y300397D01*
X370381Y300397D02*
X374275Y300397D01*
X371679Y304292D02*
X371679Y294555D01*
X371681Y294468D01*
X371687Y294380D01*
X371697Y294294D01*
X371710Y294207D01*
X371728Y294122D01*
X371749Y294037D01*
X371774Y293953D01*
X371803Y293871D01*
X371836Y293790D01*
X371872Y293710D01*
X371911Y293632D01*
X371955Y293556D01*
X372001Y293482D01*
X372051Y293411D01*
X372104Y293341D01*
X372160Y293274D01*
X372219Y293210D01*
X372281Y293148D01*
X372345Y293089D01*
X372412Y293033D01*
X372482Y292980D01*
X372553Y292930D01*
X372627Y292884D01*
X372703Y292840D01*
X372781Y292801D01*
X372861Y292765D01*
X372942Y292732D01*
X373024Y292703D01*
X373108Y292678D01*
X373193Y292657D01*
X373278Y292639D01*
X373365Y292626D01*
X373451Y292616D01*
X373539Y292610D01*
X373626Y292608D01*
X374275Y292608D01*
X378968Y294555D02*
X378968Y300397D01*
X378968Y294555D02*
X378970Y294468D01*
X378976Y294380D01*
X378986Y294294D01*
X378999Y294207D01*
X379017Y294122D01*
X379038Y294037D01*
X379063Y293953D01*
X379092Y293871D01*
X379125Y293790D01*
X379161Y293710D01*
X379200Y293632D01*
X379244Y293556D01*
X379290Y293482D01*
X379340Y293411D01*
X379393Y293341D01*
X379449Y293274D01*
X379508Y293210D01*
X379570Y293148D01*
X379634Y293089D01*
X379701Y293033D01*
X379771Y292980D01*
X379842Y292930D01*
X379916Y292884D01*
X379992Y292840D01*
X380070Y292801D01*
X380150Y292765D01*
X380231Y292732D01*
X380313Y292703D01*
X380397Y292678D01*
X380482Y292657D01*
X380567Y292639D01*
X380654Y292626D01*
X380740Y292616D01*
X380828Y292610D01*
X380915Y292608D01*
X384161Y292608D01*
X384161Y300397D01*
X389695Y304292D02*
X389695Y292608D01*
X392940Y292608D01*
X393027Y292610D01*
X393115Y292616D01*
X393201Y292626D01*
X393288Y292639D01*
X393373Y292657D01*
X393458Y292678D01*
X393542Y292703D01*
X393624Y292732D01*
X393705Y292765D01*
X393785Y292801D01*
X393863Y292840D01*
X393939Y292884D01*
X394013Y292930D01*
X394084Y292980D01*
X394154Y293033D01*
X394221Y293089D01*
X394285Y293148D01*
X394347Y293209D01*
X394406Y293274D01*
X394462Y293341D01*
X394515Y293411D01*
X394565Y293482D01*
X394611Y293556D01*
X394655Y293632D01*
X394694Y293710D01*
X394730Y293790D01*
X394763Y293871D01*
X394792Y293953D01*
X394817Y294037D01*
X394838Y294122D01*
X394856Y294207D01*
X394869Y294294D01*
X394879Y294380D01*
X394885Y294468D01*
X394887Y294555D01*
X394888Y294555D02*
X394888Y298450D01*
X394887Y298450D02*
X394885Y298537D01*
X394879Y298625D01*
X394869Y298711D01*
X394856Y298798D01*
X394838Y298883D01*
X394817Y298968D01*
X394792Y299052D01*
X394763Y299134D01*
X394730Y299215D01*
X394694Y299295D01*
X394655Y299373D01*
X394611Y299449D01*
X394565Y299523D01*
X394515Y299594D01*
X394462Y299664D01*
X394406Y299731D01*
X394347Y299795D01*
X394285Y299857D01*
X394221Y299916D01*
X394154Y299972D01*
X394084Y300025D01*
X394013Y300075D01*
X393939Y300121D01*
X393863Y300165D01*
X393785Y300204D01*
X393705Y300240D01*
X393624Y300273D01*
X393542Y300302D01*
X393458Y300327D01*
X393373Y300348D01*
X393288Y300366D01*
X393201Y300379D01*
X393115Y300389D01*
X393027Y300395D01*
X392940Y300397D01*
X389695Y300397D01*
X401489Y292608D02*
X404735Y292608D01*
X401489Y292608D02*
X401402Y292610D01*
X401314Y292616D01*
X401228Y292626D01*
X401141Y292639D01*
X401056Y292657D01*
X400971Y292678D01*
X400887Y292703D01*
X400805Y292732D01*
X400724Y292765D01*
X400644Y292801D01*
X400566Y292840D01*
X400490Y292884D01*
X400416Y292930D01*
X400345Y292980D01*
X400275Y293033D01*
X400208Y293089D01*
X400144Y293148D01*
X400082Y293210D01*
X400023Y293274D01*
X399967Y293341D01*
X399914Y293411D01*
X399864Y293482D01*
X399818Y293556D01*
X399774Y293632D01*
X399735Y293710D01*
X399699Y293790D01*
X399666Y293871D01*
X399637Y293953D01*
X399612Y294037D01*
X399591Y294122D01*
X399573Y294207D01*
X399560Y294294D01*
X399550Y294380D01*
X399544Y294468D01*
X399542Y294555D01*
X399542Y297801D01*
X399544Y297902D01*
X399550Y298002D01*
X399560Y298102D01*
X399573Y298202D01*
X399591Y298301D01*
X399612Y298400D01*
X399637Y298497D01*
X399666Y298594D01*
X399699Y298689D01*
X399735Y298783D01*
X399775Y298875D01*
X399818Y298966D01*
X399865Y299055D01*
X399915Y299142D01*
X399969Y299228D01*
X400026Y299311D01*
X400086Y299391D01*
X400149Y299470D01*
X400216Y299546D01*
X400285Y299619D01*
X400357Y299689D01*
X400431Y299757D01*
X400508Y299822D01*
X400588Y299883D01*
X400670Y299942D01*
X400754Y299997D01*
X400840Y300049D01*
X400928Y300098D01*
X401018Y300143D01*
X401110Y300185D01*
X401203Y300223D01*
X401298Y300257D01*
X401393Y300288D01*
X401490Y300315D01*
X401588Y300338D01*
X401687Y300358D01*
X401787Y300373D01*
X401887Y300385D01*
X401987Y300393D01*
X402088Y300397D01*
X402188Y300397D01*
X402289Y300393D01*
X402389Y300385D01*
X402489Y300373D01*
X402589Y300358D01*
X402688Y300338D01*
X402786Y300315D01*
X402883Y300288D01*
X402978Y300257D01*
X403073Y300223D01*
X403166Y300185D01*
X403258Y300143D01*
X403348Y300098D01*
X403436Y300049D01*
X403522Y299997D01*
X403606Y299942D01*
X403688Y299883D01*
X403768Y299822D01*
X403845Y299757D01*
X403919Y299689D01*
X403991Y299619D01*
X404060Y299546D01*
X404127Y299470D01*
X404190Y299391D01*
X404250Y299311D01*
X404307Y299228D01*
X404361Y299142D01*
X404411Y299055D01*
X404458Y298966D01*
X404501Y298875D01*
X404541Y298783D01*
X404577Y298689D01*
X404610Y298594D01*
X404639Y298497D01*
X404664Y298400D01*
X404685Y298301D01*
X404703Y298202D01*
X404716Y298102D01*
X404726Y298002D01*
X404732Y297902D01*
X404734Y297801D01*
X404735Y297801D02*
X404735Y296503D01*
X399542Y296503D01*
X409053Y293257D02*
X409053Y292608D01*
X409053Y293257D02*
X409702Y293257D01*
X409702Y292608D01*
X409053Y292608D01*
X415980Y292608D02*
X418577Y292608D01*
X415980Y292608D02*
X415893Y292610D01*
X415805Y292616D01*
X415719Y292626D01*
X415632Y292639D01*
X415547Y292657D01*
X415462Y292678D01*
X415378Y292703D01*
X415296Y292732D01*
X415215Y292765D01*
X415135Y292801D01*
X415057Y292840D01*
X414981Y292884D01*
X414907Y292930D01*
X414836Y292980D01*
X414766Y293033D01*
X414699Y293089D01*
X414635Y293148D01*
X414573Y293210D01*
X414514Y293274D01*
X414458Y293341D01*
X414405Y293411D01*
X414355Y293482D01*
X414309Y293556D01*
X414265Y293632D01*
X414226Y293710D01*
X414190Y293790D01*
X414157Y293871D01*
X414128Y293953D01*
X414103Y294037D01*
X414082Y294122D01*
X414064Y294207D01*
X414051Y294294D01*
X414041Y294380D01*
X414035Y294468D01*
X414033Y294555D01*
X414033Y298450D01*
X414035Y298537D01*
X414041Y298625D01*
X414051Y298711D01*
X414064Y298798D01*
X414082Y298883D01*
X414103Y298968D01*
X414128Y299052D01*
X414157Y299134D01*
X414190Y299215D01*
X414226Y299295D01*
X414265Y299373D01*
X414309Y299449D01*
X414355Y299523D01*
X414405Y299594D01*
X414458Y299664D01*
X414514Y299731D01*
X414573Y299795D01*
X414635Y299857D01*
X414699Y299916D01*
X414766Y299972D01*
X414836Y300025D01*
X414907Y300075D01*
X414981Y300121D01*
X415057Y300165D01*
X415135Y300204D01*
X415215Y300240D01*
X415296Y300273D01*
X415378Y300302D01*
X415462Y300327D01*
X415547Y300348D01*
X415632Y300366D01*
X415719Y300379D01*
X415805Y300389D01*
X415893Y300395D01*
X415980Y300397D01*
X418577Y300397D01*
X422783Y297801D02*
X422783Y295204D01*
X422783Y297801D02*
X422785Y297902D01*
X422791Y298002D01*
X422801Y298102D01*
X422814Y298202D01*
X422832Y298301D01*
X422853Y298400D01*
X422878Y298497D01*
X422907Y298594D01*
X422940Y298689D01*
X422976Y298783D01*
X423016Y298875D01*
X423059Y298966D01*
X423106Y299055D01*
X423156Y299142D01*
X423210Y299228D01*
X423267Y299311D01*
X423327Y299391D01*
X423390Y299470D01*
X423457Y299546D01*
X423526Y299619D01*
X423598Y299689D01*
X423672Y299757D01*
X423749Y299822D01*
X423829Y299883D01*
X423911Y299942D01*
X423995Y299997D01*
X424081Y300049D01*
X424169Y300098D01*
X424259Y300143D01*
X424351Y300185D01*
X424444Y300223D01*
X424539Y300257D01*
X424634Y300288D01*
X424731Y300315D01*
X424829Y300338D01*
X424928Y300358D01*
X425028Y300373D01*
X425128Y300385D01*
X425228Y300393D01*
X425329Y300397D01*
X425429Y300397D01*
X425530Y300393D01*
X425630Y300385D01*
X425730Y300373D01*
X425830Y300358D01*
X425929Y300338D01*
X426027Y300315D01*
X426124Y300288D01*
X426219Y300257D01*
X426314Y300223D01*
X426407Y300185D01*
X426499Y300143D01*
X426589Y300098D01*
X426677Y300049D01*
X426763Y299997D01*
X426847Y299942D01*
X426929Y299883D01*
X427009Y299822D01*
X427086Y299757D01*
X427160Y299689D01*
X427232Y299619D01*
X427301Y299546D01*
X427368Y299470D01*
X427431Y299391D01*
X427491Y299311D01*
X427548Y299228D01*
X427602Y299142D01*
X427652Y299055D01*
X427699Y298966D01*
X427742Y298875D01*
X427782Y298783D01*
X427818Y298689D01*
X427851Y298594D01*
X427880Y298497D01*
X427905Y298400D01*
X427926Y298301D01*
X427944Y298202D01*
X427957Y298102D01*
X427967Y298002D01*
X427973Y297902D01*
X427975Y297801D01*
X427976Y297801D02*
X427976Y295204D01*
X427975Y295204D02*
X427973Y295103D01*
X427967Y295003D01*
X427957Y294903D01*
X427944Y294803D01*
X427926Y294704D01*
X427905Y294605D01*
X427880Y294508D01*
X427851Y294411D01*
X427818Y294316D01*
X427782Y294222D01*
X427742Y294130D01*
X427699Y294039D01*
X427652Y293950D01*
X427602Y293863D01*
X427548Y293777D01*
X427491Y293694D01*
X427431Y293614D01*
X427368Y293535D01*
X427301Y293459D01*
X427232Y293386D01*
X427160Y293316D01*
X427086Y293248D01*
X427009Y293183D01*
X426929Y293122D01*
X426847Y293063D01*
X426763Y293008D01*
X426677Y292956D01*
X426589Y292907D01*
X426499Y292862D01*
X426407Y292820D01*
X426314Y292782D01*
X426219Y292748D01*
X426124Y292717D01*
X426027Y292690D01*
X425929Y292667D01*
X425830Y292647D01*
X425730Y292632D01*
X425630Y292620D01*
X425530Y292612D01*
X425429Y292608D01*
X425329Y292608D01*
X425228Y292612D01*
X425128Y292620D01*
X425028Y292632D01*
X424928Y292647D01*
X424829Y292667D01*
X424731Y292690D01*
X424634Y292717D01*
X424539Y292748D01*
X424444Y292782D01*
X424351Y292820D01*
X424259Y292862D01*
X424169Y292907D01*
X424081Y292956D01*
X423995Y293008D01*
X423911Y293063D01*
X423829Y293122D01*
X423749Y293183D01*
X423672Y293248D01*
X423598Y293316D01*
X423526Y293386D01*
X423457Y293459D01*
X423390Y293535D01*
X423327Y293614D01*
X423267Y293694D01*
X423210Y293777D01*
X423156Y293863D01*
X423106Y293950D01*
X423059Y294039D01*
X423016Y294130D01*
X422976Y294222D01*
X422940Y294316D01*
X422907Y294411D01*
X422878Y294508D01*
X422853Y294605D01*
X422832Y294704D01*
X422814Y294803D01*
X422801Y294903D01*
X422791Y295003D01*
X422785Y295103D01*
X422783Y295204D01*
X433296Y292608D02*
X433296Y300397D01*
X439138Y300397D01*
X439225Y300395D01*
X439313Y300389D01*
X439399Y300379D01*
X439486Y300366D01*
X439571Y300348D01*
X439656Y300327D01*
X439740Y300302D01*
X439822Y300273D01*
X439903Y300240D01*
X439983Y300204D01*
X440061Y300165D01*
X440137Y300121D01*
X440211Y300075D01*
X440282Y300025D01*
X440352Y299972D01*
X440419Y299916D01*
X440483Y299857D01*
X440545Y299795D01*
X440604Y299731D01*
X440660Y299664D01*
X440713Y299594D01*
X440763Y299523D01*
X440809Y299449D01*
X440853Y299373D01*
X440892Y299295D01*
X440928Y299215D01*
X440961Y299134D01*
X440990Y299052D01*
X441015Y298968D01*
X441036Y298883D01*
X441054Y298798D01*
X441067Y298711D01*
X441077Y298625D01*
X441083Y298537D01*
X441085Y298450D01*
X441085Y292608D01*
X437190Y292608D02*
X437190Y300397D01*
X446024Y291310D02*
X451217Y305590D01*
X457509Y292608D02*
X460106Y292608D01*
X457509Y292608D02*
X457422Y292610D01*
X457334Y292616D01*
X457248Y292626D01*
X457161Y292639D01*
X457076Y292657D01*
X456991Y292678D01*
X456907Y292703D01*
X456825Y292732D01*
X456744Y292765D01*
X456664Y292801D01*
X456586Y292840D01*
X456510Y292884D01*
X456436Y292930D01*
X456365Y292980D01*
X456295Y293033D01*
X456228Y293089D01*
X456164Y293148D01*
X456102Y293210D01*
X456043Y293274D01*
X455987Y293341D01*
X455934Y293411D01*
X455884Y293482D01*
X455838Y293556D01*
X455794Y293632D01*
X455755Y293710D01*
X455719Y293790D01*
X455686Y293871D01*
X455657Y293953D01*
X455632Y294037D01*
X455611Y294122D01*
X455593Y294207D01*
X455580Y294294D01*
X455570Y294380D01*
X455564Y294468D01*
X455562Y294555D01*
X455562Y298450D01*
X455564Y298537D01*
X455570Y298625D01*
X455580Y298711D01*
X455593Y298798D01*
X455611Y298883D01*
X455632Y298968D01*
X455657Y299052D01*
X455686Y299134D01*
X455719Y299215D01*
X455755Y299295D01*
X455794Y299373D01*
X455838Y299449D01*
X455884Y299523D01*
X455934Y299594D01*
X455987Y299664D01*
X456043Y299731D01*
X456102Y299795D01*
X456164Y299857D01*
X456228Y299916D01*
X456295Y299972D01*
X456365Y300025D01*
X456436Y300075D01*
X456510Y300121D01*
X456586Y300165D01*
X456664Y300204D01*
X456744Y300240D01*
X456825Y300273D01*
X456907Y300302D01*
X456991Y300327D01*
X457076Y300348D01*
X457161Y300366D01*
X457248Y300379D01*
X457334Y300389D01*
X457422Y300395D01*
X457509Y300397D01*
X460106Y300397D01*
X463931Y291310D02*
X469124Y305590D01*
X474119Y299099D02*
X477364Y299099D01*
X477364Y299100D02*
X477477Y299098D01*
X477590Y299092D01*
X477703Y299082D01*
X477816Y299068D01*
X477928Y299051D01*
X478039Y299029D01*
X478149Y299004D01*
X478259Y298974D01*
X478367Y298941D01*
X478474Y298904D01*
X478580Y298864D01*
X478684Y298819D01*
X478787Y298771D01*
X478888Y298720D01*
X478987Y298665D01*
X479084Y298607D01*
X479179Y298545D01*
X479272Y298480D01*
X479362Y298412D01*
X479450Y298341D01*
X479536Y298266D01*
X479619Y298189D01*
X479699Y298109D01*
X479776Y298026D01*
X479851Y297940D01*
X479922Y297852D01*
X479990Y297762D01*
X480055Y297669D01*
X480117Y297574D01*
X480175Y297477D01*
X480230Y297378D01*
X480281Y297277D01*
X480329Y297174D01*
X480374Y297070D01*
X480414Y296964D01*
X480451Y296857D01*
X480484Y296749D01*
X480514Y296639D01*
X480539Y296529D01*
X480561Y296418D01*
X480578Y296306D01*
X480592Y296193D01*
X480602Y296080D01*
X480608Y295967D01*
X480610Y295854D01*
X480608Y295741D01*
X480602Y295628D01*
X480592Y295515D01*
X480578Y295402D01*
X480561Y295290D01*
X480539Y295179D01*
X480514Y295069D01*
X480484Y294959D01*
X480451Y294851D01*
X480414Y294744D01*
X480374Y294638D01*
X480329Y294534D01*
X480281Y294431D01*
X480230Y294330D01*
X480175Y294231D01*
X480117Y294134D01*
X480055Y294039D01*
X479990Y293946D01*
X479922Y293856D01*
X479851Y293768D01*
X479776Y293682D01*
X479699Y293599D01*
X479619Y293519D01*
X479536Y293442D01*
X479450Y293367D01*
X479362Y293296D01*
X479272Y293228D01*
X479179Y293163D01*
X479084Y293101D01*
X478987Y293043D01*
X478888Y292988D01*
X478787Y292937D01*
X478684Y292889D01*
X478580Y292844D01*
X478474Y292804D01*
X478367Y292767D01*
X478259Y292734D01*
X478149Y292704D01*
X478039Y292679D01*
X477928Y292657D01*
X477816Y292640D01*
X477703Y292626D01*
X477590Y292616D01*
X477477Y292610D01*
X477364Y292608D01*
X474119Y292608D01*
X474119Y304292D01*
X477364Y304292D01*
X477465Y304290D01*
X477565Y304284D01*
X477665Y304274D01*
X477765Y304261D01*
X477864Y304243D01*
X477963Y304222D01*
X478060Y304197D01*
X478157Y304168D01*
X478252Y304135D01*
X478346Y304099D01*
X478438Y304059D01*
X478529Y304016D01*
X478618Y303969D01*
X478705Y303919D01*
X478791Y303865D01*
X478874Y303808D01*
X478954Y303748D01*
X479033Y303685D01*
X479109Y303618D01*
X479182Y303549D01*
X479252Y303477D01*
X479320Y303403D01*
X479385Y303326D01*
X479446Y303246D01*
X479505Y303164D01*
X479560Y303080D01*
X479612Y302994D01*
X479661Y302906D01*
X479706Y302816D01*
X479748Y302724D01*
X479786Y302631D01*
X479820Y302536D01*
X479851Y302441D01*
X479878Y302344D01*
X479901Y302246D01*
X479921Y302147D01*
X479936Y302047D01*
X479948Y301947D01*
X479956Y301847D01*
X479960Y301746D01*
X479960Y301646D01*
X479956Y301545D01*
X479948Y301445D01*
X479936Y301345D01*
X479921Y301245D01*
X479901Y301146D01*
X479878Y301048D01*
X479851Y300951D01*
X479820Y300856D01*
X479786Y300761D01*
X479748Y300668D01*
X479706Y300576D01*
X479661Y300486D01*
X479612Y300398D01*
X479560Y300312D01*
X479505Y300228D01*
X479446Y300146D01*
X479385Y300066D01*
X479320Y299989D01*
X479252Y299915D01*
X479182Y299843D01*
X479109Y299774D01*
X479033Y299707D01*
X478954Y299644D01*
X478874Y299584D01*
X478791Y299527D01*
X478705Y299473D01*
X478618Y299423D01*
X478529Y299376D01*
X478438Y299333D01*
X478346Y299293D01*
X478252Y299257D01*
X478157Y299224D01*
X478060Y299195D01*
X477963Y299170D01*
X477864Y299149D01*
X477765Y299131D01*
X477665Y299118D01*
X477565Y299108D01*
X477465Y299102D01*
X477364Y299100D01*
X485549Y304292D02*
X485549Y292608D01*
X485549Y297152D02*
X492040Y304292D01*
X488145Y299748D02*
X492040Y292608D01*
X496810Y292608D02*
X496810Y304292D01*
X496810Y299099D02*
X503301Y299099D01*
X503301Y304292D02*
X503301Y292608D01*
X508508Y295204D02*
X508508Y297801D01*
X508510Y297902D01*
X508516Y298002D01*
X508526Y298102D01*
X508539Y298202D01*
X508557Y298301D01*
X508578Y298400D01*
X508603Y298497D01*
X508632Y298594D01*
X508665Y298689D01*
X508701Y298783D01*
X508741Y298875D01*
X508784Y298966D01*
X508831Y299055D01*
X508881Y299142D01*
X508935Y299228D01*
X508992Y299311D01*
X509052Y299391D01*
X509115Y299470D01*
X509182Y299546D01*
X509251Y299619D01*
X509323Y299689D01*
X509397Y299757D01*
X509474Y299822D01*
X509554Y299883D01*
X509636Y299942D01*
X509720Y299997D01*
X509806Y300049D01*
X509894Y300098D01*
X509984Y300143D01*
X510076Y300185D01*
X510169Y300223D01*
X510264Y300257D01*
X510359Y300288D01*
X510456Y300315D01*
X510554Y300338D01*
X510653Y300358D01*
X510753Y300373D01*
X510853Y300385D01*
X510953Y300393D01*
X511054Y300397D01*
X511154Y300397D01*
X511255Y300393D01*
X511355Y300385D01*
X511455Y300373D01*
X511555Y300358D01*
X511654Y300338D01*
X511752Y300315D01*
X511849Y300288D01*
X511944Y300257D01*
X512039Y300223D01*
X512132Y300185D01*
X512224Y300143D01*
X512314Y300098D01*
X512402Y300049D01*
X512488Y299997D01*
X512572Y299942D01*
X512654Y299883D01*
X512734Y299822D01*
X512811Y299757D01*
X512885Y299689D01*
X512957Y299619D01*
X513026Y299546D01*
X513093Y299470D01*
X513156Y299391D01*
X513216Y299311D01*
X513273Y299228D01*
X513327Y299142D01*
X513377Y299055D01*
X513424Y298966D01*
X513467Y298875D01*
X513507Y298783D01*
X513543Y298689D01*
X513576Y298594D01*
X513605Y298497D01*
X513630Y298400D01*
X513651Y298301D01*
X513669Y298202D01*
X513682Y298102D01*
X513692Y298002D01*
X513698Y297902D01*
X513700Y297801D01*
X513700Y295204D01*
X513698Y295103D01*
X513692Y295003D01*
X513682Y294903D01*
X513669Y294803D01*
X513651Y294704D01*
X513630Y294605D01*
X513605Y294508D01*
X513576Y294411D01*
X513543Y294316D01*
X513507Y294222D01*
X513467Y294130D01*
X513424Y294039D01*
X513377Y293950D01*
X513327Y293863D01*
X513273Y293777D01*
X513216Y293694D01*
X513156Y293614D01*
X513093Y293535D01*
X513026Y293459D01*
X512957Y293386D01*
X512885Y293316D01*
X512811Y293248D01*
X512734Y293183D01*
X512654Y293122D01*
X512572Y293063D01*
X512488Y293008D01*
X512402Y292956D01*
X512314Y292907D01*
X512224Y292862D01*
X512132Y292820D01*
X512039Y292782D01*
X511944Y292748D01*
X511849Y292717D01*
X511752Y292690D01*
X511654Y292667D01*
X511555Y292647D01*
X511455Y292632D01*
X511355Y292620D01*
X511255Y292612D01*
X511154Y292608D01*
X511054Y292608D01*
X510953Y292612D01*
X510853Y292620D01*
X510753Y292632D01*
X510653Y292647D01*
X510554Y292667D01*
X510456Y292690D01*
X510359Y292717D01*
X510264Y292748D01*
X510169Y292782D01*
X510076Y292820D01*
X509984Y292862D01*
X509894Y292907D01*
X509806Y292956D01*
X509720Y293008D01*
X509636Y293063D01*
X509554Y293122D01*
X509474Y293183D01*
X509397Y293248D01*
X509323Y293316D01*
X509251Y293386D01*
X509182Y293459D01*
X509115Y293535D01*
X509052Y293614D01*
X508992Y293694D01*
X508935Y293777D01*
X508881Y293863D01*
X508831Y293950D01*
X508784Y294039D01*
X508741Y294130D01*
X508701Y294222D01*
X508665Y294316D01*
X508632Y294411D01*
X508603Y294508D01*
X508578Y294605D01*
X508557Y294704D01*
X508539Y294803D01*
X508526Y294903D01*
X508516Y295003D01*
X508510Y295103D01*
X508508Y295204D01*
X518853Y292608D02*
X518853Y304292D01*
X518853Y292608D02*
X522099Y292608D01*
X522186Y292610D01*
X522274Y292616D01*
X522360Y292626D01*
X522447Y292639D01*
X522532Y292657D01*
X522617Y292678D01*
X522701Y292703D01*
X522783Y292732D01*
X522864Y292765D01*
X522944Y292801D01*
X523022Y292840D01*
X523098Y292884D01*
X523172Y292930D01*
X523243Y292980D01*
X523313Y293033D01*
X523380Y293089D01*
X523444Y293148D01*
X523506Y293209D01*
X523565Y293274D01*
X523621Y293341D01*
X523674Y293411D01*
X523724Y293482D01*
X523770Y293556D01*
X523814Y293632D01*
X523853Y293710D01*
X523889Y293790D01*
X523922Y293871D01*
X523951Y293953D01*
X523976Y294037D01*
X523997Y294122D01*
X524015Y294207D01*
X524028Y294294D01*
X524038Y294380D01*
X524044Y294468D01*
X524046Y294555D01*
X524046Y298450D01*
X524044Y298537D01*
X524038Y298625D01*
X524028Y298711D01*
X524015Y298798D01*
X523997Y298883D01*
X523976Y298968D01*
X523951Y299052D01*
X523922Y299134D01*
X523889Y299215D01*
X523853Y299295D01*
X523814Y299373D01*
X523770Y299449D01*
X523724Y299523D01*
X523674Y299594D01*
X523621Y299664D01*
X523565Y299731D01*
X523506Y299795D01*
X523444Y299857D01*
X523380Y299916D01*
X523313Y299972D01*
X523243Y300025D01*
X523172Y300075D01*
X523098Y300121D01*
X523022Y300165D01*
X522944Y300204D01*
X522864Y300240D01*
X522783Y300273D01*
X522701Y300302D01*
X522617Y300327D01*
X522532Y300348D01*
X522447Y300366D01*
X522360Y300379D01*
X522274Y300389D01*
X522186Y300395D01*
X522099Y300397D01*
X518853Y300397D01*
X529140Y304292D02*
X529140Y292608D01*
X532386Y292608D01*
X532473Y292610D01*
X532561Y292616D01*
X532647Y292626D01*
X532734Y292639D01*
X532819Y292657D01*
X532904Y292678D01*
X532988Y292703D01*
X533070Y292732D01*
X533151Y292765D01*
X533231Y292801D01*
X533309Y292840D01*
X533385Y292884D01*
X533459Y292930D01*
X533530Y292980D01*
X533600Y293033D01*
X533667Y293089D01*
X533731Y293148D01*
X533793Y293209D01*
X533852Y293274D01*
X533908Y293341D01*
X533961Y293411D01*
X534011Y293482D01*
X534057Y293556D01*
X534101Y293632D01*
X534140Y293710D01*
X534176Y293790D01*
X534209Y293871D01*
X534238Y293953D01*
X534263Y294037D01*
X534284Y294122D01*
X534302Y294207D01*
X534315Y294294D01*
X534325Y294380D01*
X534331Y294468D01*
X534333Y294555D01*
X534333Y298450D01*
X534331Y298537D01*
X534325Y298625D01*
X534315Y298711D01*
X534302Y298798D01*
X534284Y298883D01*
X534263Y298968D01*
X534238Y299052D01*
X534209Y299134D01*
X534176Y299215D01*
X534140Y299295D01*
X534101Y299373D01*
X534057Y299449D01*
X534011Y299523D01*
X533961Y299594D01*
X533908Y299664D01*
X533852Y299731D01*
X533793Y299795D01*
X533731Y299857D01*
X533667Y299916D01*
X533600Y299972D01*
X533530Y300025D01*
X533459Y300075D01*
X533385Y300121D01*
X533309Y300165D01*
X533231Y300204D01*
X533151Y300240D01*
X533070Y300273D01*
X532988Y300302D01*
X532904Y300327D01*
X532819Y300348D01*
X532734Y300366D01*
X532647Y300379D01*
X532561Y300389D01*
X532473Y300395D01*
X532386Y300397D01*
X529140Y300397D01*
X538607Y288713D02*
X539905Y288713D01*
X543799Y300397D01*
X538607Y300397D02*
X541203Y292608D01*
D10*
X190500Y596900D02*
X190500Y622300D01*
X190500Y596900D02*
X213360Y596900D01*
X215900Y599440D01*
X218440Y596900D01*
X238760Y596900D01*
X241300Y599440D01*
X243840Y596900D01*
X264160Y596900D01*
X266700Y599440D01*
X269240Y596900D01*
X289560Y596900D01*
X292100Y599440D01*
X294640Y596900D01*
X314960Y596900D01*
X320040Y596900D02*
X342900Y596900D01*
X342900Y622300D01*
X320040Y622300D01*
X314960Y622300D02*
X294640Y622300D01*
X292100Y619760D01*
X289560Y622300D01*
X269240Y622300D01*
X266700Y619760D01*
X264160Y622300D01*
X243840Y622300D01*
X241300Y619760D01*
X238760Y622300D01*
X218440Y622300D01*
X215900Y619760D01*
X213360Y622300D01*
X190500Y622300D01*
X317500Y619760D02*
X320040Y622300D01*
X317500Y619760D02*
X314960Y622300D01*
X317500Y599440D02*
X320040Y596900D01*
X317500Y599440D02*
X314960Y596900D01*
D13*
X201930Y636905D02*
X198755Y634365D01*
X201930Y636905D02*
X201930Y625475D01*
X198755Y625475D02*
X205105Y625475D01*
X325755Y631825D02*
X329565Y631825D01*
X329665Y631823D01*
X329764Y631817D01*
X329864Y631807D01*
X329962Y631794D01*
X330061Y631776D01*
X330158Y631755D01*
X330254Y631730D01*
X330350Y631701D01*
X330444Y631668D01*
X330537Y631632D01*
X330628Y631592D01*
X330718Y631548D01*
X330806Y631501D01*
X330892Y631451D01*
X330976Y631397D01*
X331058Y631340D01*
X331137Y631280D01*
X331215Y631216D01*
X331289Y631150D01*
X331361Y631081D01*
X331430Y631009D01*
X331496Y630935D01*
X331560Y630857D01*
X331620Y630778D01*
X331677Y630696D01*
X331731Y630612D01*
X331781Y630526D01*
X331828Y630438D01*
X331872Y630348D01*
X331912Y630257D01*
X331948Y630164D01*
X331981Y630070D01*
X332010Y629974D01*
X332035Y629878D01*
X332056Y629781D01*
X332074Y629682D01*
X332087Y629584D01*
X332097Y629484D01*
X332103Y629385D01*
X332105Y629285D01*
X332105Y628650D01*
X332103Y628539D01*
X332097Y628429D01*
X332088Y628318D01*
X332074Y628208D01*
X332057Y628099D01*
X332036Y627990D01*
X332011Y627882D01*
X331982Y627775D01*
X331950Y627669D01*
X331914Y627564D01*
X331874Y627461D01*
X331831Y627359D01*
X331784Y627258D01*
X331733Y627159D01*
X331680Y627063D01*
X331623Y626968D01*
X331562Y626875D01*
X331499Y626784D01*
X331432Y626695D01*
X331362Y626609D01*
X331289Y626526D01*
X331214Y626444D01*
X331136Y626366D01*
X331054Y626291D01*
X330971Y626218D01*
X330885Y626148D01*
X330796Y626081D01*
X330705Y626018D01*
X330612Y625957D01*
X330517Y625900D01*
X330421Y625847D01*
X330322Y625796D01*
X330221Y625749D01*
X330119Y625706D01*
X330016Y625666D01*
X329911Y625630D01*
X329805Y625598D01*
X329698Y625569D01*
X329590Y625544D01*
X329481Y625523D01*
X329372Y625506D01*
X329262Y625492D01*
X329151Y625483D01*
X329041Y625477D01*
X328930Y625475D01*
X328819Y625477D01*
X328709Y625483D01*
X328598Y625492D01*
X328488Y625506D01*
X328379Y625523D01*
X328270Y625544D01*
X328162Y625569D01*
X328055Y625598D01*
X327949Y625630D01*
X327844Y625666D01*
X327741Y625706D01*
X327639Y625749D01*
X327538Y625796D01*
X327439Y625847D01*
X327343Y625900D01*
X327248Y625957D01*
X327155Y626018D01*
X327064Y626081D01*
X326975Y626148D01*
X326889Y626218D01*
X326806Y626291D01*
X326724Y626366D01*
X326646Y626444D01*
X326571Y626526D01*
X326498Y626609D01*
X326428Y626695D01*
X326361Y626784D01*
X326298Y626875D01*
X326237Y626968D01*
X326180Y627063D01*
X326127Y627159D01*
X326076Y627258D01*
X326029Y627359D01*
X325986Y627461D01*
X325946Y627564D01*
X325910Y627669D01*
X325878Y627775D01*
X325849Y627882D01*
X325824Y627990D01*
X325803Y628099D01*
X325786Y628208D01*
X325772Y628318D01*
X325763Y628429D01*
X325757Y628539D01*
X325755Y628650D01*
X325755Y631825D01*
X325757Y631965D01*
X325763Y632105D01*
X325772Y632245D01*
X325786Y632384D01*
X325803Y632523D01*
X325824Y632661D01*
X325849Y632799D01*
X325878Y632936D01*
X325910Y633072D01*
X325947Y633207D01*
X325987Y633341D01*
X326030Y633474D01*
X326078Y633606D01*
X326128Y633737D01*
X326183Y633866D01*
X326241Y633993D01*
X326302Y634119D01*
X326367Y634243D01*
X326436Y634365D01*
X326507Y634485D01*
X326582Y634603D01*
X326660Y634720D01*
X326742Y634834D01*
X326826Y634945D01*
X326914Y635054D01*
X327004Y635161D01*
X327098Y635266D01*
X327194Y635367D01*
X327293Y635466D01*
X327394Y635562D01*
X327499Y635656D01*
X327606Y635746D01*
X327715Y635834D01*
X327826Y635918D01*
X327940Y636000D01*
X328057Y636078D01*
X328175Y636153D01*
X328295Y636224D01*
X328417Y636293D01*
X328541Y636358D01*
X328667Y636419D01*
X328794Y636477D01*
X328923Y636532D01*
X329054Y636582D01*
X329186Y636630D01*
X329319Y636673D01*
X329453Y636713D01*
X329588Y636750D01*
X329724Y636782D01*
X329861Y636811D01*
X329999Y636836D01*
X330137Y636857D01*
X330276Y636874D01*
X330415Y636888D01*
X330555Y636897D01*
X330695Y636903D01*
X330835Y636905D01*
X357505Y625475D02*
X357505Y614045D01*
X356235Y614045D02*
X358775Y614045D01*
X358775Y625475D02*
X356235Y625475D01*
X366967Y625476D02*
X367071Y625474D01*
X367176Y625468D01*
X367280Y625459D01*
X367383Y625446D01*
X367486Y625428D01*
X367588Y625408D01*
X367690Y625383D01*
X367790Y625355D01*
X367890Y625323D01*
X367988Y625287D01*
X368085Y625248D01*
X368180Y625206D01*
X368274Y625160D01*
X368366Y625110D01*
X368456Y625058D01*
X368544Y625002D01*
X368630Y624942D01*
X368714Y624880D01*
X368795Y624815D01*
X368874Y624747D01*
X368951Y624675D01*
X369024Y624602D01*
X369096Y624525D01*
X369164Y624446D01*
X369229Y624365D01*
X369291Y624281D01*
X369351Y624195D01*
X369407Y624107D01*
X369459Y624017D01*
X369509Y623925D01*
X369555Y623831D01*
X369597Y623736D01*
X369636Y623639D01*
X369672Y623541D01*
X369704Y623441D01*
X369732Y623341D01*
X369757Y623239D01*
X369777Y623137D01*
X369795Y623034D01*
X369808Y622931D01*
X369817Y622827D01*
X369823Y622722D01*
X369825Y622618D01*
X366967Y625475D02*
X366849Y625473D01*
X366730Y625467D01*
X366612Y625458D01*
X366495Y625445D01*
X366378Y625427D01*
X366261Y625407D01*
X366145Y625382D01*
X366030Y625354D01*
X365917Y625321D01*
X365804Y625286D01*
X365692Y625246D01*
X365582Y625204D01*
X365473Y625157D01*
X365365Y625107D01*
X365260Y625054D01*
X365156Y624997D01*
X365054Y624937D01*
X364954Y624874D01*
X364856Y624807D01*
X364760Y624738D01*
X364667Y624665D01*
X364576Y624589D01*
X364487Y624511D01*
X364401Y624429D01*
X364318Y624345D01*
X364237Y624259D01*
X364160Y624169D01*
X364085Y624078D01*
X364013Y623984D01*
X363944Y623887D01*
X363879Y623789D01*
X363816Y623688D01*
X363757Y623585D01*
X363701Y623481D01*
X363649Y623375D01*
X363600Y623267D01*
X363555Y623158D01*
X363513Y623047D01*
X363475Y622935D01*
X368872Y620396D02*
X368948Y620471D01*
X369023Y620550D01*
X369094Y620631D01*
X369163Y620715D01*
X369228Y620801D01*
X369290Y620889D01*
X369350Y620979D01*
X369406Y621071D01*
X369459Y621166D01*
X369508Y621262D01*
X369554Y621360D01*
X369597Y621459D01*
X369636Y621560D01*
X369671Y621662D01*
X369703Y621765D01*
X369731Y621869D01*
X369756Y621974D01*
X369777Y622081D01*
X369794Y622187D01*
X369807Y622294D01*
X369816Y622402D01*
X369822Y622510D01*
X369824Y622618D01*
X368872Y620395D02*
X363474Y614045D01*
X369824Y614045D01*
X377407Y614045D02*
X379947Y614045D01*
X377407Y614045D02*
X377307Y614047D01*
X377208Y614053D01*
X377108Y614063D01*
X377010Y614076D01*
X376911Y614094D01*
X376814Y614115D01*
X376718Y614140D01*
X376622Y614169D01*
X376528Y614202D01*
X376435Y614238D01*
X376344Y614278D01*
X376254Y614322D01*
X376166Y614369D01*
X376080Y614419D01*
X375996Y614473D01*
X375914Y614530D01*
X375835Y614590D01*
X375757Y614654D01*
X375683Y614720D01*
X375611Y614789D01*
X375542Y614861D01*
X375476Y614935D01*
X375412Y615013D01*
X375352Y615092D01*
X375295Y615174D01*
X375241Y615258D01*
X375191Y615344D01*
X375144Y615432D01*
X375100Y615522D01*
X375060Y615613D01*
X375024Y615706D01*
X374991Y615800D01*
X374962Y615896D01*
X374937Y615992D01*
X374916Y616089D01*
X374898Y616188D01*
X374885Y616286D01*
X374875Y616386D01*
X374869Y616485D01*
X374867Y616585D01*
X374867Y622935D01*
X374869Y623035D01*
X374875Y623134D01*
X374885Y623234D01*
X374898Y623332D01*
X374916Y623431D01*
X374937Y623528D01*
X374962Y623624D01*
X374991Y623720D01*
X375024Y623814D01*
X375060Y623907D01*
X375100Y623998D01*
X375144Y624088D01*
X375191Y624176D01*
X375241Y624262D01*
X375295Y624346D01*
X375352Y624428D01*
X375412Y624507D01*
X375476Y624585D01*
X375542Y624659D01*
X375611Y624731D01*
X375683Y624800D01*
X375757Y624866D01*
X375835Y624930D01*
X375914Y624990D01*
X375996Y625047D01*
X376080Y625101D01*
X376166Y625151D01*
X376254Y625198D01*
X376344Y625242D01*
X376435Y625282D01*
X376528Y625318D01*
X376622Y625351D01*
X376718Y625380D01*
X376814Y625405D01*
X376911Y625426D01*
X377010Y625444D01*
X377108Y625457D01*
X377208Y625467D01*
X377307Y625473D01*
X377407Y625475D01*
X379947Y625475D01*
X389001Y626745D02*
X383921Y612775D01*
X393979Y614045D02*
X393979Y625475D01*
X393979Y614045D02*
X399059Y614045D01*
X403885Y614045D02*
X408965Y614045D01*
X403885Y614045D02*
X403885Y625475D01*
X408965Y625475D01*
X407695Y620395D02*
X403885Y620395D01*
X413766Y625475D02*
X413766Y614045D01*
X413766Y625475D02*
X416941Y625475D01*
X417052Y625473D01*
X417162Y625467D01*
X417273Y625458D01*
X417383Y625444D01*
X417492Y625427D01*
X417601Y625406D01*
X417709Y625381D01*
X417816Y625352D01*
X417922Y625320D01*
X418027Y625284D01*
X418130Y625244D01*
X418232Y625201D01*
X418333Y625154D01*
X418432Y625103D01*
X418529Y625050D01*
X418623Y624993D01*
X418716Y624932D01*
X418807Y624869D01*
X418896Y624802D01*
X418982Y624732D01*
X419065Y624659D01*
X419147Y624584D01*
X419225Y624506D01*
X419300Y624424D01*
X419373Y624341D01*
X419443Y624255D01*
X419510Y624166D01*
X419573Y624075D01*
X419634Y623982D01*
X419691Y623888D01*
X419744Y623791D01*
X419795Y623692D01*
X419842Y623591D01*
X419885Y623489D01*
X419925Y623386D01*
X419961Y623281D01*
X419993Y623175D01*
X420022Y623068D01*
X420047Y622960D01*
X420068Y622851D01*
X420085Y622742D01*
X420099Y622632D01*
X420108Y622521D01*
X420114Y622411D01*
X420116Y622300D01*
X420116Y617220D01*
X420114Y617109D01*
X420108Y616999D01*
X420099Y616888D01*
X420085Y616778D01*
X420068Y616669D01*
X420047Y616560D01*
X420022Y616452D01*
X419993Y616345D01*
X419961Y616239D01*
X419925Y616134D01*
X419885Y616031D01*
X419842Y615929D01*
X419795Y615828D01*
X419744Y615729D01*
X419691Y615633D01*
X419634Y615538D01*
X419573Y615445D01*
X419510Y615354D01*
X419443Y615265D01*
X419373Y615179D01*
X419300Y615096D01*
X419225Y615014D01*
X419147Y614936D01*
X419065Y614861D01*
X418982Y614788D01*
X418896Y614718D01*
X418807Y614651D01*
X418716Y614588D01*
X418623Y614527D01*
X418529Y614470D01*
X418432Y614417D01*
X418333Y614366D01*
X418232Y614319D01*
X418130Y614276D01*
X418027Y614236D01*
X417922Y614200D01*
X417816Y614168D01*
X417709Y614139D01*
X417601Y614114D01*
X417492Y614093D01*
X417383Y614076D01*
X417273Y614062D01*
X417162Y614053D01*
X417052Y614047D01*
X416941Y614045D01*
X413766Y614045D01*
X518160Y584200D02*
X243840Y584200D01*
X518160Y584200D02*
X518160Y304800D01*
X457200Y304800D01*
X304800Y304800D01*
X243840Y304800D01*
X243840Y584200D01*
X330200Y577850D02*
X336550Y584200D01*
X349250Y584200D02*
X355600Y577850D01*
X361950Y584200D01*
X374650Y584200D02*
X381000Y577850D01*
X387350Y584200D01*
X400050Y584200D02*
X406400Y577850D01*
X412750Y584200D01*
X425450Y584200D02*
X431800Y577850D01*
X431800Y565150D02*
X425450Y558800D01*
X412750Y558800D01*
X406400Y565150D01*
X400050Y558800D01*
X387350Y558800D01*
X381000Y565150D01*
X374650Y558800D01*
X361950Y558800D01*
X355600Y565150D01*
X349250Y558800D01*
X336550Y558800D01*
X330200Y565150D01*
X330200Y577850D01*
X266700Y525780D02*
X495300Y525780D01*
X495300Y388620D01*
X266700Y388620D01*
X266700Y525780D01*
X431800Y565150D02*
X431800Y577850D01*
D12*
X335757Y549162D02*
X334191Y549162D01*
X335757Y549162D02*
X335757Y543941D01*
X332624Y543941D01*
X332535Y543943D01*
X332447Y543949D01*
X332359Y543958D01*
X332271Y543971D01*
X332184Y543988D01*
X332098Y544008D01*
X332013Y544033D01*
X331928Y544060D01*
X331845Y544092D01*
X331764Y544126D01*
X331684Y544165D01*
X331606Y544206D01*
X331529Y544251D01*
X331455Y544299D01*
X331382Y544350D01*
X331312Y544404D01*
X331245Y544462D01*
X331179Y544522D01*
X331117Y544584D01*
X331057Y544650D01*
X330999Y544717D01*
X330945Y544787D01*
X330894Y544860D01*
X330846Y544934D01*
X330801Y545011D01*
X330760Y545089D01*
X330721Y545169D01*
X330687Y545250D01*
X330655Y545333D01*
X330628Y545418D01*
X330603Y545503D01*
X330583Y545589D01*
X330566Y545676D01*
X330553Y545764D01*
X330544Y545852D01*
X330538Y545940D01*
X330536Y546029D01*
X330536Y551251D01*
X330538Y551342D01*
X330544Y551433D01*
X330554Y551524D01*
X330568Y551614D01*
X330585Y551703D01*
X330607Y551791D01*
X330633Y551879D01*
X330662Y551965D01*
X330695Y552050D01*
X330732Y552133D01*
X330772Y552215D01*
X330816Y552295D01*
X330863Y552373D01*
X330914Y552449D01*
X330967Y552522D01*
X331024Y552593D01*
X331085Y552662D01*
X331148Y552727D01*
X331213Y552790D01*
X331282Y552850D01*
X331353Y552908D01*
X331426Y552961D01*
X331502Y553012D01*
X331580Y553059D01*
X331660Y553103D01*
X331742Y553143D01*
X331825Y553180D01*
X331910Y553213D01*
X331996Y553242D01*
X332084Y553268D01*
X332172Y553290D01*
X332261Y553307D01*
X332351Y553321D01*
X332442Y553331D01*
X332533Y553337D01*
X332624Y553339D01*
X335757Y553339D01*
X340289Y553339D02*
X340289Y543941D01*
X345511Y543941D02*
X340289Y553339D01*
X345511Y553339D02*
X345511Y543941D01*
X350043Y543941D02*
X350043Y553339D01*
X352654Y553339D01*
X352754Y553337D01*
X352854Y553331D01*
X352953Y553322D01*
X353053Y553308D01*
X353151Y553291D01*
X353249Y553270D01*
X353346Y553246D01*
X353442Y553217D01*
X353537Y553185D01*
X353630Y553150D01*
X353722Y553111D01*
X353813Y553068D01*
X353901Y553022D01*
X353988Y552972D01*
X354073Y552920D01*
X354156Y552864D01*
X354237Y552805D01*
X354315Y552742D01*
X354391Y552677D01*
X354465Y552609D01*
X354535Y552539D01*
X354603Y552465D01*
X354668Y552389D01*
X354731Y552311D01*
X354790Y552230D01*
X354846Y552147D01*
X354898Y552062D01*
X354948Y551975D01*
X354994Y551887D01*
X355037Y551796D01*
X355076Y551704D01*
X355111Y551611D01*
X355143Y551516D01*
X355172Y551420D01*
X355196Y551323D01*
X355217Y551225D01*
X355234Y551127D01*
X355248Y551027D01*
X355257Y550928D01*
X355263Y550828D01*
X355265Y550728D01*
X355264Y550728D02*
X355264Y546552D01*
X355265Y546552D02*
X355263Y546452D01*
X355257Y546352D01*
X355248Y546253D01*
X355234Y546153D01*
X355217Y546055D01*
X355196Y545957D01*
X355172Y545860D01*
X355143Y545764D01*
X355111Y545669D01*
X355076Y545576D01*
X355037Y545484D01*
X354994Y545393D01*
X354948Y545305D01*
X354898Y545218D01*
X354846Y545133D01*
X354790Y545050D01*
X354731Y544969D01*
X354668Y544891D01*
X354603Y544815D01*
X354535Y544741D01*
X354465Y544671D01*
X354391Y544603D01*
X354315Y544538D01*
X354237Y544475D01*
X354156Y544416D01*
X354073Y544360D01*
X353988Y544308D01*
X353901Y544258D01*
X353813Y544212D01*
X353722Y544169D01*
X353630Y544130D01*
X353537Y544095D01*
X353442Y544063D01*
X353346Y544034D01*
X353249Y544010D01*
X353151Y543989D01*
X353053Y543972D01*
X352953Y543958D01*
X352854Y543949D01*
X352754Y543943D01*
X352654Y543941D01*
X350043Y543941D01*
X357581Y540639D02*
X360714Y531241D01*
X363847Y540639D01*
X369310Y531241D02*
X371399Y531241D01*
X369310Y531241D02*
X369221Y531243D01*
X369133Y531249D01*
X369045Y531258D01*
X368957Y531271D01*
X368870Y531288D01*
X368784Y531308D01*
X368699Y531333D01*
X368614Y531360D01*
X368531Y531392D01*
X368450Y531426D01*
X368370Y531465D01*
X368292Y531506D01*
X368215Y531551D01*
X368141Y531599D01*
X368068Y531650D01*
X367998Y531704D01*
X367931Y531762D01*
X367865Y531822D01*
X367803Y531884D01*
X367743Y531950D01*
X367685Y532017D01*
X367631Y532087D01*
X367580Y532160D01*
X367532Y532234D01*
X367487Y532311D01*
X367446Y532389D01*
X367407Y532469D01*
X367373Y532550D01*
X367341Y532633D01*
X367314Y532718D01*
X367289Y532803D01*
X367269Y532889D01*
X367252Y532976D01*
X367239Y533064D01*
X367230Y533152D01*
X367224Y533240D01*
X367222Y533329D01*
X367222Y538551D01*
X367224Y538642D01*
X367230Y538733D01*
X367240Y538824D01*
X367254Y538914D01*
X367271Y539003D01*
X367293Y539091D01*
X367319Y539179D01*
X367348Y539265D01*
X367381Y539350D01*
X367418Y539433D01*
X367458Y539515D01*
X367502Y539595D01*
X367549Y539673D01*
X367600Y539749D01*
X367653Y539822D01*
X367710Y539893D01*
X367771Y539962D01*
X367834Y540027D01*
X367899Y540090D01*
X367968Y540150D01*
X368039Y540208D01*
X368112Y540261D01*
X368188Y540312D01*
X368266Y540359D01*
X368346Y540403D01*
X368428Y540443D01*
X368511Y540480D01*
X368596Y540513D01*
X368682Y540542D01*
X368770Y540568D01*
X368858Y540590D01*
X368947Y540607D01*
X369037Y540621D01*
X369128Y540631D01*
X369219Y540637D01*
X369310Y540639D01*
X371399Y540639D01*
X376930Y531241D02*
X379019Y531241D01*
X376930Y531241D02*
X376841Y531243D01*
X376753Y531249D01*
X376665Y531258D01*
X376577Y531271D01*
X376490Y531288D01*
X376404Y531308D01*
X376319Y531333D01*
X376234Y531360D01*
X376151Y531392D01*
X376070Y531426D01*
X375990Y531465D01*
X375912Y531506D01*
X375835Y531551D01*
X375761Y531599D01*
X375688Y531650D01*
X375618Y531704D01*
X375551Y531762D01*
X375485Y531822D01*
X375423Y531884D01*
X375363Y531950D01*
X375305Y532017D01*
X375251Y532087D01*
X375200Y532160D01*
X375152Y532234D01*
X375107Y532311D01*
X375066Y532389D01*
X375027Y532469D01*
X374993Y532550D01*
X374961Y532633D01*
X374934Y532718D01*
X374909Y532803D01*
X374889Y532889D01*
X374872Y532976D01*
X374859Y533064D01*
X374850Y533152D01*
X374844Y533240D01*
X374842Y533329D01*
X374842Y538551D01*
X374844Y538642D01*
X374850Y538733D01*
X374860Y538824D01*
X374874Y538914D01*
X374891Y539003D01*
X374913Y539091D01*
X374939Y539179D01*
X374968Y539265D01*
X375001Y539350D01*
X375038Y539433D01*
X375078Y539515D01*
X375122Y539595D01*
X375169Y539673D01*
X375220Y539749D01*
X375273Y539822D01*
X375330Y539893D01*
X375391Y539962D01*
X375454Y540027D01*
X375519Y540090D01*
X375588Y540150D01*
X375659Y540208D01*
X375732Y540261D01*
X375808Y540312D01*
X375886Y540359D01*
X375966Y540403D01*
X376048Y540443D01*
X376131Y540480D01*
X376216Y540513D01*
X376302Y540542D01*
X376390Y540568D01*
X376478Y540590D01*
X376567Y540607D01*
X376657Y540621D01*
X376748Y540631D01*
X376839Y540637D01*
X376930Y540639D01*
X379019Y540639D01*
X386354Y543941D02*
X386443Y543943D01*
X386531Y543949D01*
X386619Y543958D01*
X386707Y543971D01*
X386794Y543988D01*
X386880Y544008D01*
X386965Y544033D01*
X387050Y544060D01*
X387133Y544092D01*
X387214Y544126D01*
X387294Y544165D01*
X387372Y544206D01*
X387449Y544251D01*
X387523Y544299D01*
X387596Y544350D01*
X387666Y544404D01*
X387733Y544462D01*
X387799Y544522D01*
X387861Y544584D01*
X387921Y544650D01*
X387979Y544717D01*
X388033Y544787D01*
X388084Y544860D01*
X388132Y544934D01*
X388177Y545011D01*
X388218Y545089D01*
X388257Y545169D01*
X388291Y545250D01*
X388323Y545333D01*
X388350Y545418D01*
X388375Y545503D01*
X388395Y545589D01*
X388412Y545676D01*
X388425Y545764D01*
X388434Y545852D01*
X388440Y545940D01*
X388442Y546029D01*
X386354Y543941D02*
X386225Y543943D01*
X386096Y543949D01*
X385967Y543958D01*
X385839Y543971D01*
X385711Y543988D01*
X385584Y544009D01*
X385457Y544033D01*
X385331Y544061D01*
X385206Y544093D01*
X385082Y544128D01*
X384959Y544167D01*
X384837Y544210D01*
X384717Y544256D01*
X384598Y544306D01*
X384480Y544359D01*
X384364Y544415D01*
X384250Y544475D01*
X384137Y544538D01*
X384027Y544605D01*
X383918Y544674D01*
X383812Y544747D01*
X383707Y544823D01*
X383605Y544902D01*
X383506Y544984D01*
X383408Y545068D01*
X383313Y545156D01*
X383221Y545246D01*
X383482Y551251D02*
X383484Y551340D01*
X383490Y551428D01*
X383499Y551516D01*
X383512Y551604D01*
X383529Y551691D01*
X383549Y551777D01*
X383574Y551862D01*
X383601Y551947D01*
X383633Y552030D01*
X383667Y552111D01*
X383706Y552191D01*
X383747Y552269D01*
X383792Y552346D01*
X383840Y552420D01*
X383891Y552493D01*
X383945Y552563D01*
X384003Y552630D01*
X384063Y552696D01*
X384125Y552758D01*
X384191Y552818D01*
X384258Y552876D01*
X384328Y552930D01*
X384401Y552981D01*
X384475Y553029D01*
X384552Y553074D01*
X384630Y553115D01*
X384710Y553154D01*
X384791Y553188D01*
X384874Y553220D01*
X384959Y553247D01*
X385044Y553272D01*
X385130Y553292D01*
X385217Y553309D01*
X385305Y553322D01*
X385393Y553331D01*
X385481Y553337D01*
X385570Y553339D01*
X385690Y553337D01*
X385810Y553332D01*
X385930Y553322D01*
X386049Y553310D01*
X386168Y553293D01*
X386286Y553273D01*
X386404Y553249D01*
X386520Y553222D01*
X386636Y553191D01*
X386751Y553157D01*
X386865Y553119D01*
X386978Y553077D01*
X387089Y553032D01*
X387199Y552984D01*
X387307Y552933D01*
X387414Y552878D01*
X387519Y552820D01*
X387622Y552758D01*
X387723Y552694D01*
X387823Y552626D01*
X387920Y552556D01*
X384526Y549424D02*
X384448Y549472D01*
X384372Y549524D01*
X384299Y549578D01*
X384228Y549636D01*
X384159Y549697D01*
X384093Y549761D01*
X384030Y549828D01*
X383970Y549897D01*
X383913Y549969D01*
X383859Y550043D01*
X383809Y550120D01*
X383761Y550199D01*
X383718Y550279D01*
X383677Y550362D01*
X383641Y550446D01*
X383608Y550531D01*
X383579Y550618D01*
X383553Y550707D01*
X383531Y550796D01*
X383514Y550886D01*
X383500Y550976D01*
X383490Y551068D01*
X383484Y551159D01*
X383482Y551251D01*
X387398Y547856D02*
X387476Y547808D01*
X387552Y547756D01*
X387625Y547702D01*
X387696Y547644D01*
X387765Y547583D01*
X387831Y547519D01*
X387894Y547452D01*
X387954Y547383D01*
X388011Y547311D01*
X388065Y547237D01*
X388115Y547160D01*
X388163Y547081D01*
X388206Y547001D01*
X388247Y546918D01*
X388283Y546834D01*
X388316Y546749D01*
X388345Y546662D01*
X388371Y546573D01*
X388393Y546484D01*
X388410Y546394D01*
X388424Y546304D01*
X388434Y546212D01*
X388440Y546121D01*
X388442Y546029D01*
X387398Y547857D02*
X384526Y549423D01*
X394123Y543941D02*
X396211Y543941D01*
X394123Y543941D02*
X394034Y543943D01*
X393946Y543949D01*
X393858Y543958D01*
X393770Y543971D01*
X393683Y543988D01*
X393597Y544008D01*
X393512Y544033D01*
X393427Y544060D01*
X393344Y544092D01*
X393263Y544126D01*
X393183Y544165D01*
X393105Y544206D01*
X393028Y544251D01*
X392954Y544299D01*
X392881Y544350D01*
X392811Y544404D01*
X392744Y544462D01*
X392678Y544522D01*
X392616Y544584D01*
X392556Y544650D01*
X392498Y544717D01*
X392444Y544787D01*
X392393Y544860D01*
X392345Y544934D01*
X392300Y545011D01*
X392259Y545089D01*
X392220Y545169D01*
X392186Y545250D01*
X392154Y545333D01*
X392127Y545418D01*
X392102Y545503D01*
X392082Y545589D01*
X392065Y545676D01*
X392052Y545764D01*
X392043Y545852D01*
X392037Y545940D01*
X392035Y546029D01*
X392034Y546029D02*
X392034Y551251D01*
X392035Y551251D02*
X392037Y551342D01*
X392043Y551433D01*
X392053Y551524D01*
X392067Y551614D01*
X392084Y551703D01*
X392106Y551791D01*
X392132Y551879D01*
X392161Y551965D01*
X392194Y552050D01*
X392231Y552133D01*
X392271Y552215D01*
X392315Y552295D01*
X392362Y552373D01*
X392413Y552449D01*
X392466Y552522D01*
X392523Y552593D01*
X392584Y552662D01*
X392647Y552727D01*
X392712Y552790D01*
X392781Y552850D01*
X392852Y552908D01*
X392925Y552961D01*
X393001Y553012D01*
X393079Y553059D01*
X393159Y553103D01*
X393241Y553143D01*
X393324Y553180D01*
X393409Y553213D01*
X393495Y553242D01*
X393583Y553268D01*
X393671Y553290D01*
X393760Y553307D01*
X393850Y553321D01*
X393941Y553331D01*
X394032Y553337D01*
X394123Y553339D01*
X396211Y553339D01*
X400002Y553339D02*
X400002Y543941D01*
X404179Y543941D01*
X412153Y533329D02*
X412151Y533240D01*
X412145Y533152D01*
X412136Y533064D01*
X412123Y532976D01*
X412106Y532889D01*
X412086Y532803D01*
X412061Y532718D01*
X412034Y532633D01*
X412002Y532550D01*
X411968Y532469D01*
X411929Y532389D01*
X411888Y532311D01*
X411843Y532234D01*
X411795Y532160D01*
X411744Y532087D01*
X411690Y532017D01*
X411632Y531950D01*
X411572Y531884D01*
X411510Y531822D01*
X411444Y531762D01*
X411377Y531704D01*
X411307Y531650D01*
X411234Y531599D01*
X411160Y531551D01*
X411083Y531506D01*
X411005Y531465D01*
X410925Y531426D01*
X410844Y531392D01*
X410761Y531360D01*
X410676Y531333D01*
X410591Y531308D01*
X410505Y531288D01*
X410418Y531271D01*
X410330Y531258D01*
X410242Y531249D01*
X410154Y531243D01*
X410065Y531241D01*
X409936Y531243D01*
X409807Y531249D01*
X409678Y531258D01*
X409550Y531271D01*
X409422Y531288D01*
X409295Y531309D01*
X409168Y531333D01*
X409042Y531361D01*
X408917Y531393D01*
X408793Y531428D01*
X408670Y531467D01*
X408548Y531510D01*
X408428Y531556D01*
X408309Y531606D01*
X408191Y531659D01*
X408075Y531715D01*
X407961Y531775D01*
X407848Y531838D01*
X407738Y531905D01*
X407629Y531974D01*
X407523Y532047D01*
X407418Y532123D01*
X407316Y532202D01*
X407217Y532284D01*
X407119Y532368D01*
X407024Y532456D01*
X406932Y532546D01*
X407194Y538551D02*
X407196Y538640D01*
X407202Y538728D01*
X407211Y538816D01*
X407224Y538904D01*
X407241Y538991D01*
X407261Y539077D01*
X407286Y539162D01*
X407313Y539247D01*
X407345Y539330D01*
X407379Y539411D01*
X407418Y539491D01*
X407459Y539569D01*
X407504Y539646D01*
X407552Y539720D01*
X407603Y539793D01*
X407657Y539863D01*
X407715Y539930D01*
X407775Y539996D01*
X407837Y540058D01*
X407903Y540118D01*
X407970Y540176D01*
X408040Y540230D01*
X408113Y540281D01*
X408187Y540329D01*
X408264Y540374D01*
X408342Y540415D01*
X408422Y540454D01*
X408503Y540488D01*
X408586Y540520D01*
X408671Y540547D01*
X408756Y540572D01*
X408842Y540592D01*
X408929Y540609D01*
X409017Y540622D01*
X409105Y540631D01*
X409193Y540637D01*
X409282Y540639D01*
X409281Y540639D02*
X409401Y540637D01*
X409521Y540632D01*
X409641Y540622D01*
X409760Y540610D01*
X409879Y540593D01*
X409997Y540573D01*
X410115Y540549D01*
X410231Y540522D01*
X410347Y540491D01*
X410462Y540457D01*
X410576Y540419D01*
X410689Y540377D01*
X410800Y540332D01*
X410910Y540284D01*
X411018Y540233D01*
X411125Y540178D01*
X411230Y540120D01*
X411333Y540058D01*
X411434Y539994D01*
X411534Y539926D01*
X411631Y539856D01*
X408237Y536724D02*
X408159Y536772D01*
X408083Y536824D01*
X408010Y536878D01*
X407939Y536936D01*
X407870Y536997D01*
X407804Y537061D01*
X407741Y537128D01*
X407681Y537197D01*
X407624Y537269D01*
X407570Y537343D01*
X407520Y537420D01*
X407472Y537499D01*
X407429Y537579D01*
X407388Y537662D01*
X407352Y537746D01*
X407319Y537831D01*
X407290Y537918D01*
X407264Y538007D01*
X407242Y538096D01*
X407225Y538186D01*
X407211Y538276D01*
X407201Y538368D01*
X407195Y538459D01*
X407193Y538551D01*
X411109Y535156D02*
X411187Y535108D01*
X411263Y535056D01*
X411336Y535002D01*
X411407Y534944D01*
X411476Y534883D01*
X411542Y534819D01*
X411605Y534752D01*
X411665Y534683D01*
X411722Y534611D01*
X411776Y534537D01*
X411826Y534460D01*
X411874Y534381D01*
X411917Y534301D01*
X411958Y534218D01*
X411994Y534134D01*
X412027Y534049D01*
X412056Y533962D01*
X412082Y533873D01*
X412104Y533784D01*
X412121Y533694D01*
X412135Y533604D01*
X412145Y533512D01*
X412151Y533421D01*
X412153Y533329D01*
X411109Y535157D02*
X408237Y536723D01*
X416076Y540639D02*
X416076Y531241D01*
X416076Y540639D02*
X418687Y540639D01*
X418787Y540637D01*
X418887Y540631D01*
X418986Y540622D01*
X419086Y540608D01*
X419184Y540591D01*
X419282Y540570D01*
X419379Y540546D01*
X419475Y540517D01*
X419570Y540485D01*
X419663Y540450D01*
X419755Y540411D01*
X419846Y540368D01*
X419934Y540322D01*
X420021Y540272D01*
X420106Y540220D01*
X420189Y540164D01*
X420270Y540105D01*
X420348Y540042D01*
X420424Y539977D01*
X420498Y539909D01*
X420568Y539839D01*
X420636Y539765D01*
X420701Y539689D01*
X420764Y539611D01*
X420823Y539530D01*
X420879Y539447D01*
X420931Y539362D01*
X420981Y539275D01*
X421027Y539187D01*
X421070Y539096D01*
X421109Y539004D01*
X421144Y538911D01*
X421176Y538816D01*
X421205Y538720D01*
X421229Y538623D01*
X421250Y538525D01*
X421267Y538427D01*
X421281Y538327D01*
X421290Y538228D01*
X421296Y538128D01*
X421298Y538028D01*
X421297Y538028D02*
X421297Y533852D01*
X421298Y533852D02*
X421296Y533752D01*
X421290Y533652D01*
X421281Y533553D01*
X421267Y533453D01*
X421250Y533355D01*
X421229Y533257D01*
X421205Y533160D01*
X421176Y533064D01*
X421144Y532969D01*
X421109Y532876D01*
X421070Y532784D01*
X421027Y532693D01*
X420981Y532605D01*
X420931Y532518D01*
X420879Y532433D01*
X420823Y532350D01*
X420764Y532269D01*
X420701Y532191D01*
X420636Y532115D01*
X420568Y532041D01*
X420498Y531971D01*
X420424Y531903D01*
X420348Y531838D01*
X420270Y531775D01*
X420189Y531716D01*
X420106Y531660D01*
X420021Y531608D01*
X419934Y531558D01*
X419846Y531512D01*
X419755Y531469D01*
X419663Y531430D01*
X419570Y531395D01*
X419475Y531363D01*
X419379Y531334D01*
X419282Y531310D01*
X419184Y531289D01*
X419086Y531272D01*
X418986Y531258D01*
X418887Y531249D01*
X418787Y531243D01*
X418687Y531241D01*
X416076Y531241D01*
X425003Y531241D02*
X428135Y540639D01*
X431268Y531241D01*
X430485Y533591D02*
X425786Y533591D01*
D13*
X368300Y544830D02*
X368300Y554990D01*
X419100Y554990D02*
X419100Y544830D01*
X317500Y323850D02*
X304800Y304800D01*
X317500Y323850D02*
X444500Y323850D01*
X457200Y304800D01*
D11*
X361943Y460954D02*
X361943Y466146D01*
X361945Y466259D01*
X361951Y466372D01*
X361961Y466485D01*
X361975Y466598D01*
X361992Y466710D01*
X362014Y466821D01*
X362039Y466931D01*
X362069Y467041D01*
X362102Y467149D01*
X362139Y467256D01*
X362179Y467362D01*
X362224Y467466D01*
X362272Y467569D01*
X362323Y467670D01*
X362378Y467769D01*
X362436Y467866D01*
X362498Y467961D01*
X362563Y468054D01*
X362631Y468144D01*
X362702Y468232D01*
X362777Y468318D01*
X362854Y468401D01*
X362934Y468481D01*
X363017Y468558D01*
X363103Y468633D01*
X363191Y468704D01*
X363281Y468772D01*
X363374Y468837D01*
X363469Y468899D01*
X363566Y468957D01*
X363665Y469012D01*
X363766Y469063D01*
X363869Y469111D01*
X363973Y469156D01*
X364079Y469196D01*
X364186Y469233D01*
X364294Y469266D01*
X364404Y469296D01*
X364514Y469321D01*
X364625Y469343D01*
X364737Y469360D01*
X364850Y469374D01*
X364963Y469384D01*
X365076Y469390D01*
X365189Y469392D01*
X365302Y469390D01*
X365415Y469384D01*
X365528Y469374D01*
X365641Y469360D01*
X365753Y469343D01*
X365864Y469321D01*
X365974Y469296D01*
X366084Y469266D01*
X366192Y469233D01*
X366299Y469196D01*
X366405Y469156D01*
X366509Y469111D01*
X366612Y469063D01*
X366713Y469012D01*
X366812Y468957D01*
X366909Y468899D01*
X367004Y468837D01*
X367097Y468772D01*
X367187Y468704D01*
X367275Y468633D01*
X367361Y468558D01*
X367444Y468481D01*
X367524Y468401D01*
X367601Y468318D01*
X367676Y468232D01*
X367747Y468144D01*
X367815Y468054D01*
X367880Y467961D01*
X367942Y467866D01*
X368000Y467769D01*
X368055Y467670D01*
X368106Y467569D01*
X368154Y467466D01*
X368199Y467362D01*
X368239Y467256D01*
X368276Y467149D01*
X368309Y467041D01*
X368339Y466931D01*
X368364Y466821D01*
X368386Y466710D01*
X368403Y466598D01*
X368417Y466485D01*
X368427Y466372D01*
X368433Y466259D01*
X368435Y466146D01*
X368434Y466146D02*
X368434Y460954D01*
X368435Y460954D02*
X368433Y460841D01*
X368427Y460728D01*
X368417Y460615D01*
X368403Y460502D01*
X368386Y460390D01*
X368364Y460279D01*
X368339Y460169D01*
X368309Y460059D01*
X368276Y459951D01*
X368239Y459844D01*
X368199Y459738D01*
X368154Y459634D01*
X368106Y459531D01*
X368055Y459430D01*
X368000Y459331D01*
X367942Y459234D01*
X367880Y459139D01*
X367815Y459046D01*
X367747Y458956D01*
X367676Y458868D01*
X367601Y458782D01*
X367524Y458699D01*
X367444Y458619D01*
X367361Y458542D01*
X367275Y458467D01*
X367187Y458396D01*
X367097Y458328D01*
X367004Y458263D01*
X366909Y458201D01*
X366812Y458143D01*
X366713Y458088D01*
X366612Y458037D01*
X366509Y457989D01*
X366405Y457944D01*
X366299Y457904D01*
X366192Y457867D01*
X366084Y457834D01*
X365974Y457804D01*
X365864Y457779D01*
X365753Y457757D01*
X365641Y457740D01*
X365528Y457726D01*
X365415Y457716D01*
X365302Y457710D01*
X365189Y457708D01*
X365076Y457710D01*
X364963Y457716D01*
X364850Y457726D01*
X364737Y457740D01*
X364625Y457757D01*
X364514Y457779D01*
X364404Y457804D01*
X364294Y457834D01*
X364186Y457867D01*
X364079Y457904D01*
X363973Y457944D01*
X363869Y457989D01*
X363766Y458037D01*
X363665Y458088D01*
X363566Y458143D01*
X363469Y458201D01*
X363374Y458263D01*
X363281Y458328D01*
X363191Y458396D01*
X363103Y458467D01*
X363017Y458542D01*
X362934Y458619D01*
X362854Y458699D01*
X362777Y458782D01*
X362702Y458868D01*
X362631Y458956D01*
X362563Y459046D01*
X362498Y459139D01*
X362436Y459234D01*
X362378Y459331D01*
X362323Y459430D01*
X362272Y459531D01*
X362224Y459634D01*
X362179Y459738D01*
X362139Y459844D01*
X362102Y459951D01*
X362069Y460059D01*
X362039Y460169D01*
X362014Y460279D01*
X361992Y460390D01*
X361975Y460502D01*
X361961Y460615D01*
X361951Y460728D01*
X361945Y460841D01*
X361943Y460954D01*
X373777Y457708D02*
X373777Y469392D01*
X373777Y457708D02*
X378969Y457708D01*
X383683Y457708D02*
X388875Y457708D01*
X383683Y457708D02*
X383683Y469392D01*
X388875Y469392D01*
X387577Y464199D02*
X383683Y464199D01*
X393566Y469392D02*
X393566Y457708D01*
X393566Y469392D02*
X396811Y469392D01*
X396924Y469390D01*
X397037Y469384D01*
X397150Y469374D01*
X397263Y469360D01*
X397375Y469343D01*
X397486Y469321D01*
X397596Y469296D01*
X397706Y469266D01*
X397814Y469233D01*
X397921Y469196D01*
X398027Y469156D01*
X398131Y469111D01*
X398234Y469063D01*
X398335Y469012D01*
X398434Y468957D01*
X398531Y468899D01*
X398626Y468837D01*
X398719Y468772D01*
X398809Y468704D01*
X398897Y468633D01*
X398983Y468558D01*
X399066Y468481D01*
X399146Y468401D01*
X399223Y468318D01*
X399298Y468232D01*
X399369Y468144D01*
X399437Y468054D01*
X399502Y467961D01*
X399564Y467866D01*
X399622Y467769D01*
X399677Y467670D01*
X399728Y467569D01*
X399776Y467466D01*
X399821Y467362D01*
X399861Y467256D01*
X399898Y467149D01*
X399931Y467041D01*
X399961Y466931D01*
X399986Y466821D01*
X400008Y466710D01*
X400025Y466598D01*
X400039Y466485D01*
X400049Y466372D01*
X400055Y466259D01*
X400057Y466146D01*
X400057Y460954D01*
X400058Y460954D02*
X400056Y460841D01*
X400050Y460728D01*
X400040Y460615D01*
X400026Y460502D01*
X400009Y460390D01*
X399987Y460279D01*
X399962Y460169D01*
X399932Y460059D01*
X399899Y459951D01*
X399862Y459844D01*
X399822Y459738D01*
X399777Y459634D01*
X399729Y459531D01*
X399678Y459430D01*
X399623Y459331D01*
X399565Y459234D01*
X399503Y459139D01*
X399438Y459046D01*
X399370Y458956D01*
X399299Y458868D01*
X399224Y458782D01*
X399147Y458699D01*
X399067Y458619D01*
X398984Y458542D01*
X398898Y458467D01*
X398810Y458396D01*
X398720Y458328D01*
X398627Y458263D01*
X398532Y458201D01*
X398435Y458143D01*
X398336Y458088D01*
X398235Y458037D01*
X398132Y457989D01*
X398028Y457944D01*
X397922Y457904D01*
X397815Y457867D01*
X397707Y457834D01*
X397597Y457804D01*
X397487Y457779D01*
X397376Y457757D01*
X397264Y457740D01*
X397151Y457726D01*
X397038Y457716D01*
X396925Y457710D01*
X396812Y457708D01*
X396811Y457708D02*
X393566Y457708D01*
D10*
X520700Y266700D02*
X546100Y266700D01*
X520700Y266700D02*
X520700Y243840D01*
X523240Y241300D01*
X520700Y238760D01*
X520700Y218440D01*
X523240Y215900D01*
X520700Y213360D01*
X520700Y193040D01*
X523240Y190500D01*
X520700Y187960D01*
X520700Y167640D01*
X523240Y165100D01*
X520700Y162560D01*
X520700Y139700D01*
X546100Y139700D01*
X546100Y162560D01*
X543560Y165100D01*
X546100Y167640D01*
X546100Y187960D01*
X543560Y190500D01*
X546100Y193040D01*
X546100Y213360D01*
X543560Y215900D01*
X546100Y218440D01*
X546100Y238760D01*
X543560Y241300D01*
X546100Y243840D01*
X546100Y266700D01*
D13*
X530225Y271145D02*
X527685Y274320D01*
X539115Y274320D01*
X539115Y271145D02*
X539115Y277495D01*
X539115Y133985D02*
X539115Y130175D01*
X539115Y133985D02*
X539113Y134085D01*
X539107Y134184D01*
X539097Y134284D01*
X539084Y134382D01*
X539066Y134481D01*
X539045Y134578D01*
X539020Y134674D01*
X538991Y134770D01*
X538958Y134864D01*
X538922Y134957D01*
X538882Y135048D01*
X538838Y135138D01*
X538791Y135226D01*
X538741Y135312D01*
X538687Y135396D01*
X538630Y135478D01*
X538570Y135557D01*
X538506Y135635D01*
X538440Y135709D01*
X538371Y135781D01*
X538299Y135850D01*
X538225Y135916D01*
X538147Y135980D01*
X538068Y136040D01*
X537986Y136097D01*
X537902Y136151D01*
X537816Y136201D01*
X537728Y136248D01*
X537638Y136292D01*
X537547Y136332D01*
X537454Y136368D01*
X537360Y136401D01*
X537264Y136430D01*
X537168Y136455D01*
X537071Y136476D01*
X536972Y136494D01*
X536874Y136507D01*
X536774Y136517D01*
X536675Y136523D01*
X536575Y136525D01*
X535305Y136525D01*
X535205Y136523D01*
X535106Y136517D01*
X535006Y136507D01*
X534908Y136494D01*
X534809Y136476D01*
X534712Y136455D01*
X534616Y136430D01*
X534520Y136401D01*
X534426Y136368D01*
X534333Y136332D01*
X534242Y136292D01*
X534152Y136248D01*
X534064Y136201D01*
X533978Y136151D01*
X533894Y136097D01*
X533812Y136040D01*
X533733Y135980D01*
X533655Y135916D01*
X533581Y135850D01*
X533509Y135781D01*
X533440Y135709D01*
X533374Y135635D01*
X533310Y135557D01*
X533250Y135478D01*
X533193Y135396D01*
X533139Y135312D01*
X533089Y135226D01*
X533042Y135138D01*
X532998Y135048D01*
X532958Y134957D01*
X532922Y134864D01*
X532889Y134770D01*
X532860Y134674D01*
X532835Y134578D01*
X532814Y134481D01*
X532796Y134382D01*
X532783Y134284D01*
X532773Y134184D01*
X532767Y134085D01*
X532765Y133985D01*
X532765Y130175D01*
X527685Y130175D01*
X527685Y136525D01*
X563245Y139700D02*
X574675Y135890D01*
X574675Y143510D02*
X563245Y139700D01*
X571818Y142558D02*
X571818Y136843D01*
X574675Y148463D02*
X563245Y148463D01*
X569595Y152273D01*
X563245Y156083D01*
X574675Y156083D01*
X575945Y161163D02*
X575945Y166243D01*
X565785Y170815D02*
X563245Y173990D01*
X574675Y173990D01*
X574675Y170815D02*
X574675Y177165D01*
D10*
X228222Y165530D02*
X225682Y168070D01*
X228222Y165530D02*
X225682Y162990D01*
X248542Y165530D02*
X251082Y168070D01*
X248542Y165530D02*
X251082Y162990D01*
X251082Y142670D01*
X248542Y140130D01*
X251082Y188390D02*
X248542Y190930D01*
X251082Y188390D02*
X251082Y168070D01*
X248542Y190930D02*
X228222Y190930D01*
X225682Y188390D01*
X225682Y168070D01*
X225682Y162990D02*
X225682Y142670D01*
X228222Y140130D01*
X248542Y140130D01*
D13*
X221237Y140765D02*
X209807Y144575D01*
X221237Y148385D01*
X218380Y147433D02*
X218380Y141718D01*
X221237Y153338D02*
X209807Y153338D01*
X216157Y157148D01*
X209807Y160958D01*
X221237Y160958D01*
X222507Y166038D02*
X222507Y171118D01*
X212665Y182041D02*
X212561Y182039D01*
X212456Y182033D01*
X212352Y182024D01*
X212249Y182011D01*
X212146Y181993D01*
X212044Y181973D01*
X211942Y181948D01*
X211842Y181920D01*
X211742Y181888D01*
X211644Y181852D01*
X211547Y181813D01*
X211452Y181771D01*
X211358Y181725D01*
X211266Y181675D01*
X211176Y181623D01*
X211088Y181567D01*
X211002Y181507D01*
X210918Y181445D01*
X210837Y181380D01*
X210758Y181312D01*
X210681Y181240D01*
X210608Y181167D01*
X210536Y181090D01*
X210468Y181011D01*
X210403Y180930D01*
X210341Y180846D01*
X210281Y180760D01*
X210225Y180672D01*
X210173Y180582D01*
X210123Y180490D01*
X210077Y180396D01*
X210035Y180301D01*
X209996Y180204D01*
X209960Y180106D01*
X209928Y180006D01*
X209900Y179906D01*
X209875Y179804D01*
X209855Y179702D01*
X209837Y179599D01*
X209824Y179496D01*
X209815Y179392D01*
X209809Y179287D01*
X209807Y179183D01*
X209809Y179065D01*
X209815Y178946D01*
X209824Y178828D01*
X209837Y178711D01*
X209855Y178594D01*
X209875Y178477D01*
X209900Y178361D01*
X209928Y178246D01*
X209961Y178133D01*
X209996Y178020D01*
X210036Y177908D01*
X210078Y177798D01*
X210125Y177689D01*
X210175Y177581D01*
X210228Y177476D01*
X210285Y177372D01*
X210345Y177270D01*
X210408Y177170D01*
X210475Y177072D01*
X210544Y176976D01*
X210617Y176883D01*
X210693Y176792D01*
X210771Y176703D01*
X210853Y176617D01*
X210937Y176534D01*
X211023Y176453D01*
X211113Y176376D01*
X211204Y176301D01*
X211298Y176229D01*
X211395Y176160D01*
X211493Y176095D01*
X211594Y176032D01*
X211697Y175973D01*
X211801Y175917D01*
X211907Y175865D01*
X212015Y175816D01*
X212124Y175771D01*
X212235Y175729D01*
X212347Y175691D01*
X214887Y181088D02*
X214812Y181164D01*
X214733Y181239D01*
X214652Y181310D01*
X214568Y181379D01*
X214482Y181444D01*
X214394Y181506D01*
X214304Y181566D01*
X214212Y181622D01*
X214117Y181675D01*
X214021Y181724D01*
X213923Y181770D01*
X213824Y181813D01*
X213723Y181852D01*
X213621Y181887D01*
X213518Y181919D01*
X213414Y181947D01*
X213309Y181972D01*
X213202Y181993D01*
X213096Y182010D01*
X212989Y182023D01*
X212881Y182032D01*
X212773Y182038D01*
X212665Y182040D01*
X214887Y181088D02*
X221237Y175690D01*
X221237Y182040D01*
M02*
