G04 EAGLE Gerber RS-274X export*
G75*
%MOMM*%
%FSLAX34Y34*%
%LPD*%
%INSoldermask Bottom*%
%IPPOS*%
%AMOC8*
5,1,8,0,0,1.08239X$1,22.5*%
G01*
%ADD10C,2.203200*%
%ADD11R,1.371600X1.803400*%
%ADD12C,1.524000*%
%ADD13R,1.711200X1.711200*%
%ADD14C,1.711200*%
%ADD15C,1.625600*%
%ADD16R,0.152400X1.828800*%


D10*
X577850Y628650D03*
X182316Y117203D03*
D11*
X281940Y508000D03*
X266700Y508000D03*
X251460Y508000D03*
X358140Y508000D03*
X342900Y508000D03*
X327660Y508000D03*
X434340Y508000D03*
X419100Y508000D03*
X403860Y508000D03*
X510540Y508000D03*
X495300Y508000D03*
X480060Y508000D03*
D12*
X203200Y602996D02*
X203200Y616204D01*
X228600Y616204D02*
X228600Y602996D01*
X254000Y602996D02*
X254000Y616204D01*
X279400Y616204D02*
X279400Y602996D01*
X304800Y602996D02*
X304800Y616204D01*
X330200Y616204D02*
X330200Y602996D01*
D13*
X342900Y571500D03*
D14*
X368300Y571500D03*
X393700Y571500D03*
X419100Y571500D03*
D10*
X276860Y560070D03*
X485140Y560070D03*
X485140Y328930D03*
X276860Y328930D03*
D12*
X526796Y254000D02*
X540004Y254000D01*
X540004Y228600D02*
X526796Y228600D01*
X526796Y203200D02*
X540004Y203200D01*
X540004Y177800D02*
X526796Y177800D01*
X526796Y152400D02*
X540004Y152400D01*
D15*
X245494Y152830D02*
X231270Y152830D01*
X231270Y178230D02*
X245494Y178230D01*
D11*
X439420Y177800D03*
X424180Y177800D03*
D16*
X431800Y177800D03*
M02*
