M48
;GenerationSoftware,Autodesk,EAGLE,9.4.2*%
;CreationDate,2019-07-25T01:48:43Z*%
FMAT,2
ICI,OFF
METRIC,TZ,000.000
T4C0.813
T3C0.914
T2C1.000
T1C2.000
%
G90
M71
T1
X27686Y56007
X48514Y56007
X48514Y32893
X27686Y32893
X57785Y62865
X18232Y11720
T2
X34290Y57150
X36830Y57150
X39370Y57150
X41910Y57150
T3
X23838Y15283
X23838Y17823
T4
X20320Y60960
X22860Y60960
X25400Y60960
X27940Y60960
X30480Y60960
X33020Y60960
X53340Y25400
X53340Y22860
X53340Y20320
X53340Y17780
X53340Y15240
M30