M48
;GenerationSoftware,Autodesk,EAGLE,9.4.2*%
;CreationDate,2019-07-09T01:58:57Z*%
FMAT,2
ICI,OFF
METRIC,TZ,000.000
T4C0.610
T3C0.813
T2C1.016
T1C2.000
%
G90
M71
T1
X57785Y62865
X17780Y11430
T2
X40640Y60960
X48260Y60960
X45720Y60960
X40640Y19010
X43180Y60960
X38100Y19010
X35560Y19010
X40640Y24130
X38100Y24130
X35560Y24130
T3
X49330Y25380
X49330Y27920
X49330Y30460
X49330Y33000
X49330Y35540
X49330Y38080
X49330Y40620
X49330Y43160
X26870Y45700
X49330Y48240
X49330Y50780
X26870Y15220
X26870Y17760
X26870Y20300
X26870Y22840
X26870Y25380
X26870Y27920
X26870Y30460
X26870Y33000
X26870Y35540
X26870Y38080
X26870Y40620
X26870Y43160
X26870Y48240
X26870Y50780
X55880Y13970
X55880Y16510
X55880Y19050
X55880Y21590
X55880Y24130
X55880Y26670
X55880Y29210
X55880Y31750
X55880Y34290
X55880Y36830
X55880Y39370
X55880Y41910
X55880Y44450
X55880Y46990
X55880Y49530
X20320Y13970
X20320Y16510
X20320Y19050
X20320Y21590
X20320Y24130
X20320Y26670
X20320Y29210
X20320Y31750
X20320Y34290
X20320Y36830
X20320Y39370
X20320Y41910
X20320Y44450
X20320Y46990
X20320Y49530
X52270Y13970
X52270Y16510
X52270Y19050
X52270Y21590
X52270Y24130
X52270Y26670
X52270Y29210
X52270Y31750
X52270Y34290
X52270Y36830
X52270Y39370
X52270Y41910
X52270Y44450
X52270Y46990
X52270Y49530
X24000Y13970
X24000Y16510
X24000Y19050
X24000Y21590
X24000Y24130
X24000Y26670
X24000Y29210
X24000Y31750
X24000Y34290
X24000Y36830
X24000Y39370
X24000Y41910
X24000Y44450
X24000Y46990
X24000Y49530
X49330Y45700
X49330Y15220
X49330Y17760
X49330Y20300
X49330Y22840
X43180Y49530
X33020Y49530
X20320Y60960
X22860Y60960
X25400Y60960
X27940Y60960
X30480Y60960
X33020Y60960
X41910Y30480
X41910Y33020
X41910Y45720
X34290Y45720
X41910Y35560
X41910Y38100
X41910Y43180
X41910Y40640
X34290Y43180
X34290Y40640
X34290Y38100
X34290Y35560
X34290Y33020
X34290Y30480
T4
X39776Y38405
M30