M48
;GenerationSoftware,Autodesk,EAGLE,9.6.2*%
;CreationDate,2022-12-29T05:19:20Z*%
FMAT,2
ICI,OFF
METRIC,TZ,000.000
T5C0.610
T4C0.813
T3C1.016
T2C1.200
T1C2.000
%
G90
M71
T1
X57785Y62865
X17780Y11430
T2
X41910Y13970
X39370Y13970
X36830Y13970
X34290Y13970
T3
X26870Y50185
X24330Y57805
X26870Y57805
X24330Y55265
X26870Y55265
X24330Y52725
X26870Y52725
X24330Y50185
X24330Y32405
X24330Y47645
X26870Y47645
X24330Y45105
X26870Y45105
X24330Y42565
X26870Y42565
X24330Y40025
X26870Y40025
X24330Y37485
X26870Y37485
X24330Y34945
X26870Y34945
X26870Y32405
X24330Y29865
X26870Y29865
X24330Y27325
X26870Y27325
X24330Y24785
X26870Y24785
X24330Y22245
X26870Y22245
X24330Y19705
X26870Y19705
X24330Y17165
X26870Y17165
X24330Y14625
X26870Y14625
X24330Y12085
X26870Y12085
X49330Y57805
X51870Y57805
X49330Y55265
X51870Y55265
X49330Y52725
X51870Y52725
X49330Y50185
X51870Y50185
X49330Y47645
X51870Y47645
X49330Y45105
X51870Y45105
X49330Y42565
X51870Y42565
X49330Y40025
X51870Y40025
X49330Y37485
X51870Y37485
X49330Y34945
X51870Y34945
X49330Y32405
X51870Y32405
X49330Y29865
X51870Y29865
X49330Y27325
X51870Y27325
X49330Y24785
X51870Y24785
X49330Y22245
X51870Y22245
X49330Y19705
X51870Y19705
X49330Y17165
X51870Y17165
X49330Y14625
X51870Y14625
X49330Y12085
X51870Y12085
X35560Y24130
X38100Y24130
X40640Y24130
T4
X27940Y60960
X30480Y60960
X33020Y60960
X41910Y30480
X41910Y33020
X41910Y45720
X34290Y45720
X41910Y35560
X41910Y38100
X41910Y43180
X20320Y60960
X34290Y43180
X34290Y40640
X34290Y38100
X34290Y35560
X34290Y33020
X34290Y30480
X22860Y60960
X25400Y60960
X41910Y40640
T5
X38000Y48500
X38000Y34500
X37000Y54000
X35500Y19000
M30