G04 EAGLE Gerber RS-274X export*
G75*
%MOMM*%
%FSLAX34Y34*%
%LPD*%
%INTop Copper*%
%IPPOS*%
%AMOC8*
5,1,8,0,0,1.08239X$1,22.5*%
G01*
%ADD10C,1.320800*%
%ADD11C,1.524000*%
%ADD12C,0.254000*%
%ADD13C,1.016000*%

G36*
X582698Y111764D02*
X582698Y111764D01*
X582717Y111762D01*
X582819Y111784D01*
X582921Y111800D01*
X582938Y111810D01*
X582958Y111814D01*
X583047Y111867D01*
X583138Y111916D01*
X583152Y111930D01*
X583169Y111940D01*
X583236Y112019D01*
X583308Y112094D01*
X583316Y112112D01*
X583329Y112127D01*
X583368Y112223D01*
X583411Y112317D01*
X583413Y112337D01*
X583421Y112355D01*
X583439Y112522D01*
X583439Y311755D01*
X583428Y311825D01*
X583426Y311897D01*
X583408Y311946D01*
X583400Y311997D01*
X583366Y312061D01*
X583341Y312128D01*
X583309Y312169D01*
X583284Y312215D01*
X583233Y312264D01*
X583188Y312320D01*
X583144Y312348D01*
X583106Y312384D01*
X583041Y312414D01*
X582981Y312453D01*
X582930Y312466D01*
X582883Y312488D01*
X582812Y312496D01*
X582742Y312513D01*
X582690Y312509D01*
X582639Y312515D01*
X582568Y312500D01*
X582497Y312494D01*
X582449Y312474D01*
X582398Y312463D01*
X582337Y312426D01*
X582271Y312398D01*
X582215Y312353D01*
X582187Y312336D01*
X582172Y312319D01*
X582140Y312293D01*
X581884Y312037D01*
X581831Y311963D01*
X581771Y311894D01*
X581759Y311863D01*
X581740Y311837D01*
X581713Y311750D01*
X581679Y311665D01*
X581675Y311624D01*
X581668Y311602D01*
X581669Y311570D01*
X581661Y311499D01*
X581661Y307242D01*
X572607Y298188D01*
X572595Y298172D01*
X572580Y298159D01*
X572524Y298072D01*
X572463Y297988D01*
X572457Y297969D01*
X572447Y297952D01*
X572421Y297852D01*
X572391Y297753D01*
X572391Y297733D01*
X572387Y297714D01*
X572395Y297611D01*
X572397Y297507D01*
X572404Y297489D01*
X572406Y297469D01*
X572446Y297374D01*
X572482Y297276D01*
X572494Y297261D01*
X572502Y297242D01*
X572607Y297111D01*
X572726Y296992D01*
X574041Y293818D01*
X574041Y290382D01*
X572726Y287208D01*
X570296Y284778D01*
X567122Y283463D01*
X550478Y283463D01*
X547304Y284778D01*
X546931Y285151D01*
X546914Y285163D01*
X546902Y285178D01*
X546815Y285234D01*
X546731Y285295D01*
X546712Y285301D01*
X546695Y285311D01*
X546595Y285337D01*
X546496Y285367D01*
X546476Y285367D01*
X546456Y285371D01*
X546353Y285363D01*
X546250Y285361D01*
X546231Y285354D01*
X546211Y285352D01*
X546116Y285312D01*
X546019Y285276D01*
X546003Y285264D01*
X545985Y285256D01*
X545854Y285151D01*
X545308Y284605D01*
X543150Y282447D01*
X538128Y282447D01*
X535535Y285040D01*
X535519Y285052D01*
X535506Y285067D01*
X535419Y285124D01*
X535335Y285184D01*
X535316Y285190D01*
X535299Y285200D01*
X535199Y285226D01*
X535100Y285256D01*
X535080Y285256D01*
X535061Y285260D01*
X534958Y285252D01*
X534854Y285250D01*
X534835Y285243D01*
X534816Y285241D01*
X534721Y285201D01*
X534623Y285165D01*
X534608Y285153D01*
X534589Y285145D01*
X534458Y285040D01*
X534196Y284778D01*
X531022Y283463D01*
X514378Y283463D01*
X511204Y284778D01*
X508774Y287208D01*
X507459Y290382D01*
X507459Y293818D01*
X508774Y296992D01*
X508782Y297000D01*
X508794Y297017D01*
X508809Y297029D01*
X508866Y297116D01*
X508926Y297200D01*
X508932Y297219D01*
X508942Y297236D01*
X508968Y297337D01*
X508998Y297435D01*
X508998Y297455D01*
X509002Y297475D01*
X508994Y297577D01*
X508992Y297681D01*
X508985Y297700D01*
X508983Y297720D01*
X508943Y297814D01*
X508907Y297912D01*
X508895Y297928D01*
X508887Y297946D01*
X508782Y298077D01*
X507727Y299132D01*
X507711Y299144D01*
X507698Y299159D01*
X507611Y299216D01*
X507527Y299276D01*
X507508Y299282D01*
X507491Y299292D01*
X507391Y299318D01*
X507292Y299348D01*
X507272Y299348D01*
X507253Y299352D01*
X507150Y299344D01*
X507046Y299342D01*
X507028Y299335D01*
X507008Y299333D01*
X506913Y299293D01*
X506815Y299257D01*
X506800Y299245D01*
X506781Y299237D01*
X506650Y299132D01*
X504796Y297278D01*
X501622Y295963D01*
X484978Y295963D01*
X481804Y297278D01*
X479374Y299708D01*
X478059Y302882D01*
X478059Y306318D01*
X479374Y309492D01*
X481804Y311922D01*
X484978Y313237D01*
X501622Y313237D01*
X504796Y311922D01*
X507226Y309492D01*
X507922Y307811D01*
X507984Y307711D01*
X508044Y307611D01*
X508049Y307607D01*
X508052Y307602D01*
X508143Y307527D01*
X508231Y307451D01*
X508237Y307449D01*
X508242Y307445D01*
X508350Y307403D01*
X508459Y307359D01*
X508467Y307358D01*
X508471Y307357D01*
X508489Y307356D01*
X508626Y307341D01*
X508860Y307341D01*
X515241Y300960D01*
X515315Y300907D01*
X515384Y300847D01*
X515415Y300835D01*
X515441Y300816D01*
X515528Y300789D01*
X515613Y300755D01*
X515654Y300751D01*
X515676Y300744D01*
X515708Y300745D01*
X515779Y300737D01*
X531022Y300737D01*
X534196Y299422D01*
X536626Y296992D01*
X537941Y293818D01*
X537941Y292291D01*
X537955Y292201D01*
X537963Y292110D01*
X537975Y292081D01*
X537980Y292049D01*
X538023Y291968D01*
X538059Y291884D01*
X538085Y291852D01*
X538096Y291831D01*
X538119Y291809D01*
X538164Y291753D01*
X540101Y289816D01*
X540117Y289804D01*
X540129Y289789D01*
X540217Y289733D01*
X540300Y289673D01*
X540319Y289667D01*
X540336Y289656D01*
X540437Y289631D01*
X540536Y289600D01*
X540555Y289601D01*
X540575Y289596D01*
X540678Y289604D01*
X540781Y289607D01*
X540800Y289613D01*
X540820Y289615D01*
X540915Y289655D01*
X541012Y289691D01*
X541028Y289703D01*
X541046Y289711D01*
X541177Y289816D01*
X543336Y291975D01*
X543389Y292049D01*
X543449Y292118D01*
X543461Y292149D01*
X543480Y292175D01*
X543507Y292262D01*
X543541Y292347D01*
X543545Y292388D01*
X543552Y292410D01*
X543551Y292442D01*
X543559Y292513D01*
X543559Y293818D01*
X544874Y296992D01*
X547304Y299422D01*
X550478Y300737D01*
X565499Y300737D01*
X565589Y300751D01*
X565680Y300759D01*
X565709Y300771D01*
X565741Y300776D01*
X565822Y300819D01*
X565906Y300855D01*
X565938Y300881D01*
X565959Y300892D01*
X565981Y300915D01*
X566037Y300960D01*
X574832Y309755D01*
X574885Y309829D01*
X574945Y309898D01*
X574957Y309929D01*
X574976Y309955D01*
X575003Y310042D01*
X575037Y310127D01*
X575041Y310168D01*
X575048Y310190D01*
X575047Y310222D01*
X575055Y310293D01*
X575055Y314404D01*
X575040Y314500D01*
X575034Y314554D01*
X575053Y314569D01*
X575070Y314577D01*
X575093Y314601D01*
X575158Y314653D01*
X577118Y316613D01*
X577171Y316687D01*
X577231Y316756D01*
X577243Y316787D01*
X577262Y316813D01*
X577289Y316900D01*
X577323Y316985D01*
X577327Y317026D01*
X577334Y317048D01*
X577333Y317080D01*
X577341Y317151D01*
X577341Y318357D01*
X577327Y318447D01*
X577319Y318538D01*
X577307Y318567D01*
X577302Y318599D01*
X577259Y318680D01*
X577223Y318764D01*
X577197Y318796D01*
X577186Y318817D01*
X577163Y318839D01*
X577118Y318895D01*
X575055Y320958D01*
X575055Y337410D01*
X577118Y339473D01*
X577171Y339547D01*
X577231Y339616D01*
X577243Y339647D01*
X577262Y339673D01*
X577289Y339760D01*
X577323Y339845D01*
X577327Y339886D01*
X577334Y339908D01*
X577333Y339940D01*
X577341Y340011D01*
X577341Y345789D01*
X577327Y345879D01*
X577319Y345970D01*
X577307Y345999D01*
X577302Y346031D01*
X577259Y346112D01*
X577223Y346196D01*
X577197Y346228D01*
X577186Y346249D01*
X577163Y346271D01*
X577118Y346327D01*
X575055Y348390D01*
X575055Y364842D01*
X577118Y366905D01*
X577171Y366979D01*
X577231Y367048D01*
X577243Y367079D01*
X577262Y367105D01*
X577289Y367192D01*
X577323Y367277D01*
X577327Y367318D01*
X577334Y367340D01*
X577333Y367372D01*
X577341Y367443D01*
X577341Y368649D01*
X577327Y368739D01*
X577319Y368830D01*
X577307Y368859D01*
X577302Y368891D01*
X577259Y368972D01*
X577223Y369056D01*
X577197Y369088D01*
X577186Y369109D01*
X577163Y369131D01*
X577118Y369187D01*
X575158Y371147D01*
X575079Y371204D01*
X575038Y371238D01*
X575040Y371261D01*
X575046Y371280D01*
X575046Y371313D01*
X575055Y371396D01*
X575055Y389988D01*
X577118Y392051D01*
X577171Y392125D01*
X577231Y392194D01*
X577243Y392225D01*
X577262Y392251D01*
X577289Y392338D01*
X577323Y392423D01*
X577327Y392464D01*
X577334Y392486D01*
X577333Y392518D01*
X577341Y392589D01*
X577341Y393795D01*
X577327Y393885D01*
X577319Y393976D01*
X577307Y394005D01*
X577302Y394037D01*
X577259Y394118D01*
X577223Y394202D01*
X577197Y394234D01*
X577186Y394255D01*
X577163Y394277D01*
X577118Y394333D01*
X575338Y396113D01*
X575265Y396166D01*
X575230Y396199D01*
X575215Y396206D01*
X575181Y396234D01*
X575158Y396243D01*
X575138Y396257D01*
X575044Y396286D01*
X575038Y396288D01*
X575007Y396303D01*
X574997Y396304D01*
X574951Y396321D01*
X574926Y396322D01*
X574903Y396329D01*
X574883Y396329D01*
X574945Y396401D01*
X574955Y396425D01*
X574970Y396446D01*
X575000Y396539D01*
X575037Y396629D01*
X575040Y396661D01*
X575046Y396680D01*
X575046Y396713D01*
X575055Y396796D01*
X575055Y415134D01*
X577118Y417197D01*
X577171Y417271D01*
X577231Y417340D01*
X577243Y417371D01*
X577262Y417397D01*
X577289Y417484D01*
X577323Y417569D01*
X577327Y417610D01*
X577334Y417632D01*
X577333Y417664D01*
X577341Y417735D01*
X577341Y421227D01*
X577327Y421317D01*
X577319Y421408D01*
X577307Y421437D01*
X577302Y421469D01*
X577259Y421550D01*
X577223Y421634D01*
X577197Y421666D01*
X577186Y421687D01*
X577163Y421709D01*
X577118Y421765D01*
X575055Y423828D01*
X575055Y440280D01*
X577118Y442343D01*
X577171Y442417D01*
X577231Y442486D01*
X577243Y442517D01*
X577262Y442543D01*
X577289Y442630D01*
X577323Y442715D01*
X577327Y442756D01*
X577334Y442778D01*
X577333Y442810D01*
X577341Y442881D01*
X577341Y446373D01*
X577327Y446463D01*
X577319Y446554D01*
X577307Y446583D01*
X577302Y446615D01*
X577259Y446696D01*
X577223Y446780D01*
X577197Y446812D01*
X577186Y446833D01*
X577163Y446855D01*
X577118Y446911D01*
X575055Y448974D01*
X575055Y465426D01*
X577118Y467489D01*
X577160Y467548D01*
X577208Y467598D01*
X577216Y467615D01*
X577231Y467632D01*
X577243Y467663D01*
X577262Y467689D01*
X577285Y467763D01*
X577311Y467821D01*
X577313Y467837D01*
X577323Y467861D01*
X577327Y467902D01*
X577334Y467924D01*
X577333Y467956D01*
X577341Y468027D01*
X577341Y471519D01*
X577327Y471609D01*
X577319Y471700D01*
X577307Y471729D01*
X577302Y471761D01*
X577259Y471842D01*
X577223Y471926D01*
X577197Y471958D01*
X577186Y471979D01*
X577163Y472001D01*
X577118Y472057D01*
X575055Y474120D01*
X575055Y490572D01*
X577118Y492635D01*
X577164Y492699D01*
X577183Y492719D01*
X577187Y492727D01*
X577231Y492778D01*
X577243Y492809D01*
X577262Y492835D01*
X577289Y492922D01*
X577323Y493007D01*
X577327Y493048D01*
X577334Y493070D01*
X577333Y493102D01*
X577341Y493173D01*
X577341Y496665D01*
X577327Y496755D01*
X577319Y496846D01*
X577307Y496875D01*
X577302Y496907D01*
X577259Y496988D01*
X577223Y497072D01*
X577197Y497104D01*
X577186Y497125D01*
X577163Y497147D01*
X577118Y497203D01*
X575055Y499266D01*
X575055Y501237D01*
X575041Y501327D01*
X575033Y501418D01*
X575021Y501447D01*
X575016Y501479D01*
X574973Y501560D01*
X574937Y501644D01*
X574911Y501676D01*
X574900Y501697D01*
X574877Y501719D01*
X574832Y501775D01*
X570355Y506252D01*
X570281Y506305D01*
X570212Y506365D01*
X570181Y506377D01*
X570155Y506396D01*
X570068Y506423D01*
X569983Y506457D01*
X569942Y506461D01*
X569920Y506468D01*
X569888Y506467D01*
X569817Y506475D01*
X544986Y506475D01*
X459357Y592104D01*
X459283Y592157D01*
X459214Y592217D01*
X459183Y592229D01*
X459157Y592248D01*
X459070Y592275D01*
X458985Y592309D01*
X458944Y592313D01*
X458922Y592320D01*
X458890Y592319D01*
X458819Y592327D01*
X455280Y592327D01*
X451732Y593797D01*
X449017Y596512D01*
X447547Y600060D01*
X447547Y619140D01*
X449017Y622688D01*
X451732Y625403D01*
X455280Y626873D01*
X459120Y626873D01*
X462668Y625403D01*
X465383Y622688D01*
X466853Y619140D01*
X466853Y600060D01*
X465383Y596512D01*
X465375Y596504D01*
X465364Y596488D01*
X465348Y596476D01*
X465292Y596388D01*
X465232Y596304D01*
X465226Y596285D01*
X465215Y596269D01*
X465190Y596168D01*
X465159Y596069D01*
X465160Y596049D01*
X465155Y596030D01*
X465163Y595927D01*
X465166Y595823D01*
X465173Y595805D01*
X465174Y595785D01*
X465214Y595690D01*
X465250Y595592D01*
X465263Y595577D01*
X465270Y595559D01*
X465375Y595428D01*
X547499Y513304D01*
X547573Y513251D01*
X547642Y513191D01*
X547673Y513179D01*
X547699Y513160D01*
X547786Y513133D01*
X547871Y513099D01*
X547912Y513095D01*
X547934Y513088D01*
X547966Y513089D01*
X548037Y513081D01*
X572868Y513081D01*
X581661Y504288D01*
X581661Y502317D01*
X581675Y502227D01*
X581683Y502136D01*
X581695Y502107D01*
X581700Y502075D01*
X581743Y501994D01*
X581779Y501910D01*
X581805Y501878D01*
X581816Y501857D01*
X581839Y501835D01*
X581884Y501779D01*
X582140Y501523D01*
X582198Y501481D01*
X582250Y501432D01*
X582297Y501410D01*
X582339Y501379D01*
X582408Y501358D01*
X582473Y501328D01*
X582525Y501322D01*
X582575Y501307D01*
X582646Y501309D01*
X582717Y501301D01*
X582768Y501312D01*
X582820Y501313D01*
X582888Y501338D01*
X582958Y501353D01*
X583003Y501380D01*
X583051Y501398D01*
X583107Y501443D01*
X583169Y501480D01*
X583203Y501519D01*
X583243Y501552D01*
X583282Y501612D01*
X583329Y501666D01*
X583348Y501715D01*
X583376Y501759D01*
X583394Y501828D01*
X583421Y501895D01*
X583429Y501966D01*
X583437Y501997D01*
X583435Y502020D01*
X583439Y502061D01*
X583439Y608004D01*
X583432Y608049D01*
X583434Y608095D01*
X583412Y608170D01*
X583400Y608247D01*
X583378Y608287D01*
X583365Y608332D01*
X583321Y608396D01*
X583284Y608464D01*
X583251Y608496D01*
X583225Y608534D01*
X583162Y608580D01*
X583106Y608634D01*
X583065Y608653D01*
X583028Y608680D01*
X582953Y608704D01*
X582883Y608737D01*
X582837Y608742D01*
X582794Y608756D01*
X582716Y608756D01*
X582639Y608764D01*
X582594Y608755D01*
X582548Y608754D01*
X582417Y608716D01*
X582398Y608712D01*
X582394Y608709D01*
X582387Y608707D01*
X581860Y608489D01*
X573840Y608489D01*
X566430Y611559D01*
X560759Y617230D01*
X557689Y624640D01*
X557689Y632660D01*
X559233Y636387D01*
X559243Y636431D01*
X559263Y636473D01*
X559271Y636550D01*
X559289Y636626D01*
X559285Y636672D01*
X559290Y636717D01*
X559273Y636794D01*
X559266Y636871D01*
X559247Y636913D01*
X559238Y636958D01*
X559198Y637025D01*
X559166Y637096D01*
X559135Y637130D01*
X559111Y637169D01*
X559052Y637220D01*
X559000Y637277D01*
X558959Y637299D01*
X558924Y637329D01*
X558852Y637358D01*
X558784Y637395D01*
X558739Y637404D01*
X558696Y637421D01*
X558560Y637436D01*
X558542Y637439D01*
X558537Y637438D01*
X558530Y637439D01*
X176022Y637439D01*
X176002Y637436D01*
X175983Y637438D01*
X175881Y637416D01*
X175779Y637400D01*
X175762Y637390D01*
X175742Y637386D01*
X175653Y637333D01*
X175562Y637284D01*
X175548Y637270D01*
X175531Y637260D01*
X175464Y637181D01*
X175392Y637106D01*
X175384Y637088D01*
X175371Y637073D01*
X175332Y636977D01*
X175289Y636883D01*
X175287Y636863D01*
X175279Y636845D01*
X175261Y636678D01*
X175261Y586391D01*
X175272Y586321D01*
X175274Y586249D01*
X175292Y586200D01*
X175300Y586149D01*
X175334Y586085D01*
X175359Y586018D01*
X175391Y585977D01*
X175416Y585931D01*
X175467Y585882D01*
X175512Y585826D01*
X175556Y585798D01*
X175594Y585762D01*
X175659Y585732D01*
X175719Y585693D01*
X175770Y585680D01*
X175817Y585658D01*
X175888Y585650D01*
X175958Y585633D01*
X176010Y585637D01*
X176061Y585631D01*
X176132Y585646D01*
X176203Y585652D01*
X176251Y585672D01*
X176302Y585683D01*
X176363Y585720D01*
X176429Y585748D01*
X176485Y585793D01*
X176513Y585810D01*
X176528Y585827D01*
X176560Y585853D01*
X176655Y585948D01*
X194340Y603633D01*
X194393Y603707D01*
X194453Y603776D01*
X194465Y603807D01*
X194484Y603833D01*
X194511Y603920D01*
X194545Y604005D01*
X194549Y604046D01*
X194556Y604068D01*
X194555Y604100D01*
X194563Y604171D01*
X194563Y617922D01*
X195878Y621096D01*
X198308Y623526D01*
X201482Y624841D01*
X204918Y624841D01*
X208092Y623526D01*
X210522Y621096D01*
X211837Y617922D01*
X211837Y601278D01*
X211387Y600192D01*
X211372Y600128D01*
X211347Y600067D01*
X211338Y599984D01*
X211331Y599952D01*
X211332Y599933D01*
X211329Y599900D01*
X211329Y599850D01*
X211293Y599814D01*
X211255Y599761D01*
X211209Y599714D01*
X211169Y599642D01*
X211150Y599615D01*
X211144Y599596D01*
X211128Y599567D01*
X210522Y598104D01*
X208092Y595674D01*
X204918Y594359D01*
X201482Y594359D01*
X198308Y595674D01*
X197554Y596428D01*
X197537Y596440D01*
X197525Y596455D01*
X197438Y596512D01*
X197354Y596572D01*
X197335Y596578D01*
X197318Y596588D01*
X197217Y596614D01*
X197119Y596644D01*
X197099Y596644D01*
X197079Y596648D01*
X196977Y596640D01*
X196873Y596638D01*
X196854Y596631D01*
X196834Y596629D01*
X196740Y596589D01*
X196642Y596553D01*
X196626Y596541D01*
X196608Y596533D01*
X196477Y596428D01*
X181326Y581277D01*
X181273Y581203D01*
X181213Y581134D01*
X181201Y581103D01*
X181182Y581077D01*
X181155Y580990D01*
X181121Y580905D01*
X181117Y580864D01*
X181110Y580842D01*
X181111Y580810D01*
X181103Y580739D01*
X181103Y166783D01*
X181117Y166693D01*
X181125Y166602D01*
X181137Y166573D01*
X181142Y166541D01*
X181185Y166460D01*
X181221Y166376D01*
X181247Y166344D01*
X181258Y166323D01*
X181281Y166301D01*
X181326Y166245D01*
X186981Y160590D01*
X187060Y160533D01*
X187135Y160471D01*
X187159Y160462D01*
X187180Y160447D01*
X187273Y160418D01*
X187364Y160383D01*
X187390Y160382D01*
X187415Y160374D01*
X187513Y160377D01*
X187610Y160373D01*
X187635Y160380D01*
X187661Y160381D01*
X187753Y160414D01*
X187846Y160441D01*
X187868Y160456D01*
X187892Y160465D01*
X187969Y160526D01*
X188048Y160581D01*
X188064Y160602D01*
X188084Y160619D01*
X188137Y160701D01*
X188195Y160779D01*
X188203Y160804D01*
X188217Y160826D01*
X188241Y160920D01*
X188271Y161013D01*
X188271Y161039D01*
X188277Y161064D01*
X188270Y161161D01*
X188269Y161259D01*
X188260Y161290D01*
X188258Y161309D01*
X188245Y161340D01*
X188222Y161420D01*
X187803Y162433D01*
X187575Y163577D01*
X201677Y163577D01*
X201677Y155955D01*
X195695Y155955D01*
X193929Y156307D01*
X192916Y156726D01*
X192821Y156749D01*
X192728Y156777D01*
X192702Y156776D01*
X192676Y156782D01*
X192579Y156773D01*
X192482Y156771D01*
X192457Y156762D01*
X192431Y156759D01*
X192343Y156720D01*
X192251Y156686D01*
X192230Y156670D01*
X192207Y156659D01*
X192135Y156594D01*
X192059Y156533D01*
X192045Y156511D01*
X192026Y156493D01*
X191979Y156408D01*
X191926Y156326D01*
X191920Y156300D01*
X191907Y156277D01*
X191890Y156181D01*
X191866Y156087D01*
X191868Y156061D01*
X191863Y156035D01*
X191877Y155939D01*
X191885Y155842D01*
X191895Y155818D01*
X191899Y155792D01*
X191943Y155705D01*
X191981Y155616D01*
X192002Y155590D01*
X192011Y155573D01*
X192034Y155550D01*
X192086Y155485D01*
X199011Y148560D01*
X199085Y148507D01*
X199154Y148447D01*
X199185Y148435D01*
X199211Y148416D01*
X199298Y148389D01*
X199383Y148355D01*
X199424Y148351D01*
X199446Y148344D01*
X199478Y148345D01*
X199549Y148337D01*
X211522Y148337D01*
X214696Y147022D01*
X217126Y144592D01*
X218441Y141418D01*
X218441Y137982D01*
X217126Y134808D01*
X214696Y132378D01*
X211522Y131063D01*
X211487Y131063D01*
X211417Y131052D01*
X211345Y131050D01*
X211296Y131032D01*
X211245Y131024D01*
X211181Y130990D01*
X211114Y130965D01*
X211073Y130933D01*
X211027Y130908D01*
X210978Y130856D01*
X210922Y130812D01*
X210894Y130768D01*
X210858Y130730D01*
X210828Y130665D01*
X210789Y130605D01*
X210776Y130554D01*
X210754Y130507D01*
X210746Y130436D01*
X210729Y130366D01*
X210733Y130314D01*
X210727Y130263D01*
X210742Y130192D01*
X210748Y130121D01*
X210768Y130073D01*
X210779Y130022D01*
X210816Y129961D01*
X210844Y129895D01*
X210889Y129839D01*
X210906Y129811D01*
X210923Y129796D01*
X210949Y129764D01*
X211457Y129256D01*
X211531Y129202D01*
X211600Y129143D01*
X211631Y129131D01*
X211657Y129112D01*
X211744Y129085D01*
X211829Y129051D01*
X211870Y129047D01*
X211892Y129040D01*
X211924Y129041D01*
X211995Y129033D01*
X231489Y129033D01*
X231579Y129047D01*
X231670Y129055D01*
X231699Y129067D01*
X231731Y129072D01*
X231812Y129115D01*
X231896Y129151D01*
X231928Y129177D01*
X231949Y129188D01*
X231971Y129211D01*
X232027Y129256D01*
X232535Y129764D01*
X232577Y129822D01*
X232626Y129874D01*
X232648Y129921D01*
X232679Y129963D01*
X232700Y130032D01*
X232730Y130097D01*
X232736Y130149D01*
X232751Y130199D01*
X232749Y130270D01*
X232757Y130341D01*
X232746Y130392D01*
X232745Y130444D01*
X232720Y130512D01*
X232705Y130582D01*
X232678Y130627D01*
X232660Y130675D01*
X232615Y130731D01*
X232578Y130793D01*
X232539Y130827D01*
X232506Y130867D01*
X232446Y130906D01*
X232392Y130953D01*
X232343Y130972D01*
X232299Y131000D01*
X232230Y131018D01*
X232163Y131045D01*
X232092Y131053D01*
X232061Y131061D01*
X232038Y131059D01*
X231997Y131063D01*
X231678Y131063D01*
X228504Y132378D01*
X226074Y134808D01*
X224759Y137982D01*
X224759Y141418D01*
X226074Y144592D01*
X228504Y147022D01*
X231678Y148337D01*
X248322Y148337D01*
X251496Y147022D01*
X253926Y144592D01*
X254246Y143819D01*
X254270Y143780D01*
X254286Y143737D01*
X254335Y143676D01*
X254376Y143610D01*
X254411Y143581D01*
X254440Y143545D01*
X254505Y143503D01*
X254565Y143453D01*
X254608Y143437D01*
X254647Y143412D01*
X254722Y143393D01*
X254795Y143365D01*
X254841Y143363D01*
X254885Y143352D01*
X254963Y143358D01*
X255041Y143355D01*
X255085Y143368D01*
X255130Y143371D01*
X255202Y143402D01*
X255277Y143423D01*
X255314Y143450D01*
X255357Y143468D01*
X255463Y143553D01*
X255479Y143564D01*
X255482Y143568D01*
X255488Y143572D01*
X256460Y144545D01*
X256472Y144561D01*
X256487Y144574D01*
X256544Y144661D01*
X256604Y144745D01*
X256610Y144764D01*
X256620Y144781D01*
X256646Y144881D01*
X256676Y144980D01*
X256676Y145000D01*
X256680Y145019D01*
X256672Y145122D01*
X256670Y145226D01*
X256663Y145244D01*
X256661Y145264D01*
X256621Y145359D01*
X256585Y145457D01*
X256573Y145472D01*
X256565Y145491D01*
X256460Y145622D01*
X254774Y147308D01*
X253459Y150482D01*
X253459Y153918D01*
X254774Y157092D01*
X257204Y159522D01*
X260378Y160837D01*
X272437Y160837D01*
X272527Y160851D01*
X272618Y160859D01*
X272647Y160871D01*
X272679Y160876D01*
X272760Y160919D01*
X272844Y160955D01*
X272876Y160981D01*
X272897Y160992D01*
X272919Y161015D01*
X272975Y161060D01*
X277652Y165737D01*
X279810Y167895D01*
X281781Y167895D01*
X281871Y167909D01*
X281962Y167917D01*
X281991Y167929D01*
X282023Y167934D01*
X282104Y167977D01*
X282188Y168013D01*
X282220Y168039D01*
X282241Y168050D01*
X282263Y168073D01*
X282319Y168118D01*
X337088Y222887D01*
X337141Y222961D01*
X337201Y223030D01*
X337213Y223061D01*
X337232Y223087D01*
X337259Y223174D01*
X337293Y223259D01*
X337297Y223300D01*
X337304Y223322D01*
X337303Y223354D01*
X337311Y223425D01*
X337311Y234540D01*
X345724Y242953D01*
X345772Y243019D01*
X345781Y243029D01*
X345784Y243034D01*
X345837Y243096D01*
X345849Y243127D01*
X345868Y243153D01*
X345895Y243240D01*
X345929Y243325D01*
X345933Y243366D01*
X345940Y243388D01*
X345939Y243420D01*
X345947Y243491D01*
X345947Y250840D01*
X347417Y254388D01*
X348822Y255793D01*
X348833Y255809D01*
X348849Y255821D01*
X348905Y255909D01*
X348965Y255993D01*
X348971Y256012D01*
X348982Y256028D01*
X349007Y256129D01*
X349038Y256228D01*
X349037Y256248D01*
X349042Y256267D01*
X349034Y256370D01*
X349031Y256474D01*
X349024Y256492D01*
X349023Y256512D01*
X348983Y256607D01*
X348947Y256705D01*
X348934Y256720D01*
X348927Y256738D01*
X348822Y256869D01*
X339597Y266094D01*
X339597Y295402D01*
X339594Y295422D01*
X339596Y295441D01*
X339574Y295543D01*
X339558Y295645D01*
X339548Y295662D01*
X339544Y295682D01*
X339491Y295771D01*
X339442Y295862D01*
X339428Y295876D01*
X339418Y295893D01*
X339339Y295960D01*
X339264Y296032D01*
X339246Y296040D01*
X339231Y296053D01*
X339135Y296092D01*
X339041Y296135D01*
X339021Y296137D01*
X339003Y296145D01*
X338836Y296163D01*
X334578Y296163D01*
X331404Y297478D01*
X328974Y299908D01*
X327659Y303082D01*
X327659Y306518D01*
X328109Y307604D01*
X328124Y307668D01*
X328140Y307707D01*
X328147Y307721D01*
X328167Y307748D01*
X328172Y307766D01*
X328188Y307795D01*
X328974Y309692D01*
X331404Y312122D01*
X334578Y313437D01*
X351222Y313437D01*
X354396Y312122D01*
X356826Y309692D01*
X358141Y306518D01*
X358141Y303082D01*
X356826Y299908D01*
X354396Y297478D01*
X351222Y296163D01*
X346964Y296163D01*
X346944Y296160D01*
X346925Y296162D01*
X346823Y296140D01*
X346721Y296124D01*
X346704Y296114D01*
X346684Y296110D01*
X346595Y296057D01*
X346504Y296008D01*
X346490Y295994D01*
X346473Y295984D01*
X346406Y295905D01*
X346334Y295830D01*
X346326Y295812D01*
X346313Y295797D01*
X346274Y295701D01*
X346231Y295607D01*
X346229Y295587D01*
X346221Y295569D01*
X346203Y295402D01*
X346203Y269145D01*
X346217Y269055D01*
X346225Y268964D01*
X346237Y268935D01*
X346242Y268903D01*
X346285Y268822D01*
X346321Y268738D01*
X346347Y268706D01*
X346358Y268685D01*
X346381Y268663D01*
X346426Y268607D01*
X356237Y258796D01*
X356311Y258743D01*
X356380Y258683D01*
X356411Y258671D01*
X356437Y258652D01*
X356524Y258625D01*
X356609Y258591D01*
X356650Y258587D01*
X356672Y258580D01*
X356704Y258581D01*
X356775Y258573D01*
X357520Y258573D01*
X361068Y257103D01*
X363783Y254388D01*
X365253Y250840D01*
X365253Y231760D01*
X363783Y228212D01*
X361068Y225497D01*
X357520Y224027D01*
X353680Y224027D01*
X350132Y225497D01*
X347417Y228212D01*
X345947Y231760D01*
X345947Y231997D01*
X345936Y232067D01*
X345934Y232139D01*
X345916Y232188D01*
X345908Y232239D01*
X345874Y232303D01*
X345849Y232370D01*
X345817Y232411D01*
X345792Y232457D01*
X345740Y232506D01*
X345696Y232562D01*
X345652Y232590D01*
X345614Y232626D01*
X345549Y232656D01*
X345489Y232695D01*
X345438Y232708D01*
X345391Y232730D01*
X345320Y232738D01*
X345250Y232755D01*
X345198Y232751D01*
X345147Y232757D01*
X345076Y232742D01*
X345005Y232736D01*
X344957Y232716D01*
X344906Y232705D01*
X344845Y232668D01*
X344779Y232640D01*
X344723Y232595D01*
X344695Y232578D01*
X344680Y232561D01*
X344648Y232535D01*
X344140Y232027D01*
X344086Y231953D01*
X344027Y231884D01*
X344015Y231853D01*
X343996Y231827D01*
X343969Y231740D01*
X343935Y231655D01*
X343931Y231614D01*
X343924Y231592D01*
X343925Y231560D01*
X343917Y231489D01*
X343917Y220374D01*
X284832Y161289D01*
X282861Y161289D01*
X282771Y161275D01*
X282680Y161267D01*
X282651Y161255D01*
X282619Y161250D01*
X282538Y161207D01*
X282454Y161171D01*
X282422Y161145D01*
X282401Y161134D01*
X282379Y161111D01*
X282323Y161066D01*
X281026Y159769D01*
X281014Y159753D01*
X280999Y159740D01*
X280943Y159653D01*
X280882Y159569D01*
X280876Y159550D01*
X280866Y159533D01*
X280840Y159433D01*
X280810Y159334D01*
X280810Y159314D01*
X280806Y159295D01*
X280814Y159192D01*
X280816Y159088D01*
X280823Y159070D01*
X280825Y159050D01*
X280865Y158955D01*
X280901Y158857D01*
X280913Y158842D01*
X280921Y158823D01*
X281026Y158692D01*
X282626Y157092D01*
X283941Y153918D01*
X283941Y150482D01*
X282626Y147308D01*
X280196Y144878D01*
X277022Y143563D01*
X265135Y143563D01*
X265045Y143549D01*
X264954Y143541D01*
X264925Y143529D01*
X264893Y143524D01*
X264812Y143481D01*
X264728Y143445D01*
X264696Y143419D01*
X264675Y143408D01*
X264653Y143385D01*
X264597Y143340D01*
X257272Y136015D01*
X255114Y133857D01*
X253291Y133857D01*
X253201Y133843D01*
X253110Y133835D01*
X253080Y133823D01*
X253048Y133818D01*
X252967Y133775D01*
X252883Y133739D01*
X252851Y133713D01*
X252831Y133702D01*
X252812Y133683D01*
X252810Y133682D01*
X252804Y133676D01*
X252753Y133634D01*
X251496Y132378D01*
X248322Y131063D01*
X243491Y131063D01*
X243401Y131049D01*
X243310Y131041D01*
X243281Y131029D01*
X243249Y131024D01*
X243168Y130981D01*
X243084Y130945D01*
X243052Y130919D01*
X243031Y130908D01*
X243009Y130885D01*
X242953Y130840D01*
X241175Y129062D01*
X234540Y122427D01*
X208944Y122427D01*
X200531Y130840D01*
X200457Y130893D01*
X200388Y130953D01*
X200357Y130965D01*
X200331Y130984D01*
X200244Y131011D01*
X200159Y131045D01*
X200118Y131049D01*
X200096Y131056D01*
X200064Y131055D01*
X199993Y131063D01*
X194878Y131063D01*
X191704Y132378D01*
X189274Y134808D01*
X187959Y137982D01*
X187959Y141418D01*
X189274Y144592D01*
X190917Y146235D01*
X190929Y146252D01*
X190944Y146264D01*
X190991Y146336D01*
X191004Y146350D01*
X191012Y146367D01*
X191061Y146435D01*
X191067Y146454D01*
X191077Y146471D01*
X191098Y146552D01*
X191108Y146573D01*
X191110Y146595D01*
X191133Y146670D01*
X191133Y146690D01*
X191137Y146709D01*
X191131Y146788D01*
X191135Y146818D01*
X191129Y146846D01*
X191127Y146916D01*
X191120Y146935D01*
X191118Y146955D01*
X191091Y147019D01*
X191082Y147058D01*
X191063Y147090D01*
X191042Y147147D01*
X191030Y147163D01*
X191022Y147181D01*
X190970Y147246D01*
X190956Y147269D01*
X190941Y147282D01*
X190917Y147312D01*
X176560Y161669D01*
X176502Y161711D01*
X176450Y161760D01*
X176403Y161782D01*
X176361Y161813D01*
X176292Y161834D01*
X176227Y161864D01*
X176175Y161870D01*
X176125Y161885D01*
X176054Y161883D01*
X175983Y161891D01*
X175932Y161880D01*
X175880Y161879D01*
X175812Y161854D01*
X175742Y161839D01*
X175697Y161812D01*
X175649Y161794D01*
X175593Y161749D01*
X175531Y161712D01*
X175497Y161673D01*
X175457Y161640D01*
X175418Y161580D01*
X175371Y161526D01*
X175352Y161477D01*
X175324Y161433D01*
X175306Y161364D01*
X175279Y161297D01*
X175271Y161226D01*
X175263Y161195D01*
X175265Y161172D01*
X175261Y161131D01*
X175261Y135222D01*
X175264Y135202D01*
X175262Y135183D01*
X175284Y135081D01*
X175300Y134979D01*
X175310Y134962D01*
X175314Y134942D01*
X175367Y134853D01*
X175416Y134762D01*
X175430Y134748D01*
X175440Y134731D01*
X175519Y134664D01*
X175594Y134592D01*
X175612Y134584D01*
X175627Y134571D01*
X175723Y134532D01*
X175817Y134489D01*
X175837Y134487D01*
X175855Y134479D01*
X176022Y134461D01*
X181810Y134461D01*
X189220Y131391D01*
X194891Y125720D01*
X197961Y118310D01*
X197961Y112522D01*
X197964Y112502D01*
X197962Y112483D01*
X197984Y112381D01*
X198000Y112279D01*
X198010Y112262D01*
X198014Y112242D01*
X198067Y112153D01*
X198116Y112062D01*
X198130Y112048D01*
X198140Y112031D01*
X198219Y111964D01*
X198294Y111892D01*
X198312Y111884D01*
X198327Y111871D01*
X198423Y111832D01*
X198517Y111789D01*
X198537Y111787D01*
X198555Y111779D01*
X198722Y111761D01*
X582678Y111761D01*
X582698Y111764D01*
G37*
%LPC*%
G36*
X410778Y321563D02*
X410778Y321563D01*
X407604Y322878D01*
X405174Y325308D01*
X403859Y328482D01*
X403859Y331918D01*
X405174Y335092D01*
X407604Y337522D01*
X410778Y338837D01*
X425291Y338837D01*
X425381Y338851D01*
X425472Y338859D01*
X425501Y338871D01*
X425533Y338876D01*
X425614Y338919D01*
X425698Y338955D01*
X425730Y338981D01*
X425751Y338992D01*
X425773Y339015D01*
X425829Y339060D01*
X467390Y380621D01*
X467443Y380695D01*
X467503Y380764D01*
X467515Y380795D01*
X467534Y380821D01*
X467561Y380908D01*
X467595Y380993D01*
X467599Y381034D01*
X467606Y381056D01*
X467605Y381088D01*
X467613Y381159D01*
X467613Y437994D01*
X476406Y446787D01*
X480663Y446787D01*
X480753Y446801D01*
X480844Y446809D01*
X480873Y446821D01*
X480905Y446826D01*
X480986Y446869D01*
X481070Y446905D01*
X481102Y446931D01*
X481123Y446942D01*
X481145Y446965D01*
X481201Y447010D01*
X482459Y448268D01*
X482486Y448305D01*
X482519Y448336D01*
X482557Y448404D01*
X482602Y448467D01*
X482616Y448511D01*
X482638Y448551D01*
X482652Y448628D01*
X482675Y448702D01*
X482673Y448748D01*
X482682Y448793D01*
X482670Y448870D01*
X482668Y448948D01*
X482653Y448991D01*
X482646Y449037D01*
X482611Y449106D01*
X482584Y449179D01*
X482555Y449215D01*
X482534Y449256D01*
X482479Y449310D01*
X482430Y449371D01*
X482391Y449396D01*
X482359Y449428D01*
X482239Y449494D01*
X482223Y449504D01*
X482218Y449506D01*
X482212Y449509D01*
X481804Y449678D01*
X479374Y452108D01*
X478059Y455282D01*
X478059Y458718D01*
X479374Y461892D01*
X481804Y464322D01*
X484978Y465637D01*
X501622Y465637D01*
X504796Y464322D01*
X507226Y461892D01*
X508541Y458718D01*
X508541Y456565D01*
X508555Y456475D01*
X508563Y456384D01*
X508575Y456355D01*
X508580Y456323D01*
X508623Y456242D01*
X508659Y456158D01*
X508685Y456126D01*
X508696Y456105D01*
X508719Y456083D01*
X508764Y456027D01*
X512092Y452699D01*
X512187Y452630D01*
X512281Y452561D01*
X512287Y452559D01*
X512292Y452555D01*
X512403Y452521D01*
X512515Y452484D01*
X512521Y452484D01*
X512527Y452483D01*
X512644Y452486D01*
X512761Y452487D01*
X512768Y452489D01*
X512773Y452489D01*
X512790Y452495D01*
X512922Y452534D01*
X514378Y453137D01*
X531022Y453137D01*
X534196Y451822D01*
X534712Y451306D01*
X534729Y451294D01*
X534741Y451279D01*
X534828Y451223D01*
X534912Y451162D01*
X534931Y451156D01*
X534948Y451146D01*
X535048Y451120D01*
X535147Y451090D01*
X535167Y451090D01*
X535186Y451086D01*
X535289Y451094D01*
X535393Y451096D01*
X535412Y451103D01*
X535432Y451105D01*
X535527Y451145D01*
X535624Y451181D01*
X535640Y451193D01*
X535658Y451201D01*
X535789Y451306D01*
X538128Y453645D01*
X543150Y453645D01*
X545600Y451195D01*
X545616Y451183D01*
X545629Y451168D01*
X545716Y451111D01*
X545800Y451051D01*
X545819Y451045D01*
X545836Y451035D01*
X545936Y451009D01*
X546035Y450979D01*
X546055Y450979D01*
X546074Y450975D01*
X546177Y450983D01*
X546281Y450985D01*
X546300Y450992D01*
X546319Y450994D01*
X546414Y451034D01*
X546512Y451070D01*
X546527Y451082D01*
X546546Y451090D01*
X546677Y451195D01*
X547304Y451822D01*
X550478Y453137D01*
X567122Y453137D01*
X570296Y451822D01*
X572726Y449392D01*
X574041Y446218D01*
X574041Y442782D01*
X572726Y439608D01*
X570296Y437178D01*
X567122Y435863D01*
X550478Y435863D01*
X547304Y437178D01*
X544874Y439608D01*
X543559Y442782D01*
X543559Y443579D01*
X543545Y443669D01*
X543537Y443760D01*
X543525Y443789D01*
X543520Y443821D01*
X543477Y443902D01*
X543441Y443986D01*
X543415Y444018D01*
X543404Y444039D01*
X543381Y444061D01*
X543336Y444117D01*
X541177Y446276D01*
X541161Y446288D01*
X541149Y446303D01*
X541061Y446359D01*
X540978Y446419D01*
X540959Y446425D01*
X540942Y446436D01*
X540841Y446461D01*
X540742Y446492D01*
X540723Y446491D01*
X540703Y446496D01*
X540600Y446488D01*
X540497Y446485D01*
X540478Y446479D01*
X540458Y446477D01*
X540363Y446437D01*
X540266Y446401D01*
X540250Y446389D01*
X540232Y446381D01*
X540101Y446276D01*
X538164Y444339D01*
X538111Y444265D01*
X538051Y444196D01*
X538039Y444165D01*
X538020Y444139D01*
X537993Y444052D01*
X537959Y443967D01*
X537955Y443926D01*
X537948Y443904D01*
X537949Y443872D01*
X537941Y443801D01*
X537941Y442782D01*
X536626Y439608D01*
X534196Y437178D01*
X531022Y435863D01*
X514378Y435863D01*
X511204Y437178D01*
X508774Y439608D01*
X507459Y442782D01*
X507459Y446218D01*
X507784Y447001D01*
X507810Y447113D01*
X507839Y447228D01*
X507838Y447234D01*
X507840Y447241D01*
X507829Y447357D01*
X507820Y447473D01*
X507817Y447479D01*
X507817Y447485D01*
X507769Y447593D01*
X507723Y447700D01*
X507719Y447706D01*
X507717Y447710D01*
X507704Y447724D01*
X507619Y447831D01*
X505822Y449627D01*
X505806Y449639D01*
X505793Y449654D01*
X505706Y449711D01*
X505622Y449771D01*
X505603Y449777D01*
X505586Y449787D01*
X505486Y449813D01*
X505387Y449843D01*
X505367Y449843D01*
X505348Y449847D01*
X505245Y449839D01*
X505141Y449837D01*
X505123Y449830D01*
X505103Y449828D01*
X505008Y449788D01*
X504910Y449752D01*
X504895Y449740D01*
X504876Y449732D01*
X504823Y449689D01*
X501622Y448363D01*
X492211Y448363D01*
X492121Y448349D01*
X492030Y448341D01*
X492001Y448329D01*
X491969Y448324D01*
X491888Y448281D01*
X491804Y448245D01*
X491772Y448219D01*
X491751Y448208D01*
X491729Y448185D01*
X491673Y448140D01*
X485069Y441536D01*
X485027Y441478D01*
X484978Y441426D01*
X484956Y441379D01*
X484925Y441337D01*
X484904Y441268D01*
X484874Y441203D01*
X484868Y441151D01*
X484853Y441101D01*
X484855Y441030D01*
X484847Y440959D01*
X484858Y440908D01*
X484859Y440856D01*
X484884Y440788D01*
X484899Y440718D01*
X484926Y440673D01*
X484944Y440625D01*
X484989Y440569D01*
X485026Y440507D01*
X485065Y440473D01*
X485098Y440433D01*
X485158Y440394D01*
X485212Y440347D01*
X485261Y440328D01*
X485305Y440300D01*
X485374Y440282D01*
X485441Y440255D01*
X485512Y440247D01*
X485543Y440239D01*
X485566Y440241D01*
X485607Y440237D01*
X501622Y440237D01*
X504796Y438922D01*
X507226Y436492D01*
X508541Y433318D01*
X508541Y431419D01*
X508555Y431329D01*
X508563Y431238D01*
X508575Y431209D01*
X508580Y431177D01*
X508623Y431096D01*
X508659Y431012D01*
X508685Y430980D01*
X508696Y430959D01*
X508719Y430937D01*
X508764Y430881D01*
X512272Y427373D01*
X512367Y427305D01*
X512461Y427235D01*
X512467Y427233D01*
X512472Y427229D01*
X512583Y427195D01*
X512694Y427159D01*
X512701Y427159D01*
X512707Y427157D01*
X512823Y427160D01*
X512940Y427161D01*
X512948Y427163D01*
X512953Y427163D01*
X512970Y427170D01*
X513101Y427208D01*
X514378Y427737D01*
X531022Y427737D01*
X534196Y426422D01*
X534585Y426033D01*
X534602Y426021D01*
X534614Y426006D01*
X534701Y425949D01*
X534785Y425889D01*
X534804Y425883D01*
X534821Y425873D01*
X534922Y425847D01*
X535020Y425817D01*
X535040Y425817D01*
X535060Y425813D01*
X535162Y425821D01*
X535266Y425823D01*
X535285Y425830D01*
X535305Y425832D01*
X535400Y425872D01*
X535497Y425908D01*
X535513Y425920D01*
X535531Y425928D01*
X535662Y426033D01*
X538128Y428499D01*
X543150Y428499D01*
X545308Y426341D01*
X545727Y425922D01*
X545743Y425910D01*
X545756Y425895D01*
X545843Y425838D01*
X545927Y425778D01*
X545946Y425772D01*
X545963Y425762D01*
X546063Y425736D01*
X546162Y425706D01*
X546182Y425706D01*
X546201Y425702D01*
X546304Y425710D01*
X546408Y425712D01*
X546426Y425719D01*
X546446Y425721D01*
X546541Y425761D01*
X546639Y425797D01*
X546654Y425809D01*
X546673Y425817D01*
X546804Y425922D01*
X547304Y426422D01*
X550478Y427737D01*
X567122Y427737D01*
X570296Y426422D01*
X572726Y423992D01*
X574041Y420818D01*
X574041Y417382D01*
X572726Y414208D01*
X570296Y411778D01*
X567122Y410463D01*
X550478Y410463D01*
X547304Y411778D01*
X544874Y414208D01*
X543559Y417382D01*
X543559Y418433D01*
X543545Y418523D01*
X543537Y418614D01*
X543525Y418643D01*
X543520Y418675D01*
X543477Y418756D01*
X543441Y418840D01*
X543415Y418872D01*
X543404Y418893D01*
X543381Y418915D01*
X543336Y418971D01*
X541177Y421130D01*
X541161Y421142D01*
X541149Y421157D01*
X541061Y421213D01*
X540978Y421273D01*
X540959Y421279D01*
X540942Y421290D01*
X540841Y421315D01*
X540742Y421346D01*
X540723Y421345D01*
X540703Y421350D01*
X540600Y421342D01*
X540497Y421339D01*
X540478Y421333D01*
X540458Y421331D01*
X540363Y421291D01*
X540266Y421255D01*
X540250Y421243D01*
X540232Y421235D01*
X540101Y421130D01*
X538450Y419479D01*
X538164Y419193D01*
X538111Y419119D01*
X538051Y419050D01*
X538039Y419020D01*
X538020Y418993D01*
X537993Y418906D01*
X537959Y418821D01*
X537955Y418781D01*
X537948Y418758D01*
X537949Y418726D01*
X537941Y418655D01*
X537941Y417382D01*
X536626Y414208D01*
X534196Y411778D01*
X531022Y410463D01*
X514378Y410463D01*
X511204Y411778D01*
X508774Y414208D01*
X507459Y417382D01*
X507459Y420818D01*
X507858Y421781D01*
X507885Y421895D01*
X507913Y422008D01*
X507913Y422014D01*
X507914Y422020D01*
X507903Y422137D01*
X507894Y422253D01*
X507892Y422259D01*
X507891Y422265D01*
X507844Y422372D01*
X507798Y422479D01*
X507793Y422485D01*
X507791Y422490D01*
X507779Y422503D01*
X507693Y422610D01*
X505949Y424354D01*
X505933Y424366D01*
X505920Y424381D01*
X505833Y424437D01*
X505749Y424498D01*
X505730Y424504D01*
X505713Y424514D01*
X505613Y424540D01*
X505514Y424570D01*
X505494Y424570D01*
X505475Y424574D01*
X505372Y424566D01*
X505268Y424564D01*
X505250Y424557D01*
X505230Y424555D01*
X505134Y424515D01*
X505037Y424479D01*
X505022Y424467D01*
X505003Y424459D01*
X504872Y424354D01*
X504796Y424278D01*
X501622Y422963D01*
X484978Y422963D01*
X481804Y424278D01*
X479374Y426708D01*
X478059Y429882D01*
X478059Y433318D01*
X479374Y436492D01*
X481764Y438882D01*
X481805Y438940D01*
X481855Y438992D01*
X481877Y439039D01*
X481907Y439081D01*
X481928Y439150D01*
X481958Y439215D01*
X481964Y439267D01*
X481979Y439317D01*
X481978Y439388D01*
X481985Y439459D01*
X481974Y439510D01*
X481973Y439562D01*
X481948Y439630D01*
X481933Y439700D01*
X481907Y439745D01*
X481889Y439793D01*
X481844Y439849D01*
X481807Y439911D01*
X481767Y439945D01*
X481735Y439985D01*
X481675Y440024D01*
X481620Y440071D01*
X481572Y440090D01*
X481528Y440118D01*
X481459Y440136D01*
X481392Y440163D01*
X481321Y440171D01*
X481289Y440179D01*
X481266Y440177D01*
X481225Y440181D01*
X479457Y440181D01*
X479367Y440167D01*
X479276Y440159D01*
X479247Y440147D01*
X479215Y440142D01*
X479134Y440099D01*
X479050Y440063D01*
X479018Y440037D01*
X478997Y440026D01*
X478975Y440003D01*
X478919Y439958D01*
X474442Y435481D01*
X474389Y435407D01*
X474329Y435338D01*
X474317Y435307D01*
X474298Y435281D01*
X474271Y435194D01*
X474237Y435109D01*
X474233Y435068D01*
X474226Y435046D01*
X474227Y435014D01*
X474219Y434943D01*
X474219Y378108D01*
X472061Y375950D01*
X432653Y336542D01*
X432641Y336526D01*
X432626Y336513D01*
X432569Y336426D01*
X432509Y336342D01*
X432503Y336323D01*
X432493Y336306D01*
X432467Y336206D01*
X432437Y336107D01*
X432437Y336087D01*
X432433Y336068D01*
X432441Y335965D01*
X432443Y335861D01*
X432450Y335843D01*
X432452Y335823D01*
X432492Y335728D01*
X432528Y335630D01*
X432540Y335615D01*
X432548Y335596D01*
X432653Y335465D01*
X433026Y335092D01*
X434341Y331918D01*
X434341Y328482D01*
X433026Y325308D01*
X430596Y322878D01*
X427422Y321563D01*
X410778Y321563D01*
G37*
%LPD*%
%LPC*%
G36*
X194878Y181863D02*
X194878Y181863D01*
X191704Y183178D01*
X189274Y185608D01*
X187959Y188782D01*
X187959Y192218D01*
X189274Y195392D01*
X191704Y197822D01*
X194878Y199137D01*
X211522Y199137D01*
X214696Y197822D01*
X217126Y195392D01*
X217590Y194273D01*
X217651Y194173D01*
X217711Y194073D01*
X217716Y194069D01*
X217719Y194064D01*
X217809Y193989D01*
X217898Y193913D01*
X217904Y193911D01*
X217909Y193907D01*
X218017Y193865D01*
X218126Y193821D01*
X218134Y193820D01*
X218138Y193819D01*
X218157Y193818D01*
X218293Y193803D01*
X224907Y193803D01*
X225022Y193822D01*
X225138Y193839D01*
X225144Y193841D01*
X225150Y193842D01*
X225252Y193897D01*
X225357Y193950D01*
X225362Y193955D01*
X225367Y193958D01*
X225447Y194042D01*
X225529Y194126D01*
X225533Y194132D01*
X225537Y194136D01*
X225544Y194153D01*
X225610Y194273D01*
X226074Y195392D01*
X228504Y197822D01*
X231678Y199137D01*
X243651Y199137D01*
X243741Y199151D01*
X243832Y199159D01*
X243861Y199171D01*
X243893Y199176D01*
X243974Y199219D01*
X244058Y199255D01*
X244090Y199281D01*
X244111Y199292D01*
X244133Y199315D01*
X244189Y199360D01*
X248974Y204145D01*
X251132Y206303D01*
X253607Y206303D01*
X253722Y206322D01*
X253838Y206339D01*
X253844Y206341D01*
X253850Y206342D01*
X253952Y206397D01*
X254057Y206450D01*
X254062Y206455D01*
X254067Y206458D01*
X254147Y206541D01*
X254229Y206626D01*
X254233Y206632D01*
X254237Y206636D01*
X254244Y206653D01*
X254310Y206773D01*
X254774Y207892D01*
X257204Y210322D01*
X260378Y211637D01*
X277022Y211637D01*
X280196Y210322D01*
X280485Y210033D01*
X280502Y210021D01*
X280514Y210006D01*
X280601Y209949D01*
X280685Y209889D01*
X280704Y209883D01*
X280721Y209873D01*
X280822Y209847D01*
X280920Y209817D01*
X280940Y209817D01*
X280960Y209813D01*
X281062Y209821D01*
X281166Y209823D01*
X281185Y209830D01*
X281205Y209832D01*
X281299Y209872D01*
X281397Y209908D01*
X281413Y209920D01*
X281431Y209928D01*
X281562Y210033D01*
X288574Y217045D01*
X288617Y217105D01*
X288657Y217146D01*
X288664Y217161D01*
X288687Y217188D01*
X288699Y217219D01*
X288718Y217245D01*
X288745Y217332D01*
X288757Y217362D01*
X288760Y217369D01*
X288760Y217371D01*
X288779Y217417D01*
X288783Y217458D01*
X288790Y217480D01*
X288789Y217512D01*
X288797Y217583D01*
X288797Y491958D01*
X305348Y508509D01*
X311872Y508509D01*
X317693Y502688D01*
X317709Y502676D01*
X317722Y502660D01*
X317809Y502604D01*
X317893Y502544D01*
X317912Y502538D01*
X317929Y502527D01*
X318029Y502502D01*
X318128Y502472D01*
X318148Y502472D01*
X318167Y502467D01*
X318270Y502475D01*
X318374Y502478D01*
X318393Y502485D01*
X318412Y502487D01*
X318507Y502527D01*
X318605Y502563D01*
X318620Y502575D01*
X318639Y502583D01*
X318670Y502608D01*
X321878Y503937D01*
X338522Y503937D01*
X341696Y502622D01*
X344126Y500192D01*
X345441Y497018D01*
X345441Y493582D01*
X344126Y490408D01*
X341696Y487978D01*
X338522Y486663D01*
X321878Y486663D01*
X318704Y487978D01*
X316274Y490408D01*
X314959Y493582D01*
X314959Y495764D01*
X314945Y495855D01*
X314937Y495945D01*
X314925Y495975D01*
X314920Y496007D01*
X314877Y496088D01*
X314841Y496172D01*
X314815Y496204D01*
X314804Y496225D01*
X314781Y496247D01*
X314736Y496303D01*
X309359Y501680D01*
X309285Y501733D01*
X309215Y501793D01*
X309185Y501805D01*
X309159Y501824D01*
X309072Y501851D01*
X308987Y501885D01*
X308946Y501889D01*
X308924Y501896D01*
X308892Y501895D01*
X308820Y501903D01*
X308400Y501903D01*
X308309Y501889D01*
X308219Y501881D01*
X308189Y501869D01*
X308157Y501864D01*
X308076Y501821D01*
X307992Y501785D01*
X307960Y501759D01*
X307939Y501748D01*
X307917Y501725D01*
X307861Y501680D01*
X295626Y489445D01*
X295573Y489371D01*
X295513Y489301D01*
X295501Y489271D01*
X295482Y489245D01*
X295455Y489158D01*
X295421Y489073D01*
X295417Y489032D01*
X295410Y489010D01*
X295411Y488978D01*
X295403Y488906D01*
X295403Y214532D01*
X284164Y203293D01*
X284111Y203219D01*
X284051Y203150D01*
X284039Y203119D01*
X284020Y203093D01*
X283993Y203006D01*
X283959Y202921D01*
X283955Y202880D01*
X283948Y202858D01*
X283949Y202826D01*
X283941Y202755D01*
X283941Y201282D01*
X282626Y198108D01*
X280196Y195678D01*
X277022Y194363D01*
X260378Y194363D01*
X257204Y195678D01*
X254774Y198108D01*
X254479Y198820D01*
X254455Y198859D01*
X254439Y198902D01*
X254390Y198963D01*
X254350Y199029D01*
X254314Y199058D01*
X254285Y199094D01*
X254220Y199136D01*
X254160Y199186D01*
X254117Y199202D01*
X254079Y199227D01*
X254003Y199246D01*
X253930Y199274D01*
X253885Y199276D01*
X253840Y199287D01*
X253763Y199281D01*
X253685Y199284D01*
X253641Y199271D01*
X253595Y199268D01*
X253523Y199237D01*
X253448Y199216D01*
X253411Y199190D01*
X253369Y199172D01*
X253262Y199086D01*
X253246Y199076D01*
X253243Y199071D01*
X253238Y199067D01*
X252283Y198112D01*
X252271Y198096D01*
X252256Y198083D01*
X252199Y197996D01*
X252139Y197912D01*
X252133Y197893D01*
X252123Y197876D01*
X252097Y197776D01*
X252067Y197677D01*
X252067Y197657D01*
X252063Y197638D01*
X252071Y197535D01*
X252073Y197431D01*
X252080Y197413D01*
X252082Y197393D01*
X252122Y197298D01*
X252158Y197200D01*
X252170Y197185D01*
X252178Y197166D01*
X252283Y197035D01*
X253926Y195392D01*
X255241Y192218D01*
X255241Y188782D01*
X253926Y185608D01*
X251496Y183178D01*
X248322Y181863D01*
X231678Y181863D01*
X228504Y183178D01*
X226074Y185608D01*
X225610Y186727D01*
X225549Y186827D01*
X225489Y186927D01*
X225484Y186931D01*
X225481Y186936D01*
X225391Y187011D01*
X225302Y187087D01*
X225296Y187089D01*
X225291Y187093D01*
X225183Y187135D01*
X225074Y187179D01*
X225066Y187180D01*
X225062Y187181D01*
X225043Y187182D01*
X224907Y187197D01*
X218293Y187197D01*
X218178Y187178D01*
X218062Y187161D01*
X218056Y187159D01*
X218050Y187158D01*
X217948Y187103D01*
X217843Y187050D01*
X217838Y187045D01*
X217833Y187042D01*
X217753Y186958D01*
X217671Y186874D01*
X217667Y186868D01*
X217663Y186864D01*
X217656Y186847D01*
X217590Y186727D01*
X217126Y185608D01*
X214696Y183178D01*
X211522Y181863D01*
X194878Y181863D01*
G37*
%LPD*%
%LPC*%
G36*
X403254Y287019D02*
X403254Y287019D01*
X394461Y295812D01*
X394461Y302355D01*
X394447Y302445D01*
X394439Y302536D01*
X394427Y302565D01*
X394422Y302597D01*
X394379Y302678D01*
X394343Y302762D01*
X394317Y302794D01*
X394306Y302815D01*
X394283Y302837D01*
X394238Y302893D01*
X350391Y346740D01*
X350317Y346793D01*
X350248Y346853D01*
X350217Y346865D01*
X350191Y346884D01*
X350104Y346911D01*
X350019Y346945D01*
X349978Y346949D01*
X349956Y346956D01*
X349924Y346955D01*
X349853Y346963D01*
X334578Y346963D01*
X331404Y348278D01*
X328974Y350708D01*
X327659Y353882D01*
X327659Y357318D01*
X328974Y360492D01*
X331404Y362922D01*
X334578Y364237D01*
X351222Y364237D01*
X354396Y362922D01*
X356826Y360492D01*
X358141Y357318D01*
X358141Y353882D01*
X356823Y350700D01*
X356822Y350699D01*
X356807Y350687D01*
X356751Y350600D01*
X356690Y350516D01*
X356684Y350497D01*
X356674Y350480D01*
X356648Y350379D01*
X356618Y350281D01*
X356618Y350261D01*
X356614Y350242D01*
X356622Y350139D01*
X356624Y350035D01*
X356631Y350016D01*
X356633Y349996D01*
X356673Y349901D01*
X356709Y349804D01*
X356721Y349788D01*
X356729Y349770D01*
X356834Y349639D01*
X401067Y305406D01*
X401067Y298863D01*
X401081Y298773D01*
X401089Y298682D01*
X401101Y298653D01*
X401106Y298621D01*
X401149Y298540D01*
X401185Y298456D01*
X401211Y298424D01*
X401222Y298403D01*
X401245Y298381D01*
X401290Y298325D01*
X405767Y293848D01*
X405841Y293795D01*
X405910Y293735D01*
X405941Y293723D01*
X405967Y293704D01*
X406054Y293677D01*
X406139Y293643D01*
X406180Y293639D01*
X406202Y293632D01*
X406234Y293633D01*
X406305Y293625D01*
X448659Y293625D01*
X448749Y293639D01*
X448840Y293647D01*
X448869Y293659D01*
X448901Y293664D01*
X448982Y293707D01*
X449066Y293743D01*
X449098Y293769D01*
X449119Y293780D01*
X449141Y293803D01*
X449197Y293848D01*
X479377Y324028D01*
X479389Y324044D01*
X479404Y324057D01*
X479460Y324144D01*
X479521Y324228D01*
X479527Y324247D01*
X479537Y324264D01*
X479563Y324364D01*
X479593Y324463D01*
X479593Y324483D01*
X479597Y324502D01*
X479589Y324605D01*
X479587Y324709D01*
X479580Y324727D01*
X479578Y324747D01*
X479538Y324843D01*
X479502Y324940D01*
X479490Y324955D01*
X479482Y324974D01*
X479377Y325105D01*
X479374Y325108D01*
X478059Y328282D01*
X478059Y331718D01*
X479374Y334892D01*
X481804Y337322D01*
X484978Y338637D01*
X501622Y338637D01*
X504796Y337322D01*
X507226Y334892D01*
X508028Y332957D01*
X508089Y332857D01*
X508149Y332757D01*
X508154Y332753D01*
X508157Y332748D01*
X508247Y332673D01*
X508336Y332597D01*
X508342Y332595D01*
X508347Y332591D01*
X508455Y332549D01*
X508564Y332505D01*
X508572Y332504D01*
X508576Y332503D01*
X508595Y332502D01*
X508731Y332487D01*
X508860Y332487D01*
X514987Y326360D01*
X515061Y326307D01*
X515130Y326247D01*
X515161Y326235D01*
X515187Y326216D01*
X515274Y326189D01*
X515359Y326155D01*
X515400Y326151D01*
X515422Y326144D01*
X515454Y326145D01*
X515525Y326137D01*
X531022Y326137D01*
X534196Y324822D01*
X535220Y323798D01*
X535237Y323786D01*
X535249Y323771D01*
X535336Y323715D01*
X535420Y323654D01*
X535439Y323648D01*
X535456Y323638D01*
X535556Y323612D01*
X535655Y323582D01*
X535675Y323582D01*
X535694Y323578D01*
X535797Y323586D01*
X535901Y323588D01*
X535920Y323595D01*
X535940Y323597D01*
X536035Y323637D01*
X536132Y323673D01*
X536148Y323685D01*
X536166Y323693D01*
X536297Y323798D01*
X538128Y325629D01*
X543150Y325629D01*
X545092Y323687D01*
X545108Y323675D01*
X545121Y323660D01*
X545208Y323604D01*
X545292Y323543D01*
X545311Y323537D01*
X545328Y323527D01*
X545428Y323501D01*
X545527Y323471D01*
X545547Y323471D01*
X545566Y323467D01*
X545669Y323475D01*
X545773Y323477D01*
X545791Y323484D01*
X545811Y323486D01*
X545906Y323526D01*
X546004Y323562D01*
X546019Y323574D01*
X546038Y323582D01*
X546169Y323687D01*
X547304Y324822D01*
X550478Y326137D01*
X567122Y326137D01*
X570296Y324822D01*
X572726Y322392D01*
X574041Y319218D01*
X574041Y315782D01*
X573917Y315483D01*
X573894Y315388D01*
X573866Y315295D01*
X573867Y315269D01*
X573861Y315243D01*
X573870Y315146D01*
X573872Y315049D01*
X573877Y315035D01*
X573844Y315018D01*
X573825Y314999D01*
X573803Y314986D01*
X573740Y314912D01*
X573672Y314843D01*
X573656Y314814D01*
X573643Y314799D01*
X573631Y314768D01*
X573591Y314696D01*
X572726Y312608D01*
X570296Y310178D01*
X567122Y308863D01*
X550478Y308863D01*
X547304Y310178D01*
X544874Y312608D01*
X543549Y315806D01*
X543515Y315862D01*
X543489Y315922D01*
X543437Y315987D01*
X543420Y316015D01*
X543405Y316027D01*
X543384Y316053D01*
X541177Y318260D01*
X541161Y318272D01*
X541149Y318287D01*
X541061Y318343D01*
X540978Y318403D01*
X540959Y318409D01*
X540942Y318420D01*
X540841Y318445D01*
X540742Y318476D01*
X540723Y318475D01*
X540703Y318480D01*
X540600Y318472D01*
X540497Y318469D01*
X540478Y318463D01*
X540458Y318461D01*
X540363Y318421D01*
X540266Y318385D01*
X540250Y318373D01*
X540232Y318365D01*
X540101Y318260D01*
X538164Y316323D01*
X538111Y316249D01*
X538051Y316180D01*
X538039Y316149D01*
X538020Y316123D01*
X537993Y316036D01*
X537985Y316016D01*
X537969Y315981D01*
X537968Y315973D01*
X537959Y315951D01*
X537955Y315910D01*
X537948Y315888D01*
X537949Y315856D01*
X537941Y315785D01*
X537941Y315782D01*
X536626Y312608D01*
X534196Y310178D01*
X531022Y308863D01*
X514378Y308863D01*
X511204Y310178D01*
X508774Y312608D01*
X507459Y315782D01*
X507459Y319218D01*
X508825Y322516D01*
X508851Y322628D01*
X508880Y322743D01*
X508880Y322749D01*
X508881Y322755D01*
X508870Y322872D01*
X508861Y322988D01*
X508859Y322994D01*
X508858Y323000D01*
X508810Y323107D01*
X508765Y323214D01*
X508760Y323220D01*
X508758Y323225D01*
X508746Y323238D01*
X508660Y323345D01*
X507600Y324405D01*
X507584Y324417D01*
X507571Y324432D01*
X507484Y324489D01*
X507400Y324549D01*
X507381Y324555D01*
X507364Y324565D01*
X507264Y324591D01*
X507165Y324621D01*
X507145Y324621D01*
X507126Y324625D01*
X507023Y324617D01*
X506919Y324615D01*
X506901Y324608D01*
X506881Y324606D01*
X506786Y324566D01*
X506688Y324530D01*
X506673Y324518D01*
X506654Y324510D01*
X506523Y324405D01*
X504796Y322678D01*
X501622Y321363D01*
X486369Y321363D01*
X486279Y321349D01*
X486188Y321341D01*
X486159Y321329D01*
X486127Y321324D01*
X486046Y321281D01*
X485962Y321245D01*
X485930Y321219D01*
X485909Y321208D01*
X485887Y321185D01*
X485831Y321140D01*
X451710Y287019D01*
X403254Y287019D01*
G37*
%LPD*%
%LPC*%
G36*
X411595Y371855D02*
X411595Y371855D01*
X409829Y372207D01*
X408164Y372896D01*
X406666Y373897D01*
X405393Y375170D01*
X404392Y376668D01*
X403674Y378402D01*
X403653Y378436D01*
X403633Y378491D01*
X403631Y378493D01*
X403630Y378496D01*
X403570Y378570D01*
X403544Y378611D01*
X403522Y378629D01*
X403479Y378683D01*
X403477Y378685D01*
X403475Y378687D01*
X403380Y378747D01*
X403355Y378768D01*
X403337Y378775D01*
X403272Y378816D01*
X403269Y378817D01*
X403267Y378818D01*
X403152Y378847D01*
X403146Y378848D01*
X403125Y378856D01*
X403112Y378856D01*
X403033Y378876D01*
X403031Y378876D01*
X403028Y378877D01*
X402908Y378867D01*
X402896Y378866D01*
X402880Y378866D01*
X402870Y378864D01*
X402788Y378857D01*
X402786Y378856D01*
X402783Y378856D01*
X402672Y378808D01*
X402660Y378803D01*
X402643Y378798D01*
X402635Y378792D01*
X402562Y378761D01*
X402559Y378759D01*
X402558Y378758D01*
X402551Y378752D01*
X402431Y378656D01*
X401793Y378018D01*
X399179Y376935D01*
X396349Y376935D01*
X393735Y378018D01*
X391734Y380019D01*
X390651Y382633D01*
X390651Y385463D01*
X391734Y388077D01*
X393735Y390078D01*
X393991Y390184D01*
X394090Y390245D01*
X394191Y390306D01*
X394195Y390310D01*
X394200Y390314D01*
X394274Y390403D01*
X394351Y390492D01*
X394353Y390498D01*
X394357Y390503D01*
X394399Y390611D01*
X394443Y390721D01*
X394444Y390728D01*
X394445Y390733D01*
X394446Y390751D01*
X394461Y390887D01*
X394461Y482949D01*
X394447Y483039D01*
X394439Y483130D01*
X394427Y483159D01*
X394422Y483191D01*
X394379Y483272D01*
X394343Y483356D01*
X394317Y483388D01*
X394306Y483409D01*
X394283Y483431D01*
X394238Y483487D01*
X283067Y594658D01*
X282973Y594726D01*
X282879Y594796D01*
X282873Y594798D01*
X282867Y594802D01*
X282757Y594836D01*
X282645Y594872D01*
X282638Y594872D01*
X282632Y594874D01*
X282516Y594871D01*
X282399Y594870D01*
X282392Y594868D01*
X282387Y594868D01*
X282369Y594861D01*
X282238Y594823D01*
X281118Y594359D01*
X277682Y594359D01*
X274508Y595674D01*
X272078Y598104D01*
X270763Y601278D01*
X270763Y617922D01*
X272078Y621096D01*
X274508Y623526D01*
X277682Y624841D01*
X281118Y624841D01*
X284292Y623526D01*
X286722Y621096D01*
X288037Y617922D01*
X288037Y601278D01*
X287573Y600158D01*
X287546Y600045D01*
X287518Y599931D01*
X287518Y599925D01*
X287517Y599919D01*
X287528Y599802D01*
X287537Y599686D01*
X287539Y599680D01*
X287540Y599674D01*
X287588Y599566D01*
X287633Y599460D01*
X287638Y599454D01*
X287640Y599449D01*
X287653Y599436D01*
X287738Y599329D01*
X401067Y486000D01*
X401067Y390887D01*
X401085Y390773D01*
X401103Y390656D01*
X401105Y390651D01*
X401106Y390645D01*
X401161Y390542D01*
X401214Y390437D01*
X401219Y390433D01*
X401222Y390427D01*
X401306Y390347D01*
X401390Y390265D01*
X401396Y390261D01*
X401400Y390258D01*
X401417Y390250D01*
X401537Y390184D01*
X401793Y390078D01*
X403794Y388077D01*
X404192Y387117D01*
X404216Y387078D01*
X404232Y387035D01*
X404280Y386974D01*
X404321Y386908D01*
X404357Y386878D01*
X404385Y386843D01*
X404451Y386801D01*
X404511Y386751D01*
X404554Y386734D01*
X404592Y386710D01*
X404668Y386691D01*
X404740Y386663D01*
X404786Y386661D01*
X404831Y386650D01*
X404908Y386656D01*
X404986Y386652D01*
X405030Y386665D01*
X405076Y386669D01*
X405148Y386699D01*
X405222Y386721D01*
X405260Y386747D01*
X405302Y386765D01*
X405409Y386850D01*
X405424Y386861D01*
X405427Y386865D01*
X405433Y386870D01*
X406666Y388103D01*
X408164Y389104D01*
X409829Y389793D01*
X411595Y390145D01*
X417577Y390145D01*
X417577Y381762D01*
X417580Y381742D01*
X417578Y381723D01*
X417600Y381621D01*
X417617Y381519D01*
X417626Y381502D01*
X417630Y381482D01*
X417683Y381393D01*
X417732Y381302D01*
X417746Y381288D01*
X417756Y381271D01*
X417835Y381204D01*
X417910Y381133D01*
X417928Y381124D01*
X417943Y381111D01*
X418039Y381073D01*
X418133Y381029D01*
X418153Y381027D01*
X418171Y381019D01*
X418338Y381001D01*
X419101Y381001D01*
X419101Y380999D01*
X418338Y380999D01*
X418318Y380996D01*
X418299Y380998D01*
X418197Y380976D01*
X418095Y380959D01*
X418078Y380950D01*
X418058Y380946D01*
X417969Y380893D01*
X417878Y380844D01*
X417864Y380830D01*
X417847Y380820D01*
X417780Y380741D01*
X417709Y380666D01*
X417700Y380648D01*
X417687Y380633D01*
X417648Y380537D01*
X417605Y380443D01*
X417603Y380423D01*
X417595Y380405D01*
X417577Y380238D01*
X417577Y371855D01*
X411595Y371855D01*
G37*
%LPD*%
%LPC*%
G36*
X410778Y397763D02*
X410778Y397763D01*
X407604Y399078D01*
X405174Y401508D01*
X403859Y404682D01*
X403859Y408118D01*
X405174Y411292D01*
X407604Y413722D01*
X410778Y415037D01*
X426053Y415037D01*
X426143Y415051D01*
X426234Y415059D01*
X426263Y415071D01*
X426295Y415076D01*
X426376Y415119D01*
X426460Y415155D01*
X426492Y415181D01*
X426513Y415192D01*
X426535Y415215D01*
X426591Y415260D01*
X467390Y456059D01*
X467443Y456133D01*
X467503Y456202D01*
X467515Y456233D01*
X467534Y456259D01*
X467561Y456346D01*
X467571Y456371D01*
X467585Y456402D01*
X467586Y456408D01*
X467595Y456431D01*
X467599Y456472D01*
X467606Y456494D01*
X467605Y456526D01*
X467613Y456597D01*
X467613Y463140D01*
X480139Y475666D01*
X480151Y475682D01*
X480166Y475695D01*
X480223Y475782D01*
X480283Y475866D01*
X480289Y475885D01*
X480299Y475902D01*
X480325Y476002D01*
X480355Y476101D01*
X480355Y476121D01*
X480359Y476140D01*
X480351Y476243D01*
X480349Y476347D01*
X480342Y476365D01*
X480340Y476385D01*
X480300Y476480D01*
X480264Y476578D01*
X480252Y476593D01*
X480244Y476612D01*
X480139Y476743D01*
X479374Y477508D01*
X478059Y480682D01*
X478059Y484118D01*
X479374Y487292D01*
X481804Y489722D01*
X484978Y491037D01*
X501622Y491037D01*
X504796Y489722D01*
X507226Y487292D01*
X507712Y486119D01*
X507774Y486019D01*
X507834Y485919D01*
X507838Y485915D01*
X507842Y485910D01*
X507931Y485835D01*
X508020Y485759D01*
X508026Y485757D01*
X508031Y485753D01*
X508139Y485711D01*
X508249Y485667D01*
X508256Y485666D01*
X508261Y485665D01*
X508279Y485664D01*
X508415Y485649D01*
X508860Y485649D01*
X515749Y478760D01*
X515823Y478707D01*
X515892Y478647D01*
X515923Y478635D01*
X515949Y478616D01*
X516036Y478589D01*
X516121Y478555D01*
X516162Y478551D01*
X516184Y478544D01*
X516216Y478545D01*
X516287Y478537D01*
X531022Y478537D01*
X534196Y477222D01*
X534839Y476579D01*
X534856Y476567D01*
X534868Y476552D01*
X534955Y476496D01*
X535039Y476435D01*
X535058Y476429D01*
X535075Y476419D01*
X535175Y476393D01*
X535274Y476363D01*
X535294Y476363D01*
X535313Y476359D01*
X535416Y476367D01*
X535520Y476369D01*
X535539Y476376D01*
X535559Y476378D01*
X535654Y476418D01*
X535751Y476454D01*
X535767Y476466D01*
X535785Y476474D01*
X535916Y476579D01*
X538128Y478791D01*
X543150Y478791D01*
X545473Y476468D01*
X545489Y476456D01*
X545502Y476441D01*
X545589Y476384D01*
X545673Y476324D01*
X545692Y476318D01*
X545709Y476308D01*
X545809Y476282D01*
X545908Y476252D01*
X545928Y476252D01*
X545947Y476248D01*
X546050Y476256D01*
X546154Y476258D01*
X546173Y476265D01*
X546192Y476267D01*
X546287Y476307D01*
X546385Y476343D01*
X546400Y476355D01*
X546419Y476363D01*
X546550Y476468D01*
X547304Y477222D01*
X550478Y478537D01*
X567122Y478537D01*
X570296Y477222D01*
X572726Y474792D01*
X574041Y471618D01*
X574041Y468182D01*
X572726Y465008D01*
X570296Y462578D01*
X567122Y461263D01*
X550478Y461263D01*
X547304Y462578D01*
X544874Y465008D01*
X543559Y468182D01*
X543559Y468725D01*
X543545Y468815D01*
X543537Y468906D01*
X543525Y468935D01*
X543520Y468967D01*
X543477Y469048D01*
X543441Y469132D01*
X543415Y469164D01*
X543404Y469185D01*
X543381Y469207D01*
X543336Y469263D01*
X541177Y471422D01*
X541161Y471434D01*
X541149Y471449D01*
X541061Y471505D01*
X540978Y471565D01*
X540959Y471571D01*
X540942Y471582D01*
X540841Y471607D01*
X540742Y471638D01*
X540723Y471637D01*
X540703Y471642D01*
X540600Y471634D01*
X540497Y471631D01*
X540478Y471625D01*
X540458Y471623D01*
X540363Y471583D01*
X540266Y471547D01*
X540250Y471535D01*
X540232Y471527D01*
X540101Y471422D01*
X538164Y469485D01*
X538111Y469411D01*
X538051Y469342D01*
X538039Y469311D01*
X538020Y469285D01*
X537993Y469198D01*
X537959Y469113D01*
X537955Y469072D01*
X537948Y469050D01*
X537949Y469018D01*
X537941Y468947D01*
X537941Y468182D01*
X536626Y465008D01*
X534196Y462578D01*
X531022Y461263D01*
X514378Y461263D01*
X511204Y462578D01*
X508774Y465008D01*
X507459Y468182D01*
X507459Y471618D01*
X508774Y474792D01*
X509036Y475054D01*
X509048Y475071D01*
X509063Y475083D01*
X509120Y475170D01*
X509180Y475254D01*
X509186Y475273D01*
X509196Y475290D01*
X509222Y475390D01*
X509252Y475489D01*
X509252Y475509D01*
X509256Y475528D01*
X509248Y475632D01*
X509246Y475735D01*
X509239Y475754D01*
X509237Y475774D01*
X509197Y475869D01*
X509161Y475966D01*
X509149Y475982D01*
X509141Y476000D01*
X509036Y476131D01*
X507981Y477186D01*
X507965Y477198D01*
X507952Y477213D01*
X507865Y477269D01*
X507781Y477330D01*
X507762Y477336D01*
X507745Y477346D01*
X507645Y477372D01*
X507546Y477402D01*
X507526Y477402D01*
X507507Y477406D01*
X507404Y477398D01*
X507300Y477396D01*
X507282Y477389D01*
X507262Y477387D01*
X507167Y477347D01*
X507069Y477311D01*
X507054Y477299D01*
X507035Y477291D01*
X506904Y477186D01*
X504796Y475078D01*
X501622Y473763D01*
X487893Y473763D01*
X487803Y473749D01*
X487712Y473741D01*
X487683Y473729D01*
X487651Y473724D01*
X487570Y473681D01*
X487486Y473645D01*
X487454Y473619D01*
X487433Y473608D01*
X487411Y473585D01*
X487355Y473540D01*
X474442Y460627D01*
X474389Y460553D01*
X474329Y460484D01*
X474317Y460453D01*
X474298Y460427D01*
X474271Y460340D01*
X474237Y460255D01*
X474233Y460214D01*
X474226Y460192D01*
X474227Y460160D01*
X474219Y460089D01*
X474219Y453546D01*
X433034Y412361D01*
X433022Y412345D01*
X433006Y412332D01*
X432950Y412245D01*
X432890Y412161D01*
X432884Y412142D01*
X432874Y412125D01*
X432848Y412025D01*
X432818Y411926D01*
X432818Y411906D01*
X432814Y411887D01*
X432822Y411784D01*
X432824Y411680D01*
X432831Y411662D01*
X432833Y411642D01*
X432873Y411546D01*
X432909Y411449D01*
X432921Y411434D01*
X432929Y411415D01*
X433024Y411296D01*
X434341Y408118D01*
X434341Y404682D01*
X433026Y401508D01*
X430596Y399078D01*
X427422Y397763D01*
X410778Y397763D01*
G37*
%LPD*%
%LPC*%
G36*
X538128Y485901D02*
X538128Y485901D01*
X535662Y488367D01*
X535646Y488379D01*
X535633Y488394D01*
X535566Y488438D01*
X535529Y488469D01*
X535509Y488477D01*
X535462Y488511D01*
X535443Y488517D01*
X535426Y488527D01*
X535326Y488553D01*
X535308Y488558D01*
X535301Y488561D01*
X535298Y488561D01*
X535227Y488583D01*
X535207Y488583D01*
X535188Y488587D01*
X535085Y488579D01*
X534981Y488577D01*
X534962Y488570D01*
X534943Y488568D01*
X534879Y488541D01*
X534870Y488540D01*
X534849Y488529D01*
X534848Y488528D01*
X534750Y488492D01*
X534735Y488480D01*
X534716Y488472D01*
X534666Y488431D01*
X534653Y488425D01*
X534639Y488410D01*
X534585Y488367D01*
X534196Y487978D01*
X531022Y486663D01*
X514378Y486663D01*
X511204Y487978D01*
X508774Y490408D01*
X507459Y493582D01*
X507459Y497018D01*
X508774Y500192D01*
X511204Y502622D01*
X514378Y503937D01*
X515969Y503937D01*
X516039Y503948D01*
X516111Y503950D01*
X516160Y503968D01*
X516211Y503976D01*
X516275Y504010D01*
X516342Y504035D01*
X516383Y504067D01*
X516429Y504092D01*
X516478Y504143D01*
X516534Y504188D01*
X516562Y504232D01*
X516598Y504270D01*
X516628Y504335D01*
X516667Y504395D01*
X516680Y504446D01*
X516702Y504493D01*
X516710Y504564D01*
X516727Y504634D01*
X516723Y504686D01*
X516729Y504737D01*
X516714Y504808D01*
X516708Y504879D01*
X516688Y504927D01*
X516677Y504978D01*
X516640Y505039D01*
X516612Y505105D01*
X516567Y505161D01*
X516550Y505189D01*
X516533Y505204D01*
X516507Y505236D01*
X511459Y510284D01*
X511443Y510296D01*
X511431Y510311D01*
X511343Y510367D01*
X511260Y510427D01*
X511241Y510433D01*
X511224Y510444D01*
X511123Y510469D01*
X511024Y510500D01*
X511005Y510499D01*
X510985Y510504D01*
X510882Y510496D01*
X510779Y510493D01*
X510760Y510487D01*
X510740Y510485D01*
X510645Y510445D01*
X510548Y510409D01*
X510532Y510397D01*
X510514Y510389D01*
X510383Y510284D01*
X508764Y508665D01*
X508711Y508591D01*
X508651Y508522D01*
X508639Y508491D01*
X508620Y508465D01*
X508593Y508378D01*
X508559Y508293D01*
X508555Y508252D01*
X508548Y508230D01*
X508549Y508198D01*
X508541Y508127D01*
X508541Y506082D01*
X507226Y502908D01*
X504796Y500478D01*
X501622Y499163D01*
X484978Y499163D01*
X482617Y500141D01*
X482503Y500168D01*
X482390Y500197D01*
X482383Y500196D01*
X482377Y500198D01*
X482261Y500187D01*
X482144Y500177D01*
X482139Y500175D01*
X482132Y500174D01*
X482025Y500127D01*
X481918Y500081D01*
X481912Y500077D01*
X481908Y500074D01*
X481894Y500062D01*
X481787Y499976D01*
X476856Y495045D01*
X452025Y495045D01*
X451935Y495031D01*
X451844Y495023D01*
X451815Y495011D01*
X451783Y495006D01*
X451702Y494963D01*
X451618Y494927D01*
X451586Y494901D01*
X451565Y494890D01*
X451543Y494867D01*
X451487Y494822D01*
X449424Y492759D01*
X447209Y492759D01*
X447094Y492740D01*
X446978Y492723D01*
X446972Y492721D01*
X446966Y492720D01*
X446863Y492665D01*
X446758Y492612D01*
X446754Y492607D01*
X446748Y492604D01*
X446669Y492520D01*
X446586Y492436D01*
X446583Y492430D01*
X446579Y492426D01*
X446571Y492409D01*
X446505Y492289D01*
X445726Y490408D01*
X443296Y487978D01*
X440122Y486663D01*
X423478Y486663D01*
X420304Y487978D01*
X417874Y490408D01*
X416559Y493582D01*
X416559Y497018D01*
X417874Y500192D01*
X420304Y502622D01*
X423478Y503937D01*
X440122Y503937D01*
X443296Y502622D01*
X445726Y500192D01*
X445814Y499979D01*
X445838Y499940D01*
X445854Y499897D01*
X445903Y499836D01*
X445944Y499770D01*
X445979Y499741D01*
X446008Y499705D01*
X446073Y499663D01*
X446133Y499614D01*
X446176Y499597D01*
X446215Y499572D01*
X446290Y499553D01*
X446363Y499525D01*
X446409Y499523D01*
X446453Y499512D01*
X446531Y499518D01*
X446608Y499515D01*
X446653Y499528D01*
X446698Y499531D01*
X446770Y499562D01*
X446845Y499583D01*
X446883Y499610D01*
X446925Y499628D01*
X447031Y499713D01*
X447047Y499724D01*
X447050Y499728D01*
X447056Y499732D01*
X448974Y501651D01*
X473805Y501651D01*
X473895Y501665D01*
X473986Y501673D01*
X474015Y501685D01*
X474047Y501690D01*
X474128Y501733D01*
X474212Y501769D01*
X474244Y501795D01*
X474265Y501806D01*
X474287Y501829D01*
X474343Y501874D01*
X477844Y505374D01*
X477912Y505469D01*
X477982Y505563D01*
X477984Y505569D01*
X477987Y505574D01*
X478022Y505686D01*
X478058Y505797D01*
X478058Y505803D01*
X478060Y505809D01*
X478057Y505910D01*
X478059Y505931D01*
X478059Y509518D01*
X479374Y512692D01*
X481804Y515122D01*
X484978Y516437D01*
X501622Y516437D01*
X504796Y515122D01*
X504799Y515119D01*
X504816Y515107D01*
X504828Y515092D01*
X504915Y515035D01*
X504999Y514975D01*
X505018Y514969D01*
X505035Y514959D01*
X505136Y514933D01*
X505234Y514903D01*
X505254Y514903D01*
X505274Y514899D01*
X505376Y514907D01*
X505480Y514909D01*
X505499Y514916D01*
X505519Y514918D01*
X505614Y514958D01*
X505711Y514994D01*
X505727Y515006D01*
X505745Y515014D01*
X505876Y515119D01*
X508410Y517653D01*
X513432Y517653D01*
X524511Y506574D01*
X524511Y504698D01*
X524514Y504678D01*
X524512Y504659D01*
X524534Y504557D01*
X524550Y504455D01*
X524560Y504438D01*
X524564Y504418D01*
X524617Y504329D01*
X524666Y504238D01*
X524680Y504224D01*
X524690Y504207D01*
X524769Y504140D01*
X524844Y504068D01*
X524862Y504060D01*
X524877Y504047D01*
X524973Y504008D01*
X525067Y503965D01*
X525087Y503963D01*
X525105Y503955D01*
X525272Y503937D01*
X531022Y503937D01*
X534196Y502622D01*
X536626Y500192D01*
X537941Y497018D01*
X537941Y495745D01*
X537955Y495655D01*
X537963Y495564D01*
X537975Y495535D01*
X537980Y495503D01*
X538023Y495422D01*
X538059Y495338D01*
X538085Y495306D01*
X538096Y495285D01*
X538119Y495263D01*
X538164Y495207D01*
X540101Y493270D01*
X540117Y493258D01*
X540129Y493243D01*
X540217Y493187D01*
X540300Y493127D01*
X540319Y493121D01*
X540336Y493110D01*
X540437Y493085D01*
X540536Y493054D01*
X540555Y493055D01*
X540575Y493050D01*
X540678Y493058D01*
X540781Y493061D01*
X540800Y493067D01*
X540820Y493069D01*
X540915Y493109D01*
X541012Y493145D01*
X541028Y493157D01*
X541046Y493165D01*
X541177Y493270D01*
X543336Y495429D01*
X543389Y495503D01*
X543449Y495572D01*
X543461Y495603D01*
X543480Y495629D01*
X543507Y495716D01*
X543541Y495801D01*
X543545Y495842D01*
X543552Y495864D01*
X543551Y495896D01*
X543559Y495967D01*
X543559Y497018D01*
X544874Y500192D01*
X547304Y502622D01*
X550478Y503937D01*
X567122Y503937D01*
X570296Y502622D01*
X572726Y500192D01*
X574041Y497018D01*
X574041Y493582D01*
X572726Y490408D01*
X570296Y487978D01*
X567122Y486663D01*
X550478Y486663D01*
X547304Y487978D01*
X546804Y488478D01*
X546787Y488490D01*
X546775Y488505D01*
X546688Y488561D01*
X546604Y488622D01*
X546585Y488628D01*
X546568Y488638D01*
X546468Y488664D01*
X546369Y488694D01*
X546349Y488694D01*
X546330Y488698D01*
X546227Y488690D01*
X546123Y488688D01*
X546104Y488681D01*
X546084Y488679D01*
X545989Y488639D01*
X545892Y488603D01*
X545876Y488591D01*
X545858Y488583D01*
X545727Y488478D01*
X543150Y485901D01*
X538128Y485901D01*
G37*
%LPD*%
%LPC*%
G36*
X220374Y483615D02*
X220374Y483615D01*
X218216Y485773D01*
X215892Y488097D01*
X215876Y488109D01*
X215863Y488124D01*
X215776Y488180D01*
X215692Y488241D01*
X215673Y488247D01*
X215656Y488257D01*
X215556Y488283D01*
X215457Y488313D01*
X215437Y488313D01*
X215418Y488317D01*
X215315Y488309D01*
X215211Y488307D01*
X215193Y488300D01*
X215173Y488298D01*
X215078Y488258D01*
X214980Y488222D01*
X214965Y488210D01*
X214946Y488202D01*
X214815Y488097D01*
X214696Y487978D01*
X211522Y486663D01*
X194878Y486663D01*
X191704Y487978D01*
X189274Y490408D01*
X187959Y493582D01*
X187959Y497018D01*
X189274Y500192D01*
X191704Y502622D01*
X194878Y503937D01*
X211522Y503937D01*
X214696Y502622D01*
X217126Y500192D01*
X218441Y497018D01*
X218441Y495205D01*
X218455Y495115D01*
X218463Y495024D01*
X218475Y494995D01*
X218480Y494963D01*
X218523Y494882D01*
X218559Y494798D01*
X218585Y494766D01*
X218596Y494745D01*
X218619Y494723D01*
X218664Y494667D01*
X221204Y492127D01*
X221220Y492115D01*
X221232Y492100D01*
X221320Y492044D01*
X221403Y491984D01*
X221422Y491978D01*
X221439Y491967D01*
X221540Y491942D01*
X221639Y491911D01*
X221658Y491912D01*
X221678Y491907D01*
X221781Y491915D01*
X221884Y491918D01*
X221903Y491924D01*
X221923Y491926D01*
X222018Y491966D01*
X222115Y492002D01*
X222131Y492014D01*
X222149Y492022D01*
X222280Y492127D01*
X224536Y494383D01*
X224589Y494457D01*
X224649Y494526D01*
X224661Y494557D01*
X224680Y494583D01*
X224706Y494669D01*
X224741Y494755D01*
X224745Y494796D01*
X224752Y494818D01*
X224751Y494850D01*
X224759Y494921D01*
X224759Y497018D01*
X226074Y500192D01*
X228504Y502622D01*
X231678Y503937D01*
X236061Y503937D01*
X236151Y503951D01*
X236242Y503959D01*
X236271Y503971D01*
X236303Y503976D01*
X236384Y504019D01*
X236468Y504055D01*
X236500Y504081D01*
X236521Y504092D01*
X236543Y504115D01*
X236599Y504160D01*
X250092Y517653D01*
X252828Y517653D01*
X255743Y514738D01*
X255759Y514726D01*
X255772Y514711D01*
X255859Y514655D01*
X255943Y514594D01*
X255962Y514588D01*
X255979Y514578D01*
X256079Y514552D01*
X256178Y514522D01*
X256198Y514522D01*
X256217Y514518D01*
X256320Y514526D01*
X256424Y514528D01*
X256443Y514535D01*
X256462Y514537D01*
X256557Y514577D01*
X256655Y514613D01*
X256670Y514625D01*
X256689Y514633D01*
X256820Y514738D01*
X257204Y515122D01*
X260378Y516437D01*
X277022Y516437D01*
X280196Y515122D01*
X282626Y512692D01*
X283941Y509518D01*
X283941Y506082D01*
X282626Y502908D01*
X280196Y500478D01*
X277022Y499163D01*
X260378Y499163D01*
X257204Y500478D01*
X254774Y502908D01*
X253459Y506082D01*
X253459Y507365D01*
X253445Y507455D01*
X253437Y507546D01*
X253425Y507575D01*
X253420Y507607D01*
X253377Y507688D01*
X253341Y507772D01*
X253315Y507804D01*
X253304Y507825D01*
X253281Y507847D01*
X253236Y507903D01*
X251998Y509141D01*
X251982Y509153D01*
X251970Y509168D01*
X251882Y509224D01*
X251799Y509284D01*
X251780Y509290D01*
X251763Y509301D01*
X251662Y509326D01*
X251563Y509357D01*
X251544Y509356D01*
X251524Y509361D01*
X251421Y509353D01*
X251318Y509350D01*
X251299Y509344D01*
X251279Y509342D01*
X251184Y509302D01*
X251087Y509266D01*
X251071Y509254D01*
X251053Y509246D01*
X250922Y509141D01*
X247017Y505236D01*
X246975Y505178D01*
X246926Y505126D01*
X246904Y505079D01*
X246873Y505037D01*
X246852Y504968D01*
X246822Y504903D01*
X246816Y504851D01*
X246801Y504801D01*
X246803Y504730D01*
X246795Y504659D01*
X246806Y504608D01*
X246807Y504556D01*
X246832Y504488D01*
X246847Y504418D01*
X246874Y504373D01*
X246892Y504325D01*
X246937Y504269D01*
X246974Y504207D01*
X247013Y504173D01*
X247046Y504133D01*
X247106Y504094D01*
X247160Y504047D01*
X247209Y504028D01*
X247253Y504000D01*
X247322Y503982D01*
X247389Y503955D01*
X247460Y503947D01*
X247491Y503939D01*
X247514Y503941D01*
X247555Y503937D01*
X248322Y503937D01*
X251496Y502622D01*
X253926Y500192D01*
X255241Y497018D01*
X255241Y493582D01*
X253926Y490408D01*
X251496Y487978D01*
X248322Y486663D01*
X231678Y486663D01*
X228500Y487980D01*
X228498Y487982D01*
X228411Y488038D01*
X228327Y488099D01*
X228308Y488105D01*
X228291Y488115D01*
X228190Y488141D01*
X228092Y488171D01*
X228072Y488171D01*
X228053Y488175D01*
X227950Y488167D01*
X227846Y488165D01*
X227827Y488158D01*
X227807Y488156D01*
X227713Y488116D01*
X227615Y488080D01*
X227599Y488068D01*
X227581Y488060D01*
X227450Y487955D01*
X223110Y483615D01*
X220374Y483615D01*
G37*
%LPD*%
%LPC*%
G36*
X194878Y385063D02*
X194878Y385063D01*
X191704Y386378D01*
X189274Y388808D01*
X187959Y391982D01*
X187959Y395418D01*
X189274Y398592D01*
X191704Y401022D01*
X194878Y402337D01*
X211522Y402337D01*
X214704Y401019D01*
X214705Y401018D01*
X214717Y401003D01*
X214804Y400946D01*
X214888Y400886D01*
X214907Y400880D01*
X214924Y400870D01*
X215025Y400844D01*
X215123Y400814D01*
X215143Y400814D01*
X215163Y400810D01*
X215265Y400818D01*
X215369Y400820D01*
X215388Y400827D01*
X215408Y400829D01*
X215503Y400869D01*
X215600Y400905D01*
X215616Y400917D01*
X215634Y400925D01*
X215765Y401030D01*
X218216Y403481D01*
X220374Y405639D01*
X223110Y405639D01*
X227595Y401154D01*
X227689Y401086D01*
X227783Y401016D01*
X227789Y401014D01*
X227794Y401010D01*
X227906Y400976D01*
X228017Y400940D01*
X228024Y400940D01*
X228030Y400938D01*
X228146Y400941D01*
X228263Y400942D01*
X228270Y400944D01*
X228275Y400944D01*
X228293Y400951D01*
X228424Y400989D01*
X231678Y402337D01*
X248322Y402337D01*
X251496Y401022D01*
X253926Y398592D01*
X254320Y397640D01*
X254345Y397601D01*
X254360Y397558D01*
X254409Y397497D01*
X254450Y397431D01*
X254485Y397401D01*
X254514Y397366D01*
X254580Y397323D01*
X254640Y397274D01*
X254682Y397257D01*
X254721Y397233D01*
X254796Y397214D01*
X254869Y397186D01*
X254915Y397184D01*
X254960Y397173D01*
X255037Y397179D01*
X255115Y397175D01*
X255159Y397188D01*
X255205Y397192D01*
X255276Y397222D01*
X255351Y397244D01*
X255389Y397270D01*
X255431Y397288D01*
X255538Y397373D01*
X255553Y397384D01*
X255556Y397388D01*
X255562Y397393D01*
X256587Y398418D01*
X256599Y398434D01*
X256614Y398447D01*
X256671Y398534D01*
X256731Y398618D01*
X256737Y398637D01*
X256747Y398654D01*
X256773Y398754D01*
X256803Y398853D01*
X256803Y398873D01*
X256807Y398892D01*
X256799Y398995D01*
X256797Y399099D01*
X256790Y399117D01*
X256788Y399137D01*
X256748Y399232D01*
X256712Y399330D01*
X256700Y399345D01*
X256692Y399364D01*
X256587Y399495D01*
X254774Y401308D01*
X253459Y404482D01*
X253459Y407918D01*
X254774Y411092D01*
X257204Y413522D01*
X260378Y414837D01*
X277022Y414837D01*
X280196Y413522D01*
X282626Y411092D01*
X283941Y407918D01*
X283941Y404482D01*
X282626Y401308D01*
X280196Y398878D01*
X277022Y397563D01*
X265389Y397563D01*
X265299Y397549D01*
X265208Y397541D01*
X265179Y397529D01*
X265147Y397524D01*
X265066Y397481D01*
X264982Y397445D01*
X264950Y397419D01*
X264929Y397408D01*
X264907Y397385D01*
X264851Y397340D01*
X259558Y392047D01*
X257400Y389889D01*
X254883Y389889D01*
X254768Y389871D01*
X254652Y389853D01*
X254646Y389851D01*
X254640Y389850D01*
X254537Y389795D01*
X254432Y389742D01*
X254428Y389737D01*
X254422Y389734D01*
X254341Y389649D01*
X254260Y389566D01*
X254256Y389560D01*
X254253Y389556D01*
X254245Y389539D01*
X254179Y389419D01*
X253926Y388808D01*
X251496Y386378D01*
X248322Y385063D01*
X231678Y385063D01*
X228504Y386378D01*
X226074Y388808D01*
X224759Y391982D01*
X224759Y394333D01*
X224745Y394423D01*
X224737Y394514D01*
X224725Y394543D01*
X224720Y394575D01*
X224677Y394656D01*
X224641Y394740D01*
X224615Y394772D01*
X224604Y394793D01*
X224581Y394815D01*
X224536Y394871D01*
X222280Y397127D01*
X222264Y397139D01*
X222252Y397154D01*
X222164Y397210D01*
X222081Y397270D01*
X222062Y397276D01*
X222045Y397287D01*
X221944Y397312D01*
X221845Y397343D01*
X221826Y397342D01*
X221806Y397347D01*
X221703Y397339D01*
X221600Y397336D01*
X221581Y397330D01*
X221561Y397328D01*
X221466Y397288D01*
X221369Y397252D01*
X221353Y397240D01*
X221335Y397232D01*
X221204Y397127D01*
X218664Y394587D01*
X218611Y394513D01*
X218551Y394444D01*
X218539Y394413D01*
X218520Y394387D01*
X218493Y394300D01*
X218459Y394215D01*
X218455Y394174D01*
X218448Y394152D01*
X218449Y394120D01*
X218441Y394049D01*
X218441Y391982D01*
X217126Y388808D01*
X214696Y386378D01*
X211522Y385063D01*
X194878Y385063D01*
G37*
%LPD*%
%LPC*%
G36*
X514378Y131063D02*
X514378Y131063D01*
X512203Y131964D01*
X512089Y131991D01*
X511976Y132019D01*
X511970Y132019D01*
X511964Y132020D01*
X511847Y132009D01*
X511731Y132000D01*
X511725Y131998D01*
X511719Y131997D01*
X511612Y131950D01*
X511505Y131904D01*
X511499Y131899D01*
X511494Y131897D01*
X511481Y131885D01*
X511374Y131799D01*
X511146Y131571D01*
X508410Y131571D01*
X496641Y143340D01*
X496567Y143393D01*
X496498Y143453D01*
X496467Y143465D01*
X496441Y143484D01*
X496354Y143511D01*
X496269Y143545D01*
X496228Y143549D01*
X496206Y143556D01*
X496174Y143555D01*
X496103Y143563D01*
X484978Y143563D01*
X481804Y144878D01*
X479374Y147308D01*
X478059Y150482D01*
X478059Y153918D01*
X479374Y157092D01*
X481804Y159522D01*
X484978Y160837D01*
X501622Y160837D01*
X504796Y159522D01*
X507226Y157092D01*
X508541Y153918D01*
X508541Y150482D01*
X507226Y147308D01*
X505159Y145241D01*
X505147Y145224D01*
X505132Y145212D01*
X505076Y145125D01*
X505015Y145041D01*
X505009Y145022D01*
X504999Y145005D01*
X504973Y144905D01*
X504943Y144806D01*
X504943Y144786D01*
X504939Y144767D01*
X504947Y144664D01*
X504949Y144560D01*
X504956Y144541D01*
X504958Y144521D01*
X504998Y144426D01*
X505034Y144329D01*
X505046Y144313D01*
X505054Y144295D01*
X505159Y144164D01*
X506784Y142539D01*
X506821Y142512D01*
X506853Y142478D01*
X506921Y142440D01*
X506984Y142395D01*
X507028Y142382D01*
X507068Y142359D01*
X507145Y142346D01*
X507219Y142323D01*
X507265Y142324D01*
X507310Y142316D01*
X507387Y142327D01*
X507465Y142329D01*
X507508Y142345D01*
X507553Y142351D01*
X507623Y142387D01*
X507696Y142413D01*
X507732Y142442D01*
X507773Y142463D01*
X507827Y142519D01*
X507888Y142567D01*
X507913Y142606D01*
X507945Y142639D01*
X508011Y142758D01*
X508021Y142774D01*
X508022Y142779D01*
X508026Y142786D01*
X508774Y144592D01*
X511204Y147022D01*
X514378Y148337D01*
X531022Y148337D01*
X534196Y147022D01*
X536626Y144592D01*
X537941Y141418D01*
X537941Y141415D01*
X537955Y141325D01*
X537963Y141234D01*
X537975Y141204D01*
X537980Y141173D01*
X538023Y141092D01*
X538059Y141008D01*
X538085Y140976D01*
X538096Y140955D01*
X538119Y140933D01*
X538164Y140877D01*
X538450Y140591D01*
X540101Y138940D01*
X540117Y138928D01*
X540129Y138913D01*
X540217Y138857D01*
X540300Y138797D01*
X540319Y138791D01*
X540336Y138780D01*
X540437Y138755D01*
X540536Y138724D01*
X540555Y138725D01*
X540575Y138720D01*
X540678Y138728D01*
X540781Y138731D01*
X540800Y138737D01*
X540820Y138739D01*
X540915Y138779D01*
X541012Y138815D01*
X541028Y138827D01*
X541046Y138835D01*
X541177Y138940D01*
X543384Y141147D01*
X543423Y141200D01*
X543469Y141247D01*
X543509Y141320D01*
X543528Y141347D01*
X543534Y141365D01*
X543549Y141394D01*
X544874Y144592D01*
X547304Y147022D01*
X550478Y148337D01*
X567122Y148337D01*
X570296Y147022D01*
X572726Y144592D01*
X574041Y141418D01*
X574041Y137982D01*
X572726Y134808D01*
X570296Y132378D01*
X567122Y131063D01*
X550478Y131063D01*
X547304Y132378D01*
X546169Y133513D01*
X546152Y133525D01*
X546140Y133540D01*
X546053Y133597D01*
X545969Y133657D01*
X545950Y133663D01*
X545933Y133673D01*
X545832Y133699D01*
X545734Y133729D01*
X545714Y133729D01*
X545694Y133733D01*
X545592Y133725D01*
X545488Y133723D01*
X545469Y133716D01*
X545449Y133714D01*
X545354Y133674D01*
X545257Y133638D01*
X545241Y133626D01*
X545223Y133618D01*
X545092Y133513D01*
X543150Y131571D01*
X538128Y131571D01*
X536297Y133402D01*
X536281Y133414D01*
X536268Y133429D01*
X536181Y133485D01*
X536097Y133546D01*
X536078Y133552D01*
X536061Y133562D01*
X535961Y133588D01*
X535862Y133618D01*
X535842Y133618D01*
X535823Y133622D01*
X535720Y133614D01*
X535616Y133612D01*
X535598Y133605D01*
X535578Y133603D01*
X535483Y133563D01*
X535385Y133527D01*
X535370Y133515D01*
X535351Y133507D01*
X535220Y133402D01*
X534196Y132378D01*
X531022Y131063D01*
X514378Y131063D01*
G37*
%LPD*%
%LPC*%
G36*
X220374Y280161D02*
X220374Y280161D01*
X215765Y284770D01*
X215749Y284782D01*
X215736Y284798D01*
X215649Y284854D01*
X215565Y284914D01*
X215546Y284920D01*
X215529Y284930D01*
X215429Y284956D01*
X215330Y284986D01*
X215310Y284986D01*
X215291Y284990D01*
X215188Y284982D01*
X215084Y284980D01*
X215066Y284973D01*
X215046Y284971D01*
X214950Y284931D01*
X214853Y284895D01*
X214838Y284883D01*
X214819Y284875D01*
X214700Y284780D01*
X211522Y283463D01*
X194878Y283463D01*
X191704Y284778D01*
X189274Y287208D01*
X187959Y290382D01*
X187959Y293818D01*
X189274Y296992D01*
X191704Y299422D01*
X194878Y300737D01*
X211522Y300737D01*
X214696Y299422D01*
X217126Y296992D01*
X218441Y293818D01*
X218441Y291751D01*
X218455Y291661D01*
X218463Y291570D01*
X218475Y291541D01*
X218480Y291509D01*
X218523Y291428D01*
X218559Y291344D01*
X218585Y291312D01*
X218596Y291291D01*
X218619Y291269D01*
X218664Y291213D01*
X221204Y288673D01*
X221220Y288661D01*
X221232Y288646D01*
X221320Y288590D01*
X221403Y288530D01*
X221422Y288524D01*
X221439Y288513D01*
X221540Y288488D01*
X221639Y288457D01*
X221658Y288458D01*
X221678Y288453D01*
X221781Y288461D01*
X221884Y288464D01*
X221903Y288470D01*
X221923Y288472D01*
X222018Y288512D01*
X222115Y288548D01*
X222131Y288560D01*
X222149Y288568D01*
X222280Y288673D01*
X224536Y290929D01*
X224589Y291003D01*
X224649Y291072D01*
X224661Y291103D01*
X224680Y291129D01*
X224707Y291216D01*
X224741Y291301D01*
X224745Y291342D01*
X224752Y291364D01*
X224751Y291396D01*
X224759Y291467D01*
X224759Y293818D01*
X226074Y296992D01*
X228504Y299422D01*
X231678Y300737D01*
X248322Y300737D01*
X251496Y299422D01*
X253154Y297764D01*
X253171Y297752D01*
X253183Y297737D01*
X253270Y297680D01*
X253354Y297620D01*
X253373Y297614D01*
X253390Y297604D01*
X253491Y297578D01*
X253589Y297548D01*
X253609Y297548D01*
X253629Y297544D01*
X253731Y297552D01*
X253835Y297554D01*
X253854Y297561D01*
X253874Y297563D01*
X253968Y297603D01*
X254066Y297639D01*
X254082Y297651D01*
X254100Y297659D01*
X254231Y297764D01*
X254936Y298469D01*
X254948Y298485D01*
X254963Y298498D01*
X255020Y298585D01*
X255080Y298669D01*
X255086Y298688D01*
X255096Y298705D01*
X255122Y298805D01*
X255152Y298904D01*
X255152Y298924D01*
X255156Y298943D01*
X255148Y299046D01*
X255146Y299150D01*
X255139Y299168D01*
X255137Y299188D01*
X255097Y299283D01*
X255061Y299381D01*
X255049Y299396D01*
X255041Y299415D01*
X254963Y299512D01*
X254959Y299519D01*
X254954Y299523D01*
X254936Y299546D01*
X254774Y299708D01*
X253459Y302882D01*
X253459Y306318D01*
X254774Y309492D01*
X257204Y311922D01*
X260378Y313237D01*
X277022Y313237D01*
X280196Y311922D01*
X282626Y309492D01*
X283941Y306318D01*
X283941Y302882D01*
X282626Y299708D01*
X280196Y297278D01*
X277022Y295963D01*
X262087Y295963D01*
X261997Y295949D01*
X261906Y295941D01*
X261877Y295929D01*
X261845Y295924D01*
X261764Y295881D01*
X261680Y295845D01*
X261648Y295819D01*
X261627Y295808D01*
X261605Y295785D01*
X261549Y295740D01*
X255079Y289270D01*
X255072Y289269D01*
X255067Y289267D01*
X255061Y289266D01*
X254958Y289211D01*
X254853Y289158D01*
X254849Y289153D01*
X254843Y289150D01*
X254763Y289066D01*
X254681Y288982D01*
X254677Y288976D01*
X254674Y288972D01*
X254666Y288955D01*
X254600Y288835D01*
X253926Y287208D01*
X251496Y284778D01*
X248322Y283463D01*
X231678Y283463D01*
X228424Y284811D01*
X228311Y284838D01*
X228197Y284866D01*
X228191Y284866D01*
X228185Y284867D01*
X228068Y284856D01*
X227952Y284847D01*
X227946Y284845D01*
X227940Y284844D01*
X227832Y284796D01*
X227726Y284751D01*
X227720Y284746D01*
X227715Y284744D01*
X227701Y284731D01*
X227595Y284646D01*
X225268Y282319D01*
X223110Y280161D01*
X220374Y280161D01*
G37*
%LPD*%
%LPC*%
G36*
X194878Y359663D02*
X194878Y359663D01*
X191704Y360978D01*
X189274Y363408D01*
X187959Y366582D01*
X187959Y370018D01*
X189274Y373192D01*
X191704Y375622D01*
X194878Y376937D01*
X211522Y376937D01*
X214696Y375622D01*
X217126Y373192D01*
X217512Y372261D01*
X217536Y372222D01*
X217552Y372179D01*
X217600Y372118D01*
X217641Y372052D01*
X217677Y372023D01*
X217705Y371987D01*
X217771Y371945D01*
X217831Y371895D01*
X217874Y371879D01*
X217912Y371854D01*
X217988Y371835D01*
X218060Y371807D01*
X218106Y371805D01*
X218151Y371794D01*
X218228Y371800D01*
X218306Y371796D01*
X218350Y371809D01*
X218396Y371813D01*
X218468Y371843D01*
X218542Y371865D01*
X218580Y371891D01*
X218622Y371909D01*
X218729Y371995D01*
X218744Y372005D01*
X218747Y372009D01*
X218753Y372014D01*
X220374Y373635D01*
X223110Y373635D01*
X224530Y372215D01*
X224567Y372188D01*
X224598Y372154D01*
X224666Y372117D01*
X224730Y372071D01*
X224774Y372058D01*
X224814Y372036D01*
X224890Y372022D01*
X224965Y371999D01*
X225011Y372000D01*
X225056Y371992D01*
X225133Y372003D01*
X225211Y372005D01*
X225254Y372021D01*
X225299Y372028D01*
X225369Y372063D01*
X225442Y372090D01*
X225478Y372118D01*
X225518Y372139D01*
X225573Y372195D01*
X225634Y372243D01*
X225659Y372282D01*
X225691Y372315D01*
X225757Y372435D01*
X225767Y372450D01*
X225768Y372455D01*
X225772Y372462D01*
X226074Y373192D01*
X228504Y375622D01*
X231678Y376937D01*
X248322Y376937D01*
X251496Y375622D01*
X253926Y373192D01*
X254246Y372419D01*
X254270Y372380D01*
X254286Y372337D01*
X254335Y372276D01*
X254376Y372210D01*
X254411Y372181D01*
X254440Y372145D01*
X254505Y372103D01*
X254565Y372053D01*
X254608Y372037D01*
X254647Y372012D01*
X254722Y371993D01*
X254795Y371965D01*
X254841Y371963D01*
X254885Y371952D01*
X254963Y371958D01*
X255040Y371955D01*
X255085Y371968D01*
X255130Y371971D01*
X255202Y372002D01*
X255277Y372023D01*
X255314Y372050D01*
X255357Y372068D01*
X255463Y372153D01*
X255479Y372164D01*
X255482Y372168D01*
X255488Y372172D01*
X256460Y373145D01*
X256472Y373161D01*
X256487Y373174D01*
X256544Y373261D01*
X256604Y373345D01*
X256610Y373364D01*
X256620Y373381D01*
X256646Y373481D01*
X256676Y373580D01*
X256676Y373600D01*
X256680Y373619D01*
X256672Y373722D01*
X256670Y373826D01*
X256663Y373845D01*
X256661Y373864D01*
X256621Y373959D01*
X256585Y374057D01*
X256573Y374072D01*
X256565Y374091D01*
X256460Y374222D01*
X254774Y375908D01*
X253459Y379082D01*
X253459Y382518D01*
X254774Y385692D01*
X257204Y388122D01*
X257935Y388425D01*
X257981Y388453D01*
X258057Y388475D01*
X260378Y389437D01*
X277022Y389437D01*
X280196Y388122D01*
X282626Y385692D01*
X283941Y382518D01*
X283941Y379082D01*
X282626Y375908D01*
X280196Y373478D01*
X277022Y372163D01*
X265135Y372163D01*
X265045Y372149D01*
X264954Y372141D01*
X264925Y372129D01*
X264893Y372124D01*
X264812Y372081D01*
X264728Y372045D01*
X264696Y372019D01*
X264675Y372008D01*
X264653Y371985D01*
X264597Y371940D01*
X257400Y364743D01*
X254988Y364743D01*
X254873Y364724D01*
X254757Y364707D01*
X254751Y364705D01*
X254745Y364704D01*
X254643Y364649D01*
X254538Y364596D01*
X254533Y364591D01*
X254528Y364588D01*
X254448Y364504D01*
X254365Y364420D01*
X254362Y364414D01*
X254358Y364410D01*
X254350Y364393D01*
X254284Y364273D01*
X253926Y363408D01*
X251496Y360978D01*
X248322Y359663D01*
X231678Y359663D01*
X228504Y360978D01*
X227248Y362234D01*
X227174Y362287D01*
X227104Y362347D01*
X227074Y362359D01*
X227048Y362378D01*
X226961Y362405D01*
X226876Y362439D01*
X226835Y362443D01*
X226813Y362450D01*
X226781Y362449D01*
X226709Y362457D01*
X224946Y362457D01*
X222280Y365123D01*
X222264Y365135D01*
X222252Y365150D01*
X222164Y365206D01*
X222081Y365266D01*
X222062Y365272D01*
X222045Y365283D01*
X221944Y365308D01*
X221845Y365339D01*
X221826Y365338D01*
X221806Y365343D01*
X221703Y365335D01*
X221600Y365332D01*
X221581Y365326D01*
X221561Y365324D01*
X221466Y365284D01*
X221369Y365248D01*
X221353Y365236D01*
X221335Y365228D01*
X221204Y365123D01*
X220824Y364743D01*
X218188Y364743D01*
X218073Y364724D01*
X217957Y364707D01*
X217951Y364705D01*
X217945Y364704D01*
X217843Y364649D01*
X217738Y364596D01*
X217733Y364591D01*
X217728Y364588D01*
X217648Y364504D01*
X217565Y364420D01*
X217562Y364414D01*
X217558Y364410D01*
X217550Y364393D01*
X217484Y364273D01*
X217126Y363408D01*
X214696Y360978D01*
X211522Y359663D01*
X194878Y359663D01*
G37*
%LPD*%
%LPC*%
G36*
X514378Y359663D02*
X514378Y359663D01*
X511204Y360978D01*
X509947Y362234D01*
X509874Y362287D01*
X509804Y362347D01*
X509774Y362359D01*
X509748Y362378D01*
X509661Y362405D01*
X509576Y362439D01*
X509535Y362443D01*
X509513Y362450D01*
X509480Y362449D01*
X509409Y362457D01*
X508410Y362457D01*
X506252Y364615D01*
X498927Y371940D01*
X498853Y371993D01*
X498784Y372053D01*
X498753Y372065D01*
X498727Y372084D01*
X498640Y372111D01*
X498555Y372145D01*
X498514Y372149D01*
X498492Y372156D01*
X498460Y372155D01*
X498389Y372163D01*
X484978Y372163D01*
X481804Y373478D01*
X479374Y375908D01*
X478059Y379082D01*
X478059Y382518D01*
X479374Y385692D01*
X481804Y388122D01*
X484978Y389437D01*
X501622Y389437D01*
X504796Y388122D01*
X507226Y385692D01*
X508541Y382518D01*
X508541Y379082D01*
X507226Y375908D01*
X506302Y374984D01*
X506290Y374967D01*
X506275Y374955D01*
X506218Y374868D01*
X506158Y374784D01*
X506152Y374765D01*
X506142Y374748D01*
X506116Y374647D01*
X506086Y374549D01*
X506086Y374529D01*
X506082Y374509D01*
X506090Y374407D01*
X506092Y374303D01*
X506099Y374284D01*
X506101Y374264D01*
X506141Y374170D01*
X506177Y374072D01*
X506189Y374056D01*
X506197Y374038D01*
X506302Y373907D01*
X507454Y372755D01*
X507491Y372728D01*
X507522Y372694D01*
X507590Y372657D01*
X507653Y372612D01*
X507697Y372598D01*
X507738Y372576D01*
X507814Y372562D01*
X507889Y372539D01*
X507934Y372540D01*
X507980Y372532D01*
X508057Y372543D01*
X508134Y372546D01*
X508178Y372561D01*
X508223Y372568D01*
X508292Y372603D01*
X508365Y372630D01*
X508401Y372659D01*
X508442Y372679D01*
X508497Y372735D01*
X508557Y372784D01*
X508582Y372822D01*
X508614Y372855D01*
X508680Y372975D01*
X508690Y372991D01*
X508692Y372995D01*
X508695Y373002D01*
X508774Y373192D01*
X511204Y375622D01*
X514378Y376937D01*
X531022Y376937D01*
X534196Y375622D01*
X536626Y373192D01*
X537941Y370018D01*
X537941Y370015D01*
X537955Y369925D01*
X537963Y369834D01*
X537975Y369805D01*
X537980Y369773D01*
X538023Y369692D01*
X538059Y369608D01*
X538085Y369576D01*
X538096Y369555D01*
X538119Y369533D01*
X538164Y369477D01*
X540101Y367540D01*
X540117Y367528D01*
X540129Y367513D01*
X540217Y367457D01*
X540300Y367397D01*
X540319Y367391D01*
X540336Y367380D01*
X540437Y367355D01*
X540536Y367324D01*
X540555Y367325D01*
X540575Y367320D01*
X540678Y367328D01*
X540781Y367331D01*
X540800Y367337D01*
X540820Y367339D01*
X540915Y367379D01*
X541012Y367415D01*
X541028Y367427D01*
X541046Y367435D01*
X541177Y367540D01*
X543384Y369747D01*
X543423Y369800D01*
X543469Y369847D01*
X543509Y369920D01*
X543528Y369947D01*
X543534Y369965D01*
X543549Y369994D01*
X544874Y373192D01*
X547304Y375622D01*
X550478Y376937D01*
X567122Y376937D01*
X570296Y375622D01*
X572726Y373192D01*
X573591Y371104D01*
X573642Y371021D01*
X573688Y370936D01*
X573706Y370918D01*
X573720Y370895D01*
X573796Y370833D01*
X573866Y370766D01*
X573879Y370760D01*
X573868Y370724D01*
X573868Y370698D01*
X573861Y370673D01*
X573869Y370576D01*
X573870Y370478D01*
X573879Y370447D01*
X573881Y370428D01*
X573894Y370397D01*
X573917Y370317D01*
X574041Y370018D01*
X574041Y366582D01*
X572726Y363408D01*
X570296Y360978D01*
X567122Y359663D01*
X550478Y359663D01*
X547304Y360978D01*
X546169Y362113D01*
X546152Y362125D01*
X546140Y362140D01*
X546053Y362196D01*
X545969Y362257D01*
X545950Y362263D01*
X545933Y362273D01*
X545833Y362299D01*
X545734Y362329D01*
X545714Y362329D01*
X545695Y362333D01*
X545592Y362325D01*
X545488Y362323D01*
X545469Y362316D01*
X545449Y362314D01*
X545354Y362274D01*
X545257Y362238D01*
X545241Y362226D01*
X545223Y362218D01*
X545092Y362113D01*
X543150Y360171D01*
X538128Y360171D01*
X536297Y362002D01*
X536281Y362014D01*
X536268Y362029D01*
X536199Y362074D01*
X536167Y362102D01*
X536148Y362109D01*
X536097Y362146D01*
X536078Y362152D01*
X536061Y362162D01*
X535961Y362188D01*
X535862Y362218D01*
X535842Y362218D01*
X535823Y362222D01*
X535720Y362214D01*
X535616Y362212D01*
X535597Y362205D01*
X535578Y362203D01*
X535506Y362173D01*
X535503Y362172D01*
X535495Y362168D01*
X535483Y362163D01*
X535385Y362127D01*
X535370Y362115D01*
X535351Y362107D01*
X535296Y362063D01*
X535285Y362057D01*
X535274Y362045D01*
X535220Y362002D01*
X534196Y360978D01*
X531022Y359663D01*
X514378Y359663D01*
G37*
%LPD*%
%LPC*%
G36*
X194878Y334263D02*
X194878Y334263D01*
X191704Y335578D01*
X189274Y338008D01*
X187959Y341182D01*
X187959Y344618D01*
X189274Y347792D01*
X191704Y350222D01*
X194878Y351537D01*
X211522Y351537D01*
X214696Y350222D01*
X217126Y347792D01*
X217437Y347041D01*
X217461Y347002D01*
X217477Y346958D01*
X217526Y346898D01*
X217567Y346832D01*
X217602Y346802D01*
X217631Y346766D01*
X217696Y346724D01*
X217756Y346675D01*
X217799Y346658D01*
X217838Y346633D01*
X217913Y346614D01*
X217986Y346587D01*
X218032Y346585D01*
X218076Y346573D01*
X218154Y346579D01*
X218232Y346576D01*
X218276Y346589D01*
X218322Y346592D01*
X218393Y346623D01*
X218468Y346645D01*
X218506Y346671D01*
X218548Y346689D01*
X218655Y346774D01*
X218670Y346785D01*
X218673Y346789D01*
X218679Y346794D01*
X220374Y348489D01*
X223110Y348489D01*
X224604Y346994D01*
X224642Y346968D01*
X224673Y346934D01*
X224741Y346896D01*
X224804Y346851D01*
X224848Y346837D01*
X224888Y346815D01*
X224965Y346801D01*
X225039Y346779D01*
X225085Y346780D01*
X225130Y346772D01*
X225207Y346783D01*
X225285Y346785D01*
X225328Y346801D01*
X225374Y346807D01*
X225443Y346843D01*
X225516Y346869D01*
X225552Y346898D01*
X225593Y346919D01*
X225647Y346974D01*
X225708Y347023D01*
X225733Y347062D01*
X225765Y347094D01*
X225831Y347214D01*
X225841Y347230D01*
X225842Y347235D01*
X225846Y347241D01*
X226074Y347792D01*
X228504Y350222D01*
X231678Y351537D01*
X248322Y351537D01*
X251496Y350222D01*
X253926Y347792D01*
X254172Y347199D01*
X254196Y347160D01*
X254212Y347117D01*
X254260Y347056D01*
X254301Y346990D01*
X254337Y346961D01*
X254365Y346925D01*
X254431Y346883D01*
X254491Y346833D01*
X254534Y346817D01*
X254572Y346792D01*
X254648Y346773D01*
X254720Y346745D01*
X254766Y346743D01*
X254811Y346732D01*
X254888Y346738D01*
X254966Y346734D01*
X255010Y346747D01*
X255056Y346751D01*
X255128Y346781D01*
X255202Y346803D01*
X255240Y346829D01*
X255282Y346847D01*
X255389Y346933D01*
X255404Y346943D01*
X255407Y346947D01*
X255413Y346952D01*
X256333Y347872D01*
X256345Y347888D01*
X256360Y347901D01*
X256416Y347988D01*
X256477Y348072D01*
X256483Y348091D01*
X256493Y348108D01*
X256519Y348208D01*
X256549Y348307D01*
X256549Y348327D01*
X256553Y348346D01*
X256545Y348449D01*
X256543Y348553D01*
X256536Y348572D01*
X256534Y348591D01*
X256494Y348686D01*
X256458Y348784D01*
X256446Y348799D01*
X256438Y348818D01*
X256333Y348949D01*
X254774Y350508D01*
X253459Y353682D01*
X253459Y357118D01*
X254774Y360292D01*
X257204Y362722D01*
X260378Y364037D01*
X277022Y364037D01*
X280196Y362722D01*
X282626Y360292D01*
X283941Y357118D01*
X283941Y353682D01*
X282626Y350508D01*
X280196Y348078D01*
X277022Y346763D01*
X264881Y346763D01*
X264791Y346749D01*
X264700Y346741D01*
X264671Y346729D01*
X264639Y346724D01*
X264558Y346681D01*
X264474Y346645D01*
X264442Y346619D01*
X264421Y346608D01*
X264399Y346585D01*
X264343Y346540D01*
X257400Y339597D01*
X255093Y339597D01*
X254978Y339578D01*
X254862Y339561D01*
X254856Y339559D01*
X254850Y339558D01*
X254748Y339503D01*
X254643Y339450D01*
X254638Y339445D01*
X254633Y339442D01*
X254553Y339358D01*
X254471Y339274D01*
X254467Y339268D01*
X254463Y339264D01*
X254456Y339247D01*
X254390Y339127D01*
X253926Y338008D01*
X251496Y335578D01*
X248322Y334263D01*
X231678Y334263D01*
X228504Y335578D01*
X226994Y337088D01*
X226920Y337141D01*
X226850Y337201D01*
X226820Y337213D01*
X226794Y337232D01*
X226707Y337259D01*
X226622Y337293D01*
X226581Y337297D01*
X226559Y337304D01*
X226527Y337303D01*
X226455Y337311D01*
X224946Y337311D01*
X222280Y339977D01*
X222264Y339989D01*
X222252Y340004D01*
X222164Y340060D01*
X222081Y340120D01*
X222062Y340126D01*
X222045Y340137D01*
X221944Y340162D01*
X221845Y340193D01*
X221826Y340192D01*
X221806Y340197D01*
X221703Y340189D01*
X221600Y340186D01*
X221581Y340180D01*
X221561Y340178D01*
X221466Y340138D01*
X221369Y340102D01*
X221353Y340090D01*
X221335Y340082D01*
X221204Y339977D01*
X220824Y339597D01*
X218293Y339597D01*
X218178Y339578D01*
X218062Y339561D01*
X218056Y339559D01*
X218050Y339558D01*
X217948Y339503D01*
X217843Y339450D01*
X217838Y339445D01*
X217833Y339442D01*
X217753Y339358D01*
X217671Y339274D01*
X217667Y339268D01*
X217663Y339264D01*
X217656Y339247D01*
X217590Y339127D01*
X217126Y338008D01*
X214696Y335578D01*
X211522Y334263D01*
X194878Y334263D01*
G37*
%LPD*%
%LPC*%
G36*
X194878Y410463D02*
X194878Y410463D01*
X191704Y411778D01*
X189274Y414208D01*
X187959Y417382D01*
X187959Y420818D01*
X189274Y423992D01*
X191704Y426422D01*
X194878Y427737D01*
X211522Y427737D01*
X214696Y426422D01*
X214815Y426303D01*
X214832Y426291D01*
X214844Y426276D01*
X214931Y426219D01*
X215015Y426159D01*
X215034Y426153D01*
X215051Y426143D01*
X215152Y426117D01*
X215250Y426087D01*
X215270Y426087D01*
X215290Y426083D01*
X215392Y426091D01*
X215496Y426093D01*
X215515Y426100D01*
X215535Y426102D01*
X215630Y426142D01*
X215727Y426178D01*
X215743Y426190D01*
X215761Y426198D01*
X215892Y426303D01*
X218216Y428627D01*
X220374Y430785D01*
X223110Y430785D01*
X227450Y426445D01*
X227466Y426433D01*
X227479Y426417D01*
X227566Y426361D01*
X227650Y426301D01*
X227669Y426295D01*
X227686Y426285D01*
X227786Y426259D01*
X227885Y426229D01*
X227905Y426229D01*
X227924Y426224D01*
X228027Y426233D01*
X228131Y426235D01*
X228150Y426242D01*
X228169Y426244D01*
X228264Y426284D01*
X228362Y426320D01*
X228377Y426332D01*
X228396Y426340D01*
X228492Y426417D01*
X231678Y427737D01*
X248322Y427737D01*
X248565Y427636D01*
X248678Y427610D01*
X248792Y427581D01*
X248798Y427581D01*
X248804Y427580D01*
X248921Y427591D01*
X249037Y427600D01*
X249043Y427602D01*
X249049Y427603D01*
X249156Y427651D01*
X249263Y427696D01*
X249269Y427701D01*
X249274Y427703D01*
X249288Y427716D01*
X249394Y427801D01*
X252506Y430913D01*
X253236Y431643D01*
X253289Y431717D01*
X253349Y431786D01*
X253361Y431817D01*
X253380Y431843D01*
X253407Y431930D01*
X253441Y432015D01*
X253445Y432056D01*
X253452Y432078D01*
X253451Y432110D01*
X253459Y432181D01*
X253459Y433318D01*
X254774Y436492D01*
X257204Y438922D01*
X260378Y440237D01*
X277022Y440237D01*
X280196Y438922D01*
X282626Y436492D01*
X283941Y433318D01*
X283941Y429882D01*
X282626Y426708D01*
X280196Y424278D01*
X277022Y422963D01*
X260378Y422963D01*
X257204Y424278D01*
X256747Y424735D01*
X256730Y424747D01*
X256718Y424762D01*
X256631Y424819D01*
X256547Y424879D01*
X256528Y424885D01*
X256511Y424895D01*
X256410Y424921D01*
X256312Y424951D01*
X256292Y424951D01*
X256272Y424955D01*
X256170Y424947D01*
X256066Y424945D01*
X256047Y424938D01*
X256027Y424936D01*
X255933Y424896D01*
X255835Y424860D01*
X255819Y424848D01*
X255801Y424840D01*
X255670Y424735D01*
X254579Y423644D01*
X254536Y423584D01*
X254494Y423540D01*
X254477Y423504D01*
X254441Y423455D01*
X254439Y423449D01*
X254435Y423444D01*
X254408Y423355D01*
X254390Y423317D01*
X254387Y423291D01*
X254365Y423221D01*
X254365Y423215D01*
X254363Y423209D01*
X254366Y423097D01*
X254363Y423072D01*
X254366Y423058D01*
X254367Y422976D01*
X254369Y422968D01*
X254369Y422963D01*
X254376Y422946D01*
X254414Y422814D01*
X255241Y420818D01*
X255241Y417382D01*
X253926Y414208D01*
X251496Y411778D01*
X248322Y410463D01*
X231678Y410463D01*
X228504Y411778D01*
X226074Y414208D01*
X224759Y417382D01*
X224759Y419479D01*
X224745Y419569D01*
X224737Y419660D01*
X224725Y419689D01*
X224720Y419721D01*
X224677Y419802D01*
X224641Y419886D01*
X224615Y419918D01*
X224604Y419939D01*
X224581Y419961D01*
X224536Y420017D01*
X222280Y422273D01*
X222264Y422285D01*
X222252Y422300D01*
X222164Y422356D01*
X222081Y422416D01*
X222062Y422422D01*
X222045Y422433D01*
X221944Y422458D01*
X221845Y422489D01*
X221826Y422488D01*
X221806Y422493D01*
X221703Y422485D01*
X221600Y422482D01*
X221581Y422476D01*
X221561Y422474D01*
X221466Y422434D01*
X221369Y422398D01*
X221353Y422386D01*
X221335Y422378D01*
X221204Y422273D01*
X218664Y419733D01*
X218611Y419659D01*
X218551Y419590D01*
X218539Y419559D01*
X218520Y419533D01*
X218493Y419446D01*
X218459Y419361D01*
X218455Y419320D01*
X218448Y419298D01*
X218449Y419266D01*
X218441Y419195D01*
X218441Y417382D01*
X217126Y414208D01*
X214696Y411778D01*
X211522Y410463D01*
X194878Y410463D01*
G37*
%LPD*%
%LPC*%
G36*
X538128Y257301D02*
X538128Y257301D01*
X535662Y259767D01*
X535646Y259779D01*
X535633Y259794D01*
X535546Y259850D01*
X535462Y259911D01*
X535443Y259917D01*
X535426Y259927D01*
X535326Y259953D01*
X535227Y259983D01*
X535207Y259983D01*
X535188Y259987D01*
X535085Y259979D01*
X534981Y259977D01*
X534963Y259970D01*
X534943Y259968D01*
X534848Y259928D01*
X534750Y259892D01*
X534735Y259880D01*
X534716Y259872D01*
X534585Y259767D01*
X534196Y259378D01*
X531022Y258063D01*
X514378Y258063D01*
X511204Y259378D01*
X508774Y261808D01*
X507459Y264982D01*
X507459Y268418D01*
X508774Y271592D01*
X508909Y271727D01*
X508921Y271744D01*
X508936Y271756D01*
X508993Y271843D01*
X509053Y271927D01*
X509059Y271946D01*
X509069Y271963D01*
X509095Y272064D01*
X509125Y272162D01*
X509125Y272182D01*
X509129Y272202D01*
X509121Y272304D01*
X509119Y272408D01*
X509112Y272427D01*
X509110Y272447D01*
X509070Y272541D01*
X509034Y272639D01*
X509022Y272655D01*
X509014Y272673D01*
X508909Y272804D01*
X507854Y273859D01*
X507838Y273871D01*
X507825Y273886D01*
X507738Y273943D01*
X507654Y274003D01*
X507635Y274009D01*
X507618Y274019D01*
X507518Y274045D01*
X507419Y274075D01*
X507399Y274075D01*
X507380Y274079D01*
X507277Y274071D01*
X507173Y274069D01*
X507155Y274062D01*
X507135Y274060D01*
X507040Y274020D01*
X506942Y273984D01*
X506927Y273972D01*
X506908Y273964D01*
X506777Y273859D01*
X504796Y271878D01*
X501622Y270563D01*
X484978Y270563D01*
X481804Y271878D01*
X479374Y274308D01*
X478059Y277482D01*
X478059Y280918D01*
X479374Y284092D01*
X481804Y286522D01*
X484978Y287837D01*
X501622Y287837D01*
X504796Y286522D01*
X507226Y284092D01*
X507817Y282665D01*
X507879Y282564D01*
X507939Y282465D01*
X507943Y282461D01*
X507947Y282456D01*
X508037Y282381D01*
X508126Y282305D01*
X508131Y282303D01*
X508136Y282299D01*
X508245Y282257D01*
X508354Y282213D01*
X508361Y282212D01*
X508366Y282211D01*
X508384Y282210D01*
X508521Y282195D01*
X508860Y282195D01*
X511018Y280037D01*
X515495Y275560D01*
X515569Y275507D01*
X515638Y275447D01*
X515669Y275435D01*
X515695Y275416D01*
X515782Y275389D01*
X515867Y275355D01*
X515908Y275351D01*
X515930Y275344D01*
X515962Y275345D01*
X516033Y275337D01*
X531022Y275337D01*
X534196Y274022D01*
X536626Y271592D01*
X537941Y268418D01*
X537941Y267145D01*
X537955Y267055D01*
X537963Y266964D01*
X537975Y266935D01*
X537980Y266903D01*
X538023Y266822D01*
X538059Y266738D01*
X538085Y266706D01*
X538096Y266685D01*
X538119Y266663D01*
X538164Y266607D01*
X540101Y264670D01*
X540117Y264658D01*
X540129Y264643D01*
X540217Y264587D01*
X540300Y264527D01*
X540319Y264521D01*
X540336Y264510D01*
X540437Y264485D01*
X540536Y264454D01*
X540555Y264455D01*
X540575Y264450D01*
X540678Y264458D01*
X540781Y264461D01*
X540800Y264467D01*
X540820Y264469D01*
X540915Y264509D01*
X541012Y264545D01*
X541028Y264557D01*
X541046Y264565D01*
X541177Y264670D01*
X543336Y266829D01*
X543389Y266903D01*
X543449Y266972D01*
X543461Y267003D01*
X543480Y267029D01*
X543507Y267116D01*
X543541Y267201D01*
X543545Y267242D01*
X543552Y267264D01*
X543551Y267296D01*
X543559Y267367D01*
X543559Y268418D01*
X544874Y271592D01*
X547304Y274022D01*
X550478Y275337D01*
X567122Y275337D01*
X570296Y274022D01*
X572726Y271592D01*
X574041Y268418D01*
X574041Y264982D01*
X572726Y261808D01*
X570296Y259378D01*
X567122Y258063D01*
X550478Y258063D01*
X547304Y259378D01*
X546804Y259878D01*
X546787Y259890D01*
X546775Y259905D01*
X546688Y259962D01*
X546604Y260022D01*
X546585Y260028D01*
X546568Y260038D01*
X546468Y260064D01*
X546369Y260094D01*
X546349Y260094D01*
X546329Y260098D01*
X546226Y260090D01*
X546123Y260088D01*
X546104Y260081D01*
X546084Y260079D01*
X545989Y260039D01*
X545892Y260003D01*
X545876Y259991D01*
X545858Y259983D01*
X545727Y259878D01*
X545308Y259459D01*
X543150Y257301D01*
X538128Y257301D01*
G37*
%LPD*%
%LPC*%
G36*
X514378Y232663D02*
X514378Y232663D01*
X511204Y233978D01*
X508774Y236408D01*
X507459Y239582D01*
X507459Y243018D01*
X508774Y246192D01*
X509036Y246454D01*
X509048Y246471D01*
X509063Y246483D01*
X509120Y246570D01*
X509180Y246654D01*
X509186Y246673D01*
X509196Y246690D01*
X509222Y246790D01*
X509252Y246889D01*
X509252Y246909D01*
X509256Y246928D01*
X509248Y247032D01*
X509246Y247135D01*
X509239Y247154D01*
X509237Y247174D01*
X509197Y247269D01*
X509161Y247366D01*
X509149Y247382D01*
X509141Y247400D01*
X509036Y247531D01*
X507981Y248586D01*
X507965Y248598D01*
X507952Y248613D01*
X507876Y248663D01*
X507861Y248675D01*
X507852Y248679D01*
X507781Y248730D01*
X507762Y248736D01*
X507745Y248746D01*
X507645Y248772D01*
X507546Y248802D01*
X507526Y248802D01*
X507507Y248806D01*
X507404Y248798D01*
X507300Y248796D01*
X507282Y248789D01*
X507262Y248787D01*
X507167Y248747D01*
X507069Y248711D01*
X507054Y248699D01*
X507035Y248691D01*
X506962Y248633D01*
X506959Y248631D01*
X506955Y248627D01*
X506904Y248586D01*
X504796Y246478D01*
X501622Y245163D01*
X484978Y245163D01*
X481804Y246478D01*
X479374Y248908D01*
X478059Y252082D01*
X478059Y255518D01*
X479374Y258692D01*
X481804Y261122D01*
X484978Y262437D01*
X501622Y262437D01*
X504796Y261122D01*
X507226Y258692D01*
X507712Y257519D01*
X507774Y257419D01*
X507834Y257319D01*
X507838Y257315D01*
X507842Y257310D01*
X507931Y257235D01*
X508020Y257159D01*
X508026Y257157D01*
X508031Y257153D01*
X508139Y257111D01*
X508249Y257067D01*
X508256Y257066D01*
X508261Y257065D01*
X508279Y257064D01*
X508415Y257049D01*
X508860Y257049D01*
X515749Y250160D01*
X515823Y250107D01*
X515892Y250047D01*
X515923Y250035D01*
X515949Y250016D01*
X516036Y249989D01*
X516121Y249955D01*
X516162Y249951D01*
X516184Y249944D01*
X516216Y249945D01*
X516287Y249937D01*
X531022Y249937D01*
X534196Y248622D01*
X534839Y247979D01*
X534856Y247967D01*
X534868Y247952D01*
X534955Y247896D01*
X535039Y247835D01*
X535058Y247829D01*
X535075Y247819D01*
X535175Y247793D01*
X535274Y247763D01*
X535294Y247763D01*
X535313Y247759D01*
X535416Y247767D01*
X535520Y247769D01*
X535539Y247776D01*
X535559Y247778D01*
X535654Y247818D01*
X535751Y247854D01*
X535767Y247866D01*
X535785Y247874D01*
X535916Y247979D01*
X538128Y250191D01*
X543150Y250191D01*
X545308Y248033D01*
X545473Y247868D01*
X545489Y247856D01*
X545502Y247841D01*
X545589Y247785D01*
X545673Y247724D01*
X545692Y247718D01*
X545709Y247708D01*
X545809Y247682D01*
X545908Y247652D01*
X545928Y247652D01*
X545947Y247648D01*
X546050Y247656D01*
X546154Y247658D01*
X546172Y247665D01*
X546192Y247667D01*
X546287Y247707D01*
X546385Y247743D01*
X546400Y247755D01*
X546419Y247763D01*
X546550Y247868D01*
X547304Y248622D01*
X550478Y249937D01*
X567122Y249937D01*
X570296Y248622D01*
X572726Y246192D01*
X574041Y243018D01*
X574041Y239582D01*
X572726Y236408D01*
X570296Y233978D01*
X567122Y232663D01*
X550478Y232663D01*
X547304Y233978D01*
X544874Y236408D01*
X543559Y239582D01*
X543559Y240125D01*
X543545Y240215D01*
X543537Y240306D01*
X543525Y240335D01*
X543520Y240367D01*
X543477Y240448D01*
X543441Y240532D01*
X543415Y240564D01*
X543404Y240585D01*
X543381Y240607D01*
X543336Y240663D01*
X541177Y242822D01*
X541161Y242834D01*
X541149Y242849D01*
X541061Y242905D01*
X540978Y242965D01*
X540959Y242971D01*
X540942Y242982D01*
X540841Y243007D01*
X540742Y243038D01*
X540723Y243037D01*
X540703Y243042D01*
X540600Y243034D01*
X540497Y243031D01*
X540478Y243025D01*
X540458Y243023D01*
X540363Y242983D01*
X540266Y242947D01*
X540250Y242935D01*
X540232Y242927D01*
X540101Y242822D01*
X538164Y240885D01*
X538111Y240811D01*
X538051Y240742D01*
X538039Y240711D01*
X538020Y240685D01*
X537993Y240598D01*
X537959Y240513D01*
X537955Y240472D01*
X537948Y240450D01*
X537949Y240418D01*
X537941Y240347D01*
X537941Y239582D01*
X536626Y236408D01*
X534196Y233978D01*
X531022Y232663D01*
X514378Y232663D01*
G37*
%LPD*%
%LPC*%
G36*
X194878Y232663D02*
X194878Y232663D01*
X191704Y233978D01*
X189274Y236408D01*
X187959Y239582D01*
X187959Y243018D01*
X189274Y246192D01*
X191704Y248622D01*
X194878Y249937D01*
X211522Y249937D01*
X214696Y248622D01*
X216212Y247106D01*
X216229Y247094D01*
X216241Y247079D01*
X216328Y247023D01*
X216412Y246962D01*
X216431Y246956D01*
X216448Y246946D01*
X216548Y246920D01*
X216647Y246890D01*
X216667Y246890D01*
X216686Y246886D01*
X216789Y246894D01*
X216893Y246896D01*
X216912Y246903D01*
X216932Y246905D01*
X217027Y246945D01*
X217124Y246981D01*
X217140Y246993D01*
X217158Y247001D01*
X217289Y247106D01*
X220374Y250191D01*
X227682Y250191D01*
X228672Y249200D01*
X228767Y249133D01*
X228861Y249062D01*
X228867Y249060D01*
X228872Y249057D01*
X228983Y249023D01*
X229095Y248986D01*
X229101Y248986D01*
X229107Y248984D01*
X229224Y248988D01*
X229341Y248989D01*
X229348Y248991D01*
X229353Y248991D01*
X229370Y248997D01*
X229502Y249035D01*
X231678Y249937D01*
X248322Y249937D01*
X251496Y248622D01*
X252900Y247218D01*
X252917Y247206D01*
X252929Y247191D01*
X253016Y247134D01*
X253100Y247074D01*
X253119Y247068D01*
X253136Y247058D01*
X253236Y247032D01*
X253335Y247002D01*
X253355Y247002D01*
X253375Y246998D01*
X253477Y247006D01*
X253581Y247008D01*
X253600Y247015D01*
X253620Y247017D01*
X253715Y247057D01*
X253812Y247093D01*
X253828Y247105D01*
X253846Y247113D01*
X253977Y247218D01*
X254682Y247923D01*
X254694Y247940D01*
X254710Y247952D01*
X254766Y248039D01*
X254826Y248123D01*
X254832Y248142D01*
X254843Y248159D01*
X254868Y248259D01*
X254898Y248358D01*
X254898Y248378D01*
X254903Y248398D01*
X254894Y248500D01*
X254892Y248604D01*
X254885Y248623D01*
X254883Y248643D01*
X254843Y248738D01*
X254833Y248764D01*
X254832Y248768D01*
X254830Y248774D01*
X254807Y248835D01*
X254801Y248842D01*
X253459Y252082D01*
X253459Y255518D01*
X254774Y258692D01*
X257204Y261122D01*
X260378Y262437D01*
X277022Y262437D01*
X280196Y261122D01*
X282626Y258692D01*
X283941Y255518D01*
X283941Y252082D01*
X282626Y248908D01*
X280196Y246478D01*
X277022Y245163D01*
X261579Y245163D01*
X261489Y245149D01*
X261398Y245141D01*
X261369Y245129D01*
X261337Y245124D01*
X261256Y245081D01*
X261172Y245045D01*
X261140Y245019D01*
X261119Y245008D01*
X261097Y244985D01*
X261041Y244940D01*
X257272Y241171D01*
X255035Y238934D01*
X254997Y238881D01*
X254951Y238834D01*
X254911Y238761D01*
X254892Y238735D01*
X254886Y238716D01*
X254870Y238687D01*
X253926Y236408D01*
X251496Y233978D01*
X248322Y232663D01*
X231678Y232663D01*
X228504Y233978D01*
X226074Y236408D01*
X224759Y239582D01*
X224759Y242824D01*
X224756Y242844D01*
X224758Y242863D01*
X224736Y242965D01*
X224720Y243067D01*
X224710Y243084D01*
X224706Y243104D01*
X224653Y243193D01*
X224604Y243284D01*
X224590Y243298D01*
X224580Y243315D01*
X224501Y243382D01*
X224426Y243454D01*
X224408Y243462D01*
X224393Y243475D01*
X224297Y243514D01*
X224203Y243557D01*
X224183Y243559D01*
X224165Y243567D01*
X223998Y243585D01*
X223425Y243585D01*
X223335Y243571D01*
X223244Y243563D01*
X223215Y243551D01*
X223183Y243546D01*
X223102Y243503D01*
X223018Y243467D01*
X222986Y243441D01*
X222965Y243430D01*
X222943Y243407D01*
X222887Y243362D01*
X218506Y238981D01*
X218483Y238977D01*
X218477Y238975D01*
X218471Y238974D01*
X218368Y238919D01*
X218264Y238866D01*
X218259Y238861D01*
X218254Y238858D01*
X218174Y238774D01*
X218091Y238690D01*
X218088Y238684D01*
X218084Y238680D01*
X218076Y238663D01*
X218010Y238543D01*
X217126Y236408D01*
X214696Y233978D01*
X211522Y232663D01*
X194878Y232663D01*
G37*
%LPD*%
%LPC*%
G36*
X194878Y461263D02*
X194878Y461263D01*
X191704Y462578D01*
X189274Y465008D01*
X187959Y468182D01*
X187959Y471618D01*
X189274Y474792D01*
X191704Y477222D01*
X194878Y478537D01*
X211522Y478537D01*
X214696Y477222D01*
X216212Y475706D01*
X216229Y475694D01*
X216241Y475679D01*
X216328Y475622D01*
X216412Y475562D01*
X216431Y475556D01*
X216448Y475546D01*
X216548Y475520D01*
X216647Y475490D01*
X216667Y475490D01*
X216687Y475486D01*
X216789Y475494D01*
X216893Y475496D01*
X216912Y475503D01*
X216932Y475505D01*
X217027Y475545D01*
X217124Y475581D01*
X217140Y475593D01*
X217158Y475601D01*
X217289Y475706D01*
X218216Y476633D01*
X220374Y478791D01*
X227682Y478791D01*
X228672Y477800D01*
X228767Y477733D01*
X228861Y477662D01*
X228867Y477660D01*
X228872Y477657D01*
X228983Y477623D01*
X229095Y477586D01*
X229101Y477586D01*
X229107Y477584D01*
X229224Y477588D01*
X229341Y477589D01*
X229348Y477591D01*
X229353Y477591D01*
X229370Y477597D01*
X229502Y477635D01*
X231678Y478537D01*
X248322Y478537D01*
X251496Y477222D01*
X252900Y475818D01*
X252917Y475806D01*
X252929Y475791D01*
X253016Y475735D01*
X253100Y475674D01*
X253119Y475668D01*
X253136Y475658D01*
X253236Y475632D01*
X253335Y475602D01*
X253355Y475602D01*
X253374Y475598D01*
X253478Y475606D01*
X253581Y475608D01*
X253600Y475615D01*
X253620Y475617D01*
X253715Y475657D01*
X253812Y475693D01*
X253828Y475705D01*
X253846Y475713D01*
X253977Y475818D01*
X254682Y476523D01*
X254694Y476539D01*
X254709Y476552D01*
X254765Y476639D01*
X254826Y476723D01*
X254832Y476742D01*
X254842Y476759D01*
X254868Y476859D01*
X254898Y476958D01*
X254898Y476978D01*
X254902Y476997D01*
X254894Y477100D01*
X254892Y477204D01*
X254885Y477222D01*
X254883Y477242D01*
X254843Y477337D01*
X254833Y477364D01*
X254832Y477368D01*
X254830Y477374D01*
X254807Y477435D01*
X254801Y477442D01*
X253459Y480682D01*
X253459Y484118D01*
X254774Y487292D01*
X257204Y489722D01*
X260378Y491037D01*
X277022Y491037D01*
X280196Y489722D01*
X282626Y487292D01*
X283941Y484118D01*
X283941Y480682D01*
X282626Y477508D01*
X280196Y475078D01*
X277022Y473763D01*
X261579Y473763D01*
X261489Y473749D01*
X261398Y473741D01*
X261369Y473729D01*
X261337Y473724D01*
X261256Y473681D01*
X261172Y473645D01*
X261140Y473619D01*
X261119Y473608D01*
X261097Y473585D01*
X261041Y473540D01*
X257272Y469771D01*
X255035Y467534D01*
X254997Y467481D01*
X254951Y467434D01*
X254911Y467361D01*
X254892Y467335D01*
X254886Y467316D01*
X254870Y467287D01*
X253926Y465008D01*
X251496Y462578D01*
X248322Y461263D01*
X231678Y461263D01*
X228504Y462578D01*
X226074Y465008D01*
X224759Y468182D01*
X224759Y471424D01*
X224756Y471444D01*
X224758Y471463D01*
X224736Y471565D01*
X224720Y471667D01*
X224710Y471684D01*
X224706Y471704D01*
X224653Y471792D01*
X224604Y471884D01*
X224590Y471898D01*
X224580Y471915D01*
X224501Y471982D01*
X224426Y472054D01*
X224408Y472062D01*
X224393Y472075D01*
X224297Y472114D01*
X224203Y472157D01*
X224183Y472159D01*
X224165Y472167D01*
X223998Y472185D01*
X223425Y472185D01*
X223335Y472171D01*
X223244Y472163D01*
X223215Y472151D01*
X223183Y472146D01*
X223102Y472103D01*
X223018Y472067D01*
X222986Y472041D01*
X222965Y472030D01*
X222943Y472007D01*
X222887Y471962D01*
X218506Y467581D01*
X218483Y467577D01*
X218477Y467575D01*
X218471Y467574D01*
X218368Y467519D01*
X218264Y467466D01*
X218259Y467461D01*
X218254Y467458D01*
X218174Y467374D01*
X218091Y467290D01*
X218088Y467284D01*
X218084Y467280D01*
X218076Y467263D01*
X218010Y467143D01*
X217126Y465008D01*
X214696Y462578D01*
X211522Y461263D01*
X194878Y461263D01*
G37*
%LPD*%
%LPC*%
G36*
X194878Y308863D02*
X194878Y308863D01*
X191704Y310178D01*
X189274Y312608D01*
X187959Y315782D01*
X187959Y319218D01*
X189274Y322392D01*
X191704Y324822D01*
X194878Y326137D01*
X211522Y326137D01*
X214696Y324822D01*
X217126Y322392D01*
X217363Y321820D01*
X217387Y321781D01*
X217403Y321738D01*
X217451Y321677D01*
X217492Y321611D01*
X217528Y321582D01*
X217557Y321546D01*
X217622Y321504D01*
X217682Y321454D01*
X217725Y321438D01*
X217763Y321413D01*
X217839Y321394D01*
X217912Y321366D01*
X217957Y321364D01*
X218002Y321353D01*
X218079Y321359D01*
X218157Y321356D01*
X218201Y321369D01*
X218247Y321372D01*
X218319Y321403D01*
X218394Y321424D01*
X218431Y321450D01*
X218474Y321468D01*
X218580Y321554D01*
X218596Y321564D01*
X218599Y321569D01*
X218604Y321573D01*
X220374Y323343D01*
X226709Y323343D01*
X226799Y323357D01*
X226890Y323365D01*
X226920Y323377D01*
X226952Y323382D01*
X227033Y323425D01*
X227117Y323461D01*
X227149Y323487D01*
X227169Y323498D01*
X227192Y323521D01*
X227247Y323566D01*
X228504Y324822D01*
X231678Y326137D01*
X248322Y326137D01*
X251496Y324822D01*
X253926Y322392D01*
X254097Y321979D01*
X254121Y321940D01*
X254137Y321896D01*
X254186Y321836D01*
X254227Y321770D01*
X254262Y321740D01*
X254291Y321704D01*
X254356Y321662D01*
X254416Y321613D01*
X254459Y321596D01*
X254498Y321571D01*
X254573Y321552D01*
X254646Y321525D01*
X254692Y321523D01*
X254736Y321511D01*
X254814Y321517D01*
X254892Y321514D01*
X254936Y321527D01*
X254982Y321530D01*
X255053Y321561D01*
X255128Y321583D01*
X255166Y321609D01*
X255208Y321627D01*
X255315Y321712D01*
X255330Y321723D01*
X255333Y321727D01*
X255339Y321732D01*
X256206Y322599D01*
X256218Y322615D01*
X256233Y322628D01*
X256290Y322715D01*
X256350Y322799D01*
X256356Y322818D01*
X256366Y322835D01*
X256392Y322935D01*
X256422Y323034D01*
X256422Y323054D01*
X256426Y323073D01*
X256418Y323176D01*
X256416Y323280D01*
X256409Y323299D01*
X256407Y323318D01*
X256367Y323413D01*
X256331Y323511D01*
X256319Y323526D01*
X256311Y323545D01*
X256206Y323676D01*
X254774Y325108D01*
X253459Y328282D01*
X253459Y331718D01*
X254774Y334892D01*
X257204Y337322D01*
X260378Y338637D01*
X277022Y338637D01*
X280196Y337322D01*
X282626Y334892D01*
X283941Y331718D01*
X283941Y328282D01*
X282626Y325108D01*
X280196Y322678D01*
X277022Y321363D01*
X264627Y321363D01*
X264537Y321349D01*
X264446Y321341D01*
X264417Y321329D01*
X264385Y321324D01*
X264304Y321281D01*
X264220Y321245D01*
X264188Y321219D01*
X264167Y321208D01*
X264145Y321185D01*
X264089Y321140D01*
X257400Y314451D01*
X255198Y314451D01*
X255083Y314432D01*
X254967Y314415D01*
X254962Y314413D01*
X254955Y314412D01*
X254853Y314357D01*
X254748Y314304D01*
X254744Y314299D01*
X254738Y314296D01*
X254658Y314212D01*
X254576Y314128D01*
X254572Y314122D01*
X254569Y314118D01*
X254561Y314101D01*
X254495Y313981D01*
X253926Y312608D01*
X251496Y310178D01*
X248322Y308863D01*
X231678Y308863D01*
X228504Y310178D01*
X226074Y312608D01*
X224759Y315782D01*
X224759Y315976D01*
X224756Y315996D01*
X224758Y316015D01*
X224736Y316117D01*
X224720Y316219D01*
X224710Y316236D01*
X224706Y316256D01*
X224653Y316345D01*
X224604Y316436D01*
X224590Y316450D01*
X224580Y316467D01*
X224501Y316534D01*
X224426Y316606D01*
X224408Y316614D01*
X224393Y316627D01*
X224297Y316666D01*
X224203Y316709D01*
X224183Y316711D01*
X224165Y316719D01*
X223998Y316737D01*
X223425Y316737D01*
X223335Y316723D01*
X223244Y316715D01*
X223215Y316703D01*
X223183Y316698D01*
X223102Y316655D01*
X223018Y316619D01*
X222986Y316593D01*
X222965Y316582D01*
X222943Y316559D01*
X222887Y316514D01*
X220824Y314451D01*
X218398Y314451D01*
X218283Y314432D01*
X218167Y314415D01*
X218162Y314413D01*
X218155Y314412D01*
X218053Y314357D01*
X217948Y314304D01*
X217944Y314299D01*
X217938Y314296D01*
X217858Y314212D01*
X217776Y314128D01*
X217772Y314122D01*
X217769Y314118D01*
X217761Y314101D01*
X217695Y313981D01*
X217126Y312608D01*
X214696Y310178D01*
X211522Y308863D01*
X194878Y308863D01*
G37*
%LPD*%
%LPC*%
G36*
X220374Y207009D02*
X220374Y207009D01*
X217289Y210094D01*
X217273Y210106D01*
X217260Y210121D01*
X217173Y210178D01*
X217089Y210238D01*
X217070Y210244D01*
X217053Y210254D01*
X216953Y210280D01*
X216854Y210310D01*
X216834Y210310D01*
X216815Y210314D01*
X216712Y210306D01*
X216608Y210304D01*
X216589Y210297D01*
X216570Y210295D01*
X216475Y210255D01*
X216377Y210219D01*
X216362Y210207D01*
X216343Y210199D01*
X216212Y210094D01*
X214696Y208578D01*
X211522Y207263D01*
X194878Y207263D01*
X191704Y208578D01*
X189274Y211008D01*
X187959Y214182D01*
X187959Y217618D01*
X189274Y220792D01*
X191704Y223222D01*
X194878Y224537D01*
X211522Y224537D01*
X214696Y223222D01*
X217126Y220792D01*
X218010Y218657D01*
X218072Y218557D01*
X218132Y218457D01*
X218137Y218453D01*
X218140Y218448D01*
X218230Y218373D01*
X218319Y218297D01*
X218325Y218295D01*
X218330Y218291D01*
X218438Y218249D01*
X218501Y218224D01*
X222887Y213838D01*
X222961Y213785D01*
X223030Y213725D01*
X223061Y213713D01*
X223087Y213694D01*
X223174Y213667D01*
X223259Y213633D01*
X223300Y213629D01*
X223322Y213622D01*
X223354Y213623D01*
X223425Y213615D01*
X223998Y213615D01*
X224018Y213618D01*
X224037Y213616D01*
X224139Y213638D01*
X224241Y213654D01*
X224258Y213664D01*
X224278Y213668D01*
X224367Y213721D01*
X224458Y213770D01*
X224472Y213784D01*
X224489Y213794D01*
X224556Y213873D01*
X224628Y213948D01*
X224636Y213966D01*
X224649Y213981D01*
X224688Y214077D01*
X224731Y214171D01*
X224733Y214191D01*
X224741Y214209D01*
X224759Y214376D01*
X224759Y217618D01*
X226074Y220792D01*
X228504Y223222D01*
X231678Y224537D01*
X248322Y224537D01*
X251496Y223222D01*
X252773Y221945D01*
X252790Y221933D01*
X252802Y221918D01*
X252889Y221861D01*
X252973Y221801D01*
X252992Y221795D01*
X253009Y221785D01*
X253110Y221759D01*
X253208Y221729D01*
X253228Y221729D01*
X253248Y221725D01*
X253350Y221733D01*
X253454Y221735D01*
X253473Y221742D01*
X253493Y221744D01*
X253587Y221784D01*
X253685Y221820D01*
X253701Y221832D01*
X253719Y221840D01*
X253850Y221945D01*
X254602Y222696D01*
X254669Y222790D01*
X254739Y222885D01*
X254741Y222891D01*
X254745Y222896D01*
X254779Y223007D01*
X254816Y223119D01*
X254816Y223125D01*
X254817Y223131D01*
X254814Y223248D01*
X254813Y223365D01*
X254811Y223372D01*
X254811Y223377D01*
X254805Y223395D01*
X254767Y223526D01*
X253459Y226682D01*
X253459Y230118D01*
X254774Y233292D01*
X257204Y235722D01*
X260378Y237037D01*
X277022Y237037D01*
X280196Y235722D01*
X282626Y233292D01*
X283941Y230118D01*
X283941Y226682D01*
X282626Y223508D01*
X280196Y221078D01*
X277022Y219763D01*
X261325Y219763D01*
X261235Y219749D01*
X261144Y219741D01*
X261115Y219729D01*
X261083Y219724D01*
X261002Y219681D01*
X260918Y219645D01*
X260886Y219619D01*
X260865Y219608D01*
X260843Y219585D01*
X260787Y219540D01*
X257272Y216025D01*
X255215Y213968D01*
X255177Y213915D01*
X255131Y213868D01*
X255091Y213795D01*
X255071Y213768D01*
X255066Y213750D01*
X255050Y213721D01*
X253926Y211008D01*
X251496Y208578D01*
X248322Y207263D01*
X231678Y207263D01*
X229502Y208165D01*
X229388Y208191D01*
X229275Y208220D01*
X229269Y208219D01*
X229262Y208221D01*
X229146Y208210D01*
X229030Y208201D01*
X229024Y208198D01*
X229018Y208198D01*
X228910Y208150D01*
X228803Y208104D01*
X228797Y208100D01*
X228793Y208098D01*
X228779Y208085D01*
X228672Y208000D01*
X227682Y207009D01*
X220374Y207009D01*
G37*
%LPD*%
%LPC*%
G36*
X220374Y435609D02*
X220374Y435609D01*
X218216Y437767D01*
X217289Y438694D01*
X217273Y438706D01*
X217260Y438721D01*
X217173Y438777D01*
X217089Y438838D01*
X217070Y438844D01*
X217053Y438854D01*
X216953Y438880D01*
X216854Y438910D01*
X216834Y438910D01*
X216815Y438914D01*
X216712Y438906D01*
X216608Y438904D01*
X216590Y438897D01*
X216570Y438895D01*
X216475Y438855D01*
X216377Y438819D01*
X216362Y438807D01*
X216343Y438799D01*
X216212Y438694D01*
X214696Y437178D01*
X211522Y435863D01*
X194878Y435863D01*
X191704Y437178D01*
X189274Y439608D01*
X187959Y442782D01*
X187959Y446218D01*
X189274Y449392D01*
X191704Y451822D01*
X194878Y453137D01*
X211522Y453137D01*
X214696Y451822D01*
X217126Y449392D01*
X218010Y447257D01*
X218072Y447157D01*
X218132Y447057D01*
X218137Y447053D01*
X218140Y447048D01*
X218230Y446973D01*
X218319Y446897D01*
X218325Y446895D01*
X218330Y446891D01*
X218438Y446849D01*
X218501Y446824D01*
X222887Y442438D01*
X222961Y442385D01*
X223030Y442325D01*
X223061Y442313D01*
X223087Y442294D01*
X223174Y442267D01*
X223259Y442233D01*
X223300Y442229D01*
X223322Y442222D01*
X223354Y442223D01*
X223425Y442215D01*
X223998Y442215D01*
X224018Y442218D01*
X224037Y442216D01*
X224139Y442238D01*
X224241Y442254D01*
X224258Y442264D01*
X224278Y442268D01*
X224367Y442321D01*
X224458Y442370D01*
X224472Y442384D01*
X224489Y442394D01*
X224556Y442473D01*
X224628Y442548D01*
X224636Y442566D01*
X224649Y442581D01*
X224688Y442677D01*
X224731Y442771D01*
X224733Y442791D01*
X224741Y442809D01*
X224759Y442976D01*
X224759Y446218D01*
X226074Y449392D01*
X228504Y451822D01*
X231678Y453137D01*
X248322Y453137D01*
X251496Y451822D01*
X252773Y450545D01*
X252790Y450533D01*
X252802Y450518D01*
X252889Y450462D01*
X252973Y450401D01*
X252992Y450395D01*
X253009Y450385D01*
X253109Y450359D01*
X253208Y450329D01*
X253228Y450329D01*
X253247Y450325D01*
X253350Y450333D01*
X253454Y450335D01*
X253473Y450342D01*
X253493Y450344D01*
X253588Y450384D01*
X253685Y450420D01*
X253701Y450432D01*
X253719Y450440D01*
X253850Y450545D01*
X254602Y451296D01*
X254669Y451390D01*
X254739Y451485D01*
X254741Y451491D01*
X254745Y451496D01*
X254779Y451607D01*
X254816Y451719D01*
X254816Y451725D01*
X254817Y451731D01*
X254814Y451848D01*
X254813Y451965D01*
X254811Y451972D01*
X254811Y451977D01*
X254805Y451995D01*
X254767Y452126D01*
X253459Y455282D01*
X253459Y458718D01*
X254774Y461892D01*
X257204Y464322D01*
X260378Y465637D01*
X277022Y465637D01*
X280196Y464322D01*
X282626Y461892D01*
X283941Y458718D01*
X283941Y455282D01*
X282626Y452108D01*
X280196Y449678D01*
X277022Y448363D01*
X261325Y448363D01*
X261235Y448349D01*
X261144Y448341D01*
X261115Y448329D01*
X261083Y448324D01*
X261002Y448281D01*
X260918Y448245D01*
X260886Y448219D01*
X260865Y448208D01*
X260843Y448185D01*
X260787Y448140D01*
X257272Y444625D01*
X255215Y442568D01*
X255177Y442515D01*
X255131Y442468D01*
X255090Y442395D01*
X255071Y442368D01*
X255066Y442350D01*
X255050Y442321D01*
X253926Y439608D01*
X251496Y437178D01*
X248322Y435863D01*
X231678Y435863D01*
X229502Y436765D01*
X229437Y436780D01*
X229397Y436796D01*
X229348Y436801D01*
X229275Y436820D01*
X229269Y436819D01*
X229262Y436821D01*
X229146Y436810D01*
X229030Y436801D01*
X229024Y436798D01*
X229018Y436798D01*
X228970Y436776D01*
X228960Y436775D01*
X228927Y436758D01*
X228910Y436750D01*
X228803Y436704D01*
X228797Y436700D01*
X228793Y436698D01*
X228779Y436685D01*
X228757Y436667D01*
X228742Y436660D01*
X228727Y436643D01*
X228672Y436600D01*
X227682Y435609D01*
X220374Y435609D01*
G37*
%LPD*%
%LPC*%
G36*
X514378Y385063D02*
X514378Y385063D01*
X511204Y386378D01*
X508774Y388808D01*
X507459Y391982D01*
X507459Y395418D01*
X507932Y396560D01*
X507959Y396674D01*
X507988Y396787D01*
X507987Y396794D01*
X507989Y396800D01*
X507978Y396916D01*
X507969Y397033D01*
X507966Y397038D01*
X507965Y397045D01*
X507918Y397151D01*
X507872Y397259D01*
X507867Y397265D01*
X507865Y397269D01*
X507853Y397283D01*
X507767Y397390D01*
X506076Y399081D01*
X506060Y399093D01*
X506047Y399108D01*
X505960Y399164D01*
X505876Y399225D01*
X505857Y399231D01*
X505840Y399241D01*
X505740Y399267D01*
X505641Y399297D01*
X505621Y399297D01*
X505602Y399301D01*
X505499Y399293D01*
X505395Y399291D01*
X505377Y399284D01*
X505357Y399282D01*
X505262Y399242D01*
X505164Y399206D01*
X505149Y399194D01*
X505130Y399186D01*
X504999Y399081D01*
X504796Y398878D01*
X501622Y397563D01*
X484978Y397563D01*
X481804Y398878D01*
X479374Y401308D01*
X478059Y404482D01*
X478059Y407918D01*
X479374Y411092D01*
X481804Y413522D01*
X484978Y414837D01*
X501622Y414837D01*
X504796Y413522D01*
X507226Y411092D01*
X508541Y407918D01*
X508541Y406273D01*
X508555Y406183D01*
X508563Y406092D01*
X508575Y406063D01*
X508580Y406031D01*
X508623Y405950D01*
X508659Y405866D01*
X508685Y405834D01*
X508696Y405813D01*
X508719Y405791D01*
X508764Y405735D01*
X512451Y402047D01*
X512546Y401979D01*
X512640Y401909D01*
X512646Y401907D01*
X512651Y401904D01*
X512763Y401869D01*
X512874Y401833D01*
X512880Y401833D01*
X512886Y401831D01*
X513003Y401834D01*
X513120Y401836D01*
X513127Y401838D01*
X513132Y401838D01*
X513150Y401844D01*
X513281Y401882D01*
X514378Y402337D01*
X531022Y402337D01*
X534196Y401022D01*
X534458Y400760D01*
X534475Y400748D01*
X534487Y400733D01*
X534574Y400676D01*
X534658Y400616D01*
X534677Y400610D01*
X534694Y400600D01*
X534795Y400574D01*
X534893Y400544D01*
X534913Y400544D01*
X534933Y400540D01*
X535035Y400548D01*
X535139Y400550D01*
X535158Y400557D01*
X535178Y400559D01*
X535273Y400599D01*
X535370Y400635D01*
X535386Y400647D01*
X535404Y400655D01*
X535535Y400760D01*
X538128Y403353D01*
X543150Y403353D01*
X545854Y400649D01*
X545870Y400637D01*
X545883Y400622D01*
X545970Y400566D01*
X546054Y400505D01*
X546073Y400499D01*
X546090Y400489D01*
X546190Y400463D01*
X546289Y400433D01*
X546309Y400433D01*
X546328Y400429D01*
X546431Y400437D01*
X546535Y400439D01*
X546554Y400446D01*
X546573Y400448D01*
X546668Y400488D01*
X546766Y400524D01*
X546781Y400536D01*
X546800Y400544D01*
X546931Y400649D01*
X547304Y401022D01*
X550478Y402337D01*
X567122Y402337D01*
X570296Y401022D01*
X572726Y398592D01*
X573591Y396504D01*
X573642Y396421D01*
X573688Y396336D01*
X573706Y396318D01*
X573720Y396295D01*
X573796Y396233D01*
X573866Y396166D01*
X573890Y396155D01*
X573910Y396138D01*
X574001Y396104D01*
X574089Y396063D01*
X574115Y396060D01*
X574139Y396050D01*
X574210Y396047D01*
X574180Y396001D01*
X574166Y395982D01*
X574151Y395964D01*
X574149Y395958D01*
X574122Y395921D01*
X574114Y395898D01*
X574101Y395878D01*
X574077Y395781D01*
X574075Y395774D01*
X574059Y395736D01*
X574058Y395721D01*
X574047Y395687D01*
X574047Y395663D01*
X574041Y395639D01*
X574044Y395600D01*
X574041Y395569D01*
X574041Y391982D01*
X572726Y388808D01*
X570296Y386378D01*
X567122Y385063D01*
X550478Y385063D01*
X547304Y386378D01*
X544874Y388808D01*
X543559Y391982D01*
X543559Y393287D01*
X543545Y393377D01*
X543537Y393468D01*
X543525Y393497D01*
X543520Y393529D01*
X543477Y393610D01*
X543441Y393694D01*
X543415Y393726D01*
X543404Y393747D01*
X543381Y393769D01*
X543336Y393825D01*
X541177Y395984D01*
X541161Y395996D01*
X541149Y396011D01*
X541061Y396067D01*
X540978Y396127D01*
X540959Y396133D01*
X540942Y396144D01*
X540841Y396169D01*
X540742Y396200D01*
X540723Y396199D01*
X540703Y396204D01*
X540600Y396196D01*
X540497Y396193D01*
X540478Y396187D01*
X540458Y396185D01*
X540363Y396145D01*
X540266Y396109D01*
X540250Y396097D01*
X540232Y396089D01*
X540101Y395984D01*
X538164Y394047D01*
X538111Y393973D01*
X538051Y393904D01*
X538039Y393873D01*
X538020Y393847D01*
X537993Y393760D01*
X537959Y393675D01*
X537955Y393634D01*
X537948Y393612D01*
X537949Y393580D01*
X537941Y393509D01*
X537941Y391982D01*
X536626Y388808D01*
X534196Y386378D01*
X531022Y385063D01*
X514378Y385063D01*
G37*
%LPD*%
%LPC*%
G36*
X514378Y181863D02*
X514378Y181863D01*
X511204Y183178D01*
X508774Y185608D01*
X507459Y188782D01*
X507459Y192218D01*
X507858Y193181D01*
X507885Y193295D01*
X507913Y193408D01*
X507913Y193414D01*
X507914Y193420D01*
X507903Y193537D01*
X507894Y193653D01*
X507892Y193659D01*
X507891Y193665D01*
X507844Y193771D01*
X507798Y193879D01*
X507793Y193885D01*
X507791Y193890D01*
X507779Y193903D01*
X507693Y194010D01*
X505949Y195754D01*
X505933Y195766D01*
X505920Y195781D01*
X505833Y195837D01*
X505749Y195898D01*
X505730Y195904D01*
X505713Y195914D01*
X505613Y195940D01*
X505514Y195970D01*
X505494Y195970D01*
X505475Y195974D01*
X505372Y195966D01*
X505268Y195964D01*
X505250Y195957D01*
X505230Y195955D01*
X505134Y195915D01*
X505037Y195879D01*
X505022Y195867D01*
X505003Y195859D01*
X504872Y195754D01*
X504796Y195678D01*
X501622Y194363D01*
X484978Y194363D01*
X481804Y195678D01*
X479374Y198108D01*
X478059Y201282D01*
X478059Y204718D01*
X479374Y207892D01*
X481804Y210322D01*
X484978Y211637D01*
X501622Y211637D01*
X504796Y210322D01*
X507226Y207892D01*
X508541Y204718D01*
X508541Y202819D01*
X508555Y202729D01*
X508563Y202638D01*
X508575Y202609D01*
X508580Y202577D01*
X508623Y202496D01*
X508659Y202412D01*
X508685Y202380D01*
X508696Y202359D01*
X508719Y202337D01*
X508764Y202281D01*
X512272Y198773D01*
X512367Y198705D01*
X512461Y198635D01*
X512467Y198633D01*
X512472Y198629D01*
X512583Y198595D01*
X512694Y198559D01*
X512701Y198559D01*
X512707Y198557D01*
X512823Y198560D01*
X512940Y198561D01*
X512948Y198563D01*
X512953Y198563D01*
X512970Y198570D01*
X513101Y198608D01*
X514378Y199137D01*
X531022Y199137D01*
X534196Y197822D01*
X534585Y197433D01*
X534602Y197421D01*
X534614Y197406D01*
X534701Y197350D01*
X534785Y197289D01*
X534804Y197283D01*
X534821Y197273D01*
X534921Y197247D01*
X535020Y197217D01*
X535040Y197217D01*
X535059Y197213D01*
X535162Y197221D01*
X535266Y197223D01*
X535285Y197230D01*
X535305Y197232D01*
X535400Y197272D01*
X535497Y197308D01*
X535513Y197320D01*
X535531Y197328D01*
X535662Y197433D01*
X538128Y199899D01*
X543150Y199899D01*
X545308Y197741D01*
X545727Y197322D01*
X545743Y197310D01*
X545756Y197295D01*
X545843Y197238D01*
X545927Y197178D01*
X545946Y197172D01*
X545963Y197162D01*
X546063Y197136D01*
X546162Y197106D01*
X546182Y197106D01*
X546201Y197102D01*
X546304Y197110D01*
X546408Y197112D01*
X546426Y197119D01*
X546446Y197121D01*
X546541Y197161D01*
X546639Y197197D01*
X546654Y197209D01*
X546673Y197217D01*
X546804Y197322D01*
X547304Y197822D01*
X550478Y199137D01*
X567122Y199137D01*
X570296Y197822D01*
X572726Y195392D01*
X574041Y192218D01*
X574041Y188782D01*
X572726Y185608D01*
X570296Y183178D01*
X567122Y181863D01*
X550478Y181863D01*
X547304Y183178D01*
X544874Y185608D01*
X543559Y188782D01*
X543559Y189833D01*
X543545Y189923D01*
X543537Y190014D01*
X543525Y190043D01*
X543520Y190075D01*
X543477Y190156D01*
X543441Y190240D01*
X543415Y190272D01*
X543404Y190293D01*
X543381Y190315D01*
X543336Y190371D01*
X541177Y192530D01*
X541161Y192542D01*
X541149Y192557D01*
X541061Y192613D01*
X540978Y192673D01*
X540959Y192679D01*
X540942Y192690D01*
X540841Y192715D01*
X540742Y192746D01*
X540723Y192745D01*
X540703Y192750D01*
X540600Y192742D01*
X540497Y192739D01*
X540478Y192733D01*
X540458Y192731D01*
X540363Y192691D01*
X540266Y192655D01*
X540250Y192643D01*
X540232Y192635D01*
X540101Y192530D01*
X538164Y190593D01*
X538111Y190519D01*
X538051Y190450D01*
X538039Y190419D01*
X538020Y190393D01*
X537993Y190306D01*
X537959Y190221D01*
X537955Y190180D01*
X537948Y190158D01*
X537949Y190126D01*
X537941Y190055D01*
X537941Y188782D01*
X536626Y185608D01*
X534196Y183178D01*
X531022Y181863D01*
X514378Y181863D01*
G37*
%LPD*%
%LPC*%
G36*
X514378Y207263D02*
X514378Y207263D01*
X511204Y208578D01*
X508774Y211008D01*
X507459Y214182D01*
X507459Y217618D01*
X507784Y218401D01*
X507810Y218515D01*
X507839Y218628D01*
X507838Y218634D01*
X507840Y218640D01*
X507829Y218757D01*
X507820Y218873D01*
X507817Y218879D01*
X507817Y218885D01*
X507769Y218993D01*
X507723Y219100D01*
X507719Y219105D01*
X507717Y219110D01*
X507704Y219124D01*
X507619Y219231D01*
X505822Y221027D01*
X505806Y221039D01*
X505793Y221055D01*
X505706Y221110D01*
X505622Y221171D01*
X505603Y221177D01*
X505586Y221187D01*
X505486Y221213D01*
X505387Y221243D01*
X505367Y221243D01*
X505348Y221248D01*
X505245Y221239D01*
X505141Y221237D01*
X505122Y221230D01*
X505102Y221228D01*
X505007Y221188D01*
X504910Y221152D01*
X504895Y221140D01*
X504876Y221132D01*
X504823Y221089D01*
X501622Y219763D01*
X484978Y219763D01*
X481804Y221078D01*
X479374Y223508D01*
X478059Y226682D01*
X478059Y230118D01*
X479374Y233292D01*
X481804Y235722D01*
X484978Y237037D01*
X501622Y237037D01*
X504796Y235722D01*
X507226Y233292D01*
X508541Y230118D01*
X508541Y227965D01*
X508555Y227875D01*
X508563Y227784D01*
X508575Y227755D01*
X508580Y227723D01*
X508623Y227642D01*
X508659Y227558D01*
X508685Y227526D01*
X508696Y227505D01*
X508719Y227483D01*
X508764Y227427D01*
X512092Y224099D01*
X512188Y224030D01*
X512281Y223961D01*
X512287Y223959D01*
X512292Y223955D01*
X512403Y223921D01*
X512515Y223884D01*
X512521Y223884D01*
X512527Y223883D01*
X512644Y223886D01*
X512761Y223887D01*
X512768Y223889D01*
X512773Y223889D01*
X512790Y223895D01*
X512922Y223934D01*
X514378Y224537D01*
X531022Y224537D01*
X534196Y223222D01*
X534712Y222706D01*
X534729Y222694D01*
X534741Y222679D01*
X534828Y222623D01*
X534912Y222562D01*
X534931Y222556D01*
X534948Y222546D01*
X535048Y222520D01*
X535147Y222490D01*
X535167Y222490D01*
X535186Y222486D01*
X535289Y222494D01*
X535393Y222496D01*
X535412Y222503D01*
X535432Y222505D01*
X535527Y222545D01*
X535624Y222581D01*
X535640Y222593D01*
X535658Y222601D01*
X535789Y222706D01*
X538128Y225045D01*
X543150Y225045D01*
X545308Y222887D01*
X545600Y222595D01*
X545616Y222583D01*
X545629Y222568D01*
X545716Y222512D01*
X545800Y222451D01*
X545819Y222445D01*
X545836Y222435D01*
X545936Y222409D01*
X546035Y222379D01*
X546055Y222379D01*
X546074Y222375D01*
X546177Y222383D01*
X546281Y222385D01*
X546299Y222392D01*
X546319Y222394D01*
X546414Y222434D01*
X546512Y222470D01*
X546527Y222482D01*
X546546Y222490D01*
X546677Y222595D01*
X547304Y223222D01*
X550478Y224537D01*
X567122Y224537D01*
X570296Y223222D01*
X572726Y220792D01*
X574041Y217618D01*
X574041Y214182D01*
X572726Y211008D01*
X570296Y208578D01*
X567122Y207263D01*
X550478Y207263D01*
X547304Y208578D01*
X544874Y211008D01*
X543559Y214182D01*
X543559Y214979D01*
X543545Y215069D01*
X543537Y215160D01*
X543525Y215189D01*
X543520Y215221D01*
X543477Y215302D01*
X543441Y215386D01*
X543415Y215418D01*
X543404Y215439D01*
X543381Y215461D01*
X543336Y215517D01*
X541177Y217676D01*
X541161Y217688D01*
X541149Y217703D01*
X541061Y217759D01*
X540978Y217819D01*
X540959Y217825D01*
X540942Y217836D01*
X540841Y217861D01*
X540742Y217892D01*
X540723Y217891D01*
X540703Y217896D01*
X540600Y217888D01*
X540497Y217885D01*
X540478Y217879D01*
X540458Y217877D01*
X540363Y217837D01*
X540266Y217801D01*
X540250Y217789D01*
X540232Y217781D01*
X540101Y217676D01*
X538164Y215739D01*
X538111Y215665D01*
X538051Y215596D01*
X538039Y215565D01*
X538020Y215539D01*
X537993Y215452D01*
X537959Y215367D01*
X537955Y215326D01*
X537948Y215304D01*
X537949Y215272D01*
X537941Y215201D01*
X537941Y214182D01*
X536626Y211008D01*
X534196Y208578D01*
X531022Y207263D01*
X514378Y207263D01*
G37*
%LPD*%
%LPC*%
G36*
X379080Y172827D02*
X379080Y172827D01*
X375532Y174297D01*
X372817Y177012D01*
X371347Y180560D01*
X371347Y199640D01*
X372817Y203188D01*
X375532Y205903D01*
X379080Y207373D01*
X382920Y207373D01*
X385949Y206118D01*
X386062Y206092D01*
X386176Y206063D01*
X386182Y206063D01*
X386188Y206062D01*
X386305Y206073D01*
X386421Y206082D01*
X386427Y206084D01*
X386433Y206085D01*
X386540Y206133D01*
X386647Y206178D01*
X386653Y206183D01*
X386658Y206185D01*
X386672Y206198D01*
X386778Y206283D01*
X389666Y209171D01*
X389719Y209245D01*
X389779Y209314D01*
X389791Y209345D01*
X389810Y209371D01*
X389837Y209458D01*
X389871Y209543D01*
X389875Y209584D01*
X389882Y209606D01*
X389881Y209638D01*
X389889Y209709D01*
X389889Y222345D01*
X389875Y222435D01*
X389867Y222526D01*
X389855Y222555D01*
X389850Y222587D01*
X389807Y222668D01*
X389771Y222752D01*
X389745Y222784D01*
X389734Y222805D01*
X389711Y222827D01*
X389666Y222883D01*
X387241Y225308D01*
X387147Y225376D01*
X387052Y225446D01*
X387046Y225448D01*
X387041Y225452D01*
X386930Y225486D01*
X386818Y225522D01*
X386812Y225522D01*
X386806Y225524D01*
X386689Y225521D01*
X386572Y225520D01*
X386565Y225518D01*
X386560Y225518D01*
X386543Y225511D01*
X386411Y225473D01*
X382920Y224027D01*
X379080Y224027D01*
X375532Y225497D01*
X372817Y228212D01*
X371347Y231760D01*
X371347Y250840D01*
X372817Y254388D01*
X375532Y257103D01*
X379080Y258573D01*
X382920Y258573D01*
X386468Y257103D01*
X389183Y254388D01*
X390653Y250840D01*
X390653Y231687D01*
X390639Y231634D01*
X390640Y231628D01*
X390638Y231622D01*
X390649Y231505D01*
X390658Y231389D01*
X390661Y231383D01*
X390661Y231377D01*
X390709Y231269D01*
X390755Y231162D01*
X390759Y231157D01*
X390761Y231152D01*
X390773Y231139D01*
X390860Y231031D01*
X396495Y225396D01*
X396495Y206658D01*
X390668Y200831D01*
X390600Y200737D01*
X390530Y200643D01*
X390528Y200637D01*
X390524Y200631D01*
X390490Y200520D01*
X390454Y200409D01*
X390454Y200402D01*
X390452Y200396D01*
X390455Y200280D01*
X390456Y200163D01*
X390458Y200156D01*
X390458Y200150D01*
X390465Y200133D01*
X390503Y200002D01*
X390653Y199640D01*
X390653Y180560D01*
X389183Y177012D01*
X386468Y174297D01*
X382920Y172827D01*
X379080Y172827D01*
G37*
%LPD*%
%LPC*%
G36*
X429880Y592327D02*
X429880Y592327D01*
X426332Y593797D01*
X423617Y596512D01*
X422147Y600060D01*
X422147Y619140D01*
X423617Y622688D01*
X426332Y625403D01*
X429880Y626873D01*
X433720Y626873D01*
X437268Y625403D01*
X439983Y622688D01*
X441453Y619140D01*
X441453Y600060D01*
X439983Y596512D01*
X437268Y593797D01*
X433720Y592327D01*
X429880Y592327D01*
G37*
%LPD*%
%LPC*%
G36*
X480680Y592327D02*
X480680Y592327D01*
X477132Y593797D01*
X474417Y596512D01*
X472947Y600060D01*
X472947Y619140D01*
X474417Y622688D01*
X477132Y625403D01*
X480680Y626873D01*
X484520Y626873D01*
X488068Y625403D01*
X490783Y622688D01*
X492253Y619140D01*
X492253Y600060D01*
X490783Y596512D01*
X488068Y593797D01*
X484520Y592327D01*
X480680Y592327D01*
G37*
%LPD*%
%LPC*%
G36*
X353680Y172827D02*
X353680Y172827D01*
X350132Y174297D01*
X347417Y177012D01*
X345947Y180560D01*
X345947Y199640D01*
X347417Y203188D01*
X350132Y205903D01*
X353680Y207373D01*
X357520Y207373D01*
X361068Y205903D01*
X363783Y203188D01*
X365253Y199640D01*
X365253Y180560D01*
X363783Y177012D01*
X361068Y174297D01*
X357520Y172827D01*
X353680Y172827D01*
G37*
%LPD*%
%LPC*%
G36*
X404480Y224027D02*
X404480Y224027D01*
X400932Y225497D01*
X398217Y228212D01*
X396747Y231760D01*
X396747Y250840D01*
X398217Y254388D01*
X400932Y257103D01*
X404480Y258573D01*
X408320Y258573D01*
X411868Y257103D01*
X414583Y254388D01*
X416053Y250840D01*
X416053Y231760D01*
X414583Y228212D01*
X411868Y225497D01*
X408320Y224027D01*
X404480Y224027D01*
G37*
%LPD*%
%LPC*%
G36*
X334578Y423163D02*
X334578Y423163D01*
X331404Y424478D01*
X328974Y426908D01*
X327659Y430082D01*
X327659Y433518D01*
X328974Y436692D01*
X331404Y439122D01*
X334578Y440437D01*
X351222Y440437D01*
X354396Y439122D01*
X356826Y436692D01*
X358141Y433518D01*
X358141Y430082D01*
X356826Y426908D01*
X354396Y424478D01*
X351222Y423163D01*
X334578Y423163D01*
G37*
%LPD*%
%LPC*%
G36*
X410778Y423163D02*
X410778Y423163D01*
X407604Y424478D01*
X405174Y426908D01*
X403859Y430082D01*
X403859Y433518D01*
X405174Y436692D01*
X407604Y439122D01*
X410778Y440437D01*
X427422Y440437D01*
X430596Y439122D01*
X433026Y436692D01*
X434341Y433518D01*
X434341Y430082D01*
X433026Y426908D01*
X430596Y424478D01*
X427422Y423163D01*
X410778Y423163D01*
G37*
%LPD*%
%LPC*%
G36*
X334578Y448563D02*
X334578Y448563D01*
X331404Y449878D01*
X328974Y452308D01*
X327659Y455482D01*
X327659Y458918D01*
X328974Y462092D01*
X331404Y464522D01*
X334578Y465837D01*
X351222Y465837D01*
X354396Y464522D01*
X356826Y462092D01*
X358141Y458918D01*
X358141Y455482D01*
X356826Y452308D01*
X354396Y449878D01*
X351222Y448563D01*
X334578Y448563D01*
G37*
%LPD*%
%LPC*%
G36*
X334578Y372363D02*
X334578Y372363D01*
X331404Y373678D01*
X328974Y376108D01*
X327659Y379282D01*
X327659Y382718D01*
X328974Y385892D01*
X331404Y388322D01*
X334578Y389637D01*
X351222Y389637D01*
X354396Y388322D01*
X356826Y385892D01*
X358141Y382718D01*
X358141Y379282D01*
X356826Y376108D01*
X354396Y373678D01*
X351222Y372363D01*
X334578Y372363D01*
G37*
%LPD*%
%LPC*%
G36*
X410778Y346963D02*
X410778Y346963D01*
X407604Y348278D01*
X405174Y350708D01*
X403859Y353882D01*
X403859Y357318D01*
X405174Y360492D01*
X407604Y362922D01*
X410778Y364237D01*
X427422Y364237D01*
X430596Y362922D01*
X433026Y360492D01*
X434341Y357318D01*
X434341Y353882D01*
X433026Y350708D01*
X430596Y348278D01*
X427422Y346963D01*
X410778Y346963D01*
G37*
%LPD*%
%LPC*%
G36*
X252282Y594359D02*
X252282Y594359D01*
X249108Y595674D01*
X246678Y598104D01*
X245363Y601278D01*
X245363Y617922D01*
X246678Y621096D01*
X249108Y623526D01*
X252282Y624841D01*
X255718Y624841D01*
X258892Y623526D01*
X261322Y621096D01*
X262637Y617922D01*
X262637Y601278D01*
X261322Y598104D01*
X258892Y595674D01*
X255718Y594359D01*
X252282Y594359D01*
G37*
%LPD*%
%LPC*%
G36*
X303082Y594359D02*
X303082Y594359D01*
X299908Y595674D01*
X297478Y598104D01*
X296163Y601278D01*
X296163Y617922D01*
X297478Y621096D01*
X299908Y623526D01*
X303082Y624841D01*
X306518Y624841D01*
X309692Y623526D01*
X312122Y621096D01*
X313437Y617922D01*
X313437Y601278D01*
X312122Y598104D01*
X309692Y595674D01*
X306518Y594359D01*
X303082Y594359D01*
G37*
%LPD*%
%LPC*%
G36*
X328482Y594359D02*
X328482Y594359D01*
X325308Y595674D01*
X322878Y598104D01*
X321563Y601278D01*
X321563Y617922D01*
X322878Y621096D01*
X325308Y623526D01*
X328482Y624841D01*
X331918Y624841D01*
X335092Y623526D01*
X337522Y621096D01*
X338837Y617922D01*
X338837Y601278D01*
X337522Y598104D01*
X335092Y595674D01*
X331918Y594359D01*
X328482Y594359D01*
G37*
%LPD*%
%LPC*%
G36*
X407923Y611123D02*
X407923Y611123D01*
X407923Y627266D01*
X408779Y627131D01*
X410300Y626636D01*
X411725Y625910D01*
X413019Y624970D01*
X414150Y623839D01*
X415090Y622545D01*
X415816Y621120D01*
X416311Y619599D01*
X416561Y618020D01*
X416561Y611123D01*
X407923Y611123D01*
G37*
%LPD*%
%LPC*%
G36*
X407923Y191623D02*
X407923Y191623D01*
X407923Y207766D01*
X408779Y207631D01*
X410300Y207136D01*
X411725Y206410D01*
X413019Y205470D01*
X414150Y204339D01*
X415090Y203045D01*
X415816Y201620D01*
X416311Y200099D01*
X416561Y198520D01*
X416561Y191623D01*
X407923Y191623D01*
G37*
%LPD*%
%LPC*%
G36*
X407923Y608077D02*
X407923Y608077D01*
X416561Y608077D01*
X416561Y601180D01*
X416311Y599601D01*
X415816Y598080D01*
X415090Y596655D01*
X414150Y595361D01*
X413019Y594230D01*
X411725Y593290D01*
X410300Y592564D01*
X408779Y592069D01*
X407923Y591934D01*
X407923Y608077D01*
G37*
%LPD*%
%LPC*%
G36*
X407923Y188577D02*
X407923Y188577D01*
X416561Y188577D01*
X416561Y181680D01*
X416311Y180101D01*
X415816Y178580D01*
X415090Y177155D01*
X414150Y175861D01*
X413019Y174730D01*
X411725Y173790D01*
X410300Y173064D01*
X408779Y172569D01*
X407923Y172434D01*
X407923Y188577D01*
G37*
%LPD*%
%LPC*%
G36*
X396239Y611123D02*
X396239Y611123D01*
X396239Y618020D01*
X396489Y619599D01*
X396984Y621120D01*
X397710Y622545D01*
X398650Y623839D01*
X399781Y624970D01*
X401075Y625910D01*
X402500Y626636D01*
X404021Y627131D01*
X404877Y627266D01*
X404877Y611123D01*
X396239Y611123D01*
G37*
%LPD*%
%LPC*%
G36*
X396239Y191623D02*
X396239Y191623D01*
X396239Y198520D01*
X396489Y200099D01*
X396984Y201620D01*
X397710Y203045D01*
X398650Y204339D01*
X399781Y205470D01*
X401075Y206410D01*
X402500Y207136D01*
X404021Y207631D01*
X404877Y207766D01*
X404877Y191623D01*
X396239Y191623D01*
G37*
%LPD*%
%LPC*%
G36*
X404021Y592069D02*
X404021Y592069D01*
X402500Y592564D01*
X401075Y593290D01*
X399781Y594230D01*
X398650Y595361D01*
X397710Y596655D01*
X396984Y598080D01*
X396489Y599601D01*
X396239Y601180D01*
X396239Y608077D01*
X404877Y608077D01*
X404877Y591934D01*
X404021Y592069D01*
G37*
%LPD*%
%LPC*%
G36*
X404021Y172569D02*
X404021Y172569D01*
X402500Y173064D01*
X401075Y173790D01*
X399781Y174730D01*
X398650Y175861D01*
X397710Y177155D01*
X396984Y178580D01*
X396489Y180101D01*
X396239Y181680D01*
X396239Y188577D01*
X404877Y188577D01*
X404877Y172434D01*
X404021Y172569D01*
G37*
%LPD*%
%LPC*%
G36*
X270223Y168455D02*
X270223Y168455D01*
X270223Y176077D01*
X284325Y176077D01*
X284097Y174933D01*
X283408Y173268D01*
X282407Y171770D01*
X281134Y170497D01*
X279636Y169496D01*
X279306Y169359D01*
X279248Y169324D01*
X279241Y169323D01*
X279211Y169310D01*
X279131Y169287D01*
X277971Y168807D01*
X276205Y168455D01*
X270223Y168455D01*
G37*
%LPD*%
%LPC*%
G36*
X204723Y268223D02*
X204723Y268223D01*
X204723Y275845D01*
X210705Y275845D01*
X212471Y275493D01*
X214136Y274804D01*
X215634Y273803D01*
X216907Y272530D01*
X217908Y271032D01*
X218597Y269367D01*
X218825Y268223D01*
X204723Y268223D01*
G37*
%LPD*%
%LPC*%
G36*
X420623Y382523D02*
X420623Y382523D01*
X420623Y390145D01*
X426605Y390145D01*
X428371Y389793D01*
X430036Y389104D01*
X431534Y388103D01*
X432807Y386830D01*
X433808Y385332D01*
X434497Y383667D01*
X434725Y382523D01*
X420623Y382523D01*
G37*
%LPD*%
%LPC*%
G36*
X270223Y280723D02*
X270223Y280723D01*
X270223Y288345D01*
X276205Y288345D01*
X277971Y287993D01*
X279636Y287304D01*
X281134Y286303D01*
X282407Y285030D01*
X283408Y283532D01*
X284097Y281867D01*
X284325Y280723D01*
X270223Y280723D01*
G37*
%LPD*%
%LPC*%
G36*
X494823Y356923D02*
X494823Y356923D01*
X494823Y364545D01*
X500805Y364545D01*
X502571Y364193D01*
X504236Y363504D01*
X505734Y362503D01*
X507007Y361230D01*
X508008Y359732D01*
X508697Y358067D01*
X508925Y356923D01*
X494823Y356923D01*
G37*
%LPD*%
%LPC*%
G36*
X494823Y179123D02*
X494823Y179123D01*
X494823Y186745D01*
X500805Y186745D01*
X502571Y186393D01*
X504236Y185704D01*
X505734Y184703D01*
X507007Y183430D01*
X508008Y181932D01*
X508697Y180267D01*
X508925Y179123D01*
X494823Y179123D01*
G37*
%LPD*%
%LPC*%
G36*
X230123Y611123D02*
X230123Y611123D01*
X230123Y625225D01*
X231267Y624997D01*
X232932Y624308D01*
X234430Y623307D01*
X235703Y622034D01*
X236704Y620536D01*
X237393Y618871D01*
X237745Y617105D01*
X237745Y611123D01*
X230123Y611123D01*
G37*
%LPD*%
%LPC*%
G36*
X344423Y407923D02*
X344423Y407923D01*
X344423Y415545D01*
X350405Y415545D01*
X352171Y415193D01*
X353836Y414504D01*
X355334Y413503D01*
X356607Y412230D01*
X357608Y410732D01*
X358297Y409067D01*
X358525Y407923D01*
X344423Y407923D01*
G37*
%LPD*%
%LPC*%
G36*
X344423Y331723D02*
X344423Y331723D01*
X344423Y339345D01*
X350405Y339345D01*
X352171Y338993D01*
X353836Y338304D01*
X355334Y337303D01*
X356607Y336030D01*
X357608Y334532D01*
X358297Y332867D01*
X358525Y331723D01*
X344423Y331723D01*
G37*
%LPD*%
%LPC*%
G36*
X420623Y306323D02*
X420623Y306323D01*
X420623Y313945D01*
X426605Y313945D01*
X428371Y313593D01*
X430036Y312904D01*
X431534Y311903D01*
X432807Y310630D01*
X433808Y309132D01*
X434497Y307467D01*
X434725Y306323D01*
X420623Y306323D01*
G37*
%LPD*%
%LPC*%
G36*
X524223Y344423D02*
X524223Y344423D01*
X524223Y352045D01*
X530205Y352045D01*
X531971Y351693D01*
X533636Y351004D01*
X535134Y350003D01*
X536407Y348730D01*
X537408Y347232D01*
X538097Y345567D01*
X538325Y344423D01*
X524223Y344423D01*
G37*
%LPD*%
%LPC*%
G36*
X560323Y344423D02*
X560323Y344423D01*
X560323Y352045D01*
X566305Y352045D01*
X568071Y351693D01*
X569736Y351004D01*
X571234Y350003D01*
X572507Y348730D01*
X573508Y347232D01*
X574197Y345567D01*
X574425Y344423D01*
X560323Y344423D01*
G37*
%LPD*%
%LPC*%
G36*
X420623Y458723D02*
X420623Y458723D01*
X420623Y466345D01*
X426605Y466345D01*
X428371Y465993D01*
X430036Y465304D01*
X431534Y464303D01*
X432807Y463030D01*
X433808Y461532D01*
X434497Y459867D01*
X434725Y458723D01*
X420623Y458723D01*
G37*
%LPD*%
%LPC*%
G36*
X241523Y268223D02*
X241523Y268223D01*
X241523Y275845D01*
X247505Y275845D01*
X249271Y275493D01*
X250936Y274804D01*
X252434Y273803D01*
X253707Y272530D01*
X254708Y271032D01*
X255397Y269367D01*
X255625Y268223D01*
X241523Y268223D01*
G37*
%LPD*%
%LPC*%
G36*
X270223Y179123D02*
X270223Y179123D01*
X270223Y186745D01*
X276205Y186745D01*
X277971Y186393D01*
X279636Y185704D01*
X281134Y184703D01*
X282407Y183430D01*
X283408Y181932D01*
X284097Y180267D01*
X284325Y179123D01*
X270223Y179123D01*
G37*
%LPD*%
%LPC*%
G36*
X560323Y166623D02*
X560323Y166623D01*
X560323Y174245D01*
X566305Y174245D01*
X568071Y173893D01*
X569736Y173204D01*
X571234Y172203D01*
X572507Y170930D01*
X573508Y169432D01*
X574197Y167767D01*
X574425Y166623D01*
X560323Y166623D01*
G37*
%LPD*%
%LPC*%
G36*
X524223Y166623D02*
X524223Y166623D01*
X524223Y174245D01*
X530205Y174245D01*
X531971Y173893D01*
X533636Y173204D01*
X535134Y172203D01*
X536407Y170930D01*
X537408Y169432D01*
X538097Y167767D01*
X538325Y166623D01*
X524223Y166623D01*
G37*
%LPD*%
%LPC*%
G36*
X204723Y166623D02*
X204723Y166623D01*
X204723Y174245D01*
X210705Y174245D01*
X212471Y173893D01*
X214136Y173204D01*
X215634Y172203D01*
X216907Y170930D01*
X217908Y169432D01*
X218597Y167767D01*
X218825Y166623D01*
X204723Y166623D01*
G37*
%LPD*%
%LPC*%
G36*
X241523Y166623D02*
X241523Y166623D01*
X241523Y174245D01*
X247505Y174245D01*
X249271Y173893D01*
X250936Y173204D01*
X252434Y172203D01*
X253707Y170930D01*
X254708Y169432D01*
X255397Y167767D01*
X255625Y166623D01*
X241523Y166623D01*
G37*
%LPD*%
%LPC*%
G36*
X507075Y344423D02*
X507075Y344423D01*
X507303Y345567D01*
X507992Y347232D01*
X508993Y348730D01*
X510266Y350003D01*
X511764Y351004D01*
X513429Y351693D01*
X515195Y352045D01*
X521177Y352045D01*
X521177Y344423D01*
X507075Y344423D01*
G37*
%LPD*%
%LPC*%
G36*
X327275Y331723D02*
X327275Y331723D01*
X327503Y332867D01*
X328192Y334532D01*
X329193Y336030D01*
X330466Y337303D01*
X331964Y338304D01*
X333629Y338993D01*
X335395Y339345D01*
X341377Y339345D01*
X341377Y331723D01*
X327275Y331723D01*
G37*
%LPD*%
%LPC*%
G36*
X187575Y166623D02*
X187575Y166623D01*
X187803Y167767D01*
X188492Y169432D01*
X189493Y170930D01*
X190766Y172203D01*
X192264Y173204D01*
X193929Y173893D01*
X195695Y174245D01*
X201677Y174245D01*
X201677Y166623D01*
X187575Y166623D01*
G37*
%LPD*%
%LPC*%
G36*
X403475Y306323D02*
X403475Y306323D01*
X403703Y307467D01*
X404392Y309132D01*
X405393Y310630D01*
X406666Y311903D01*
X408164Y312904D01*
X409829Y313593D01*
X411595Y313945D01*
X417577Y313945D01*
X417577Y306323D01*
X403475Y306323D01*
G37*
%LPD*%
%LPC*%
G36*
X253075Y280723D02*
X253075Y280723D01*
X253303Y281867D01*
X253992Y283532D01*
X254993Y285030D01*
X256266Y286303D01*
X257764Y287304D01*
X259429Y287993D01*
X261195Y288345D01*
X267177Y288345D01*
X267177Y280723D01*
X253075Y280723D01*
G37*
%LPD*%
%LPC*%
G36*
X224375Y268223D02*
X224375Y268223D01*
X224603Y269367D01*
X225292Y271032D01*
X226293Y272530D01*
X227566Y273803D01*
X229064Y274804D01*
X230729Y275493D01*
X232495Y275845D01*
X238477Y275845D01*
X238477Y268223D01*
X224375Y268223D01*
G37*
%LPD*%
%LPC*%
G36*
X477675Y179123D02*
X477675Y179123D01*
X477903Y180267D01*
X478592Y181932D01*
X479593Y183430D01*
X480866Y184703D01*
X482364Y185704D01*
X484029Y186393D01*
X485795Y186745D01*
X491777Y186745D01*
X491777Y179123D01*
X477675Y179123D01*
G37*
%LPD*%
%LPC*%
G36*
X403475Y458723D02*
X403475Y458723D01*
X403703Y459867D01*
X404392Y461532D01*
X405393Y463030D01*
X406666Y464303D01*
X408164Y465304D01*
X409829Y465993D01*
X411595Y466345D01*
X417577Y466345D01*
X417577Y458723D01*
X403475Y458723D01*
G37*
%LPD*%
%LPC*%
G36*
X253075Y179123D02*
X253075Y179123D01*
X253303Y180267D01*
X253992Y181932D01*
X254993Y183430D01*
X256266Y184703D01*
X257764Y185704D01*
X259429Y186393D01*
X261195Y186745D01*
X267177Y186745D01*
X267177Y179123D01*
X253075Y179123D01*
G37*
%LPD*%
%LPC*%
G36*
X230123Y608077D02*
X230123Y608077D01*
X237745Y608077D01*
X237745Y602095D01*
X237393Y600329D01*
X236704Y598664D01*
X235703Y597166D01*
X234430Y595893D01*
X232932Y594892D01*
X231267Y594203D01*
X230123Y593975D01*
X230123Y608077D01*
G37*
%LPD*%
%LPC*%
G36*
X327275Y407923D02*
X327275Y407923D01*
X327503Y409067D01*
X328192Y410732D01*
X329193Y412230D01*
X330466Y413503D01*
X331964Y414504D01*
X333629Y415193D01*
X335395Y415545D01*
X341377Y415545D01*
X341377Y407923D01*
X327275Y407923D01*
G37*
%LPD*%
%LPC*%
G36*
X543175Y166623D02*
X543175Y166623D01*
X543403Y167767D01*
X544092Y169432D01*
X545093Y170930D01*
X546366Y172203D01*
X547864Y173204D01*
X549529Y173893D01*
X551295Y174245D01*
X557277Y174245D01*
X557277Y166623D01*
X543175Y166623D01*
G37*
%LPD*%
%LPC*%
G36*
X477675Y356923D02*
X477675Y356923D01*
X477903Y358067D01*
X478592Y359732D01*
X479593Y361230D01*
X480866Y362503D01*
X482364Y363504D01*
X484029Y364193D01*
X485795Y364545D01*
X491777Y364545D01*
X491777Y356923D01*
X477675Y356923D01*
G37*
%LPD*%
%LPC*%
G36*
X224375Y166623D02*
X224375Y166623D01*
X224603Y167767D01*
X225292Y169432D01*
X226293Y170930D01*
X227566Y172203D01*
X229064Y173204D01*
X230729Y173893D01*
X232495Y174245D01*
X238477Y174245D01*
X238477Y166623D01*
X224375Y166623D01*
G37*
%LPD*%
%LPC*%
G36*
X187575Y268223D02*
X187575Y268223D01*
X187803Y269367D01*
X188492Y271032D01*
X189493Y272530D01*
X190766Y273803D01*
X192264Y274804D01*
X193929Y275493D01*
X195695Y275845D01*
X201677Y275845D01*
X201677Y268223D01*
X187575Y268223D01*
G37*
%LPD*%
%LPC*%
G36*
X543175Y344423D02*
X543175Y344423D01*
X543403Y345567D01*
X544092Y347232D01*
X545093Y348730D01*
X546366Y350003D01*
X547864Y351004D01*
X549529Y351693D01*
X551295Y352045D01*
X557277Y352045D01*
X557277Y344423D01*
X543175Y344423D01*
G37*
%LPD*%
%LPC*%
G36*
X507075Y166623D02*
X507075Y166623D01*
X507303Y167767D01*
X507992Y169432D01*
X508993Y170930D01*
X510266Y172203D01*
X511764Y173204D01*
X513429Y173893D01*
X515195Y174245D01*
X521177Y174245D01*
X521177Y166623D01*
X507075Y166623D01*
G37*
%LPD*%
%LPC*%
G36*
X204723Y257555D02*
X204723Y257555D01*
X204723Y265177D01*
X218825Y265177D01*
X218597Y264033D01*
X217908Y262368D01*
X216907Y260870D01*
X215634Y259597D01*
X214136Y258596D01*
X212471Y257907D01*
X210705Y257555D01*
X204723Y257555D01*
G37*
%LPD*%
%LPC*%
G36*
X494823Y168455D02*
X494823Y168455D01*
X494823Y176077D01*
X508925Y176077D01*
X508697Y174933D01*
X508008Y173268D01*
X507007Y171770D01*
X505734Y170497D01*
X504236Y169496D01*
X502571Y168807D01*
X500805Y168455D01*
X494823Y168455D01*
G37*
%LPD*%
%LPC*%
G36*
X420623Y448055D02*
X420623Y448055D01*
X420623Y455677D01*
X434725Y455677D01*
X434497Y454533D01*
X433808Y452868D01*
X432807Y451370D01*
X431534Y450097D01*
X430036Y449096D01*
X428371Y448407D01*
X426605Y448055D01*
X420623Y448055D01*
G37*
%LPD*%
%LPC*%
G36*
X219455Y611123D02*
X219455Y611123D01*
X219455Y617105D01*
X219807Y618871D01*
X220496Y620536D01*
X221497Y622034D01*
X222770Y623307D01*
X224268Y624308D01*
X225933Y624997D01*
X227077Y625225D01*
X227077Y611123D01*
X219455Y611123D01*
G37*
%LPD*%
%LPC*%
G36*
X560323Y333755D02*
X560323Y333755D01*
X560323Y341377D01*
X574425Y341377D01*
X574197Y340233D01*
X573508Y338568D01*
X572507Y337070D01*
X571234Y335797D01*
X569736Y334796D01*
X568071Y334107D01*
X566305Y333755D01*
X560323Y333755D01*
G37*
%LPD*%
%LPC*%
G36*
X241523Y257555D02*
X241523Y257555D01*
X241523Y265177D01*
X255625Y265177D01*
X255397Y264033D01*
X254708Y262368D01*
X253707Y260870D01*
X252434Y259597D01*
X250936Y258596D01*
X249271Y257907D01*
X247505Y257555D01*
X241523Y257555D01*
G37*
%LPD*%
%LPC*%
G36*
X420623Y371855D02*
X420623Y371855D01*
X420623Y379477D01*
X434725Y379477D01*
X434497Y378333D01*
X433808Y376668D01*
X432807Y375170D01*
X431534Y373897D01*
X430036Y372896D01*
X428371Y372207D01*
X426605Y371855D01*
X420623Y371855D01*
G37*
%LPD*%
%LPC*%
G36*
X344423Y321055D02*
X344423Y321055D01*
X344423Y328677D01*
X358525Y328677D01*
X358297Y327533D01*
X357608Y325868D01*
X356607Y324370D01*
X355334Y323097D01*
X353836Y322096D01*
X352171Y321407D01*
X350405Y321055D01*
X344423Y321055D01*
G37*
%LPD*%
%LPC*%
G36*
X270223Y270055D02*
X270223Y270055D01*
X270223Y277677D01*
X284325Y277677D01*
X284097Y276533D01*
X283408Y274868D01*
X282407Y273370D01*
X281134Y272097D01*
X279636Y271096D01*
X277971Y270407D01*
X276205Y270055D01*
X270223Y270055D01*
G37*
%LPD*%
%LPC*%
G36*
X524223Y333755D02*
X524223Y333755D01*
X524223Y341377D01*
X538325Y341377D01*
X538097Y340233D01*
X537408Y338568D01*
X536407Y337070D01*
X535134Y335797D01*
X533636Y334796D01*
X531971Y334107D01*
X530205Y333755D01*
X524223Y333755D01*
G37*
%LPD*%
%LPC*%
G36*
X494823Y346255D02*
X494823Y346255D01*
X494823Y353877D01*
X508925Y353877D01*
X508697Y352733D01*
X508008Y351068D01*
X507007Y349570D01*
X505734Y348297D01*
X504236Y347296D01*
X502571Y346607D01*
X500805Y346255D01*
X494823Y346255D01*
G37*
%LPD*%
%LPC*%
G36*
X420623Y295655D02*
X420623Y295655D01*
X420623Y303277D01*
X434725Y303277D01*
X434497Y302133D01*
X433808Y300468D01*
X432807Y298970D01*
X431534Y297697D01*
X430036Y296696D01*
X428371Y296007D01*
X426605Y295655D01*
X420623Y295655D01*
G37*
%LPD*%
%LPC*%
G36*
X560323Y155955D02*
X560323Y155955D01*
X560323Y163577D01*
X574425Y163577D01*
X574197Y162433D01*
X573508Y160768D01*
X572507Y159270D01*
X571234Y157997D01*
X569736Y156996D01*
X568071Y156307D01*
X566305Y155955D01*
X560323Y155955D01*
G37*
%LPD*%
%LPC*%
G36*
X524223Y155955D02*
X524223Y155955D01*
X524223Y163577D01*
X538325Y163577D01*
X538097Y162433D01*
X537408Y160768D01*
X536407Y159270D01*
X535134Y157997D01*
X533636Y156996D01*
X531971Y156307D01*
X530205Y155955D01*
X524223Y155955D01*
G37*
%LPD*%
%LPC*%
G36*
X344423Y397255D02*
X344423Y397255D01*
X344423Y404877D01*
X358525Y404877D01*
X358297Y403733D01*
X357608Y402068D01*
X356607Y400570D01*
X355334Y399297D01*
X353836Y398296D01*
X352171Y397607D01*
X350405Y397255D01*
X344423Y397255D01*
G37*
%LPD*%
%LPC*%
G36*
X241523Y155955D02*
X241523Y155955D01*
X241523Y163577D01*
X255625Y163577D01*
X255397Y162433D01*
X254708Y160768D01*
X253707Y159270D01*
X252434Y157997D01*
X250936Y156996D01*
X249271Y156307D01*
X247505Y155955D01*
X241523Y155955D01*
G37*
%LPD*%
%LPC*%
G36*
X204723Y155955D02*
X204723Y155955D01*
X204723Y163577D01*
X218825Y163577D01*
X218597Y162433D01*
X217908Y160768D01*
X216907Y159270D01*
X215634Y157997D01*
X214136Y156996D01*
X212471Y156307D01*
X210705Y155955D01*
X204723Y155955D01*
G37*
%LPD*%
%LPC*%
G36*
X485795Y346255D02*
X485795Y346255D01*
X484029Y346607D01*
X482364Y347296D01*
X480866Y348297D01*
X479593Y349570D01*
X478592Y351068D01*
X477903Y352733D01*
X477675Y353877D01*
X491777Y353877D01*
X491777Y346255D01*
X485795Y346255D01*
G37*
%LPD*%
%LPC*%
G36*
X225933Y594203D02*
X225933Y594203D01*
X224268Y594892D01*
X222770Y595893D01*
X221497Y597166D01*
X220496Y598664D01*
X219807Y600329D01*
X219455Y602095D01*
X219455Y608077D01*
X227077Y608077D01*
X227077Y593975D01*
X225933Y594203D01*
G37*
%LPD*%
%LPC*%
G36*
X195695Y257555D02*
X195695Y257555D01*
X193929Y257907D01*
X192264Y258596D01*
X190766Y259597D01*
X189493Y260870D01*
X188492Y262368D01*
X187803Y264033D01*
X187575Y265177D01*
X201677Y265177D01*
X201677Y257555D01*
X195695Y257555D01*
G37*
%LPD*%
%LPC*%
G36*
X232495Y257555D02*
X232495Y257555D01*
X230729Y257907D01*
X229064Y258596D01*
X227566Y259597D01*
X226293Y260870D01*
X225292Y262368D01*
X224603Y264033D01*
X224375Y265177D01*
X238477Y265177D01*
X238477Y257555D01*
X232495Y257555D01*
G37*
%LPD*%
%LPC*%
G36*
X551295Y333755D02*
X551295Y333755D01*
X549529Y334107D01*
X547864Y334796D01*
X546366Y335797D01*
X545093Y337070D01*
X544092Y338568D01*
X543403Y340233D01*
X543175Y341377D01*
X557277Y341377D01*
X557277Y333755D01*
X551295Y333755D01*
G37*
%LPD*%
%LPC*%
G36*
X335395Y397255D02*
X335395Y397255D01*
X333629Y397607D01*
X331964Y398296D01*
X330466Y399297D01*
X329193Y400570D01*
X328192Y402068D01*
X327503Y403733D01*
X327275Y404877D01*
X341377Y404877D01*
X341377Y397255D01*
X335395Y397255D01*
G37*
%LPD*%
%LPC*%
G36*
X515195Y333755D02*
X515195Y333755D01*
X513429Y334107D01*
X511764Y334796D01*
X510266Y335797D01*
X508993Y337070D01*
X507992Y338568D01*
X507303Y340233D01*
X507075Y341377D01*
X521177Y341377D01*
X521177Y333755D01*
X515195Y333755D01*
G37*
%LPD*%
%LPC*%
G36*
X261195Y270055D02*
X261195Y270055D01*
X259429Y270407D01*
X257764Y271096D01*
X256266Y272097D01*
X254993Y273370D01*
X253992Y274868D01*
X253303Y276533D01*
X253075Y277677D01*
X267177Y277677D01*
X267177Y270055D01*
X261195Y270055D01*
G37*
%LPD*%
%LPC*%
G36*
X261195Y168455D02*
X261195Y168455D01*
X259429Y168807D01*
X257764Y169496D01*
X256266Y170497D01*
X254993Y171770D01*
X253992Y173268D01*
X253303Y174933D01*
X253075Y176077D01*
X267177Y176077D01*
X267177Y168455D01*
X261195Y168455D01*
G37*
%LPD*%
%LPC*%
G36*
X551295Y155955D02*
X551295Y155955D01*
X549529Y156307D01*
X547864Y156996D01*
X546366Y157997D01*
X545093Y159270D01*
X544092Y160768D01*
X543403Y162433D01*
X543175Y163577D01*
X557277Y163577D01*
X557277Y155955D01*
X551295Y155955D01*
G37*
%LPD*%
%LPC*%
G36*
X335395Y321055D02*
X335395Y321055D01*
X333629Y321407D01*
X331964Y322096D01*
X330466Y323097D01*
X329193Y324370D01*
X328192Y325868D01*
X327503Y327533D01*
X327275Y328677D01*
X341377Y328677D01*
X341377Y321055D01*
X335395Y321055D01*
G37*
%LPD*%
%LPC*%
G36*
X411595Y295655D02*
X411595Y295655D01*
X409829Y296007D01*
X408164Y296696D01*
X406666Y297697D01*
X405393Y298970D01*
X404392Y300468D01*
X403703Y302133D01*
X403475Y303277D01*
X417577Y303277D01*
X417577Y295655D01*
X411595Y295655D01*
G37*
%LPD*%
%LPC*%
G36*
X515195Y155955D02*
X515195Y155955D01*
X513429Y156307D01*
X511764Y156996D01*
X510266Y157997D01*
X508993Y159270D01*
X507992Y160768D01*
X507303Y162433D01*
X507075Y163577D01*
X521177Y163577D01*
X521177Y155955D01*
X515195Y155955D01*
G37*
%LPD*%
%LPC*%
G36*
X485795Y168455D02*
X485795Y168455D01*
X484029Y168807D01*
X482364Y169496D01*
X480866Y170497D01*
X479593Y171770D01*
X478592Y173268D01*
X477903Y174933D01*
X477675Y176077D01*
X491777Y176077D01*
X491777Y168455D01*
X485795Y168455D01*
G37*
%LPD*%
%LPC*%
G36*
X232495Y155955D02*
X232495Y155955D01*
X230729Y156307D01*
X229064Y156996D01*
X227566Y157997D01*
X226293Y159270D01*
X225292Y160768D01*
X224603Y162433D01*
X224375Y163577D01*
X238477Y163577D01*
X238477Y155955D01*
X232495Y155955D01*
G37*
%LPD*%
%LPC*%
G36*
X411595Y448055D02*
X411595Y448055D01*
X409829Y448407D01*
X408164Y449096D01*
X406666Y450097D01*
X405393Y451370D01*
X404392Y452868D01*
X403703Y454533D01*
X403475Y455677D01*
X417577Y455677D01*
X417577Y448055D01*
X411595Y448055D01*
G37*
%LPD*%
%LPC*%
G36*
X493299Y355399D02*
X493299Y355399D01*
X493299Y355401D01*
X493301Y355401D01*
X493301Y355399D01*
X493299Y355399D01*
G37*
%LPD*%
%LPC*%
G36*
X342899Y406399D02*
X342899Y406399D01*
X342899Y406401D01*
X342901Y406401D01*
X342901Y406399D01*
X342899Y406399D01*
G37*
%LPD*%
%LPC*%
G36*
X419099Y457199D02*
X419099Y457199D01*
X419099Y457201D01*
X419101Y457201D01*
X419101Y457199D01*
X419099Y457199D01*
G37*
%LPD*%
%LPC*%
G36*
X268699Y279199D02*
X268699Y279199D01*
X268699Y279201D01*
X268701Y279201D01*
X268701Y279199D01*
X268699Y279199D01*
G37*
%LPD*%
%LPC*%
G36*
X406399Y609599D02*
X406399Y609599D01*
X406399Y609601D01*
X406401Y609601D01*
X406401Y609599D01*
X406399Y609599D01*
G37*
%LPD*%
%LPC*%
G36*
X419099Y304799D02*
X419099Y304799D01*
X419099Y304801D01*
X419101Y304801D01*
X419101Y304799D01*
X419099Y304799D01*
G37*
%LPD*%
%LPC*%
G36*
X228599Y609599D02*
X228599Y609599D01*
X228599Y609601D01*
X228601Y609601D01*
X228601Y609599D01*
X228599Y609599D01*
G37*
%LPD*%
%LPC*%
G36*
X558799Y165099D02*
X558799Y165099D01*
X558799Y165101D01*
X558801Y165101D01*
X558801Y165099D01*
X558799Y165099D01*
G37*
%LPD*%
%LPC*%
G36*
X522699Y165099D02*
X522699Y165099D01*
X522699Y165101D01*
X522701Y165101D01*
X522701Y165099D01*
X522699Y165099D01*
G37*
%LPD*%
%LPC*%
G36*
X239999Y165099D02*
X239999Y165099D01*
X239999Y165101D01*
X240001Y165101D01*
X240001Y165099D01*
X239999Y165099D01*
G37*
%LPD*%
%LPC*%
G36*
X203199Y165099D02*
X203199Y165099D01*
X203199Y165101D01*
X203201Y165101D01*
X203201Y165099D01*
X203199Y165099D01*
G37*
%LPD*%
%LPC*%
G36*
X268699Y177599D02*
X268699Y177599D01*
X268699Y177601D01*
X268701Y177601D01*
X268701Y177599D01*
X268699Y177599D01*
G37*
%LPD*%
%LPC*%
G36*
X342899Y330199D02*
X342899Y330199D01*
X342899Y330201D01*
X342901Y330201D01*
X342901Y330199D01*
X342899Y330199D01*
G37*
%LPD*%
%LPC*%
G36*
X522699Y342899D02*
X522699Y342899D01*
X522699Y342901D01*
X522701Y342901D01*
X522701Y342899D01*
X522699Y342899D01*
G37*
%LPD*%
%LPC*%
G36*
X239999Y266699D02*
X239999Y266699D01*
X239999Y266701D01*
X240001Y266701D01*
X240001Y266699D01*
X239999Y266699D01*
G37*
%LPD*%
%LPC*%
G36*
X203199Y266699D02*
X203199Y266699D01*
X203199Y266701D01*
X203201Y266701D01*
X203201Y266699D01*
X203199Y266699D01*
G37*
%LPD*%
%LPC*%
G36*
X558799Y342899D02*
X558799Y342899D01*
X558799Y342901D01*
X558801Y342901D01*
X558801Y342899D01*
X558799Y342899D01*
G37*
%LPD*%
%LPC*%
G36*
X493299Y177599D02*
X493299Y177599D01*
X493299Y177601D01*
X493301Y177601D01*
X493301Y177599D01*
X493299Y177599D01*
G37*
%LPD*%
%LPC*%
G36*
X406399Y190099D02*
X406399Y190099D01*
X406399Y190101D01*
X406401Y190101D01*
X406401Y190099D01*
X406399Y190099D01*
G37*
%LPD*%
D10*
X499904Y152200D02*
X486696Y152200D01*
X486696Y177600D02*
X499904Y177600D01*
X499904Y203000D02*
X486696Y203000D01*
X486696Y228400D02*
X499904Y228400D01*
X499904Y253800D02*
X486696Y253800D01*
X486696Y279200D02*
X499904Y279200D01*
X499904Y304600D02*
X486696Y304600D01*
X486696Y330000D02*
X499904Y330000D01*
X499904Y355400D02*
X486696Y355400D01*
X486696Y380800D02*
X499904Y380800D01*
X499904Y406200D02*
X486696Y406200D01*
X486696Y431600D02*
X499904Y431600D01*
X499904Y457000D02*
X486696Y457000D01*
X486696Y482400D02*
X499904Y482400D01*
X499904Y507800D02*
X486696Y507800D01*
X275304Y152200D02*
X262096Y152200D01*
X262096Y177600D02*
X275304Y177600D01*
X275304Y203000D02*
X262096Y203000D01*
X262096Y228400D02*
X275304Y228400D01*
X275304Y253800D02*
X262096Y253800D01*
X262096Y279200D02*
X275304Y279200D01*
X275304Y304600D02*
X262096Y304600D01*
X262096Y330000D02*
X275304Y330000D01*
X275304Y355400D02*
X262096Y355400D01*
X262096Y380800D02*
X275304Y380800D01*
X275304Y406200D02*
X262096Y406200D01*
X262096Y431600D02*
X275304Y431600D01*
X275304Y457000D02*
X262096Y457000D01*
X262096Y482400D02*
X275304Y482400D01*
X275304Y507800D02*
X262096Y507800D01*
D11*
X482600Y601980D02*
X482600Y617220D01*
X457200Y617220D02*
X457200Y601980D01*
X431800Y601980D02*
X431800Y617220D01*
X406400Y617220D02*
X406400Y601980D01*
D10*
X552196Y139700D02*
X565404Y139700D01*
X565404Y165100D02*
X552196Y165100D01*
X552196Y190500D02*
X565404Y190500D01*
X565404Y215900D02*
X552196Y215900D01*
X552196Y241300D02*
X565404Y241300D01*
X565404Y266700D02*
X552196Y266700D01*
X552196Y292100D02*
X565404Y292100D01*
X565404Y317500D02*
X552196Y317500D01*
X552196Y342900D02*
X565404Y342900D01*
X565404Y368300D02*
X552196Y368300D01*
X552196Y393700D02*
X565404Y393700D01*
X565404Y419100D02*
X552196Y419100D01*
X552196Y444500D02*
X565404Y444500D01*
X565404Y469900D02*
X552196Y469900D01*
X552196Y495300D02*
X565404Y495300D01*
X209804Y139700D02*
X196596Y139700D01*
X196596Y165100D02*
X209804Y165100D01*
X209804Y190500D02*
X196596Y190500D01*
X196596Y215900D02*
X209804Y215900D01*
X209804Y241300D02*
X196596Y241300D01*
X196596Y266700D02*
X209804Y266700D01*
X209804Y292100D02*
X196596Y292100D01*
X196596Y317500D02*
X209804Y317500D01*
X209804Y342900D02*
X196596Y342900D01*
X196596Y368300D02*
X209804Y368300D01*
X209804Y393700D02*
X196596Y393700D01*
X196596Y419100D02*
X209804Y419100D01*
X209804Y444500D02*
X196596Y444500D01*
X196596Y469900D02*
X209804Y469900D01*
X209804Y495300D02*
X196596Y495300D01*
X516096Y139700D02*
X529304Y139700D01*
X529304Y165100D02*
X516096Y165100D01*
X516096Y190500D02*
X529304Y190500D01*
X529304Y215900D02*
X516096Y215900D01*
X516096Y241300D02*
X529304Y241300D01*
X529304Y266700D02*
X516096Y266700D01*
X516096Y292100D02*
X529304Y292100D01*
X529304Y317500D02*
X516096Y317500D01*
X516096Y342900D02*
X529304Y342900D01*
X529304Y368300D02*
X516096Y368300D01*
X516096Y393700D02*
X529304Y393700D01*
X529304Y419100D02*
X516096Y419100D01*
X516096Y444500D02*
X529304Y444500D01*
X529304Y469900D02*
X516096Y469900D01*
X516096Y495300D02*
X529304Y495300D01*
X246604Y139700D02*
X233396Y139700D01*
X233396Y165100D02*
X246604Y165100D01*
X246604Y190500D02*
X233396Y190500D01*
X233396Y215900D02*
X246604Y215900D01*
X246604Y241300D02*
X233396Y241300D01*
X233396Y266700D02*
X246604Y266700D01*
X246604Y292100D02*
X233396Y292100D01*
X233396Y317500D02*
X246604Y317500D01*
X246604Y342900D02*
X233396Y342900D01*
X233396Y368300D02*
X246604Y368300D01*
X246604Y393700D02*
X233396Y393700D01*
X233396Y419100D02*
X246604Y419100D01*
X246604Y444500D02*
X233396Y444500D01*
X233396Y469900D02*
X246604Y469900D01*
X246604Y495300D02*
X233396Y495300D01*
D11*
X406400Y197720D02*
X406400Y182480D01*
X381000Y182480D02*
X381000Y197720D01*
X355600Y197720D02*
X355600Y182480D01*
X406400Y233680D02*
X406400Y248920D01*
X381000Y248920D02*
X381000Y233680D01*
X355600Y233680D02*
X355600Y248920D01*
D10*
X425196Y495300D02*
X438404Y495300D01*
X336804Y495300D02*
X323596Y495300D01*
X203200Y602996D02*
X203200Y616204D01*
X228600Y616204D02*
X228600Y602996D01*
X254000Y602996D02*
X254000Y616204D01*
X279400Y616204D02*
X279400Y602996D01*
X304800Y602996D02*
X304800Y616204D01*
X330200Y616204D02*
X330200Y602996D01*
X412496Y304800D02*
X425704Y304800D01*
X425704Y330200D02*
X412496Y330200D01*
X412496Y457200D02*
X425704Y457200D01*
X349504Y457200D02*
X336296Y457200D01*
X412496Y355600D02*
X425704Y355600D01*
X425704Y381000D02*
X412496Y381000D01*
X412496Y431800D02*
X425704Y431800D01*
X425704Y406400D02*
X412496Y406400D01*
X349504Y431800D02*
X336296Y431800D01*
X336296Y406400D02*
X349504Y406400D01*
X349504Y381000D02*
X336296Y381000D01*
X336296Y355600D02*
X349504Y355600D01*
X349504Y330200D02*
X336296Y330200D01*
X336296Y304800D02*
X349504Y304800D01*
D12*
X523494Y493776D02*
X534924Y493776D01*
X539496Y489204D01*
X541782Y489204D01*
X546354Y493776D01*
X557784Y493776D01*
X523494Y493776D02*
X522700Y495300D01*
X557784Y493776D02*
X558800Y495300D01*
X448056Y496062D02*
X432054Y496062D01*
X448056Y496062D02*
X450342Y498348D01*
X475488Y498348D01*
X484632Y507492D01*
X491490Y507492D01*
X432054Y496062D02*
X431800Y495300D01*
X491490Y507492D02*
X493300Y507800D01*
X521208Y505206D02*
X521208Y496062D01*
X521208Y505206D02*
X512064Y514350D01*
X509778Y514350D01*
X505206Y509778D01*
X493776Y509778D01*
X521208Y496062D02*
X522700Y495300D01*
X493300Y507800D02*
X493776Y509778D01*
X493776Y329184D02*
X507492Y329184D01*
X521208Y315468D01*
X493776Y329184D02*
X493300Y330000D01*
X521208Y315468D02*
X522700Y317500D01*
X546354Y317754D02*
X557784Y317754D01*
X546354Y317754D02*
X541782Y322326D01*
X539496Y322326D01*
X534924Y317754D01*
X523494Y317754D01*
X557784Y317754D02*
X558800Y317500D01*
X523494Y317754D02*
X522700Y317500D01*
X347472Y354330D02*
X342900Y354330D01*
X347472Y354330D02*
X397764Y304038D01*
X397764Y297180D01*
X404622Y290322D01*
X450342Y290322D01*
X491490Y331470D01*
X342900Y354330D02*
X342900Y355600D01*
X491490Y331470D02*
X493300Y330000D01*
X493776Y429768D02*
X505206Y429768D01*
X514350Y420624D01*
X521208Y420624D01*
X493776Y429768D02*
X493300Y431600D01*
X521208Y420624D02*
X522700Y419100D01*
X546354Y420624D02*
X557784Y420624D01*
X546354Y420624D02*
X541782Y425196D01*
X539496Y425196D01*
X534924Y420624D01*
X523494Y420624D01*
X557784Y420624D02*
X558800Y419100D01*
X523494Y420624D02*
X522700Y419100D01*
X505206Y404622D02*
X493776Y404622D01*
X505206Y404622D02*
X514350Y395478D01*
X521208Y395478D01*
X493776Y404622D02*
X493300Y406200D01*
X521208Y395478D02*
X522700Y393700D01*
X546354Y395478D02*
X557784Y395478D01*
X546354Y395478D02*
X541782Y400050D01*
X539496Y400050D01*
X534924Y395478D01*
X523494Y395478D01*
X557784Y395478D02*
X558800Y393700D01*
X523494Y395478D02*
X522700Y393700D01*
X214884Y493776D02*
X203454Y493776D01*
X214884Y493776D02*
X221742Y486918D01*
X228600Y493776D01*
X237744Y493776D01*
X203454Y493776D02*
X203200Y495300D01*
X237744Y493776D02*
X240000Y495300D01*
X256032Y509778D02*
X267462Y509778D01*
X256032Y509778D02*
X251460Y514350D01*
X237744Y500634D01*
X237744Y496062D01*
X267462Y509778D02*
X268700Y507800D01*
X240000Y495300D02*
X237744Y496062D01*
X217170Y214884D02*
X203454Y214884D01*
X217170Y214884D02*
X221742Y210312D01*
X226314Y210312D01*
X230886Y214884D01*
X237744Y214884D01*
X203454Y214884D02*
X203200Y215900D01*
X237744Y214884D02*
X240000Y215900D01*
X262890Y226314D02*
X267462Y226314D01*
X262890Y226314D02*
X253746Y217170D01*
X240030Y217170D01*
X267462Y226314D02*
X268700Y228400D01*
X240030Y217170D02*
X240000Y215900D01*
X203454Y139446D02*
X203454Y132588D01*
X210312Y125730D01*
X233172Y125730D01*
X240030Y132588D01*
X240030Y139446D01*
X203454Y139446D02*
X203200Y139700D01*
X253746Y137160D02*
X267462Y150876D01*
X253746Y137160D02*
X251460Y139446D01*
X240030Y139446D01*
X267462Y150876D02*
X268700Y152200D01*
X240000Y139700D02*
X240030Y139446D01*
X342900Y267462D02*
X342900Y304800D01*
X342900Y267462D02*
X354330Y256032D01*
X354330Y242316D01*
X355600Y241300D01*
X208026Y603504D02*
X203454Y608076D01*
X208026Y603504D02*
X208026Y601218D01*
X331470Y306324D02*
X342900Y306324D01*
X203454Y608076D02*
X203200Y609600D01*
X342900Y306324D02*
X342900Y304800D01*
X281178Y164592D02*
X269748Y153162D01*
X281178Y164592D02*
X283464Y164592D01*
X340614Y221742D01*
X340614Y233172D01*
X347472Y240030D01*
X354330Y240030D01*
X269748Y153162D02*
X268700Y152200D01*
X354330Y240030D02*
X355600Y241300D01*
X203200Y139700D02*
X177800Y165100D01*
X177800Y582422D02*
X203454Y608076D01*
X177800Y582422D02*
X177800Y165100D01*
X493776Y304038D02*
X507492Y304038D01*
X521208Y290322D01*
X493776Y304038D02*
X493300Y304600D01*
X521208Y290322D02*
X522700Y292100D01*
X546354Y290322D02*
X557784Y290322D01*
X546354Y290322D02*
X541782Y285750D01*
X539496Y285750D01*
X534924Y290322D01*
X523494Y290322D01*
X557784Y290322D02*
X558800Y292100D01*
X523494Y290322D02*
X522700Y292100D01*
X457200Y598932D02*
X457200Y609600D01*
X457200Y598932D02*
X546354Y509778D01*
X571500Y509778D01*
X578358Y502920D01*
X578358Y500634D01*
X580644Y498348D01*
X580644Y491490D01*
X578358Y489204D01*
X578358Y475488D01*
X580644Y473202D01*
X580644Y466344D01*
X578358Y464058D01*
X578358Y450342D01*
X580644Y448056D01*
X580644Y441198D01*
X578358Y438912D01*
X578358Y425196D01*
X580644Y422910D01*
X580644Y416052D01*
X578358Y413766D01*
X578358Y397764D01*
X580644Y395478D01*
X580644Y390906D01*
X578358Y388620D01*
X578358Y372618D01*
X580644Y370332D01*
X580644Y365760D01*
X578358Y363474D01*
X578358Y349758D01*
X580644Y347472D01*
X580644Y338328D01*
X578358Y336042D01*
X578358Y322326D01*
X580644Y320040D01*
X580644Y315468D01*
X578358Y313182D01*
X578358Y308610D01*
X560070Y290322D01*
X558800Y292100D01*
X505206Y454914D02*
X493776Y454914D01*
X505206Y454914D02*
X514350Y445770D01*
X521208Y445770D01*
X522700Y444500D01*
X546354Y445770D02*
X557784Y445770D01*
X546354Y445770D02*
X541782Y450342D01*
X539496Y450342D01*
X534924Y445770D01*
X523494Y445770D01*
X557784Y445770D02*
X558800Y444500D01*
X523494Y445770D02*
X522700Y444500D01*
X422910Y331470D02*
X420624Y331470D01*
X422910Y331470D02*
X470916Y379476D01*
X470916Y436626D01*
X477774Y443484D01*
X482346Y443484D01*
X493776Y454914D01*
X420624Y331470D02*
X419100Y330200D01*
X493776Y454914D02*
X493300Y457000D01*
X493776Y278892D02*
X507492Y278892D01*
X521208Y265176D01*
X493776Y278892D02*
X493300Y279200D01*
X521208Y265176D02*
X522700Y266700D01*
X546354Y265176D02*
X557784Y265176D01*
X546354Y265176D02*
X541782Y260604D01*
X539496Y260604D01*
X534924Y265176D01*
X523494Y265176D01*
X557784Y265176D02*
X558800Y266700D01*
X523494Y265176D02*
X522700Y266700D01*
X507492Y253746D02*
X493776Y253746D01*
X507492Y253746D02*
X521208Y240030D01*
X493776Y253746D02*
X493300Y253800D01*
X521208Y240030D02*
X522700Y241300D01*
X546354Y242316D02*
X557784Y242316D01*
X546354Y242316D02*
X541782Y246888D01*
X539496Y246888D01*
X534924Y242316D01*
X523494Y242316D01*
X557784Y242316D02*
X558800Y241300D01*
X523494Y242316D02*
X522700Y241300D01*
X505206Y226314D02*
X493776Y226314D01*
X505206Y226314D02*
X514350Y217170D01*
X521208Y217170D01*
X493776Y226314D02*
X493300Y228400D01*
X521208Y217170D02*
X522700Y215900D01*
X546354Y217170D02*
X557784Y217170D01*
X546354Y217170D02*
X541782Y221742D01*
X539496Y221742D01*
X534924Y217170D01*
X523494Y217170D01*
X557784Y217170D02*
X558800Y215900D01*
X523494Y217170D02*
X522700Y215900D01*
X505206Y201168D02*
X493776Y201168D01*
X505206Y201168D02*
X514350Y192024D01*
X521208Y192024D01*
X493776Y201168D02*
X493300Y203000D01*
X521208Y192024D02*
X522700Y190500D01*
X546354Y192024D02*
X557784Y192024D01*
X546354Y192024D02*
X541782Y196596D01*
X539496Y196596D01*
X534924Y192024D01*
X523494Y192024D01*
X557784Y192024D02*
X558800Y190500D01*
X523494Y192024D02*
X522700Y190500D01*
X496062Y379476D02*
X493776Y379476D01*
X496062Y379476D02*
X509778Y365760D01*
X518922Y365760D01*
X521208Y368046D01*
X493776Y379476D02*
X493300Y380800D01*
X521208Y368046D02*
X522700Y368300D01*
X546354Y368046D02*
X557784Y368046D01*
X546354Y368046D02*
X541782Y363474D01*
X539496Y363474D01*
X534924Y368046D01*
X523494Y368046D01*
X557784Y368046D02*
X558800Y368300D01*
X523494Y368046D02*
X522700Y368300D01*
X507492Y482346D02*
X493776Y482346D01*
X507492Y482346D02*
X521208Y468630D01*
X493776Y482346D02*
X493300Y482400D01*
X521208Y468630D02*
X522700Y469900D01*
X546354Y470916D02*
X557784Y470916D01*
X546354Y470916D02*
X541782Y475488D01*
X539496Y475488D01*
X534924Y470916D01*
X523494Y470916D01*
X557784Y470916D02*
X558800Y469900D01*
X523494Y470916D02*
X522700Y469900D01*
X425196Y411480D02*
X420624Y406908D01*
X425196Y411480D02*
X427482Y411480D01*
X470916Y454914D01*
X470916Y461772D01*
X491490Y482346D01*
X420624Y406908D02*
X419100Y406400D01*
X491490Y482346D02*
X493300Y482400D01*
X217170Y470916D02*
X203454Y470916D01*
X217170Y470916D02*
X221742Y475488D01*
X226314Y475488D01*
X230886Y470916D01*
X237744Y470916D01*
X203454Y470916D02*
X203200Y469900D01*
X237744Y470916D02*
X240000Y469900D01*
X262890Y477774D02*
X267462Y482346D01*
X262890Y477774D02*
X260604Y477774D01*
X253746Y470916D01*
X240030Y470916D01*
X267462Y482346D02*
X268700Y482400D01*
X240030Y470916D02*
X240000Y469900D01*
X217170Y443484D02*
X203454Y443484D01*
X217170Y443484D02*
X221742Y438912D01*
X226314Y438912D01*
X230886Y443484D01*
X237744Y443484D01*
X203454Y443484D02*
X203200Y444500D01*
X237744Y443484D02*
X240000Y444500D01*
X262890Y454914D02*
X267462Y454914D01*
X262890Y454914D02*
X253746Y445770D01*
X240030Y445770D01*
X267462Y454914D02*
X268700Y457000D01*
X240030Y445770D02*
X240000Y444500D01*
X214884Y420624D02*
X203454Y420624D01*
X214884Y420624D02*
X221742Y427482D01*
X228600Y420624D01*
X237744Y420624D01*
X203454Y420624D02*
X203200Y419100D01*
X237744Y420624D02*
X240000Y419100D01*
X256032Y429768D02*
X267462Y429768D01*
X256032Y429768D02*
X246888Y420624D01*
X240030Y420624D01*
X267462Y429768D02*
X268700Y431600D01*
X240030Y420624D02*
X240000Y419100D01*
X214884Y395478D02*
X203454Y395478D01*
X214884Y395478D02*
X221742Y402336D01*
X228600Y395478D01*
X237744Y395478D01*
X203454Y395478D02*
X203200Y393700D01*
X237744Y395478D02*
X240000Y393700D01*
X256032Y393192D02*
X267462Y404622D01*
X256032Y393192D02*
X240030Y393192D01*
X267462Y404622D02*
X268700Y406200D01*
X240000Y393700D02*
X240030Y393192D01*
X219456Y368046D02*
X203454Y368046D01*
X219456Y368046D02*
X221742Y370332D01*
X226314Y365760D01*
X228600Y368046D01*
X237744Y368046D01*
X203454Y368046D02*
X203200Y368300D01*
X237744Y368046D02*
X240000Y368300D01*
X256032Y368046D02*
X267462Y379476D01*
X256032Y368046D02*
X240030Y368046D01*
X267462Y379476D02*
X268700Y380800D01*
X240000Y368300D02*
X240030Y368046D01*
X219456Y342900D02*
X203200Y342900D01*
X219456Y342900D02*
X221742Y345186D01*
X226314Y340614D01*
X235458Y340614D01*
X237744Y342900D01*
X240000Y342900D01*
X256032Y342900D02*
X267462Y354330D01*
X256032Y342900D02*
X240000Y342900D01*
X267462Y354330D02*
X268700Y355400D01*
X214884Y290322D02*
X203454Y290322D01*
X214884Y290322D02*
X221742Y283464D01*
X228600Y290322D01*
X237744Y290322D01*
X203454Y290322D02*
X203200Y292100D01*
X237744Y290322D02*
X240000Y292100D01*
X262890Y299466D02*
X267462Y304038D01*
X262890Y299466D02*
X260604Y299466D01*
X253746Y292608D01*
X240030Y292608D01*
X267462Y304038D02*
X268700Y304600D01*
X240030Y292608D02*
X240000Y292100D01*
X219456Y317754D02*
X203454Y317754D01*
X219456Y317754D02*
X221742Y320040D01*
X226314Y320040D01*
X228600Y317754D01*
X237744Y317754D01*
X203454Y317754D02*
X203200Y317500D01*
X237744Y317754D02*
X240000Y317500D01*
X256032Y317754D02*
X267462Y329184D01*
X256032Y317754D02*
X240030Y317754D01*
X267462Y329184D02*
X268700Y330000D01*
X240030Y317754D02*
X240000Y317500D01*
X381762Y196596D02*
X381762Y192024D01*
X381762Y196596D02*
X393192Y208026D01*
X393192Y224028D01*
X381762Y235458D01*
X381762Y240030D01*
X381762Y192024D02*
X381000Y190100D01*
X381762Y240030D02*
X381000Y241300D01*
X310504Y505206D02*
X306716Y505206D01*
X320410Y495300D02*
X330200Y495300D01*
X320410Y495300D02*
X310504Y505206D01*
X306716Y505206D02*
X292100Y490590D01*
X292100Y215900D01*
X279200Y203000D01*
X268700Y203000D01*
X252500Y203000D01*
X240000Y190500D01*
X203200Y190500D01*
X397764Y384048D02*
X397764Y484632D01*
X281178Y601218D01*
X281178Y608076D01*
X279400Y609600D01*
D13*
X397764Y384048D03*
D12*
X493776Y150876D02*
X509778Y134874D01*
X514350Y139446D01*
X521208Y139446D01*
X493776Y150876D02*
X493300Y152200D01*
X521208Y139446D02*
X522700Y139700D01*
X546354Y139446D02*
X557784Y139446D01*
X546354Y139446D02*
X541782Y134874D01*
X539496Y134874D01*
X534924Y139446D01*
X523494Y139446D01*
X557784Y139446D02*
X558800Y139700D01*
X523494Y139446D02*
X522700Y139700D01*
X217170Y242316D02*
X203454Y242316D01*
X217170Y242316D02*
X221742Y246888D01*
X226314Y246888D01*
X230886Y242316D01*
X237744Y242316D01*
X203454Y242316D02*
X203200Y241300D01*
X237744Y242316D02*
X240000Y241300D01*
X262890Y249174D02*
X267462Y253746D01*
X262890Y249174D02*
X260604Y249174D01*
X253746Y242316D01*
X240030Y242316D01*
X267462Y253746D02*
X268700Y253800D01*
X240030Y242316D02*
X240000Y241300D01*
M02*
