G04 EAGLE Gerber RS-274X export*
G75*
%MOMM*%
%FSLAX34Y34*%
%LPD*%
%INSilkscreen Top*%
%IPPOS*%
%AMOC8*
5,1,8,0,0,1.08239X$1,22.5*%
G01*
%ADD10C,0.076200*%
%ADD11C,0.152400*%
%ADD12C,0.127000*%
%ADD13C,0.762000*%
%ADD14R,0.762000X0.508000*%
%ADD15R,0.762000X1.016000*%
%ADD16R,0.508000X2.032000*%
%ADD17R,1.905000X0.508000*%
%ADD18C,0.050800*%

G36*
X544719Y591069D02*
X544719Y591069D01*
X544772Y591068D01*
X544795Y591079D01*
X544806Y591081D01*
X544816Y591089D01*
X544846Y591103D01*
X549927Y594573D01*
X552714Y593119D01*
X552747Y593113D01*
X552777Y593097D01*
X552815Y593099D01*
X552852Y593092D01*
X552884Y593104D01*
X552917Y593106D01*
X552948Y593128D01*
X552984Y593142D01*
X553004Y593169D01*
X553031Y593189D01*
X553064Y593250D01*
X553068Y593255D01*
X553068Y593257D01*
X553070Y593260D01*
X556626Y603420D01*
X556630Y603490D01*
X556634Y603560D01*
X556634Y603561D01*
X556600Y603621D01*
X556566Y603683D01*
X556565Y603684D01*
X556563Y603685D01*
X556500Y603730D01*
X555262Y604350D01*
X554207Y605203D01*
X554048Y605401D01*
X553358Y606262D01*
X552756Y607478D01*
X552429Y608795D01*
X552391Y610152D01*
X552644Y611485D01*
X553177Y612733D01*
X553965Y613838D01*
X554971Y614749D01*
X556149Y615423D01*
X557443Y615830D01*
X558796Y615949D01*
X560104Y615789D01*
X561352Y615365D01*
X562488Y614695D01*
X563464Y613807D01*
X564237Y612740D01*
X564777Y611537D01*
X565061Y610249D01*
X565075Y608931D01*
X564821Y607637D01*
X564308Y606422D01*
X563558Y605337D01*
X562603Y604428D01*
X561461Y603719D01*
X561418Y603672D01*
X561373Y603627D01*
X561371Y603620D01*
X561366Y603615D01*
X561355Y603552D01*
X561341Y603490D01*
X561343Y603481D01*
X561342Y603476D01*
X561346Y603466D01*
X561359Y603410D01*
X565296Y593504D01*
X565307Y593490D01*
X565311Y593473D01*
X565349Y593436D01*
X565382Y593393D01*
X565399Y593387D01*
X565412Y593375D01*
X565464Y593364D01*
X565515Y593345D01*
X565532Y593349D01*
X565549Y593345D01*
X565628Y593364D01*
X567152Y593999D01*
X567162Y594007D01*
X567195Y594022D01*
X568576Y594942D01*
X573514Y591486D01*
X573567Y591468D01*
X573617Y591443D01*
X573632Y591445D01*
X573647Y591440D01*
X573701Y591453D01*
X573757Y591459D01*
X573775Y591471D01*
X573784Y591473D01*
X573793Y591482D01*
X573826Y591502D01*
X574842Y592391D01*
X574845Y592396D01*
X574854Y592403D01*
X575743Y593292D01*
X575746Y593296D01*
X575753Y593303D01*
X576769Y594446D01*
X576772Y594451D01*
X576780Y594459D01*
X577669Y595602D01*
X577687Y595646D01*
X577712Y595687D01*
X577712Y595710D01*
X577721Y595732D01*
X577712Y595780D01*
X577712Y595828D01*
X577697Y595859D01*
X577695Y595871D01*
X577688Y595879D01*
X577677Y595901D01*
X574086Y601102D01*
X574894Y602487D01*
X574897Y602500D01*
X574915Y602535D01*
X575423Y604059D01*
X575424Y604066D01*
X575429Y604078D01*
X575897Y605951D01*
X581960Y607065D01*
X582016Y607093D01*
X582074Y607118D01*
X582079Y607124D01*
X582086Y607128D01*
X582119Y607182D01*
X582154Y607234D01*
X582156Y607244D01*
X582159Y607249D01*
X582158Y607260D01*
X582167Y607314D01*
X582167Y610235D01*
X582165Y610242D01*
X582166Y610258D01*
X582039Y611655D01*
X582039Y611656D01*
X582039Y611657D01*
X581912Y612927D01*
X581893Y612975D01*
X581882Y613024D01*
X581867Y613039D01*
X581860Y613058D01*
X581818Y613088D01*
X581782Y613124D01*
X581755Y613134D01*
X581745Y613140D01*
X581734Y613141D01*
X581706Y613151D01*
X575634Y614266D01*
X575171Y615770D01*
X575166Y615779D01*
X575160Y615801D01*
X574525Y617198D01*
X574519Y617204D01*
X574513Y617221D01*
X573628Y618738D01*
X573573Y618848D01*
X577040Y623676D01*
X577057Y623725D01*
X577082Y623771D01*
X577080Y623791D01*
X577087Y623809D01*
X577075Y623860D01*
X577072Y623911D01*
X577058Y623935D01*
X577056Y623947D01*
X577047Y623955D01*
X577032Y623982D01*
X576016Y625252D01*
X576008Y625257D01*
X575997Y625273D01*
X574727Y626543D01*
X574722Y626546D01*
X574715Y626555D01*
X573699Y627444D01*
X573691Y627447D01*
X573679Y627459D01*
X572790Y628094D01*
X572748Y628109D01*
X572711Y628132D01*
X572683Y628132D01*
X572657Y628141D01*
X572614Y628131D01*
X572570Y628130D01*
X572532Y628112D01*
X572520Y628109D01*
X572514Y628103D01*
X572497Y628095D01*
X567420Y624504D01*
X566416Y625061D01*
X566409Y625063D01*
X566396Y625071D01*
X564110Y626087D01*
X564097Y626089D01*
X564062Y626103D01*
X563083Y626321D01*
X561970Y632379D01*
X561946Y632426D01*
X561930Y632476D01*
X561915Y632488D01*
X561907Y632505D01*
X561862Y632532D01*
X561821Y632566D01*
X561796Y632572D01*
X561786Y632578D01*
X561774Y632577D01*
X561742Y632585D01*
X560218Y632712D01*
X560211Y632711D01*
X560197Y632713D01*
X557276Y632713D01*
X557268Y632711D01*
X557251Y632712D01*
X555981Y632585D01*
X555932Y632565D01*
X555880Y632553D01*
X555867Y632539D01*
X555850Y632533D01*
X555819Y632490D01*
X555782Y632452D01*
X555774Y632427D01*
X555768Y632418D01*
X555767Y632406D01*
X555756Y632375D01*
X554765Y626429D01*
X553005Y625842D01*
X553001Y625839D01*
X552991Y625837D01*
X551721Y625329D01*
X551713Y625323D01*
X551689Y625314D01*
X550053Y624379D01*
X545106Y627966D01*
X545058Y627983D01*
X545013Y628008D01*
X544993Y628007D01*
X544973Y628014D01*
X544923Y628003D01*
X544873Y628000D01*
X544847Y627986D01*
X544835Y627983D01*
X544827Y627975D01*
X544802Y627961D01*
X543659Y627072D01*
X543653Y627064D01*
X543635Y627051D01*
X542365Y625781D01*
X542362Y625777D01*
X542355Y625770D01*
X541343Y624633D01*
X540714Y624003D01*
X540684Y623948D01*
X540650Y623896D01*
X540650Y623887D01*
X540646Y623880D01*
X540650Y623817D01*
X540649Y623755D01*
X540654Y623745D01*
X540654Y623739D01*
X540661Y623730D01*
X540684Y623681D01*
X544148Y618608D01*
X543470Y617477D01*
X543468Y617469D01*
X543457Y617453D01*
X542695Y615802D01*
X542693Y615790D01*
X542681Y615763D01*
X542304Y614383D01*
X541985Y613638D01*
X535899Y612644D01*
X535840Y612616D01*
X535780Y612590D01*
X535777Y612586D01*
X535772Y612583D01*
X535737Y612528D01*
X535700Y612474D01*
X535699Y612467D01*
X535697Y612464D01*
X535697Y612455D01*
X535687Y612394D01*
X535687Y606806D01*
X535705Y606743D01*
X535721Y606680D01*
X535724Y606676D01*
X535726Y606671D01*
X535775Y606627D01*
X535822Y606582D01*
X535829Y606580D01*
X535831Y606577D01*
X535840Y606576D01*
X535899Y606556D01*
X541964Y605566D01*
X542428Y603942D01*
X542428Y603941D01*
X542428Y603939D01*
X542809Y602669D01*
X542816Y602659D01*
X542826Y602629D01*
X543334Y601613D01*
X543337Y601609D01*
X543341Y601598D01*
X544147Y600217D01*
X540561Y595271D01*
X540541Y595215D01*
X540516Y595162D01*
X540518Y595150D01*
X540513Y595138D01*
X540525Y595084D01*
X540525Y595080D01*
X540527Y595075D01*
X540533Y595022D01*
X540542Y595008D01*
X540544Y595000D01*
X540553Y594991D01*
X540577Y594954D01*
X541593Y593811D01*
X541597Y593808D01*
X541603Y593800D01*
X542492Y592911D01*
X542496Y592908D01*
X542503Y592901D01*
X543646Y591885D01*
X543647Y591884D01*
X543649Y591882D01*
X544538Y591120D01*
X544587Y591098D01*
X544631Y591069D01*
X544650Y591069D01*
X544666Y591061D01*
X544719Y591069D01*
G37*
D10*
X245103Y574421D02*
X245103Y583827D01*
X251373Y574421D01*
X251373Y583827D01*
X256026Y574421D02*
X259161Y574421D01*
X260729Y575989D01*
X260729Y579124D01*
X259161Y580692D01*
X256026Y580692D01*
X254458Y579124D01*
X254458Y575989D01*
X256026Y574421D01*
X270084Y574421D02*
X270084Y583827D01*
X270084Y574421D02*
X265381Y574421D01*
X263813Y575989D01*
X263813Y579124D01*
X265381Y580692D01*
X270084Y580692D01*
X274736Y574421D02*
X277871Y574421D01*
X274736Y574421D02*
X273168Y575989D01*
X273168Y579124D01*
X274736Y580692D01*
X277871Y580692D01*
X279439Y579124D01*
X279439Y577556D01*
X273168Y577556D01*
X282524Y574421D02*
X282524Y583827D01*
X285659Y580692D01*
X288794Y583827D01*
X288794Y574421D01*
X298149Y582259D02*
X296582Y583827D01*
X293446Y583827D01*
X291879Y582259D01*
X291879Y575989D01*
X293446Y574421D01*
X296582Y574421D01*
X298149Y575989D01*
X301234Y575989D02*
X301234Y583827D01*
X301234Y575989D02*
X302802Y574421D01*
X305937Y574421D01*
X307505Y575989D01*
X307505Y583827D01*
X319944Y583827D02*
X319944Y574421D01*
X319944Y583827D02*
X324647Y583827D01*
X326215Y582259D01*
X326215Y580692D01*
X324647Y579124D01*
X326215Y577556D01*
X326215Y575989D01*
X324647Y574421D01*
X319944Y574421D01*
X319944Y579124D02*
X324647Y579124D01*
X329299Y580692D02*
X329299Y574421D01*
X329299Y577556D02*
X332435Y580692D01*
X334002Y580692D01*
X338663Y574421D02*
X341798Y574421D01*
X338663Y574421D02*
X337095Y575989D01*
X337095Y579124D01*
X338663Y580692D01*
X341798Y580692D01*
X343366Y579124D01*
X343366Y577556D01*
X337095Y577556D01*
X348018Y580692D02*
X351154Y580692D01*
X352721Y579124D01*
X352721Y574421D01*
X348018Y574421D01*
X346451Y575989D01*
X348018Y577556D01*
X352721Y577556D01*
X355806Y574421D02*
X355806Y583827D01*
X355806Y577556D02*
X360509Y574421D01*
X355806Y577556D02*
X360509Y580692D01*
X365169Y574421D02*
X368305Y574421D01*
X369872Y575989D01*
X369872Y579124D01*
X368305Y580692D01*
X365169Y580692D01*
X363602Y579124D01*
X363602Y575989D01*
X365169Y574421D01*
X372957Y575989D02*
X372957Y580692D01*
X372957Y575989D02*
X374525Y574421D01*
X379228Y574421D01*
X379228Y580692D01*
X383880Y582259D02*
X383880Y575989D01*
X385447Y574421D01*
X385447Y580692D02*
X382312Y580692D01*
X397904Y580692D02*
X401039Y574421D01*
X404175Y580692D01*
X407259Y580692D02*
X410395Y583827D01*
X410395Y574421D01*
X413530Y574421D02*
X407259Y574421D01*
X416614Y574421D02*
X416614Y575989D01*
X418182Y575989D01*
X418182Y574421D01*
X416614Y574421D01*
X421292Y574421D02*
X427563Y574421D01*
X421292Y574421D02*
X427563Y580692D01*
X427563Y582259D01*
X425995Y583827D01*
X422860Y583827D01*
X421292Y582259D01*
X430647Y579124D02*
X436918Y579124D01*
X440002Y574421D02*
X446273Y574421D01*
X440002Y574421D02*
X446273Y580692D01*
X446273Y582259D01*
X444705Y583827D01*
X441570Y583827D01*
X440002Y582259D01*
X449358Y582259D02*
X449358Y575989D01*
X449358Y582259D02*
X450925Y583827D01*
X454061Y583827D01*
X455628Y582259D01*
X455628Y575989D01*
X454061Y574421D01*
X450925Y574421D01*
X449358Y575989D01*
X455628Y582259D01*
X458713Y580692D02*
X461848Y583827D01*
X461848Y574421D01*
X458713Y574421D02*
X464984Y574421D01*
X468068Y575989D02*
X469636Y574421D01*
X472771Y574421D01*
X474339Y575989D01*
X474339Y582259D01*
X472771Y583827D01*
X469636Y583827D01*
X468068Y582259D01*
X468068Y580692D01*
X469636Y579124D01*
X474339Y579124D01*
X477423Y575989D02*
X477423Y582259D01*
X478991Y583827D01*
X482126Y583827D01*
X483694Y582259D01*
X483694Y575989D01*
X482126Y574421D01*
X478991Y574421D01*
X477423Y575989D01*
X483694Y582259D01*
X486778Y580692D02*
X489914Y583827D01*
X489914Y574421D01*
X493049Y574421D02*
X486778Y574421D01*
X496134Y574421D02*
X502404Y574421D01*
X496134Y574421D02*
X502404Y580692D01*
X502404Y582259D01*
X500837Y583827D01*
X497701Y583827D01*
X496134Y582259D01*
X505489Y582259D02*
X507056Y583827D01*
X510192Y583827D01*
X511759Y582259D01*
X511759Y580692D01*
X510192Y579124D01*
X511759Y577556D01*
X511759Y575989D01*
X510192Y574421D01*
X507056Y574421D01*
X505489Y575989D01*
X505489Y577556D01*
X507056Y579124D01*
X505489Y580692D01*
X505489Y582259D01*
X507056Y579124D02*
X510192Y579124D01*
X245103Y568587D02*
X245103Y559181D01*
X245103Y563884D02*
X246670Y565452D01*
X249806Y565452D01*
X251373Y563884D01*
X251373Y559181D01*
X256026Y560749D02*
X256026Y567019D01*
X256026Y560749D02*
X257593Y559181D01*
X257593Y565452D02*
X254458Y565452D01*
X262262Y567019D02*
X262262Y560749D01*
X263830Y559181D01*
X263830Y565452D02*
X260695Y565452D01*
X266932Y565452D02*
X266932Y556046D01*
X266932Y565452D02*
X271635Y565452D01*
X273202Y563884D01*
X273202Y560749D01*
X271635Y559181D01*
X266932Y559181D01*
X276287Y565452D02*
X277854Y565452D01*
X277854Y563884D01*
X276287Y563884D01*
X276287Y565452D01*
X276287Y560749D02*
X277854Y560749D01*
X277854Y559181D01*
X276287Y559181D01*
X276287Y560749D01*
X280964Y559181D02*
X287235Y568587D01*
X296590Y568587D02*
X290319Y559181D01*
X299675Y560749D02*
X299675Y565452D01*
X299675Y560749D02*
X301242Y559181D01*
X302810Y560749D01*
X304378Y559181D01*
X305945Y560749D01*
X305945Y565452D01*
X309030Y565452D02*
X309030Y560749D01*
X310598Y559181D01*
X312165Y560749D01*
X313733Y559181D01*
X315301Y560749D01*
X315301Y565452D01*
X318385Y565452D02*
X318385Y560749D01*
X319953Y559181D01*
X321520Y560749D01*
X323088Y559181D01*
X324656Y560749D01*
X324656Y565452D01*
X327740Y560749D02*
X327740Y559181D01*
X327740Y560749D02*
X329308Y560749D01*
X329308Y559181D01*
X327740Y559181D01*
X332418Y560749D02*
X332418Y565452D01*
X332418Y560749D02*
X333985Y559181D01*
X338689Y559181D01*
X338689Y557613D02*
X338689Y565452D01*
X338689Y557613D02*
X337121Y556046D01*
X335553Y556046D01*
X343341Y559181D02*
X346476Y559181D01*
X348044Y560749D01*
X348044Y563884D01*
X346476Y565452D01*
X343341Y565452D01*
X341773Y563884D01*
X341773Y560749D01*
X343341Y559181D01*
X351128Y560749D02*
X351128Y565452D01*
X351128Y560749D02*
X352696Y559181D01*
X357399Y559181D01*
X357399Y565452D01*
X362051Y567019D02*
X362051Y560749D01*
X363619Y559181D01*
X363619Y565452D02*
X360483Y565452D01*
X366720Y565452D02*
X366720Y560749D01*
X368288Y559181D01*
X372991Y559181D01*
X372991Y565452D01*
X376075Y568587D02*
X376075Y559181D01*
X380778Y559181D01*
X382346Y560749D01*
X382346Y563884D01*
X380778Y565452D01*
X376075Y565452D01*
X386998Y559181D02*
X390134Y559181D01*
X386998Y559181D02*
X385431Y560749D01*
X385431Y563884D01*
X386998Y565452D01*
X390134Y565452D01*
X391701Y563884D01*
X391701Y562316D01*
X385431Y562316D01*
X394786Y560749D02*
X394786Y559181D01*
X394786Y560749D02*
X396353Y560749D01*
X396353Y559181D01*
X394786Y559181D01*
X401031Y565452D02*
X405734Y565452D01*
X401031Y565452D02*
X399463Y563884D01*
X399463Y560749D01*
X401031Y559181D01*
X405734Y559181D01*
X410386Y559181D02*
X413522Y559181D01*
X415089Y560749D01*
X415089Y563884D01*
X413522Y565452D01*
X410386Y565452D01*
X408819Y563884D01*
X408819Y560749D01*
X410386Y559181D01*
X418174Y559181D02*
X418174Y565452D01*
X419741Y565452D01*
X421309Y563884D01*
X421309Y559181D01*
X421309Y563884D02*
X422877Y565452D01*
X424444Y563884D01*
X424444Y559181D01*
X427529Y559181D02*
X433800Y568587D01*
X438452Y565452D02*
X443155Y565452D01*
X438452Y565452D02*
X436884Y563884D01*
X436884Y560749D01*
X438452Y559181D01*
X443155Y559181D01*
X446239Y559181D02*
X452510Y568587D01*
X455594Y568587D02*
X455594Y559181D01*
X455594Y568587D02*
X460297Y568587D01*
X461865Y567019D01*
X461865Y565452D01*
X460297Y563884D01*
X461865Y562316D01*
X461865Y560749D01*
X460297Y559181D01*
X455594Y559181D01*
X455594Y563884D02*
X460297Y563884D01*
X464950Y568587D02*
X464950Y559181D01*
X464950Y562316D02*
X471220Y568587D01*
X466517Y563884D02*
X471220Y559181D01*
X474305Y559181D02*
X474305Y568587D01*
X474305Y563884D02*
X480576Y563884D01*
X480576Y568587D02*
X480576Y559181D01*
X485228Y559181D02*
X488363Y559181D01*
X489931Y560749D01*
X489931Y563884D01*
X488363Y565452D01*
X485228Y565452D01*
X483660Y563884D01*
X483660Y560749D01*
X485228Y559181D01*
X493015Y559181D02*
X493015Y568587D01*
X493015Y559181D02*
X497718Y559181D01*
X499286Y560749D01*
X499286Y563884D01*
X497718Y565452D01*
X493015Y565452D01*
X502370Y568587D02*
X502370Y559181D01*
X507073Y559181D01*
X508641Y560749D01*
X508641Y563884D01*
X507073Y565452D01*
X502370Y565452D01*
X511726Y565452D02*
X511726Y560749D01*
X513293Y559181D01*
X517996Y559181D01*
X517996Y557613D02*
X517996Y565452D01*
X517996Y557613D02*
X516429Y556046D01*
X514861Y556046D01*
X377484Y140081D02*
X371213Y140081D01*
X377484Y140081D02*
X380619Y143216D01*
X377484Y146352D01*
X371213Y146352D01*
X371213Y154139D02*
X372781Y155707D01*
X371213Y154139D02*
X371213Y151004D01*
X372781Y149436D01*
X379051Y149436D01*
X380619Y151004D01*
X380619Y154139D01*
X379051Y155707D01*
X371213Y163494D02*
X372781Y165062D01*
X371213Y163494D02*
X371213Y160359D01*
X372781Y158791D01*
X379051Y158791D01*
X380619Y160359D01*
X380619Y163494D01*
X379051Y165062D01*
X398181Y146352D02*
X396613Y144784D01*
X396613Y141649D01*
X398181Y140081D01*
X404451Y140081D01*
X406019Y141649D01*
X406019Y144784D01*
X404451Y146352D01*
X401316Y146352D01*
X401316Y143216D01*
X406019Y149436D02*
X396613Y149436D01*
X406019Y155707D01*
X396613Y155707D01*
X396613Y158791D02*
X406019Y158791D01*
X406019Y163494D01*
X404451Y165062D01*
X398181Y165062D01*
X396613Y163494D01*
X396613Y158791D01*
X434713Y330581D02*
X444119Y330581D01*
X444119Y336852D01*
X440984Y339936D02*
X434713Y339936D01*
X440984Y339936D02*
X444119Y343072D01*
X440984Y346207D01*
X434713Y346207D01*
X434713Y349291D02*
X444119Y349291D01*
X444119Y355562D01*
X434713Y372705D02*
X436281Y374272D01*
X434713Y372705D02*
X434713Y369569D01*
X436281Y368002D01*
X437848Y368002D01*
X439416Y369569D01*
X439416Y372705D01*
X440984Y374272D01*
X442551Y374272D01*
X444119Y372705D01*
X444119Y369569D01*
X442551Y368002D01*
X444119Y377357D02*
X434713Y377357D01*
X439416Y377357D02*
X439416Y383628D01*
X434713Y383628D02*
X444119Y383628D01*
X444119Y386712D02*
X444119Y389847D01*
X444119Y388280D02*
X434713Y388280D01*
X434713Y389847D02*
X434713Y386712D01*
X434713Y392949D02*
X444119Y392949D01*
X434713Y392949D02*
X434713Y399220D01*
X439416Y396084D02*
X439416Y392949D01*
X444119Y405439D02*
X434713Y405439D01*
X434713Y402304D02*
X434713Y408575D01*
X434713Y411659D02*
X434713Y417930D01*
X434713Y411659D02*
X444119Y411659D01*
X444119Y417930D01*
X439416Y414795D02*
X439416Y411659D01*
X444119Y421014D02*
X434713Y421014D01*
X434713Y425717D01*
X436281Y427285D01*
X439416Y427285D01*
X440984Y425717D01*
X440984Y421014D01*
X440984Y424150D02*
X444119Y427285D01*
X216281Y124087D02*
X216281Y114681D01*
X216281Y119384D02*
X217849Y120952D01*
X220984Y120952D01*
X222552Y119384D01*
X222552Y114681D01*
X227204Y116249D02*
X227204Y122519D01*
X227204Y116249D02*
X228772Y114681D01*
X228772Y120952D02*
X225636Y120952D01*
X233441Y122519D02*
X233441Y116249D01*
X235008Y114681D01*
X235008Y120952D02*
X231873Y120952D01*
X238110Y120952D02*
X238110Y111546D01*
X238110Y120952D02*
X242813Y120952D01*
X244380Y119384D01*
X244380Y116249D01*
X242813Y114681D01*
X238110Y114681D01*
X247465Y120952D02*
X249033Y120952D01*
X249033Y119384D01*
X247465Y119384D01*
X247465Y120952D01*
X247465Y116249D02*
X249033Y116249D01*
X249033Y114681D01*
X247465Y114681D01*
X247465Y116249D01*
X252143Y114681D02*
X258413Y124087D01*
X267768Y124087D02*
X261498Y114681D01*
X270853Y116249D02*
X270853Y120952D01*
X270853Y116249D02*
X272421Y114681D01*
X273988Y116249D01*
X275556Y114681D01*
X277124Y116249D01*
X277124Y120952D01*
X280208Y120952D02*
X280208Y116249D01*
X281776Y114681D01*
X283343Y116249D01*
X284911Y114681D01*
X286479Y116249D01*
X286479Y120952D01*
X289563Y120952D02*
X289563Y116249D01*
X291131Y114681D01*
X292699Y116249D01*
X294266Y114681D01*
X295834Y116249D01*
X295834Y120952D01*
X298918Y116249D02*
X298918Y114681D01*
X298918Y116249D02*
X300486Y116249D01*
X300486Y114681D01*
X298918Y114681D01*
X305164Y116249D02*
X305164Y122519D01*
X305164Y116249D02*
X306731Y114681D01*
X306731Y120952D02*
X303596Y120952D01*
X309833Y124087D02*
X309833Y114681D01*
X309833Y119384D02*
X311401Y120952D01*
X314536Y120952D01*
X316104Y119384D01*
X316104Y114681D01*
X319188Y120952D02*
X320756Y120952D01*
X320756Y114681D01*
X322323Y114681D02*
X319188Y114681D01*
X320756Y124087D02*
X320756Y125655D01*
X325425Y120952D02*
X325425Y114681D01*
X325425Y120952D02*
X330128Y120952D01*
X331696Y119384D01*
X331696Y114681D01*
X337915Y111546D02*
X339483Y111546D01*
X341051Y113113D01*
X341051Y120952D01*
X336348Y120952D01*
X334780Y119384D01*
X334780Y116249D01*
X336348Y114681D01*
X341051Y114681D01*
X344135Y120952D02*
X345703Y120952D01*
X345703Y114681D01*
X344135Y114681D02*
X347271Y114681D01*
X345703Y124087D02*
X345703Y125655D01*
X350372Y120952D02*
X353507Y114681D01*
X356643Y120952D01*
X361295Y114681D02*
X364430Y114681D01*
X361295Y114681D02*
X359727Y116249D01*
X359727Y119384D01*
X361295Y120952D01*
X364430Y120952D01*
X365998Y119384D01*
X365998Y117816D01*
X359727Y117816D01*
X369082Y114681D02*
X369082Y120952D01*
X369082Y117816D02*
X372218Y120952D01*
X373785Y120952D01*
X376878Y114681D02*
X381581Y114681D01*
X383149Y116249D01*
X381581Y117816D01*
X378446Y117816D01*
X376878Y119384D01*
X378446Y120952D01*
X383149Y120952D01*
X387801Y114681D02*
X390937Y114681D01*
X387801Y114681D02*
X386234Y116249D01*
X386234Y119384D01*
X387801Y120952D01*
X390937Y120952D01*
X392504Y119384D01*
X392504Y117816D01*
X386234Y117816D01*
X395589Y116249D02*
X395589Y114681D01*
X395589Y116249D02*
X397156Y116249D01*
X397156Y114681D01*
X395589Y114681D01*
X401834Y120952D02*
X406537Y120952D01*
X401834Y120952D02*
X400266Y119384D01*
X400266Y116249D01*
X401834Y114681D01*
X406537Y114681D01*
X411189Y114681D02*
X414324Y114681D01*
X415892Y116249D01*
X415892Y119384D01*
X414324Y120952D01*
X411189Y120952D01*
X409621Y119384D01*
X409621Y116249D01*
X411189Y114681D01*
X418977Y114681D02*
X418977Y120952D01*
X420544Y120952D01*
X422112Y119384D01*
X422112Y114681D01*
X422112Y119384D02*
X423680Y120952D01*
X425247Y119384D01*
X425247Y114681D01*
X428332Y114681D02*
X434603Y124087D01*
X439255Y122519D02*
X439255Y116249D01*
X440822Y114681D01*
X440822Y120952D02*
X437687Y120952D01*
X443924Y124087D02*
X443924Y114681D01*
X443924Y119384D02*
X445491Y120952D01*
X448627Y120952D01*
X450195Y119384D01*
X450195Y114681D01*
X453279Y120952D02*
X454847Y120952D01*
X454847Y114681D01*
X456414Y114681D02*
X453279Y114681D01*
X454847Y124087D02*
X454847Y125655D01*
X459516Y120952D02*
X459516Y114681D01*
X459516Y120952D02*
X464219Y120952D01*
X465786Y119384D01*
X465786Y114681D01*
X472006Y111546D02*
X473574Y111546D01*
X475142Y113113D01*
X475142Y120952D01*
X470439Y120952D01*
X468871Y119384D01*
X468871Y116249D01*
X470439Y114681D01*
X475142Y114681D01*
X478226Y120952D02*
X479794Y120952D01*
X479794Y119384D01*
X478226Y119384D01*
X478226Y120952D01*
X478226Y116249D02*
X479794Y116249D01*
X479794Y114681D01*
X478226Y114681D01*
X478226Y116249D01*
X482904Y114681D02*
X489174Y114681D01*
X482904Y114681D02*
X489174Y120952D01*
X489174Y122519D01*
X487607Y124087D01*
X484471Y124087D01*
X482904Y122519D01*
X492259Y124087D02*
X498530Y124087D01*
X492259Y124087D02*
X492259Y119384D01*
X495394Y120952D01*
X496962Y120952D01*
X498530Y119384D01*
X498530Y116249D01*
X496962Y114681D01*
X493827Y114681D01*
X492259Y116249D01*
X501614Y122519D02*
X503182Y124087D01*
X506317Y124087D01*
X507885Y122519D01*
X507885Y120952D01*
X506317Y119384D01*
X504749Y119384D01*
X506317Y119384D02*
X507885Y117816D01*
X507885Y116249D01*
X506317Y114681D01*
X503182Y114681D01*
X501614Y116249D01*
X510969Y116249D02*
X512537Y114681D01*
X515672Y114681D01*
X517240Y116249D01*
X517240Y122519D01*
X515672Y124087D01*
X512537Y124087D01*
X510969Y122519D01*
X510969Y120952D01*
X512537Y119384D01*
X517240Y119384D01*
X520325Y122519D02*
X521892Y124087D01*
X525028Y124087D01*
X526595Y122519D01*
X526595Y120952D01*
X525028Y119384D01*
X526595Y117816D01*
X526595Y116249D01*
X525028Y114681D01*
X521892Y114681D01*
X520325Y116249D01*
X520325Y117816D01*
X521892Y119384D01*
X520325Y120952D01*
X520325Y122519D01*
X521892Y119384D02*
X525028Y119384D01*
X529680Y116249D02*
X531247Y114681D01*
X534383Y114681D01*
X535950Y116249D01*
X535950Y122519D01*
X534383Y124087D01*
X531247Y124087D01*
X529680Y122519D01*
X529680Y120952D01*
X531247Y119384D01*
X535950Y119384D01*
X539035Y124087D02*
X545306Y124087D01*
X545306Y122519D01*
X539035Y116249D01*
X539035Y114681D01*
X355219Y140081D02*
X345813Y140081D01*
X355219Y140081D02*
X355219Y144784D01*
X353651Y146352D01*
X347381Y146352D01*
X345813Y144784D01*
X345813Y140081D01*
X345813Y149436D02*
X345813Y155707D01*
X345813Y149436D02*
X350516Y149436D01*
X348948Y152572D01*
X348948Y154139D01*
X350516Y155707D01*
X353651Y155707D01*
X355219Y154139D01*
X355219Y151004D01*
X353651Y149436D01*
X349552Y225687D02*
X343281Y225687D01*
X343281Y220984D01*
X346416Y222552D01*
X347984Y222552D01*
X349552Y220984D01*
X349552Y217849D01*
X347984Y216281D01*
X344849Y216281D01*
X343281Y217849D01*
X352636Y222552D02*
X355772Y216281D01*
X358907Y222552D01*
X406781Y224119D02*
X408349Y225687D01*
X411484Y225687D01*
X413052Y224119D01*
X413052Y222552D01*
X411484Y220984D01*
X409916Y220984D01*
X411484Y220984D02*
X413052Y219416D01*
X413052Y217849D01*
X411484Y216281D01*
X408349Y216281D01*
X406781Y217849D01*
X416136Y222552D02*
X419272Y216281D01*
X422407Y222552D01*
X425491Y224119D02*
X427059Y225687D01*
X430194Y225687D01*
X431762Y224119D01*
X431762Y222552D01*
X430194Y220984D01*
X428627Y220984D01*
X430194Y220984D02*
X431762Y219416D01*
X431762Y217849D01*
X430194Y216281D01*
X427059Y216281D01*
X425491Y217849D01*
X398647Y626367D02*
X399875Y627596D01*
X398647Y626367D02*
X398647Y623910D01*
X399875Y622681D01*
X404790Y622681D01*
X406019Y623910D01*
X406019Y626367D01*
X404790Y627596D01*
X402333Y627596D01*
X402333Y625138D01*
X401104Y630165D02*
X406019Y630165D01*
X401104Y630165D02*
X401104Y633851D01*
X402333Y635080D01*
X406019Y635080D01*
X406019Y642564D02*
X398647Y642564D01*
X406019Y642564D02*
X406019Y638878D01*
X404790Y637649D01*
X402333Y637649D01*
X401104Y638878D01*
X401104Y642564D01*
X222075Y627596D02*
X220847Y626367D01*
X220847Y623910D01*
X222075Y622681D01*
X226990Y622681D01*
X228219Y623910D01*
X228219Y626367D01*
X226990Y627596D01*
X224533Y627596D01*
X224533Y625138D01*
X223304Y630165D02*
X228219Y630165D01*
X223304Y630165D02*
X223304Y633851D01*
X224533Y635080D01*
X228219Y635080D01*
X228219Y642564D02*
X220847Y642564D01*
X228219Y642564D02*
X228219Y638878D01*
X226990Y637649D01*
X224533Y637649D01*
X223304Y638878D01*
X223304Y642564D01*
X474847Y623910D02*
X476075Y622681D01*
X474847Y623910D02*
X474847Y626367D01*
X476075Y627596D01*
X477304Y627596D01*
X478533Y626367D01*
X478533Y625138D01*
X478533Y626367D02*
X479762Y627596D01*
X480990Y627596D01*
X482219Y626367D01*
X482219Y623910D01*
X480990Y622681D01*
X477304Y630165D02*
X482219Y632623D01*
X477304Y635080D01*
X476075Y637649D02*
X474847Y638878D01*
X474847Y641335D01*
X476075Y642564D01*
X477304Y642564D01*
X478533Y641335D01*
X478533Y640107D01*
X478533Y641335D02*
X479762Y642564D01*
X480990Y642564D01*
X482219Y641335D01*
X482219Y638878D01*
X480990Y637649D01*
X456819Y622681D02*
X449447Y622681D01*
X456819Y622681D02*
X456819Y626367D01*
X455590Y627596D01*
X450675Y627596D01*
X449447Y626367D01*
X449447Y622681D01*
X450675Y632623D02*
X449447Y635080D01*
X450675Y632623D02*
X453133Y630165D01*
X455590Y630165D01*
X456819Y631394D01*
X456819Y633851D01*
X455590Y635080D01*
X454362Y635080D01*
X453133Y633851D01*
X453133Y630165D01*
X175913Y492468D02*
X175913Y487553D01*
X175913Y492468D02*
X178370Y494925D01*
X180828Y492468D01*
X180828Y487553D01*
X180828Y491239D02*
X175913Y491239D01*
X183397Y488782D02*
X183397Y493697D01*
X184626Y494925D01*
X187083Y494925D01*
X188312Y493697D01*
X188312Y488782D01*
X187083Y487553D01*
X184626Y487553D01*
X183397Y488782D01*
X188312Y493697D01*
X168429Y469525D02*
X168429Y462153D01*
X168429Y469525D02*
X172115Y469525D01*
X173343Y468297D01*
X173343Y465839D01*
X172115Y464610D01*
X168429Y464610D01*
X170886Y464610D02*
X173343Y462153D01*
X179599Y469525D02*
X180828Y468297D01*
X179599Y469525D02*
X177141Y469525D01*
X175913Y468297D01*
X175913Y467068D01*
X177141Y465839D01*
X179599Y465839D01*
X180828Y464610D01*
X180828Y463382D01*
X179599Y462153D01*
X177141Y462153D01*
X175913Y463382D01*
X183397Y464610D02*
X183397Y469525D01*
X183397Y464610D02*
X185854Y462153D01*
X188312Y464610D01*
X188312Y469525D01*
X172115Y418725D02*
X173343Y417497D01*
X172115Y418725D02*
X169657Y418725D01*
X168429Y417497D01*
X168429Y416268D01*
X169657Y415039D01*
X172115Y415039D01*
X173343Y413810D01*
X173343Y412582D01*
X172115Y411353D01*
X169657Y411353D01*
X168429Y412582D01*
X175913Y411353D02*
X175913Y418725D01*
X175913Y411353D02*
X179599Y411353D01*
X180828Y412582D01*
X180828Y417497D01*
X179599Y418725D01*
X175913Y418725D01*
X183397Y417497D02*
X184626Y418725D01*
X187083Y418725D01*
X188312Y417497D01*
X188312Y416268D01*
X187083Y415039D01*
X185854Y415039D01*
X187083Y415039D02*
X188312Y413810D01*
X188312Y412582D01*
X187083Y411353D01*
X184626Y411353D01*
X183397Y412582D01*
X172115Y393325D02*
X173343Y392097D01*
X172115Y393325D02*
X169657Y393325D01*
X168429Y392097D01*
X168429Y390868D01*
X169657Y389639D01*
X172115Y389639D01*
X173343Y388410D01*
X173343Y387182D01*
X172115Y385953D01*
X169657Y385953D01*
X168429Y387182D01*
X175913Y385953D02*
X175913Y393325D01*
X175913Y385953D02*
X179599Y385953D01*
X180828Y387182D01*
X180828Y392097D01*
X179599Y393325D01*
X175913Y393325D01*
X183397Y385953D02*
X188312Y385953D01*
X183397Y385953D02*
X188312Y390868D01*
X188312Y392097D01*
X187083Y393325D01*
X184626Y393325D01*
X183397Y392097D01*
X172115Y367925D02*
X173343Y366697D01*
X172115Y367925D02*
X169657Y367925D01*
X168429Y366697D01*
X168429Y365468D01*
X169657Y364239D01*
X172115Y364239D01*
X173343Y363010D01*
X173343Y361782D01*
X172115Y360553D01*
X169657Y360553D01*
X168429Y361782D01*
X175913Y360553D02*
X175913Y367925D01*
X175913Y360553D02*
X179599Y360553D01*
X180828Y361782D01*
X180828Y366697D01*
X179599Y367925D01*
X175913Y367925D01*
X183397Y365468D02*
X185854Y367925D01*
X185854Y360553D01*
X183397Y360553D02*
X188312Y360553D01*
X172115Y342525D02*
X173343Y341297D01*
X172115Y342525D02*
X169657Y342525D01*
X168429Y341297D01*
X168429Y336382D01*
X169657Y335153D01*
X172115Y335153D01*
X173343Y336382D01*
X175913Y335153D02*
X175913Y342525D01*
X178370Y340068D01*
X180828Y342525D01*
X180828Y335153D01*
X183397Y335153D02*
X183397Y342525D01*
X183397Y335153D02*
X187083Y335153D01*
X188312Y336382D01*
X188312Y341297D01*
X187083Y342525D01*
X183397Y342525D01*
X172115Y317125D02*
X173343Y315897D01*
X172115Y317125D02*
X169657Y317125D01*
X168429Y315897D01*
X168429Y314668D01*
X169657Y313439D01*
X172115Y313439D01*
X173343Y312210D01*
X173343Y310982D01*
X172115Y309753D01*
X169657Y309753D01*
X168429Y310982D01*
X175913Y309753D02*
X175913Y317125D01*
X175913Y309753D02*
X179599Y309753D01*
X180828Y310982D01*
X180828Y315897D01*
X179599Y317125D01*
X175913Y317125D01*
X183397Y315897D02*
X183397Y310982D01*
X183397Y315897D02*
X184626Y317125D01*
X187083Y317125D01*
X188312Y315897D01*
X188312Y310982D01*
X187083Y309753D01*
X184626Y309753D01*
X183397Y310982D01*
X188312Y315897D01*
X172115Y291725D02*
X173343Y290497D01*
X172115Y291725D02*
X169657Y291725D01*
X168429Y290497D01*
X168429Y285582D01*
X169657Y284353D01*
X172115Y284353D01*
X173343Y285582D01*
X175913Y284353D02*
X175913Y291725D01*
X175913Y284353D02*
X180828Y284353D01*
X183397Y284353D02*
X183397Y291725D01*
X183397Y286810D02*
X188312Y291725D01*
X184626Y288039D02*
X188312Y284353D01*
X172115Y266325D02*
X173343Y265097D01*
X172115Y266325D02*
X169657Y266325D01*
X168429Y265097D01*
X168429Y260182D01*
X169657Y258953D01*
X172115Y258953D01*
X173343Y260182D01*
X173343Y262639D01*
X170886Y262639D01*
X175913Y263868D02*
X175913Y258953D01*
X175913Y263868D02*
X179599Y263868D01*
X180828Y262639D01*
X180828Y258953D01*
X188312Y258953D02*
X188312Y266325D01*
X188312Y258953D02*
X184626Y258953D01*
X183397Y260182D01*
X183397Y262639D01*
X184626Y263868D01*
X188312Y263868D01*
X169657Y240925D02*
X168429Y239697D01*
X169657Y240925D02*
X172115Y240925D01*
X173343Y239697D01*
X173343Y238468D01*
X172115Y237239D01*
X170886Y237239D01*
X172115Y237239D02*
X173343Y236010D01*
X173343Y234782D01*
X172115Y233553D01*
X169657Y233553D01*
X168429Y234782D01*
X175913Y238468D02*
X178370Y233553D01*
X180828Y238468D01*
X183397Y239697D02*
X184626Y240925D01*
X187083Y240925D01*
X188312Y239697D01*
X188312Y238468D01*
X187083Y237239D01*
X185854Y237239D01*
X187083Y237239D02*
X188312Y236010D01*
X188312Y234782D01*
X187083Y233553D01*
X184626Y233553D01*
X183397Y234782D01*
X180828Y215525D02*
X175913Y215525D01*
X175913Y208153D01*
X180828Y208153D01*
X178370Y211839D02*
X175913Y211839D01*
X183397Y208153D02*
X183397Y215525D01*
X188312Y208153D01*
X188312Y215525D01*
X168429Y190125D02*
X168429Y182753D01*
X168429Y190125D02*
X172115Y190125D01*
X173343Y188897D01*
X173343Y186439D01*
X172115Y185210D01*
X168429Y185210D01*
X170886Y185210D02*
X173343Y182753D01*
X179599Y190125D02*
X180828Y188897D01*
X179599Y190125D02*
X177141Y190125D01*
X175913Y188897D01*
X175913Y187668D01*
X177141Y186439D01*
X179599Y186439D01*
X180828Y185210D01*
X180828Y183982D01*
X179599Y182753D01*
X177141Y182753D01*
X175913Y183982D01*
X185854Y182753D02*
X185854Y190125D01*
X183397Y190125D02*
X188312Y190125D01*
X172115Y164725D02*
X173343Y163497D01*
X172115Y164725D02*
X169657Y164725D01*
X168429Y163497D01*
X168429Y158582D01*
X169657Y157353D01*
X172115Y157353D01*
X173343Y158582D01*
X173343Y161039D01*
X170886Y161039D01*
X175913Y162268D02*
X175913Y157353D01*
X175913Y162268D02*
X179599Y162268D01*
X180828Y161039D01*
X180828Y157353D01*
X188312Y157353D02*
X188312Y164725D01*
X188312Y157353D02*
X184626Y157353D01*
X183397Y158582D01*
X183397Y161039D01*
X184626Y162268D01*
X188312Y162268D01*
X170923Y139325D02*
X170923Y134410D01*
X173381Y131953D01*
X175838Y134410D01*
X175838Y139325D01*
X178407Y131953D02*
X180865Y131953D01*
X179636Y131953D02*
X179636Y139325D01*
X178407Y139325D02*
X180865Y139325D01*
X183397Y139325D02*
X183397Y131953D01*
X188312Y131953D02*
X183397Y139325D01*
X188312Y139325D02*
X188312Y131953D01*
X168429Y462153D02*
X168429Y469525D01*
X172115Y469525D01*
X173343Y468297D01*
X173343Y465839D01*
X172115Y464610D01*
X168429Y464610D01*
X170886Y464610D02*
X173343Y462153D01*
X179599Y469525D02*
X180828Y468297D01*
X179599Y469525D02*
X177141Y469525D01*
X175913Y468297D01*
X175913Y467068D01*
X177141Y465839D01*
X179599Y465839D01*
X180828Y464610D01*
X180828Y463382D01*
X179599Y462153D01*
X177141Y462153D01*
X175913Y463382D01*
X183397Y464610D02*
X183397Y469525D01*
X183397Y464610D02*
X185854Y462153D01*
X188312Y464610D01*
X188312Y469525D01*
X168429Y444125D02*
X168429Y436753D01*
X168429Y444125D02*
X172115Y444125D01*
X173343Y442897D01*
X173343Y440439D01*
X172115Y439210D01*
X168429Y439210D01*
X170886Y439210D02*
X173343Y436753D01*
X179599Y444125D02*
X180828Y442897D01*
X179599Y444125D02*
X177141Y444125D01*
X175913Y442897D01*
X175913Y441668D01*
X177141Y440439D01*
X179599Y440439D01*
X180828Y439210D01*
X180828Y437982D01*
X179599Y436753D01*
X177141Y436753D01*
X175913Y437982D01*
X183397Y439210D02*
X183397Y444125D01*
X183397Y439210D02*
X185854Y436753D01*
X188312Y439210D01*
X188312Y444125D01*
X571881Y146225D02*
X573110Y147453D01*
X575567Y147453D01*
X576796Y146225D01*
X576796Y144996D01*
X575567Y143767D01*
X574338Y143767D01*
X575567Y143767D02*
X576796Y142538D01*
X576796Y141310D01*
X575567Y140081D01*
X573110Y140081D01*
X571881Y141310D01*
X579365Y144996D02*
X581823Y140081D01*
X584280Y144996D01*
X586849Y146225D02*
X588078Y147453D01*
X590535Y147453D01*
X591764Y146225D01*
X591764Y144996D01*
X590535Y143767D01*
X589307Y143767D01*
X590535Y143767D02*
X591764Y142538D01*
X591764Y141310D01*
X590535Y140081D01*
X588078Y140081D01*
X586849Y141310D01*
X576796Y171625D02*
X575567Y172853D01*
X573110Y172853D01*
X571881Y171625D01*
X571881Y166710D01*
X573110Y165481D01*
X575567Y165481D01*
X576796Y166710D01*
X576796Y169167D01*
X574338Y169167D01*
X579365Y170396D02*
X579365Y165481D01*
X579365Y170396D02*
X583051Y170396D01*
X584280Y169167D01*
X584280Y165481D01*
X591764Y165481D02*
X591764Y172853D01*
X591764Y165481D02*
X588078Y165481D01*
X586849Y166710D01*
X586849Y169167D01*
X588078Y170396D01*
X591764Y170396D01*
X571881Y190881D02*
X571881Y198253D01*
X571881Y190881D02*
X575567Y190881D01*
X576796Y192110D01*
X576796Y197025D01*
X575567Y198253D01*
X571881Y198253D01*
X579365Y195796D02*
X581823Y198253D01*
X581823Y190881D01*
X584280Y190881D02*
X579365Y190881D01*
X586849Y192110D02*
X586849Y197025D01*
X588078Y198253D01*
X590535Y198253D01*
X591764Y197025D01*
X591764Y192110D01*
X590535Y190881D01*
X588078Y190881D01*
X586849Y192110D01*
X591764Y197025D01*
X571881Y216281D02*
X571881Y223653D01*
X571881Y216281D02*
X575567Y216281D01*
X576796Y217510D01*
X576796Y222425D01*
X575567Y223653D01*
X571881Y223653D01*
X579365Y217510D02*
X580594Y216281D01*
X583051Y216281D01*
X584280Y217510D01*
X584280Y222425D01*
X583051Y223653D01*
X580594Y223653D01*
X579365Y222425D01*
X579365Y221196D01*
X580594Y219967D01*
X584280Y219967D01*
X571881Y241681D02*
X571881Y249053D01*
X571881Y241681D02*
X575567Y241681D01*
X576796Y242910D01*
X576796Y247825D01*
X575567Y249053D01*
X571881Y249053D01*
X579365Y247825D02*
X580594Y249053D01*
X583051Y249053D01*
X584280Y247825D01*
X584280Y246596D01*
X583051Y245367D01*
X584280Y244138D01*
X584280Y242910D01*
X583051Y241681D01*
X580594Y241681D01*
X579365Y242910D01*
X579365Y244138D01*
X580594Y245367D01*
X579365Y246596D01*
X579365Y247825D01*
X580594Y245367D02*
X583051Y245367D01*
X571881Y267081D02*
X571881Y274453D01*
X571881Y267081D02*
X575567Y267081D01*
X576796Y268310D01*
X576796Y273225D01*
X575567Y274453D01*
X571881Y274453D01*
X579365Y274453D02*
X584280Y274453D01*
X584280Y273225D01*
X579365Y268310D01*
X579365Y267081D01*
X571881Y292481D02*
X571881Y299853D01*
X571881Y292481D02*
X575567Y292481D01*
X576796Y293710D01*
X576796Y298625D01*
X575567Y299853D01*
X571881Y299853D01*
X581823Y298625D02*
X584280Y299853D01*
X581823Y298625D02*
X579365Y296167D01*
X579365Y293710D01*
X580594Y292481D01*
X583051Y292481D01*
X584280Y293710D01*
X584280Y294938D01*
X583051Y296167D01*
X579365Y296167D01*
X571881Y317881D02*
X571881Y325253D01*
X571881Y317881D02*
X575567Y317881D01*
X576796Y319110D01*
X576796Y324025D01*
X575567Y325253D01*
X571881Y325253D01*
X579365Y325253D02*
X584280Y325253D01*
X579365Y325253D02*
X579365Y321567D01*
X581823Y322796D01*
X583051Y322796D01*
X584280Y321567D01*
X584280Y319110D01*
X583051Y317881D01*
X580594Y317881D01*
X579365Y319110D01*
X576796Y349425D02*
X575567Y350653D01*
X573110Y350653D01*
X571881Y349425D01*
X571881Y344510D01*
X573110Y343281D01*
X575567Y343281D01*
X576796Y344510D01*
X576796Y346967D01*
X574338Y346967D01*
X579365Y348196D02*
X579365Y343281D01*
X579365Y348196D02*
X583051Y348196D01*
X584280Y346967D01*
X584280Y343281D01*
X591764Y343281D02*
X591764Y350653D01*
X591764Y343281D02*
X588078Y343281D01*
X586849Y344510D01*
X586849Y346967D01*
X588078Y348196D01*
X591764Y348196D01*
X571881Y374825D02*
X573110Y376053D01*
X575567Y376053D01*
X576796Y374825D01*
X576796Y373596D01*
X575567Y372367D01*
X574338Y372367D01*
X575567Y372367D02*
X576796Y371138D01*
X576796Y369910D01*
X575567Y368681D01*
X573110Y368681D01*
X571881Y369910D01*
X579365Y373596D02*
X581823Y368681D01*
X584280Y373596D01*
X586849Y374825D02*
X588078Y376053D01*
X590535Y376053D01*
X591764Y374825D01*
X591764Y373596D01*
X590535Y372367D01*
X589307Y372367D01*
X590535Y372367D02*
X591764Y371138D01*
X591764Y369910D01*
X590535Y368681D01*
X588078Y368681D01*
X586849Y369910D01*
X571881Y394081D02*
X571881Y401453D01*
X571881Y394081D02*
X575567Y394081D01*
X576796Y395310D01*
X576796Y400225D01*
X575567Y401453D01*
X571881Y401453D01*
X583051Y401453D02*
X583051Y394081D01*
X579365Y397767D02*
X583051Y401453D01*
X584280Y397767D02*
X579365Y397767D01*
X571881Y419481D02*
X571881Y426853D01*
X571881Y419481D02*
X575567Y419481D01*
X576796Y420710D01*
X576796Y425625D01*
X575567Y426853D01*
X571881Y426853D01*
X579365Y425625D02*
X580594Y426853D01*
X583051Y426853D01*
X584280Y425625D01*
X584280Y424396D01*
X583051Y423167D01*
X581823Y423167D01*
X583051Y423167D02*
X584280Y421938D01*
X584280Y420710D01*
X583051Y419481D01*
X580594Y419481D01*
X579365Y420710D01*
X571881Y444881D02*
X571881Y452253D01*
X571881Y444881D02*
X575567Y444881D01*
X576796Y446110D01*
X576796Y451025D01*
X575567Y452253D01*
X571881Y452253D01*
X579365Y444881D02*
X584280Y444881D01*
X579365Y444881D02*
X584280Y449796D01*
X584280Y451025D01*
X583051Y452253D01*
X580594Y452253D01*
X579365Y451025D01*
X571881Y470281D02*
X571881Y477653D01*
X571881Y470281D02*
X575567Y470281D01*
X576796Y471510D01*
X576796Y476425D01*
X575567Y477653D01*
X571881Y477653D01*
X579365Y475196D02*
X581823Y477653D01*
X581823Y470281D01*
X584280Y470281D02*
X579365Y470281D01*
X571881Y495681D02*
X571881Y503053D01*
X571881Y495681D02*
X575567Y495681D01*
X576796Y496910D01*
X576796Y501825D01*
X575567Y503053D01*
X571881Y503053D01*
X579365Y501825D02*
X579365Y496910D01*
X579365Y501825D02*
X580594Y503053D01*
X583051Y503053D01*
X584280Y501825D01*
X584280Y496910D01*
X583051Y495681D01*
X580594Y495681D01*
X579365Y496910D01*
X584280Y501825D01*
X247983Y627596D02*
X246755Y626367D01*
X246755Y623910D01*
X247983Y622681D01*
X249212Y622681D01*
X250441Y623910D01*
X250441Y626367D01*
X251670Y627596D01*
X252898Y627596D01*
X254127Y626367D01*
X254127Y623910D01*
X252898Y622681D01*
X246755Y633851D02*
X247983Y635080D01*
X246755Y633851D02*
X246755Y631394D01*
X247983Y630165D01*
X252898Y630165D01*
X254127Y631394D01*
X254127Y633851D01*
X252898Y635080D01*
X254127Y637649D02*
X246755Y637649D01*
X254127Y637649D02*
X254127Y642564D01*
X266319Y625138D02*
X263862Y622681D01*
X261404Y622681D01*
X258947Y625138D01*
X258947Y627670D02*
X266319Y627670D01*
X266319Y631357D01*
X265090Y632585D01*
X260175Y632585D01*
X258947Y631357D01*
X258947Y627670D01*
X261404Y635155D02*
X258947Y637612D01*
X266319Y637612D01*
X266319Y635155D02*
X266319Y640069D01*
X266319Y642639D02*
X263862Y645096D01*
X261404Y645096D01*
X258947Y642639D01*
X273383Y627596D02*
X272155Y626367D01*
X272155Y623910D01*
X273383Y622681D01*
X274612Y622681D01*
X275841Y623910D01*
X275841Y626367D01*
X277070Y627596D01*
X278298Y627596D01*
X279527Y626367D01*
X279527Y623910D01*
X278298Y622681D01*
X279527Y630165D02*
X272155Y630165D01*
X279527Y630165D02*
X279527Y633851D01*
X278298Y635080D01*
X273383Y635080D01*
X272155Y633851D01*
X272155Y630165D01*
X274612Y637649D02*
X279527Y637649D01*
X274612Y637649D02*
X272155Y640107D01*
X274612Y642564D01*
X279527Y642564D01*
X275841Y642564D02*
X275841Y637649D01*
X289262Y622681D02*
X291719Y625138D01*
X289262Y622681D02*
X286804Y622681D01*
X284347Y625138D01*
X284347Y627670D02*
X291719Y627670D01*
X291719Y631357D01*
X290490Y632585D01*
X285575Y632585D01*
X284347Y631357D01*
X284347Y627670D01*
X291719Y635155D02*
X291719Y640069D01*
X291719Y635155D02*
X286804Y640069D01*
X285575Y640069D01*
X284347Y638841D01*
X284347Y636383D01*
X285575Y635155D01*
X291719Y642639D02*
X289262Y645096D01*
X286804Y645096D01*
X284347Y642639D01*
X297555Y622681D02*
X304927Y622681D01*
X304927Y627596D01*
X297555Y630165D02*
X297555Y635080D01*
X297555Y630165D02*
X304927Y630165D01*
X304927Y635080D01*
X301241Y632623D02*
X301241Y630165D01*
X297555Y637649D02*
X304927Y637649D01*
X304927Y641335D01*
X303698Y642564D01*
X298783Y642564D01*
X297555Y641335D01*
X297555Y637649D01*
X314662Y622681D02*
X317119Y625138D01*
X314662Y622681D02*
X312204Y622681D01*
X309747Y625138D01*
X309747Y627670D02*
X317119Y627670D01*
X317119Y631357D01*
X315890Y632585D01*
X310975Y632585D01*
X309747Y631357D01*
X309747Y627670D01*
X309747Y638841D02*
X317119Y638841D01*
X313433Y635155D02*
X309747Y638841D01*
X313433Y640069D02*
X313433Y635155D01*
X317119Y642639D02*
X314662Y645096D01*
X312204Y645096D01*
X309747Y642639D01*
X474847Y623910D02*
X476075Y622681D01*
X474847Y623910D02*
X474847Y626367D01*
X476075Y627596D01*
X477304Y627596D01*
X478533Y626367D01*
X478533Y625138D01*
X478533Y626367D02*
X479762Y627596D01*
X480990Y627596D01*
X482219Y626367D01*
X482219Y623910D01*
X480990Y622681D01*
X477304Y630165D02*
X482219Y632623D01*
X477304Y635080D01*
X476075Y637649D02*
X474847Y638878D01*
X474847Y641335D01*
X476075Y642564D01*
X477304Y642564D01*
X478533Y641335D01*
X478533Y640107D01*
X478533Y641335D02*
X479762Y642564D01*
X480990Y642564D01*
X482219Y641335D01*
X482219Y638878D01*
X480990Y637649D01*
X195447Y633946D02*
X195447Y629031D01*
X199133Y629031D01*
X197904Y631488D01*
X197904Y632717D01*
X199133Y633946D01*
X201590Y633946D01*
X202819Y632717D01*
X202819Y630260D01*
X201590Y629031D01*
X197904Y636515D02*
X202819Y638973D01*
X197904Y641430D01*
X322447Y630260D02*
X323675Y629031D01*
X322447Y630260D02*
X322447Y632717D01*
X323675Y633946D01*
X324904Y633946D01*
X326133Y632717D01*
X326133Y631488D01*
X326133Y632717D02*
X327362Y633946D01*
X328590Y633946D01*
X329819Y632717D01*
X329819Y630260D01*
X328590Y629031D01*
X324904Y636515D02*
X329819Y638973D01*
X324904Y641430D01*
X323675Y643999D02*
X322447Y645228D01*
X322447Y647685D01*
X323675Y648914D01*
X324904Y648914D01*
X326133Y647685D01*
X326133Y646457D01*
X326133Y647685D02*
X327362Y648914D01*
X328590Y648914D01*
X329819Y647685D01*
X329819Y645228D01*
X328590Y643999D01*
D11*
X480600Y139500D02*
X506000Y139500D01*
X506000Y162360D01*
X503460Y164900D01*
X506000Y167440D01*
X506000Y187760D01*
X503460Y190300D01*
X506000Y192840D01*
X506000Y213160D01*
X503460Y215700D01*
X506000Y218240D01*
X506000Y238560D01*
X503460Y241100D01*
X506000Y243640D01*
X483140Y241100D02*
X480600Y243640D01*
X483140Y241100D02*
X480600Y238560D01*
X480600Y218240D01*
X483140Y215700D01*
X480600Y213160D01*
X480600Y192840D01*
X483140Y190300D01*
X480600Y187760D01*
X480600Y167440D01*
X483140Y164900D01*
X480600Y162360D01*
X480600Y139500D01*
X506000Y243640D02*
X506000Y263960D01*
X503460Y266500D01*
X506000Y269040D01*
X506000Y289360D01*
X503460Y291900D01*
X506000Y294440D01*
X483140Y291900D02*
X480600Y294440D01*
X483140Y291900D02*
X480600Y289360D01*
X480600Y269040D01*
X483140Y266500D01*
X480600Y263960D01*
X480600Y243640D01*
X480600Y497640D02*
X480600Y520500D01*
X480600Y492560D02*
X480600Y472240D01*
X480600Y467160D02*
X480600Y446840D01*
X480600Y441760D02*
X480600Y421440D01*
X480600Y416360D02*
X480600Y396040D01*
X480600Y390960D02*
X480600Y370640D01*
X480600Y365560D02*
X480600Y345240D01*
X480600Y340160D02*
X480600Y319840D01*
X480600Y520500D02*
X506000Y520500D01*
X506000Y340160D02*
X506000Y319840D01*
X506000Y345240D02*
X506000Y365560D01*
X506000Y370640D02*
X506000Y390960D01*
X506000Y396040D02*
X506000Y416360D01*
X506000Y421440D02*
X506000Y441760D01*
X506000Y446840D02*
X506000Y467160D01*
X506000Y472240D02*
X506000Y492560D01*
X506000Y497640D02*
X506000Y520500D01*
X483140Y317300D02*
X480600Y314760D01*
X483140Y317300D02*
X480600Y319840D01*
X480600Y314760D02*
X480600Y294440D01*
X503460Y317300D02*
X506000Y319840D01*
X503460Y317300D02*
X506000Y314760D01*
X506000Y294440D01*
X483140Y342700D02*
X480600Y345240D01*
X483140Y342700D02*
X480600Y340160D01*
X503460Y342700D02*
X506000Y345240D01*
X503460Y342700D02*
X506000Y340160D01*
X503460Y368100D02*
X506000Y370640D01*
X503460Y368100D02*
X506000Y365560D01*
X483140Y368100D02*
X480600Y370640D01*
X483140Y368100D02*
X480600Y365560D01*
X483140Y393500D02*
X480600Y396040D01*
X483140Y393500D02*
X480600Y390960D01*
X483140Y418900D02*
X480600Y421440D01*
X483140Y418900D02*
X480600Y416360D01*
X503460Y393500D02*
X506000Y396040D01*
X503460Y393500D02*
X506000Y390960D01*
X503460Y418900D02*
X506000Y421440D01*
X503460Y418900D02*
X506000Y416360D01*
X483140Y444300D02*
X480600Y446840D01*
X483140Y444300D02*
X480600Y441760D01*
X503460Y444300D02*
X506000Y446840D01*
X503460Y444300D02*
X506000Y441760D01*
X483140Y469700D02*
X480600Y472240D01*
X483140Y495100D02*
X480600Y497640D01*
X483140Y469700D02*
X480600Y467160D01*
X480600Y492560D02*
X483140Y495100D01*
X506000Y472240D02*
X503460Y469700D01*
X503460Y495100D02*
X506000Y497640D01*
X503460Y469700D02*
X506000Y467160D01*
X506000Y492560D02*
X503460Y495100D01*
D12*
X465985Y151568D02*
X469799Y147755D01*
X465985Y151568D02*
X477425Y151568D01*
X477425Y147755D02*
X477425Y155382D01*
X469799Y497005D02*
X465985Y500818D01*
X477425Y500818D01*
X477425Y497005D02*
X477425Y504632D01*
X465985Y508699D02*
X465985Y516325D01*
X465985Y508699D02*
X471705Y508699D01*
X469799Y512512D01*
X469799Y514419D01*
X471705Y516325D01*
X475518Y516325D01*
X477425Y514419D01*
X477425Y510606D01*
X475518Y508699D01*
X490115Y524948D02*
X493929Y521135D01*
X490115Y524948D02*
X501555Y524948D01*
X501555Y521135D02*
X501555Y528762D01*
X499648Y532829D02*
X492022Y532829D01*
X490115Y534736D01*
X490115Y538549D01*
X492022Y540455D01*
X499648Y540455D01*
X501555Y538549D01*
X501555Y534736D01*
X499648Y532829D01*
X492022Y540455D01*
X490115Y544523D02*
X501555Y544523D01*
X490115Y544523D02*
X490115Y550243D01*
X492022Y552149D01*
X495835Y552149D01*
X497742Y550243D01*
X497742Y544523D01*
X497742Y548336D02*
X501555Y552149D01*
D11*
X281400Y139500D02*
X256000Y139500D01*
X281400Y139500D02*
X281400Y162360D01*
X278860Y164900D01*
X281400Y167440D01*
X281400Y187760D01*
X278860Y190300D01*
X281400Y192840D01*
X281400Y213160D01*
X278860Y215700D01*
X281400Y218240D01*
X281400Y238560D01*
X278860Y241100D01*
X281400Y243640D01*
X258540Y241100D02*
X256000Y243640D01*
X258540Y241100D02*
X256000Y238560D01*
X256000Y218240D01*
X258540Y215700D01*
X256000Y213160D01*
X256000Y192840D01*
X258540Y190300D01*
X256000Y187760D01*
X256000Y167440D01*
X258540Y164900D01*
X256000Y162360D01*
X256000Y139500D01*
X281400Y243640D02*
X281400Y263960D01*
X278860Y266500D01*
X281400Y269040D01*
X281400Y289360D01*
X278860Y291900D01*
X281400Y294440D01*
X258540Y291900D02*
X256000Y294440D01*
X258540Y291900D02*
X256000Y289360D01*
X256000Y269040D01*
X258540Y266500D01*
X256000Y263960D01*
X256000Y243640D01*
X256000Y497640D02*
X256000Y520500D01*
X256000Y492560D02*
X256000Y472240D01*
X256000Y467160D02*
X256000Y446840D01*
X256000Y441760D02*
X256000Y421440D01*
X256000Y416360D02*
X256000Y396040D01*
X256000Y390960D02*
X256000Y370640D01*
X256000Y365560D02*
X256000Y345240D01*
X256000Y340160D02*
X256000Y319840D01*
X256000Y520500D02*
X281400Y520500D01*
X281400Y340160D02*
X281400Y319840D01*
X281400Y345240D02*
X281400Y365560D01*
X281400Y370640D02*
X281400Y390960D01*
X281400Y396040D02*
X281400Y416360D01*
X281400Y421440D02*
X281400Y441760D01*
X281400Y446840D02*
X281400Y467160D01*
X281400Y472240D02*
X281400Y492560D01*
X281400Y497640D02*
X281400Y520500D01*
X258540Y317300D02*
X256000Y314760D01*
X258540Y317300D02*
X256000Y319840D01*
X256000Y314760D02*
X256000Y294440D01*
X278860Y317300D02*
X281400Y319840D01*
X278860Y317300D02*
X281400Y314760D01*
X281400Y294440D01*
X258540Y342700D02*
X256000Y345240D01*
X258540Y342700D02*
X256000Y340160D01*
X278860Y342700D02*
X281400Y345240D01*
X278860Y342700D02*
X281400Y340160D01*
X278860Y368100D02*
X281400Y370640D01*
X278860Y368100D02*
X281400Y365560D01*
X258540Y368100D02*
X256000Y370640D01*
X258540Y368100D02*
X256000Y365560D01*
X258540Y393500D02*
X256000Y396040D01*
X258540Y393500D02*
X256000Y390960D01*
X258540Y418900D02*
X256000Y421440D01*
X258540Y418900D02*
X256000Y416360D01*
X278860Y393500D02*
X281400Y396040D01*
X278860Y393500D02*
X281400Y390960D01*
X278860Y418900D02*
X281400Y421440D01*
X278860Y418900D02*
X281400Y416360D01*
X258540Y444300D02*
X256000Y446840D01*
X258540Y444300D02*
X256000Y441760D01*
X278860Y444300D02*
X281400Y446840D01*
X278860Y444300D02*
X281400Y441760D01*
X258540Y469700D02*
X256000Y472240D01*
X258540Y495100D02*
X256000Y497640D01*
X258540Y469700D02*
X256000Y467160D01*
X256000Y492560D02*
X258540Y495100D01*
X281400Y472240D02*
X278860Y469700D01*
X278860Y495100D02*
X281400Y497640D01*
X278860Y469700D02*
X281400Y467160D01*
X281400Y492560D02*
X278860Y495100D01*
D12*
X241385Y151568D02*
X245199Y147755D01*
X241385Y151568D02*
X252825Y151568D01*
X252825Y147755D02*
X252825Y155382D01*
X245199Y497005D02*
X241385Y500818D01*
X252825Y500818D01*
X252825Y497005D02*
X252825Y504632D01*
X241385Y508699D02*
X241385Y516325D01*
X241385Y508699D02*
X247105Y508699D01*
X245199Y512512D01*
X245199Y514419D01*
X247105Y516325D01*
X250918Y516325D01*
X252825Y514419D01*
X252825Y510606D01*
X250918Y508699D01*
X265515Y524948D02*
X269329Y521135D01*
X265515Y524948D02*
X276955Y524948D01*
X276955Y521135D02*
X276955Y528762D01*
X275048Y532829D02*
X267422Y532829D01*
X265515Y534736D01*
X265515Y538549D01*
X267422Y540455D01*
X275048Y540455D01*
X276955Y538549D01*
X276955Y534736D01*
X275048Y532829D01*
X267422Y540455D01*
X265515Y544523D02*
X276955Y544523D01*
X276955Y552149D01*
D11*
X476250Y596900D02*
X488950Y596900D01*
X476250Y596900D02*
X469900Y603250D01*
X469900Y615950D02*
X476250Y622300D01*
X469900Y603250D02*
X463550Y596900D01*
X450850Y596900D01*
X444500Y603250D01*
X444500Y615950D02*
X450850Y622300D01*
X463550Y622300D01*
X469900Y615950D01*
X495300Y615950D02*
X495300Y603250D01*
X488950Y596900D01*
X495300Y615950D02*
X488950Y622300D01*
X476250Y622300D01*
X444500Y603250D02*
X438150Y596900D01*
X425450Y596900D01*
X419100Y603250D01*
X419100Y615950D02*
X425450Y622300D01*
X438150Y622300D01*
X444500Y615950D01*
X412750Y596900D02*
X400050Y596900D01*
X393700Y603250D01*
X393700Y615950D01*
X400050Y622300D01*
X419100Y603250D02*
X412750Y596900D01*
X419100Y615950D02*
X412750Y622300D01*
X400050Y622300D01*
D12*
X495671Y611512D02*
X499484Y615325D01*
X499484Y603885D01*
X495671Y603885D02*
X503298Y603885D01*
X385821Y603885D02*
X385821Y615325D01*
X380101Y609605D01*
X387728Y609605D01*
X498953Y606425D02*
X498953Y617865D01*
X498953Y606425D02*
X504673Y606425D01*
X506580Y608332D01*
X506580Y615958D01*
X504673Y617865D01*
X498953Y617865D01*
X510647Y617865D02*
X510647Y606425D01*
X510647Y612145D02*
X518274Y612145D01*
X518274Y617865D02*
X518274Y606425D01*
X526154Y606425D02*
X526154Y617865D01*
X522341Y617865D02*
X529967Y617865D01*
D11*
X546100Y127000D02*
X571500Y127000D01*
X571500Y149860D01*
X568960Y152400D01*
X571500Y154940D01*
X571500Y175260D01*
X568960Y177800D01*
X571500Y180340D01*
X571500Y200660D01*
X568960Y203200D01*
X571500Y205740D01*
X571500Y226060D01*
X568960Y228600D01*
X571500Y231140D01*
X548640Y228600D02*
X546100Y231140D01*
X548640Y228600D02*
X546100Y226060D01*
X546100Y205740D01*
X548640Y203200D01*
X546100Y200660D01*
X546100Y180340D01*
X548640Y177800D01*
X546100Y175260D01*
X546100Y154940D01*
X548640Y152400D01*
X546100Y149860D01*
X546100Y127000D01*
X571500Y231140D02*
X571500Y251460D01*
X568960Y254000D01*
X571500Y256540D01*
X571500Y276860D01*
X568960Y279400D01*
X571500Y281940D01*
X548640Y279400D02*
X546100Y281940D01*
X548640Y279400D02*
X546100Y276860D01*
X546100Y256540D01*
X548640Y254000D01*
X546100Y251460D01*
X546100Y231140D01*
X546100Y485140D02*
X546100Y508000D01*
X546100Y480060D02*
X546100Y459740D01*
X546100Y454660D02*
X546100Y434340D01*
X546100Y429260D02*
X546100Y408940D01*
X546100Y403860D02*
X546100Y383540D01*
X546100Y378460D02*
X546100Y358140D01*
X546100Y353060D02*
X546100Y332740D01*
X546100Y327660D02*
X546100Y307340D01*
X546100Y508000D02*
X571500Y508000D01*
X571500Y327660D02*
X571500Y307340D01*
X571500Y332740D02*
X571500Y353060D01*
X571500Y358140D02*
X571500Y378460D01*
X571500Y383540D02*
X571500Y403860D01*
X571500Y408940D02*
X571500Y429260D01*
X571500Y434340D02*
X571500Y454660D01*
X571500Y459740D02*
X571500Y480060D01*
X571500Y485140D02*
X571500Y508000D01*
X548640Y304800D02*
X546100Y302260D01*
X548640Y304800D02*
X546100Y307340D01*
X546100Y302260D02*
X546100Y281940D01*
X568960Y304800D02*
X571500Y307340D01*
X568960Y304800D02*
X571500Y302260D01*
X571500Y281940D01*
X548640Y330200D02*
X546100Y332740D01*
X548640Y330200D02*
X546100Y327660D01*
X568960Y330200D02*
X571500Y332740D01*
X568960Y330200D02*
X571500Y327660D01*
X568960Y355600D02*
X571500Y358140D01*
X568960Y355600D02*
X571500Y353060D01*
X548640Y355600D02*
X546100Y358140D01*
X548640Y355600D02*
X546100Y353060D01*
X548640Y381000D02*
X546100Y383540D01*
X548640Y381000D02*
X546100Y378460D01*
X548640Y406400D02*
X546100Y408940D01*
X548640Y406400D02*
X546100Y403860D01*
X568960Y381000D02*
X571500Y383540D01*
X568960Y381000D02*
X571500Y378460D01*
X568960Y406400D02*
X571500Y408940D01*
X568960Y406400D02*
X571500Y403860D01*
X548640Y431800D02*
X546100Y434340D01*
X548640Y431800D02*
X546100Y429260D01*
X568960Y431800D02*
X571500Y434340D01*
X568960Y431800D02*
X571500Y429260D01*
X548640Y457200D02*
X546100Y459740D01*
X548640Y482600D02*
X546100Y485140D01*
X548640Y457200D02*
X546100Y454660D01*
X546100Y480060D02*
X548640Y482600D01*
X571500Y459740D02*
X568960Y457200D01*
X568960Y482600D02*
X571500Y485140D01*
X568960Y457200D02*
X571500Y454660D01*
X571500Y480060D02*
X568960Y482600D01*
D12*
X531485Y139068D02*
X535299Y135255D01*
X531485Y139068D02*
X542925Y139068D01*
X542925Y135255D02*
X542925Y142882D01*
X535299Y484505D02*
X531485Y488318D01*
X542925Y488318D01*
X542925Y484505D02*
X542925Y492132D01*
X531485Y496199D02*
X531485Y503825D01*
X531485Y496199D02*
X537205Y496199D01*
X535299Y500012D01*
X535299Y501919D01*
X537205Y503825D01*
X541018Y503825D01*
X542925Y501919D01*
X542925Y498106D01*
X541018Y496199D01*
X555615Y521335D02*
X567055Y521335D01*
X555615Y521335D02*
X555615Y527055D01*
X557522Y528962D01*
X559429Y528962D01*
X561335Y527055D01*
X563242Y528962D01*
X565148Y528962D01*
X567055Y527055D01*
X567055Y521335D01*
X561335Y521335D02*
X561335Y527055D01*
X555615Y534936D02*
X555615Y538749D01*
X555615Y534936D02*
X557522Y533029D01*
X565148Y533029D01*
X567055Y534936D01*
X567055Y538749D01*
X565148Y540655D01*
X557522Y540655D01*
X555615Y538749D01*
X555615Y544723D02*
X567055Y544723D01*
X555615Y544723D02*
X555615Y550443D01*
X557522Y552349D01*
X561335Y552349D01*
X563242Y550443D01*
X563242Y544723D01*
X563242Y548536D02*
X567055Y552349D01*
D11*
X215900Y127000D02*
X190500Y127000D01*
X215900Y127000D02*
X215900Y149860D01*
X213360Y152400D01*
X215900Y154940D01*
X215900Y175260D01*
X213360Y177800D01*
X215900Y180340D01*
X215900Y200660D01*
X213360Y203200D01*
X215900Y205740D01*
X215900Y226060D01*
X213360Y228600D01*
X215900Y231140D01*
X193040Y228600D02*
X190500Y231140D01*
X193040Y228600D02*
X190500Y226060D01*
X190500Y205740D01*
X193040Y203200D01*
X190500Y200660D01*
X190500Y180340D01*
X193040Y177800D01*
X190500Y175260D01*
X190500Y154940D01*
X193040Y152400D01*
X190500Y149860D01*
X190500Y127000D01*
X215900Y231140D02*
X215900Y251460D01*
X213360Y254000D01*
X215900Y256540D01*
X215900Y276860D01*
X213360Y279400D01*
X215900Y281940D01*
X193040Y279400D02*
X190500Y281940D01*
X193040Y279400D02*
X190500Y276860D01*
X190500Y256540D01*
X193040Y254000D01*
X190500Y251460D01*
X190500Y231140D01*
X190500Y485140D02*
X190500Y508000D01*
X190500Y480060D02*
X190500Y459740D01*
X190500Y454660D02*
X190500Y434340D01*
X190500Y429260D02*
X190500Y408940D01*
X190500Y403860D02*
X190500Y383540D01*
X190500Y378460D02*
X190500Y358140D01*
X190500Y353060D02*
X190500Y332740D01*
X190500Y327660D02*
X190500Y307340D01*
X190500Y508000D02*
X215900Y508000D01*
X215900Y327660D02*
X215900Y307340D01*
X215900Y332740D02*
X215900Y353060D01*
X215900Y358140D02*
X215900Y378460D01*
X215900Y383540D02*
X215900Y403860D01*
X215900Y408940D02*
X215900Y429260D01*
X215900Y434340D02*
X215900Y454660D01*
X215900Y459740D02*
X215900Y480060D01*
X215900Y485140D02*
X215900Y508000D01*
X193040Y304800D02*
X190500Y302260D01*
X193040Y304800D02*
X190500Y307340D01*
X190500Y302260D02*
X190500Y281940D01*
X213360Y304800D02*
X215900Y307340D01*
X213360Y304800D02*
X215900Y302260D01*
X215900Y281940D01*
X193040Y330200D02*
X190500Y332740D01*
X193040Y330200D02*
X190500Y327660D01*
X213360Y330200D02*
X215900Y332740D01*
X213360Y330200D02*
X215900Y327660D01*
X213360Y355600D02*
X215900Y358140D01*
X213360Y355600D02*
X215900Y353060D01*
X193040Y355600D02*
X190500Y358140D01*
X193040Y355600D02*
X190500Y353060D01*
X193040Y381000D02*
X190500Y383540D01*
X193040Y381000D02*
X190500Y378460D01*
X193040Y406400D02*
X190500Y408940D01*
X193040Y406400D02*
X190500Y403860D01*
X213360Y381000D02*
X215900Y383540D01*
X213360Y381000D02*
X215900Y378460D01*
X213360Y406400D02*
X215900Y408940D01*
X213360Y406400D02*
X215900Y403860D01*
X193040Y431800D02*
X190500Y434340D01*
X193040Y431800D02*
X190500Y429260D01*
X213360Y431800D02*
X215900Y434340D01*
X213360Y431800D02*
X215900Y429260D01*
X193040Y457200D02*
X190500Y459740D01*
X193040Y482600D02*
X190500Y485140D01*
X193040Y457200D02*
X190500Y454660D01*
X190500Y480060D02*
X193040Y482600D01*
X215900Y459740D02*
X213360Y457200D01*
X213360Y482600D02*
X215900Y485140D01*
X213360Y457200D02*
X215900Y454660D01*
X215900Y480060D02*
X213360Y482600D01*
D12*
X175885Y139068D02*
X179699Y135255D01*
X175885Y139068D02*
X187325Y139068D01*
X187325Y135255D02*
X187325Y142882D01*
X179699Y484505D02*
X175885Y488318D01*
X187325Y488318D01*
X187325Y484505D02*
X187325Y492132D01*
X175885Y496199D02*
X175885Y503825D01*
X175885Y496199D02*
X181605Y496199D01*
X179699Y500012D01*
X179699Y501919D01*
X181605Y503825D01*
X185418Y503825D01*
X187325Y501919D01*
X187325Y498106D01*
X185418Y496199D01*
X200015Y521335D02*
X211455Y521335D01*
X200015Y521335D02*
X200015Y527055D01*
X201922Y528962D01*
X203829Y528962D01*
X205735Y527055D01*
X207642Y528962D01*
X209548Y528962D01*
X211455Y527055D01*
X211455Y521335D01*
X205735Y521335D02*
X205735Y527055D01*
X200015Y534936D02*
X200015Y538749D01*
X200015Y534936D02*
X201922Y533029D01*
X209548Y533029D01*
X211455Y534936D01*
X211455Y538749D01*
X209548Y540655D01*
X201922Y540655D01*
X200015Y538749D01*
X200015Y544723D02*
X211455Y544723D01*
X211455Y552349D01*
D11*
X510000Y127000D02*
X535400Y127000D01*
X535400Y149860D01*
X532860Y152400D01*
X535400Y154940D01*
X535400Y175260D01*
X532860Y177800D01*
X535400Y180340D01*
X535400Y200660D01*
X532860Y203200D01*
X535400Y205740D01*
X535400Y226060D01*
X532860Y228600D01*
X535400Y231140D01*
X512540Y228600D02*
X510000Y231140D01*
X512540Y228600D02*
X510000Y226060D01*
X510000Y205740D01*
X512540Y203200D01*
X510000Y200660D01*
X510000Y180340D01*
X512540Y177800D01*
X510000Y175260D01*
X510000Y154940D01*
X512540Y152400D01*
X510000Y149860D01*
X510000Y127000D01*
X535400Y231140D02*
X535400Y251460D01*
X532860Y254000D01*
X535400Y256540D01*
X535400Y276860D01*
X532860Y279400D01*
X535400Y281940D01*
X512540Y279400D02*
X510000Y281940D01*
X512540Y279400D02*
X510000Y276860D01*
X510000Y256540D01*
X512540Y254000D01*
X510000Y251460D01*
X510000Y231140D01*
X510000Y485140D02*
X510000Y508000D01*
X510000Y480060D02*
X510000Y459740D01*
X510000Y454660D02*
X510000Y434340D01*
X510000Y429260D02*
X510000Y408940D01*
X510000Y403860D02*
X510000Y383540D01*
X510000Y378460D02*
X510000Y358140D01*
X510000Y353060D02*
X510000Y332740D01*
X510000Y327660D02*
X510000Y307340D01*
X510000Y508000D02*
X535400Y508000D01*
X535400Y327660D02*
X535400Y307340D01*
X535400Y332740D02*
X535400Y353060D01*
X535400Y358140D02*
X535400Y378460D01*
X535400Y383540D02*
X535400Y403860D01*
X535400Y408940D02*
X535400Y429260D01*
X535400Y434340D02*
X535400Y454660D01*
X535400Y459740D02*
X535400Y480060D01*
X535400Y485140D02*
X535400Y508000D01*
X512540Y304800D02*
X510000Y302260D01*
X512540Y304800D02*
X510000Y307340D01*
X510000Y302260D02*
X510000Y281940D01*
X532860Y304800D02*
X535400Y307340D01*
X532860Y304800D02*
X535400Y302260D01*
X535400Y281940D01*
X512540Y330200D02*
X510000Y332740D01*
X512540Y330200D02*
X510000Y327660D01*
X532860Y330200D02*
X535400Y332740D01*
X532860Y330200D02*
X535400Y327660D01*
X532860Y355600D02*
X535400Y358140D01*
X532860Y355600D02*
X535400Y353060D01*
X512540Y355600D02*
X510000Y358140D01*
X512540Y355600D02*
X510000Y353060D01*
X512540Y381000D02*
X510000Y383540D01*
X512540Y381000D02*
X510000Y378460D01*
X512540Y406400D02*
X510000Y408940D01*
X512540Y406400D02*
X510000Y403860D01*
X532860Y381000D02*
X535400Y383540D01*
X532860Y381000D02*
X535400Y378460D01*
X532860Y406400D02*
X535400Y408940D01*
X532860Y406400D02*
X535400Y403860D01*
X512540Y431800D02*
X510000Y434340D01*
X512540Y431800D02*
X510000Y429260D01*
X532860Y431800D02*
X535400Y434340D01*
X532860Y431800D02*
X535400Y429260D01*
X512540Y457200D02*
X510000Y459740D01*
X512540Y482600D02*
X510000Y485140D01*
X512540Y457200D02*
X510000Y454660D01*
X510000Y480060D02*
X512540Y482600D01*
X535400Y459740D02*
X532860Y457200D01*
X532860Y482600D02*
X535400Y485140D01*
X532860Y457200D02*
X535400Y454660D01*
X535400Y480060D02*
X532860Y482600D01*
D12*
X495385Y139068D02*
X499199Y135255D01*
X495385Y139068D02*
X506825Y139068D01*
X506825Y135255D02*
X506825Y142882D01*
X499199Y484505D02*
X495385Y488318D01*
X506825Y488318D01*
X506825Y484505D02*
X506825Y492132D01*
X495385Y496199D02*
X495385Y503825D01*
X495385Y496199D02*
X501105Y496199D01*
X499199Y500012D01*
X499199Y501919D01*
X501105Y503825D01*
X504918Y503825D01*
X506825Y501919D01*
X506825Y498106D01*
X504918Y496199D01*
X521422Y521335D02*
X529048Y521335D01*
X521422Y521335D02*
X519515Y523242D01*
X519515Y527055D01*
X521422Y528962D01*
X529048Y528962D01*
X530955Y527055D01*
X530955Y523242D01*
X529048Y521335D01*
X521422Y528962D01*
X529048Y533029D02*
X530955Y534936D01*
X530955Y538749D01*
X529048Y540655D01*
X521422Y540655D01*
X519515Y538749D01*
X519515Y534936D01*
X521422Y533029D01*
X523329Y533029D01*
X525235Y534936D01*
X525235Y540655D01*
X530955Y544723D02*
X519515Y544723D01*
X519515Y550443D01*
X521422Y552349D01*
X525235Y552349D01*
X527142Y550443D01*
X527142Y544723D01*
X527142Y548536D02*
X530955Y552349D01*
D11*
X252700Y127000D02*
X227300Y127000D01*
X252700Y127000D02*
X252700Y149860D01*
X250160Y152400D01*
X252700Y154940D01*
X252700Y175260D01*
X250160Y177800D01*
X252700Y180340D01*
X252700Y200660D01*
X250160Y203200D01*
X252700Y205740D01*
X252700Y226060D01*
X250160Y228600D01*
X252700Y231140D01*
X229840Y228600D02*
X227300Y231140D01*
X229840Y228600D02*
X227300Y226060D01*
X227300Y205740D01*
X229840Y203200D01*
X227300Y200660D01*
X227300Y180340D01*
X229840Y177800D01*
X227300Y175260D01*
X227300Y154940D01*
X229840Y152400D01*
X227300Y149860D01*
X227300Y127000D01*
X252700Y231140D02*
X252700Y251460D01*
X250160Y254000D01*
X252700Y256540D01*
X252700Y276860D01*
X250160Y279400D01*
X252700Y281940D01*
X229840Y279400D02*
X227300Y281940D01*
X229840Y279400D02*
X227300Y276860D01*
X227300Y256540D01*
X229840Y254000D01*
X227300Y251460D01*
X227300Y231140D01*
X227300Y485140D02*
X227300Y508000D01*
X227300Y480060D02*
X227300Y459740D01*
X227300Y454660D02*
X227300Y434340D01*
X227300Y429260D02*
X227300Y408940D01*
X227300Y403860D02*
X227300Y383540D01*
X227300Y378460D02*
X227300Y358140D01*
X227300Y353060D02*
X227300Y332740D01*
X227300Y327660D02*
X227300Y307340D01*
X227300Y508000D02*
X252700Y508000D01*
X252700Y327660D02*
X252700Y307340D01*
X252700Y332740D02*
X252700Y353060D01*
X252700Y358140D02*
X252700Y378460D01*
X252700Y383540D02*
X252700Y403860D01*
X252700Y408940D02*
X252700Y429260D01*
X252700Y434340D02*
X252700Y454660D01*
X252700Y459740D02*
X252700Y480060D01*
X252700Y485140D02*
X252700Y508000D01*
X229840Y304800D02*
X227300Y302260D01*
X229840Y304800D02*
X227300Y307340D01*
X227300Y302260D02*
X227300Y281940D01*
X250160Y304800D02*
X252700Y307340D01*
X250160Y304800D02*
X252700Y302260D01*
X252700Y281940D01*
X229840Y330200D02*
X227300Y332740D01*
X229840Y330200D02*
X227300Y327660D01*
X250160Y330200D02*
X252700Y332740D01*
X250160Y330200D02*
X252700Y327660D01*
X250160Y355600D02*
X252700Y358140D01*
X250160Y355600D02*
X252700Y353060D01*
X229840Y355600D02*
X227300Y358140D01*
X229840Y355600D02*
X227300Y353060D01*
X229840Y381000D02*
X227300Y383540D01*
X229840Y381000D02*
X227300Y378460D01*
X229840Y406400D02*
X227300Y408940D01*
X229840Y406400D02*
X227300Y403860D01*
X250160Y381000D02*
X252700Y383540D01*
X250160Y381000D02*
X252700Y378460D01*
X250160Y406400D02*
X252700Y408940D01*
X250160Y406400D02*
X252700Y403860D01*
X229840Y431800D02*
X227300Y434340D01*
X229840Y431800D02*
X227300Y429260D01*
X250160Y431800D02*
X252700Y434340D01*
X250160Y431800D02*
X252700Y429260D01*
X229840Y457200D02*
X227300Y459740D01*
X229840Y482600D02*
X227300Y485140D01*
X229840Y457200D02*
X227300Y454660D01*
X227300Y480060D02*
X229840Y482600D01*
X252700Y459740D02*
X250160Y457200D01*
X250160Y482600D02*
X252700Y485140D01*
X250160Y457200D02*
X252700Y454660D01*
X252700Y480060D02*
X250160Y482600D01*
D12*
X212685Y139068D02*
X216499Y135255D01*
X212685Y139068D02*
X224125Y139068D01*
X224125Y135255D02*
X224125Y142882D01*
X216499Y484505D02*
X212685Y488318D01*
X224125Y488318D01*
X224125Y484505D02*
X224125Y492132D01*
X212685Y496199D02*
X212685Y503825D01*
X212685Y496199D02*
X218405Y496199D01*
X216499Y500012D01*
X216499Y501919D01*
X218405Y503825D01*
X222218Y503825D01*
X224125Y501919D01*
X224125Y498106D01*
X222218Y496199D01*
X238722Y521335D02*
X246348Y521335D01*
X238722Y521335D02*
X236815Y523242D01*
X236815Y527055D01*
X238722Y528962D01*
X246348Y528962D01*
X248255Y527055D01*
X248255Y523242D01*
X246348Y521335D01*
X238722Y528962D01*
X246348Y533029D02*
X248255Y534936D01*
X248255Y538749D01*
X246348Y540655D01*
X238722Y540655D01*
X236815Y538749D01*
X236815Y534936D01*
X238722Y533029D01*
X240629Y533029D01*
X242535Y534936D01*
X242535Y540655D01*
X236815Y544723D02*
X248255Y544723D01*
X248255Y552349D01*
D11*
X393700Y171050D02*
X419100Y171050D01*
X393700Y171050D02*
X393700Y145650D01*
X419100Y145650D01*
X419100Y171050D01*
D13*
X406400Y139300D02*
X406400Y82150D01*
D11*
X393700Y171050D02*
X368300Y171050D01*
X368300Y145650D01*
X393700Y145650D01*
D13*
X381000Y139300D02*
X381000Y82150D01*
D11*
X368300Y171050D02*
X342900Y171050D01*
X342900Y145650D01*
X368300Y145650D01*
D13*
X355600Y139300D02*
X355600Y82150D01*
D14*
X406400Y143110D03*
X381000Y143110D03*
X355600Y143110D03*
D15*
X406400Y176130D03*
X381000Y176130D03*
X355600Y176130D03*
D12*
X304142Y158487D02*
X296515Y158487D01*
X296515Y147047D01*
X304142Y147047D01*
X300328Y152767D02*
X296515Y152767D01*
X308209Y158487D02*
X315836Y147047D01*
X308209Y147047D02*
X315836Y158487D01*
X323716Y158487D02*
X323716Y147047D01*
X319903Y158487D02*
X327529Y158487D01*
D11*
X400050Y228600D02*
X412750Y228600D01*
X400050Y228600D02*
X393700Y234950D01*
X393700Y247650D01*
X400050Y254000D01*
X393700Y234950D02*
X387350Y228600D01*
X374650Y228600D01*
X368300Y234950D01*
X368300Y247650D01*
X374650Y254000D01*
X387350Y254000D01*
X393700Y247650D01*
X419100Y247650D02*
X419100Y234950D01*
X412750Y228600D01*
X419100Y247650D02*
X412750Y254000D01*
X400050Y254000D01*
X368300Y234950D02*
X361950Y228600D01*
X349250Y228600D01*
X342900Y234950D01*
X342900Y247650D01*
X349250Y254000D01*
X361950Y254000D01*
X368300Y247650D01*
D12*
X435453Y240032D02*
X437360Y238125D01*
X439266Y238125D01*
X441173Y240032D01*
X441173Y249565D01*
X439266Y249565D02*
X443080Y249565D01*
X447147Y249565D02*
X447147Y238125D01*
X447147Y249565D02*
X452867Y249565D01*
X454774Y247658D01*
X454774Y243845D01*
X452867Y241938D01*
X447147Y241938D01*
X458841Y245752D02*
X462654Y249565D01*
X462654Y238125D01*
X458841Y238125D02*
X466467Y238125D01*
D11*
X387350Y495300D02*
X381000Y495300D01*
X370840Y488950D02*
X370840Y501650D01*
X381000Y495300D01*
X365760Y495300D01*
X370840Y488950D02*
X381000Y495300D01*
X381000Y488950D01*
X381000Y495300D02*
X381000Y501650D01*
X360680Y485140D02*
X360580Y485142D01*
X360481Y485148D01*
X360381Y485158D01*
X360283Y485171D01*
X360184Y485189D01*
X360087Y485210D01*
X359991Y485235D01*
X359895Y485264D01*
X359801Y485297D01*
X359708Y485333D01*
X359617Y485373D01*
X359527Y485417D01*
X359439Y485464D01*
X359353Y485514D01*
X359269Y485568D01*
X359187Y485625D01*
X359108Y485685D01*
X359030Y485749D01*
X358956Y485815D01*
X358884Y485884D01*
X358815Y485956D01*
X358749Y486030D01*
X358685Y486108D01*
X358625Y486187D01*
X358568Y486269D01*
X358514Y486353D01*
X358464Y486439D01*
X358417Y486527D01*
X358373Y486617D01*
X358333Y486708D01*
X358297Y486801D01*
X358264Y486895D01*
X358235Y486991D01*
X358210Y487087D01*
X358189Y487184D01*
X358171Y487283D01*
X358158Y487381D01*
X358148Y487481D01*
X358142Y487580D01*
X358140Y487680D01*
X401320Y485140D02*
X401420Y485142D01*
X401519Y485148D01*
X401619Y485158D01*
X401717Y485171D01*
X401816Y485189D01*
X401913Y485210D01*
X402009Y485235D01*
X402105Y485264D01*
X402199Y485297D01*
X402292Y485333D01*
X402383Y485373D01*
X402473Y485417D01*
X402561Y485464D01*
X402647Y485514D01*
X402731Y485568D01*
X402813Y485625D01*
X402892Y485685D01*
X402970Y485749D01*
X403044Y485815D01*
X403116Y485884D01*
X403185Y485956D01*
X403251Y486030D01*
X403315Y486108D01*
X403375Y486187D01*
X403432Y486269D01*
X403486Y486353D01*
X403536Y486439D01*
X403583Y486527D01*
X403627Y486617D01*
X403667Y486708D01*
X403703Y486801D01*
X403736Y486895D01*
X403765Y486991D01*
X403790Y487087D01*
X403811Y487184D01*
X403829Y487283D01*
X403842Y487381D01*
X403852Y487481D01*
X403858Y487580D01*
X403860Y487680D01*
X403860Y502920D02*
X403858Y503020D01*
X403852Y503119D01*
X403842Y503219D01*
X403829Y503317D01*
X403811Y503416D01*
X403790Y503513D01*
X403765Y503609D01*
X403736Y503705D01*
X403703Y503799D01*
X403667Y503892D01*
X403627Y503983D01*
X403583Y504073D01*
X403536Y504161D01*
X403486Y504247D01*
X403432Y504331D01*
X403375Y504413D01*
X403315Y504492D01*
X403251Y504570D01*
X403185Y504644D01*
X403116Y504716D01*
X403044Y504785D01*
X402970Y504851D01*
X402892Y504915D01*
X402813Y504975D01*
X402731Y505032D01*
X402647Y505086D01*
X402561Y505136D01*
X402473Y505183D01*
X402383Y505227D01*
X402292Y505267D01*
X402199Y505303D01*
X402105Y505336D01*
X402009Y505365D01*
X401913Y505390D01*
X401816Y505411D01*
X401717Y505429D01*
X401619Y505442D01*
X401519Y505452D01*
X401420Y505458D01*
X401320Y505460D01*
X360680Y505460D02*
X360580Y505458D01*
X360481Y505452D01*
X360381Y505442D01*
X360283Y505429D01*
X360184Y505411D01*
X360087Y505390D01*
X359991Y505365D01*
X359895Y505336D01*
X359801Y505303D01*
X359708Y505267D01*
X359617Y505227D01*
X359527Y505183D01*
X359439Y505136D01*
X359353Y505086D01*
X359269Y505032D01*
X359187Y504975D01*
X359108Y504915D01*
X359030Y504851D01*
X358956Y504785D01*
X358884Y504716D01*
X358815Y504644D01*
X358749Y504570D01*
X358685Y504492D01*
X358625Y504413D01*
X358568Y504331D01*
X358514Y504247D01*
X358464Y504161D01*
X358417Y504073D01*
X358373Y503983D01*
X358333Y503892D01*
X358297Y503799D01*
X358264Y503705D01*
X358235Y503609D01*
X358210Y503513D01*
X358189Y503416D01*
X358171Y503317D01*
X358158Y503219D01*
X358148Y503119D01*
X358142Y503020D01*
X358140Y502920D01*
X358140Y487680D01*
X403860Y487680D02*
X403860Y502920D01*
X401320Y485140D02*
X360680Y485140D01*
X360680Y505460D02*
X401320Y505460D01*
D16*
X397510Y495300D03*
D17*
X348615Y495300D03*
X413385Y495300D03*
D12*
X367137Y508635D02*
X367137Y520075D01*
X367137Y508635D02*
X372857Y508635D01*
X374764Y510542D01*
X374764Y518168D01*
X372857Y520075D01*
X367137Y520075D01*
X378831Y516262D02*
X382644Y520075D01*
X382644Y508635D01*
X378831Y508635D02*
X386458Y508635D01*
D11*
X190500Y596900D02*
X190500Y622300D01*
X190500Y596900D02*
X213360Y596900D01*
X215900Y599440D01*
X218440Y596900D01*
X238760Y596900D01*
X241300Y599440D01*
X243840Y596900D01*
X264160Y596900D01*
X266700Y599440D01*
X269240Y596900D01*
X289560Y596900D01*
X292100Y599440D01*
X294640Y596900D01*
X314960Y596900D01*
X320040Y596900D02*
X342900Y596900D01*
X342900Y622300D01*
X320040Y622300D01*
X314960Y622300D02*
X294640Y622300D01*
X292100Y619760D01*
X289560Y622300D01*
X269240Y622300D01*
X266700Y619760D01*
X264160Y622300D01*
X243840Y622300D01*
X241300Y619760D01*
X238760Y622300D01*
X218440Y622300D01*
X215900Y619760D01*
X213360Y622300D01*
X190500Y622300D01*
X317500Y619760D02*
X320040Y622300D01*
X317500Y619760D02*
X314960Y622300D01*
X317500Y599440D02*
X320040Y596900D01*
X317500Y599440D02*
X314960Y596900D01*
D12*
X202568Y636915D02*
X198755Y633102D01*
X202568Y636915D02*
X202568Y625475D01*
X198755Y625475D02*
X206382Y625475D01*
X329568Y635008D02*
X333382Y636915D01*
X329568Y635008D02*
X325755Y631195D01*
X325755Y627382D01*
X327662Y625475D01*
X331475Y625475D01*
X333382Y627382D01*
X333382Y629288D01*
X331475Y631195D01*
X325755Y631195D01*
X182248Y575945D02*
X178435Y575945D01*
X180342Y575945D02*
X180342Y587385D01*
X182248Y587385D02*
X178435Y587385D01*
X186231Y575945D02*
X193857Y575945D01*
X186231Y575945D02*
X193857Y583572D01*
X193857Y585478D01*
X191951Y587385D01*
X188138Y587385D01*
X186231Y585478D01*
X203645Y587385D02*
X205551Y585478D01*
X203645Y587385D02*
X199832Y587385D01*
X197925Y585478D01*
X197925Y577852D01*
X199832Y575945D01*
X203645Y575945D01*
X205551Y577852D01*
X209619Y575945D02*
X217245Y587385D01*
X221313Y587385D02*
X221313Y575945D01*
X228939Y575945D01*
X233007Y587385D02*
X240633Y587385D01*
X233007Y587385D02*
X233007Y575945D01*
X240633Y575945D01*
X236820Y581665D02*
X233007Y581665D01*
X244701Y587385D02*
X244701Y575945D01*
X250421Y575945D01*
X252327Y577852D01*
X252327Y585478D01*
X250421Y587385D01*
X244701Y587385D01*
D11*
X351790Y469900D02*
X351790Y292100D01*
X410210Y292100D02*
X410210Y469900D01*
X351790Y469900D01*
X351790Y292100D02*
X370840Y292100D01*
X391160Y292100D02*
X410210Y292100D01*
X391160Y292100D02*
X391157Y292347D01*
X391148Y292595D01*
X391133Y292842D01*
X391112Y293088D01*
X391085Y293334D01*
X391052Y293579D01*
X391013Y293824D01*
X390968Y294067D01*
X390917Y294309D01*
X390860Y294550D01*
X390798Y294789D01*
X390729Y295027D01*
X390655Y295263D01*
X390575Y295497D01*
X390490Y295729D01*
X390398Y295959D01*
X390302Y296187D01*
X390199Y296412D01*
X390092Y296635D01*
X389978Y296855D01*
X389860Y297072D01*
X389736Y297287D01*
X389607Y297498D01*
X389473Y297706D01*
X389334Y297911D01*
X389190Y298112D01*
X389042Y298310D01*
X388888Y298504D01*
X388730Y298694D01*
X388567Y298880D01*
X388400Y299062D01*
X388228Y299240D01*
X388052Y299414D01*
X387872Y299584D01*
X387687Y299749D01*
X387499Y299909D01*
X387307Y300065D01*
X387111Y300217D01*
X386912Y300363D01*
X386709Y300505D01*
X386502Y300641D01*
X386293Y300773D01*
X386080Y300899D01*
X385864Y301020D01*
X385646Y301136D01*
X385424Y301246D01*
X385200Y301351D01*
X384974Y301451D01*
X384745Y301545D01*
X384514Y301633D01*
X384280Y301716D01*
X384045Y301793D01*
X383808Y301864D01*
X383570Y301930D01*
X383330Y301989D01*
X383088Y302043D01*
X382845Y302091D01*
X382602Y302133D01*
X382357Y302169D01*
X382111Y302199D01*
X381865Y302223D01*
X381618Y302241D01*
X381371Y302253D01*
X381124Y302259D01*
X380876Y302259D01*
X380629Y302253D01*
X380382Y302241D01*
X380135Y302223D01*
X379889Y302199D01*
X379643Y302169D01*
X379398Y302133D01*
X379155Y302091D01*
X378912Y302043D01*
X378670Y301989D01*
X378430Y301930D01*
X378192Y301864D01*
X377955Y301793D01*
X377720Y301716D01*
X377486Y301633D01*
X377255Y301545D01*
X377026Y301451D01*
X376800Y301351D01*
X376576Y301246D01*
X376354Y301136D01*
X376136Y301020D01*
X375920Y300899D01*
X375707Y300773D01*
X375498Y300641D01*
X375291Y300505D01*
X375088Y300363D01*
X374889Y300217D01*
X374693Y300065D01*
X374501Y299909D01*
X374313Y299749D01*
X374128Y299584D01*
X373948Y299414D01*
X373772Y299240D01*
X373600Y299062D01*
X373433Y298880D01*
X373270Y298694D01*
X373112Y298504D01*
X372958Y298310D01*
X372810Y298112D01*
X372666Y297911D01*
X372527Y297706D01*
X372393Y297498D01*
X372264Y297287D01*
X372140Y297072D01*
X372022Y296855D01*
X371908Y296635D01*
X371801Y296412D01*
X371698Y296187D01*
X371602Y295959D01*
X371510Y295729D01*
X371425Y295497D01*
X371345Y295263D01*
X371271Y295027D01*
X371202Y294789D01*
X371140Y294550D01*
X371083Y294309D01*
X371032Y294067D01*
X370987Y293824D01*
X370948Y293579D01*
X370915Y293334D01*
X370888Y293088D01*
X370867Y292842D01*
X370852Y292595D01*
X370843Y292347D01*
X370840Y292100D01*
D12*
X372044Y276225D02*
X368231Y276225D01*
X370138Y276225D02*
X370138Y287665D01*
X372044Y287665D02*
X368231Y287665D01*
X381747Y287665D02*
X383654Y285758D01*
X381747Y287665D02*
X377934Y287665D01*
X376027Y285758D01*
X376027Y278132D01*
X377934Y276225D01*
X381747Y276225D01*
X383654Y278132D01*
X387721Y283852D02*
X391534Y287665D01*
X391534Y276225D01*
X387721Y276225D02*
X395347Y276225D01*
D18*
X513439Y581914D02*
X515812Y581914D01*
X516998Y583100D01*
X516998Y585473D01*
X515812Y586659D01*
X513439Y586659D01*
X512253Y585473D01*
X512253Y583100D01*
X513439Y581914D01*
X519269Y579541D02*
X519269Y586659D01*
X522828Y586659D01*
X524015Y585473D01*
X524015Y583100D01*
X522828Y581914D01*
X519269Y581914D01*
X527472Y581914D02*
X529845Y581914D01*
X527472Y581914D02*
X526286Y583100D01*
X526286Y585473D01*
X527472Y586659D01*
X529845Y586659D01*
X531031Y585473D01*
X531031Y584287D01*
X526286Y584287D01*
X533302Y581914D02*
X533302Y586659D01*
X536861Y586659D01*
X538048Y585473D01*
X538048Y581914D01*
X547335Y581914D02*
X550894Y581914D01*
X552080Y583100D01*
X550894Y584287D01*
X548521Y584287D01*
X547335Y585473D01*
X548521Y586659D01*
X552080Y586659D01*
X555538Y581914D02*
X557910Y581914D01*
X559097Y583100D01*
X559097Y585473D01*
X557910Y586659D01*
X555538Y586659D01*
X554351Y585473D01*
X554351Y583100D01*
X555538Y581914D01*
X561368Y583100D02*
X561368Y586659D01*
X561368Y583100D02*
X562554Y581914D01*
X566113Y581914D01*
X566113Y586659D01*
X568384Y586659D02*
X568384Y581914D01*
X568384Y584287D02*
X570757Y586659D01*
X571943Y586659D01*
X575417Y586659D02*
X578976Y586659D01*
X575417Y586659D02*
X574231Y585473D01*
X574231Y583100D01*
X575417Y581914D01*
X578976Y581914D01*
X582434Y581914D02*
X584806Y581914D01*
X582434Y581914D02*
X581247Y583100D01*
X581247Y585473D01*
X582434Y586659D01*
X584806Y586659D01*
X585993Y585473D01*
X585993Y584287D01*
X581247Y584287D01*
X526286Y577602D02*
X526286Y570484D01*
X526286Y574043D02*
X527472Y575229D01*
X529845Y575229D01*
X531031Y574043D01*
X531031Y570484D01*
X534489Y575229D02*
X536861Y575229D01*
X538048Y574043D01*
X538048Y570484D01*
X534489Y570484D01*
X533302Y571670D01*
X534489Y572857D01*
X538048Y572857D01*
X540319Y575229D02*
X540319Y570484D01*
X540319Y572857D02*
X542691Y575229D01*
X543878Y575229D01*
X550911Y577602D02*
X550911Y570484D01*
X547352Y570484D01*
X546166Y571670D01*
X546166Y574043D01*
X547352Y575229D01*
X550911Y575229D01*
X553182Y575229D02*
X553182Y571670D01*
X554368Y570484D01*
X555555Y571670D01*
X556741Y570484D01*
X557927Y571670D01*
X557927Y575229D01*
X561385Y575229D02*
X563757Y575229D01*
X564944Y574043D01*
X564944Y570484D01*
X561385Y570484D01*
X560198Y571670D01*
X561385Y572857D01*
X564944Y572857D01*
X567215Y575229D02*
X567215Y570484D01*
X567215Y572857D02*
X569587Y575229D01*
X570774Y575229D01*
X574248Y570484D02*
X576621Y570484D01*
X574248Y570484D02*
X573062Y571670D01*
X573062Y574043D01*
X574248Y575229D01*
X576621Y575229D01*
X577807Y574043D01*
X577807Y572857D01*
X573062Y572857D01*
M02*
