M48
;GenerationSoftware,Autodesk,EAGLE,9.4.2*%
;CreationDate,2019-07-09T02:01:16Z*%
FMAT,2
ICI,OFF
METRIC,TZ,000.000
T8C0.759
T7C0.800
T6C0.813
T5C1.000
T4C1.016
T3C1.397
T2C2.000
T1C4.000
%
G90
M71
T1
X33472Y14260
X44902Y14260
T2
X57785Y62865
X18232Y11720
T3
X36870Y21590
X41870Y21590
T4
X54610Y25400
X54610Y20320
X49530Y20320
X49530Y25400
T5
X22860Y36830
X27940Y36830
X53340Y36830
X53340Y54610
X48260Y54610
T6
X20320Y60960
X22860Y60960
X25400Y60960
X27940Y60960
X30480Y60960
X33020Y60960
X24130Y17780
X24130Y27940
T7
X50670Y38330
X49270Y38330
X36200Y38330
X37600Y38330
X36200Y57330
X37600Y57330
X50670Y57330
X49270Y57330
T8
X22860Y36830
X33020Y36830
X33020Y54610
X22860Y54610
X22860Y52070
X33020Y52070
M30