G04 EAGLE Gerber RS-274X export*
G75*
%MOMM*%
%FSLAX34Y34*%
%LPD*%
%INBottom Copper*%
%IPPOS*%
%AMOC8*
5,1,8,0,0,1.08239X$1,22.5*%
G01*
%ADD10C,1.320800*%
%ADD11C,2.540000*%
%ADD12C,1.778000*%
%ADD13C,1.267000*%
%ADD14C,2.095500*%
%ADD15R,1.308000X1.308000*%
%ADD16C,1.524000*%
%ADD17P,1.649562X8X202.500000*%
%ADD18C,1.270000*%

G36*
X582698Y456442D02*
X582698Y456442D01*
X582717Y456440D01*
X582819Y456462D01*
X582921Y456479D01*
X582938Y456488D01*
X582958Y456492D01*
X583047Y456545D01*
X583138Y456594D01*
X583152Y456608D01*
X583169Y456618D01*
X583236Y456697D01*
X583308Y456772D01*
X583316Y456790D01*
X583329Y456805D01*
X583368Y456901D01*
X583411Y456995D01*
X583413Y457015D01*
X583421Y457033D01*
X583439Y457200D01*
X583439Y608004D01*
X583432Y608049D01*
X583434Y608095D01*
X583412Y608170D01*
X583400Y608247D01*
X583378Y608287D01*
X583365Y608332D01*
X583321Y608396D01*
X583284Y608464D01*
X583251Y608496D01*
X583225Y608534D01*
X583162Y608580D01*
X583106Y608634D01*
X583065Y608653D01*
X583028Y608680D01*
X582953Y608704D01*
X582883Y608737D01*
X582837Y608742D01*
X582794Y608756D01*
X582716Y608756D01*
X582639Y608764D01*
X582594Y608755D01*
X582548Y608754D01*
X582417Y608716D01*
X582398Y608712D01*
X582394Y608709D01*
X582387Y608707D01*
X581860Y608489D01*
X573840Y608489D01*
X566430Y611559D01*
X560759Y617230D01*
X557689Y624640D01*
X557689Y632660D01*
X559233Y636387D01*
X559243Y636431D01*
X559263Y636473D01*
X559271Y636550D01*
X559289Y636626D01*
X559285Y636672D01*
X559290Y636717D01*
X559273Y636794D01*
X559266Y636871D01*
X559247Y636913D01*
X559238Y636958D01*
X559198Y637025D01*
X559166Y637096D01*
X559135Y637130D01*
X559111Y637169D01*
X559052Y637220D01*
X559000Y637277D01*
X558959Y637299D01*
X558924Y637329D01*
X558852Y637358D01*
X558784Y637395D01*
X558739Y637404D01*
X558696Y637421D01*
X558560Y637436D01*
X558542Y637439D01*
X558537Y637438D01*
X558530Y637439D01*
X176022Y637439D01*
X176002Y637436D01*
X175983Y637438D01*
X175881Y637416D01*
X175779Y637400D01*
X175762Y637390D01*
X175742Y637386D01*
X175653Y637333D01*
X175562Y637284D01*
X175548Y637270D01*
X175531Y637260D01*
X175464Y637181D01*
X175392Y637106D01*
X175384Y637088D01*
X175371Y637073D01*
X175332Y636977D01*
X175289Y636883D01*
X175287Y636863D01*
X175279Y636845D01*
X175261Y636678D01*
X175261Y457200D01*
X175264Y457180D01*
X175262Y457161D01*
X175284Y457059D01*
X175300Y456957D01*
X175310Y456940D01*
X175314Y456920D01*
X175367Y456831D01*
X175416Y456740D01*
X175430Y456726D01*
X175440Y456709D01*
X175519Y456642D01*
X175594Y456571D01*
X175612Y456562D01*
X175627Y456549D01*
X175723Y456510D01*
X175817Y456467D01*
X175837Y456465D01*
X175855Y456457D01*
X176022Y456439D01*
X582678Y456439D01*
X582698Y456442D01*
G37*
%LPC*%
G36*
X478811Y527049D02*
X478811Y527049D01*
X471809Y529950D01*
X466450Y535309D01*
X463549Y542311D01*
X463549Y549889D01*
X466450Y556891D01*
X471809Y562250D01*
X478811Y565151D01*
X479048Y565151D01*
X479068Y565154D01*
X479087Y565152D01*
X479189Y565174D01*
X479291Y565190D01*
X479308Y565200D01*
X479328Y565204D01*
X479417Y565257D01*
X479508Y565306D01*
X479522Y565320D01*
X479539Y565330D01*
X479606Y565409D01*
X479678Y565484D01*
X479686Y565502D01*
X479699Y565517D01*
X479738Y565613D01*
X479781Y565707D01*
X479783Y565727D01*
X479791Y565745D01*
X479809Y565912D01*
X479809Y581103D01*
X480776Y583437D01*
X482563Y585224D01*
X484897Y586191D01*
X514503Y586191D01*
X516837Y585224D01*
X518624Y583437D01*
X519591Y581103D01*
X519591Y565497D01*
X518624Y563163D01*
X516837Y561376D01*
X514503Y560409D01*
X497070Y560409D01*
X497000Y560398D01*
X496928Y560396D01*
X496879Y560378D01*
X496828Y560370D01*
X496764Y560336D01*
X496697Y560311D01*
X496656Y560279D01*
X496610Y560254D01*
X496561Y560202D01*
X496505Y560158D01*
X496477Y560114D01*
X496441Y560076D01*
X496411Y560011D01*
X496372Y559951D01*
X496359Y559900D01*
X496337Y559853D01*
X496329Y559782D01*
X496312Y559712D01*
X496316Y559660D01*
X496310Y559609D01*
X496325Y559538D01*
X496331Y559467D01*
X496351Y559419D01*
X496362Y559368D01*
X496399Y559307D01*
X496427Y559241D01*
X496472Y559185D01*
X496489Y559157D01*
X496506Y559142D01*
X496532Y559110D01*
X498750Y556891D01*
X501651Y549889D01*
X501651Y542311D01*
X498750Y535309D01*
X493391Y529950D01*
X486389Y527049D01*
X478811Y527049D01*
G37*
%LPD*%
%LPC*%
G36*
X200623Y590041D02*
X200623Y590041D01*
X195862Y592014D01*
X192218Y595658D01*
X190245Y600419D01*
X190245Y618781D01*
X192218Y623542D01*
X195862Y627186D01*
X200623Y629159D01*
X205777Y629159D01*
X210538Y627186D01*
X214182Y623542D01*
X216155Y618781D01*
X216155Y600419D01*
X214182Y595658D01*
X210538Y592014D01*
X205777Y590041D01*
X200623Y590041D01*
G37*
%LPD*%
%LPC*%
G36*
X226077Y533414D02*
X226077Y533414D01*
X221414Y535346D01*
X217846Y538914D01*
X215914Y543577D01*
X215914Y548623D01*
X217846Y553286D01*
X221414Y556854D01*
X226077Y558786D01*
X231123Y558786D01*
X235786Y556854D01*
X239354Y553286D01*
X241286Y548623D01*
X241286Y543577D01*
X239354Y538914D01*
X235786Y535346D01*
X231123Y533414D01*
X226077Y533414D01*
G37*
%LPD*%
%LPC*%
G36*
X328583Y594867D02*
X328583Y594867D01*
X325595Y596105D01*
X323309Y598391D01*
X322071Y601379D01*
X322071Y617821D01*
X323309Y620809D01*
X325595Y623095D01*
X328583Y624333D01*
X331817Y624333D01*
X334805Y623095D01*
X337091Y620809D01*
X338329Y617821D01*
X338329Y601379D01*
X337091Y598391D01*
X334805Y596105D01*
X331817Y594867D01*
X328583Y594867D01*
G37*
%LPD*%
%LPC*%
G36*
X303183Y594867D02*
X303183Y594867D01*
X300195Y596105D01*
X297909Y598391D01*
X296671Y601379D01*
X296671Y617821D01*
X297909Y620809D01*
X300195Y623095D01*
X303183Y624333D01*
X306417Y624333D01*
X309405Y623095D01*
X311691Y620809D01*
X312929Y617821D01*
X312929Y601379D01*
X311691Y598391D01*
X309405Y596105D01*
X306417Y594867D01*
X303183Y594867D01*
G37*
%LPD*%
%LPC*%
G36*
X277783Y594867D02*
X277783Y594867D01*
X274795Y596105D01*
X272509Y598391D01*
X271271Y601379D01*
X271271Y617821D01*
X272509Y620809D01*
X274795Y623095D01*
X277783Y624333D01*
X281017Y624333D01*
X284005Y623095D01*
X286291Y620809D01*
X287529Y617821D01*
X287529Y601379D01*
X286291Y598391D01*
X284005Y596105D01*
X281017Y594867D01*
X277783Y594867D01*
G37*
%LPD*%
%LPC*%
G36*
X252383Y594867D02*
X252383Y594867D01*
X249395Y596105D01*
X247109Y598391D01*
X245871Y601379D01*
X245871Y617821D01*
X247109Y620809D01*
X249395Y623095D01*
X252383Y624333D01*
X255617Y624333D01*
X258605Y623095D01*
X260891Y620809D01*
X262129Y617821D01*
X262129Y601379D01*
X260891Y598391D01*
X258605Y596105D01*
X255617Y594867D01*
X252383Y594867D01*
G37*
%LPD*%
%LPC*%
G36*
X328637Y538240D02*
X328637Y538240D01*
X325748Y539437D01*
X323537Y541648D01*
X322340Y544537D01*
X322340Y547663D01*
X323537Y550552D01*
X325748Y552763D01*
X328637Y553960D01*
X331763Y553960D01*
X334652Y552763D01*
X336863Y550552D01*
X338060Y547663D01*
X338060Y544537D01*
X336863Y541648D01*
X334652Y539437D01*
X331763Y538240D01*
X328637Y538240D01*
G37*
%LPD*%
%LPC*%
G36*
X328637Y512840D02*
X328637Y512840D01*
X325748Y514037D01*
X323537Y516248D01*
X322340Y519137D01*
X322340Y522263D01*
X323537Y525152D01*
X325748Y527363D01*
X328637Y528560D01*
X331763Y528560D01*
X334652Y527363D01*
X336863Y525152D01*
X338060Y522263D01*
X338060Y519137D01*
X336863Y516248D01*
X334652Y514037D01*
X331763Y512840D01*
X328637Y512840D01*
G37*
%LPD*%
%LPC*%
G36*
X534923Y547623D02*
X534923Y547623D01*
X534923Y561289D01*
X536969Y560965D01*
X539250Y560224D01*
X541388Y559135D01*
X543329Y557725D01*
X545025Y556029D01*
X546435Y554088D01*
X547524Y551950D01*
X548265Y549669D01*
X548589Y547623D01*
X534923Y547623D01*
G37*
%LPD*%
%LPC*%
G36*
X518211Y547623D02*
X518211Y547623D01*
X518535Y549669D01*
X519276Y551950D01*
X520365Y554088D01*
X521775Y556029D01*
X523471Y557725D01*
X525412Y559135D01*
X527550Y560224D01*
X529831Y560965D01*
X531877Y561289D01*
X531877Y547623D01*
X518211Y547623D01*
G37*
%LPD*%
%LPC*%
G36*
X534923Y544577D02*
X534923Y544577D01*
X548589Y544577D01*
X548265Y542531D01*
X547524Y540250D01*
X546435Y538112D01*
X545025Y536171D01*
X543329Y534475D01*
X541388Y533065D01*
X539250Y531976D01*
X536969Y531235D01*
X534923Y530911D01*
X534923Y544577D01*
G37*
%LPD*%
%LPC*%
G36*
X529831Y531235D02*
X529831Y531235D01*
X527550Y531976D01*
X525412Y533065D01*
X523471Y534475D01*
X521775Y536171D01*
X520365Y538112D01*
X519276Y540250D01*
X518535Y542531D01*
X518211Y544577D01*
X531877Y544577D01*
X531877Y530911D01*
X529831Y531235D01*
G37*
%LPD*%
%LPC*%
G36*
X230123Y611123D02*
X230123Y611123D01*
X230123Y625225D01*
X231267Y624997D01*
X232932Y624308D01*
X234430Y623307D01*
X235703Y622034D01*
X236704Y620536D01*
X237393Y618871D01*
X237745Y617105D01*
X237745Y611123D01*
X230123Y611123D01*
G37*
%LPD*%
%LPC*%
G36*
X230123Y608077D02*
X230123Y608077D01*
X237745Y608077D01*
X237745Y602095D01*
X237393Y600329D01*
X236704Y598664D01*
X235703Y597166D01*
X234430Y595893D01*
X232932Y594892D01*
X231267Y594203D01*
X230123Y593975D01*
X230123Y608077D01*
G37*
%LPD*%
%LPC*%
G36*
X219455Y611123D02*
X219455Y611123D01*
X219455Y617105D01*
X219807Y618871D01*
X220496Y620536D01*
X221497Y622034D01*
X222770Y623307D01*
X224268Y624308D01*
X225933Y624997D01*
X227077Y625225D01*
X227077Y611123D01*
X219455Y611123D01*
G37*
%LPD*%
%LPC*%
G36*
X225933Y594203D02*
X225933Y594203D01*
X224268Y594892D01*
X222770Y595893D01*
X221497Y597166D01*
X220496Y598664D01*
X219807Y600329D01*
X219455Y602095D01*
X219455Y608077D01*
X227077Y608077D01*
X227077Y593975D01*
X225933Y594203D01*
G37*
%LPD*%
%LPC*%
G36*
X363523Y574823D02*
X363523Y574823D01*
X363523Y582381D01*
X368975Y582381D01*
X368977Y582381D01*
X369031Y582375D01*
X369041Y582376D01*
X369047Y582375D01*
X369069Y582380D01*
X369071Y582381D01*
X374477Y582381D01*
X374477Y574823D01*
X363523Y574823D01*
G37*
%LPD*%
%LPC*%
G36*
X368968Y564225D02*
X368968Y564225D01*
X368959Y564224D01*
X368952Y564225D01*
X368931Y564220D01*
X368928Y564219D01*
X363523Y564219D01*
X363523Y571777D01*
X374477Y571777D01*
X374477Y564219D01*
X369025Y564219D01*
X369023Y564219D01*
X368968Y564225D01*
G37*
%LPD*%
%LPC*%
G36*
X377523Y574823D02*
X377523Y574823D01*
X377523Y582381D01*
X382874Y582381D01*
X383521Y582208D01*
X384100Y581873D01*
X384573Y581400D01*
X384908Y580821D01*
X385081Y580174D01*
X385081Y574823D01*
X377523Y574823D01*
G37*
%LPD*%
%LPC*%
G36*
X352919Y574823D02*
X352919Y574823D01*
X352919Y580174D01*
X353092Y580821D01*
X353427Y581400D01*
X353900Y581873D01*
X354479Y582208D01*
X355126Y582381D01*
X360477Y582381D01*
X360477Y574823D01*
X352919Y574823D01*
G37*
%LPD*%
%LPC*%
G36*
X377523Y564219D02*
X377523Y564219D01*
X377523Y571777D01*
X385081Y571777D01*
X385081Y566426D01*
X384908Y565779D01*
X384573Y565200D01*
X384100Y564727D01*
X383521Y564392D01*
X382874Y564219D01*
X377523Y564219D01*
G37*
%LPD*%
%LPC*%
G36*
X355126Y564219D02*
X355126Y564219D01*
X354479Y564392D01*
X353900Y564727D01*
X353427Y565200D01*
X353092Y565779D01*
X352919Y566426D01*
X352919Y571777D01*
X360477Y571777D01*
X360477Y564219D01*
X355126Y564219D01*
G37*
%LPD*%
%LPC*%
G36*
X230123Y522223D02*
X230123Y522223D01*
X230123Y529447D01*
X231189Y529235D01*
X232804Y528566D01*
X234258Y527594D01*
X235494Y526358D01*
X236466Y524904D01*
X237135Y523289D01*
X237347Y522223D01*
X230123Y522223D01*
G37*
%LPD*%
%LPC*%
G36*
X219853Y522223D02*
X219853Y522223D01*
X220065Y523289D01*
X220734Y524904D01*
X221706Y526358D01*
X222942Y527594D01*
X224396Y528566D01*
X226011Y529235D01*
X227077Y529447D01*
X227077Y522223D01*
X219853Y522223D01*
G37*
%LPD*%
%LPC*%
G36*
X230123Y519177D02*
X230123Y519177D01*
X237347Y519177D01*
X237135Y518111D01*
X236466Y516496D01*
X235494Y515042D01*
X234258Y513806D01*
X232804Y512834D01*
X231189Y512165D01*
X230123Y511953D01*
X230123Y519177D01*
G37*
%LPD*%
%LPC*%
G36*
X226011Y512165D02*
X226011Y512165D01*
X224396Y512834D01*
X222942Y513806D01*
X221706Y515042D01*
X220734Y516496D01*
X220065Y518111D01*
X219853Y519177D01*
X227077Y519177D01*
X227077Y511953D01*
X226011Y512165D01*
G37*
%LPD*%
%LPC*%
G36*
X228599Y609599D02*
X228599Y609599D01*
X228599Y609601D01*
X228601Y609601D01*
X228601Y609599D01*
X228599Y609599D01*
G37*
%LPD*%
%LPC*%
G36*
X375999Y573299D02*
X375999Y573299D01*
X375999Y573301D01*
X376001Y573301D01*
X376001Y573299D01*
X375999Y573299D01*
G37*
%LPD*%
%LPC*%
G36*
X228599Y520699D02*
X228599Y520699D01*
X228599Y520701D01*
X228601Y520701D01*
X228601Y520699D01*
X228599Y520699D01*
G37*
%LPD*%
%LPC*%
G36*
X533399Y546099D02*
X533399Y546099D01*
X533399Y546101D01*
X533401Y546101D01*
X533401Y546099D01*
X533399Y546099D01*
G37*
%LPD*%
%LPC*%
G36*
X361999Y573299D02*
X361999Y573299D01*
X361999Y573301D01*
X362001Y573301D01*
X362001Y573299D01*
X361999Y573299D01*
G37*
%LPD*%
D10*
X203200Y602996D02*
X203200Y616204D01*
X228600Y616204D02*
X228600Y602996D01*
X254000Y602996D02*
X254000Y616204D01*
X279400Y616204D02*
X279400Y602996D01*
X304800Y602996D02*
X304800Y616204D01*
X330200Y616204D02*
X330200Y602996D01*
D11*
X228600Y368300D03*
X279400Y368300D03*
X533400Y368300D03*
X533400Y546100D03*
X482600Y546100D03*
D12*
X250190Y177800D02*
X232410Y177800D01*
X232410Y279400D02*
X250190Y279400D01*
D13*
X330200Y368300D03*
X330200Y520700D03*
X330200Y546100D03*
X228600Y546100D03*
X228600Y520700D03*
X228600Y368300D03*
D14*
X418700Y226378D02*
X418700Y205423D01*
X368700Y205423D02*
X368700Y226378D01*
D15*
X506700Y383300D03*
X492700Y383300D03*
X362000Y383300D03*
X376000Y383300D03*
X362000Y573300D03*
X376000Y573300D03*
X506700Y573300D03*
X492700Y573300D03*
D16*
X546100Y203200D03*
D17*
X495300Y203200D03*
X495300Y254000D03*
X546100Y254000D03*
D18*
X545592Y254508D02*
X524256Y254508D01*
X499872Y278892D01*
X241554Y278892D01*
X545592Y254508D02*
X546100Y254000D01*
X241554Y278892D02*
X241300Y279400D01*
M02*
