G04 EAGLE Gerber RS-274X export*
G75*
%MOMM*%
%FSLAX34Y34*%
%LPD*%
%IN*%
%IPPOS*%
%AMOC8*
5,1,8,0,0,1.08239X$1,22.5*%
G01*
%ADD10C,0.254000*%


D10*
X165100Y101600D02*
X593600Y101600D01*
X593600Y647600D01*
X165100Y647600D01*
X165100Y101600D01*
X587850Y628213D02*
X587774Y627344D01*
X587622Y626484D01*
X587396Y625640D01*
X587098Y624820D01*
X586729Y624028D01*
X586292Y623272D01*
X585791Y622557D01*
X585230Y621888D01*
X584612Y621270D01*
X583943Y620709D01*
X583228Y620208D01*
X582472Y619771D01*
X581680Y619402D01*
X580860Y619104D01*
X580016Y618878D01*
X579157Y618726D01*
X578287Y618650D01*
X577413Y618650D01*
X576544Y618726D01*
X575684Y618878D01*
X574840Y619104D01*
X574020Y619402D01*
X573228Y619771D01*
X572472Y620208D01*
X571757Y620709D01*
X571088Y621270D01*
X570470Y621888D01*
X569909Y622557D01*
X569408Y623272D01*
X568971Y624028D01*
X568602Y624820D01*
X568304Y625640D01*
X568078Y626484D01*
X567926Y627344D01*
X567850Y628213D01*
X567850Y629087D01*
X567926Y629957D01*
X568078Y630816D01*
X568304Y631660D01*
X568602Y632480D01*
X568971Y633272D01*
X569408Y634028D01*
X569909Y634743D01*
X570470Y635412D01*
X571088Y636030D01*
X571757Y636591D01*
X572472Y637092D01*
X573228Y637529D01*
X574020Y637898D01*
X574840Y638196D01*
X575684Y638422D01*
X576544Y638574D01*
X577413Y638650D01*
X578287Y638650D01*
X579157Y638574D01*
X580016Y638422D01*
X580860Y638196D01*
X581680Y637898D01*
X582472Y637529D01*
X583228Y637092D01*
X583943Y636591D01*
X584612Y636030D01*
X585230Y635412D01*
X585791Y634743D01*
X586292Y634028D01*
X586729Y633272D01*
X587098Y632480D01*
X587396Y631660D01*
X587622Y630816D01*
X587774Y629957D01*
X587850Y629087D01*
X587850Y628213D01*
X192316Y116767D02*
X192240Y115897D01*
X192088Y115037D01*
X191862Y114193D01*
X191564Y113373D01*
X191195Y112581D01*
X190758Y111825D01*
X190257Y111110D01*
X189696Y110441D01*
X189078Y109823D01*
X188410Y109262D01*
X187694Y108761D01*
X186938Y108325D01*
X186147Y107956D01*
X185326Y107657D01*
X184483Y107431D01*
X183623Y107279D01*
X182753Y107203D01*
X181880Y107203D01*
X181010Y107279D01*
X180150Y107431D01*
X179306Y107657D01*
X178486Y107956D01*
X177694Y108325D01*
X176938Y108761D01*
X176223Y109262D01*
X175554Y109823D01*
X174936Y110441D01*
X174375Y111110D01*
X173874Y111825D01*
X173438Y112581D01*
X173069Y113373D01*
X172770Y114193D01*
X172544Y115037D01*
X172392Y115897D01*
X172316Y116767D01*
X172316Y117640D01*
X172392Y118510D01*
X172544Y119370D01*
X172770Y120213D01*
X173069Y121034D01*
X173438Y121825D01*
X173874Y122581D01*
X174375Y123297D01*
X174936Y123966D01*
X175554Y124583D01*
X176223Y125144D01*
X176938Y125645D01*
X177694Y126082D01*
X178486Y126451D01*
X179306Y126749D01*
X180150Y126975D01*
X181010Y127127D01*
X181880Y127203D01*
X182753Y127203D01*
X183623Y127127D01*
X184483Y126975D01*
X185326Y126749D01*
X186147Y126451D01*
X186938Y126082D01*
X187694Y125645D01*
X188410Y125144D01*
X189078Y124583D01*
X189696Y123966D01*
X190257Y123297D01*
X190758Y122581D01*
X191195Y121825D01*
X191564Y121034D01*
X191862Y120213D01*
X192088Y119370D01*
X192240Y118510D01*
X192316Y117640D01*
X192316Y116767D01*
X354716Y141999D02*
X354643Y140792D01*
X354497Y139593D01*
X354280Y138404D01*
X353990Y137230D01*
X353631Y136076D01*
X353202Y134946D01*
X352706Y133844D01*
X352144Y132774D01*
X351519Y131739D01*
X350833Y130745D01*
X350087Y129793D01*
X349286Y128888D01*
X348431Y128034D01*
X347526Y127232D01*
X346575Y126487D01*
X345580Y125800D01*
X344546Y125175D01*
X343475Y124613D01*
X342373Y124117D01*
X341243Y123689D01*
X340089Y123329D01*
X338916Y123040D01*
X337727Y122822D01*
X336527Y122676D01*
X335320Y122603D01*
X334112Y122603D01*
X332905Y122676D01*
X331705Y122822D01*
X330517Y123040D01*
X329343Y123329D01*
X328189Y123689D01*
X327059Y124117D01*
X325957Y124613D01*
X324887Y125175D01*
X323852Y125800D01*
X322857Y126487D01*
X321906Y127232D01*
X321001Y128034D01*
X320147Y128888D01*
X319345Y129793D01*
X318600Y130745D01*
X317913Y131739D01*
X317288Y132774D01*
X316726Y133844D01*
X316230Y134946D01*
X315802Y136076D01*
X315442Y137230D01*
X315153Y138404D01*
X314935Y139593D01*
X314789Y140792D01*
X314716Y141999D01*
X314716Y143208D01*
X314789Y144414D01*
X314935Y145614D01*
X315153Y146803D01*
X315442Y147976D01*
X315802Y149130D01*
X316230Y150260D01*
X316726Y151363D01*
X317288Y152433D01*
X317913Y153467D01*
X318600Y154462D01*
X319345Y155413D01*
X320147Y156318D01*
X321001Y157173D01*
X321906Y157974D01*
X322857Y158720D01*
X323852Y159406D01*
X324887Y160032D01*
X325957Y160593D01*
X327059Y161089D01*
X328189Y161518D01*
X329343Y161877D01*
X330517Y162167D01*
X331705Y162385D01*
X332905Y162530D01*
X334112Y162603D01*
X335320Y162603D01*
X336527Y162530D01*
X337727Y162385D01*
X338916Y162167D01*
X340089Y161877D01*
X341243Y161518D01*
X342373Y161089D01*
X343475Y160593D01*
X344546Y160032D01*
X345580Y159406D01*
X346575Y158720D01*
X347526Y157974D01*
X348431Y157173D01*
X349286Y156318D01*
X350087Y155413D01*
X350833Y154462D01*
X351519Y153467D01*
X352144Y152433D01*
X352706Y151363D01*
X353202Y150260D01*
X353631Y149130D01*
X353990Y147976D01*
X354280Y146803D01*
X354497Y145614D01*
X354643Y144414D01*
X354716Y143208D01*
X354716Y141999D01*
X469016Y141999D02*
X468943Y140792D01*
X468797Y139593D01*
X468580Y138404D01*
X468290Y137230D01*
X467931Y136076D01*
X467502Y134946D01*
X467006Y133844D01*
X466444Y132774D01*
X465819Y131739D01*
X465133Y130745D01*
X464387Y129793D01*
X463586Y128888D01*
X462731Y128034D01*
X461826Y127232D01*
X460875Y126487D01*
X459880Y125800D01*
X458846Y125175D01*
X457775Y124613D01*
X456673Y124117D01*
X455543Y123689D01*
X454389Y123329D01*
X453216Y123040D01*
X452027Y122822D01*
X450827Y122676D01*
X449620Y122603D01*
X448412Y122603D01*
X447205Y122676D01*
X446005Y122822D01*
X444817Y123040D01*
X443643Y123329D01*
X442489Y123689D01*
X441359Y124117D01*
X440257Y124613D01*
X439187Y125175D01*
X438152Y125800D01*
X437157Y126487D01*
X436206Y127232D01*
X435301Y128034D01*
X434447Y128888D01*
X433645Y129793D01*
X432900Y130745D01*
X432213Y131739D01*
X431588Y132774D01*
X431026Y133844D01*
X430530Y134946D01*
X430102Y136076D01*
X429742Y137230D01*
X429453Y138404D01*
X429235Y139593D01*
X429089Y140792D01*
X429016Y141999D01*
X429016Y143208D01*
X429089Y144414D01*
X429235Y145614D01*
X429453Y146803D01*
X429742Y147976D01*
X430102Y149130D01*
X430530Y150260D01*
X431026Y151363D01*
X431588Y152433D01*
X432213Y153467D01*
X432900Y154462D01*
X433645Y155413D01*
X434447Y156318D01*
X435301Y157173D01*
X436206Y157974D01*
X437157Y158720D01*
X438152Y159406D01*
X439187Y160032D01*
X440257Y160593D01*
X441359Y161089D01*
X442489Y161518D01*
X443643Y161877D01*
X444817Y162167D01*
X446005Y162385D01*
X447205Y162530D01*
X448412Y162603D01*
X449620Y162603D01*
X450827Y162530D01*
X452027Y162385D01*
X453216Y162167D01*
X454389Y161877D01*
X455543Y161518D01*
X456673Y161089D01*
X457775Y160593D01*
X458846Y160032D01*
X459880Y159406D01*
X460875Y158720D01*
X461826Y157974D01*
X462731Y157173D01*
X463586Y156318D01*
X464387Y155413D01*
X465133Y154462D01*
X465819Y153467D01*
X466444Y152433D01*
X467006Y151363D01*
X467502Y150260D01*
X467931Y149130D01*
X468290Y147976D01*
X468580Y146803D01*
X468797Y145614D01*
X468943Y144414D01*
X469016Y143208D01*
X469016Y141999D01*
M02*
