G04 EAGLE Gerber RS-274X export*
G75*
%MOMM*%
%FSLAX34Y34*%
%LPD*%
%INSilkscreen Bottom*%
%IPPOS*%
%AMOC8*
5,1,8,0,0,1.08239X$1,22.5*%
G01*
%ADD10C,0.101600*%


D10*
X570992Y114808D02*
X570992Y126492D01*
X564501Y126492D02*
X570992Y119352D01*
X568396Y121948D02*
X564501Y114808D01*
X559844Y116755D02*
X559844Y122597D01*
X559844Y116755D02*
X559842Y116668D01*
X559836Y116580D01*
X559826Y116494D01*
X559813Y116407D01*
X559795Y116322D01*
X559774Y116237D01*
X559749Y116153D01*
X559720Y116071D01*
X559687Y115990D01*
X559651Y115910D01*
X559612Y115832D01*
X559568Y115756D01*
X559522Y115682D01*
X559472Y115611D01*
X559419Y115541D01*
X559363Y115474D01*
X559304Y115410D01*
X559242Y115348D01*
X559178Y115289D01*
X559111Y115233D01*
X559041Y115180D01*
X558970Y115130D01*
X558896Y115084D01*
X558820Y115040D01*
X558742Y115001D01*
X558662Y114965D01*
X558581Y114932D01*
X558499Y114903D01*
X558415Y114878D01*
X558330Y114857D01*
X558245Y114839D01*
X558158Y114826D01*
X558072Y114816D01*
X557984Y114810D01*
X557897Y114808D01*
X554651Y114808D01*
X554651Y122597D01*
X549117Y126492D02*
X549117Y114808D01*
X545872Y114808D01*
X545785Y114810D01*
X545697Y114816D01*
X545611Y114826D01*
X545524Y114839D01*
X545439Y114857D01*
X545354Y114878D01*
X545270Y114903D01*
X545188Y114932D01*
X545107Y114965D01*
X545027Y115001D01*
X544949Y115040D01*
X544873Y115084D01*
X544799Y115130D01*
X544728Y115180D01*
X544658Y115233D01*
X544591Y115289D01*
X544527Y115348D01*
X544465Y115409D01*
X544406Y115474D01*
X544350Y115541D01*
X544297Y115611D01*
X544247Y115682D01*
X544201Y115756D01*
X544158Y115832D01*
X544118Y115910D01*
X544082Y115990D01*
X544049Y116071D01*
X544020Y116153D01*
X543995Y116237D01*
X543974Y116322D01*
X543956Y116407D01*
X543943Y116494D01*
X543933Y116580D01*
X543927Y116668D01*
X543925Y116755D01*
X543925Y120650D01*
X543927Y120737D01*
X543933Y120825D01*
X543943Y120911D01*
X543956Y120998D01*
X543974Y121083D01*
X543995Y121168D01*
X544020Y121252D01*
X544049Y121334D01*
X544082Y121415D01*
X544118Y121495D01*
X544157Y121573D01*
X544201Y121649D01*
X544247Y121723D01*
X544297Y121794D01*
X544350Y121864D01*
X544406Y121931D01*
X544465Y121996D01*
X544527Y122057D01*
X544591Y122116D01*
X544658Y122172D01*
X544728Y122225D01*
X544799Y122275D01*
X544873Y122321D01*
X544949Y122365D01*
X545027Y122404D01*
X545107Y122440D01*
X545188Y122473D01*
X545270Y122502D01*
X545354Y122527D01*
X545439Y122548D01*
X545524Y122566D01*
X545611Y122579D01*
X545698Y122589D01*
X545785Y122595D01*
X545872Y122597D01*
X549117Y122597D01*
X537323Y114808D02*
X534077Y114808D01*
X537323Y114808D02*
X537410Y114810D01*
X537498Y114816D01*
X537584Y114826D01*
X537671Y114839D01*
X537756Y114857D01*
X537841Y114878D01*
X537925Y114903D01*
X538007Y114932D01*
X538088Y114965D01*
X538168Y115001D01*
X538246Y115040D01*
X538322Y115084D01*
X538396Y115130D01*
X538467Y115180D01*
X538537Y115233D01*
X538604Y115289D01*
X538668Y115348D01*
X538730Y115410D01*
X538789Y115474D01*
X538845Y115541D01*
X538898Y115611D01*
X538948Y115682D01*
X538994Y115756D01*
X539038Y115832D01*
X539077Y115910D01*
X539113Y115990D01*
X539146Y116071D01*
X539175Y116153D01*
X539200Y116237D01*
X539221Y116322D01*
X539239Y116407D01*
X539252Y116494D01*
X539262Y116580D01*
X539268Y116668D01*
X539270Y116755D01*
X539270Y120001D01*
X539268Y120102D01*
X539262Y120202D01*
X539252Y120302D01*
X539239Y120402D01*
X539221Y120501D01*
X539200Y120600D01*
X539175Y120697D01*
X539146Y120794D01*
X539113Y120889D01*
X539077Y120983D01*
X539037Y121075D01*
X538994Y121166D01*
X538947Y121255D01*
X538897Y121342D01*
X538843Y121428D01*
X538786Y121511D01*
X538726Y121591D01*
X538663Y121670D01*
X538596Y121746D01*
X538527Y121819D01*
X538455Y121889D01*
X538381Y121957D01*
X538304Y122022D01*
X538224Y122083D01*
X538142Y122142D01*
X538058Y122197D01*
X537972Y122249D01*
X537884Y122298D01*
X537794Y122343D01*
X537702Y122385D01*
X537609Y122423D01*
X537514Y122457D01*
X537419Y122488D01*
X537322Y122515D01*
X537224Y122538D01*
X537125Y122558D01*
X537025Y122573D01*
X536925Y122585D01*
X536825Y122593D01*
X536724Y122597D01*
X536624Y122597D01*
X536523Y122593D01*
X536423Y122585D01*
X536323Y122573D01*
X536223Y122558D01*
X536124Y122538D01*
X536026Y122515D01*
X535929Y122488D01*
X535834Y122457D01*
X535739Y122423D01*
X535646Y122385D01*
X535554Y122343D01*
X535464Y122298D01*
X535376Y122249D01*
X535290Y122197D01*
X535206Y122142D01*
X535124Y122083D01*
X535044Y122022D01*
X534967Y121957D01*
X534893Y121889D01*
X534821Y121819D01*
X534752Y121746D01*
X534685Y121670D01*
X534622Y121591D01*
X534562Y121511D01*
X534505Y121428D01*
X534451Y121342D01*
X534401Y121255D01*
X534354Y121166D01*
X534311Y121075D01*
X534271Y120983D01*
X534235Y120889D01*
X534202Y120794D01*
X534173Y120697D01*
X534148Y120600D01*
X534127Y120501D01*
X534109Y120402D01*
X534096Y120302D01*
X534086Y120202D01*
X534080Y120102D01*
X534078Y120001D01*
X534077Y120001D02*
X534077Y118703D01*
X539270Y118703D01*
X529139Y119352D02*
X521349Y119352D01*
X515804Y114808D02*
X515804Y126492D01*
X511909Y120001D01*
X508014Y126492D01*
X508014Y114808D01*
X502694Y117404D02*
X502694Y120001D01*
X502692Y120102D01*
X502686Y120202D01*
X502676Y120302D01*
X502663Y120402D01*
X502645Y120501D01*
X502624Y120600D01*
X502599Y120697D01*
X502570Y120794D01*
X502537Y120889D01*
X502501Y120983D01*
X502461Y121075D01*
X502418Y121166D01*
X502371Y121255D01*
X502321Y121342D01*
X502267Y121428D01*
X502210Y121511D01*
X502150Y121591D01*
X502087Y121670D01*
X502020Y121746D01*
X501951Y121819D01*
X501879Y121889D01*
X501805Y121957D01*
X501728Y122022D01*
X501648Y122083D01*
X501566Y122142D01*
X501482Y122197D01*
X501396Y122249D01*
X501308Y122298D01*
X501218Y122343D01*
X501126Y122385D01*
X501033Y122423D01*
X500938Y122457D01*
X500843Y122488D01*
X500746Y122515D01*
X500648Y122538D01*
X500549Y122558D01*
X500449Y122573D01*
X500349Y122585D01*
X500249Y122593D01*
X500148Y122597D01*
X500048Y122597D01*
X499947Y122593D01*
X499847Y122585D01*
X499747Y122573D01*
X499647Y122558D01*
X499548Y122538D01*
X499450Y122515D01*
X499353Y122488D01*
X499258Y122457D01*
X499163Y122423D01*
X499070Y122385D01*
X498978Y122343D01*
X498888Y122298D01*
X498800Y122249D01*
X498714Y122197D01*
X498630Y122142D01*
X498548Y122083D01*
X498468Y122022D01*
X498391Y121957D01*
X498317Y121889D01*
X498245Y121819D01*
X498176Y121746D01*
X498109Y121670D01*
X498046Y121591D01*
X497986Y121511D01*
X497929Y121428D01*
X497875Y121342D01*
X497825Y121255D01*
X497778Y121166D01*
X497735Y121075D01*
X497695Y120983D01*
X497659Y120889D01*
X497626Y120794D01*
X497597Y120697D01*
X497572Y120600D01*
X497551Y120501D01*
X497533Y120402D01*
X497520Y120302D01*
X497510Y120202D01*
X497504Y120102D01*
X497502Y120001D01*
X497501Y120001D02*
X497501Y117404D01*
X497502Y117404D02*
X497504Y117303D01*
X497510Y117203D01*
X497520Y117103D01*
X497533Y117003D01*
X497551Y116904D01*
X497572Y116805D01*
X497597Y116708D01*
X497626Y116611D01*
X497659Y116516D01*
X497695Y116422D01*
X497735Y116330D01*
X497778Y116239D01*
X497825Y116150D01*
X497875Y116063D01*
X497929Y115977D01*
X497986Y115894D01*
X498046Y115814D01*
X498109Y115735D01*
X498176Y115659D01*
X498245Y115586D01*
X498317Y115516D01*
X498391Y115448D01*
X498468Y115383D01*
X498548Y115322D01*
X498630Y115263D01*
X498714Y115208D01*
X498800Y115156D01*
X498888Y115107D01*
X498978Y115062D01*
X499070Y115020D01*
X499163Y114982D01*
X499258Y114948D01*
X499353Y114917D01*
X499450Y114890D01*
X499548Y114867D01*
X499647Y114847D01*
X499747Y114832D01*
X499847Y114820D01*
X499947Y114812D01*
X500048Y114808D01*
X500148Y114808D01*
X500249Y114812D01*
X500349Y114820D01*
X500449Y114832D01*
X500549Y114847D01*
X500648Y114867D01*
X500746Y114890D01*
X500843Y114917D01*
X500938Y114948D01*
X501033Y114982D01*
X501126Y115020D01*
X501218Y115062D01*
X501308Y115107D01*
X501396Y115156D01*
X501482Y115208D01*
X501566Y115263D01*
X501648Y115322D01*
X501728Y115383D01*
X501805Y115448D01*
X501879Y115516D01*
X501951Y115586D01*
X502020Y115659D01*
X502087Y115735D01*
X502150Y115814D01*
X502210Y115894D01*
X502267Y115977D01*
X502321Y116063D01*
X502371Y116150D01*
X502418Y116239D01*
X502461Y116330D01*
X502501Y116422D01*
X502537Y116516D01*
X502570Y116611D01*
X502599Y116708D01*
X502624Y116805D01*
X502645Y116904D01*
X502663Y117003D01*
X502676Y117103D01*
X502686Y117203D01*
X502692Y117303D01*
X502694Y117404D01*
X487654Y114808D02*
X487654Y126492D01*
X487654Y114808D02*
X490900Y114808D01*
X490987Y114810D01*
X491075Y114816D01*
X491161Y114826D01*
X491248Y114839D01*
X491333Y114857D01*
X491418Y114878D01*
X491502Y114903D01*
X491584Y114932D01*
X491665Y114965D01*
X491745Y115001D01*
X491823Y115040D01*
X491899Y115084D01*
X491973Y115130D01*
X492044Y115180D01*
X492114Y115233D01*
X492181Y115289D01*
X492245Y115348D01*
X492307Y115410D01*
X492366Y115474D01*
X492422Y115541D01*
X492475Y115611D01*
X492525Y115682D01*
X492571Y115756D01*
X492615Y115832D01*
X492654Y115910D01*
X492690Y115990D01*
X492723Y116071D01*
X492752Y116153D01*
X492777Y116237D01*
X492798Y116322D01*
X492816Y116407D01*
X492829Y116494D01*
X492839Y116580D01*
X492845Y116668D01*
X492847Y116755D01*
X492847Y120650D01*
X492845Y120737D01*
X492839Y120825D01*
X492829Y120911D01*
X492816Y120998D01*
X492798Y121083D01*
X492777Y121168D01*
X492752Y121252D01*
X492723Y121334D01*
X492690Y121415D01*
X492654Y121495D01*
X492615Y121573D01*
X492571Y121649D01*
X492525Y121723D01*
X492475Y121794D01*
X492422Y121864D01*
X492366Y121931D01*
X492307Y121995D01*
X492245Y122057D01*
X492181Y122116D01*
X492114Y122172D01*
X492044Y122225D01*
X491973Y122275D01*
X491899Y122321D01*
X491823Y122365D01*
X491745Y122404D01*
X491665Y122440D01*
X491584Y122473D01*
X491502Y122502D01*
X491418Y122527D01*
X491333Y122548D01*
X491248Y122566D01*
X491161Y122579D01*
X491075Y122589D01*
X490987Y122595D01*
X490900Y122597D01*
X487654Y122597D01*
X482120Y122597D02*
X482120Y116755D01*
X482118Y116668D01*
X482112Y116580D01*
X482102Y116494D01*
X482089Y116407D01*
X482071Y116322D01*
X482050Y116237D01*
X482025Y116153D01*
X481996Y116071D01*
X481963Y115990D01*
X481927Y115910D01*
X481888Y115832D01*
X481844Y115756D01*
X481798Y115682D01*
X481748Y115611D01*
X481695Y115541D01*
X481639Y115474D01*
X481580Y115410D01*
X481518Y115348D01*
X481454Y115289D01*
X481387Y115233D01*
X481317Y115180D01*
X481246Y115130D01*
X481172Y115084D01*
X481096Y115040D01*
X481018Y115001D01*
X480938Y114965D01*
X480857Y114932D01*
X480775Y114903D01*
X480691Y114878D01*
X480606Y114857D01*
X480521Y114839D01*
X480434Y114826D01*
X480348Y114816D01*
X480260Y114810D01*
X480173Y114808D01*
X476927Y114808D01*
X476927Y122597D01*
X471684Y126492D02*
X471684Y116755D01*
X471683Y116755D02*
X471681Y116668D01*
X471675Y116580D01*
X471665Y116494D01*
X471652Y116407D01*
X471634Y116322D01*
X471613Y116237D01*
X471588Y116153D01*
X471559Y116071D01*
X471526Y115990D01*
X471490Y115910D01*
X471451Y115832D01*
X471407Y115756D01*
X471361Y115682D01*
X471311Y115611D01*
X471258Y115541D01*
X471202Y115474D01*
X471143Y115410D01*
X471081Y115348D01*
X471017Y115289D01*
X470950Y115233D01*
X470880Y115180D01*
X470809Y115130D01*
X470735Y115084D01*
X470659Y115040D01*
X470581Y115001D01*
X470501Y114965D01*
X470420Y114932D01*
X470338Y114903D01*
X470254Y114878D01*
X470169Y114857D01*
X470084Y114839D01*
X469997Y114826D01*
X469911Y114816D01*
X469823Y114810D01*
X469736Y114808D01*
X463790Y114808D02*
X460544Y114808D01*
X463790Y114808D02*
X463877Y114810D01*
X463965Y114816D01*
X464051Y114826D01*
X464138Y114839D01*
X464223Y114857D01*
X464308Y114878D01*
X464392Y114903D01*
X464474Y114932D01*
X464555Y114965D01*
X464635Y115001D01*
X464713Y115040D01*
X464789Y115084D01*
X464863Y115130D01*
X464934Y115180D01*
X465004Y115233D01*
X465071Y115289D01*
X465135Y115348D01*
X465197Y115410D01*
X465256Y115474D01*
X465312Y115541D01*
X465365Y115611D01*
X465415Y115682D01*
X465461Y115756D01*
X465505Y115832D01*
X465544Y115910D01*
X465580Y115990D01*
X465613Y116071D01*
X465642Y116153D01*
X465667Y116237D01*
X465688Y116322D01*
X465706Y116407D01*
X465719Y116494D01*
X465729Y116580D01*
X465735Y116668D01*
X465737Y116755D01*
X465737Y120001D01*
X465735Y120102D01*
X465729Y120202D01*
X465719Y120302D01*
X465706Y120402D01*
X465688Y120501D01*
X465667Y120600D01*
X465642Y120697D01*
X465613Y120794D01*
X465580Y120889D01*
X465544Y120983D01*
X465504Y121075D01*
X465461Y121166D01*
X465414Y121255D01*
X465364Y121342D01*
X465310Y121428D01*
X465253Y121511D01*
X465193Y121591D01*
X465130Y121670D01*
X465063Y121746D01*
X464994Y121819D01*
X464922Y121889D01*
X464848Y121957D01*
X464771Y122022D01*
X464691Y122083D01*
X464609Y122142D01*
X464525Y122197D01*
X464439Y122249D01*
X464351Y122298D01*
X464261Y122343D01*
X464169Y122385D01*
X464076Y122423D01*
X463981Y122457D01*
X463886Y122488D01*
X463789Y122515D01*
X463691Y122538D01*
X463592Y122558D01*
X463492Y122573D01*
X463392Y122585D01*
X463292Y122593D01*
X463191Y122597D01*
X463091Y122597D01*
X462990Y122593D01*
X462890Y122585D01*
X462790Y122573D01*
X462690Y122558D01*
X462591Y122538D01*
X462493Y122515D01*
X462396Y122488D01*
X462301Y122457D01*
X462206Y122423D01*
X462113Y122385D01*
X462021Y122343D01*
X461931Y122298D01*
X461843Y122249D01*
X461757Y122197D01*
X461673Y122142D01*
X461591Y122083D01*
X461511Y122022D01*
X461434Y121957D01*
X461360Y121889D01*
X461288Y121819D01*
X461219Y121746D01*
X461152Y121670D01*
X461089Y121591D01*
X461029Y121511D01*
X460972Y121428D01*
X460918Y121342D01*
X460868Y121255D01*
X460821Y121166D01*
X460778Y121075D01*
X460738Y120983D01*
X460702Y120889D01*
X460669Y120794D01*
X460640Y120697D01*
X460615Y120600D01*
X460594Y120501D01*
X460576Y120402D01*
X460563Y120302D01*
X460553Y120202D01*
X460547Y120102D01*
X460545Y120001D01*
X460544Y120001D02*
X460544Y118703D01*
X465737Y118703D01*
X455606Y119352D02*
X447816Y119352D01*
X442214Y114808D02*
X442214Y126492D01*
X438969Y126492D01*
X438856Y126490D01*
X438743Y126484D01*
X438630Y126474D01*
X438517Y126460D01*
X438405Y126443D01*
X438294Y126421D01*
X438184Y126396D01*
X438074Y126366D01*
X437966Y126333D01*
X437859Y126296D01*
X437753Y126256D01*
X437649Y126211D01*
X437546Y126163D01*
X437445Y126112D01*
X437346Y126057D01*
X437249Y125999D01*
X437154Y125937D01*
X437061Y125872D01*
X436971Y125804D01*
X436883Y125733D01*
X436797Y125658D01*
X436714Y125581D01*
X436634Y125501D01*
X436557Y125418D01*
X436482Y125332D01*
X436411Y125244D01*
X436343Y125154D01*
X436278Y125061D01*
X436216Y124966D01*
X436158Y124869D01*
X436103Y124770D01*
X436052Y124669D01*
X436004Y124566D01*
X435959Y124462D01*
X435919Y124356D01*
X435882Y124249D01*
X435849Y124141D01*
X435819Y124031D01*
X435794Y123921D01*
X435772Y123810D01*
X435755Y123698D01*
X435741Y123585D01*
X435731Y123472D01*
X435725Y123359D01*
X435723Y123246D01*
X435725Y123133D01*
X435731Y123020D01*
X435741Y122907D01*
X435755Y122794D01*
X435772Y122682D01*
X435794Y122571D01*
X435819Y122461D01*
X435849Y122351D01*
X435882Y122243D01*
X435919Y122136D01*
X435959Y122030D01*
X436004Y121926D01*
X436052Y121823D01*
X436103Y121722D01*
X436158Y121623D01*
X436216Y121526D01*
X436278Y121431D01*
X436343Y121338D01*
X436411Y121248D01*
X436482Y121160D01*
X436557Y121074D01*
X436634Y120991D01*
X436714Y120911D01*
X436797Y120834D01*
X436883Y120759D01*
X436971Y120688D01*
X437061Y120620D01*
X437154Y120555D01*
X437249Y120493D01*
X437346Y120435D01*
X437445Y120380D01*
X437546Y120329D01*
X437649Y120281D01*
X437753Y120236D01*
X437859Y120196D01*
X437966Y120159D01*
X438074Y120126D01*
X438184Y120096D01*
X438294Y120071D01*
X438405Y120049D01*
X438517Y120032D01*
X438630Y120018D01*
X438743Y120008D01*
X438856Y120002D01*
X438969Y120000D01*
X438969Y120001D02*
X442214Y120001D01*
X427821Y114808D02*
X427722Y114810D01*
X427622Y114816D01*
X427523Y114825D01*
X427425Y114838D01*
X427327Y114855D01*
X427229Y114876D01*
X427133Y114901D01*
X427038Y114929D01*
X426944Y114961D01*
X426851Y114996D01*
X426759Y115035D01*
X426669Y115078D01*
X426581Y115123D01*
X426494Y115173D01*
X426410Y115225D01*
X426327Y115281D01*
X426247Y115339D01*
X426169Y115401D01*
X426094Y115466D01*
X426021Y115534D01*
X425951Y115604D01*
X425883Y115677D01*
X425818Y115752D01*
X425756Y115830D01*
X425698Y115910D01*
X425642Y115993D01*
X425590Y116077D01*
X425540Y116164D01*
X425495Y116252D01*
X425452Y116342D01*
X425413Y116434D01*
X425378Y116527D01*
X425346Y116621D01*
X425318Y116716D01*
X425293Y116812D01*
X425272Y116910D01*
X425255Y117008D01*
X425242Y117106D01*
X425233Y117205D01*
X425227Y117305D01*
X425225Y117404D01*
X427821Y114808D02*
X427965Y114810D01*
X428110Y114816D01*
X428254Y114825D01*
X428397Y114838D01*
X428541Y114855D01*
X428684Y114876D01*
X428826Y114901D01*
X428967Y114929D01*
X429108Y114961D01*
X429248Y114997D01*
X429387Y115036D01*
X429525Y115079D01*
X429661Y115126D01*
X429797Y115176D01*
X429931Y115230D01*
X430063Y115287D01*
X430194Y115348D01*
X430323Y115412D01*
X430451Y115480D01*
X430577Y115551D01*
X430701Y115625D01*
X430822Y115702D01*
X430942Y115783D01*
X431060Y115866D01*
X431175Y115953D01*
X431288Y116043D01*
X431399Y116136D01*
X431507Y116231D01*
X431613Y116330D01*
X431716Y116431D01*
X431391Y123896D02*
X431389Y123995D01*
X431383Y124095D01*
X431374Y124194D01*
X431361Y124292D01*
X431344Y124390D01*
X431323Y124488D01*
X431298Y124584D01*
X431270Y124679D01*
X431238Y124773D01*
X431203Y124866D01*
X431164Y124958D01*
X431121Y125048D01*
X431076Y125136D01*
X431026Y125223D01*
X430974Y125307D01*
X430918Y125390D01*
X430860Y125470D01*
X430798Y125548D01*
X430733Y125623D01*
X430665Y125696D01*
X430595Y125766D01*
X430522Y125834D01*
X430447Y125899D01*
X430369Y125961D01*
X430289Y126019D01*
X430206Y126075D01*
X430122Y126127D01*
X430035Y126177D01*
X429947Y126222D01*
X429857Y126265D01*
X429765Y126304D01*
X429672Y126339D01*
X429578Y126371D01*
X429483Y126399D01*
X429387Y126424D01*
X429289Y126445D01*
X429191Y126462D01*
X429093Y126475D01*
X428994Y126484D01*
X428894Y126490D01*
X428795Y126492D01*
X428659Y126490D01*
X428523Y126484D01*
X428387Y126475D01*
X428251Y126462D01*
X428116Y126444D01*
X427982Y126424D01*
X427848Y126399D01*
X427714Y126371D01*
X427582Y126338D01*
X427451Y126303D01*
X427320Y126263D01*
X427191Y126220D01*
X427063Y126174D01*
X426937Y126123D01*
X426811Y126070D01*
X426688Y126012D01*
X426566Y125952D01*
X426446Y125888D01*
X426327Y125820D01*
X426211Y125750D01*
X426097Y125676D01*
X425984Y125599D01*
X425874Y125518D01*
X430093Y121624D02*
X430179Y121677D01*
X430263Y121734D01*
X430345Y121793D01*
X430425Y121856D01*
X430502Y121922D01*
X430577Y121990D01*
X430649Y122062D01*
X430718Y122136D01*
X430784Y122213D01*
X430847Y122292D01*
X430907Y122374D01*
X430964Y122458D01*
X431018Y122544D01*
X431068Y122632D01*
X431115Y122722D01*
X431159Y122813D01*
X431198Y122907D01*
X431235Y123001D01*
X431267Y123097D01*
X431296Y123195D01*
X431321Y123293D01*
X431342Y123392D01*
X431360Y123492D01*
X431373Y123592D01*
X431383Y123693D01*
X431389Y123795D01*
X431391Y123896D01*
X426522Y119676D02*
X426436Y119623D01*
X426352Y119566D01*
X426270Y119507D01*
X426190Y119444D01*
X426113Y119378D01*
X426038Y119310D01*
X425966Y119238D01*
X425897Y119164D01*
X425831Y119087D01*
X425768Y119008D01*
X425708Y118926D01*
X425651Y118842D01*
X425597Y118756D01*
X425547Y118668D01*
X425500Y118578D01*
X425456Y118487D01*
X425417Y118393D01*
X425380Y118299D01*
X425348Y118203D01*
X425319Y118105D01*
X425294Y118007D01*
X425273Y117908D01*
X425255Y117808D01*
X425242Y117708D01*
X425232Y117607D01*
X425226Y117505D01*
X425224Y117404D01*
X426523Y119676D02*
X430093Y121624D01*
X421160Y113510D02*
X415968Y113510D01*
X409420Y114808D02*
X412016Y122597D01*
X406824Y122597D02*
X409420Y114808D01*
X402887Y114808D02*
X402887Y115457D01*
X402237Y115457D01*
X402237Y114808D01*
X402887Y114808D01*
X391315Y123571D02*
X391317Y123678D01*
X391323Y123784D01*
X391333Y123890D01*
X391346Y123996D01*
X391364Y124102D01*
X391385Y124206D01*
X391410Y124310D01*
X391439Y124413D01*
X391471Y124514D01*
X391508Y124614D01*
X391548Y124713D01*
X391591Y124811D01*
X391638Y124907D01*
X391689Y125001D01*
X391743Y125093D01*
X391800Y125183D01*
X391860Y125271D01*
X391924Y125356D01*
X391991Y125439D01*
X392061Y125520D01*
X392133Y125598D01*
X392209Y125674D01*
X392287Y125746D01*
X392368Y125816D01*
X392451Y125883D01*
X392536Y125947D01*
X392624Y126007D01*
X392714Y126064D01*
X392806Y126118D01*
X392900Y126169D01*
X392996Y126216D01*
X393094Y126259D01*
X393193Y126299D01*
X393293Y126336D01*
X393394Y126368D01*
X393497Y126397D01*
X393601Y126422D01*
X393705Y126443D01*
X393811Y126461D01*
X393917Y126474D01*
X394023Y126484D01*
X394129Y126490D01*
X394236Y126492D01*
X394357Y126490D01*
X394478Y126484D01*
X394598Y126474D01*
X394719Y126461D01*
X394838Y126443D01*
X394958Y126422D01*
X395076Y126397D01*
X395193Y126368D01*
X395310Y126335D01*
X395425Y126299D01*
X395539Y126258D01*
X395652Y126215D01*
X395764Y126167D01*
X395873Y126116D01*
X395981Y126061D01*
X396088Y126003D01*
X396192Y125942D01*
X396294Y125877D01*
X396394Y125809D01*
X396492Y125738D01*
X396588Y125664D01*
X396681Y125587D01*
X396771Y125506D01*
X396859Y125423D01*
X396944Y125337D01*
X397027Y125248D01*
X397106Y125157D01*
X397183Y125063D01*
X397256Y124967D01*
X397326Y124869D01*
X397393Y124768D01*
X397457Y124665D01*
X397518Y124560D01*
X397575Y124453D01*
X397628Y124345D01*
X397678Y124235D01*
X397724Y124123D01*
X397767Y124010D01*
X397806Y123895D01*
X392290Y121299D02*
X392211Y121377D01*
X392135Y121457D01*
X392062Y121540D01*
X391992Y121626D01*
X391925Y121713D01*
X391861Y121804D01*
X391801Y121896D01*
X391743Y121990D01*
X391689Y122087D01*
X391639Y122185D01*
X391592Y122285D01*
X391548Y122386D01*
X391508Y122489D01*
X391472Y122594D01*
X391440Y122699D01*
X391411Y122806D01*
X391386Y122913D01*
X391364Y123022D01*
X391347Y123131D01*
X391333Y123240D01*
X391324Y123350D01*
X391318Y123461D01*
X391316Y123571D01*
X392289Y121299D02*
X397807Y114808D01*
X391315Y114808D01*
X386377Y120650D02*
X386374Y120880D01*
X386366Y121110D01*
X386352Y121339D01*
X386333Y121568D01*
X386308Y121797D01*
X386278Y122025D01*
X386243Y122252D01*
X386202Y122478D01*
X386156Y122703D01*
X386104Y122927D01*
X386047Y123150D01*
X385985Y123371D01*
X385917Y123591D01*
X385844Y123809D01*
X385766Y124025D01*
X385683Y124239D01*
X385595Y124452D01*
X385502Y124662D01*
X385403Y124869D01*
X385370Y124959D01*
X385334Y125048D01*
X385294Y125136D01*
X385250Y125221D01*
X385203Y125305D01*
X385153Y125387D01*
X385099Y125467D01*
X385043Y125544D01*
X384983Y125620D01*
X384920Y125693D01*
X384855Y125763D01*
X384786Y125831D01*
X384715Y125895D01*
X384642Y125957D01*
X384566Y126016D01*
X384488Y126072D01*
X384407Y126125D01*
X384325Y126174D01*
X384241Y126220D01*
X384154Y126263D01*
X384067Y126302D01*
X383977Y126338D01*
X383887Y126370D01*
X383795Y126398D01*
X383702Y126423D01*
X383608Y126444D01*
X383514Y126461D01*
X383419Y126475D01*
X383323Y126484D01*
X383227Y126490D01*
X383131Y126492D01*
X383035Y126490D01*
X382939Y126484D01*
X382843Y126475D01*
X382748Y126461D01*
X382654Y126444D01*
X382560Y126423D01*
X382467Y126398D01*
X382375Y126370D01*
X382285Y126338D01*
X382195Y126302D01*
X382108Y126263D01*
X382021Y126220D01*
X381937Y126174D01*
X381855Y126125D01*
X381774Y126072D01*
X381696Y126016D01*
X381620Y125957D01*
X381547Y125895D01*
X381476Y125831D01*
X381407Y125763D01*
X381342Y125693D01*
X381279Y125620D01*
X381219Y125545D01*
X381163Y125467D01*
X381109Y125387D01*
X381059Y125305D01*
X381012Y125221D01*
X380969Y125136D01*
X380928Y125048D01*
X380892Y124959D01*
X380859Y124869D01*
X380860Y124869D02*
X380761Y124661D01*
X380668Y124451D01*
X380580Y124239D01*
X380497Y124025D01*
X380419Y123808D01*
X380346Y123590D01*
X380278Y123371D01*
X380216Y123149D01*
X380159Y122927D01*
X380107Y122703D01*
X380061Y122478D01*
X380020Y122252D01*
X379985Y122024D01*
X379955Y121797D01*
X379930Y121568D01*
X379911Y121339D01*
X379897Y121110D01*
X379889Y120880D01*
X379886Y120650D01*
X386377Y120650D02*
X386374Y120420D01*
X386366Y120190D01*
X386352Y119961D01*
X386333Y119732D01*
X386308Y119503D01*
X386278Y119275D01*
X386243Y119048D01*
X386202Y118822D01*
X386156Y118597D01*
X386104Y118373D01*
X386047Y118150D01*
X385985Y117929D01*
X385917Y117709D01*
X385844Y117491D01*
X385766Y117275D01*
X385683Y117061D01*
X385595Y116849D01*
X385502Y116638D01*
X385403Y116431D01*
X385370Y116341D01*
X385334Y116252D01*
X385293Y116164D01*
X385250Y116079D01*
X385203Y115995D01*
X385153Y115913D01*
X385099Y115833D01*
X385043Y115756D01*
X384983Y115680D01*
X384920Y115607D01*
X384855Y115537D01*
X384786Y115469D01*
X384715Y115405D01*
X384642Y115343D01*
X384566Y115284D01*
X384488Y115228D01*
X384407Y115175D01*
X384325Y115126D01*
X384241Y115080D01*
X384154Y115037D01*
X384067Y114998D01*
X383977Y114962D01*
X383887Y114930D01*
X383795Y114902D01*
X383702Y114877D01*
X383608Y114856D01*
X383514Y114839D01*
X383419Y114825D01*
X383323Y114816D01*
X383227Y114810D01*
X383131Y114808D01*
X380859Y116431D02*
X380760Y116638D01*
X380667Y116849D01*
X380579Y117061D01*
X380496Y117275D01*
X380418Y117491D01*
X380345Y117709D01*
X380277Y117929D01*
X380215Y118150D01*
X380158Y118373D01*
X380106Y118597D01*
X380060Y118822D01*
X380019Y119048D01*
X379984Y119275D01*
X379954Y119503D01*
X379929Y119732D01*
X379910Y119961D01*
X379896Y120190D01*
X379888Y120420D01*
X379885Y120650D01*
X380859Y116431D02*
X380892Y116341D01*
X380928Y116252D01*
X380969Y116164D01*
X381012Y116079D01*
X381059Y115995D01*
X381109Y115913D01*
X381163Y115833D01*
X381219Y115755D01*
X381279Y115680D01*
X381342Y115607D01*
X381407Y115537D01*
X381476Y115469D01*
X381547Y115405D01*
X381620Y115343D01*
X381696Y115284D01*
X381774Y115228D01*
X381855Y115175D01*
X381937Y115126D01*
X382021Y115080D01*
X382108Y115037D01*
X382195Y114998D01*
X382285Y114962D01*
X382375Y114930D01*
X382467Y114902D01*
X382560Y114877D01*
X382654Y114856D01*
X382748Y114839D01*
X382843Y114825D01*
X382939Y114816D01*
X383035Y114810D01*
X383131Y114808D01*
X385728Y117404D02*
X380535Y123896D01*
X374947Y123896D02*
X371701Y126492D01*
X371701Y114808D01*
X368456Y114808D02*
X374947Y114808D01*
X360920Y120001D02*
X357026Y120001D01*
X360920Y120001D02*
X361019Y120003D01*
X361119Y120009D01*
X361218Y120018D01*
X361316Y120031D01*
X361414Y120048D01*
X361512Y120069D01*
X361608Y120094D01*
X361703Y120122D01*
X361797Y120154D01*
X361890Y120189D01*
X361982Y120228D01*
X362072Y120271D01*
X362160Y120316D01*
X362247Y120366D01*
X362331Y120418D01*
X362414Y120474D01*
X362494Y120532D01*
X362572Y120594D01*
X362647Y120659D01*
X362720Y120727D01*
X362790Y120797D01*
X362858Y120870D01*
X362923Y120945D01*
X362985Y121023D01*
X363043Y121103D01*
X363099Y121186D01*
X363151Y121270D01*
X363201Y121357D01*
X363246Y121445D01*
X363289Y121535D01*
X363328Y121627D01*
X363363Y121720D01*
X363395Y121814D01*
X363423Y121909D01*
X363448Y122005D01*
X363469Y122103D01*
X363486Y122201D01*
X363499Y122299D01*
X363508Y122398D01*
X363514Y122498D01*
X363516Y122597D01*
X363517Y122597D02*
X363517Y123246D01*
X363515Y123359D01*
X363509Y123472D01*
X363499Y123585D01*
X363485Y123698D01*
X363468Y123810D01*
X363446Y123921D01*
X363421Y124031D01*
X363391Y124141D01*
X363358Y124249D01*
X363321Y124356D01*
X363281Y124462D01*
X363236Y124566D01*
X363188Y124669D01*
X363137Y124770D01*
X363082Y124869D01*
X363024Y124966D01*
X362962Y125061D01*
X362897Y125154D01*
X362829Y125244D01*
X362758Y125332D01*
X362683Y125418D01*
X362606Y125501D01*
X362526Y125581D01*
X362443Y125658D01*
X362357Y125733D01*
X362269Y125804D01*
X362179Y125872D01*
X362086Y125937D01*
X361991Y125999D01*
X361894Y126057D01*
X361795Y126112D01*
X361694Y126163D01*
X361591Y126211D01*
X361487Y126256D01*
X361381Y126296D01*
X361274Y126333D01*
X361166Y126366D01*
X361056Y126396D01*
X360946Y126421D01*
X360835Y126443D01*
X360723Y126460D01*
X360610Y126474D01*
X360497Y126484D01*
X360384Y126490D01*
X360271Y126492D01*
X360158Y126490D01*
X360045Y126484D01*
X359932Y126474D01*
X359819Y126460D01*
X359707Y126443D01*
X359596Y126421D01*
X359486Y126396D01*
X359376Y126366D01*
X359268Y126333D01*
X359161Y126296D01*
X359055Y126256D01*
X358951Y126211D01*
X358848Y126163D01*
X358747Y126112D01*
X358648Y126057D01*
X358551Y125999D01*
X358456Y125937D01*
X358363Y125872D01*
X358273Y125804D01*
X358185Y125733D01*
X358099Y125658D01*
X358016Y125581D01*
X357936Y125501D01*
X357859Y125418D01*
X357784Y125332D01*
X357713Y125244D01*
X357645Y125154D01*
X357580Y125061D01*
X357518Y124966D01*
X357460Y124869D01*
X357405Y124770D01*
X357354Y124669D01*
X357306Y124566D01*
X357261Y124462D01*
X357221Y124356D01*
X357184Y124249D01*
X357151Y124141D01*
X357121Y124031D01*
X357096Y123921D01*
X357074Y123810D01*
X357057Y123698D01*
X357043Y123585D01*
X357033Y123472D01*
X357027Y123359D01*
X357025Y123246D01*
X357026Y123246D02*
X357026Y120001D01*
X357025Y120001D02*
X357027Y119858D01*
X357033Y119715D01*
X357043Y119572D01*
X357057Y119430D01*
X357074Y119288D01*
X357096Y119146D01*
X357121Y119005D01*
X357151Y118865D01*
X357184Y118726D01*
X357221Y118588D01*
X357262Y118451D01*
X357306Y118315D01*
X357355Y118180D01*
X357407Y118047D01*
X357462Y117915D01*
X357522Y117785D01*
X357585Y117656D01*
X357651Y117529D01*
X357721Y117405D01*
X357794Y117282D01*
X357871Y117161D01*
X357951Y117042D01*
X358034Y116926D01*
X358120Y116811D01*
X358209Y116700D01*
X358302Y116590D01*
X358397Y116484D01*
X358496Y116380D01*
X358597Y116279D01*
X358701Y116180D01*
X358807Y116085D01*
X358917Y115992D01*
X359028Y115903D01*
X359143Y115817D01*
X359259Y115734D01*
X359378Y115654D01*
X359499Y115577D01*
X359621Y115504D01*
X359746Y115434D01*
X359873Y115368D01*
X360002Y115305D01*
X360132Y115245D01*
X360264Y115190D01*
X360397Y115138D01*
X360532Y115089D01*
X360668Y115045D01*
X360805Y115004D01*
X360943Y114967D01*
X361082Y114934D01*
X361222Y114904D01*
X361363Y114879D01*
X361505Y114857D01*
X361647Y114840D01*
X361789Y114826D01*
X361932Y114816D01*
X362075Y114810D01*
X362218Y114808D01*
X352087Y120650D02*
X352084Y120880D01*
X352076Y121110D01*
X352062Y121339D01*
X352043Y121568D01*
X352018Y121797D01*
X351988Y122025D01*
X351953Y122252D01*
X351912Y122478D01*
X351866Y122703D01*
X351814Y122927D01*
X351757Y123150D01*
X351695Y123371D01*
X351627Y123591D01*
X351554Y123809D01*
X351476Y124025D01*
X351393Y124239D01*
X351305Y124452D01*
X351212Y124662D01*
X351113Y124869D01*
X351080Y124959D01*
X351044Y125048D01*
X351004Y125136D01*
X350960Y125221D01*
X350913Y125305D01*
X350863Y125387D01*
X350809Y125467D01*
X350753Y125544D01*
X350693Y125620D01*
X350630Y125693D01*
X350565Y125763D01*
X350496Y125831D01*
X350425Y125895D01*
X350352Y125957D01*
X350276Y126016D01*
X350198Y126072D01*
X350117Y126125D01*
X350035Y126174D01*
X349951Y126220D01*
X349864Y126263D01*
X349777Y126302D01*
X349687Y126338D01*
X349597Y126370D01*
X349505Y126398D01*
X349412Y126423D01*
X349318Y126444D01*
X349224Y126461D01*
X349129Y126475D01*
X349033Y126484D01*
X348937Y126490D01*
X348841Y126492D01*
X348745Y126490D01*
X348649Y126484D01*
X348553Y126475D01*
X348458Y126461D01*
X348364Y126444D01*
X348270Y126423D01*
X348177Y126398D01*
X348085Y126370D01*
X347995Y126338D01*
X347905Y126302D01*
X347818Y126263D01*
X347731Y126220D01*
X347647Y126174D01*
X347565Y126125D01*
X347484Y126072D01*
X347406Y126016D01*
X347330Y125957D01*
X347257Y125895D01*
X347186Y125831D01*
X347117Y125763D01*
X347052Y125693D01*
X346989Y125620D01*
X346929Y125545D01*
X346873Y125467D01*
X346819Y125387D01*
X346769Y125305D01*
X346722Y125221D01*
X346679Y125136D01*
X346638Y125048D01*
X346602Y124959D01*
X346569Y124869D01*
X346570Y124869D02*
X346471Y124661D01*
X346378Y124451D01*
X346290Y124239D01*
X346207Y124025D01*
X346129Y123808D01*
X346056Y123590D01*
X345988Y123371D01*
X345926Y123149D01*
X345869Y122927D01*
X345817Y122703D01*
X345771Y122478D01*
X345730Y122252D01*
X345695Y122024D01*
X345665Y121797D01*
X345640Y121568D01*
X345621Y121339D01*
X345607Y121110D01*
X345599Y120880D01*
X345596Y120650D01*
X352087Y120650D02*
X352084Y120420D01*
X352076Y120190D01*
X352062Y119961D01*
X352043Y119732D01*
X352018Y119503D01*
X351988Y119275D01*
X351953Y119048D01*
X351912Y118822D01*
X351866Y118597D01*
X351814Y118373D01*
X351757Y118150D01*
X351695Y117929D01*
X351627Y117709D01*
X351554Y117491D01*
X351476Y117275D01*
X351393Y117061D01*
X351305Y116849D01*
X351212Y116638D01*
X351113Y116431D01*
X351080Y116341D01*
X351044Y116252D01*
X351003Y116164D01*
X350960Y116079D01*
X350913Y115995D01*
X350863Y115913D01*
X350809Y115833D01*
X350753Y115756D01*
X350693Y115680D01*
X350630Y115607D01*
X350565Y115537D01*
X350496Y115469D01*
X350425Y115405D01*
X350352Y115343D01*
X350276Y115284D01*
X350198Y115228D01*
X350117Y115175D01*
X350035Y115126D01*
X349951Y115080D01*
X349864Y115037D01*
X349777Y114998D01*
X349687Y114962D01*
X349597Y114930D01*
X349505Y114902D01*
X349412Y114877D01*
X349318Y114856D01*
X349224Y114839D01*
X349129Y114825D01*
X349033Y114816D01*
X348937Y114810D01*
X348841Y114808D01*
X346569Y116431D02*
X346470Y116638D01*
X346377Y116849D01*
X346289Y117061D01*
X346206Y117275D01*
X346128Y117491D01*
X346055Y117709D01*
X345987Y117929D01*
X345925Y118150D01*
X345868Y118373D01*
X345816Y118597D01*
X345770Y118822D01*
X345729Y119048D01*
X345694Y119275D01*
X345664Y119503D01*
X345639Y119732D01*
X345620Y119961D01*
X345606Y120190D01*
X345598Y120420D01*
X345595Y120650D01*
X346569Y116431D02*
X346602Y116341D01*
X346638Y116252D01*
X346679Y116164D01*
X346722Y116079D01*
X346769Y115995D01*
X346819Y115913D01*
X346873Y115833D01*
X346929Y115755D01*
X346989Y115680D01*
X347052Y115607D01*
X347117Y115537D01*
X347186Y115469D01*
X347257Y115405D01*
X347330Y115343D01*
X347406Y115284D01*
X347484Y115228D01*
X347565Y115175D01*
X347647Y115126D01*
X347731Y115080D01*
X347818Y115037D01*
X347905Y114998D01*
X347995Y114962D01*
X348085Y114930D01*
X348177Y114902D01*
X348270Y114877D01*
X348364Y114856D01*
X348458Y114839D01*
X348553Y114825D01*
X348649Y114816D01*
X348745Y114810D01*
X348841Y114808D01*
X351438Y117404D02*
X346245Y123896D01*
X340657Y125194D02*
X340657Y126492D01*
X334166Y126492D01*
X337411Y114808D01*
X329227Y120650D02*
X329224Y120880D01*
X329216Y121110D01*
X329202Y121339D01*
X329183Y121568D01*
X329158Y121797D01*
X329128Y122025D01*
X329093Y122252D01*
X329052Y122478D01*
X329006Y122703D01*
X328954Y122927D01*
X328897Y123150D01*
X328835Y123371D01*
X328767Y123591D01*
X328694Y123809D01*
X328616Y124025D01*
X328533Y124239D01*
X328445Y124452D01*
X328352Y124662D01*
X328253Y124869D01*
X328220Y124959D01*
X328184Y125048D01*
X328144Y125136D01*
X328100Y125221D01*
X328053Y125305D01*
X328003Y125387D01*
X327949Y125467D01*
X327893Y125544D01*
X327833Y125620D01*
X327770Y125693D01*
X327705Y125763D01*
X327636Y125831D01*
X327565Y125895D01*
X327492Y125957D01*
X327416Y126016D01*
X327338Y126072D01*
X327257Y126125D01*
X327175Y126174D01*
X327091Y126220D01*
X327004Y126263D01*
X326917Y126302D01*
X326827Y126338D01*
X326737Y126370D01*
X326645Y126398D01*
X326552Y126423D01*
X326458Y126444D01*
X326364Y126461D01*
X326269Y126475D01*
X326173Y126484D01*
X326077Y126490D01*
X325981Y126492D01*
X325885Y126490D01*
X325789Y126484D01*
X325693Y126475D01*
X325598Y126461D01*
X325504Y126444D01*
X325410Y126423D01*
X325317Y126398D01*
X325225Y126370D01*
X325135Y126338D01*
X325045Y126302D01*
X324958Y126263D01*
X324871Y126220D01*
X324787Y126174D01*
X324705Y126125D01*
X324624Y126072D01*
X324546Y126016D01*
X324470Y125957D01*
X324397Y125895D01*
X324326Y125831D01*
X324257Y125763D01*
X324192Y125693D01*
X324129Y125620D01*
X324069Y125545D01*
X324013Y125467D01*
X323959Y125387D01*
X323909Y125305D01*
X323862Y125221D01*
X323819Y125136D01*
X323778Y125048D01*
X323742Y124959D01*
X323709Y124869D01*
X323710Y124869D02*
X323611Y124661D01*
X323518Y124451D01*
X323430Y124239D01*
X323347Y124025D01*
X323269Y123808D01*
X323196Y123590D01*
X323128Y123371D01*
X323066Y123149D01*
X323009Y122927D01*
X322957Y122703D01*
X322911Y122478D01*
X322870Y122252D01*
X322835Y122024D01*
X322805Y121797D01*
X322780Y121568D01*
X322761Y121339D01*
X322747Y121110D01*
X322739Y120880D01*
X322736Y120650D01*
X329227Y120650D02*
X329224Y120420D01*
X329216Y120190D01*
X329202Y119961D01*
X329183Y119732D01*
X329158Y119503D01*
X329128Y119275D01*
X329093Y119048D01*
X329052Y118822D01*
X329006Y118597D01*
X328954Y118373D01*
X328897Y118150D01*
X328835Y117929D01*
X328767Y117709D01*
X328694Y117491D01*
X328616Y117275D01*
X328533Y117061D01*
X328445Y116849D01*
X328352Y116638D01*
X328253Y116431D01*
X328220Y116341D01*
X328184Y116252D01*
X328143Y116164D01*
X328100Y116079D01*
X328053Y115995D01*
X328003Y115913D01*
X327949Y115833D01*
X327893Y115756D01*
X327833Y115680D01*
X327770Y115607D01*
X327705Y115537D01*
X327636Y115469D01*
X327565Y115405D01*
X327492Y115343D01*
X327416Y115284D01*
X327338Y115228D01*
X327257Y115175D01*
X327175Y115126D01*
X327091Y115080D01*
X327004Y115037D01*
X326917Y114998D01*
X326827Y114962D01*
X326737Y114930D01*
X326645Y114902D01*
X326552Y114877D01*
X326458Y114856D01*
X326364Y114839D01*
X326269Y114825D01*
X326173Y114816D01*
X326077Y114810D01*
X325981Y114808D01*
X323709Y116431D02*
X323610Y116638D01*
X323517Y116849D01*
X323429Y117061D01*
X323346Y117275D01*
X323268Y117491D01*
X323195Y117709D01*
X323127Y117929D01*
X323065Y118150D01*
X323008Y118373D01*
X322956Y118597D01*
X322910Y118822D01*
X322869Y119048D01*
X322834Y119275D01*
X322804Y119503D01*
X322779Y119732D01*
X322760Y119961D01*
X322746Y120190D01*
X322738Y120420D01*
X322735Y120650D01*
X323709Y116431D02*
X323742Y116341D01*
X323778Y116252D01*
X323819Y116164D01*
X323862Y116079D01*
X323909Y115995D01*
X323959Y115913D01*
X324013Y115833D01*
X324069Y115755D01*
X324129Y115680D01*
X324192Y115607D01*
X324257Y115537D01*
X324326Y115469D01*
X324397Y115405D01*
X324470Y115343D01*
X324546Y115284D01*
X324624Y115228D01*
X324705Y115175D01*
X324787Y115126D01*
X324871Y115080D01*
X324958Y115037D01*
X325045Y114998D01*
X325135Y114962D01*
X325225Y114930D01*
X325317Y114902D01*
X325410Y114877D01*
X325504Y114856D01*
X325598Y114839D01*
X325693Y114825D01*
X325789Y114816D01*
X325885Y114810D01*
X325981Y114808D01*
X328578Y117404D02*
X323385Y123896D01*
X317797Y118054D02*
X317795Y118167D01*
X317789Y118280D01*
X317779Y118393D01*
X317765Y118506D01*
X317748Y118618D01*
X317726Y118729D01*
X317701Y118839D01*
X317671Y118949D01*
X317638Y119057D01*
X317601Y119164D01*
X317561Y119270D01*
X317516Y119374D01*
X317468Y119477D01*
X317417Y119578D01*
X317362Y119677D01*
X317304Y119774D01*
X317242Y119869D01*
X317177Y119962D01*
X317109Y120052D01*
X317038Y120140D01*
X316963Y120226D01*
X316886Y120309D01*
X316806Y120389D01*
X316723Y120466D01*
X316637Y120541D01*
X316549Y120612D01*
X316459Y120680D01*
X316366Y120745D01*
X316271Y120807D01*
X316174Y120865D01*
X316075Y120920D01*
X315974Y120971D01*
X315871Y121019D01*
X315767Y121064D01*
X315661Y121104D01*
X315554Y121141D01*
X315446Y121174D01*
X315336Y121204D01*
X315226Y121229D01*
X315115Y121251D01*
X315003Y121268D01*
X314890Y121282D01*
X314777Y121292D01*
X314664Y121298D01*
X314551Y121300D01*
X314438Y121298D01*
X314325Y121292D01*
X314212Y121282D01*
X314099Y121268D01*
X313987Y121251D01*
X313876Y121229D01*
X313766Y121204D01*
X313656Y121174D01*
X313548Y121141D01*
X313441Y121104D01*
X313335Y121064D01*
X313231Y121019D01*
X313128Y120971D01*
X313027Y120920D01*
X312928Y120865D01*
X312831Y120807D01*
X312736Y120745D01*
X312643Y120680D01*
X312553Y120612D01*
X312465Y120541D01*
X312379Y120466D01*
X312296Y120389D01*
X312216Y120309D01*
X312139Y120226D01*
X312064Y120140D01*
X311993Y120052D01*
X311925Y119962D01*
X311860Y119869D01*
X311798Y119774D01*
X311740Y119677D01*
X311685Y119578D01*
X311634Y119477D01*
X311586Y119374D01*
X311541Y119270D01*
X311501Y119164D01*
X311464Y119057D01*
X311431Y118949D01*
X311401Y118839D01*
X311376Y118729D01*
X311354Y118618D01*
X311337Y118506D01*
X311323Y118393D01*
X311313Y118280D01*
X311307Y118167D01*
X311305Y118054D01*
X311307Y117941D01*
X311313Y117828D01*
X311323Y117715D01*
X311337Y117602D01*
X311354Y117490D01*
X311376Y117379D01*
X311401Y117269D01*
X311431Y117159D01*
X311464Y117051D01*
X311501Y116944D01*
X311541Y116838D01*
X311586Y116734D01*
X311634Y116631D01*
X311685Y116530D01*
X311740Y116431D01*
X311798Y116334D01*
X311860Y116239D01*
X311925Y116146D01*
X311993Y116056D01*
X312064Y115968D01*
X312139Y115882D01*
X312216Y115799D01*
X312296Y115719D01*
X312379Y115642D01*
X312465Y115567D01*
X312553Y115496D01*
X312643Y115428D01*
X312736Y115363D01*
X312831Y115301D01*
X312928Y115243D01*
X313027Y115188D01*
X313128Y115137D01*
X313231Y115089D01*
X313335Y115044D01*
X313441Y115004D01*
X313548Y114967D01*
X313656Y114934D01*
X313766Y114904D01*
X313876Y114879D01*
X313987Y114857D01*
X314099Y114840D01*
X314212Y114826D01*
X314325Y114816D01*
X314438Y114810D01*
X314551Y114808D01*
X314664Y114810D01*
X314777Y114816D01*
X314890Y114826D01*
X315003Y114840D01*
X315115Y114857D01*
X315226Y114879D01*
X315336Y114904D01*
X315446Y114934D01*
X315554Y114967D01*
X315661Y115004D01*
X315767Y115044D01*
X315871Y115089D01*
X315974Y115137D01*
X316075Y115188D01*
X316174Y115243D01*
X316271Y115301D01*
X316366Y115363D01*
X316459Y115428D01*
X316549Y115496D01*
X316637Y115567D01*
X316723Y115642D01*
X316806Y115719D01*
X316886Y115799D01*
X316963Y115882D01*
X317038Y115968D01*
X317109Y116056D01*
X317177Y116146D01*
X317242Y116239D01*
X317304Y116334D01*
X317362Y116431D01*
X317417Y116530D01*
X317468Y116631D01*
X317516Y116734D01*
X317561Y116838D01*
X317601Y116944D01*
X317638Y117051D01*
X317671Y117159D01*
X317701Y117269D01*
X317726Y117379D01*
X317748Y117490D01*
X317765Y117602D01*
X317779Y117715D01*
X317789Y117828D01*
X317795Y117941D01*
X317797Y118054D01*
X317147Y123896D02*
X317145Y123997D01*
X317139Y124097D01*
X317129Y124197D01*
X317116Y124297D01*
X317098Y124396D01*
X317077Y124495D01*
X317052Y124592D01*
X317023Y124689D01*
X316990Y124784D01*
X316954Y124878D01*
X316914Y124970D01*
X316871Y125061D01*
X316824Y125150D01*
X316774Y125237D01*
X316720Y125323D01*
X316663Y125406D01*
X316603Y125486D01*
X316540Y125565D01*
X316473Y125641D01*
X316404Y125714D01*
X316332Y125784D01*
X316258Y125852D01*
X316181Y125917D01*
X316101Y125978D01*
X316019Y126037D01*
X315935Y126092D01*
X315849Y126144D01*
X315761Y126193D01*
X315671Y126238D01*
X315579Y126280D01*
X315486Y126318D01*
X315391Y126352D01*
X315296Y126383D01*
X315199Y126410D01*
X315101Y126433D01*
X315002Y126453D01*
X314902Y126468D01*
X314802Y126480D01*
X314702Y126488D01*
X314601Y126492D01*
X314501Y126492D01*
X314400Y126488D01*
X314300Y126480D01*
X314200Y126468D01*
X314100Y126453D01*
X314001Y126433D01*
X313903Y126410D01*
X313806Y126383D01*
X313711Y126352D01*
X313616Y126318D01*
X313523Y126280D01*
X313431Y126238D01*
X313341Y126193D01*
X313253Y126144D01*
X313167Y126092D01*
X313083Y126037D01*
X313001Y125978D01*
X312921Y125917D01*
X312844Y125852D01*
X312770Y125784D01*
X312698Y125714D01*
X312629Y125641D01*
X312562Y125565D01*
X312499Y125486D01*
X312439Y125406D01*
X312382Y125323D01*
X312328Y125237D01*
X312278Y125150D01*
X312231Y125061D01*
X312188Y124970D01*
X312148Y124878D01*
X312112Y124784D01*
X312079Y124689D01*
X312050Y124592D01*
X312025Y124495D01*
X312004Y124396D01*
X311986Y124297D01*
X311973Y124197D01*
X311963Y124097D01*
X311957Y123997D01*
X311955Y123896D01*
X311957Y123795D01*
X311963Y123695D01*
X311973Y123595D01*
X311986Y123495D01*
X312004Y123396D01*
X312025Y123297D01*
X312050Y123200D01*
X312079Y123103D01*
X312112Y123008D01*
X312148Y122914D01*
X312188Y122822D01*
X312231Y122731D01*
X312278Y122642D01*
X312328Y122555D01*
X312382Y122469D01*
X312439Y122386D01*
X312499Y122306D01*
X312562Y122227D01*
X312629Y122151D01*
X312698Y122078D01*
X312770Y122008D01*
X312844Y121940D01*
X312921Y121875D01*
X313001Y121814D01*
X313083Y121755D01*
X313167Y121700D01*
X313253Y121648D01*
X313341Y121599D01*
X313431Y121554D01*
X313523Y121512D01*
X313616Y121474D01*
X313711Y121440D01*
X313806Y121409D01*
X313903Y121382D01*
X314001Y121359D01*
X314100Y121339D01*
X314200Y121324D01*
X314300Y121312D01*
X314400Y121304D01*
X314501Y121300D01*
X314601Y121300D01*
X314702Y121304D01*
X314802Y121312D01*
X314902Y121324D01*
X315002Y121339D01*
X315101Y121359D01*
X315199Y121382D01*
X315296Y121409D01*
X315391Y121440D01*
X315486Y121474D01*
X315579Y121512D01*
X315671Y121554D01*
X315761Y121599D01*
X315849Y121648D01*
X315935Y121700D01*
X316019Y121755D01*
X316101Y121814D01*
X316181Y121875D01*
X316258Y121940D01*
X316332Y122008D01*
X316404Y122078D01*
X316473Y122151D01*
X316540Y122227D01*
X316603Y122306D01*
X316663Y122386D01*
X316720Y122469D01*
X316774Y122555D01*
X316824Y122642D01*
X316871Y122731D01*
X316914Y122822D01*
X316954Y122914D01*
X316990Y123008D01*
X317023Y123103D01*
X317052Y123200D01*
X317077Y123297D01*
X317098Y123396D01*
X317116Y123495D01*
X317129Y123595D01*
X317139Y123695D01*
X317145Y123795D01*
X317147Y123896D01*
X532892Y292608D02*
X532892Y304292D01*
X532892Y300397D02*
X529646Y300397D01*
X529559Y300395D01*
X529471Y300389D01*
X529385Y300379D01*
X529298Y300366D01*
X529213Y300348D01*
X529128Y300327D01*
X529044Y300302D01*
X528962Y300273D01*
X528881Y300240D01*
X528801Y300204D01*
X528723Y300165D01*
X528647Y300121D01*
X528573Y300075D01*
X528502Y300025D01*
X528432Y299972D01*
X528365Y299916D01*
X528301Y299857D01*
X528239Y299796D01*
X528180Y299731D01*
X528124Y299664D01*
X528071Y299594D01*
X528021Y299523D01*
X527975Y299449D01*
X527932Y299373D01*
X527892Y299295D01*
X527856Y299215D01*
X527823Y299134D01*
X527794Y299052D01*
X527769Y298968D01*
X527748Y298883D01*
X527730Y298798D01*
X527717Y298711D01*
X527707Y298625D01*
X527701Y298537D01*
X527699Y298450D01*
X527699Y292608D01*
X523572Y300397D02*
X519678Y300397D01*
X522274Y304292D02*
X522274Y294555D01*
X522272Y294468D01*
X522266Y294380D01*
X522256Y294294D01*
X522243Y294207D01*
X522225Y294122D01*
X522204Y294037D01*
X522179Y293953D01*
X522150Y293871D01*
X522117Y293790D01*
X522081Y293710D01*
X522042Y293632D01*
X521998Y293556D01*
X521952Y293482D01*
X521902Y293411D01*
X521849Y293341D01*
X521793Y293274D01*
X521734Y293210D01*
X521672Y293148D01*
X521608Y293089D01*
X521541Y293033D01*
X521471Y292980D01*
X521400Y292930D01*
X521326Y292884D01*
X521250Y292840D01*
X521172Y292801D01*
X521092Y292765D01*
X521011Y292732D01*
X520929Y292703D01*
X520845Y292678D01*
X520760Y292657D01*
X520675Y292639D01*
X520588Y292626D01*
X520502Y292616D01*
X520414Y292610D01*
X520327Y292608D01*
X519678Y292608D01*
X516333Y300397D02*
X512439Y300397D01*
X515035Y304292D02*
X515035Y294555D01*
X515033Y294468D01*
X515027Y294380D01*
X515017Y294294D01*
X515004Y294207D01*
X514986Y294122D01*
X514965Y294037D01*
X514940Y293953D01*
X514911Y293871D01*
X514878Y293790D01*
X514842Y293710D01*
X514803Y293632D01*
X514759Y293556D01*
X514713Y293482D01*
X514663Y293411D01*
X514610Y293341D01*
X514554Y293274D01*
X514495Y293210D01*
X514433Y293148D01*
X514369Y293089D01*
X514302Y293033D01*
X514232Y292980D01*
X514161Y292930D01*
X514087Y292884D01*
X514011Y292840D01*
X513933Y292801D01*
X513853Y292765D01*
X513772Y292732D01*
X513690Y292703D01*
X513606Y292678D01*
X513521Y292657D01*
X513436Y292639D01*
X513349Y292626D01*
X513263Y292616D01*
X513175Y292610D01*
X513088Y292608D01*
X512439Y292608D01*
X507687Y288713D02*
X507687Y300397D01*
X504442Y300397D01*
X504355Y300395D01*
X504267Y300389D01*
X504181Y300379D01*
X504094Y300366D01*
X504009Y300348D01*
X503924Y300327D01*
X503840Y300302D01*
X503758Y300273D01*
X503677Y300240D01*
X503597Y300204D01*
X503519Y300165D01*
X503443Y300121D01*
X503369Y300075D01*
X503298Y300025D01*
X503228Y299972D01*
X503161Y299916D01*
X503097Y299857D01*
X503035Y299796D01*
X502976Y299731D01*
X502920Y299664D01*
X502867Y299594D01*
X502817Y299523D01*
X502771Y299449D01*
X502728Y299373D01*
X502688Y299295D01*
X502652Y299215D01*
X502619Y299134D01*
X502590Y299052D01*
X502565Y298968D01*
X502544Y298883D01*
X502526Y298798D01*
X502513Y298711D01*
X502503Y298625D01*
X502497Y298537D01*
X502495Y298450D01*
X502494Y298450D02*
X502494Y294555D01*
X502495Y294555D02*
X502497Y294468D01*
X502503Y294380D01*
X502513Y294294D01*
X502526Y294207D01*
X502544Y294122D01*
X502565Y294037D01*
X502590Y293953D01*
X502619Y293871D01*
X502652Y293790D01*
X502688Y293710D01*
X502727Y293632D01*
X502771Y293556D01*
X502817Y293482D01*
X502867Y293411D01*
X502920Y293341D01*
X502976Y293274D01*
X503035Y293209D01*
X503097Y293148D01*
X503161Y293089D01*
X503228Y293033D01*
X503298Y292980D01*
X503369Y292930D01*
X503443Y292884D01*
X503519Y292840D01*
X503597Y292801D01*
X503677Y292765D01*
X503758Y292732D01*
X503840Y292703D01*
X503924Y292678D01*
X504009Y292657D01*
X504094Y292639D01*
X504181Y292626D01*
X504268Y292616D01*
X504355Y292610D01*
X504442Y292608D01*
X507687Y292608D01*
X497854Y293582D02*
X497854Y294231D01*
X497205Y294231D01*
X497205Y293582D01*
X497854Y293582D01*
X497854Y298775D02*
X497854Y299424D01*
X497205Y299424D01*
X497205Y298775D01*
X497854Y298775D01*
X492887Y291310D02*
X487694Y305590D01*
X478550Y305590D02*
X483743Y291310D01*
X472426Y292608D02*
X474373Y300397D01*
X470479Y297801D02*
X472426Y292608D01*
X468531Y292608D02*
X470479Y297801D01*
X466584Y300397D02*
X468531Y292608D01*
X460234Y292608D02*
X462181Y300397D01*
X458287Y297801D02*
X460234Y292608D01*
X456339Y292608D02*
X458287Y297801D01*
X454392Y300397D02*
X456339Y292608D01*
X448042Y292608D02*
X449989Y300397D01*
X446095Y297801D02*
X448042Y292608D01*
X444147Y292608D02*
X446095Y297801D01*
X442200Y300397D02*
X444147Y292608D01*
X438037Y292608D02*
X438037Y293257D01*
X437388Y293257D01*
X437388Y292608D01*
X438037Y292608D01*
X433451Y288713D02*
X432153Y288713D01*
X428258Y300397D01*
X433451Y300397D02*
X430855Y292608D01*
X423926Y295204D02*
X423926Y297801D01*
X423924Y297902D01*
X423918Y298002D01*
X423908Y298102D01*
X423895Y298202D01*
X423877Y298301D01*
X423856Y298400D01*
X423831Y298497D01*
X423802Y298594D01*
X423769Y298689D01*
X423733Y298783D01*
X423693Y298875D01*
X423650Y298966D01*
X423603Y299055D01*
X423553Y299142D01*
X423499Y299228D01*
X423442Y299311D01*
X423382Y299391D01*
X423319Y299470D01*
X423252Y299546D01*
X423183Y299619D01*
X423111Y299689D01*
X423037Y299757D01*
X422960Y299822D01*
X422880Y299883D01*
X422798Y299942D01*
X422714Y299997D01*
X422628Y300049D01*
X422540Y300098D01*
X422450Y300143D01*
X422358Y300185D01*
X422265Y300223D01*
X422170Y300257D01*
X422075Y300288D01*
X421978Y300315D01*
X421880Y300338D01*
X421781Y300358D01*
X421681Y300373D01*
X421581Y300385D01*
X421481Y300393D01*
X421380Y300397D01*
X421280Y300397D01*
X421179Y300393D01*
X421079Y300385D01*
X420979Y300373D01*
X420879Y300358D01*
X420780Y300338D01*
X420682Y300315D01*
X420585Y300288D01*
X420490Y300257D01*
X420395Y300223D01*
X420302Y300185D01*
X420210Y300143D01*
X420120Y300098D01*
X420032Y300049D01*
X419946Y299997D01*
X419862Y299942D01*
X419780Y299883D01*
X419700Y299822D01*
X419623Y299757D01*
X419549Y299689D01*
X419477Y299619D01*
X419408Y299546D01*
X419341Y299470D01*
X419278Y299391D01*
X419218Y299311D01*
X419161Y299228D01*
X419107Y299142D01*
X419057Y299055D01*
X419010Y298966D01*
X418967Y298875D01*
X418927Y298783D01*
X418891Y298689D01*
X418858Y298594D01*
X418829Y298497D01*
X418804Y298400D01*
X418783Y298301D01*
X418765Y298202D01*
X418752Y298102D01*
X418742Y298002D01*
X418736Y297902D01*
X418734Y297801D01*
X418733Y297801D02*
X418733Y295204D01*
X418734Y295204D02*
X418736Y295103D01*
X418742Y295003D01*
X418752Y294903D01*
X418765Y294803D01*
X418783Y294704D01*
X418804Y294605D01*
X418829Y294508D01*
X418858Y294411D01*
X418891Y294316D01*
X418927Y294222D01*
X418967Y294130D01*
X419010Y294039D01*
X419057Y293950D01*
X419107Y293863D01*
X419161Y293777D01*
X419218Y293694D01*
X419278Y293614D01*
X419341Y293535D01*
X419408Y293459D01*
X419477Y293386D01*
X419549Y293316D01*
X419623Y293248D01*
X419700Y293183D01*
X419780Y293122D01*
X419862Y293063D01*
X419946Y293008D01*
X420032Y292956D01*
X420120Y292907D01*
X420210Y292862D01*
X420302Y292820D01*
X420395Y292782D01*
X420490Y292748D01*
X420585Y292717D01*
X420682Y292690D01*
X420780Y292667D01*
X420879Y292647D01*
X420979Y292632D01*
X421079Y292620D01*
X421179Y292612D01*
X421280Y292608D01*
X421380Y292608D01*
X421481Y292612D01*
X421581Y292620D01*
X421681Y292632D01*
X421781Y292647D01*
X421880Y292667D01*
X421978Y292690D01*
X422075Y292717D01*
X422170Y292748D01*
X422265Y292782D01*
X422358Y292820D01*
X422450Y292862D01*
X422540Y292907D01*
X422628Y292956D01*
X422714Y293008D01*
X422798Y293063D01*
X422880Y293122D01*
X422960Y293183D01*
X423037Y293248D01*
X423111Y293316D01*
X423183Y293386D01*
X423252Y293459D01*
X423319Y293535D01*
X423382Y293614D01*
X423442Y293694D01*
X423499Y293777D01*
X423553Y293863D01*
X423603Y293950D01*
X423650Y294039D01*
X423693Y294130D01*
X423733Y294222D01*
X423769Y294316D01*
X423802Y294411D01*
X423831Y294508D01*
X423856Y294605D01*
X423877Y294704D01*
X423895Y294803D01*
X423908Y294903D01*
X423918Y295003D01*
X423924Y295103D01*
X423926Y295204D01*
X413639Y294555D02*
X413639Y300397D01*
X413639Y294555D02*
X413637Y294468D01*
X413631Y294380D01*
X413621Y294294D01*
X413608Y294207D01*
X413590Y294122D01*
X413569Y294037D01*
X413544Y293953D01*
X413515Y293871D01*
X413482Y293790D01*
X413446Y293710D01*
X413407Y293632D01*
X413363Y293556D01*
X413317Y293482D01*
X413267Y293411D01*
X413214Y293341D01*
X413158Y293274D01*
X413099Y293210D01*
X413037Y293148D01*
X412973Y293089D01*
X412906Y293033D01*
X412836Y292980D01*
X412765Y292930D01*
X412691Y292884D01*
X412615Y292840D01*
X412537Y292801D01*
X412457Y292765D01*
X412376Y292732D01*
X412294Y292703D01*
X412210Y292678D01*
X412125Y292657D01*
X412040Y292639D01*
X411953Y292626D01*
X411867Y292616D01*
X411779Y292610D01*
X411692Y292608D01*
X408446Y292608D01*
X408446Y300397D01*
X404319Y300397D02*
X400425Y300397D01*
X403021Y304292D02*
X403021Y294555D01*
X403019Y294468D01*
X403013Y294380D01*
X403003Y294294D01*
X402990Y294207D01*
X402972Y294122D01*
X402951Y294037D01*
X402926Y293953D01*
X402897Y293871D01*
X402864Y293790D01*
X402828Y293710D01*
X402789Y293632D01*
X402745Y293556D01*
X402699Y293482D01*
X402649Y293411D01*
X402596Y293341D01*
X402540Y293274D01*
X402481Y293210D01*
X402419Y293148D01*
X402355Y293089D01*
X402288Y293033D01*
X402218Y292980D01*
X402147Y292930D01*
X402073Y292884D01*
X401997Y292840D01*
X401919Y292801D01*
X401839Y292765D01*
X401758Y292732D01*
X401676Y292703D01*
X401592Y292678D01*
X401507Y292657D01*
X401422Y292639D01*
X401335Y292626D01*
X401249Y292616D01*
X401161Y292610D01*
X401074Y292608D01*
X400425Y292608D01*
X395732Y294555D02*
X395732Y300397D01*
X395732Y294555D02*
X395730Y294468D01*
X395724Y294380D01*
X395714Y294294D01*
X395701Y294207D01*
X395683Y294122D01*
X395662Y294037D01*
X395637Y293953D01*
X395608Y293871D01*
X395575Y293790D01*
X395539Y293710D01*
X395500Y293632D01*
X395456Y293556D01*
X395410Y293482D01*
X395360Y293411D01*
X395307Y293341D01*
X395251Y293274D01*
X395192Y293210D01*
X395130Y293148D01*
X395066Y293089D01*
X394999Y293033D01*
X394929Y292980D01*
X394858Y292930D01*
X394784Y292884D01*
X394708Y292840D01*
X394630Y292801D01*
X394550Y292765D01*
X394469Y292732D01*
X394387Y292703D01*
X394303Y292678D01*
X394218Y292657D01*
X394133Y292639D01*
X394046Y292626D01*
X393960Y292616D01*
X393872Y292610D01*
X393785Y292608D01*
X390539Y292608D01*
X390539Y300397D01*
X385005Y304292D02*
X385005Y292608D01*
X381760Y292608D01*
X381673Y292610D01*
X381585Y292616D01*
X381499Y292626D01*
X381412Y292639D01*
X381327Y292657D01*
X381242Y292678D01*
X381158Y292703D01*
X381076Y292732D01*
X380995Y292765D01*
X380915Y292801D01*
X380837Y292840D01*
X380761Y292884D01*
X380687Y292930D01*
X380616Y292980D01*
X380546Y293033D01*
X380479Y293089D01*
X380415Y293148D01*
X380353Y293209D01*
X380294Y293274D01*
X380238Y293341D01*
X380185Y293411D01*
X380135Y293482D01*
X380089Y293556D01*
X380046Y293632D01*
X380006Y293710D01*
X379970Y293790D01*
X379937Y293871D01*
X379908Y293953D01*
X379883Y294037D01*
X379862Y294122D01*
X379844Y294207D01*
X379831Y294294D01*
X379821Y294380D01*
X379815Y294468D01*
X379813Y294555D01*
X379812Y294555D02*
X379812Y298450D01*
X379813Y298450D02*
X379815Y298537D01*
X379821Y298625D01*
X379831Y298711D01*
X379844Y298798D01*
X379862Y298883D01*
X379883Y298968D01*
X379908Y299052D01*
X379937Y299134D01*
X379970Y299215D01*
X380006Y299295D01*
X380045Y299373D01*
X380089Y299449D01*
X380135Y299523D01*
X380185Y299594D01*
X380238Y299664D01*
X380294Y299731D01*
X380353Y299796D01*
X380415Y299857D01*
X380479Y299916D01*
X380546Y299972D01*
X380616Y300025D01*
X380687Y300075D01*
X380761Y300121D01*
X380837Y300165D01*
X380915Y300204D01*
X380995Y300240D01*
X381076Y300273D01*
X381158Y300302D01*
X381242Y300327D01*
X381327Y300348D01*
X381412Y300366D01*
X381499Y300379D01*
X381586Y300389D01*
X381673Y300395D01*
X381760Y300397D01*
X385005Y300397D01*
X373211Y292608D02*
X369965Y292608D01*
X373211Y292608D02*
X373298Y292610D01*
X373386Y292616D01*
X373472Y292626D01*
X373559Y292639D01*
X373644Y292657D01*
X373729Y292678D01*
X373813Y292703D01*
X373895Y292732D01*
X373976Y292765D01*
X374056Y292801D01*
X374134Y292840D01*
X374210Y292884D01*
X374284Y292930D01*
X374355Y292980D01*
X374425Y293033D01*
X374492Y293089D01*
X374556Y293148D01*
X374618Y293210D01*
X374677Y293274D01*
X374733Y293341D01*
X374786Y293411D01*
X374836Y293482D01*
X374882Y293556D01*
X374926Y293632D01*
X374965Y293710D01*
X375001Y293790D01*
X375034Y293871D01*
X375063Y293953D01*
X375088Y294037D01*
X375109Y294122D01*
X375127Y294207D01*
X375140Y294294D01*
X375150Y294380D01*
X375156Y294468D01*
X375158Y294555D01*
X375158Y297801D01*
X375156Y297902D01*
X375150Y298002D01*
X375140Y298102D01*
X375127Y298202D01*
X375109Y298301D01*
X375088Y298400D01*
X375063Y298497D01*
X375034Y298594D01*
X375001Y298689D01*
X374965Y298783D01*
X374925Y298875D01*
X374882Y298966D01*
X374835Y299055D01*
X374785Y299142D01*
X374731Y299228D01*
X374674Y299311D01*
X374614Y299391D01*
X374551Y299470D01*
X374484Y299546D01*
X374415Y299619D01*
X374343Y299689D01*
X374269Y299757D01*
X374192Y299822D01*
X374112Y299883D01*
X374030Y299942D01*
X373946Y299997D01*
X373860Y300049D01*
X373772Y300098D01*
X373682Y300143D01*
X373590Y300185D01*
X373497Y300223D01*
X373402Y300257D01*
X373307Y300288D01*
X373210Y300315D01*
X373112Y300338D01*
X373013Y300358D01*
X372913Y300373D01*
X372813Y300385D01*
X372713Y300393D01*
X372612Y300397D01*
X372512Y300397D01*
X372411Y300393D01*
X372311Y300385D01*
X372211Y300373D01*
X372111Y300358D01*
X372012Y300338D01*
X371914Y300315D01*
X371817Y300288D01*
X371722Y300257D01*
X371627Y300223D01*
X371534Y300185D01*
X371442Y300143D01*
X371352Y300098D01*
X371264Y300049D01*
X371178Y299997D01*
X371094Y299942D01*
X371012Y299883D01*
X370932Y299822D01*
X370855Y299757D01*
X370781Y299689D01*
X370709Y299619D01*
X370640Y299546D01*
X370573Y299470D01*
X370510Y299391D01*
X370450Y299311D01*
X370393Y299228D01*
X370339Y299142D01*
X370289Y299055D01*
X370242Y298966D01*
X370199Y298875D01*
X370159Y298783D01*
X370123Y298689D01*
X370090Y298594D01*
X370061Y298497D01*
X370036Y298400D01*
X370015Y298301D01*
X369997Y298202D01*
X369984Y298102D01*
X369974Y298002D01*
X369968Y297902D01*
X369966Y297801D01*
X369965Y297801D02*
X369965Y296503D01*
X375158Y296503D01*
X365647Y293257D02*
X365647Y292608D01*
X365647Y293257D02*
X364998Y293257D01*
X364998Y292608D01*
X365647Y292608D01*
X358720Y292608D02*
X356123Y292608D01*
X358720Y292608D02*
X358807Y292610D01*
X358895Y292616D01*
X358981Y292626D01*
X359068Y292639D01*
X359153Y292657D01*
X359238Y292678D01*
X359322Y292703D01*
X359404Y292732D01*
X359485Y292765D01*
X359565Y292801D01*
X359643Y292840D01*
X359719Y292884D01*
X359793Y292930D01*
X359864Y292980D01*
X359934Y293033D01*
X360001Y293089D01*
X360065Y293148D01*
X360127Y293210D01*
X360186Y293274D01*
X360242Y293341D01*
X360295Y293411D01*
X360345Y293482D01*
X360391Y293556D01*
X360435Y293632D01*
X360474Y293710D01*
X360510Y293790D01*
X360543Y293871D01*
X360572Y293953D01*
X360597Y294037D01*
X360618Y294122D01*
X360636Y294207D01*
X360649Y294294D01*
X360659Y294380D01*
X360665Y294468D01*
X360667Y294555D01*
X360667Y298450D01*
X360665Y298537D01*
X360659Y298625D01*
X360649Y298711D01*
X360636Y298798D01*
X360618Y298883D01*
X360597Y298968D01*
X360572Y299052D01*
X360543Y299134D01*
X360510Y299215D01*
X360474Y299295D01*
X360435Y299373D01*
X360391Y299449D01*
X360345Y299523D01*
X360295Y299594D01*
X360242Y299664D01*
X360186Y299731D01*
X360127Y299795D01*
X360065Y299857D01*
X360001Y299916D01*
X359934Y299972D01*
X359864Y300025D01*
X359793Y300075D01*
X359719Y300121D01*
X359643Y300165D01*
X359565Y300204D01*
X359485Y300240D01*
X359404Y300273D01*
X359322Y300302D01*
X359238Y300327D01*
X359153Y300348D01*
X359068Y300366D01*
X358981Y300379D01*
X358895Y300389D01*
X358807Y300395D01*
X358720Y300397D01*
X356123Y300397D01*
X351917Y297801D02*
X351917Y295204D01*
X351917Y297801D02*
X351915Y297902D01*
X351909Y298002D01*
X351899Y298102D01*
X351886Y298202D01*
X351868Y298301D01*
X351847Y298400D01*
X351822Y298497D01*
X351793Y298594D01*
X351760Y298689D01*
X351724Y298783D01*
X351684Y298875D01*
X351641Y298966D01*
X351594Y299055D01*
X351544Y299142D01*
X351490Y299228D01*
X351433Y299311D01*
X351373Y299391D01*
X351310Y299470D01*
X351243Y299546D01*
X351174Y299619D01*
X351102Y299689D01*
X351028Y299757D01*
X350951Y299822D01*
X350871Y299883D01*
X350789Y299942D01*
X350705Y299997D01*
X350619Y300049D01*
X350531Y300098D01*
X350441Y300143D01*
X350349Y300185D01*
X350256Y300223D01*
X350161Y300257D01*
X350066Y300288D01*
X349969Y300315D01*
X349871Y300338D01*
X349772Y300358D01*
X349672Y300373D01*
X349572Y300385D01*
X349472Y300393D01*
X349371Y300397D01*
X349271Y300397D01*
X349170Y300393D01*
X349070Y300385D01*
X348970Y300373D01*
X348870Y300358D01*
X348771Y300338D01*
X348673Y300315D01*
X348576Y300288D01*
X348481Y300257D01*
X348386Y300223D01*
X348293Y300185D01*
X348201Y300143D01*
X348111Y300098D01*
X348023Y300049D01*
X347937Y299997D01*
X347853Y299942D01*
X347771Y299883D01*
X347691Y299822D01*
X347614Y299757D01*
X347540Y299689D01*
X347468Y299619D01*
X347399Y299546D01*
X347332Y299470D01*
X347269Y299391D01*
X347209Y299311D01*
X347152Y299228D01*
X347098Y299142D01*
X347048Y299055D01*
X347001Y298966D01*
X346958Y298875D01*
X346918Y298783D01*
X346882Y298689D01*
X346849Y298594D01*
X346820Y298497D01*
X346795Y298400D01*
X346774Y298301D01*
X346756Y298202D01*
X346743Y298102D01*
X346733Y298002D01*
X346727Y297902D01*
X346725Y297801D01*
X346724Y297801D02*
X346724Y295204D01*
X346725Y295204D02*
X346727Y295103D01*
X346733Y295003D01*
X346743Y294903D01*
X346756Y294803D01*
X346774Y294704D01*
X346795Y294605D01*
X346820Y294508D01*
X346849Y294411D01*
X346882Y294316D01*
X346918Y294222D01*
X346958Y294130D01*
X347001Y294039D01*
X347048Y293950D01*
X347098Y293863D01*
X347152Y293777D01*
X347209Y293694D01*
X347269Y293614D01*
X347332Y293535D01*
X347399Y293459D01*
X347468Y293386D01*
X347540Y293316D01*
X347614Y293248D01*
X347691Y293183D01*
X347771Y293122D01*
X347853Y293063D01*
X347937Y293008D01*
X348023Y292956D01*
X348111Y292907D01*
X348201Y292862D01*
X348293Y292820D01*
X348386Y292782D01*
X348481Y292748D01*
X348576Y292717D01*
X348673Y292690D01*
X348771Y292667D01*
X348870Y292647D01*
X348970Y292632D01*
X349070Y292620D01*
X349170Y292612D01*
X349271Y292608D01*
X349371Y292608D01*
X349472Y292612D01*
X349572Y292620D01*
X349672Y292632D01*
X349772Y292647D01*
X349871Y292667D01*
X349969Y292690D01*
X350066Y292717D01*
X350161Y292748D01*
X350256Y292782D01*
X350349Y292820D01*
X350441Y292862D01*
X350531Y292907D01*
X350619Y292956D01*
X350705Y293008D01*
X350789Y293063D01*
X350871Y293122D01*
X350951Y293183D01*
X351028Y293248D01*
X351102Y293316D01*
X351174Y293386D01*
X351243Y293459D01*
X351310Y293535D01*
X351373Y293614D01*
X351433Y293694D01*
X351490Y293777D01*
X351544Y293863D01*
X351594Y293950D01*
X351641Y294039D01*
X351684Y294130D01*
X351724Y294222D01*
X351760Y294316D01*
X351793Y294411D01*
X351822Y294508D01*
X351847Y294605D01*
X351868Y294704D01*
X351886Y294803D01*
X351899Y294903D01*
X351909Y295003D01*
X351915Y295103D01*
X351917Y295204D01*
X341405Y292608D02*
X341405Y300397D01*
X335563Y300397D01*
X335476Y300395D01*
X335388Y300389D01*
X335302Y300379D01*
X335215Y300366D01*
X335130Y300348D01*
X335045Y300327D01*
X334961Y300302D01*
X334879Y300273D01*
X334798Y300240D01*
X334718Y300204D01*
X334640Y300165D01*
X334564Y300121D01*
X334490Y300075D01*
X334419Y300025D01*
X334349Y299972D01*
X334282Y299916D01*
X334218Y299857D01*
X334156Y299795D01*
X334097Y299731D01*
X334041Y299664D01*
X333988Y299594D01*
X333938Y299523D01*
X333892Y299449D01*
X333848Y299373D01*
X333809Y299295D01*
X333773Y299215D01*
X333740Y299134D01*
X333711Y299052D01*
X333686Y298968D01*
X333665Y298883D01*
X333647Y298798D01*
X333634Y298711D01*
X333624Y298625D01*
X333618Y298537D01*
X333616Y298450D01*
X333615Y298450D02*
X333615Y292608D01*
X337510Y292608D02*
X337510Y300397D01*
X328676Y291310D02*
X323483Y305590D01*
X317191Y292608D02*
X314594Y292608D01*
X317191Y292608D02*
X317278Y292610D01*
X317366Y292616D01*
X317452Y292626D01*
X317539Y292639D01*
X317624Y292657D01*
X317709Y292678D01*
X317793Y292703D01*
X317875Y292732D01*
X317956Y292765D01*
X318036Y292801D01*
X318114Y292840D01*
X318190Y292884D01*
X318264Y292930D01*
X318335Y292980D01*
X318405Y293033D01*
X318472Y293089D01*
X318536Y293148D01*
X318598Y293210D01*
X318657Y293274D01*
X318713Y293341D01*
X318766Y293411D01*
X318816Y293482D01*
X318862Y293556D01*
X318906Y293632D01*
X318945Y293710D01*
X318981Y293790D01*
X319014Y293871D01*
X319043Y293953D01*
X319068Y294037D01*
X319089Y294122D01*
X319107Y294207D01*
X319120Y294294D01*
X319130Y294380D01*
X319136Y294468D01*
X319138Y294555D01*
X319138Y298450D01*
X319136Y298537D01*
X319130Y298625D01*
X319120Y298711D01*
X319107Y298798D01*
X319089Y298883D01*
X319068Y298968D01*
X319043Y299052D01*
X319014Y299134D01*
X318981Y299215D01*
X318945Y299295D01*
X318906Y299373D01*
X318862Y299449D01*
X318816Y299523D01*
X318766Y299594D01*
X318713Y299664D01*
X318657Y299731D01*
X318598Y299795D01*
X318536Y299857D01*
X318472Y299916D01*
X318405Y299972D01*
X318335Y300025D01*
X318264Y300075D01*
X318190Y300121D01*
X318114Y300165D01*
X318036Y300204D01*
X317956Y300240D01*
X317875Y300273D01*
X317793Y300302D01*
X317709Y300327D01*
X317624Y300348D01*
X317539Y300366D01*
X317452Y300379D01*
X317366Y300389D01*
X317278Y300395D01*
X317191Y300397D01*
X314594Y300397D01*
X310769Y291310D02*
X305576Y305590D01*
X300581Y299099D02*
X297336Y299099D01*
X297336Y299100D02*
X297223Y299098D01*
X297110Y299092D01*
X296997Y299082D01*
X296884Y299068D01*
X296772Y299051D01*
X296661Y299029D01*
X296551Y299004D01*
X296441Y298974D01*
X296333Y298941D01*
X296226Y298904D01*
X296120Y298864D01*
X296016Y298819D01*
X295913Y298771D01*
X295812Y298720D01*
X295713Y298665D01*
X295616Y298607D01*
X295521Y298545D01*
X295428Y298480D01*
X295338Y298412D01*
X295250Y298341D01*
X295164Y298266D01*
X295081Y298189D01*
X295001Y298109D01*
X294924Y298026D01*
X294849Y297940D01*
X294778Y297852D01*
X294710Y297762D01*
X294645Y297669D01*
X294583Y297574D01*
X294525Y297477D01*
X294470Y297378D01*
X294419Y297277D01*
X294371Y297174D01*
X294326Y297070D01*
X294286Y296964D01*
X294249Y296857D01*
X294216Y296749D01*
X294186Y296639D01*
X294161Y296529D01*
X294139Y296418D01*
X294122Y296306D01*
X294108Y296193D01*
X294098Y296080D01*
X294092Y295967D01*
X294090Y295854D01*
X294092Y295741D01*
X294098Y295628D01*
X294108Y295515D01*
X294122Y295402D01*
X294139Y295290D01*
X294161Y295179D01*
X294186Y295069D01*
X294216Y294959D01*
X294249Y294851D01*
X294286Y294744D01*
X294326Y294638D01*
X294371Y294534D01*
X294419Y294431D01*
X294470Y294330D01*
X294525Y294231D01*
X294583Y294134D01*
X294645Y294039D01*
X294710Y293946D01*
X294778Y293856D01*
X294849Y293768D01*
X294924Y293682D01*
X295001Y293599D01*
X295081Y293519D01*
X295164Y293442D01*
X295250Y293367D01*
X295338Y293296D01*
X295428Y293228D01*
X295521Y293163D01*
X295616Y293101D01*
X295713Y293043D01*
X295812Y292988D01*
X295913Y292937D01*
X296016Y292889D01*
X296120Y292844D01*
X296226Y292804D01*
X296333Y292767D01*
X296441Y292734D01*
X296551Y292704D01*
X296661Y292679D01*
X296772Y292657D01*
X296884Y292640D01*
X296997Y292626D01*
X297110Y292616D01*
X297223Y292610D01*
X297336Y292608D01*
X300581Y292608D01*
X300581Y304292D01*
X297336Y304292D01*
X297235Y304290D01*
X297135Y304284D01*
X297035Y304274D01*
X296935Y304261D01*
X296836Y304243D01*
X296737Y304222D01*
X296640Y304197D01*
X296543Y304168D01*
X296448Y304135D01*
X296354Y304099D01*
X296262Y304059D01*
X296171Y304016D01*
X296082Y303969D01*
X295995Y303919D01*
X295909Y303865D01*
X295826Y303808D01*
X295746Y303748D01*
X295667Y303685D01*
X295591Y303618D01*
X295518Y303549D01*
X295448Y303477D01*
X295380Y303403D01*
X295315Y303326D01*
X295254Y303246D01*
X295195Y303164D01*
X295140Y303080D01*
X295088Y302994D01*
X295039Y302906D01*
X294994Y302816D01*
X294952Y302724D01*
X294914Y302631D01*
X294880Y302536D01*
X294849Y302441D01*
X294822Y302344D01*
X294799Y302246D01*
X294779Y302147D01*
X294764Y302047D01*
X294752Y301947D01*
X294744Y301847D01*
X294740Y301746D01*
X294740Y301646D01*
X294744Y301545D01*
X294752Y301445D01*
X294764Y301345D01*
X294779Y301245D01*
X294799Y301146D01*
X294822Y301048D01*
X294849Y300951D01*
X294880Y300856D01*
X294914Y300761D01*
X294952Y300668D01*
X294994Y300576D01*
X295039Y300486D01*
X295088Y300398D01*
X295140Y300312D01*
X295195Y300228D01*
X295254Y300146D01*
X295315Y300066D01*
X295380Y299989D01*
X295448Y299915D01*
X295518Y299843D01*
X295591Y299774D01*
X295667Y299707D01*
X295746Y299644D01*
X295826Y299584D01*
X295909Y299527D01*
X295995Y299473D01*
X296082Y299423D01*
X296171Y299376D01*
X296262Y299333D01*
X296354Y299293D01*
X296448Y299257D01*
X296543Y299224D01*
X296640Y299195D01*
X296737Y299170D01*
X296836Y299149D01*
X296935Y299131D01*
X297035Y299118D01*
X297135Y299108D01*
X297235Y299102D01*
X297336Y299100D01*
X289151Y304292D02*
X289151Y292608D01*
X289151Y297152D02*
X282660Y304292D01*
X286555Y299748D02*
X282660Y292608D01*
X277891Y292608D02*
X277891Y304292D01*
X277891Y299099D02*
X271399Y299099D01*
X271399Y304292D02*
X271399Y292608D01*
X266192Y295204D02*
X266192Y297801D01*
X266190Y297902D01*
X266184Y298002D01*
X266174Y298102D01*
X266161Y298202D01*
X266143Y298301D01*
X266122Y298400D01*
X266097Y298497D01*
X266068Y298594D01*
X266035Y298689D01*
X265999Y298783D01*
X265959Y298875D01*
X265916Y298966D01*
X265869Y299055D01*
X265819Y299142D01*
X265765Y299228D01*
X265708Y299311D01*
X265648Y299391D01*
X265585Y299470D01*
X265518Y299546D01*
X265449Y299619D01*
X265377Y299689D01*
X265303Y299757D01*
X265226Y299822D01*
X265146Y299883D01*
X265064Y299942D01*
X264980Y299997D01*
X264894Y300049D01*
X264806Y300098D01*
X264716Y300143D01*
X264624Y300185D01*
X264531Y300223D01*
X264436Y300257D01*
X264341Y300288D01*
X264244Y300315D01*
X264146Y300338D01*
X264047Y300358D01*
X263947Y300373D01*
X263847Y300385D01*
X263747Y300393D01*
X263646Y300397D01*
X263546Y300397D01*
X263445Y300393D01*
X263345Y300385D01*
X263245Y300373D01*
X263145Y300358D01*
X263046Y300338D01*
X262948Y300315D01*
X262851Y300288D01*
X262756Y300257D01*
X262661Y300223D01*
X262568Y300185D01*
X262476Y300143D01*
X262386Y300098D01*
X262298Y300049D01*
X262212Y299997D01*
X262128Y299942D01*
X262046Y299883D01*
X261966Y299822D01*
X261889Y299757D01*
X261815Y299689D01*
X261743Y299619D01*
X261674Y299546D01*
X261607Y299470D01*
X261544Y299391D01*
X261484Y299311D01*
X261427Y299228D01*
X261373Y299142D01*
X261323Y299055D01*
X261276Y298966D01*
X261233Y298875D01*
X261193Y298783D01*
X261157Y298689D01*
X261124Y298594D01*
X261095Y298497D01*
X261070Y298400D01*
X261049Y298301D01*
X261031Y298202D01*
X261018Y298102D01*
X261008Y298002D01*
X261002Y297902D01*
X261000Y297801D01*
X261000Y295204D01*
X261002Y295103D01*
X261008Y295003D01*
X261018Y294903D01*
X261031Y294803D01*
X261049Y294704D01*
X261070Y294605D01*
X261095Y294508D01*
X261124Y294411D01*
X261157Y294316D01*
X261193Y294222D01*
X261233Y294130D01*
X261276Y294039D01*
X261323Y293950D01*
X261373Y293863D01*
X261427Y293777D01*
X261484Y293694D01*
X261544Y293614D01*
X261607Y293535D01*
X261674Y293459D01*
X261743Y293386D01*
X261815Y293316D01*
X261889Y293248D01*
X261966Y293183D01*
X262046Y293122D01*
X262128Y293063D01*
X262212Y293008D01*
X262298Y292956D01*
X262386Y292907D01*
X262476Y292862D01*
X262568Y292820D01*
X262661Y292782D01*
X262756Y292748D01*
X262851Y292717D01*
X262948Y292690D01*
X263046Y292667D01*
X263145Y292647D01*
X263245Y292632D01*
X263345Y292620D01*
X263445Y292612D01*
X263546Y292608D01*
X263646Y292608D01*
X263747Y292612D01*
X263847Y292620D01*
X263947Y292632D01*
X264047Y292647D01*
X264146Y292667D01*
X264244Y292690D01*
X264341Y292717D01*
X264436Y292748D01*
X264531Y292782D01*
X264624Y292820D01*
X264716Y292862D01*
X264806Y292907D01*
X264894Y292956D01*
X264980Y293008D01*
X265064Y293063D01*
X265146Y293122D01*
X265226Y293183D01*
X265303Y293248D01*
X265377Y293316D01*
X265449Y293386D01*
X265518Y293459D01*
X265585Y293535D01*
X265648Y293614D01*
X265708Y293694D01*
X265765Y293777D01*
X265819Y293863D01*
X265869Y293950D01*
X265916Y294039D01*
X265959Y294130D01*
X265999Y294222D01*
X266035Y294316D01*
X266068Y294411D01*
X266097Y294508D01*
X266122Y294605D01*
X266143Y294704D01*
X266161Y294803D01*
X266174Y294903D01*
X266184Y295003D01*
X266190Y295103D01*
X266192Y295204D01*
X255847Y292608D02*
X255847Y304292D01*
X255847Y292608D02*
X252601Y292608D01*
X252514Y292610D01*
X252426Y292616D01*
X252340Y292626D01*
X252253Y292639D01*
X252168Y292657D01*
X252083Y292678D01*
X251999Y292703D01*
X251917Y292732D01*
X251836Y292765D01*
X251756Y292801D01*
X251678Y292840D01*
X251602Y292884D01*
X251528Y292930D01*
X251457Y292980D01*
X251387Y293033D01*
X251320Y293089D01*
X251256Y293148D01*
X251194Y293209D01*
X251135Y293274D01*
X251079Y293341D01*
X251026Y293411D01*
X250976Y293482D01*
X250930Y293556D01*
X250887Y293632D01*
X250847Y293710D01*
X250811Y293790D01*
X250778Y293871D01*
X250749Y293953D01*
X250724Y294037D01*
X250703Y294122D01*
X250685Y294207D01*
X250672Y294294D01*
X250662Y294380D01*
X250656Y294468D01*
X250654Y294555D01*
X250654Y298450D01*
X250656Y298537D01*
X250662Y298625D01*
X250672Y298711D01*
X250685Y298798D01*
X250703Y298883D01*
X250724Y298968D01*
X250749Y299052D01*
X250778Y299134D01*
X250811Y299215D01*
X250847Y299295D01*
X250886Y299373D01*
X250930Y299449D01*
X250976Y299523D01*
X251026Y299594D01*
X251079Y299664D01*
X251135Y299731D01*
X251194Y299796D01*
X251256Y299857D01*
X251320Y299916D01*
X251387Y299972D01*
X251457Y300025D01*
X251528Y300075D01*
X251602Y300121D01*
X251678Y300165D01*
X251756Y300204D01*
X251836Y300240D01*
X251917Y300273D01*
X251999Y300302D01*
X252083Y300327D01*
X252168Y300348D01*
X252253Y300366D01*
X252340Y300379D01*
X252427Y300389D01*
X252514Y300395D01*
X252601Y300397D01*
X255847Y300397D01*
X245560Y304292D02*
X245560Y292608D01*
X242314Y292608D01*
X242227Y292610D01*
X242139Y292616D01*
X242053Y292626D01*
X241966Y292639D01*
X241881Y292657D01*
X241796Y292678D01*
X241712Y292703D01*
X241630Y292732D01*
X241549Y292765D01*
X241469Y292801D01*
X241391Y292840D01*
X241315Y292884D01*
X241241Y292930D01*
X241170Y292980D01*
X241100Y293033D01*
X241033Y293089D01*
X240969Y293148D01*
X240907Y293209D01*
X240848Y293274D01*
X240792Y293341D01*
X240739Y293411D01*
X240689Y293482D01*
X240643Y293556D01*
X240600Y293632D01*
X240560Y293710D01*
X240524Y293790D01*
X240491Y293871D01*
X240462Y293953D01*
X240437Y294037D01*
X240416Y294122D01*
X240398Y294207D01*
X240385Y294294D01*
X240375Y294380D01*
X240369Y294468D01*
X240367Y294555D01*
X240367Y298450D01*
X240369Y298537D01*
X240375Y298625D01*
X240385Y298711D01*
X240398Y298798D01*
X240416Y298883D01*
X240437Y298968D01*
X240462Y299052D01*
X240491Y299134D01*
X240524Y299215D01*
X240560Y299295D01*
X240599Y299373D01*
X240643Y299449D01*
X240689Y299523D01*
X240739Y299594D01*
X240792Y299664D01*
X240848Y299731D01*
X240907Y299796D01*
X240969Y299857D01*
X241033Y299916D01*
X241100Y299972D01*
X241170Y300025D01*
X241241Y300075D01*
X241315Y300121D01*
X241391Y300165D01*
X241469Y300204D01*
X241549Y300240D01*
X241630Y300273D01*
X241712Y300302D01*
X241796Y300327D01*
X241881Y300348D01*
X241966Y300366D01*
X242053Y300379D01*
X242140Y300389D01*
X242227Y300395D01*
X242314Y300397D01*
X245560Y300397D01*
X236093Y288713D02*
X234795Y288713D01*
X230901Y300397D01*
X236093Y300397D02*
X233497Y292608D01*
M02*
