G04 EAGLE Gerber RS-274X export*
G75*
%MOMM*%
%FSLAX34Y34*%
%LPD*%
%INTop Copper*%
%IPPOS*%
%AMOC8*
5,1,8,0,0,1.08239X$1,22.5*%
G01*
%ADD10C,1.422400*%
%ADD11P,1.539592X8X112.500000*%
%ADD12C,1.320800*%
%ADD13C,1.524000*%
%ADD14C,1.800000*%
%ADD15C,0.254000*%

G36*
X582698Y111764D02*
X582698Y111764D01*
X582717Y111762D01*
X582819Y111784D01*
X582921Y111800D01*
X582938Y111810D01*
X582958Y111814D01*
X583047Y111867D01*
X583138Y111916D01*
X583152Y111930D01*
X583169Y111940D01*
X583236Y112019D01*
X583308Y112094D01*
X583316Y112112D01*
X583329Y112127D01*
X583368Y112223D01*
X583411Y112317D01*
X583413Y112337D01*
X583421Y112355D01*
X583439Y112522D01*
X583439Y608004D01*
X583432Y608049D01*
X583434Y608095D01*
X583412Y608170D01*
X583400Y608247D01*
X583378Y608287D01*
X583365Y608332D01*
X583321Y608396D01*
X583284Y608464D01*
X583251Y608496D01*
X583225Y608534D01*
X583162Y608580D01*
X583106Y608634D01*
X583065Y608653D01*
X583028Y608680D01*
X582953Y608704D01*
X582883Y608737D01*
X582837Y608742D01*
X582794Y608756D01*
X582716Y608756D01*
X582639Y608764D01*
X582594Y608755D01*
X582548Y608754D01*
X582417Y608716D01*
X582398Y608712D01*
X582394Y608709D01*
X582387Y608707D01*
X581860Y608489D01*
X573840Y608489D01*
X566430Y611559D01*
X560759Y617230D01*
X557689Y624640D01*
X557689Y632660D01*
X559233Y636387D01*
X559243Y636431D01*
X559263Y636473D01*
X559271Y636550D01*
X559289Y636626D01*
X559285Y636672D01*
X559290Y636717D01*
X559273Y636794D01*
X559266Y636871D01*
X559247Y636913D01*
X559238Y636958D01*
X559198Y637025D01*
X559166Y637096D01*
X559135Y637130D01*
X559111Y637169D01*
X559052Y637220D01*
X559000Y637277D01*
X558959Y637299D01*
X558924Y637329D01*
X558852Y637358D01*
X558784Y637395D01*
X558739Y637404D01*
X558696Y637421D01*
X558560Y637436D01*
X558542Y637439D01*
X558537Y637438D01*
X558530Y637439D01*
X176022Y637439D01*
X176002Y637436D01*
X175983Y637438D01*
X175881Y637416D01*
X175779Y637400D01*
X175762Y637390D01*
X175742Y637386D01*
X175653Y637333D01*
X175562Y637284D01*
X175548Y637270D01*
X175531Y637260D01*
X175464Y637181D01*
X175392Y637106D01*
X175384Y637088D01*
X175371Y637073D01*
X175332Y636977D01*
X175289Y636883D01*
X175287Y636863D01*
X175279Y636845D01*
X175261Y636678D01*
X175261Y135222D01*
X175264Y135202D01*
X175262Y135183D01*
X175284Y135081D01*
X175300Y134979D01*
X175310Y134962D01*
X175314Y134942D01*
X175367Y134853D01*
X175416Y134762D01*
X175430Y134748D01*
X175440Y134731D01*
X175519Y134664D01*
X175594Y134592D01*
X175612Y134584D01*
X175627Y134571D01*
X175723Y134532D01*
X175817Y134489D01*
X175837Y134487D01*
X175855Y134479D01*
X176022Y134461D01*
X181810Y134461D01*
X189220Y131391D01*
X194891Y125720D01*
X197961Y118310D01*
X197961Y112522D01*
X197964Y112502D01*
X197962Y112483D01*
X197984Y112381D01*
X198000Y112279D01*
X198010Y112262D01*
X198014Y112242D01*
X198067Y112153D01*
X198116Y112062D01*
X198130Y112048D01*
X198140Y112031D01*
X198219Y111964D01*
X198294Y111892D01*
X198312Y111884D01*
X198327Y111871D01*
X198423Y111832D01*
X198517Y111789D01*
X198537Y111787D01*
X198555Y111779D01*
X198722Y111761D01*
X582678Y111761D01*
X582698Y111764D01*
G37*
%LPC*%
G36*
X353680Y224027D02*
X353680Y224027D01*
X350132Y225497D01*
X347417Y228212D01*
X345947Y231760D01*
X345947Y250840D01*
X347417Y254388D01*
X350132Y257103D01*
X353680Y258573D01*
X357520Y258573D01*
X361068Y257103D01*
X361076Y257095D01*
X361092Y257084D01*
X361104Y257068D01*
X361192Y257012D01*
X361276Y256952D01*
X361295Y256946D01*
X361311Y256935D01*
X361412Y256910D01*
X361511Y256879D01*
X361531Y256880D01*
X361550Y256875D01*
X361653Y256883D01*
X361757Y256886D01*
X361775Y256893D01*
X361795Y256894D01*
X361890Y256934D01*
X361988Y256970D01*
X362003Y256983D01*
X362021Y256990D01*
X362152Y257095D01*
X394238Y289181D01*
X394291Y289255D01*
X394351Y289324D01*
X394363Y289355D01*
X394382Y289381D01*
X394409Y289468D01*
X394443Y289553D01*
X394447Y289594D01*
X394454Y289616D01*
X394453Y289648D01*
X394461Y289719D01*
X394461Y465426D01*
X455832Y526797D01*
X482949Y526797D01*
X483039Y526811D01*
X483130Y526819D01*
X483160Y526831D01*
X483191Y526836D01*
X483272Y526879D01*
X483356Y526915D01*
X483388Y526941D01*
X483409Y526952D01*
X483431Y526975D01*
X483487Y527020D01*
X484479Y528012D01*
X484491Y528028D01*
X484506Y528040D01*
X484562Y528128D01*
X484623Y528212D01*
X484628Y528231D01*
X484639Y528247D01*
X484665Y528348D01*
X484695Y528447D01*
X484694Y528467D01*
X484699Y528486D01*
X484691Y528589D01*
X484689Y528692D01*
X484682Y528711D01*
X484680Y528731D01*
X484640Y528826D01*
X484604Y528924D01*
X484592Y528939D01*
X484584Y528957D01*
X484479Y529088D01*
X484155Y529412D01*
X484155Y536988D01*
X489512Y542345D01*
X489712Y542345D01*
X489732Y542348D01*
X489751Y542346D01*
X489853Y542368D01*
X489955Y542384D01*
X489972Y542394D01*
X489992Y542398D01*
X490081Y542451D01*
X490172Y542500D01*
X490186Y542514D01*
X490203Y542524D01*
X490270Y542603D01*
X490342Y542678D01*
X490350Y542696D01*
X490363Y542711D01*
X490402Y542807D01*
X490445Y542901D01*
X490447Y542921D01*
X490455Y542939D01*
X490473Y543106D01*
X490473Y548694D01*
X490470Y548714D01*
X490472Y548733D01*
X490450Y548835D01*
X490434Y548937D01*
X490424Y548954D01*
X490420Y548974D01*
X490367Y549063D01*
X490318Y549154D01*
X490304Y549168D01*
X490294Y549185D01*
X490215Y549252D01*
X490140Y549324D01*
X490122Y549332D01*
X490107Y549345D01*
X490011Y549384D01*
X489917Y549427D01*
X489897Y549429D01*
X489879Y549437D01*
X489712Y549455D01*
X489512Y549455D01*
X484155Y554812D01*
X484155Y562419D01*
X484151Y562447D01*
X484152Y562460D01*
X484140Y562517D01*
X484133Y562600D01*
X484121Y562629D01*
X484116Y562661D01*
X484103Y562684D01*
X484100Y562701D01*
X484067Y562755D01*
X484037Y562826D01*
X484011Y562858D01*
X484000Y562879D01*
X483984Y562894D01*
X483974Y562912D01*
X483957Y562926D01*
X483932Y562957D01*
X440053Y606836D01*
X439979Y606889D01*
X439910Y606949D01*
X439879Y606961D01*
X439853Y606980D01*
X439766Y607007D01*
X439681Y607041D01*
X439640Y607045D01*
X439618Y607052D01*
X439586Y607051D01*
X439515Y607059D01*
X339598Y607059D01*
X339578Y607056D01*
X339559Y607058D01*
X339457Y607036D01*
X339355Y607020D01*
X339338Y607010D01*
X339318Y607006D01*
X339229Y606953D01*
X339138Y606904D01*
X339124Y606890D01*
X339107Y606880D01*
X339040Y606801D01*
X338968Y606726D01*
X338960Y606708D01*
X338947Y606693D01*
X338908Y606597D01*
X338865Y606503D01*
X338863Y606483D01*
X338855Y606465D01*
X338837Y606298D01*
X338837Y601278D01*
X337522Y598104D01*
X335092Y595674D01*
X331918Y594359D01*
X328482Y594359D01*
X325308Y595674D01*
X322878Y598104D01*
X321563Y601278D01*
X321563Y617922D01*
X322878Y621096D01*
X325308Y623526D01*
X328482Y624841D01*
X331918Y624841D01*
X335092Y623526D01*
X337522Y621096D01*
X338837Y617922D01*
X338837Y614426D01*
X338840Y614406D01*
X338838Y614387D01*
X338860Y614285D01*
X338876Y614183D01*
X338886Y614166D01*
X338890Y614146D01*
X338943Y614057D01*
X338992Y613966D01*
X339006Y613952D01*
X339016Y613935D01*
X339095Y613868D01*
X339170Y613796D01*
X339188Y613788D01*
X339203Y613775D01*
X339299Y613736D01*
X339393Y613693D01*
X339413Y613691D01*
X339431Y613683D01*
X339598Y613665D01*
X442566Y613665D01*
X488461Y567770D01*
X488477Y567758D01*
X488489Y567743D01*
X488577Y567687D01*
X488661Y567626D01*
X488680Y567621D01*
X488696Y567610D01*
X488797Y567584D01*
X488896Y567554D01*
X488916Y567555D01*
X488935Y567550D01*
X489038Y567558D01*
X489142Y567560D01*
X489160Y567567D01*
X489180Y567569D01*
X489275Y567609D01*
X489373Y567645D01*
X489388Y567657D01*
X489406Y567665D01*
X489506Y567745D01*
X497088Y567745D01*
X502445Y562388D01*
X502445Y554812D01*
X497302Y549669D01*
X497249Y549595D01*
X497189Y549526D01*
X497177Y549496D01*
X497158Y549469D01*
X497131Y549382D01*
X497097Y549298D01*
X497093Y549257D01*
X497086Y549234D01*
X497087Y549202D01*
X497079Y549131D01*
X497079Y542669D01*
X497093Y542579D01*
X497101Y542488D01*
X497113Y542458D01*
X497118Y542426D01*
X497161Y542346D01*
X497197Y542262D01*
X497223Y542230D01*
X497234Y542209D01*
X497257Y542187D01*
X497302Y542131D01*
X502445Y536988D01*
X502445Y536702D01*
X502448Y536682D01*
X502446Y536663D01*
X502468Y536561D01*
X502484Y536459D01*
X502494Y536442D01*
X502498Y536422D01*
X502551Y536333D01*
X502600Y536242D01*
X502614Y536228D01*
X502624Y536211D01*
X502703Y536144D01*
X502778Y536072D01*
X502796Y536064D01*
X502811Y536051D01*
X502907Y536012D01*
X503001Y535969D01*
X503021Y535967D01*
X503039Y535959D01*
X503206Y535941D01*
X508794Y535941D01*
X508814Y535944D01*
X508833Y535942D01*
X508935Y535964D01*
X509037Y535980D01*
X509054Y535990D01*
X509074Y535994D01*
X509163Y536047D01*
X509254Y536096D01*
X509268Y536110D01*
X509285Y536120D01*
X509352Y536199D01*
X509424Y536274D01*
X509432Y536292D01*
X509445Y536307D01*
X509484Y536403D01*
X509527Y536497D01*
X509529Y536517D01*
X509537Y536535D01*
X509555Y536702D01*
X509555Y536988D01*
X514918Y542350D01*
X514999Y542368D01*
X515101Y542384D01*
X515118Y542394D01*
X515138Y542398D01*
X515227Y542451D01*
X515318Y542500D01*
X515332Y542514D01*
X515349Y542524D01*
X515416Y542603D01*
X515488Y542678D01*
X515496Y542696D01*
X515509Y542711D01*
X515548Y542807D01*
X515591Y542901D01*
X515593Y542921D01*
X515601Y542939D01*
X515619Y543106D01*
X515619Y548694D01*
X515616Y548714D01*
X515618Y548733D01*
X515596Y548835D01*
X515580Y548937D01*
X515570Y548954D01*
X515566Y548974D01*
X515513Y549063D01*
X515464Y549154D01*
X515450Y549168D01*
X515440Y549185D01*
X515361Y549252D01*
X515286Y549324D01*
X515268Y549332D01*
X515253Y549345D01*
X515157Y549384D01*
X515063Y549427D01*
X515043Y549429D01*
X515025Y549437D01*
X514919Y549449D01*
X509555Y554812D01*
X509555Y562388D01*
X514912Y567745D01*
X522488Y567745D01*
X527845Y562388D01*
X527845Y554812D01*
X522448Y549415D01*
X522395Y549341D01*
X522335Y549272D01*
X522323Y549242D01*
X522304Y549215D01*
X522277Y549128D01*
X522243Y549044D01*
X522239Y549003D01*
X522232Y548980D01*
X522233Y548948D01*
X522225Y548877D01*
X522225Y542923D01*
X522239Y542833D01*
X522247Y542742D01*
X522259Y542712D01*
X522264Y542680D01*
X522307Y542600D01*
X522343Y542516D01*
X522369Y542484D01*
X522380Y542463D01*
X522403Y542441D01*
X522448Y542385D01*
X527845Y536988D01*
X527845Y529412D01*
X522488Y524055D01*
X514912Y524055D01*
X509855Y529112D01*
X509781Y529165D01*
X509712Y529225D01*
X509682Y529237D01*
X509655Y529256D01*
X509568Y529283D01*
X509484Y529317D01*
X509443Y529321D01*
X509420Y529328D01*
X509388Y529327D01*
X509317Y529335D01*
X502683Y529335D01*
X502593Y529321D01*
X502502Y529313D01*
X502472Y529301D01*
X502440Y529296D01*
X502360Y529253D01*
X502276Y529217D01*
X502244Y529191D01*
X502223Y529180D01*
X502201Y529157D01*
X502145Y529112D01*
X497088Y524055D01*
X490179Y524055D01*
X490089Y524041D01*
X489998Y524033D01*
X489969Y524021D01*
X489937Y524016D01*
X489856Y523973D01*
X489772Y523937D01*
X489740Y523911D01*
X489719Y523900D01*
X489697Y523877D01*
X489641Y523832D01*
X486000Y520191D01*
X458883Y520191D01*
X458793Y520177D01*
X458702Y520169D01*
X458673Y520157D01*
X458641Y520152D01*
X458560Y520109D01*
X458476Y520073D01*
X458444Y520047D01*
X458423Y520036D01*
X458401Y520013D01*
X458345Y519968D01*
X401290Y462913D01*
X401237Y462839D01*
X401177Y462770D01*
X401165Y462739D01*
X401146Y462713D01*
X401119Y462626D01*
X401085Y462541D01*
X401081Y462500D01*
X401074Y462478D01*
X401075Y462446D01*
X401067Y462375D01*
X401067Y286668D01*
X365476Y251077D01*
X365423Y251003D01*
X365363Y250934D01*
X365351Y250903D01*
X365332Y250877D01*
X365305Y250790D01*
X365271Y250705D01*
X365267Y250664D01*
X365260Y250642D01*
X365261Y250610D01*
X365253Y250539D01*
X365253Y231760D01*
X363783Y228212D01*
X361068Y225497D01*
X357520Y224027D01*
X353680Y224027D01*
G37*
%LPD*%
%LPC*%
G36*
X239512Y168455D02*
X239512Y168455D01*
X234155Y173812D01*
X234155Y181388D01*
X239512Y186745D01*
X247088Y186745D01*
X251999Y181834D01*
X252073Y181781D01*
X252142Y181721D01*
X252172Y181709D01*
X252199Y181690D01*
X252286Y181663D01*
X252370Y181629D01*
X252411Y181625D01*
X252434Y181618D01*
X252466Y181619D01*
X252537Y181611D01*
X259463Y181611D01*
X259553Y181625D01*
X259644Y181633D01*
X259674Y181645D01*
X259706Y181650D01*
X259786Y181693D01*
X259870Y181729D01*
X259902Y181755D01*
X259923Y181766D01*
X259945Y181789D01*
X260001Y181834D01*
X264912Y186745D01*
X272490Y186745D01*
X272491Y186743D01*
X272579Y186687D01*
X272662Y186626D01*
X272681Y186621D01*
X272698Y186610D01*
X272799Y186584D01*
X272897Y186554D01*
X272917Y186555D01*
X272937Y186550D01*
X273040Y186558D01*
X273143Y186560D01*
X273162Y186567D01*
X273182Y186569D01*
X273277Y186609D01*
X273374Y186645D01*
X273390Y186657D01*
X273408Y186665D01*
X273539Y186770D01*
X316514Y229745D01*
X316567Y229819D01*
X316627Y229888D01*
X316639Y229919D01*
X316658Y229945D01*
X316685Y230032D01*
X316719Y230117D01*
X316723Y230158D01*
X316730Y230180D01*
X316729Y230212D01*
X316737Y230283D01*
X316737Y294227D01*
X316726Y294297D01*
X316724Y294369D01*
X316706Y294418D01*
X316698Y294469D01*
X316664Y294533D01*
X316639Y294600D01*
X316607Y294641D01*
X316582Y294687D01*
X316530Y294736D01*
X316486Y294792D01*
X316442Y294820D01*
X316404Y294856D01*
X316339Y294886D01*
X316279Y294925D01*
X316228Y294938D01*
X316181Y294960D01*
X316110Y294968D01*
X316040Y294985D01*
X315988Y294981D01*
X315937Y294987D01*
X315866Y294972D01*
X315795Y294966D01*
X315747Y294946D01*
X315696Y294935D01*
X315635Y294898D01*
X315569Y294870D01*
X315513Y294825D01*
X315485Y294808D01*
X315470Y294791D01*
X315438Y294765D01*
X278068Y257395D01*
X278015Y257321D01*
X277955Y257252D01*
X277943Y257221D01*
X277924Y257195D01*
X277897Y257108D01*
X277863Y257023D01*
X277859Y256982D01*
X277852Y256960D01*
X277853Y256928D01*
X277845Y256857D01*
X277845Y250012D01*
X272488Y244655D01*
X264912Y244655D01*
X259347Y250220D01*
X259273Y250273D01*
X259204Y250333D01*
X259174Y250345D01*
X259147Y250364D01*
X259060Y250391D01*
X258976Y250425D01*
X258935Y250429D01*
X258912Y250436D01*
X258880Y250435D01*
X258809Y250443D01*
X253191Y250443D01*
X253101Y250429D01*
X253010Y250421D01*
X252980Y250409D01*
X252948Y250404D01*
X252868Y250361D01*
X252784Y250325D01*
X252752Y250299D01*
X252731Y250288D01*
X252709Y250265D01*
X252653Y250220D01*
X247088Y244655D01*
X239512Y244655D01*
X234155Y250012D01*
X234155Y257588D01*
X239512Y262945D01*
X247088Y262945D01*
X252497Y257536D01*
X252498Y257530D01*
X252551Y257441D01*
X252600Y257350D01*
X252614Y257336D01*
X252624Y257319D01*
X252703Y257252D01*
X252778Y257180D01*
X252796Y257172D01*
X252811Y257159D01*
X252907Y257120D01*
X253001Y257077D01*
X253021Y257075D01*
X253039Y257067D01*
X253206Y257049D01*
X258794Y257049D01*
X258814Y257052D01*
X258833Y257050D01*
X258935Y257072D01*
X259037Y257088D01*
X259054Y257098D01*
X259074Y257102D01*
X259163Y257155D01*
X259254Y257204D01*
X259268Y257218D01*
X259285Y257228D01*
X259352Y257307D01*
X259424Y257382D01*
X259432Y257400D01*
X259445Y257415D01*
X259484Y257511D01*
X259488Y257520D01*
X264912Y262945D01*
X272488Y262945D01*
X272844Y262589D01*
X272860Y262577D01*
X272872Y262562D01*
X272959Y262506D01*
X273043Y262445D01*
X273062Y262440D01*
X273079Y262429D01*
X273180Y262403D01*
X273278Y262373D01*
X273298Y262374D01*
X273318Y262369D01*
X273421Y262377D01*
X273524Y262379D01*
X273543Y262386D01*
X273563Y262388D01*
X273658Y262428D01*
X273755Y262464D01*
X273771Y262476D01*
X273789Y262484D01*
X273920Y262589D01*
X311942Y300611D01*
X311995Y300685D01*
X312055Y300754D01*
X312067Y300785D01*
X312086Y300811D01*
X312113Y300898D01*
X312147Y300983D01*
X312151Y301024D01*
X312158Y301046D01*
X312157Y301078D01*
X312165Y301149D01*
X312165Y410562D01*
X328479Y426876D01*
X328546Y426970D01*
X328617Y427064D01*
X328619Y427070D01*
X328622Y427075D01*
X328656Y427186D01*
X328693Y427298D01*
X328693Y427304D01*
X328695Y427310D01*
X328692Y427427D01*
X328691Y427544D01*
X328688Y427551D01*
X328688Y427556D01*
X328682Y427574D01*
X328644Y427705D01*
X327659Y430082D01*
X327659Y433518D01*
X328974Y436692D01*
X331404Y439122D01*
X334578Y440437D01*
X351222Y440437D01*
X354396Y439122D01*
X356826Y436692D01*
X358141Y433518D01*
X358141Y430082D01*
X356826Y426908D01*
X354396Y424478D01*
X351222Y423163D01*
X334427Y423163D01*
X334350Y423151D01*
X334243Y423142D01*
X334239Y423141D01*
X334234Y423140D01*
X334204Y423127D01*
X334184Y423124D01*
X334122Y423091D01*
X334017Y423046D01*
X334013Y423043D01*
X334009Y423041D01*
X333998Y423031D01*
X333977Y423014D01*
X333966Y423008D01*
X333955Y422997D01*
X333886Y422941D01*
X318994Y408049D01*
X318941Y407975D01*
X318881Y407906D01*
X318869Y407875D01*
X318850Y407849D01*
X318823Y407762D01*
X318789Y407677D01*
X318785Y407636D01*
X318778Y407614D01*
X318779Y407582D01*
X318771Y407511D01*
X318771Y345853D01*
X318782Y345783D01*
X318784Y345711D01*
X318802Y345662D01*
X318810Y345611D01*
X318844Y345547D01*
X318869Y345480D01*
X318901Y345439D01*
X318926Y345393D01*
X318977Y345344D01*
X319022Y345288D01*
X319066Y345260D01*
X319104Y345224D01*
X319169Y345194D01*
X319229Y345155D01*
X319280Y345142D01*
X319327Y345120D01*
X319398Y345112D01*
X319468Y345095D01*
X319520Y345099D01*
X319571Y345093D01*
X319642Y345108D01*
X319713Y345114D01*
X319761Y345134D01*
X319812Y345145D01*
X319873Y345182D01*
X319939Y345210D01*
X319995Y345255D01*
X320023Y345272D01*
X320038Y345289D01*
X320070Y345315D01*
X327586Y352831D01*
X327654Y352925D01*
X327724Y353019D01*
X327726Y353026D01*
X327730Y353031D01*
X327764Y353141D01*
X327800Y353253D01*
X327800Y353260D01*
X327802Y353266D01*
X327799Y353382D01*
X327798Y353499D01*
X327796Y353506D01*
X327796Y353512D01*
X327789Y353529D01*
X327751Y353660D01*
X327659Y353882D01*
X327659Y357318D01*
X328974Y360492D01*
X331404Y362922D01*
X334578Y364237D01*
X351222Y364237D01*
X354396Y362922D01*
X356826Y360492D01*
X358141Y357318D01*
X358141Y353882D01*
X356826Y350708D01*
X354396Y348278D01*
X351222Y346963D01*
X334578Y346963D01*
X332560Y347799D01*
X332447Y347826D01*
X332333Y347854D01*
X332327Y347854D01*
X332321Y347855D01*
X332204Y347844D01*
X332088Y347835D01*
X332082Y347833D01*
X332076Y347832D01*
X331968Y347784D01*
X331862Y347739D01*
X331856Y347734D01*
X331851Y347732D01*
X331838Y347719D01*
X331731Y347634D01*
X323566Y339469D01*
X323513Y339395D01*
X323453Y339326D01*
X323441Y339295D01*
X323422Y339269D01*
X323395Y339182D01*
X323361Y339097D01*
X323357Y339056D01*
X323350Y339034D01*
X323351Y339002D01*
X323343Y338931D01*
X323343Y227232D01*
X321185Y225074D01*
X278068Y181957D01*
X278015Y181883D01*
X277955Y181814D01*
X277943Y181783D01*
X277924Y181757D01*
X277897Y181670D01*
X277863Y181585D01*
X277859Y181544D01*
X277852Y181522D01*
X277853Y181490D01*
X277845Y181419D01*
X277845Y173812D01*
X272488Y168455D01*
X264912Y168455D01*
X259555Y173812D01*
X259555Y174244D01*
X259552Y174264D01*
X259554Y174283D01*
X259532Y174385D01*
X259516Y174487D01*
X259506Y174504D01*
X259502Y174524D01*
X259449Y174613D01*
X259400Y174704D01*
X259386Y174718D01*
X259376Y174735D01*
X259297Y174802D01*
X259222Y174874D01*
X259204Y174882D01*
X259189Y174895D01*
X259093Y174934D01*
X258999Y174977D01*
X258979Y174979D01*
X258961Y174987D01*
X258794Y175005D01*
X253206Y175005D01*
X253186Y175002D01*
X253167Y175004D01*
X253065Y174982D01*
X252963Y174966D01*
X252946Y174956D01*
X252926Y174952D01*
X252837Y174899D01*
X252746Y174850D01*
X252732Y174836D01*
X252715Y174826D01*
X252648Y174747D01*
X252576Y174672D01*
X252568Y174654D01*
X252555Y174639D01*
X252516Y174543D01*
X252473Y174449D01*
X252471Y174429D01*
X252463Y174411D01*
X252445Y174244D01*
X252445Y173812D01*
X247088Y168455D01*
X239512Y168455D01*
G37*
%LPD*%
%LPC*%
G36*
X334578Y296163D02*
X334578Y296163D01*
X331404Y297478D01*
X328974Y299908D01*
X327659Y303082D01*
X327659Y306518D01*
X328974Y309692D01*
X331404Y312122D01*
X334578Y313437D01*
X351222Y313437D01*
X354404Y312119D01*
X354405Y312118D01*
X354417Y312103D01*
X354504Y312046D01*
X354588Y311986D01*
X354607Y311980D01*
X354624Y311970D01*
X354725Y311944D01*
X354823Y311914D01*
X354843Y311914D01*
X354863Y311910D01*
X354965Y311918D01*
X355069Y311920D01*
X355088Y311927D01*
X355108Y311929D01*
X355202Y311969D01*
X355300Y312005D01*
X355316Y312017D01*
X355334Y312025D01*
X355465Y312130D01*
X362234Y318899D01*
X362287Y318973D01*
X362347Y319042D01*
X362359Y319073D01*
X362378Y319099D01*
X362405Y319186D01*
X362439Y319271D01*
X362443Y319312D01*
X362450Y319334D01*
X362449Y319366D01*
X362457Y319437D01*
X362457Y460089D01*
X362443Y460179D01*
X362435Y460270D01*
X362423Y460299D01*
X362418Y460331D01*
X362375Y460412D01*
X362339Y460496D01*
X362313Y460528D01*
X362302Y460549D01*
X362279Y460571D01*
X362234Y460627D01*
X273485Y549376D01*
X273469Y549388D01*
X273456Y549403D01*
X273369Y549459D01*
X273285Y549520D01*
X273266Y549525D01*
X273250Y549536D01*
X273149Y549562D01*
X273050Y549592D01*
X273030Y549591D01*
X273011Y549596D01*
X272908Y549588D01*
X272804Y549586D01*
X272786Y549579D01*
X272766Y549577D01*
X272671Y549537D01*
X272573Y549501D01*
X272558Y549489D01*
X272539Y549481D01*
X272508Y549455D01*
X264912Y549455D01*
X260109Y554258D01*
X260035Y554311D01*
X259966Y554371D01*
X259936Y554383D01*
X259909Y554402D01*
X259822Y554429D01*
X259738Y554463D01*
X259697Y554467D01*
X259674Y554474D01*
X259642Y554473D01*
X259571Y554481D01*
X252429Y554481D01*
X252339Y554467D01*
X252248Y554459D01*
X252218Y554447D01*
X252186Y554442D01*
X252106Y554399D01*
X252022Y554363D01*
X251990Y554337D01*
X251969Y554326D01*
X251947Y554303D01*
X251891Y554258D01*
X247088Y549455D01*
X239512Y549455D01*
X234155Y554812D01*
X234155Y560959D01*
X234141Y561049D01*
X234133Y561140D01*
X234121Y561169D01*
X234116Y561201D01*
X234073Y561282D01*
X234037Y561366D01*
X234011Y561398D01*
X234000Y561419D01*
X233977Y561441D01*
X233932Y561497D01*
X225297Y570132D01*
X225297Y578961D01*
X225283Y579051D01*
X225275Y579142D01*
X225263Y579171D01*
X225258Y579203D01*
X225215Y579284D01*
X225179Y579368D01*
X225153Y579400D01*
X225142Y579421D01*
X225119Y579443D01*
X225074Y579499D01*
X209022Y595551D01*
X208929Y595618D01*
X208834Y595689D01*
X208828Y595691D01*
X208823Y595694D01*
X208712Y595728D01*
X208600Y595765D01*
X208594Y595765D01*
X208588Y595767D01*
X208471Y595764D01*
X208354Y595763D01*
X208347Y595760D01*
X208342Y595760D01*
X208324Y595754D01*
X208193Y595716D01*
X204918Y594359D01*
X201482Y594359D01*
X198308Y595674D01*
X195878Y598104D01*
X194563Y601278D01*
X194563Y617922D01*
X195878Y621096D01*
X198308Y623526D01*
X201482Y624841D01*
X204918Y624841D01*
X208092Y623526D01*
X210522Y621096D01*
X211837Y617922D01*
X211837Y602393D01*
X211851Y602303D01*
X211859Y602212D01*
X211871Y602183D01*
X211876Y602151D01*
X211919Y602070D01*
X211955Y601986D01*
X211981Y601954D01*
X211992Y601933D01*
X212015Y601911D01*
X212060Y601855D01*
X229745Y584170D01*
X231903Y582012D01*
X231903Y573183D01*
X231917Y573093D01*
X231925Y573002D01*
X231937Y572973D01*
X231942Y572941D01*
X231985Y572860D01*
X232021Y572776D01*
X232047Y572744D01*
X232058Y572723D01*
X232081Y572701D01*
X232126Y572645D01*
X237731Y567040D01*
X237747Y567028D01*
X237759Y567013D01*
X237847Y566957D01*
X237931Y566896D01*
X237950Y566891D01*
X237966Y566880D01*
X238067Y566854D01*
X238166Y566824D01*
X238186Y566825D01*
X238205Y566820D01*
X238308Y566828D01*
X238411Y566830D01*
X238430Y566837D01*
X238450Y566839D01*
X238545Y566879D01*
X238643Y566915D01*
X238658Y566927D01*
X238676Y566935D01*
X238807Y567040D01*
X239512Y567745D01*
X247088Y567745D01*
X252445Y562388D01*
X252445Y561848D01*
X252448Y561828D01*
X252446Y561809D01*
X252468Y561707D01*
X252484Y561605D01*
X252494Y561588D01*
X252498Y561568D01*
X252551Y561479D01*
X252600Y561388D01*
X252614Y561374D01*
X252624Y561357D01*
X252703Y561290D01*
X252778Y561218D01*
X252796Y561210D01*
X252811Y561197D01*
X252907Y561158D01*
X253001Y561115D01*
X253021Y561113D01*
X253039Y561105D01*
X253206Y561087D01*
X258794Y561087D01*
X258814Y561090D01*
X258833Y561088D01*
X258935Y561110D01*
X259037Y561126D01*
X259054Y561136D01*
X259074Y561140D01*
X259163Y561193D01*
X259254Y561242D01*
X259268Y561256D01*
X259285Y561266D01*
X259352Y561345D01*
X259424Y561420D01*
X259432Y561438D01*
X259445Y561453D01*
X259484Y561549D01*
X259527Y561643D01*
X259529Y561663D01*
X259537Y561681D01*
X259555Y561848D01*
X259555Y562388D01*
X264912Y567745D01*
X272488Y567745D01*
X277845Y562388D01*
X277845Y554673D01*
X277859Y554583D01*
X277867Y554492D01*
X277879Y554463D01*
X277884Y554431D01*
X277927Y554350D01*
X277963Y554266D01*
X277989Y554234D01*
X278000Y554213D01*
X278023Y554191D01*
X278068Y554135D01*
X369063Y463140D01*
X369063Y316386D01*
X358364Y305687D01*
X358311Y305613D01*
X358251Y305544D01*
X358239Y305513D01*
X358220Y305487D01*
X358193Y305400D01*
X358159Y305315D01*
X358155Y305274D01*
X358148Y305252D01*
X358149Y305220D01*
X358141Y305149D01*
X358141Y303082D01*
X356826Y299908D01*
X354396Y297478D01*
X351222Y296163D01*
X334578Y296163D01*
G37*
%LPD*%
%LPC*%
G36*
X340705Y119667D02*
X340705Y119667D01*
X336650Y121347D01*
X333547Y124450D01*
X331867Y128505D01*
X331867Y150895D01*
X333547Y154950D01*
X336650Y158053D01*
X340705Y159733D01*
X341122Y159733D01*
X341142Y159736D01*
X341161Y159734D01*
X341263Y159756D01*
X341365Y159772D01*
X341382Y159782D01*
X341402Y159786D01*
X341491Y159839D01*
X341582Y159888D01*
X341596Y159902D01*
X341613Y159912D01*
X341680Y159991D01*
X341752Y160066D01*
X341760Y160084D01*
X341773Y160099D01*
X341812Y160195D01*
X341855Y160289D01*
X341857Y160309D01*
X341865Y160327D01*
X341883Y160494D01*
X341883Y163674D01*
X343946Y165737D01*
X343999Y165811D01*
X344059Y165880D01*
X344071Y165911D01*
X344090Y165937D01*
X344117Y166024D01*
X344151Y166109D01*
X344155Y166150D01*
X344162Y166172D01*
X344161Y166204D01*
X344169Y166275D01*
X344169Y204822D01*
X346327Y206980D01*
X371124Y231777D01*
X371177Y231851D01*
X371237Y231920D01*
X371249Y231951D01*
X371268Y231977D01*
X371295Y232064D01*
X371329Y232149D01*
X371333Y232190D01*
X371340Y232212D01*
X371339Y232244D01*
X371347Y232315D01*
X371347Y250840D01*
X372817Y254388D01*
X375532Y257103D01*
X379080Y258573D01*
X382920Y258573D01*
X386468Y257103D01*
X389183Y254388D01*
X390653Y250840D01*
X390653Y231760D01*
X389183Y228212D01*
X386468Y225497D01*
X382920Y224027D01*
X379080Y224027D01*
X375532Y225497D01*
X375397Y225632D01*
X375381Y225643D01*
X375369Y225659D01*
X375281Y225715D01*
X375197Y225775D01*
X375178Y225781D01*
X375162Y225792D01*
X375061Y225817D01*
X374962Y225848D01*
X374942Y225847D01*
X374923Y225852D01*
X374820Y225844D01*
X374716Y225841D01*
X374698Y225834D01*
X374678Y225833D01*
X374583Y225793D01*
X374485Y225757D01*
X374470Y225744D01*
X374452Y225737D01*
X374321Y225632D01*
X350998Y202309D01*
X350945Y202235D01*
X350885Y202166D01*
X350873Y202135D01*
X350854Y202109D01*
X350827Y202022D01*
X350793Y201937D01*
X350789Y201896D01*
X350782Y201874D01*
X350783Y201842D01*
X350775Y201771D01*
X350775Y163224D01*
X348712Y161161D01*
X348659Y161087D01*
X348599Y161018D01*
X348587Y160987D01*
X348568Y160961D01*
X348541Y160874D01*
X348507Y160789D01*
X348503Y160748D01*
X348496Y160726D01*
X348497Y160694D01*
X348489Y160623D01*
X348489Y158835D01*
X348507Y158721D01*
X348525Y158604D01*
X348527Y158599D01*
X348528Y158593D01*
X348583Y158490D01*
X348636Y158385D01*
X348641Y158381D01*
X348644Y158375D01*
X348728Y158295D01*
X348812Y158213D01*
X348818Y158209D01*
X348822Y158206D01*
X348839Y158198D01*
X348959Y158132D01*
X349150Y158053D01*
X352253Y154950D01*
X353933Y150895D01*
X353933Y128505D01*
X352253Y124450D01*
X349150Y121347D01*
X345095Y119667D01*
X340705Y119667D01*
G37*
%LPD*%
%LPC*%
G36*
X239512Y346255D02*
X239512Y346255D01*
X234155Y351612D01*
X234155Y359188D01*
X239512Y364545D01*
X247159Y364545D01*
X247171Y364537D01*
X247272Y364511D01*
X247370Y364481D01*
X247390Y364482D01*
X247410Y364477D01*
X247513Y364485D01*
X247616Y364487D01*
X247635Y364494D01*
X247655Y364496D01*
X247750Y364536D01*
X247847Y364572D01*
X247863Y364584D01*
X247881Y364592D01*
X247951Y364648D01*
X247956Y364651D01*
X247961Y364656D01*
X248012Y364697D01*
X250220Y366905D01*
X250823Y367508D01*
X250835Y367524D01*
X250850Y367536D01*
X250906Y367624D01*
X250966Y367707D01*
X250972Y367726D01*
X250983Y367743D01*
X251008Y367844D01*
X251039Y367943D01*
X251038Y367962D01*
X251043Y367982D01*
X251035Y368085D01*
X251032Y368188D01*
X251026Y368207D01*
X251024Y368227D01*
X250984Y368322D01*
X250948Y368419D01*
X250936Y368435D01*
X250928Y368453D01*
X250823Y368584D01*
X250220Y369187D01*
X247958Y371449D01*
X247942Y371461D01*
X247930Y371476D01*
X247842Y371532D01*
X247758Y371593D01*
X247739Y371598D01*
X247723Y371609D01*
X247622Y371635D01*
X247523Y371665D01*
X247503Y371664D01*
X247484Y371669D01*
X247381Y371661D01*
X247278Y371659D01*
X247268Y371655D01*
X239512Y371655D01*
X234155Y377012D01*
X234155Y384588D01*
X239512Y389945D01*
X247088Y389945D01*
X252445Y384588D01*
X252445Y376865D01*
X252443Y376860D01*
X252413Y376762D01*
X252414Y376742D01*
X252409Y376722D01*
X252417Y376619D01*
X252419Y376516D01*
X252426Y376497D01*
X252428Y376477D01*
X252468Y376382D01*
X252504Y376285D01*
X252516Y376269D01*
X252524Y376251D01*
X252629Y376120D01*
X254351Y374398D01*
X254367Y374386D01*
X254379Y374371D01*
X254467Y374315D01*
X254550Y374255D01*
X254569Y374249D01*
X254586Y374238D01*
X254687Y374213D01*
X254786Y374182D01*
X254805Y374183D01*
X254825Y374178D01*
X254928Y374186D01*
X255031Y374189D01*
X255050Y374195D01*
X255070Y374197D01*
X255165Y374237D01*
X255262Y374273D01*
X255278Y374285D01*
X255296Y374293D01*
X255427Y374398D01*
X259332Y378303D01*
X259385Y378377D01*
X259445Y378446D01*
X259457Y378477D01*
X259476Y378503D01*
X259503Y378590D01*
X259537Y378675D01*
X259541Y378716D01*
X259548Y378738D01*
X259547Y378770D01*
X259555Y378841D01*
X259555Y384588D01*
X264912Y389945D01*
X272488Y389945D01*
X277845Y384588D01*
X277845Y377012D01*
X272488Y371655D01*
X264912Y371655D01*
X264007Y372560D01*
X263991Y372572D01*
X263979Y372587D01*
X263891Y372643D01*
X263808Y372704D01*
X263789Y372709D01*
X263772Y372720D01*
X263671Y372746D01*
X263573Y372776D01*
X263553Y372775D01*
X263533Y372780D01*
X263430Y372772D01*
X263327Y372770D01*
X263308Y372763D01*
X263288Y372761D01*
X263193Y372721D01*
X263096Y372685D01*
X263080Y372673D01*
X263062Y372665D01*
X262931Y372560D01*
X260098Y369727D01*
X260086Y369711D01*
X260071Y369699D01*
X260015Y369611D01*
X259955Y369528D01*
X259949Y369509D01*
X259938Y369492D01*
X259913Y369391D01*
X259882Y369292D01*
X259883Y369273D01*
X259878Y369253D01*
X259886Y369150D01*
X259889Y369047D01*
X259895Y369028D01*
X259897Y369008D01*
X259937Y368913D01*
X259973Y368816D01*
X259985Y368800D01*
X259993Y368782D01*
X260098Y368651D01*
X264020Y364729D01*
X264036Y364717D01*
X264048Y364702D01*
X264136Y364646D01*
X264220Y364585D01*
X264239Y364580D01*
X264255Y364569D01*
X264356Y364543D01*
X264455Y364513D01*
X264475Y364514D01*
X264494Y364509D01*
X264597Y364517D01*
X264700Y364519D01*
X264719Y364526D01*
X264739Y364528D01*
X264779Y364545D01*
X272488Y364545D01*
X277845Y359188D01*
X277845Y351612D01*
X272488Y346255D01*
X264912Y346255D01*
X259555Y351612D01*
X259555Y359385D01*
X259565Y359416D01*
X259564Y359436D01*
X259569Y359456D01*
X259561Y359559D01*
X259559Y359662D01*
X259552Y359681D01*
X259550Y359701D01*
X259510Y359796D01*
X259474Y359893D01*
X259462Y359909D01*
X259454Y359927D01*
X259349Y360058D01*
X257173Y362234D01*
X257099Y362287D01*
X257030Y362347D01*
X256999Y362359D01*
X256973Y362378D01*
X256886Y362405D01*
X256801Y362439D01*
X256760Y362443D01*
X256738Y362450D01*
X256706Y362449D01*
X256635Y362457D01*
X255429Y362457D01*
X255339Y362443D01*
X255248Y362435D01*
X255219Y362423D01*
X255187Y362418D01*
X255106Y362375D01*
X255022Y362339D01*
X254990Y362313D01*
X254969Y362302D01*
X254947Y362279D01*
X254891Y362234D01*
X252668Y360011D01*
X252615Y359937D01*
X252555Y359868D01*
X252543Y359837D01*
X252524Y359811D01*
X252497Y359724D01*
X252463Y359639D01*
X252459Y359598D01*
X252452Y359576D01*
X252453Y359544D01*
X252445Y359473D01*
X252445Y351612D01*
X247088Y346255D01*
X239512Y346255D01*
G37*
%LPD*%
%LPC*%
G36*
X239512Y498655D02*
X239512Y498655D01*
X234155Y504012D01*
X234155Y511588D01*
X239512Y516945D01*
X240538Y516945D01*
X240558Y516948D01*
X240577Y516946D01*
X240679Y516968D01*
X240781Y516984D01*
X240798Y516994D01*
X240818Y516998D01*
X240907Y517051D01*
X240998Y517100D01*
X241012Y517114D01*
X241029Y517124D01*
X241096Y517203D01*
X241168Y517278D01*
X241176Y517296D01*
X241189Y517311D01*
X241228Y517407D01*
X241271Y517501D01*
X241273Y517521D01*
X241281Y517539D01*
X241299Y517706D01*
X241299Y523294D01*
X241296Y523314D01*
X241298Y523333D01*
X241276Y523435D01*
X241260Y523537D01*
X241250Y523554D01*
X241246Y523574D01*
X241193Y523663D01*
X241144Y523754D01*
X241130Y523768D01*
X241120Y523785D01*
X241041Y523852D01*
X240966Y523924D01*
X240948Y523932D01*
X240933Y523945D01*
X240837Y523984D01*
X240743Y524027D01*
X240723Y524029D01*
X240705Y524037D01*
X240538Y524055D01*
X239512Y524055D01*
X234155Y529412D01*
X234155Y536988D01*
X239512Y542345D01*
X247088Y542345D01*
X252445Y536988D01*
X252445Y536702D01*
X252448Y536682D01*
X252446Y536663D01*
X252468Y536561D01*
X252484Y536459D01*
X252494Y536442D01*
X252498Y536422D01*
X252551Y536333D01*
X252600Y536242D01*
X252614Y536228D01*
X252624Y536211D01*
X252703Y536144D01*
X252778Y536072D01*
X252796Y536064D01*
X252811Y536051D01*
X252907Y536012D01*
X253001Y535969D01*
X253021Y535967D01*
X253039Y535959D01*
X253206Y535941D01*
X258794Y535941D01*
X258814Y535944D01*
X258833Y535942D01*
X258935Y535964D01*
X259037Y535980D01*
X259054Y535990D01*
X259074Y535994D01*
X259163Y536047D01*
X259254Y536096D01*
X259268Y536110D01*
X259285Y536120D01*
X259352Y536199D01*
X259424Y536274D01*
X259432Y536292D01*
X259445Y536307D01*
X259484Y536403D01*
X259527Y536497D01*
X259529Y536517D01*
X259537Y536535D01*
X259555Y536702D01*
X259555Y536988D01*
X264912Y542345D01*
X272488Y542345D01*
X277845Y536988D01*
X277845Y529412D01*
X272488Y524055D01*
X264912Y524055D01*
X259855Y529112D01*
X259781Y529165D01*
X259712Y529225D01*
X259682Y529237D01*
X259655Y529256D01*
X259568Y529283D01*
X259484Y529317D01*
X259443Y529321D01*
X259420Y529328D01*
X259388Y529327D01*
X259317Y529335D01*
X252683Y529335D01*
X252593Y529321D01*
X252502Y529313D01*
X252472Y529301D01*
X252440Y529296D01*
X252360Y529253D01*
X252276Y529217D01*
X252244Y529191D01*
X252223Y529180D01*
X252201Y529157D01*
X252145Y529112D01*
X248128Y525095D01*
X248075Y525021D01*
X248015Y524952D01*
X248003Y524922D01*
X247984Y524895D01*
X247957Y524808D01*
X247923Y524724D01*
X247919Y524683D01*
X247912Y524660D01*
X247913Y524628D01*
X247905Y524557D01*
X247905Y516443D01*
X247919Y516353D01*
X247927Y516262D01*
X247939Y516232D01*
X247944Y516200D01*
X247987Y516120D01*
X248023Y516036D01*
X248049Y516004D01*
X248060Y515983D01*
X248083Y515961D01*
X248128Y515905D01*
X252445Y511588D01*
X252445Y511556D01*
X252448Y511536D01*
X252446Y511517D01*
X252468Y511415D01*
X252484Y511313D01*
X252494Y511296D01*
X252498Y511276D01*
X252551Y511187D01*
X252600Y511096D01*
X252614Y511082D01*
X252624Y511065D01*
X252703Y510998D01*
X252778Y510926D01*
X252796Y510918D01*
X252811Y510905D01*
X252907Y510866D01*
X253001Y510823D01*
X253021Y510821D01*
X253039Y510813D01*
X253206Y510795D01*
X258794Y510795D01*
X258814Y510798D01*
X258833Y510796D01*
X258935Y510818D01*
X259037Y510834D01*
X259054Y510844D01*
X259074Y510848D01*
X259163Y510901D01*
X259254Y510950D01*
X259268Y510964D01*
X259285Y510974D01*
X259352Y511053D01*
X259424Y511128D01*
X259432Y511146D01*
X259445Y511161D01*
X259484Y511257D01*
X259527Y511351D01*
X259529Y511371D01*
X259537Y511389D01*
X259555Y511556D01*
X259555Y511588D01*
X264912Y516945D01*
X272488Y516945D01*
X277845Y511588D01*
X277845Y504012D01*
X272488Y498655D01*
X264912Y498655D01*
X259601Y503966D01*
X259527Y504019D01*
X259458Y504079D01*
X259428Y504091D01*
X259401Y504110D01*
X259314Y504137D01*
X259230Y504171D01*
X259189Y504175D01*
X259166Y504182D01*
X259134Y504181D01*
X259063Y504189D01*
X252937Y504189D01*
X252847Y504175D01*
X252756Y504167D01*
X252726Y504155D01*
X252694Y504150D01*
X252614Y504107D01*
X252530Y504071D01*
X252498Y504045D01*
X252477Y504034D01*
X252455Y504011D01*
X252399Y503966D01*
X247088Y498655D01*
X239512Y498655D01*
G37*
%LPD*%
%LPC*%
G36*
X391505Y119667D02*
X391505Y119667D01*
X387450Y121347D01*
X384347Y124450D01*
X382667Y128505D01*
X382667Y150895D01*
X384347Y154950D01*
X387450Y158053D01*
X391505Y159733D01*
X395895Y159733D01*
X399950Y158053D01*
X403053Y154950D01*
X404733Y150895D01*
X404733Y128505D01*
X403053Y124450D01*
X399950Y121347D01*
X395895Y119667D01*
X391505Y119667D01*
G37*
%LPD*%
%LPC*%
G36*
X366105Y119667D02*
X366105Y119667D01*
X362050Y121347D01*
X358947Y124450D01*
X357267Y128505D01*
X357267Y150895D01*
X358947Y154950D01*
X362050Y158053D01*
X366105Y159733D01*
X370495Y159733D01*
X374550Y158053D01*
X377653Y154950D01*
X379333Y150895D01*
X379333Y128505D01*
X377653Y124450D01*
X374550Y121347D01*
X370495Y119667D01*
X366105Y119667D01*
G37*
%LPD*%
%LPC*%
G36*
X501552Y138429D02*
X501552Y138429D01*
X499394Y140587D01*
X496756Y143225D01*
X496661Y143293D01*
X496568Y143363D01*
X496562Y143365D01*
X496557Y143368D01*
X496445Y143403D01*
X496334Y143439D01*
X496328Y143439D01*
X496322Y143441D01*
X496205Y143438D01*
X496088Y143437D01*
X496081Y143435D01*
X496076Y143434D01*
X496058Y143428D01*
X495927Y143390D01*
X495119Y143055D01*
X491481Y143055D01*
X488120Y144447D01*
X485547Y147020D01*
X484155Y150381D01*
X484155Y154019D01*
X485547Y157380D01*
X488120Y159953D01*
X491481Y161345D01*
X495119Y161345D01*
X498480Y159953D01*
X501053Y157380D01*
X502445Y154019D01*
X502445Y150381D01*
X501613Y148374D01*
X501586Y148259D01*
X501558Y148147D01*
X501559Y148141D01*
X501557Y148134D01*
X501568Y148018D01*
X501577Y147902D01*
X501580Y147896D01*
X501580Y147890D01*
X501628Y147782D01*
X501674Y147675D01*
X501678Y147669D01*
X501680Y147665D01*
X501693Y147651D01*
X501778Y147544D01*
X504065Y145258D01*
X504139Y145205D01*
X504208Y145145D01*
X504239Y145133D01*
X504265Y145114D01*
X504352Y145087D01*
X504437Y145053D01*
X504478Y145049D01*
X504500Y145042D01*
X504532Y145043D01*
X504603Y145035D01*
X505809Y145035D01*
X505899Y145049D01*
X505990Y145057D01*
X506019Y145069D01*
X506051Y145074D01*
X506132Y145117D01*
X506216Y145153D01*
X506248Y145179D01*
X506269Y145190D01*
X506291Y145213D01*
X506347Y145258D01*
X509332Y148243D01*
X509385Y148317D01*
X509445Y148386D01*
X509457Y148417D01*
X509476Y148443D01*
X509503Y148530D01*
X509537Y148615D01*
X509541Y148656D01*
X509548Y148678D01*
X509547Y148710D01*
X509555Y148781D01*
X509555Y155988D01*
X514912Y161345D01*
X522488Y161345D01*
X527845Y155988D01*
X527845Y148412D01*
X522488Y143055D01*
X514912Y143055D01*
X514737Y143230D01*
X514721Y143242D01*
X514709Y143257D01*
X514622Y143313D01*
X514538Y143374D01*
X514519Y143379D01*
X514502Y143390D01*
X514402Y143416D01*
X514303Y143446D01*
X514283Y143445D01*
X514263Y143450D01*
X514160Y143442D01*
X514057Y143440D01*
X514038Y143433D01*
X514018Y143431D01*
X513923Y143391D01*
X513826Y143355D01*
X513810Y143343D01*
X513792Y143335D01*
X513661Y143230D01*
X508860Y138429D01*
X501552Y138429D01*
G37*
%LPD*%
%LPC*%
G36*
X252378Y138429D02*
X252378Y138429D01*
X250220Y140587D01*
X247340Y143467D01*
X247245Y143535D01*
X247152Y143605D01*
X247146Y143607D01*
X247141Y143610D01*
X247029Y143645D01*
X246918Y143681D01*
X246912Y143681D01*
X246906Y143683D01*
X246789Y143680D01*
X246672Y143679D01*
X246665Y143676D01*
X246660Y143676D01*
X246642Y143670D01*
X246511Y143632D01*
X245119Y143055D01*
X241481Y143055D01*
X238120Y144447D01*
X235547Y147020D01*
X234155Y150381D01*
X234155Y154019D01*
X235547Y157380D01*
X238120Y159953D01*
X241481Y161345D01*
X245119Y161345D01*
X248480Y159953D01*
X251053Y157380D01*
X252445Y154019D01*
X252445Y150381D01*
X251855Y148958D01*
X251829Y148844D01*
X251800Y148731D01*
X251801Y148725D01*
X251799Y148719D01*
X251810Y148602D01*
X251819Y148486D01*
X251822Y148480D01*
X251822Y148474D01*
X251870Y148366D01*
X251916Y148259D01*
X251920Y148254D01*
X251922Y148249D01*
X251935Y148235D01*
X252020Y148128D01*
X254351Y145798D01*
X254367Y145786D01*
X254379Y145771D01*
X254467Y145715D01*
X254550Y145655D01*
X254569Y145649D01*
X254586Y145638D01*
X254687Y145613D01*
X254786Y145582D01*
X254805Y145583D01*
X254825Y145578D01*
X254928Y145586D01*
X255031Y145589D01*
X255050Y145595D01*
X255070Y145597D01*
X255165Y145637D01*
X255262Y145673D01*
X255278Y145685D01*
X255296Y145693D01*
X255427Y145798D01*
X259332Y149703D01*
X259385Y149777D01*
X259445Y149846D01*
X259457Y149877D01*
X259476Y149903D01*
X259503Y149990D01*
X259537Y150075D01*
X259541Y150116D01*
X259548Y150138D01*
X259547Y150170D01*
X259555Y150241D01*
X259555Y155988D01*
X264912Y161345D01*
X272488Y161345D01*
X277845Y155988D01*
X277845Y148412D01*
X272488Y143055D01*
X264912Y143055D01*
X264007Y143960D01*
X263991Y143972D01*
X263979Y143987D01*
X263891Y144043D01*
X263808Y144104D01*
X263789Y144109D01*
X263772Y144120D01*
X263671Y144146D01*
X263573Y144176D01*
X263553Y144175D01*
X263533Y144180D01*
X263430Y144172D01*
X263327Y144170D01*
X263308Y144163D01*
X263288Y144161D01*
X263193Y144121D01*
X263096Y144085D01*
X263080Y144073D01*
X263062Y144065D01*
X262931Y143960D01*
X257400Y138429D01*
X252378Y138429D01*
G37*
%LPD*%
%LPC*%
G36*
X489512Y346255D02*
X489512Y346255D01*
X484155Y351612D01*
X484155Y359188D01*
X489512Y364545D01*
X497088Y364545D01*
X501491Y360142D01*
X501565Y360089D01*
X501634Y360029D01*
X501664Y360017D01*
X501691Y359998D01*
X501778Y359971D01*
X501862Y359937D01*
X501903Y359933D01*
X501926Y359926D01*
X501958Y359927D01*
X502029Y359919D01*
X509971Y359919D01*
X510061Y359933D01*
X510152Y359941D01*
X510182Y359953D01*
X510214Y359958D01*
X510294Y360001D01*
X510378Y360037D01*
X510410Y360063D01*
X510431Y360074D01*
X510439Y360083D01*
X510440Y360083D01*
X510455Y360099D01*
X510509Y360142D01*
X514912Y364545D01*
X522488Y364545D01*
X527845Y359188D01*
X527845Y351612D01*
X522488Y346255D01*
X514912Y346255D01*
X509555Y351612D01*
X509555Y352552D01*
X509552Y352572D01*
X509554Y352591D01*
X509532Y352693D01*
X509516Y352795D01*
X509506Y352812D01*
X509502Y352832D01*
X509449Y352921D01*
X509400Y353012D01*
X509386Y353026D01*
X509376Y353043D01*
X509297Y353110D01*
X509222Y353182D01*
X509204Y353190D01*
X509189Y353203D01*
X509093Y353242D01*
X508999Y353285D01*
X508979Y353287D01*
X508961Y353295D01*
X508794Y353313D01*
X503206Y353313D01*
X503186Y353310D01*
X503167Y353312D01*
X503065Y353290D01*
X502963Y353274D01*
X502946Y353264D01*
X502926Y353260D01*
X502837Y353207D01*
X502746Y353158D01*
X502732Y353144D01*
X502715Y353134D01*
X502648Y353055D01*
X502576Y352980D01*
X502568Y352962D01*
X502555Y352947D01*
X502516Y352851D01*
X502473Y352757D01*
X502471Y352737D01*
X502463Y352719D01*
X502445Y352552D01*
X502445Y351612D01*
X497088Y346255D01*
X489512Y346255D01*
G37*
%LPD*%
%LPC*%
G36*
X489512Y371655D02*
X489512Y371655D01*
X484155Y377012D01*
X484155Y384588D01*
X489512Y389945D01*
X497088Y389945D01*
X501745Y385288D01*
X501819Y385235D01*
X501888Y385175D01*
X501918Y385163D01*
X501945Y385144D01*
X502032Y385117D01*
X502116Y385083D01*
X502157Y385079D01*
X502180Y385072D01*
X502212Y385073D01*
X502283Y385065D01*
X509717Y385065D01*
X509807Y385079D01*
X509898Y385087D01*
X509928Y385099D01*
X509960Y385104D01*
X510040Y385147D01*
X510124Y385183D01*
X510156Y385209D01*
X510177Y385220D01*
X510199Y385243D01*
X510255Y385288D01*
X514912Y389945D01*
X522488Y389945D01*
X527845Y384588D01*
X527845Y377012D01*
X522488Y371655D01*
X514912Y371655D01*
X509555Y377012D01*
X509555Y377698D01*
X509552Y377718D01*
X509554Y377737D01*
X509532Y377839D01*
X509516Y377941D01*
X509506Y377958D01*
X509502Y377978D01*
X509449Y378067D01*
X509400Y378158D01*
X509386Y378172D01*
X509376Y378189D01*
X509297Y378256D01*
X509222Y378328D01*
X509204Y378336D01*
X509189Y378349D01*
X509093Y378388D01*
X508999Y378431D01*
X508979Y378433D01*
X508961Y378441D01*
X508794Y378459D01*
X503206Y378459D01*
X503186Y378456D01*
X503167Y378458D01*
X503065Y378436D01*
X502963Y378420D01*
X502946Y378410D01*
X502926Y378406D01*
X502837Y378353D01*
X502746Y378304D01*
X502732Y378290D01*
X502715Y378280D01*
X502648Y378201D01*
X502576Y378126D01*
X502568Y378108D01*
X502555Y378093D01*
X502516Y377997D01*
X502473Y377903D01*
X502471Y377883D01*
X502463Y377865D01*
X502445Y377698D01*
X502445Y377012D01*
X497088Y371655D01*
X489512Y371655D01*
G37*
%LPD*%
%LPC*%
G36*
X489512Y473255D02*
X489512Y473255D01*
X484155Y478612D01*
X484155Y486188D01*
X489512Y491545D01*
X497088Y491545D01*
X502497Y486136D01*
X502498Y486130D01*
X502551Y486041D01*
X502600Y485950D01*
X502614Y485936D01*
X502624Y485919D01*
X502703Y485852D01*
X502778Y485780D01*
X502796Y485772D01*
X502811Y485759D01*
X502907Y485720D01*
X503001Y485677D01*
X503021Y485675D01*
X503039Y485667D01*
X503206Y485649D01*
X508794Y485649D01*
X508814Y485652D01*
X508833Y485650D01*
X508935Y485672D01*
X509037Y485688D01*
X509054Y485698D01*
X509074Y485702D01*
X509163Y485755D01*
X509254Y485804D01*
X509268Y485818D01*
X509285Y485828D01*
X509352Y485907D01*
X509424Y485982D01*
X509432Y486000D01*
X509445Y486015D01*
X509484Y486111D01*
X509488Y486120D01*
X514912Y491545D01*
X522488Y491545D01*
X527845Y486188D01*
X527845Y478612D01*
X522488Y473255D01*
X514912Y473255D01*
X509347Y478820D01*
X509273Y478873D01*
X509204Y478933D01*
X509174Y478945D01*
X509147Y478964D01*
X509060Y478991D01*
X508976Y479025D01*
X508935Y479029D01*
X508912Y479036D01*
X508880Y479035D01*
X508809Y479043D01*
X503191Y479043D01*
X503101Y479029D01*
X503010Y479021D01*
X502980Y479009D01*
X502948Y479004D01*
X502868Y478961D01*
X502784Y478925D01*
X502752Y478899D01*
X502731Y478888D01*
X502709Y478865D01*
X502653Y478820D01*
X497088Y473255D01*
X489512Y473255D01*
G37*
%LPD*%
%LPC*%
G36*
X489512Y244655D02*
X489512Y244655D01*
X484155Y250012D01*
X484155Y257588D01*
X489512Y262945D01*
X497088Y262945D01*
X502497Y257536D01*
X502498Y257530D01*
X502551Y257441D01*
X502600Y257350D01*
X502614Y257336D01*
X502624Y257319D01*
X502703Y257252D01*
X502778Y257180D01*
X502796Y257172D01*
X502811Y257159D01*
X502907Y257120D01*
X503001Y257077D01*
X503021Y257075D01*
X503039Y257067D01*
X503206Y257049D01*
X508794Y257049D01*
X508814Y257052D01*
X508833Y257050D01*
X508935Y257072D01*
X509037Y257088D01*
X509054Y257098D01*
X509074Y257102D01*
X509163Y257155D01*
X509254Y257204D01*
X509268Y257218D01*
X509285Y257228D01*
X509352Y257307D01*
X509424Y257382D01*
X509432Y257400D01*
X509445Y257415D01*
X509484Y257511D01*
X509488Y257520D01*
X514912Y262945D01*
X522488Y262945D01*
X527845Y257588D01*
X527845Y250012D01*
X522488Y244655D01*
X514912Y244655D01*
X509347Y250220D01*
X509273Y250273D01*
X509204Y250333D01*
X509174Y250345D01*
X509147Y250364D01*
X509060Y250391D01*
X508976Y250425D01*
X508935Y250429D01*
X508912Y250436D01*
X508880Y250435D01*
X508809Y250443D01*
X503191Y250443D01*
X503101Y250429D01*
X503010Y250421D01*
X502980Y250409D01*
X502948Y250404D01*
X502868Y250361D01*
X502784Y250325D01*
X502752Y250299D01*
X502731Y250288D01*
X502709Y250265D01*
X502653Y250220D01*
X497088Y244655D01*
X489512Y244655D01*
G37*
%LPD*%
%LPC*%
G36*
X239512Y473255D02*
X239512Y473255D01*
X234155Y478612D01*
X234155Y486188D01*
X239512Y491545D01*
X247088Y491545D01*
X252497Y486136D01*
X252498Y486130D01*
X252551Y486041D01*
X252600Y485950D01*
X252614Y485936D01*
X252624Y485919D01*
X252703Y485852D01*
X252778Y485780D01*
X252796Y485772D01*
X252811Y485759D01*
X252907Y485720D01*
X253001Y485677D01*
X253021Y485675D01*
X253039Y485667D01*
X253206Y485649D01*
X258794Y485649D01*
X258814Y485652D01*
X258833Y485650D01*
X258935Y485672D01*
X259037Y485688D01*
X259054Y485698D01*
X259074Y485702D01*
X259163Y485755D01*
X259254Y485804D01*
X259268Y485818D01*
X259285Y485828D01*
X259352Y485907D01*
X259424Y485982D01*
X259432Y486000D01*
X259445Y486015D01*
X259484Y486111D01*
X259488Y486120D01*
X264912Y491545D01*
X272488Y491545D01*
X277845Y486188D01*
X277845Y478612D01*
X272488Y473255D01*
X264912Y473255D01*
X259347Y478820D01*
X259273Y478873D01*
X259204Y478933D01*
X259174Y478945D01*
X259147Y478964D01*
X259060Y478991D01*
X258976Y479025D01*
X258935Y479029D01*
X258912Y479036D01*
X258880Y479035D01*
X258809Y479043D01*
X253191Y479043D01*
X253101Y479029D01*
X253010Y479021D01*
X252980Y479009D01*
X252948Y479004D01*
X252868Y478961D01*
X252784Y478925D01*
X252752Y478899D01*
X252731Y478888D01*
X252709Y478865D01*
X252653Y478820D01*
X247088Y473255D01*
X239512Y473255D01*
G37*
%LPD*%
%LPC*%
G36*
X239512Y320855D02*
X239512Y320855D01*
X234155Y326212D01*
X234155Y333788D01*
X239512Y339145D01*
X247088Y339145D01*
X252445Y333788D01*
X252445Y333248D01*
X252448Y333228D01*
X252446Y333209D01*
X252468Y333107D01*
X252484Y333005D01*
X252494Y332988D01*
X252498Y332968D01*
X252551Y332879D01*
X252600Y332788D01*
X252614Y332774D01*
X252624Y332757D01*
X252703Y332690D01*
X252778Y332618D01*
X252796Y332610D01*
X252811Y332597D01*
X252907Y332558D01*
X253001Y332515D01*
X253021Y332513D01*
X253039Y332505D01*
X253206Y332487D01*
X258794Y332487D01*
X258814Y332490D01*
X258833Y332488D01*
X258935Y332510D01*
X259037Y332526D01*
X259054Y332536D01*
X259074Y332540D01*
X259163Y332593D01*
X259254Y332642D01*
X259268Y332656D01*
X259285Y332666D01*
X259352Y332745D01*
X259424Y332820D01*
X259432Y332838D01*
X259445Y332853D01*
X259484Y332949D01*
X259527Y333043D01*
X259529Y333063D01*
X259537Y333081D01*
X259555Y333248D01*
X259555Y333788D01*
X264912Y339145D01*
X272488Y339145D01*
X277845Y333788D01*
X277845Y326212D01*
X272488Y320855D01*
X264912Y320855D01*
X260109Y325658D01*
X260035Y325711D01*
X259966Y325771D01*
X259936Y325783D01*
X259909Y325802D01*
X259822Y325829D01*
X259738Y325863D01*
X259697Y325867D01*
X259674Y325874D01*
X259642Y325873D01*
X259571Y325881D01*
X252429Y325881D01*
X252339Y325867D01*
X252248Y325859D01*
X252218Y325847D01*
X252186Y325842D01*
X252106Y325799D01*
X252022Y325763D01*
X251990Y325737D01*
X251969Y325726D01*
X251947Y325703D01*
X251891Y325658D01*
X247088Y320855D01*
X239512Y320855D01*
G37*
%LPD*%
%LPC*%
G36*
X489512Y320855D02*
X489512Y320855D01*
X484155Y326212D01*
X484155Y333788D01*
X489512Y339145D01*
X497088Y339145D01*
X502445Y333788D01*
X502445Y333248D01*
X502448Y333228D01*
X502446Y333209D01*
X502468Y333107D01*
X502484Y333005D01*
X502494Y332988D01*
X502498Y332968D01*
X502551Y332879D01*
X502600Y332788D01*
X502614Y332774D01*
X502624Y332757D01*
X502703Y332690D01*
X502778Y332618D01*
X502796Y332610D01*
X502811Y332597D01*
X502907Y332558D01*
X503001Y332515D01*
X503021Y332513D01*
X503039Y332505D01*
X503206Y332487D01*
X508794Y332487D01*
X508814Y332490D01*
X508833Y332488D01*
X508935Y332510D01*
X509037Y332526D01*
X509054Y332536D01*
X509074Y332540D01*
X509163Y332593D01*
X509254Y332642D01*
X509268Y332656D01*
X509285Y332666D01*
X509352Y332745D01*
X509424Y332820D01*
X509432Y332838D01*
X509445Y332853D01*
X509484Y332949D01*
X509527Y333043D01*
X509529Y333063D01*
X509537Y333081D01*
X509555Y333248D01*
X509555Y333788D01*
X514912Y339145D01*
X522488Y339145D01*
X527845Y333788D01*
X527845Y326212D01*
X522488Y320855D01*
X514912Y320855D01*
X510109Y325658D01*
X510035Y325711D01*
X509966Y325771D01*
X509936Y325783D01*
X509909Y325802D01*
X509822Y325829D01*
X509738Y325863D01*
X509697Y325867D01*
X509674Y325874D01*
X509642Y325873D01*
X509571Y325881D01*
X502429Y325881D01*
X502339Y325867D01*
X502248Y325859D01*
X502218Y325847D01*
X502186Y325842D01*
X502106Y325799D01*
X502022Y325763D01*
X501990Y325737D01*
X501969Y325726D01*
X501947Y325703D01*
X501891Y325658D01*
X497088Y320855D01*
X489512Y320855D01*
G37*
%LPD*%
%LPC*%
G36*
X489512Y447855D02*
X489512Y447855D01*
X484155Y453212D01*
X484155Y460788D01*
X489512Y466145D01*
X497088Y466145D01*
X502507Y460726D01*
X502581Y460673D01*
X502650Y460613D01*
X502680Y460601D01*
X502707Y460582D01*
X502794Y460555D01*
X502878Y460521D01*
X502919Y460517D01*
X502942Y460510D01*
X502974Y460511D01*
X503045Y460503D01*
X508955Y460503D01*
X509045Y460517D01*
X509136Y460525D01*
X509166Y460537D01*
X509198Y460542D01*
X509278Y460585D01*
X509362Y460621D01*
X509394Y460647D01*
X509415Y460658D01*
X509437Y460681D01*
X509493Y460726D01*
X514912Y466145D01*
X522488Y466145D01*
X527845Y460788D01*
X527845Y453212D01*
X522488Y447855D01*
X514912Y447855D01*
X509544Y453224D01*
X509532Y453277D01*
X509516Y453379D01*
X509506Y453396D01*
X509502Y453416D01*
X509449Y453505D01*
X509400Y453596D01*
X509386Y453610D01*
X509376Y453627D01*
X509297Y453694D01*
X509222Y453766D01*
X509204Y453774D01*
X509189Y453787D01*
X509093Y453826D01*
X508999Y453869D01*
X508979Y453871D01*
X508961Y453879D01*
X508794Y453897D01*
X503206Y453897D01*
X503186Y453894D01*
X503167Y453896D01*
X503065Y453874D01*
X502963Y453858D01*
X502946Y453848D01*
X502926Y453844D01*
X502837Y453791D01*
X502746Y453742D01*
X502732Y453728D01*
X502715Y453718D01*
X502648Y453639D01*
X502576Y453564D01*
X502568Y453546D01*
X502555Y453531D01*
X502516Y453435D01*
X502473Y453341D01*
X502471Y453321D01*
X502463Y453303D01*
X502454Y453222D01*
X497088Y447855D01*
X489512Y447855D01*
G37*
%LPD*%
%LPC*%
G36*
X489512Y219255D02*
X489512Y219255D01*
X484155Y224612D01*
X484155Y232188D01*
X489512Y237545D01*
X497088Y237545D01*
X502507Y232126D01*
X502581Y232073D01*
X502650Y232013D01*
X502680Y232001D01*
X502707Y231982D01*
X502794Y231955D01*
X502878Y231921D01*
X502919Y231917D01*
X502942Y231910D01*
X502974Y231911D01*
X503045Y231903D01*
X508955Y231903D01*
X509045Y231917D01*
X509136Y231925D01*
X509166Y231937D01*
X509198Y231942D01*
X509278Y231985D01*
X509362Y232021D01*
X509394Y232047D01*
X509415Y232058D01*
X509437Y232081D01*
X509493Y232126D01*
X514912Y237545D01*
X522488Y237545D01*
X527845Y232188D01*
X527845Y224612D01*
X522488Y219255D01*
X514912Y219255D01*
X509544Y224624D01*
X509532Y224677D01*
X509516Y224779D01*
X509506Y224796D01*
X509502Y224816D01*
X509449Y224905D01*
X509400Y224996D01*
X509386Y225010D01*
X509376Y225027D01*
X509297Y225094D01*
X509222Y225166D01*
X509204Y225174D01*
X509189Y225187D01*
X509093Y225226D01*
X508999Y225269D01*
X508979Y225271D01*
X508961Y225279D01*
X508794Y225297D01*
X503206Y225297D01*
X503186Y225294D01*
X503167Y225296D01*
X503065Y225274D01*
X502963Y225258D01*
X502946Y225248D01*
X502926Y225244D01*
X502837Y225191D01*
X502746Y225142D01*
X502732Y225128D01*
X502715Y225118D01*
X502648Y225039D01*
X502576Y224964D01*
X502568Y224946D01*
X502555Y224931D01*
X502516Y224835D01*
X502473Y224741D01*
X502471Y224721D01*
X502463Y224703D01*
X502454Y224622D01*
X497088Y219255D01*
X489512Y219255D01*
G37*
%LPD*%
%LPC*%
G36*
X239512Y447855D02*
X239512Y447855D01*
X234155Y453212D01*
X234155Y460788D01*
X239512Y466145D01*
X247088Y466145D01*
X252507Y460726D01*
X252581Y460673D01*
X252650Y460613D01*
X252680Y460601D01*
X252707Y460582D01*
X252794Y460555D01*
X252878Y460521D01*
X252919Y460517D01*
X252942Y460510D01*
X252974Y460511D01*
X253045Y460503D01*
X258955Y460503D01*
X259045Y460517D01*
X259136Y460525D01*
X259166Y460537D01*
X259198Y460542D01*
X259278Y460585D01*
X259362Y460621D01*
X259394Y460647D01*
X259415Y460658D01*
X259437Y460681D01*
X259493Y460726D01*
X264912Y466145D01*
X272488Y466145D01*
X277845Y460788D01*
X277845Y453212D01*
X272488Y447855D01*
X264912Y447855D01*
X259544Y453224D01*
X259532Y453277D01*
X259516Y453379D01*
X259506Y453396D01*
X259502Y453416D01*
X259449Y453505D01*
X259400Y453596D01*
X259386Y453610D01*
X259376Y453627D01*
X259297Y453694D01*
X259222Y453766D01*
X259204Y453774D01*
X259189Y453787D01*
X259093Y453826D01*
X258999Y453869D01*
X258979Y453871D01*
X258961Y453879D01*
X258794Y453897D01*
X253206Y453897D01*
X253186Y453894D01*
X253167Y453896D01*
X253065Y453874D01*
X252963Y453858D01*
X252946Y453848D01*
X252926Y453844D01*
X252837Y453791D01*
X252746Y453742D01*
X252732Y453728D01*
X252715Y453718D01*
X252648Y453639D01*
X252576Y453564D01*
X252568Y453546D01*
X252555Y453531D01*
X252516Y453435D01*
X252473Y453341D01*
X252471Y453321D01*
X252463Y453303D01*
X252454Y453222D01*
X247088Y447855D01*
X239512Y447855D01*
G37*
%LPD*%
%LPC*%
G36*
X239512Y219255D02*
X239512Y219255D01*
X234155Y224612D01*
X234155Y232188D01*
X239512Y237545D01*
X247088Y237545D01*
X252507Y232126D01*
X252581Y232073D01*
X252650Y232013D01*
X252680Y232001D01*
X252707Y231982D01*
X252794Y231955D01*
X252878Y231921D01*
X252919Y231917D01*
X252942Y231910D01*
X252974Y231911D01*
X253045Y231903D01*
X258955Y231903D01*
X259045Y231917D01*
X259136Y231925D01*
X259166Y231937D01*
X259198Y231942D01*
X259278Y231985D01*
X259362Y232021D01*
X259394Y232047D01*
X259415Y232058D01*
X259437Y232081D01*
X259493Y232126D01*
X264912Y237545D01*
X272488Y237545D01*
X277845Y232188D01*
X277845Y224612D01*
X272488Y219255D01*
X264912Y219255D01*
X259544Y224624D01*
X259532Y224677D01*
X259516Y224779D01*
X259506Y224796D01*
X259502Y224816D01*
X259449Y224905D01*
X259400Y224996D01*
X259386Y225010D01*
X259376Y225027D01*
X259297Y225094D01*
X259222Y225166D01*
X259204Y225174D01*
X259189Y225187D01*
X259093Y225226D01*
X258999Y225269D01*
X258979Y225271D01*
X258961Y225279D01*
X258794Y225297D01*
X253206Y225297D01*
X253186Y225294D01*
X253167Y225296D01*
X253065Y225274D01*
X252963Y225258D01*
X252946Y225248D01*
X252926Y225244D01*
X252837Y225191D01*
X252746Y225142D01*
X252732Y225128D01*
X252715Y225118D01*
X252648Y225039D01*
X252576Y224964D01*
X252568Y224946D01*
X252555Y224931D01*
X252516Y224835D01*
X252473Y224741D01*
X252471Y224721D01*
X252463Y224703D01*
X252454Y224622D01*
X247088Y219255D01*
X239512Y219255D01*
G37*
%LPD*%
%LPC*%
G36*
X239512Y397055D02*
X239512Y397055D01*
X234155Y402412D01*
X234155Y409988D01*
X239512Y415345D01*
X247088Y415345D01*
X251999Y410434D01*
X252073Y410381D01*
X252142Y410321D01*
X252172Y410309D01*
X252199Y410290D01*
X252286Y410263D01*
X252370Y410229D01*
X252411Y410225D01*
X252434Y410218D01*
X252466Y410219D01*
X252537Y410211D01*
X259463Y410211D01*
X259553Y410225D01*
X259644Y410233D01*
X259674Y410245D01*
X259706Y410250D01*
X259786Y410293D01*
X259870Y410329D01*
X259902Y410355D01*
X259923Y410366D01*
X259945Y410389D01*
X260001Y410434D01*
X264912Y415345D01*
X272488Y415345D01*
X277845Y409988D01*
X277845Y402412D01*
X272488Y397055D01*
X264912Y397055D01*
X259555Y402412D01*
X259555Y402844D01*
X259552Y402864D01*
X259554Y402883D01*
X259532Y402985D01*
X259516Y403087D01*
X259506Y403104D01*
X259502Y403124D01*
X259449Y403213D01*
X259400Y403304D01*
X259386Y403318D01*
X259376Y403335D01*
X259297Y403402D01*
X259222Y403474D01*
X259204Y403482D01*
X259189Y403495D01*
X259093Y403534D01*
X258999Y403577D01*
X258979Y403579D01*
X258961Y403587D01*
X258794Y403605D01*
X253206Y403605D01*
X253186Y403602D01*
X253167Y403604D01*
X253065Y403582D01*
X252963Y403566D01*
X252946Y403556D01*
X252926Y403552D01*
X252837Y403499D01*
X252746Y403450D01*
X252732Y403436D01*
X252715Y403426D01*
X252648Y403347D01*
X252576Y403272D01*
X252568Y403254D01*
X252555Y403239D01*
X252516Y403143D01*
X252473Y403049D01*
X252471Y403029D01*
X252463Y403011D01*
X252445Y402844D01*
X252445Y402412D01*
X247088Y397055D01*
X239512Y397055D01*
G37*
%LPD*%
%LPC*%
G36*
X489512Y397055D02*
X489512Y397055D01*
X484155Y402412D01*
X484155Y409988D01*
X489512Y415345D01*
X497088Y415345D01*
X501999Y410434D01*
X502073Y410381D01*
X502142Y410321D01*
X502172Y410309D01*
X502199Y410290D01*
X502286Y410263D01*
X502370Y410229D01*
X502411Y410225D01*
X502434Y410218D01*
X502466Y410219D01*
X502537Y410211D01*
X509463Y410211D01*
X509553Y410225D01*
X509644Y410233D01*
X509674Y410245D01*
X509706Y410250D01*
X509786Y410293D01*
X509870Y410329D01*
X509902Y410355D01*
X509923Y410366D01*
X509945Y410389D01*
X510001Y410434D01*
X514912Y415345D01*
X522488Y415345D01*
X527845Y409988D01*
X527845Y402412D01*
X522488Y397055D01*
X514912Y397055D01*
X509555Y402412D01*
X509555Y402844D01*
X509552Y402864D01*
X509554Y402883D01*
X509532Y402985D01*
X509516Y403087D01*
X509506Y403104D01*
X509502Y403124D01*
X509449Y403213D01*
X509400Y403304D01*
X509386Y403318D01*
X509376Y403335D01*
X509297Y403402D01*
X509222Y403474D01*
X509204Y403482D01*
X509189Y403495D01*
X509093Y403534D01*
X508999Y403577D01*
X508979Y403579D01*
X508961Y403587D01*
X508794Y403605D01*
X503206Y403605D01*
X503186Y403602D01*
X503167Y403604D01*
X503065Y403582D01*
X502963Y403566D01*
X502946Y403556D01*
X502926Y403552D01*
X502837Y403499D01*
X502746Y403450D01*
X502732Y403436D01*
X502715Y403426D01*
X502648Y403347D01*
X502576Y403272D01*
X502568Y403254D01*
X502555Y403239D01*
X502516Y403143D01*
X502473Y403049D01*
X502471Y403029D01*
X502463Y403011D01*
X502445Y402844D01*
X502445Y402412D01*
X497088Y397055D01*
X489512Y397055D01*
G37*
%LPD*%
%LPC*%
G36*
X489512Y168455D02*
X489512Y168455D01*
X484155Y173812D01*
X484155Y181388D01*
X489512Y186745D01*
X497088Y186745D01*
X501999Y181834D01*
X502073Y181781D01*
X502142Y181721D01*
X502172Y181709D01*
X502199Y181690D01*
X502286Y181663D01*
X502370Y181629D01*
X502411Y181625D01*
X502434Y181618D01*
X502466Y181619D01*
X502537Y181611D01*
X509463Y181611D01*
X509553Y181625D01*
X509644Y181633D01*
X509674Y181645D01*
X509706Y181650D01*
X509786Y181693D01*
X509870Y181729D01*
X509902Y181755D01*
X509923Y181766D01*
X509945Y181789D01*
X510001Y181834D01*
X514912Y186745D01*
X522488Y186745D01*
X527845Y181388D01*
X527845Y173812D01*
X522488Y168455D01*
X514912Y168455D01*
X509555Y173812D01*
X509555Y174244D01*
X509552Y174264D01*
X509554Y174283D01*
X509532Y174385D01*
X509516Y174487D01*
X509506Y174504D01*
X509502Y174524D01*
X509449Y174613D01*
X509400Y174704D01*
X509386Y174718D01*
X509376Y174735D01*
X509297Y174802D01*
X509222Y174874D01*
X509204Y174882D01*
X509189Y174895D01*
X509093Y174934D01*
X508999Y174977D01*
X508979Y174979D01*
X508961Y174987D01*
X508794Y175005D01*
X503206Y175005D01*
X503186Y175002D01*
X503167Y175004D01*
X503065Y174982D01*
X502963Y174966D01*
X502946Y174956D01*
X502926Y174952D01*
X502837Y174899D01*
X502746Y174850D01*
X502732Y174836D01*
X502715Y174826D01*
X502648Y174747D01*
X502576Y174672D01*
X502568Y174654D01*
X502555Y174639D01*
X502516Y174543D01*
X502473Y174449D01*
X502471Y174429D01*
X502463Y174411D01*
X502445Y174244D01*
X502445Y173812D01*
X497088Y168455D01*
X489512Y168455D01*
G37*
%LPD*%
%LPC*%
G36*
X489512Y498655D02*
X489512Y498655D01*
X484155Y504012D01*
X484155Y511588D01*
X489512Y516945D01*
X497088Y516945D01*
X502445Y511588D01*
X502445Y511556D01*
X502448Y511536D01*
X502446Y511517D01*
X502468Y511415D01*
X502484Y511313D01*
X502494Y511296D01*
X502498Y511276D01*
X502551Y511187D01*
X502600Y511096D01*
X502614Y511082D01*
X502624Y511065D01*
X502703Y510998D01*
X502778Y510926D01*
X502796Y510918D01*
X502811Y510905D01*
X502907Y510866D01*
X503001Y510823D01*
X503021Y510821D01*
X503039Y510813D01*
X503206Y510795D01*
X508794Y510795D01*
X508814Y510798D01*
X508833Y510796D01*
X508935Y510818D01*
X509037Y510834D01*
X509054Y510844D01*
X509074Y510848D01*
X509163Y510901D01*
X509254Y510950D01*
X509268Y510964D01*
X509285Y510974D01*
X509352Y511053D01*
X509424Y511128D01*
X509432Y511146D01*
X509445Y511161D01*
X509484Y511257D01*
X509527Y511351D01*
X509529Y511371D01*
X509537Y511389D01*
X509555Y511556D01*
X509555Y511588D01*
X514912Y516945D01*
X522488Y516945D01*
X527845Y511588D01*
X527845Y504012D01*
X522488Y498655D01*
X514912Y498655D01*
X509601Y503966D01*
X509527Y504019D01*
X509458Y504079D01*
X509428Y504091D01*
X509401Y504110D01*
X509314Y504137D01*
X509230Y504171D01*
X509189Y504175D01*
X509166Y504182D01*
X509134Y504181D01*
X509063Y504189D01*
X502937Y504189D01*
X502847Y504175D01*
X502756Y504167D01*
X502726Y504155D01*
X502694Y504150D01*
X502614Y504107D01*
X502530Y504071D01*
X502498Y504045D01*
X502477Y504034D01*
X502455Y504011D01*
X502399Y503966D01*
X497088Y498655D01*
X489512Y498655D01*
G37*
%LPD*%
%LPC*%
G36*
X239512Y270055D02*
X239512Y270055D01*
X234155Y275412D01*
X234155Y282988D01*
X239512Y288345D01*
X247088Y288345D01*
X252445Y282988D01*
X252445Y282956D01*
X252448Y282936D01*
X252446Y282917D01*
X252468Y282815D01*
X252484Y282713D01*
X252494Y282696D01*
X252498Y282676D01*
X252551Y282587D01*
X252600Y282496D01*
X252614Y282482D01*
X252624Y282465D01*
X252703Y282398D01*
X252778Y282326D01*
X252796Y282318D01*
X252811Y282305D01*
X252907Y282266D01*
X253001Y282223D01*
X253021Y282221D01*
X253039Y282213D01*
X253206Y282195D01*
X258794Y282195D01*
X258814Y282198D01*
X258833Y282196D01*
X258935Y282218D01*
X259037Y282234D01*
X259054Y282244D01*
X259074Y282248D01*
X259163Y282301D01*
X259254Y282350D01*
X259268Y282364D01*
X259285Y282374D01*
X259352Y282453D01*
X259424Y282528D01*
X259432Y282546D01*
X259445Y282561D01*
X259484Y282657D01*
X259527Y282751D01*
X259529Y282771D01*
X259537Y282789D01*
X259555Y282956D01*
X259555Y282988D01*
X264912Y288345D01*
X272488Y288345D01*
X277845Y282988D01*
X277845Y275412D01*
X272488Y270055D01*
X264912Y270055D01*
X259601Y275366D01*
X259527Y275419D01*
X259458Y275479D01*
X259428Y275491D01*
X259401Y275510D01*
X259314Y275537D01*
X259230Y275571D01*
X259189Y275575D01*
X259166Y275582D01*
X259134Y275581D01*
X259063Y275589D01*
X252937Y275589D01*
X252847Y275575D01*
X252756Y275567D01*
X252726Y275555D01*
X252694Y275550D01*
X252614Y275507D01*
X252530Y275471D01*
X252498Y275445D01*
X252477Y275434D01*
X252455Y275411D01*
X252399Y275366D01*
X247088Y270055D01*
X239512Y270055D01*
G37*
%LPD*%
%LPC*%
G36*
X489512Y270055D02*
X489512Y270055D01*
X484155Y275412D01*
X484155Y282988D01*
X489512Y288345D01*
X497088Y288345D01*
X502445Y282988D01*
X502445Y282956D01*
X502448Y282936D01*
X502446Y282917D01*
X502468Y282815D01*
X502484Y282713D01*
X502494Y282696D01*
X502498Y282676D01*
X502551Y282587D01*
X502600Y282496D01*
X502614Y282482D01*
X502624Y282465D01*
X502703Y282398D01*
X502778Y282326D01*
X502796Y282318D01*
X502811Y282305D01*
X502907Y282266D01*
X503001Y282223D01*
X503021Y282221D01*
X503039Y282213D01*
X503206Y282195D01*
X508794Y282195D01*
X508814Y282198D01*
X508833Y282196D01*
X508935Y282218D01*
X509037Y282234D01*
X509054Y282244D01*
X509074Y282248D01*
X509163Y282301D01*
X509254Y282350D01*
X509268Y282364D01*
X509285Y282374D01*
X509352Y282453D01*
X509424Y282528D01*
X509432Y282546D01*
X509445Y282561D01*
X509484Y282657D01*
X509527Y282751D01*
X509529Y282771D01*
X509537Y282789D01*
X509555Y282956D01*
X509555Y282988D01*
X514912Y288345D01*
X522488Y288345D01*
X527845Y282988D01*
X527845Y275412D01*
X522488Y270055D01*
X514912Y270055D01*
X509601Y275366D01*
X509527Y275419D01*
X509458Y275479D01*
X509428Y275491D01*
X509401Y275510D01*
X509314Y275537D01*
X509230Y275571D01*
X509189Y275575D01*
X509166Y275582D01*
X509134Y275581D01*
X509063Y275589D01*
X502937Y275589D01*
X502847Y275575D01*
X502756Y275567D01*
X502726Y275555D01*
X502694Y275550D01*
X502614Y275507D01*
X502530Y275471D01*
X502498Y275445D01*
X502477Y275434D01*
X502455Y275411D01*
X502399Y275366D01*
X497088Y270055D01*
X489512Y270055D01*
G37*
%LPD*%
%LPC*%
G36*
X239512Y295455D02*
X239512Y295455D01*
X234155Y300812D01*
X234155Y308388D01*
X239512Y313745D01*
X247088Y313745D01*
X252445Y308388D01*
X252445Y308102D01*
X252448Y308082D01*
X252446Y308063D01*
X252468Y307961D01*
X252484Y307859D01*
X252494Y307842D01*
X252498Y307822D01*
X252551Y307733D01*
X252600Y307642D01*
X252614Y307628D01*
X252624Y307611D01*
X252703Y307544D01*
X252778Y307472D01*
X252796Y307464D01*
X252811Y307451D01*
X252907Y307412D01*
X253001Y307369D01*
X253021Y307367D01*
X253039Y307359D01*
X253206Y307341D01*
X258794Y307341D01*
X258814Y307344D01*
X258833Y307342D01*
X258935Y307364D01*
X259037Y307380D01*
X259054Y307390D01*
X259074Y307394D01*
X259163Y307447D01*
X259254Y307496D01*
X259268Y307510D01*
X259285Y307520D01*
X259352Y307599D01*
X259424Y307674D01*
X259432Y307692D01*
X259445Y307707D01*
X259484Y307803D01*
X259527Y307897D01*
X259529Y307917D01*
X259537Y307935D01*
X259555Y308102D01*
X259555Y308388D01*
X264912Y313745D01*
X272488Y313745D01*
X277845Y308388D01*
X277845Y300812D01*
X272488Y295455D01*
X264912Y295455D01*
X259855Y300512D01*
X259781Y300565D01*
X259712Y300625D01*
X259682Y300637D01*
X259655Y300656D01*
X259568Y300683D01*
X259484Y300717D01*
X259443Y300721D01*
X259420Y300728D01*
X259388Y300727D01*
X259317Y300735D01*
X252683Y300735D01*
X252593Y300721D01*
X252502Y300713D01*
X252472Y300701D01*
X252440Y300696D01*
X252360Y300653D01*
X252276Y300617D01*
X252244Y300591D01*
X252223Y300580D01*
X252201Y300557D01*
X252145Y300512D01*
X247088Y295455D01*
X239512Y295455D01*
G37*
%LPD*%
%LPC*%
G36*
X489512Y295455D02*
X489512Y295455D01*
X484155Y300812D01*
X484155Y308388D01*
X489512Y313745D01*
X497088Y313745D01*
X502445Y308388D01*
X502445Y308102D01*
X502448Y308082D01*
X502446Y308063D01*
X502468Y307961D01*
X502484Y307859D01*
X502494Y307842D01*
X502498Y307822D01*
X502551Y307733D01*
X502600Y307642D01*
X502614Y307628D01*
X502624Y307611D01*
X502703Y307544D01*
X502778Y307472D01*
X502796Y307464D01*
X502811Y307451D01*
X502907Y307412D01*
X503001Y307369D01*
X503021Y307367D01*
X503039Y307359D01*
X503206Y307341D01*
X508794Y307341D01*
X508814Y307344D01*
X508833Y307342D01*
X508935Y307364D01*
X509037Y307380D01*
X509054Y307390D01*
X509074Y307394D01*
X509163Y307447D01*
X509254Y307496D01*
X509268Y307510D01*
X509285Y307520D01*
X509352Y307599D01*
X509424Y307674D01*
X509432Y307692D01*
X509445Y307707D01*
X509484Y307803D01*
X509527Y307897D01*
X509529Y307917D01*
X509537Y307935D01*
X509555Y308102D01*
X509555Y308388D01*
X514912Y313745D01*
X522488Y313745D01*
X527845Y308388D01*
X527845Y300812D01*
X522488Y295455D01*
X514912Y295455D01*
X509855Y300512D01*
X509781Y300565D01*
X509712Y300625D01*
X509682Y300637D01*
X509655Y300656D01*
X509568Y300683D01*
X509484Y300717D01*
X509443Y300721D01*
X509420Y300728D01*
X509388Y300727D01*
X509317Y300735D01*
X502683Y300735D01*
X502593Y300721D01*
X502502Y300713D01*
X502472Y300701D01*
X502440Y300696D01*
X502360Y300653D01*
X502276Y300617D01*
X502244Y300591D01*
X502223Y300580D01*
X502201Y300557D01*
X502145Y300512D01*
X497088Y295455D01*
X489512Y295455D01*
G37*
%LPD*%
%LPC*%
G36*
X489512Y193855D02*
X489512Y193855D01*
X484155Y199212D01*
X484155Y206788D01*
X489512Y212145D01*
X497088Y212145D01*
X502253Y206980D01*
X502327Y206927D01*
X502396Y206867D01*
X502426Y206855D01*
X502453Y206836D01*
X502540Y206809D01*
X502624Y206775D01*
X502665Y206771D01*
X502688Y206764D01*
X502720Y206765D01*
X502791Y206757D01*
X509209Y206757D01*
X509299Y206771D01*
X509390Y206779D01*
X509420Y206791D01*
X509452Y206796D01*
X509532Y206839D01*
X509616Y206875D01*
X509648Y206901D01*
X509669Y206912D01*
X509691Y206935D01*
X509747Y206980D01*
X514912Y212145D01*
X522488Y212145D01*
X527845Y206788D01*
X527845Y199212D01*
X522488Y193855D01*
X514912Y193855D01*
X509555Y199212D01*
X509555Y199390D01*
X509552Y199410D01*
X509554Y199429D01*
X509532Y199531D01*
X509516Y199633D01*
X509506Y199650D01*
X509502Y199670D01*
X509449Y199759D01*
X509400Y199850D01*
X509386Y199864D01*
X509376Y199881D01*
X509297Y199948D01*
X509222Y200020D01*
X509204Y200028D01*
X509189Y200041D01*
X509093Y200080D01*
X508999Y200123D01*
X508979Y200125D01*
X508961Y200133D01*
X508794Y200151D01*
X503206Y200151D01*
X503186Y200148D01*
X503167Y200150D01*
X503065Y200128D01*
X502963Y200112D01*
X502946Y200102D01*
X502926Y200098D01*
X502837Y200045D01*
X502746Y199996D01*
X502732Y199982D01*
X502715Y199972D01*
X502648Y199893D01*
X502576Y199818D01*
X502568Y199800D01*
X502555Y199785D01*
X502516Y199689D01*
X502473Y199595D01*
X502471Y199575D01*
X502463Y199557D01*
X502445Y199390D01*
X502445Y199212D01*
X497088Y193855D01*
X489512Y193855D01*
G37*
%LPD*%
%LPC*%
G36*
X239512Y193855D02*
X239512Y193855D01*
X234155Y199212D01*
X234155Y206788D01*
X239512Y212145D01*
X247088Y212145D01*
X252253Y206980D01*
X252327Y206927D01*
X252396Y206867D01*
X252426Y206855D01*
X252453Y206836D01*
X252540Y206809D01*
X252624Y206775D01*
X252665Y206771D01*
X252688Y206764D01*
X252720Y206765D01*
X252791Y206757D01*
X259209Y206757D01*
X259299Y206771D01*
X259390Y206779D01*
X259420Y206791D01*
X259452Y206796D01*
X259532Y206839D01*
X259616Y206875D01*
X259648Y206901D01*
X259669Y206912D01*
X259691Y206935D01*
X259747Y206980D01*
X264912Y212145D01*
X272488Y212145D01*
X277845Y206788D01*
X277845Y199212D01*
X272488Y193855D01*
X264912Y193855D01*
X259555Y199212D01*
X259555Y199390D01*
X259552Y199410D01*
X259554Y199429D01*
X259532Y199531D01*
X259516Y199633D01*
X259506Y199650D01*
X259502Y199670D01*
X259449Y199759D01*
X259400Y199850D01*
X259386Y199864D01*
X259376Y199881D01*
X259297Y199948D01*
X259222Y200020D01*
X259204Y200028D01*
X259189Y200041D01*
X259093Y200080D01*
X258999Y200123D01*
X258979Y200125D01*
X258961Y200133D01*
X258794Y200151D01*
X253206Y200151D01*
X253186Y200148D01*
X253167Y200150D01*
X253065Y200128D01*
X252963Y200112D01*
X252946Y200102D01*
X252926Y200098D01*
X252837Y200045D01*
X252746Y199996D01*
X252732Y199982D01*
X252715Y199972D01*
X252648Y199893D01*
X252576Y199818D01*
X252568Y199800D01*
X252555Y199785D01*
X252516Y199689D01*
X252473Y199595D01*
X252471Y199575D01*
X252463Y199557D01*
X252445Y199390D01*
X252445Y199212D01*
X247088Y193855D01*
X239512Y193855D01*
G37*
%LPD*%
%LPC*%
G36*
X489512Y422455D02*
X489512Y422455D01*
X484155Y427812D01*
X484155Y435388D01*
X489512Y440745D01*
X497088Y440745D01*
X502253Y435580D01*
X502327Y435527D01*
X502396Y435467D01*
X502426Y435455D01*
X502453Y435436D01*
X502540Y435409D01*
X502624Y435375D01*
X502665Y435371D01*
X502688Y435364D01*
X502720Y435365D01*
X502791Y435357D01*
X509209Y435357D01*
X509299Y435371D01*
X509390Y435379D01*
X509420Y435391D01*
X509452Y435396D01*
X509532Y435439D01*
X509616Y435475D01*
X509648Y435501D01*
X509669Y435512D01*
X509691Y435535D01*
X509747Y435580D01*
X514912Y440745D01*
X522488Y440745D01*
X527845Y435388D01*
X527845Y427812D01*
X522488Y422455D01*
X514912Y422455D01*
X509555Y427812D01*
X509555Y427990D01*
X509552Y428010D01*
X509554Y428029D01*
X509532Y428131D01*
X509516Y428233D01*
X509506Y428250D01*
X509502Y428270D01*
X509449Y428359D01*
X509400Y428450D01*
X509386Y428464D01*
X509376Y428481D01*
X509297Y428548D01*
X509222Y428620D01*
X509204Y428628D01*
X509189Y428641D01*
X509093Y428680D01*
X508999Y428723D01*
X508979Y428725D01*
X508961Y428733D01*
X508794Y428751D01*
X503206Y428751D01*
X503186Y428748D01*
X503167Y428750D01*
X503065Y428728D01*
X502963Y428712D01*
X502946Y428702D01*
X502926Y428698D01*
X502837Y428645D01*
X502746Y428596D01*
X502732Y428582D01*
X502715Y428572D01*
X502648Y428493D01*
X502576Y428418D01*
X502568Y428400D01*
X502555Y428385D01*
X502516Y428289D01*
X502473Y428195D01*
X502471Y428175D01*
X502463Y428157D01*
X502445Y427990D01*
X502445Y427812D01*
X497088Y422455D01*
X489512Y422455D01*
G37*
%LPD*%
%LPC*%
G36*
X239512Y422455D02*
X239512Y422455D01*
X234155Y427812D01*
X234155Y435388D01*
X239512Y440745D01*
X247088Y440745D01*
X252253Y435580D01*
X252327Y435527D01*
X252396Y435467D01*
X252426Y435455D01*
X252453Y435436D01*
X252540Y435409D01*
X252624Y435375D01*
X252665Y435371D01*
X252688Y435364D01*
X252720Y435365D01*
X252791Y435357D01*
X259209Y435357D01*
X259299Y435371D01*
X259390Y435379D01*
X259420Y435391D01*
X259452Y435396D01*
X259532Y435439D01*
X259616Y435475D01*
X259648Y435501D01*
X259669Y435512D01*
X259691Y435535D01*
X259747Y435580D01*
X264912Y440745D01*
X272488Y440745D01*
X277845Y435388D01*
X277845Y427812D01*
X272488Y422455D01*
X264912Y422455D01*
X259555Y427812D01*
X259555Y427990D01*
X259552Y428010D01*
X259554Y428029D01*
X259532Y428131D01*
X259516Y428233D01*
X259506Y428250D01*
X259502Y428270D01*
X259449Y428359D01*
X259400Y428450D01*
X259386Y428464D01*
X259376Y428481D01*
X259297Y428548D01*
X259222Y428620D01*
X259204Y428628D01*
X259189Y428641D01*
X259093Y428680D01*
X258999Y428723D01*
X258979Y428725D01*
X258961Y428733D01*
X258794Y428751D01*
X253206Y428751D01*
X253186Y428748D01*
X253167Y428750D01*
X253065Y428728D01*
X252963Y428712D01*
X252946Y428702D01*
X252926Y428698D01*
X252837Y428645D01*
X252746Y428596D01*
X252732Y428582D01*
X252715Y428572D01*
X252648Y428493D01*
X252576Y428418D01*
X252568Y428400D01*
X252555Y428385D01*
X252516Y428289D01*
X252473Y428195D01*
X252471Y428175D01*
X252463Y428157D01*
X252445Y427990D01*
X252445Y427812D01*
X247088Y422455D01*
X239512Y422455D01*
G37*
%LPD*%
%LPC*%
G36*
X404480Y224027D02*
X404480Y224027D01*
X400932Y225497D01*
X398217Y228212D01*
X396747Y231760D01*
X396747Y250840D01*
X398217Y254388D01*
X400932Y257103D01*
X404480Y258573D01*
X408320Y258573D01*
X411868Y257103D01*
X414583Y254388D01*
X416053Y250840D01*
X416053Y231760D01*
X414583Y228212D01*
X411868Y225497D01*
X408320Y224027D01*
X404480Y224027D01*
G37*
%LPD*%
%LPC*%
G36*
X410778Y397763D02*
X410778Y397763D01*
X407604Y399078D01*
X405174Y401508D01*
X403859Y404682D01*
X403859Y408118D01*
X405174Y411292D01*
X407604Y413722D01*
X410778Y415037D01*
X427422Y415037D01*
X430596Y413722D01*
X433026Y411292D01*
X434341Y408118D01*
X434341Y404682D01*
X433026Y401508D01*
X430596Y399078D01*
X427422Y397763D01*
X410778Y397763D01*
G37*
%LPD*%
%LPC*%
G36*
X334578Y448563D02*
X334578Y448563D01*
X331404Y449878D01*
X328974Y452308D01*
X327659Y455482D01*
X327659Y458918D01*
X328974Y462092D01*
X331404Y464522D01*
X334578Y465837D01*
X351222Y465837D01*
X354396Y464522D01*
X356826Y462092D01*
X358141Y458918D01*
X358141Y455482D01*
X356826Y452308D01*
X354396Y449878D01*
X351222Y448563D01*
X334578Y448563D01*
G37*
%LPD*%
%LPC*%
G36*
X334578Y372363D02*
X334578Y372363D01*
X331404Y373678D01*
X328974Y376108D01*
X327659Y379282D01*
X327659Y382718D01*
X328974Y385892D01*
X331404Y388322D01*
X334578Y389637D01*
X351222Y389637D01*
X354396Y388322D01*
X356826Y385892D01*
X358141Y382718D01*
X358141Y379282D01*
X356826Y376108D01*
X354396Y373678D01*
X351222Y372363D01*
X334578Y372363D01*
G37*
%LPD*%
%LPC*%
G36*
X252282Y594359D02*
X252282Y594359D01*
X249108Y595674D01*
X246678Y598104D01*
X245363Y601278D01*
X245363Y617922D01*
X246678Y621096D01*
X249108Y623526D01*
X252282Y624841D01*
X255718Y624841D01*
X258892Y623526D01*
X261322Y621096D01*
X262637Y617922D01*
X262637Y601278D01*
X261322Y598104D01*
X258892Y595674D01*
X255718Y594359D01*
X252282Y594359D01*
G37*
%LPD*%
%LPC*%
G36*
X303082Y594359D02*
X303082Y594359D01*
X299908Y595674D01*
X297478Y598104D01*
X296163Y601278D01*
X296163Y617922D01*
X297478Y621096D01*
X299908Y623526D01*
X303082Y624841D01*
X306518Y624841D01*
X309692Y623526D01*
X312122Y621096D01*
X313437Y617922D01*
X313437Y601278D01*
X312122Y598104D01*
X309692Y595674D01*
X306518Y594359D01*
X303082Y594359D01*
G37*
%LPD*%
%LPC*%
G36*
X410778Y346963D02*
X410778Y346963D01*
X407604Y348278D01*
X405174Y350708D01*
X403859Y353882D01*
X403859Y357318D01*
X405174Y360492D01*
X407604Y362922D01*
X410778Y364237D01*
X427422Y364237D01*
X430596Y362922D01*
X433026Y360492D01*
X434341Y357318D01*
X434341Y353882D01*
X433026Y350708D01*
X430596Y348278D01*
X427422Y346963D01*
X410778Y346963D01*
G37*
%LPD*%
%LPC*%
G36*
X277682Y594359D02*
X277682Y594359D01*
X274508Y595674D01*
X272078Y598104D01*
X270763Y601278D01*
X270763Y617922D01*
X272078Y621096D01*
X274508Y623526D01*
X277682Y624841D01*
X281118Y624841D01*
X284292Y623526D01*
X286722Y621096D01*
X288037Y617922D01*
X288037Y601278D01*
X286722Y598104D01*
X284292Y595674D01*
X281118Y594359D01*
X277682Y594359D01*
G37*
%LPD*%
%LPC*%
G36*
X410778Y321563D02*
X410778Y321563D01*
X407604Y322878D01*
X405174Y325308D01*
X403859Y328482D01*
X403859Y331918D01*
X405174Y335092D01*
X407604Y337522D01*
X410778Y338837D01*
X427422Y338837D01*
X430596Y337522D01*
X433026Y335092D01*
X434341Y331918D01*
X434341Y328482D01*
X433026Y325308D01*
X430596Y322878D01*
X427422Y321563D01*
X410778Y321563D01*
G37*
%LPD*%
%LPC*%
G36*
X410778Y423163D02*
X410778Y423163D01*
X407604Y424478D01*
X405174Y426908D01*
X403859Y430082D01*
X403859Y433518D01*
X405174Y436692D01*
X407604Y439122D01*
X410778Y440437D01*
X427422Y440437D01*
X430596Y439122D01*
X433026Y436692D01*
X434341Y433518D01*
X434341Y430082D01*
X433026Y426908D01*
X430596Y424478D01*
X427422Y423163D01*
X410778Y423163D01*
G37*
%LPD*%
%LPC*%
G36*
X420623Y141223D02*
X420623Y141223D01*
X420623Y160143D01*
X421802Y159957D01*
X423530Y159395D01*
X425149Y158571D01*
X426618Y157503D01*
X427903Y156218D01*
X428971Y154749D01*
X429795Y153130D01*
X430357Y151402D01*
X430641Y149608D01*
X430641Y141223D01*
X420623Y141223D01*
G37*
%LPD*%
%LPC*%
G36*
X420623Y138177D02*
X420623Y138177D01*
X430641Y138177D01*
X430641Y129792D01*
X430357Y127998D01*
X429795Y126270D01*
X428971Y124651D01*
X427903Y123182D01*
X426618Y121897D01*
X425149Y120829D01*
X423530Y120005D01*
X421802Y119443D01*
X420623Y119257D01*
X420623Y138177D01*
G37*
%LPD*%
%LPC*%
G36*
X407559Y141223D02*
X407559Y141223D01*
X407559Y149608D01*
X407843Y151402D01*
X408405Y153130D01*
X409229Y154749D01*
X410297Y156218D01*
X411582Y157503D01*
X413051Y158571D01*
X414670Y159395D01*
X416398Y159957D01*
X417577Y160143D01*
X417577Y141223D01*
X407559Y141223D01*
G37*
%LPD*%
%LPC*%
G36*
X416398Y119443D02*
X416398Y119443D01*
X414670Y120005D01*
X413051Y120829D01*
X411582Y121897D01*
X410297Y123182D01*
X409229Y124651D01*
X408405Y126270D01*
X407843Y127998D01*
X407559Y129792D01*
X407559Y138177D01*
X417577Y138177D01*
X417577Y119257D01*
X416398Y119443D01*
G37*
%LPD*%
%LPC*%
G36*
X230123Y611123D02*
X230123Y611123D01*
X230123Y625225D01*
X231267Y624997D01*
X232932Y624308D01*
X234430Y623307D01*
X235703Y622034D01*
X236704Y620536D01*
X237393Y618871D01*
X237745Y617105D01*
X237745Y611123D01*
X230123Y611123D01*
G37*
%LPD*%
%LPC*%
G36*
X344423Y407923D02*
X344423Y407923D01*
X344423Y415545D01*
X350405Y415545D01*
X352171Y415193D01*
X353836Y414504D01*
X355334Y413503D01*
X356607Y412230D01*
X357608Y410732D01*
X358297Y409067D01*
X358525Y407923D01*
X344423Y407923D01*
G37*
%LPD*%
%LPC*%
G36*
X344423Y331723D02*
X344423Y331723D01*
X344423Y339345D01*
X350405Y339345D01*
X352171Y338993D01*
X353836Y338304D01*
X355334Y337303D01*
X356607Y336030D01*
X357608Y334532D01*
X358297Y332867D01*
X358525Y331723D01*
X344423Y331723D01*
G37*
%LPD*%
%LPC*%
G36*
X420623Y382523D02*
X420623Y382523D01*
X420623Y390145D01*
X426605Y390145D01*
X428371Y389793D01*
X430036Y389104D01*
X431534Y388103D01*
X432807Y386830D01*
X433808Y385332D01*
X434497Y383667D01*
X434725Y382523D01*
X420623Y382523D01*
G37*
%LPD*%
%LPC*%
G36*
X420623Y306323D02*
X420623Y306323D01*
X420623Y313945D01*
X426605Y313945D01*
X428371Y313593D01*
X430036Y312904D01*
X431534Y311903D01*
X432807Y310630D01*
X433808Y309132D01*
X434497Y307467D01*
X434725Y306323D01*
X420623Y306323D01*
G37*
%LPD*%
%LPC*%
G36*
X420623Y458723D02*
X420623Y458723D01*
X420623Y466345D01*
X426605Y466345D01*
X428371Y465993D01*
X430036Y465304D01*
X431534Y464303D01*
X432807Y463030D01*
X433808Y461532D01*
X434497Y459867D01*
X434725Y458723D01*
X420623Y458723D01*
G37*
%LPD*%
%LPC*%
G36*
X327275Y407923D02*
X327275Y407923D01*
X327503Y409067D01*
X328192Y410732D01*
X329193Y412230D01*
X330466Y413503D01*
X331964Y414504D01*
X333629Y415193D01*
X335395Y415545D01*
X341377Y415545D01*
X341377Y407923D01*
X327275Y407923D01*
G37*
%LPD*%
%LPC*%
G36*
X403475Y382523D02*
X403475Y382523D01*
X403703Y383667D01*
X404392Y385332D01*
X405393Y386830D01*
X406666Y388103D01*
X408164Y389104D01*
X409829Y389793D01*
X411595Y390145D01*
X417577Y390145D01*
X417577Y382523D01*
X403475Y382523D01*
G37*
%LPD*%
%LPC*%
G36*
X403475Y306323D02*
X403475Y306323D01*
X403703Y307467D01*
X404392Y309132D01*
X405393Y310630D01*
X406666Y311903D01*
X408164Y312904D01*
X409829Y313593D01*
X411595Y313945D01*
X417577Y313945D01*
X417577Y306323D01*
X403475Y306323D01*
G37*
%LPD*%
%LPC*%
G36*
X230123Y608077D02*
X230123Y608077D01*
X237745Y608077D01*
X237745Y602095D01*
X237393Y600329D01*
X236704Y598664D01*
X235703Y597166D01*
X234430Y595893D01*
X232932Y594892D01*
X231267Y594203D01*
X230123Y593975D01*
X230123Y608077D01*
G37*
%LPD*%
%LPC*%
G36*
X403475Y458723D02*
X403475Y458723D01*
X403703Y459867D01*
X404392Y461532D01*
X405393Y463030D01*
X406666Y464303D01*
X408164Y465304D01*
X409829Y465993D01*
X411595Y466345D01*
X417577Y466345D01*
X417577Y458723D01*
X403475Y458723D01*
G37*
%LPD*%
%LPC*%
G36*
X327275Y331723D02*
X327275Y331723D01*
X327503Y332867D01*
X328192Y334532D01*
X329193Y336030D01*
X330466Y337303D01*
X331964Y338304D01*
X333629Y338993D01*
X335395Y339345D01*
X341377Y339345D01*
X341377Y331723D01*
X327275Y331723D01*
G37*
%LPD*%
%LPC*%
G36*
X219455Y611123D02*
X219455Y611123D01*
X219455Y617105D01*
X219807Y618871D01*
X220496Y620536D01*
X221497Y622034D01*
X222770Y623307D01*
X224268Y624308D01*
X225933Y624997D01*
X227077Y625225D01*
X227077Y611123D01*
X219455Y611123D01*
G37*
%LPD*%
%LPC*%
G36*
X344423Y397255D02*
X344423Y397255D01*
X344423Y404877D01*
X358525Y404877D01*
X358297Y403733D01*
X357608Y402068D01*
X356607Y400570D01*
X355334Y399297D01*
X353836Y398296D01*
X352171Y397607D01*
X350405Y397255D01*
X344423Y397255D01*
G37*
%LPD*%
%LPC*%
G36*
X420623Y295655D02*
X420623Y295655D01*
X420623Y303277D01*
X434725Y303277D01*
X434497Y302133D01*
X433808Y300468D01*
X432807Y298970D01*
X431534Y297697D01*
X430036Y296696D01*
X428371Y296007D01*
X426605Y295655D01*
X420623Y295655D01*
G37*
%LPD*%
%LPC*%
G36*
X420623Y448055D02*
X420623Y448055D01*
X420623Y455677D01*
X434725Y455677D01*
X434497Y454533D01*
X433808Y452868D01*
X432807Y451370D01*
X431534Y450097D01*
X430036Y449096D01*
X428371Y448407D01*
X426605Y448055D01*
X420623Y448055D01*
G37*
%LPD*%
%LPC*%
G36*
X344423Y321055D02*
X344423Y321055D01*
X344423Y328677D01*
X358525Y328677D01*
X358297Y327533D01*
X357608Y325868D01*
X356607Y324370D01*
X355334Y323097D01*
X353836Y322096D01*
X352171Y321407D01*
X350405Y321055D01*
X344423Y321055D01*
G37*
%LPD*%
%LPC*%
G36*
X420623Y371855D02*
X420623Y371855D01*
X420623Y379477D01*
X434725Y379477D01*
X434497Y378333D01*
X433808Y376668D01*
X432807Y375170D01*
X431534Y373897D01*
X430036Y372896D01*
X428371Y372207D01*
X426605Y371855D01*
X420623Y371855D01*
G37*
%LPD*%
%LPC*%
G36*
X335395Y321055D02*
X335395Y321055D01*
X333629Y321407D01*
X331964Y322096D01*
X330466Y323097D01*
X329193Y324370D01*
X328192Y325868D01*
X327503Y327533D01*
X327275Y328677D01*
X341377Y328677D01*
X341377Y321055D01*
X335395Y321055D01*
G37*
%LPD*%
%LPC*%
G36*
X411595Y448055D02*
X411595Y448055D01*
X409829Y448407D01*
X408164Y449096D01*
X406666Y450097D01*
X405393Y451370D01*
X404392Y452868D01*
X403703Y454533D01*
X403475Y455677D01*
X417577Y455677D01*
X417577Y448055D01*
X411595Y448055D01*
G37*
%LPD*%
%LPC*%
G36*
X335395Y397255D02*
X335395Y397255D01*
X333629Y397607D01*
X331964Y398296D01*
X330466Y399297D01*
X329193Y400570D01*
X328192Y402068D01*
X327503Y403733D01*
X327275Y404877D01*
X341377Y404877D01*
X341377Y397255D01*
X335395Y397255D01*
G37*
%LPD*%
%LPC*%
G36*
X411595Y295655D02*
X411595Y295655D01*
X409829Y296007D01*
X408164Y296696D01*
X406666Y297697D01*
X405393Y298970D01*
X404392Y300468D01*
X403703Y302133D01*
X403475Y303277D01*
X417577Y303277D01*
X417577Y295655D01*
X411595Y295655D01*
G37*
%LPD*%
%LPC*%
G36*
X411595Y371855D02*
X411595Y371855D01*
X409829Y372207D01*
X408164Y372896D01*
X406666Y373897D01*
X405393Y375170D01*
X404392Y376668D01*
X403703Y378333D01*
X403475Y379477D01*
X417577Y379477D01*
X417577Y371855D01*
X411595Y371855D01*
G37*
%LPD*%
%LPC*%
G36*
X225933Y594203D02*
X225933Y594203D01*
X224268Y594892D01*
X222770Y595893D01*
X221497Y597166D01*
X220496Y598664D01*
X219807Y600329D01*
X219455Y602095D01*
X219455Y608077D01*
X227077Y608077D01*
X227077Y593975D01*
X225933Y594203D01*
G37*
%LPD*%
%LPC*%
G36*
X520223Y585523D02*
X520223Y585523D01*
X520223Y593653D01*
X522698Y593653D01*
X528353Y587998D01*
X528353Y585523D01*
X520223Y585523D01*
G37*
%LPD*%
%LPC*%
G36*
X270223Y585523D02*
X270223Y585523D01*
X270223Y593653D01*
X272698Y593653D01*
X278353Y587998D01*
X278353Y585523D01*
X270223Y585523D01*
G37*
%LPD*%
%LPC*%
G36*
X494823Y585523D02*
X494823Y585523D01*
X494823Y593653D01*
X497298Y593653D01*
X502953Y587998D01*
X502953Y585523D01*
X494823Y585523D01*
G37*
%LPD*%
%LPC*%
G36*
X244823Y585523D02*
X244823Y585523D01*
X244823Y593653D01*
X247298Y593653D01*
X252953Y587998D01*
X252953Y585523D01*
X244823Y585523D01*
G37*
%LPD*%
%LPC*%
G36*
X259047Y585523D02*
X259047Y585523D01*
X259047Y587998D01*
X264702Y593653D01*
X267177Y593653D01*
X267177Y585523D01*
X259047Y585523D01*
G37*
%LPD*%
%LPC*%
G36*
X233647Y585523D02*
X233647Y585523D01*
X233647Y587998D01*
X239302Y593653D01*
X241777Y593653D01*
X241777Y585523D01*
X233647Y585523D01*
G37*
%LPD*%
%LPC*%
G36*
X509047Y585523D02*
X509047Y585523D01*
X509047Y587998D01*
X514702Y593653D01*
X517177Y593653D01*
X517177Y585523D01*
X509047Y585523D01*
G37*
%LPD*%
%LPC*%
G36*
X483647Y585523D02*
X483647Y585523D01*
X483647Y587998D01*
X489302Y593653D01*
X491777Y593653D01*
X491777Y585523D01*
X483647Y585523D01*
G37*
%LPD*%
%LPC*%
G36*
X270223Y574347D02*
X270223Y574347D01*
X270223Y582477D01*
X278353Y582477D01*
X278353Y580002D01*
X272698Y574347D01*
X270223Y574347D01*
G37*
%LPD*%
%LPC*%
G36*
X494823Y574347D02*
X494823Y574347D01*
X494823Y582477D01*
X502953Y582477D01*
X502953Y580002D01*
X497298Y574347D01*
X494823Y574347D01*
G37*
%LPD*%
%LPC*%
G36*
X520223Y574347D02*
X520223Y574347D01*
X520223Y582477D01*
X528353Y582477D01*
X528353Y580002D01*
X522698Y574347D01*
X520223Y574347D01*
G37*
%LPD*%
%LPC*%
G36*
X244823Y574347D02*
X244823Y574347D01*
X244823Y582477D01*
X252953Y582477D01*
X252953Y580002D01*
X247298Y574347D01*
X244823Y574347D01*
G37*
%LPD*%
%LPC*%
G36*
X489302Y574347D02*
X489302Y574347D01*
X483647Y580002D01*
X483647Y582477D01*
X491777Y582477D01*
X491777Y574347D01*
X489302Y574347D01*
G37*
%LPD*%
%LPC*%
G36*
X514702Y574347D02*
X514702Y574347D01*
X509047Y580002D01*
X509047Y582477D01*
X517177Y582477D01*
X517177Y574347D01*
X514702Y574347D01*
G37*
%LPD*%
%LPC*%
G36*
X264702Y574347D02*
X264702Y574347D01*
X259047Y580002D01*
X259047Y582477D01*
X267177Y582477D01*
X267177Y574347D01*
X264702Y574347D01*
G37*
%LPD*%
%LPC*%
G36*
X239302Y574347D02*
X239302Y574347D01*
X233647Y580002D01*
X233647Y582477D01*
X241777Y582477D01*
X241777Y574347D01*
X239302Y574347D01*
G37*
%LPD*%
%LPC*%
G36*
X342899Y406399D02*
X342899Y406399D01*
X342899Y406401D01*
X342901Y406401D01*
X342901Y406399D01*
X342899Y406399D01*
G37*
%LPD*%
%LPC*%
G36*
X419099Y457199D02*
X419099Y457199D01*
X419099Y457201D01*
X419101Y457201D01*
X419101Y457199D01*
X419099Y457199D01*
G37*
%LPD*%
%LPC*%
G36*
X419099Y380999D02*
X419099Y380999D01*
X419099Y381001D01*
X419101Y381001D01*
X419101Y380999D01*
X419099Y380999D01*
G37*
%LPD*%
%LPC*%
G36*
X419099Y304799D02*
X419099Y304799D01*
X419099Y304801D01*
X419101Y304801D01*
X419101Y304799D01*
X419099Y304799D01*
G37*
%LPD*%
%LPC*%
G36*
X243299Y583999D02*
X243299Y583999D01*
X243299Y584001D01*
X243301Y584001D01*
X243301Y583999D01*
X243299Y583999D01*
G37*
%LPD*%
%LPC*%
G36*
X268699Y583999D02*
X268699Y583999D01*
X268699Y584001D01*
X268701Y584001D01*
X268701Y583999D01*
X268699Y583999D01*
G37*
%LPD*%
%LPC*%
G36*
X493299Y583999D02*
X493299Y583999D01*
X493299Y584001D01*
X493301Y584001D01*
X493301Y583999D01*
X493299Y583999D01*
G37*
%LPD*%
%LPC*%
G36*
X518699Y583999D02*
X518699Y583999D01*
X518699Y584001D01*
X518701Y584001D01*
X518701Y583999D01*
X518699Y583999D01*
G37*
%LPD*%
%LPC*%
G36*
X342899Y330199D02*
X342899Y330199D01*
X342899Y330201D01*
X342901Y330201D01*
X342901Y330199D01*
X342899Y330199D01*
G37*
%LPD*%
%LPC*%
G36*
X419099Y139699D02*
X419099Y139699D01*
X419099Y139701D01*
X419101Y139701D01*
X419101Y139699D01*
X419099Y139699D01*
G37*
%LPD*%
%LPC*%
G36*
X228599Y609599D02*
X228599Y609599D01*
X228599Y609601D01*
X228601Y609601D01*
X228601Y609599D01*
X228599Y609599D01*
G37*
%LPD*%
D10*
X493300Y152200D03*
D11*
X518700Y152200D03*
X493300Y177600D03*
X518700Y177600D03*
X493300Y203000D03*
X518700Y203000D03*
X493300Y228400D03*
X518700Y228400D03*
X493300Y253800D03*
X518700Y253800D03*
X493300Y279200D03*
X518700Y279200D03*
X493300Y304600D03*
X518700Y304600D03*
X493300Y330000D03*
X518700Y330000D03*
X493300Y355400D03*
X518700Y355400D03*
X493300Y380800D03*
X518700Y380800D03*
X493300Y406200D03*
X518700Y406200D03*
X493300Y431600D03*
X518700Y431600D03*
X493300Y457000D03*
X518700Y457000D03*
X493300Y482400D03*
X518700Y482400D03*
X493300Y507800D03*
X518700Y507800D03*
X493300Y533200D03*
X518700Y533200D03*
X493300Y558600D03*
X518700Y558600D03*
X493300Y584000D03*
X518700Y584000D03*
D10*
X243300Y152200D03*
D11*
X268700Y152200D03*
X243300Y177600D03*
X268700Y177600D03*
X243300Y203000D03*
X268700Y203000D03*
X243300Y228400D03*
X268700Y228400D03*
X243300Y253800D03*
X268700Y253800D03*
X243300Y279200D03*
X268700Y279200D03*
X243300Y304600D03*
X268700Y304600D03*
X243300Y330000D03*
X268700Y330000D03*
X243300Y355400D03*
X268700Y355400D03*
X243300Y380800D03*
X268700Y380800D03*
X243300Y406200D03*
X268700Y406200D03*
X243300Y431600D03*
X268700Y431600D03*
X243300Y457000D03*
X268700Y457000D03*
X243300Y482400D03*
X268700Y482400D03*
X243300Y507800D03*
X268700Y507800D03*
X243300Y533200D03*
X268700Y533200D03*
X243300Y558600D03*
X268700Y558600D03*
X243300Y584000D03*
X268700Y584000D03*
D12*
X203200Y602996D02*
X203200Y616204D01*
X228600Y616204D02*
X228600Y602996D01*
X254000Y602996D02*
X254000Y616204D01*
X279400Y616204D02*
X279400Y602996D01*
X304800Y602996D02*
X304800Y616204D01*
X330200Y616204D02*
X330200Y602996D01*
X412496Y304800D02*
X425704Y304800D01*
X425704Y330200D02*
X412496Y330200D01*
X412496Y457200D02*
X425704Y457200D01*
X349504Y457200D02*
X336296Y457200D01*
X412496Y355600D02*
X425704Y355600D01*
X425704Y381000D02*
X412496Y381000D01*
X412496Y431800D02*
X425704Y431800D01*
X425704Y406400D02*
X412496Y406400D01*
X349504Y431800D02*
X336296Y431800D01*
X336296Y406400D02*
X349504Y406400D01*
X349504Y381000D02*
X336296Y381000D01*
X336296Y355600D02*
X349504Y355600D01*
X349504Y330200D02*
X336296Y330200D01*
X336296Y304800D02*
X349504Y304800D01*
D13*
X355600Y248920D02*
X355600Y233680D01*
X381000Y233680D02*
X381000Y248920D01*
X406400Y248920D02*
X406400Y233680D01*
D14*
X342900Y148700D02*
X342900Y130700D01*
X368300Y130700D02*
X368300Y148700D01*
X393700Y148700D02*
X393700Y130700D01*
X419100Y130700D02*
X419100Y148700D01*
D15*
X208026Y603504D02*
X203454Y608076D01*
X208026Y603504D02*
X208026Y601218D01*
X228600Y580644D01*
X228600Y571500D01*
X242316Y557784D01*
X203454Y608076D02*
X203200Y609600D01*
X243300Y558600D02*
X242316Y557784D01*
X244602Y557784D02*
X267462Y557784D01*
X268700Y558600D01*
X244602Y557784D02*
X243300Y558600D01*
X269748Y557784D02*
X365760Y461772D01*
X365760Y317754D01*
X354330Y306324D01*
X342900Y306324D01*
X269748Y557784D02*
X268700Y558600D01*
X342900Y306324D02*
X342900Y304800D01*
X267462Y507492D02*
X244602Y507492D01*
X243300Y507800D01*
X267462Y507492D02*
X268700Y507800D01*
X244602Y509778D02*
X244602Y532638D01*
X244602Y509778D02*
X243300Y507800D01*
X244602Y532638D02*
X267462Y532638D01*
X268700Y533200D01*
X244602Y532638D02*
X243300Y533200D01*
X244602Y482346D02*
X267462Y482346D01*
X244602Y482346D02*
X243300Y482400D01*
X267462Y482346D02*
X268700Y482400D01*
X267462Y457200D02*
X244602Y457200D01*
X243300Y457000D01*
X267462Y457200D02*
X268700Y457000D01*
X267462Y432054D02*
X244602Y432054D01*
X243300Y431600D01*
X267462Y432054D02*
X268700Y431600D01*
X267462Y406908D02*
X244602Y406908D01*
X243300Y406200D01*
X267462Y406908D02*
X268700Y406200D01*
X244602Y379476D02*
X253746Y370332D01*
X256032Y370332D01*
X267462Y381762D01*
X244602Y379476D02*
X243300Y380800D01*
X267462Y381762D02*
X268700Y380800D01*
X253746Y365760D02*
X244602Y356616D01*
X253746Y365760D02*
X258318Y365760D01*
X267462Y356616D01*
X244602Y356616D02*
X243300Y355400D01*
X267462Y356616D02*
X268700Y355400D01*
X267462Y329184D02*
X244602Y329184D01*
X243300Y330000D01*
X267462Y329184D02*
X268700Y330000D01*
X267462Y304038D02*
X244602Y304038D01*
X243300Y304600D01*
X267462Y304038D02*
X268700Y304600D01*
X267462Y278892D02*
X244602Y278892D01*
X243300Y279200D01*
X267462Y278892D02*
X268700Y279200D01*
X267462Y253746D02*
X244602Y253746D01*
X243300Y253800D01*
X267462Y253746D02*
X268700Y253800D01*
X269748Y256032D02*
X272034Y256032D01*
X315468Y299466D01*
X315468Y409194D01*
X336042Y429768D01*
X342900Y429768D01*
X269748Y256032D02*
X268700Y253800D01*
X342900Y429768D02*
X342900Y431800D01*
X267462Y228600D02*
X244602Y228600D01*
X243300Y228400D01*
X267462Y228600D02*
X268700Y228400D01*
X267462Y203454D02*
X244602Y203454D01*
X243300Y203000D01*
X267462Y203454D02*
X268700Y203000D01*
X267462Y178308D02*
X244602Y178308D01*
X243300Y177600D01*
X267462Y178308D02*
X268700Y177600D01*
X269748Y178308D02*
X320040Y228600D01*
X320040Y340614D01*
X333756Y354330D01*
X342900Y354330D01*
X269748Y178308D02*
X268700Y177600D01*
X342900Y354330D02*
X342900Y355600D01*
X244602Y150876D02*
X253746Y141732D01*
X256032Y141732D01*
X267462Y153162D01*
X244602Y150876D02*
X243300Y152200D01*
X267462Y153162D02*
X268700Y152200D01*
X331470Y610362D02*
X441198Y610362D01*
X491490Y560070D01*
X331470Y610362D02*
X330200Y609600D01*
X491490Y560070D02*
X493300Y558600D01*
X493776Y532638D02*
X516636Y532638D01*
X518700Y533200D01*
X518922Y534924D02*
X518922Y557784D01*
X518700Y558600D01*
X518922Y534924D02*
X518700Y533200D01*
X356616Y246888D02*
X356616Y242316D01*
X356616Y246888D02*
X397764Y288036D01*
X397764Y464058D01*
X457200Y523494D01*
X484632Y523494D01*
X493776Y532638D01*
X356616Y242316D02*
X355600Y241300D01*
X493776Y532638D02*
X493300Y533200D01*
X493776Y534924D02*
X493776Y557784D01*
X493300Y558600D01*
X493776Y534924D02*
X493300Y533200D01*
X493776Y507492D02*
X516636Y507492D01*
X493776Y507492D02*
X493300Y507800D01*
X516636Y507492D02*
X518700Y507800D01*
X516636Y482346D02*
X493776Y482346D01*
X493300Y482400D01*
X516636Y482346D02*
X518700Y482400D01*
X516636Y457200D02*
X493776Y457200D01*
X493300Y457000D01*
X516636Y457200D02*
X518700Y457000D01*
X516636Y432054D02*
X493776Y432054D01*
X493300Y431600D01*
X516636Y432054D02*
X518700Y431600D01*
X516636Y406908D02*
X493776Y406908D01*
X493300Y406200D01*
X516636Y406908D02*
X518700Y406200D01*
X516636Y381762D02*
X493776Y381762D01*
X493300Y380800D01*
X516636Y381762D02*
X518700Y380800D01*
X516636Y356616D02*
X493776Y356616D01*
X493300Y355400D01*
X516636Y356616D02*
X518700Y355400D01*
X516636Y329184D02*
X493776Y329184D01*
X493300Y330000D01*
X516636Y329184D02*
X518700Y330000D01*
X516636Y304038D02*
X493776Y304038D01*
X493300Y304600D01*
X516636Y304038D02*
X518700Y304600D01*
X516636Y278892D02*
X493776Y278892D01*
X493300Y279200D01*
X516636Y278892D02*
X518700Y279200D01*
X516636Y253746D02*
X493776Y253746D01*
X493300Y253800D01*
X516636Y253746D02*
X518700Y253800D01*
X516636Y228600D02*
X493776Y228600D01*
X493300Y228400D01*
X516636Y228600D02*
X518700Y228400D01*
X516636Y203454D02*
X493776Y203454D01*
X493300Y203000D01*
X516636Y203454D02*
X518700Y203000D01*
X516636Y178308D02*
X493776Y178308D01*
X493300Y177600D01*
X516636Y178308D02*
X518700Y177600D01*
X493776Y150876D02*
X502920Y141732D01*
X507492Y141732D01*
X516636Y150876D01*
X493776Y150876D02*
X493300Y152200D01*
X516636Y150876D02*
X518700Y152200D01*
X379476Y235458D02*
X379476Y240030D01*
X379476Y235458D02*
X347472Y203454D01*
X347472Y164592D01*
X345186Y162306D01*
X345186Y144018D01*
X342900Y141732D01*
X379476Y240030D02*
X381000Y241300D01*
X342900Y141732D02*
X342900Y139700D01*
M02*
