G04 EAGLE Gerber RS-274X export*
G75*
%MOMM*%
%FSLAX34Y34*%
%LPD*%
%INSilkscreen Top*%
%IPPOS*%
%AMOC8*
5,1,8,0,0,1.08239X$1,22.5*%
G01*
%ADD10C,0.076200*%
%ADD11C,0.101600*%
%ADD12C,0.152400*%
%ADD13C,0.127000*%
%ADD14C,0.050800*%
%ADD15C,0.254000*%

G36*
X366919Y502169D02*
X366919Y502169D01*
X366972Y502168D01*
X366995Y502179D01*
X367006Y502181D01*
X367016Y502189D01*
X367046Y502203D01*
X372127Y505673D01*
X374914Y504219D01*
X374947Y504213D01*
X374977Y504197D01*
X375015Y504199D01*
X375052Y504192D01*
X375084Y504204D01*
X375117Y504206D01*
X375148Y504228D01*
X375184Y504242D01*
X375204Y504269D01*
X375231Y504289D01*
X375264Y504350D01*
X375268Y504355D01*
X375268Y504357D01*
X375270Y504360D01*
X378826Y514520D01*
X378830Y514590D01*
X378834Y514660D01*
X378834Y514661D01*
X378800Y514721D01*
X378766Y514783D01*
X378765Y514784D01*
X378763Y514785D01*
X378700Y514830D01*
X377462Y515450D01*
X376407Y516303D01*
X376248Y516501D01*
X375558Y517362D01*
X374956Y518578D01*
X374629Y519895D01*
X374591Y521252D01*
X374844Y522585D01*
X375377Y523833D01*
X376165Y524938D01*
X377171Y525849D01*
X378349Y526523D01*
X379643Y526930D01*
X380996Y527049D01*
X382304Y526889D01*
X383552Y526465D01*
X384688Y525795D01*
X385664Y524907D01*
X386437Y523840D01*
X386977Y522637D01*
X387261Y521349D01*
X387275Y520031D01*
X387021Y518737D01*
X386508Y517522D01*
X385758Y516437D01*
X384803Y515528D01*
X383661Y514819D01*
X383618Y514772D01*
X383573Y514727D01*
X383571Y514720D01*
X383566Y514715D01*
X383555Y514652D01*
X383541Y514590D01*
X383543Y514581D01*
X383542Y514576D01*
X383546Y514566D01*
X383559Y514510D01*
X387496Y504604D01*
X387507Y504590D01*
X387511Y504573D01*
X387549Y504536D01*
X387582Y504493D01*
X387599Y504487D01*
X387612Y504475D01*
X387664Y504464D01*
X387715Y504445D01*
X387732Y504449D01*
X387749Y504445D01*
X387828Y504464D01*
X389352Y505099D01*
X389362Y505107D01*
X389395Y505122D01*
X390776Y506042D01*
X395714Y502586D01*
X395767Y502568D01*
X395817Y502543D01*
X395832Y502545D01*
X395847Y502540D01*
X395901Y502553D01*
X395957Y502559D01*
X395975Y502571D01*
X395984Y502573D01*
X395993Y502582D01*
X396026Y502602D01*
X397042Y503491D01*
X397045Y503496D01*
X397054Y503503D01*
X397943Y504392D01*
X397946Y504396D01*
X397953Y504403D01*
X398969Y505546D01*
X398972Y505551D01*
X398980Y505559D01*
X399869Y506702D01*
X399887Y506746D01*
X399912Y506787D01*
X399912Y506810D01*
X399921Y506832D01*
X399912Y506880D01*
X399912Y506928D01*
X399897Y506959D01*
X399895Y506971D01*
X399888Y506979D01*
X399877Y507001D01*
X396286Y512202D01*
X397094Y513587D01*
X397097Y513600D01*
X397115Y513635D01*
X397623Y515159D01*
X397624Y515166D01*
X397629Y515178D01*
X398097Y517051D01*
X404160Y518165D01*
X404216Y518193D01*
X404274Y518218D01*
X404279Y518224D01*
X404286Y518228D01*
X404319Y518282D01*
X404354Y518334D01*
X404356Y518344D01*
X404359Y518349D01*
X404358Y518360D01*
X404367Y518414D01*
X404367Y521335D01*
X404365Y521342D01*
X404366Y521358D01*
X404239Y522755D01*
X404239Y522756D01*
X404239Y522757D01*
X404112Y524027D01*
X404093Y524075D01*
X404082Y524124D01*
X404067Y524139D01*
X404060Y524158D01*
X404018Y524188D01*
X403982Y524224D01*
X403955Y524234D01*
X403945Y524240D01*
X403934Y524241D01*
X403906Y524251D01*
X397834Y525366D01*
X397371Y526870D01*
X397366Y526879D01*
X397360Y526901D01*
X396725Y528298D01*
X396719Y528304D01*
X396713Y528321D01*
X395828Y529838D01*
X395773Y529948D01*
X399240Y534776D01*
X399257Y534825D01*
X399282Y534871D01*
X399280Y534891D01*
X399287Y534909D01*
X399275Y534960D01*
X399272Y535011D01*
X399258Y535035D01*
X399256Y535047D01*
X399247Y535055D01*
X399232Y535082D01*
X398216Y536352D01*
X398208Y536357D01*
X398197Y536373D01*
X396927Y537643D01*
X396922Y537646D01*
X396915Y537655D01*
X395899Y538544D01*
X395891Y538547D01*
X395879Y538559D01*
X394990Y539194D01*
X394948Y539209D01*
X394911Y539232D01*
X394883Y539232D01*
X394857Y539241D01*
X394814Y539231D01*
X394770Y539230D01*
X394732Y539212D01*
X394720Y539209D01*
X394714Y539203D01*
X394697Y539195D01*
X389620Y535604D01*
X388616Y536161D01*
X388609Y536163D01*
X388596Y536171D01*
X386310Y537187D01*
X386297Y537189D01*
X386262Y537203D01*
X385283Y537421D01*
X384170Y543479D01*
X384146Y543526D01*
X384130Y543576D01*
X384115Y543588D01*
X384107Y543605D01*
X384062Y543632D01*
X384021Y543666D01*
X383996Y543672D01*
X383986Y543678D01*
X383974Y543677D01*
X383942Y543685D01*
X382418Y543812D01*
X382411Y543811D01*
X382397Y543813D01*
X379476Y543813D01*
X379468Y543811D01*
X379451Y543812D01*
X378181Y543685D01*
X378132Y543665D01*
X378080Y543653D01*
X378067Y543639D01*
X378050Y543633D01*
X378019Y543590D01*
X377982Y543552D01*
X377974Y543527D01*
X377968Y543518D01*
X377967Y543506D01*
X377956Y543475D01*
X376965Y537529D01*
X375205Y536942D01*
X375201Y536939D01*
X375191Y536937D01*
X373921Y536429D01*
X373913Y536423D01*
X373889Y536414D01*
X372253Y535479D01*
X367306Y539066D01*
X367258Y539083D01*
X367213Y539108D01*
X367193Y539107D01*
X367173Y539114D01*
X367123Y539103D01*
X367073Y539100D01*
X367047Y539086D01*
X367035Y539083D01*
X367027Y539075D01*
X367002Y539061D01*
X365859Y538172D01*
X365853Y538164D01*
X365835Y538151D01*
X364565Y536881D01*
X364562Y536877D01*
X364555Y536870D01*
X363543Y535733D01*
X362914Y535103D01*
X362884Y535048D01*
X362850Y534996D01*
X362850Y534987D01*
X362846Y534980D01*
X362850Y534917D01*
X362849Y534855D01*
X362854Y534845D01*
X362854Y534839D01*
X362861Y534830D01*
X362884Y534781D01*
X366348Y529708D01*
X365670Y528577D01*
X365668Y528569D01*
X365657Y528553D01*
X364895Y526902D01*
X364893Y526890D01*
X364881Y526863D01*
X364504Y525483D01*
X364185Y524738D01*
X358099Y523744D01*
X358040Y523716D01*
X357980Y523690D01*
X357977Y523686D01*
X357972Y523683D01*
X357937Y523628D01*
X357900Y523574D01*
X357899Y523567D01*
X357897Y523564D01*
X357897Y523555D01*
X357887Y523494D01*
X357887Y517906D01*
X357905Y517843D01*
X357921Y517780D01*
X357924Y517776D01*
X357926Y517771D01*
X357975Y517727D01*
X358022Y517682D01*
X358029Y517680D01*
X358031Y517677D01*
X358040Y517676D01*
X358099Y517656D01*
X364164Y516666D01*
X364628Y515042D01*
X364628Y515041D01*
X364628Y515039D01*
X365009Y513769D01*
X365016Y513759D01*
X365026Y513729D01*
X365534Y512713D01*
X365537Y512709D01*
X365541Y512698D01*
X366347Y511317D01*
X362761Y506371D01*
X362741Y506315D01*
X362716Y506262D01*
X362718Y506250D01*
X362713Y506238D01*
X362725Y506184D01*
X362725Y506180D01*
X362727Y506175D01*
X362733Y506122D01*
X362742Y506108D01*
X362744Y506100D01*
X362753Y506091D01*
X362777Y506054D01*
X363793Y504911D01*
X363797Y504908D01*
X363803Y504900D01*
X364692Y504011D01*
X364696Y504008D01*
X364703Y504001D01*
X365846Y502985D01*
X365847Y502984D01*
X365849Y502982D01*
X366738Y502220D01*
X366787Y502198D01*
X366831Y502169D01*
X366850Y502169D01*
X366866Y502161D01*
X366919Y502169D01*
G37*
D10*
X295903Y634627D02*
X295903Y625221D01*
X302173Y625221D01*
X306826Y625221D02*
X309961Y625221D01*
X311529Y626789D01*
X311529Y629924D01*
X309961Y631492D01*
X306826Y631492D01*
X305258Y629924D01*
X305258Y626789D01*
X306826Y625221D01*
X314613Y625221D02*
X314613Y634627D01*
X319316Y634627D01*
X320884Y633059D01*
X320884Y629924D01*
X319316Y628356D01*
X314613Y628356D01*
X317748Y628356D02*
X320884Y625221D01*
X325536Y631492D02*
X328671Y631492D01*
X330239Y629924D01*
X330239Y625221D01*
X325536Y625221D01*
X323968Y626789D01*
X325536Y628356D01*
X330239Y628356D01*
X333324Y625221D02*
X333324Y634627D01*
X336459Y628356D02*
X333324Y625221D01*
X336459Y628356D02*
X339594Y625221D01*
X339594Y634627D01*
X344246Y631492D02*
X347382Y631492D01*
X348949Y629924D01*
X348949Y625221D01*
X344246Y625221D01*
X342679Y626789D01*
X344246Y628356D01*
X348949Y628356D01*
X352034Y625221D02*
X352034Y631492D01*
X356737Y631492D01*
X358305Y629924D01*
X358305Y625221D01*
X370744Y625221D02*
X370744Y634627D01*
X375447Y634627D01*
X377015Y633059D01*
X377015Y631492D01*
X375447Y629924D01*
X377015Y628356D01*
X377015Y626789D01*
X375447Y625221D01*
X370744Y625221D01*
X370744Y629924D02*
X375447Y629924D01*
X380099Y631492D02*
X380099Y625221D01*
X380099Y628356D02*
X383235Y631492D01*
X384802Y631492D01*
X387895Y634627D02*
X387895Y625221D01*
X387895Y628356D02*
X392598Y625221D01*
X387895Y628356D02*
X392598Y631492D01*
X397259Y625221D02*
X400394Y625221D01*
X401962Y626789D01*
X401962Y629924D01*
X400394Y631492D01*
X397259Y631492D01*
X395691Y629924D01*
X395691Y626789D01*
X397259Y625221D01*
X405047Y626789D02*
X405047Y631492D01*
X405047Y626789D02*
X406614Y625221D01*
X411317Y625221D01*
X411317Y631492D01*
X415969Y633059D02*
X415969Y626789D01*
X417537Y625221D01*
X417537Y631492D02*
X414402Y631492D01*
X429994Y631492D02*
X433129Y625221D01*
X436264Y631492D01*
X439349Y631492D02*
X442484Y634627D01*
X442484Y625221D01*
X439349Y625221D02*
X445620Y625221D01*
X448704Y625221D02*
X448704Y626789D01*
X450272Y626789D01*
X450272Y625221D01*
X448704Y625221D01*
X453382Y626789D02*
X453382Y633059D01*
X454949Y634627D01*
X458085Y634627D01*
X459652Y633059D01*
X459652Y626789D01*
X458085Y625221D01*
X454949Y625221D01*
X453382Y626789D01*
X459652Y633059D01*
X462737Y629924D02*
X469008Y629924D01*
X472092Y625221D02*
X478363Y625221D01*
X472092Y625221D02*
X478363Y631492D01*
X478363Y633059D01*
X476795Y634627D01*
X473660Y634627D01*
X472092Y633059D01*
X481447Y633059D02*
X481447Y626789D01*
X481447Y633059D02*
X483015Y634627D01*
X486150Y634627D01*
X487718Y633059D01*
X487718Y626789D01*
X486150Y625221D01*
X483015Y625221D01*
X481447Y626789D01*
X487718Y633059D01*
X490802Y625221D02*
X497073Y625221D01*
X490802Y625221D02*
X497073Y631492D01*
X497073Y633059D01*
X495505Y634627D01*
X492370Y634627D01*
X490802Y633059D01*
X500158Y631492D02*
X503293Y634627D01*
X503293Y625221D01*
X500158Y625221D02*
X506428Y625221D01*
X509513Y626789D02*
X509513Y633059D01*
X511080Y634627D01*
X514216Y634627D01*
X515784Y633059D01*
X515784Y626789D01*
X514216Y625221D01*
X511080Y625221D01*
X509513Y626789D01*
X515784Y633059D01*
X523571Y634627D02*
X523571Y625221D01*
X518868Y629924D02*
X523571Y634627D01*
X525139Y629924D02*
X518868Y629924D01*
X528223Y626789D02*
X528223Y633059D01*
X529791Y634627D01*
X532926Y634627D01*
X534494Y633059D01*
X534494Y626789D01*
X532926Y625221D01*
X529791Y625221D01*
X528223Y626789D01*
X534494Y633059D01*
X537578Y633059D02*
X539146Y634627D01*
X542281Y634627D01*
X543849Y633059D01*
X543849Y631492D01*
X542281Y629924D01*
X540714Y629924D01*
X542281Y629924D02*
X543849Y628356D01*
X543849Y626789D01*
X542281Y625221D01*
X539146Y625221D01*
X537578Y626789D01*
X295903Y619387D02*
X295903Y609981D01*
X295903Y614684D02*
X297470Y616252D01*
X300606Y616252D01*
X302173Y614684D01*
X302173Y609981D01*
X306826Y611549D02*
X306826Y617819D01*
X306826Y611549D02*
X308393Y609981D01*
X308393Y616252D02*
X305258Y616252D01*
X313062Y617819D02*
X313062Y611549D01*
X314630Y609981D01*
X314630Y616252D02*
X311495Y616252D01*
X317732Y616252D02*
X317732Y606846D01*
X317732Y616252D02*
X322435Y616252D01*
X324002Y614684D01*
X324002Y611549D01*
X322435Y609981D01*
X317732Y609981D01*
X327087Y616252D02*
X328654Y616252D01*
X328654Y614684D01*
X327087Y614684D01*
X327087Y616252D01*
X327087Y611549D02*
X328654Y611549D01*
X328654Y609981D01*
X327087Y609981D01*
X327087Y611549D01*
X331764Y609981D02*
X338035Y619387D01*
X347390Y619387D02*
X341119Y609981D01*
X350475Y611549D02*
X350475Y616252D01*
X350475Y611549D02*
X352042Y609981D01*
X353610Y611549D01*
X355178Y609981D01*
X356745Y611549D01*
X356745Y616252D01*
X359830Y616252D02*
X359830Y611549D01*
X361398Y609981D01*
X362965Y611549D01*
X364533Y609981D01*
X366101Y611549D01*
X366101Y616252D01*
X369185Y616252D02*
X369185Y611549D01*
X370753Y609981D01*
X372320Y611549D01*
X373888Y609981D01*
X375456Y611549D01*
X375456Y616252D01*
X378540Y611549D02*
X378540Y609981D01*
X378540Y611549D02*
X380108Y611549D01*
X380108Y609981D01*
X378540Y609981D01*
X383218Y611549D02*
X383218Y616252D01*
X383218Y611549D02*
X384785Y609981D01*
X389489Y609981D01*
X389489Y608413D02*
X389489Y616252D01*
X389489Y608413D02*
X387921Y606846D01*
X386353Y606846D01*
X394141Y609981D02*
X397276Y609981D01*
X398844Y611549D01*
X398844Y614684D01*
X397276Y616252D01*
X394141Y616252D01*
X392573Y614684D01*
X392573Y611549D01*
X394141Y609981D01*
X401928Y611549D02*
X401928Y616252D01*
X401928Y611549D02*
X403496Y609981D01*
X408199Y609981D01*
X408199Y616252D01*
X412851Y617819D02*
X412851Y611549D01*
X414419Y609981D01*
X414419Y616252D02*
X411283Y616252D01*
X417520Y616252D02*
X417520Y611549D01*
X419088Y609981D01*
X423791Y609981D01*
X423791Y616252D01*
X426875Y619387D02*
X426875Y609981D01*
X431578Y609981D01*
X433146Y611549D01*
X433146Y614684D01*
X431578Y616252D01*
X426875Y616252D01*
X437798Y609981D02*
X440934Y609981D01*
X437798Y609981D02*
X436231Y611549D01*
X436231Y614684D01*
X437798Y616252D01*
X440934Y616252D01*
X442501Y614684D01*
X442501Y613116D01*
X436231Y613116D01*
X445586Y611549D02*
X445586Y609981D01*
X445586Y611549D02*
X447153Y611549D01*
X447153Y609981D01*
X445586Y609981D01*
X451831Y616252D02*
X456534Y616252D01*
X451831Y616252D02*
X450263Y614684D01*
X450263Y611549D01*
X451831Y609981D01*
X456534Y609981D01*
X461186Y609981D02*
X464322Y609981D01*
X465889Y611549D01*
X465889Y614684D01*
X464322Y616252D01*
X461186Y616252D01*
X459619Y614684D01*
X459619Y611549D01*
X461186Y609981D01*
X468974Y609981D02*
X468974Y616252D01*
X470541Y616252D01*
X472109Y614684D01*
X472109Y609981D01*
X472109Y614684D02*
X473677Y616252D01*
X475244Y614684D01*
X475244Y609981D01*
X478329Y609981D02*
X484600Y619387D01*
X489252Y616252D02*
X493955Y616252D01*
X489252Y616252D02*
X487684Y614684D01*
X487684Y611549D01*
X489252Y609981D01*
X493955Y609981D01*
X497039Y609981D02*
X503310Y619387D01*
X506394Y619387D02*
X506394Y609981D01*
X506394Y619387D02*
X511097Y619387D01*
X512665Y617819D01*
X512665Y616252D01*
X511097Y614684D01*
X512665Y613116D01*
X512665Y611549D01*
X511097Y609981D01*
X506394Y609981D01*
X506394Y614684D02*
X511097Y614684D01*
X515750Y619387D02*
X515750Y609981D01*
X515750Y613116D02*
X522020Y619387D01*
X517317Y614684D02*
X522020Y609981D01*
X525105Y609981D02*
X525105Y619387D01*
X525105Y614684D02*
X531376Y614684D01*
X531376Y619387D02*
X531376Y609981D01*
X536028Y609981D02*
X539163Y609981D01*
X540731Y611549D01*
X540731Y614684D01*
X539163Y616252D01*
X536028Y616252D01*
X534460Y614684D01*
X534460Y611549D01*
X536028Y609981D01*
X543815Y609981D02*
X543815Y619387D01*
X543815Y609981D02*
X548518Y609981D01*
X550086Y611549D01*
X550086Y614684D01*
X548518Y616252D01*
X543815Y616252D01*
X553170Y619387D02*
X553170Y609981D01*
X557873Y609981D01*
X559441Y611549D01*
X559441Y614684D01*
X557873Y616252D01*
X553170Y616252D01*
X562526Y616252D02*
X562526Y611549D01*
X564093Y609981D01*
X568796Y609981D01*
X568796Y608413D02*
X568796Y616252D01*
X568796Y608413D02*
X567229Y606846D01*
X565661Y606846D01*
X444119Y330581D02*
X434713Y330581D01*
X444119Y330581D02*
X444119Y336852D01*
X440984Y339936D02*
X434713Y339936D01*
X440984Y339936D02*
X444119Y343072D01*
X440984Y346207D01*
X434713Y346207D01*
X434713Y349291D02*
X444119Y349291D01*
X444119Y355562D01*
X434713Y372705D02*
X436281Y374272D01*
X434713Y372705D02*
X434713Y369569D01*
X436281Y368002D01*
X437848Y368002D01*
X439416Y369569D01*
X439416Y372705D01*
X440984Y374272D01*
X442551Y374272D01*
X444119Y372705D01*
X444119Y369569D01*
X442551Y368002D01*
X444119Y377357D02*
X434713Y377357D01*
X439416Y377357D02*
X439416Y383628D01*
X434713Y383628D02*
X444119Y383628D01*
X444119Y386712D02*
X444119Y389847D01*
X444119Y388280D02*
X434713Y388280D01*
X434713Y389847D02*
X434713Y386712D01*
X434713Y392949D02*
X444119Y392949D01*
X434713Y392949D02*
X434713Y399220D01*
X439416Y396084D02*
X439416Y392949D01*
X444119Y405439D02*
X434713Y405439D01*
X434713Y402304D02*
X434713Y408575D01*
X434713Y411659D02*
X434713Y417930D01*
X434713Y411659D02*
X444119Y411659D01*
X444119Y417930D01*
X439416Y414795D02*
X439416Y411659D01*
X444119Y421014D02*
X434713Y421014D01*
X434713Y425717D01*
X436281Y427285D01*
X439416Y427285D01*
X440984Y425717D01*
X440984Y421014D01*
X440984Y424150D02*
X444119Y427285D01*
X222075Y627596D02*
X220847Y626367D01*
X220847Y623910D01*
X222075Y622681D01*
X226990Y622681D01*
X228219Y623910D01*
X228219Y626367D01*
X226990Y627596D01*
X224533Y627596D01*
X224533Y625138D01*
X223304Y630165D02*
X228219Y630165D01*
X223304Y630165D02*
X223304Y633851D01*
X224533Y635080D01*
X228219Y635080D01*
X228219Y642564D02*
X220847Y642564D01*
X228219Y642564D02*
X228219Y638878D01*
X226990Y637649D01*
X224533Y637649D01*
X223304Y638878D01*
X223304Y642564D01*
X246247Y626367D02*
X247475Y627596D01*
X246247Y626367D02*
X246247Y623910D01*
X247475Y622681D01*
X248704Y622681D01*
X249933Y623910D01*
X249933Y626367D01*
X251162Y627596D01*
X252390Y627596D01*
X253619Y626367D01*
X253619Y623910D01*
X252390Y622681D01*
X246247Y633851D02*
X247475Y635080D01*
X246247Y633851D02*
X246247Y631394D01*
X247475Y630165D01*
X252390Y630165D01*
X253619Y631394D01*
X253619Y633851D01*
X252390Y635080D01*
X253619Y637649D02*
X246247Y637649D01*
X253619Y637649D02*
X253619Y642564D01*
X271647Y626367D02*
X272875Y627596D01*
X271647Y626367D02*
X271647Y623910D01*
X272875Y622681D01*
X274104Y622681D01*
X275333Y623910D01*
X275333Y626367D01*
X276562Y627596D01*
X277790Y627596D01*
X279019Y626367D01*
X279019Y623910D01*
X277790Y622681D01*
X279019Y630165D02*
X271647Y630165D01*
X279019Y630165D02*
X279019Y633851D01*
X277790Y635080D01*
X272875Y635080D01*
X271647Y633851D01*
X271647Y630165D01*
X274104Y637649D02*
X279019Y637649D01*
X274104Y637649D02*
X271647Y640107D01*
X274104Y642564D01*
X279019Y642564D01*
X275333Y642564D02*
X275333Y637649D01*
X195447Y633946D02*
X195447Y629031D01*
X199133Y629031D01*
X197904Y631488D01*
X197904Y632717D01*
X199133Y633946D01*
X201590Y633946D01*
X202819Y632717D01*
X202819Y630260D01*
X201590Y629031D01*
X197904Y636515D02*
X202819Y638973D01*
X197904Y641430D01*
X322447Y630260D02*
X323675Y629031D01*
X322447Y630260D02*
X322447Y632717D01*
X323675Y633946D01*
X324904Y633946D01*
X326133Y632717D01*
X326133Y631488D01*
X326133Y632717D02*
X327362Y633946D01*
X328590Y633946D01*
X329819Y632717D01*
X329819Y630260D01*
X328590Y629031D01*
X324904Y636515D02*
X329819Y638973D01*
X324904Y641430D01*
X323675Y643999D02*
X322447Y645228D01*
X322447Y647685D01*
X323675Y648914D01*
X324904Y648914D01*
X326133Y647685D01*
X326133Y646457D01*
X326133Y647685D02*
X327362Y648914D01*
X328590Y648914D01*
X329819Y647685D01*
X329819Y645228D01*
X328590Y643999D01*
D11*
X201822Y581753D02*
X199873Y583702D01*
X195975Y583702D01*
X194026Y581753D01*
X194026Y573957D01*
X195975Y572008D01*
X199873Y572008D01*
X201822Y573957D01*
X201822Y577855D01*
X197924Y577855D01*
X205720Y572008D02*
X205720Y583702D01*
X213516Y572008D01*
X213516Y583702D01*
X217414Y583702D02*
X217414Y572008D01*
X223261Y572008D01*
X225210Y573957D01*
X225210Y581753D01*
X223261Y583702D01*
X217414Y583702D01*
X555473Y583702D02*
X557422Y581753D01*
X555473Y583702D02*
X551575Y583702D01*
X549626Y581753D01*
X549626Y573957D01*
X551575Y572008D01*
X555473Y572008D01*
X557422Y573957D01*
X557422Y577855D01*
X553524Y577855D01*
X561320Y572008D02*
X561320Y583702D01*
X569116Y572008D01*
X569116Y583702D01*
X573014Y583702D02*
X573014Y572008D01*
X578861Y572008D01*
X580810Y573957D01*
X580810Y581753D01*
X578861Y583702D01*
X573014Y583702D01*
X551575Y558302D02*
X549626Y556353D01*
X551575Y558302D02*
X555473Y558302D01*
X557422Y556353D01*
X557422Y554404D01*
X555473Y552455D01*
X553524Y552455D01*
X555473Y552455D02*
X557422Y550506D01*
X557422Y548557D01*
X555473Y546608D01*
X551575Y546608D01*
X549626Y548557D01*
X561320Y550506D02*
X561320Y558302D01*
X561320Y550506D02*
X565218Y546608D01*
X569116Y550506D01*
X569116Y558302D01*
X573014Y556353D02*
X574963Y558302D01*
X578861Y558302D01*
X580810Y556353D01*
X580810Y554404D01*
X578861Y552455D01*
X576912Y552455D01*
X578861Y552455D02*
X580810Y550506D01*
X580810Y548557D01*
X578861Y546608D01*
X574963Y546608D01*
X573014Y548557D01*
X551575Y532902D02*
X549626Y530953D01*
X551575Y532902D02*
X555473Y532902D01*
X557422Y530953D01*
X557422Y529004D01*
X555473Y527055D01*
X553524Y527055D01*
X555473Y527055D02*
X557422Y525106D01*
X557422Y523157D01*
X555473Y521208D01*
X551575Y521208D01*
X549626Y523157D01*
X561320Y525106D02*
X561320Y532902D01*
X561320Y525106D02*
X565218Y521208D01*
X569116Y525106D01*
X569116Y532902D01*
X573014Y530953D02*
X574963Y532902D01*
X578861Y532902D01*
X580810Y530953D01*
X580810Y529004D01*
X578861Y527055D01*
X576912Y527055D01*
X578861Y527055D02*
X580810Y525106D01*
X580810Y523157D01*
X578861Y521208D01*
X574963Y521208D01*
X573014Y523157D01*
X534034Y505553D02*
X532085Y507502D01*
X528187Y507502D01*
X526238Y505553D01*
X526238Y497757D01*
X528187Y495808D01*
X532085Y495808D01*
X534034Y497757D01*
X534034Y501655D01*
X530136Y501655D01*
X537932Y495808D02*
X537932Y507502D01*
X543779Y507502D01*
X545728Y505553D01*
X545728Y501655D01*
X543779Y499706D01*
X537932Y499706D01*
X549626Y505553D02*
X551575Y507502D01*
X555473Y507502D01*
X557422Y505553D01*
X557422Y503604D01*
X555473Y501655D01*
X553524Y501655D01*
X555473Y501655D02*
X557422Y499706D01*
X557422Y497757D01*
X555473Y495808D01*
X551575Y495808D01*
X549626Y497757D01*
X565218Y505553D02*
X569116Y507502D01*
X565218Y505553D02*
X561320Y501655D01*
X561320Y497757D01*
X563269Y495808D01*
X567167Y495808D01*
X569116Y497757D01*
X569116Y499706D01*
X567167Y501655D01*
X561320Y501655D01*
X573014Y505553D02*
X580810Y497757D01*
X573014Y497757D02*
X580810Y505553D01*
X580810Y501655D02*
X573014Y501655D01*
X576912Y497757D02*
X576912Y505553D01*
X534034Y480153D02*
X532085Y482102D01*
X528187Y482102D01*
X526238Y480153D01*
X526238Y472357D01*
X528187Y470408D01*
X532085Y470408D01*
X534034Y472357D01*
X534034Y476255D01*
X530136Y476255D01*
X537932Y470408D02*
X537932Y482102D01*
X543779Y482102D01*
X545728Y480153D01*
X545728Y476255D01*
X543779Y474306D01*
X537932Y474306D01*
X549626Y480153D02*
X551575Y482102D01*
X555473Y482102D01*
X557422Y480153D01*
X557422Y478204D01*
X555473Y476255D01*
X553524Y476255D01*
X555473Y476255D02*
X557422Y474306D01*
X557422Y472357D01*
X555473Y470408D01*
X551575Y470408D01*
X549626Y472357D01*
X561320Y482102D02*
X569116Y482102D01*
X569116Y480153D01*
X561320Y472357D01*
X561320Y470408D01*
X573014Y480153D02*
X580810Y472357D01*
X573014Y472357D02*
X580810Y480153D01*
X580810Y476255D02*
X573014Y476255D01*
X576912Y472357D02*
X576912Y480153D01*
X534034Y454753D02*
X532085Y456702D01*
X528187Y456702D01*
X526238Y454753D01*
X526238Y446957D01*
X528187Y445008D01*
X532085Y445008D01*
X534034Y446957D01*
X534034Y450855D01*
X530136Y450855D01*
X537932Y445008D02*
X537932Y456702D01*
X543779Y456702D01*
X545728Y454753D01*
X545728Y450855D01*
X543779Y448906D01*
X537932Y448906D01*
X549626Y454753D02*
X551575Y456702D01*
X555473Y456702D01*
X557422Y454753D01*
X557422Y452804D01*
X555473Y450855D01*
X553524Y450855D01*
X555473Y450855D02*
X557422Y448906D01*
X557422Y446957D01*
X555473Y445008D01*
X551575Y445008D01*
X549626Y446957D01*
X561320Y454753D02*
X563269Y456702D01*
X567167Y456702D01*
X569116Y454753D01*
X569116Y452804D01*
X567167Y450855D01*
X569116Y448906D01*
X569116Y446957D01*
X567167Y445008D01*
X563269Y445008D01*
X561320Y446957D01*
X561320Y448906D01*
X563269Y450855D01*
X561320Y452804D01*
X561320Y454753D01*
X563269Y450855D02*
X567167Y450855D01*
X573014Y454753D02*
X580810Y446957D01*
X573014Y446957D02*
X580810Y454753D01*
X580810Y450855D02*
X573014Y450855D01*
X576912Y446957D02*
X576912Y454753D01*
X534034Y429353D02*
X532085Y431302D01*
X528187Y431302D01*
X526238Y429353D01*
X526238Y421557D01*
X528187Y419608D01*
X532085Y419608D01*
X534034Y421557D01*
X534034Y425455D01*
X530136Y425455D01*
X537932Y419608D02*
X537932Y431302D01*
X543779Y431302D01*
X545728Y429353D01*
X545728Y425455D01*
X543779Y423506D01*
X537932Y423506D01*
X549626Y429353D02*
X551575Y431302D01*
X555473Y431302D01*
X557422Y429353D01*
X557422Y427404D01*
X555473Y425455D01*
X553524Y425455D01*
X555473Y425455D02*
X557422Y423506D01*
X557422Y421557D01*
X555473Y419608D01*
X551575Y419608D01*
X549626Y421557D01*
X561320Y421557D02*
X563269Y419608D01*
X567167Y419608D01*
X569116Y421557D01*
X569116Y429353D01*
X567167Y431302D01*
X563269Y431302D01*
X561320Y429353D01*
X561320Y427404D01*
X563269Y425455D01*
X569116Y425455D01*
X573014Y429353D02*
X580810Y421557D01*
X573014Y421557D02*
X580810Y429353D01*
X580810Y425455D02*
X573014Y425455D01*
X576912Y421557D02*
X576912Y429353D01*
X526238Y405902D02*
X526238Y394208D01*
X534034Y394208D01*
X537932Y394208D02*
X537932Y405902D01*
X543779Y405902D01*
X545728Y403953D01*
X545728Y400055D01*
X543779Y398106D01*
X537932Y398106D01*
X541830Y398106D02*
X545728Y394208D01*
X549626Y394208D02*
X549626Y405902D01*
X549626Y394208D02*
X555473Y394208D01*
X557422Y396157D01*
X557422Y403953D01*
X555473Y405902D01*
X549626Y405902D01*
X561320Y394208D02*
X569116Y394208D01*
X561320Y394208D02*
X569116Y402004D01*
X569116Y403953D01*
X567167Y405902D01*
X563269Y405902D01*
X561320Y403953D01*
X573014Y403953D02*
X580810Y396157D01*
X573014Y396157D02*
X580810Y403953D01*
X580810Y400055D02*
X573014Y400055D01*
X576912Y396157D02*
X576912Y403953D01*
X526238Y380502D02*
X526238Y368808D01*
X534034Y368808D01*
X537932Y368808D02*
X537932Y380502D01*
X543779Y380502D01*
X545728Y378553D01*
X545728Y374655D01*
X543779Y372706D01*
X537932Y372706D01*
X541830Y372706D02*
X545728Y368808D01*
X549626Y368808D02*
X549626Y380502D01*
X549626Y368808D02*
X555473Y368808D01*
X557422Y370757D01*
X557422Y378553D01*
X555473Y380502D01*
X549626Y380502D01*
X561320Y376604D02*
X565218Y380502D01*
X565218Y368808D01*
X561320Y368808D02*
X569116Y368808D01*
X573014Y378553D02*
X580810Y370757D01*
X573014Y370757D02*
X580810Y378553D01*
X580810Y374655D02*
X573014Y374655D01*
X576912Y370757D02*
X576912Y378553D01*
X534034Y353153D02*
X532085Y355102D01*
X528187Y355102D01*
X526238Y353153D01*
X526238Y345357D01*
X528187Y343408D01*
X532085Y343408D01*
X534034Y345357D01*
X534034Y349255D01*
X530136Y349255D01*
X537932Y343408D02*
X537932Y355102D01*
X543779Y355102D01*
X545728Y353153D01*
X545728Y349255D01*
X543779Y347306D01*
X537932Y347306D01*
X549626Y353153D02*
X551575Y355102D01*
X555473Y355102D01*
X557422Y353153D01*
X557422Y351204D01*
X555473Y349255D01*
X553524Y349255D01*
X555473Y349255D02*
X557422Y347306D01*
X557422Y345357D01*
X555473Y343408D01*
X551575Y343408D01*
X549626Y345357D01*
X561320Y343408D02*
X569116Y343408D01*
X561320Y343408D02*
X569116Y351204D01*
X569116Y353153D01*
X567167Y355102D01*
X563269Y355102D01*
X561320Y353153D01*
X573014Y353153D02*
X580810Y345357D01*
X573014Y345357D02*
X580810Y353153D01*
X580810Y349255D02*
X573014Y349255D01*
X576912Y345357D02*
X576912Y353153D01*
X534034Y327753D02*
X532085Y329702D01*
X528187Y329702D01*
X526238Y327753D01*
X526238Y319957D01*
X528187Y318008D01*
X532085Y318008D01*
X534034Y319957D01*
X534034Y323855D01*
X530136Y323855D01*
X537932Y318008D02*
X537932Y329702D01*
X543779Y329702D01*
X545728Y327753D01*
X545728Y323855D01*
X543779Y321906D01*
X537932Y321906D01*
X549626Y327753D02*
X551575Y329702D01*
X555473Y329702D01*
X557422Y327753D01*
X557422Y325804D01*
X555473Y323855D01*
X553524Y323855D01*
X555473Y323855D02*
X557422Y321906D01*
X557422Y319957D01*
X555473Y318008D01*
X551575Y318008D01*
X549626Y319957D01*
X561320Y327753D02*
X563269Y329702D01*
X567167Y329702D01*
X569116Y327753D01*
X569116Y325804D01*
X567167Y323855D01*
X565218Y323855D01*
X567167Y323855D02*
X569116Y321906D01*
X569116Y319957D01*
X567167Y318008D01*
X563269Y318008D01*
X561320Y319957D01*
X573014Y327753D02*
X580810Y319957D01*
X573014Y319957D02*
X580810Y327753D01*
X580810Y323855D02*
X573014Y323855D01*
X576912Y319957D02*
X576912Y327753D01*
X549626Y304302D02*
X549626Y292608D01*
X557422Y292608D01*
X561320Y304302D02*
X569116Y304302D01*
X561320Y304302D02*
X561320Y292608D01*
X569116Y292608D01*
X565218Y298455D02*
X561320Y298455D01*
X573014Y304302D02*
X573014Y292608D01*
X578861Y292608D01*
X580810Y294557D01*
X580810Y302353D01*
X578861Y304302D01*
X573014Y304302D01*
X537932Y278902D02*
X537932Y267208D01*
X545728Y267208D01*
X549626Y267208D02*
X549626Y278902D01*
X555473Y278902D01*
X557422Y276953D01*
X557422Y273055D01*
X555473Y271106D01*
X549626Y271106D01*
X553524Y271106D02*
X557422Y267208D01*
X561320Y267208D02*
X561320Y278902D01*
X561320Y267208D02*
X567167Y267208D01*
X569116Y269157D01*
X569116Y276953D01*
X567167Y278902D01*
X561320Y278902D01*
X573014Y276953D02*
X573014Y269157D01*
X573014Y276953D02*
X574963Y278902D01*
X578861Y278902D01*
X580810Y276953D01*
X580810Y269157D01*
X578861Y267208D01*
X574963Y267208D01*
X573014Y269157D01*
X580810Y276953D01*
X537932Y253502D02*
X537932Y241808D01*
X545728Y241808D01*
X549626Y241808D02*
X549626Y253502D01*
X555473Y253502D01*
X557422Y251553D01*
X557422Y247655D01*
X555473Y245706D01*
X549626Y245706D01*
X553524Y245706D02*
X557422Y241808D01*
X561320Y241808D02*
X561320Y253502D01*
X565218Y249604D01*
X569116Y253502D01*
X569116Y241808D01*
X574963Y253502D02*
X578861Y253502D01*
X574963Y253502D02*
X573014Y251553D01*
X573014Y243757D01*
X574963Y241808D01*
X578861Y241808D01*
X580810Y243757D01*
X580810Y251553D01*
X578861Y253502D01*
X537932Y228102D02*
X537932Y216408D01*
X545728Y216408D01*
X549626Y216408D02*
X549626Y228102D01*
X555473Y228102D01*
X557422Y226153D01*
X557422Y222255D01*
X555473Y220306D01*
X549626Y220306D01*
X553524Y220306D02*
X557422Y216408D01*
X561320Y216408D02*
X561320Y228102D01*
X567167Y228102D01*
X569116Y226153D01*
X569116Y222255D01*
X567167Y220306D01*
X561320Y220306D01*
X565218Y220306D02*
X569116Y216408D01*
X580810Y226153D02*
X578861Y228102D01*
X574963Y228102D01*
X573014Y226153D01*
X573014Y224204D01*
X574963Y222255D01*
X578861Y222255D01*
X580810Y220306D01*
X580810Y218357D01*
X578861Y216408D01*
X574963Y216408D01*
X573014Y218357D01*
X545728Y200753D02*
X543779Y202702D01*
X539881Y202702D01*
X537932Y200753D01*
X537932Y192957D01*
X539881Y191008D01*
X543779Y191008D01*
X545728Y192957D01*
X545728Y196855D01*
X541830Y196855D01*
X549626Y191008D02*
X549626Y202702D01*
X555473Y202702D01*
X557422Y200753D01*
X557422Y196855D01*
X555473Y194906D01*
X549626Y194906D01*
X561320Y198804D02*
X565218Y202702D01*
X565218Y191008D01*
X561320Y191008D02*
X569116Y191008D01*
X573014Y191008D02*
X580810Y191008D01*
X573014Y191008D02*
X580810Y198804D01*
X580810Y200753D01*
X578861Y202702D01*
X574963Y202702D01*
X573014Y200753D01*
X545728Y175353D02*
X543779Y177302D01*
X539881Y177302D01*
X537932Y175353D01*
X537932Y167557D01*
X539881Y165608D01*
X543779Y165608D01*
X545728Y167557D01*
X545728Y171455D01*
X541830Y171455D01*
X549626Y165608D02*
X549626Y177302D01*
X555473Y177302D01*
X557422Y175353D01*
X557422Y171455D01*
X555473Y169506D01*
X549626Y169506D01*
X561320Y173404D02*
X565218Y177302D01*
X565218Y165608D01*
X561320Y165608D02*
X569116Y165608D01*
X573014Y175353D02*
X574963Y177302D01*
X578861Y177302D01*
X580810Y175353D01*
X580810Y173404D01*
X578861Y171455D01*
X576912Y171455D01*
X578861Y171455D02*
X580810Y169506D01*
X580810Y167557D01*
X578861Y165608D01*
X574963Y165608D01*
X573014Y167557D01*
X537932Y151902D02*
X537932Y144106D01*
X541830Y140208D01*
X545728Y144106D01*
X545728Y151902D01*
X549626Y151902D02*
X557422Y140208D01*
X549626Y140208D02*
X557422Y151902D01*
X567167Y151902D02*
X569116Y149953D01*
X567167Y151902D02*
X563269Y151902D01*
X561320Y149953D01*
X561320Y142157D01*
X563269Y140208D01*
X567167Y140208D01*
X569116Y142157D01*
X576912Y140208D02*
X576912Y151902D01*
X573014Y151902D02*
X580810Y151902D01*
X213516Y558302D02*
X205720Y558302D01*
X205720Y552455D01*
X209618Y554404D01*
X211567Y554404D01*
X213516Y552455D01*
X213516Y548557D01*
X211567Y546608D01*
X207669Y546608D01*
X205720Y548557D01*
X217414Y550506D02*
X217414Y558302D01*
X217414Y550506D02*
X221312Y546608D01*
X225210Y550506D01*
X225210Y558302D01*
X182332Y532902D02*
X182332Y525106D01*
X186230Y521208D01*
X190128Y525106D01*
X190128Y532902D01*
X194026Y532902D02*
X201822Y532902D01*
X194026Y532902D02*
X194026Y521208D01*
X201822Y521208D01*
X197924Y527055D02*
X194026Y527055D01*
X205720Y532902D02*
X213516Y521208D01*
X205720Y521208D02*
X213516Y532902D01*
X221312Y532902D02*
X221312Y521208D01*
X217414Y532902D02*
X225210Y532902D01*
X182332Y507502D02*
X182332Y499706D01*
X186230Y495808D01*
X190128Y499706D01*
X190128Y507502D01*
X194026Y507502D02*
X201822Y507502D01*
X194026Y507502D02*
X194026Y495808D01*
X201822Y495808D01*
X197924Y501655D02*
X194026Y501655D01*
X205720Y507502D02*
X213516Y495808D01*
X205720Y495808D02*
X213516Y507502D01*
X221312Y507502D02*
X221312Y495808D01*
X217414Y507502D02*
X225210Y507502D01*
X205720Y482102D02*
X205720Y470408D01*
X205720Y482102D02*
X211567Y482102D01*
X213516Y480153D01*
X213516Y476255D01*
X211567Y474306D01*
X205720Y474306D01*
X209618Y474306D02*
X213516Y470408D01*
X225210Y470408D02*
X217414Y482102D01*
X225210Y482102D02*
X217414Y470408D01*
X209618Y456702D02*
X209618Y445008D01*
X205720Y456702D02*
X213516Y456702D01*
X217414Y456702D02*
X225210Y445008D01*
X217414Y445008D02*
X225210Y456702D01*
X194026Y431302D02*
X194026Y419608D01*
X194026Y431302D02*
X199873Y431302D01*
X201822Y429353D01*
X201822Y425455D01*
X199873Y423506D01*
X194026Y423506D01*
X197924Y423506D02*
X201822Y419608D01*
X213516Y429353D02*
X211567Y431302D01*
X207669Y431302D01*
X205720Y429353D01*
X205720Y427404D01*
X207669Y425455D01*
X211567Y425455D01*
X213516Y423506D01*
X213516Y421557D01*
X211567Y419608D01*
X207669Y419608D01*
X205720Y421557D01*
X221312Y419608D02*
X221312Y431302D01*
X217414Y431302D02*
X225210Y431302D01*
X182332Y405902D02*
X182332Y394208D01*
X182332Y405902D02*
X188179Y405902D01*
X190128Y403953D01*
X190128Y400055D01*
X188179Y398106D01*
X182332Y398106D01*
X194026Y394208D02*
X194026Y405902D01*
X199873Y405902D01*
X201822Y403953D01*
X201822Y400055D01*
X199873Y398106D01*
X194026Y398106D01*
X197924Y398106D02*
X201822Y394208D01*
X213516Y403953D02*
X211567Y405902D01*
X207669Y405902D01*
X205720Y403953D01*
X205720Y396157D01*
X207669Y394208D01*
X211567Y394208D01*
X213516Y396157D01*
X213516Y400055D01*
X209618Y400055D01*
X217414Y396157D02*
X217414Y403953D01*
X219363Y405902D01*
X223261Y405902D01*
X225210Y403953D01*
X225210Y396157D01*
X223261Y394208D01*
X219363Y394208D01*
X217414Y396157D01*
X225210Y403953D01*
X190128Y378553D02*
X188179Y380502D01*
X184281Y380502D01*
X182332Y378553D01*
X182332Y370757D01*
X184281Y368808D01*
X188179Y368808D01*
X190128Y370757D01*
X190128Y374655D01*
X186230Y374655D01*
X194026Y368808D02*
X194026Y380502D01*
X199873Y380502D01*
X201822Y378553D01*
X201822Y374655D01*
X199873Y372706D01*
X194026Y372706D01*
X205720Y368808D02*
X213516Y368808D01*
X205720Y368808D02*
X213516Y376604D01*
X213516Y378553D01*
X211567Y380502D01*
X207669Y380502D01*
X205720Y378553D01*
X217414Y368808D02*
X225210Y368808D01*
X217414Y368808D02*
X225210Y376604D01*
X225210Y378553D01*
X223261Y380502D01*
X219363Y380502D01*
X217414Y378553D01*
X186230Y355102D02*
X186230Y343408D01*
X194026Y343408D01*
X197924Y343408D02*
X197924Y355102D01*
X203771Y355102D01*
X205720Y353153D01*
X205720Y349255D01*
X203771Y347306D01*
X197924Y347306D01*
X201822Y347306D02*
X205720Y343408D01*
X209618Y343408D02*
X209618Y355102D01*
X213516Y351204D01*
X217414Y355102D01*
X217414Y343408D01*
X221312Y343408D02*
X225210Y343408D01*
X223261Y343408D02*
X223261Y355102D01*
X221312Y355102D02*
X225210Y355102D01*
X190128Y327753D02*
X188179Y329702D01*
X184281Y329702D01*
X182332Y327753D01*
X182332Y319957D01*
X184281Y318008D01*
X188179Y318008D01*
X190128Y319957D01*
X190128Y323855D01*
X186230Y323855D01*
X194026Y318008D02*
X194026Y329702D01*
X199873Y329702D01*
X201822Y327753D01*
X201822Y323855D01*
X199873Y321906D01*
X194026Y321906D01*
X205720Y318008D02*
X213516Y318008D01*
X205720Y318008D02*
X213516Y325804D01*
X213516Y327753D01*
X211567Y329702D01*
X207669Y329702D01*
X205720Y327753D01*
X217414Y327753D02*
X219363Y329702D01*
X223261Y329702D01*
X225210Y327753D01*
X225210Y325804D01*
X223261Y323855D01*
X221312Y323855D01*
X223261Y323855D02*
X225210Y321906D01*
X225210Y319957D01*
X223261Y318008D01*
X219363Y318008D01*
X217414Y319957D01*
X182332Y304302D02*
X182332Y292608D01*
X190128Y292608D01*
X194026Y292608D02*
X194026Y304302D01*
X199873Y304302D01*
X201822Y302353D01*
X201822Y298455D01*
X199873Y296506D01*
X194026Y296506D01*
X197924Y296506D02*
X201822Y292608D01*
X213516Y302353D02*
X211567Y304302D01*
X207669Y304302D01*
X205720Y302353D01*
X205720Y294557D01*
X207669Y292608D01*
X211567Y292608D01*
X213516Y294557D01*
X223261Y304302D02*
X225210Y302353D01*
X223261Y304302D02*
X219363Y304302D01*
X217414Y302353D01*
X217414Y300404D01*
X219363Y298455D01*
X223261Y298455D01*
X225210Y296506D01*
X225210Y294557D01*
X223261Y292608D01*
X219363Y292608D01*
X217414Y294557D01*
X182332Y278902D02*
X182332Y267208D01*
X190128Y267208D01*
X194026Y267208D02*
X194026Y278902D01*
X199873Y278902D01*
X201822Y276953D01*
X201822Y273055D01*
X199873Y271106D01*
X194026Y271106D01*
X197924Y271106D02*
X201822Y267208D01*
X213516Y276953D02*
X211567Y278902D01*
X207669Y278902D01*
X205720Y276953D01*
X205720Y269157D01*
X207669Y267208D01*
X211567Y267208D01*
X213516Y269157D01*
X217414Y267208D02*
X217414Y278902D01*
X217414Y271106D02*
X225210Y278902D01*
X219363Y273055D02*
X225210Y267208D01*
X188179Y253502D02*
X184281Y253502D01*
X182332Y251553D01*
X182332Y243757D01*
X184281Y241808D01*
X188179Y241808D01*
X190128Y243757D01*
X190128Y251553D01*
X188179Y253502D01*
X199873Y253502D02*
X201822Y251553D01*
X199873Y253502D02*
X195975Y253502D01*
X194026Y251553D01*
X194026Y249604D01*
X195975Y247655D01*
X199873Y247655D01*
X201822Y245706D01*
X201822Y243757D01*
X199873Y241808D01*
X195975Y241808D01*
X194026Y243757D01*
X211567Y253502D02*
X213516Y251553D01*
X211567Y253502D02*
X207669Y253502D01*
X205720Y251553D01*
X205720Y243757D01*
X207669Y241808D01*
X211567Y241808D01*
X213516Y243757D01*
X217414Y241808D02*
X217414Y253502D01*
X217414Y241808D02*
X225210Y241808D01*
X201822Y226153D02*
X199873Y228102D01*
X195975Y228102D01*
X194026Y226153D01*
X194026Y218357D01*
X195975Y216408D01*
X199873Y216408D01*
X201822Y218357D01*
X201822Y222255D01*
X197924Y222255D01*
X205720Y216408D02*
X205720Y228102D01*
X211567Y228102D01*
X213516Y226153D01*
X213516Y222255D01*
X211567Y220306D01*
X205720Y220306D01*
X217414Y216408D02*
X225210Y216408D01*
X217414Y216408D02*
X225210Y224204D01*
X225210Y226153D01*
X223261Y228102D01*
X219363Y228102D01*
X217414Y226153D01*
X188179Y202702D02*
X184281Y202702D01*
X182332Y200753D01*
X182332Y192957D01*
X184281Y191008D01*
X188179Y191008D01*
X190128Y192957D01*
X190128Y200753D01*
X188179Y202702D01*
X199873Y202702D02*
X201822Y200753D01*
X199873Y202702D02*
X195975Y202702D01*
X194026Y200753D01*
X194026Y198804D01*
X195975Y196855D01*
X199873Y196855D01*
X201822Y194906D01*
X201822Y192957D01*
X199873Y191008D01*
X195975Y191008D01*
X194026Y192957D01*
X205720Y191008D02*
X205720Y202702D01*
X205720Y191008D02*
X211567Y191008D01*
X213516Y192957D01*
X213516Y200753D01*
X211567Y202702D01*
X205720Y202702D01*
X217414Y198804D02*
X217414Y191008D01*
X217414Y198804D02*
X221312Y202702D01*
X225210Y198804D01*
X225210Y191008D01*
X225210Y196855D02*
X217414Y196855D01*
X190128Y175353D02*
X188179Y177302D01*
X184281Y177302D01*
X182332Y175353D01*
X182332Y167557D01*
X184281Y165608D01*
X188179Y165608D01*
X190128Y167557D01*
X190128Y171455D01*
X186230Y171455D01*
X194026Y165608D02*
X194026Y177302D01*
X199873Y177302D01*
X201822Y175353D01*
X201822Y171455D01*
X199873Y169506D01*
X194026Y169506D01*
X205720Y173404D02*
X209618Y177302D01*
X209618Y165608D01*
X205720Y165608D02*
X213516Y165608D01*
X217414Y177302D02*
X225210Y177302D01*
X225210Y175353D01*
X217414Y167557D01*
X217414Y165608D01*
X188179Y151902D02*
X184281Y151902D01*
X182332Y149953D01*
X182332Y142157D01*
X184281Y140208D01*
X188179Y140208D01*
X190128Y142157D01*
X190128Y149953D01*
X188179Y151902D01*
X194026Y151902D02*
X194026Y140208D01*
X194026Y151902D02*
X199873Y151902D01*
X201822Y149953D01*
X201822Y146055D01*
X199873Y144106D01*
X194026Y144106D01*
X197924Y144106D02*
X201822Y140208D01*
X213516Y149953D02*
X211567Y151902D01*
X207669Y151902D01*
X205720Y149953D01*
X205720Y148004D01*
X207669Y146055D01*
X211567Y146055D01*
X213516Y144106D01*
X213516Y142157D01*
X211567Y140208D01*
X207669Y140208D01*
X205720Y142157D01*
X221312Y140208D02*
X221312Y151902D01*
X217414Y151902D02*
X225210Y151902D01*
D10*
X330573Y162815D02*
X336844Y162815D01*
X339979Y165951D01*
X336844Y169086D01*
X330573Y169086D01*
X330573Y176874D02*
X332141Y178441D01*
X330573Y176874D02*
X330573Y173738D01*
X332141Y172171D01*
X333708Y172171D01*
X335276Y173738D01*
X335276Y176874D01*
X336844Y178441D01*
X338411Y178441D01*
X339979Y176874D01*
X339979Y173738D01*
X338411Y172171D01*
X330573Y186229D02*
X332141Y187797D01*
X330573Y186229D02*
X330573Y183093D01*
X332141Y181526D01*
X333708Y181526D01*
X335276Y183093D01*
X335276Y186229D01*
X336844Y187797D01*
X338411Y187797D01*
X339979Y186229D01*
X339979Y183093D01*
X338411Y181526D01*
X357541Y163076D02*
X355973Y161508D01*
X355973Y158373D01*
X357541Y156805D01*
X359108Y156805D01*
X360676Y158373D01*
X360676Y161508D01*
X362244Y163076D01*
X363811Y163076D01*
X365379Y161508D01*
X365379Y158373D01*
X363811Y156805D01*
X355973Y170863D02*
X357541Y172431D01*
X355973Y170863D02*
X355973Y167728D01*
X357541Y166160D01*
X363811Y166160D01*
X365379Y167728D01*
X365379Y170863D01*
X363811Y172431D01*
X360676Y172431D01*
X360676Y169296D01*
X365379Y175515D02*
X355973Y175515D01*
X355973Y180218D01*
X357541Y181786D01*
X360676Y181786D01*
X362244Y180218D01*
X362244Y175515D01*
X359108Y184871D02*
X355973Y188006D01*
X365379Y188006D01*
X365379Y184871D02*
X365379Y191141D01*
X355973Y194226D02*
X355973Y200496D01*
X357541Y200496D01*
X363811Y194226D01*
X365379Y194226D01*
X382941Y163076D02*
X381373Y161508D01*
X381373Y158373D01*
X382941Y156805D01*
X384508Y156805D01*
X386076Y158373D01*
X386076Y161508D01*
X387644Y163076D01*
X389211Y163076D01*
X390779Y161508D01*
X390779Y158373D01*
X389211Y156805D01*
X381373Y170863D02*
X382941Y172431D01*
X381373Y170863D02*
X381373Y167728D01*
X382941Y166160D01*
X389211Y166160D01*
X390779Y167728D01*
X390779Y170863D01*
X389211Y172431D01*
X386076Y172431D01*
X386076Y169296D01*
X390779Y175515D02*
X381373Y175515D01*
X381373Y180218D01*
X382941Y181786D01*
X386076Y181786D01*
X387644Y180218D01*
X387644Y175515D01*
X390779Y184871D02*
X390779Y191141D01*
X390779Y184871D02*
X384508Y191141D01*
X382941Y191141D01*
X381373Y189574D01*
X381373Y186438D01*
X382941Y184871D01*
X382941Y194226D02*
X381373Y195793D01*
X381373Y198929D01*
X382941Y200496D01*
X384508Y200496D01*
X386076Y198929D01*
X386076Y197361D01*
X386076Y198929D02*
X387644Y200496D01*
X389211Y200496D01*
X390779Y198929D01*
X390779Y195793D01*
X389211Y194226D01*
X408341Y169086D02*
X406773Y167518D01*
X406773Y164383D01*
X408341Y162815D01*
X414611Y162815D01*
X416179Y164383D01*
X416179Y167518D01*
X414611Y169086D01*
X411476Y169086D01*
X411476Y165951D01*
X416179Y172171D02*
X406773Y172171D01*
X416179Y178441D01*
X406773Y178441D01*
X406773Y181526D02*
X416179Y181526D01*
X416179Y186229D01*
X414611Y187797D01*
X408341Y187797D01*
X406773Y186229D01*
X406773Y181526D01*
X319449Y251087D02*
X317881Y249519D01*
X319449Y251087D02*
X322584Y251087D01*
X324152Y249519D01*
X324152Y247952D01*
X322584Y246384D01*
X321016Y246384D01*
X322584Y246384D02*
X324152Y244816D01*
X324152Y243249D01*
X322584Y241681D01*
X319449Y241681D01*
X317881Y243249D01*
X327236Y244816D02*
X327236Y251087D01*
X327236Y244816D02*
X330372Y241681D01*
X333507Y244816D01*
X333507Y251087D01*
X336591Y249519D02*
X338159Y251087D01*
X341294Y251087D01*
X342862Y249519D01*
X342862Y247952D01*
X341294Y246384D01*
X339727Y246384D01*
X341294Y246384D02*
X342862Y244816D01*
X342862Y243249D01*
X341294Y241681D01*
X338159Y241681D01*
X336591Y243249D01*
X419481Y251087D02*
X425752Y251087D01*
X419481Y251087D02*
X419481Y246384D01*
X422616Y247952D01*
X424184Y247952D01*
X425752Y246384D01*
X425752Y243249D01*
X424184Y241681D01*
X421049Y241681D01*
X419481Y243249D01*
X428836Y244816D02*
X428836Y251087D01*
X428836Y244816D02*
X431972Y241681D01*
X435107Y244816D01*
X435107Y251087D01*
X471841Y367827D02*
X478111Y374097D01*
X478111Y367827D02*
X471841Y374097D01*
X474976Y374097D02*
X474976Y367827D01*
X478111Y370962D02*
X471841Y370962D01*
X474976Y386537D02*
X474976Y392808D01*
X479679Y405247D02*
X479679Y408383D01*
X479679Y406815D02*
X470273Y406815D01*
X470273Y405247D02*
X470273Y408383D01*
X470273Y411484D02*
X479679Y411484D01*
X479679Y417755D02*
X470273Y411484D01*
X470273Y417755D02*
X479679Y417755D01*
X479679Y420839D02*
X470273Y420839D01*
X470273Y425542D01*
X471841Y427110D01*
X474976Y427110D01*
X476544Y425542D01*
X476544Y420839D01*
X478111Y430195D02*
X470273Y430195D01*
X478111Y430195D02*
X479679Y431762D01*
X479679Y434898D01*
X478111Y436465D01*
X470273Y436465D01*
X470273Y442685D02*
X479679Y442685D01*
X470273Y439550D02*
X470273Y445820D01*
X470273Y459828D02*
X470273Y462963D01*
X470273Y459828D02*
X471841Y458260D01*
X478111Y458260D01*
X479679Y459828D01*
X479679Y462963D01*
X478111Y464531D01*
X471841Y464531D01*
X470273Y462963D01*
X470273Y467615D02*
X479679Y467615D01*
X479679Y473886D02*
X470273Y467615D01*
X470273Y473886D02*
X479679Y473886D01*
X479679Y476971D02*
X470273Y476971D01*
X479679Y476971D02*
X479679Y483241D01*
X471841Y486326D02*
X470273Y486326D01*
X471841Y486326D02*
X474976Y489461D01*
X471841Y492596D01*
X470273Y492596D01*
X474976Y489461D02*
X479679Y489461D01*
D12*
X481870Y139500D02*
X530130Y139500D01*
X481870Y139500D02*
X481712Y139502D01*
X481553Y139508D01*
X481395Y139518D01*
X481238Y139532D01*
X481080Y139549D01*
X480924Y139571D01*
X480767Y139596D01*
X480612Y139626D01*
X480457Y139659D01*
X480303Y139696D01*
X480150Y139737D01*
X479998Y139782D01*
X479848Y139831D01*
X479698Y139883D01*
X479550Y139939D01*
X479403Y139999D01*
X479258Y140062D01*
X479115Y140129D01*
X478973Y140199D01*
X478833Y140273D01*
X478695Y140351D01*
X478559Y140432D01*
X478425Y140516D01*
X478293Y140603D01*
X478163Y140694D01*
X478036Y140788D01*
X477911Y140885D01*
X477788Y140986D01*
X477668Y141089D01*
X477551Y141195D01*
X477436Y141304D01*
X477324Y141416D01*
X477215Y141531D01*
X477109Y141648D01*
X477006Y141768D01*
X476905Y141891D01*
X476808Y142016D01*
X476714Y142143D01*
X476623Y142273D01*
X476536Y142405D01*
X476452Y142539D01*
X476371Y142675D01*
X476293Y142813D01*
X476219Y142953D01*
X476149Y143095D01*
X476082Y143238D01*
X476019Y143383D01*
X475959Y143530D01*
X475903Y143678D01*
X475851Y143828D01*
X475802Y143978D01*
X475757Y144130D01*
X475716Y144283D01*
X475679Y144437D01*
X475646Y144592D01*
X475616Y144747D01*
X475591Y144904D01*
X475569Y145060D01*
X475552Y145218D01*
X475538Y145375D01*
X475528Y145533D01*
X475522Y145692D01*
X475520Y145850D01*
X530130Y139500D02*
X530288Y139502D01*
X530447Y139508D01*
X530605Y139518D01*
X530762Y139532D01*
X530920Y139549D01*
X531076Y139571D01*
X531233Y139596D01*
X531388Y139626D01*
X531543Y139659D01*
X531697Y139696D01*
X531850Y139737D01*
X532002Y139782D01*
X532152Y139831D01*
X532302Y139883D01*
X532450Y139939D01*
X532597Y139999D01*
X532742Y140062D01*
X532885Y140129D01*
X533027Y140199D01*
X533167Y140273D01*
X533305Y140351D01*
X533441Y140432D01*
X533575Y140516D01*
X533707Y140603D01*
X533837Y140694D01*
X533964Y140788D01*
X534089Y140885D01*
X534212Y140986D01*
X534332Y141089D01*
X534449Y141195D01*
X534564Y141304D01*
X534676Y141416D01*
X534785Y141531D01*
X534891Y141648D01*
X534994Y141768D01*
X535095Y141891D01*
X535192Y142016D01*
X535286Y142143D01*
X535377Y142273D01*
X535464Y142405D01*
X535548Y142539D01*
X535629Y142675D01*
X535707Y142813D01*
X535781Y142953D01*
X535851Y143095D01*
X535918Y143238D01*
X535981Y143383D01*
X536041Y143530D01*
X536097Y143678D01*
X536149Y143828D01*
X536198Y143978D01*
X536243Y144130D01*
X536284Y144283D01*
X536321Y144437D01*
X536354Y144592D01*
X536384Y144747D01*
X536409Y144904D01*
X536431Y145060D01*
X536448Y145218D01*
X536462Y145375D01*
X536472Y145533D01*
X536478Y145692D01*
X536480Y145850D01*
X475520Y145850D02*
X475520Y590350D01*
X481870Y596700D02*
X530130Y596700D01*
X536480Y590350D02*
X536480Y145850D01*
X475520Y590350D02*
X475522Y590508D01*
X475528Y590667D01*
X475538Y590825D01*
X475552Y590982D01*
X475569Y591140D01*
X475591Y591296D01*
X475616Y591453D01*
X475646Y591608D01*
X475679Y591763D01*
X475716Y591917D01*
X475757Y592070D01*
X475802Y592222D01*
X475851Y592372D01*
X475903Y592522D01*
X475959Y592670D01*
X476019Y592817D01*
X476082Y592962D01*
X476149Y593105D01*
X476219Y593247D01*
X476293Y593387D01*
X476371Y593525D01*
X476452Y593661D01*
X476536Y593795D01*
X476623Y593927D01*
X476714Y594057D01*
X476808Y594184D01*
X476905Y594309D01*
X477006Y594432D01*
X477109Y594552D01*
X477215Y594669D01*
X477324Y594784D01*
X477436Y594896D01*
X477551Y595005D01*
X477668Y595111D01*
X477788Y595214D01*
X477911Y595315D01*
X478036Y595412D01*
X478163Y595506D01*
X478293Y595597D01*
X478425Y595684D01*
X478559Y595768D01*
X478695Y595849D01*
X478833Y595927D01*
X478973Y596001D01*
X479115Y596071D01*
X479258Y596138D01*
X479403Y596201D01*
X479550Y596261D01*
X479698Y596317D01*
X479848Y596369D01*
X479998Y596418D01*
X480150Y596463D01*
X480303Y596504D01*
X480457Y596541D01*
X480612Y596574D01*
X480767Y596604D01*
X480924Y596629D01*
X481080Y596651D01*
X481238Y596668D01*
X481395Y596682D01*
X481553Y596692D01*
X481712Y596698D01*
X481870Y596700D01*
X530130Y596700D02*
X530288Y596698D01*
X530447Y596692D01*
X530605Y596682D01*
X530762Y596668D01*
X530920Y596651D01*
X531076Y596629D01*
X531233Y596604D01*
X531388Y596574D01*
X531543Y596541D01*
X531697Y596504D01*
X531850Y596463D01*
X532002Y596418D01*
X532152Y596369D01*
X532302Y596317D01*
X532450Y596261D01*
X532597Y596201D01*
X532742Y596138D01*
X532885Y596071D01*
X533027Y596001D01*
X533167Y595927D01*
X533305Y595849D01*
X533441Y595768D01*
X533575Y595684D01*
X533707Y595597D01*
X533837Y595506D01*
X533964Y595412D01*
X534089Y595315D01*
X534212Y595214D01*
X534332Y595111D01*
X534449Y595005D01*
X534564Y594896D01*
X534676Y594784D01*
X534785Y594669D01*
X534891Y594552D01*
X534994Y594432D01*
X535095Y594309D01*
X535192Y594184D01*
X535286Y594057D01*
X535377Y593927D01*
X535464Y593795D01*
X535548Y593661D01*
X535629Y593525D01*
X535707Y593387D01*
X535781Y593247D01*
X535851Y593105D01*
X535918Y592962D01*
X535981Y592817D01*
X536041Y592670D01*
X536097Y592522D01*
X536149Y592372D01*
X536198Y592222D01*
X536243Y592070D01*
X536284Y591917D01*
X536321Y591763D01*
X536354Y591608D01*
X536384Y591453D01*
X536409Y591296D01*
X536431Y591140D01*
X536448Y590982D01*
X536462Y590825D01*
X536472Y590667D01*
X536478Y590508D01*
X536480Y590350D01*
D13*
X459635Y152838D02*
X463449Y149025D01*
X459635Y152838D02*
X471075Y152838D01*
X471075Y149025D02*
X471075Y156652D01*
X542822Y575745D02*
X540915Y577652D01*
X540915Y581465D01*
X542822Y583372D01*
X544729Y583372D01*
X546635Y581465D01*
X546635Y579558D01*
X546635Y581465D02*
X548542Y583372D01*
X550448Y583372D01*
X552355Y581465D01*
X552355Y577652D01*
X550448Y575745D01*
X542822Y591252D02*
X540915Y595065D01*
X542822Y591252D02*
X546635Y587439D01*
X550448Y587439D01*
X552355Y589346D01*
X552355Y593159D01*
X550448Y595065D01*
X548542Y595065D01*
X546635Y593159D01*
X546635Y587439D01*
D12*
X280130Y139500D02*
X231870Y139500D01*
X231712Y139502D01*
X231553Y139508D01*
X231395Y139518D01*
X231238Y139532D01*
X231080Y139549D01*
X230924Y139571D01*
X230767Y139596D01*
X230612Y139626D01*
X230457Y139659D01*
X230303Y139696D01*
X230150Y139737D01*
X229998Y139782D01*
X229848Y139831D01*
X229698Y139883D01*
X229550Y139939D01*
X229403Y139999D01*
X229258Y140062D01*
X229115Y140129D01*
X228973Y140199D01*
X228833Y140273D01*
X228695Y140351D01*
X228559Y140432D01*
X228425Y140516D01*
X228293Y140603D01*
X228163Y140694D01*
X228036Y140788D01*
X227911Y140885D01*
X227788Y140986D01*
X227668Y141089D01*
X227551Y141195D01*
X227436Y141304D01*
X227324Y141416D01*
X227215Y141531D01*
X227109Y141648D01*
X227006Y141768D01*
X226905Y141891D01*
X226808Y142016D01*
X226714Y142143D01*
X226623Y142273D01*
X226536Y142405D01*
X226452Y142539D01*
X226371Y142675D01*
X226293Y142813D01*
X226219Y142953D01*
X226149Y143095D01*
X226082Y143238D01*
X226019Y143383D01*
X225959Y143530D01*
X225903Y143678D01*
X225851Y143828D01*
X225802Y143978D01*
X225757Y144130D01*
X225716Y144283D01*
X225679Y144437D01*
X225646Y144592D01*
X225616Y144747D01*
X225591Y144904D01*
X225569Y145060D01*
X225552Y145218D01*
X225538Y145375D01*
X225528Y145533D01*
X225522Y145692D01*
X225520Y145850D01*
X280130Y139500D02*
X280288Y139502D01*
X280447Y139508D01*
X280605Y139518D01*
X280762Y139532D01*
X280920Y139549D01*
X281076Y139571D01*
X281233Y139596D01*
X281388Y139626D01*
X281543Y139659D01*
X281697Y139696D01*
X281850Y139737D01*
X282002Y139782D01*
X282152Y139831D01*
X282302Y139883D01*
X282450Y139939D01*
X282597Y139999D01*
X282742Y140062D01*
X282885Y140129D01*
X283027Y140199D01*
X283167Y140273D01*
X283305Y140351D01*
X283441Y140432D01*
X283575Y140516D01*
X283707Y140603D01*
X283837Y140694D01*
X283964Y140788D01*
X284089Y140885D01*
X284212Y140986D01*
X284332Y141089D01*
X284449Y141195D01*
X284564Y141304D01*
X284676Y141416D01*
X284785Y141531D01*
X284891Y141648D01*
X284994Y141768D01*
X285095Y141891D01*
X285192Y142016D01*
X285286Y142143D01*
X285377Y142273D01*
X285464Y142405D01*
X285548Y142539D01*
X285629Y142675D01*
X285707Y142813D01*
X285781Y142953D01*
X285851Y143095D01*
X285918Y143238D01*
X285981Y143383D01*
X286041Y143530D01*
X286097Y143678D01*
X286149Y143828D01*
X286198Y143978D01*
X286243Y144130D01*
X286284Y144283D01*
X286321Y144437D01*
X286354Y144592D01*
X286384Y144747D01*
X286409Y144904D01*
X286431Y145060D01*
X286448Y145218D01*
X286462Y145375D01*
X286472Y145533D01*
X286478Y145692D01*
X286480Y145850D01*
X225520Y145850D02*
X225520Y590350D01*
X231870Y596700D02*
X280130Y596700D01*
X286480Y590350D02*
X286480Y145850D01*
X225520Y590350D02*
X225522Y590508D01*
X225528Y590667D01*
X225538Y590825D01*
X225552Y590982D01*
X225569Y591140D01*
X225591Y591296D01*
X225616Y591453D01*
X225646Y591608D01*
X225679Y591763D01*
X225716Y591917D01*
X225757Y592070D01*
X225802Y592222D01*
X225851Y592372D01*
X225903Y592522D01*
X225959Y592670D01*
X226019Y592817D01*
X226082Y592962D01*
X226149Y593105D01*
X226219Y593247D01*
X226293Y593387D01*
X226371Y593525D01*
X226452Y593661D01*
X226536Y593795D01*
X226623Y593927D01*
X226714Y594057D01*
X226808Y594184D01*
X226905Y594309D01*
X227006Y594432D01*
X227109Y594552D01*
X227215Y594669D01*
X227324Y594784D01*
X227436Y594896D01*
X227551Y595005D01*
X227668Y595111D01*
X227788Y595214D01*
X227911Y595315D01*
X228036Y595412D01*
X228163Y595506D01*
X228293Y595597D01*
X228425Y595684D01*
X228559Y595768D01*
X228695Y595849D01*
X228833Y595927D01*
X228973Y596001D01*
X229115Y596071D01*
X229258Y596138D01*
X229403Y596201D01*
X229550Y596261D01*
X229698Y596317D01*
X229848Y596369D01*
X229998Y596418D01*
X230150Y596463D01*
X230303Y596504D01*
X230457Y596541D01*
X230612Y596574D01*
X230767Y596604D01*
X230924Y596629D01*
X231080Y596651D01*
X231238Y596668D01*
X231395Y596682D01*
X231553Y596692D01*
X231712Y596698D01*
X231870Y596700D01*
X280130Y596700D02*
X280288Y596698D01*
X280447Y596692D01*
X280605Y596682D01*
X280762Y596668D01*
X280920Y596651D01*
X281076Y596629D01*
X281233Y596604D01*
X281388Y596574D01*
X281543Y596541D01*
X281697Y596504D01*
X281850Y596463D01*
X282002Y596418D01*
X282152Y596369D01*
X282302Y596317D01*
X282450Y596261D01*
X282597Y596201D01*
X282742Y596138D01*
X282885Y596071D01*
X283027Y596001D01*
X283167Y595927D01*
X283305Y595849D01*
X283441Y595768D01*
X283575Y595684D01*
X283707Y595597D01*
X283837Y595506D01*
X283964Y595412D01*
X284089Y595315D01*
X284212Y595214D01*
X284332Y595111D01*
X284449Y595005D01*
X284564Y594896D01*
X284676Y594784D01*
X284785Y594669D01*
X284891Y594552D01*
X284994Y594432D01*
X285095Y594309D01*
X285192Y594184D01*
X285286Y594057D01*
X285377Y593927D01*
X285464Y593795D01*
X285548Y593661D01*
X285629Y593525D01*
X285707Y593387D01*
X285781Y593247D01*
X285851Y593105D01*
X285918Y592962D01*
X285981Y592817D01*
X286041Y592670D01*
X286097Y592522D01*
X286149Y592372D01*
X286198Y592222D01*
X286243Y592070D01*
X286284Y591917D01*
X286321Y591763D01*
X286354Y591608D01*
X286384Y591453D01*
X286409Y591296D01*
X286431Y591140D01*
X286448Y590982D01*
X286462Y590825D01*
X286472Y590667D01*
X286478Y590508D01*
X286480Y590350D01*
D13*
X209635Y152838D02*
X213449Y149025D01*
X209635Y152838D02*
X221075Y152838D01*
X221075Y149025D02*
X221075Y156652D01*
X292822Y575745D02*
X290915Y577652D01*
X290915Y581465D01*
X292822Y583372D01*
X294729Y583372D01*
X296635Y581465D01*
X296635Y579558D01*
X296635Y581465D02*
X298542Y583372D01*
X300448Y583372D01*
X302355Y581465D01*
X302355Y577652D01*
X300448Y575745D01*
X292822Y591252D02*
X290915Y595065D01*
X292822Y591252D02*
X296635Y587439D01*
X300448Y587439D01*
X302355Y589346D01*
X302355Y593159D01*
X300448Y595065D01*
X298542Y595065D01*
X296635Y593159D01*
X296635Y587439D01*
D12*
X190500Y596900D02*
X190500Y622300D01*
X190500Y596900D02*
X213360Y596900D01*
X215900Y599440D01*
X218440Y596900D01*
X238760Y596900D01*
X241300Y599440D01*
X243840Y596900D01*
X264160Y596900D01*
X266700Y599440D01*
X269240Y596900D01*
X289560Y596900D01*
X292100Y599440D01*
X294640Y596900D01*
X314960Y596900D01*
X320040Y596900D02*
X342900Y596900D01*
X342900Y622300D01*
X320040Y622300D01*
X314960Y622300D02*
X294640Y622300D01*
X292100Y619760D01*
X289560Y622300D01*
X269240Y622300D01*
X266700Y619760D01*
X264160Y622300D01*
X243840Y622300D01*
X241300Y619760D01*
X238760Y622300D01*
X218440Y622300D01*
X215900Y619760D01*
X213360Y622300D01*
X190500Y622300D01*
X317500Y619760D02*
X320040Y622300D01*
X317500Y619760D02*
X314960Y622300D01*
X317500Y599440D02*
X320040Y596900D01*
X317500Y599440D02*
X314960Y596900D01*
D13*
X202568Y636915D02*
X198755Y633102D01*
X202568Y636915D02*
X202568Y625475D01*
X198755Y625475D02*
X206382Y625475D01*
X329568Y635008D02*
X333382Y636915D01*
X329568Y635008D02*
X325755Y631195D01*
X325755Y627382D01*
X327662Y625475D01*
X331475Y625475D01*
X333382Y627382D01*
X333382Y629288D01*
X331475Y631195D01*
X325755Y631195D01*
X330835Y575945D02*
X334648Y575945D01*
X332742Y575945D02*
X332742Y587385D01*
X334648Y587385D02*
X330835Y587385D01*
X338631Y575945D02*
X346257Y575945D01*
X338631Y575945D02*
X346257Y583572D01*
X346257Y585478D01*
X344351Y587385D01*
X340538Y587385D01*
X338631Y585478D01*
X356045Y587385D02*
X357951Y585478D01*
X356045Y587385D02*
X352232Y587385D01*
X350325Y585478D01*
X350325Y577852D01*
X352232Y575945D01*
X356045Y575945D01*
X357951Y577852D01*
D12*
X351790Y469900D02*
X351790Y292100D01*
X410210Y292100D02*
X410210Y469900D01*
X351790Y469900D01*
X351790Y292100D02*
X370840Y292100D01*
X391160Y292100D02*
X410210Y292100D01*
X391160Y292100D02*
X391157Y292347D01*
X391148Y292595D01*
X391133Y292842D01*
X391112Y293088D01*
X391085Y293334D01*
X391052Y293579D01*
X391013Y293824D01*
X390968Y294067D01*
X390917Y294309D01*
X390860Y294550D01*
X390798Y294789D01*
X390729Y295027D01*
X390655Y295263D01*
X390575Y295497D01*
X390490Y295729D01*
X390398Y295959D01*
X390302Y296187D01*
X390199Y296412D01*
X390092Y296635D01*
X389978Y296855D01*
X389860Y297072D01*
X389736Y297287D01*
X389607Y297498D01*
X389473Y297706D01*
X389334Y297911D01*
X389190Y298112D01*
X389042Y298310D01*
X388888Y298504D01*
X388730Y298694D01*
X388567Y298880D01*
X388400Y299062D01*
X388228Y299240D01*
X388052Y299414D01*
X387872Y299584D01*
X387687Y299749D01*
X387499Y299909D01*
X387307Y300065D01*
X387111Y300217D01*
X386912Y300363D01*
X386709Y300505D01*
X386502Y300641D01*
X386293Y300773D01*
X386080Y300899D01*
X385864Y301020D01*
X385646Y301136D01*
X385424Y301246D01*
X385200Y301351D01*
X384974Y301451D01*
X384745Y301545D01*
X384514Y301633D01*
X384280Y301716D01*
X384045Y301793D01*
X383808Y301864D01*
X383570Y301930D01*
X383330Y301989D01*
X383088Y302043D01*
X382845Y302091D01*
X382602Y302133D01*
X382357Y302169D01*
X382111Y302199D01*
X381865Y302223D01*
X381618Y302241D01*
X381371Y302253D01*
X381124Y302259D01*
X380876Y302259D01*
X380629Y302253D01*
X380382Y302241D01*
X380135Y302223D01*
X379889Y302199D01*
X379643Y302169D01*
X379398Y302133D01*
X379155Y302091D01*
X378912Y302043D01*
X378670Y301989D01*
X378430Y301930D01*
X378192Y301864D01*
X377955Y301793D01*
X377720Y301716D01*
X377486Y301633D01*
X377255Y301545D01*
X377026Y301451D01*
X376800Y301351D01*
X376576Y301246D01*
X376354Y301136D01*
X376136Y301020D01*
X375920Y300899D01*
X375707Y300773D01*
X375498Y300641D01*
X375291Y300505D01*
X375088Y300363D01*
X374889Y300217D01*
X374693Y300065D01*
X374501Y299909D01*
X374313Y299749D01*
X374128Y299584D01*
X373948Y299414D01*
X373772Y299240D01*
X373600Y299062D01*
X373433Y298880D01*
X373270Y298694D01*
X373112Y298504D01*
X372958Y298310D01*
X372810Y298112D01*
X372666Y297911D01*
X372527Y297706D01*
X372393Y297498D01*
X372264Y297287D01*
X372140Y297072D01*
X372022Y296855D01*
X371908Y296635D01*
X371801Y296412D01*
X371698Y296187D01*
X371602Y295959D01*
X371510Y295729D01*
X371425Y295497D01*
X371345Y295263D01*
X371271Y295027D01*
X371202Y294789D01*
X371140Y294550D01*
X371083Y294309D01*
X371032Y294067D01*
X370987Y293824D01*
X370948Y293579D01*
X370915Y293334D01*
X370888Y293088D01*
X370867Y292842D01*
X370852Y292595D01*
X370843Y292347D01*
X370840Y292100D01*
D13*
X372044Y276225D02*
X368231Y276225D01*
X370138Y276225D02*
X370138Y287665D01*
X372044Y287665D02*
X368231Y287665D01*
X381747Y287665D02*
X383654Y285758D01*
X381747Y287665D02*
X377934Y287665D01*
X376027Y285758D01*
X376027Y278132D01*
X377934Y276225D01*
X381747Y276225D01*
X383654Y278132D01*
X387721Y283852D02*
X391534Y287665D01*
X391534Y276225D01*
X387721Y276225D02*
X395347Y276225D01*
D14*
X338012Y493014D02*
X335639Y493014D01*
X338012Y493014D02*
X339198Y494200D01*
X339198Y496573D01*
X338012Y497759D01*
X335639Y497759D01*
X334453Y496573D01*
X334453Y494200D01*
X335639Y493014D01*
X341469Y490641D02*
X341469Y497759D01*
X345028Y497759D01*
X346215Y496573D01*
X346215Y494200D01*
X345028Y493014D01*
X341469Y493014D01*
X349672Y493014D02*
X352045Y493014D01*
X349672Y493014D02*
X348486Y494200D01*
X348486Y496573D01*
X349672Y497759D01*
X352045Y497759D01*
X353231Y496573D01*
X353231Y495387D01*
X348486Y495387D01*
X355502Y493014D02*
X355502Y497759D01*
X359061Y497759D01*
X360248Y496573D01*
X360248Y493014D01*
X369535Y493014D02*
X373094Y493014D01*
X374280Y494200D01*
X373094Y495387D01*
X370721Y495387D01*
X369535Y496573D01*
X370721Y497759D01*
X374280Y497759D01*
X377738Y493014D02*
X380110Y493014D01*
X381297Y494200D01*
X381297Y496573D01*
X380110Y497759D01*
X377738Y497759D01*
X376551Y496573D01*
X376551Y494200D01*
X377738Y493014D01*
X383568Y494200D02*
X383568Y497759D01*
X383568Y494200D02*
X384754Y493014D01*
X388313Y493014D01*
X388313Y497759D01*
X390584Y497759D02*
X390584Y493014D01*
X390584Y495387D02*
X392957Y497759D01*
X394143Y497759D01*
X397617Y497759D02*
X401176Y497759D01*
X397617Y497759D02*
X396431Y496573D01*
X396431Y494200D01*
X397617Y493014D01*
X401176Y493014D01*
X404634Y493014D02*
X407006Y493014D01*
X404634Y493014D02*
X403447Y494200D01*
X403447Y496573D01*
X404634Y497759D01*
X407006Y497759D01*
X408193Y496573D01*
X408193Y495387D01*
X403447Y495387D01*
X348486Y488702D02*
X348486Y481584D01*
X348486Y485143D02*
X349672Y486329D01*
X352045Y486329D01*
X353231Y485143D01*
X353231Y481584D01*
X356689Y486329D02*
X359061Y486329D01*
X360248Y485143D01*
X360248Y481584D01*
X356689Y481584D01*
X355502Y482770D01*
X356689Y483957D01*
X360248Y483957D01*
X362519Y486329D02*
X362519Y481584D01*
X362519Y483957D02*
X364891Y486329D01*
X366078Y486329D01*
X373111Y488702D02*
X373111Y481584D01*
X369552Y481584D01*
X368366Y482770D01*
X368366Y485143D01*
X369552Y486329D01*
X373111Y486329D01*
X375382Y486329D02*
X375382Y482770D01*
X376568Y481584D01*
X377755Y482770D01*
X378941Y481584D01*
X380127Y482770D01*
X380127Y486329D01*
X383585Y486329D02*
X385957Y486329D01*
X387144Y485143D01*
X387144Y481584D01*
X383585Y481584D01*
X382398Y482770D01*
X383585Y483957D01*
X387144Y483957D01*
X389415Y486329D02*
X389415Y481584D01*
X389415Y483957D02*
X391787Y486329D01*
X392974Y486329D01*
X396448Y481584D02*
X398821Y481584D01*
X396448Y481584D02*
X395262Y482770D01*
X395262Y485143D01*
X396448Y486329D01*
X398821Y486329D01*
X400007Y485143D01*
X400007Y483957D01*
X395262Y483957D01*
D12*
X361950Y254000D02*
X349250Y254000D01*
X361950Y254000D02*
X368300Y247650D01*
X368300Y234950D02*
X361950Y228600D01*
X368300Y247650D02*
X374650Y254000D01*
X387350Y254000D01*
X393700Y247650D01*
X393700Y234950D02*
X387350Y228600D01*
X374650Y228600D01*
X368300Y234950D01*
X342900Y234950D02*
X342900Y247650D01*
X349250Y254000D01*
X342900Y234950D02*
X349250Y228600D01*
X361950Y228600D01*
X393700Y247650D02*
X400050Y254000D01*
X412750Y254000D01*
X419100Y247650D01*
X419100Y234950D02*
X412750Y228600D01*
X400050Y228600D01*
X393700Y234950D01*
X419100Y234950D02*
X419100Y247650D01*
D13*
X334648Y247025D02*
X330835Y243212D01*
X334648Y247025D02*
X334648Y235585D01*
X330835Y235585D02*
X338462Y235585D01*
X343535Y219085D02*
X351162Y219085D01*
X343535Y219085D02*
X343535Y207645D01*
X351162Y207645D01*
X347348Y213365D02*
X343535Y213365D01*
X355229Y219085D02*
X362855Y207645D01*
X355229Y207645D02*
X362855Y219085D01*
X370736Y219085D02*
X370736Y207645D01*
X366923Y219085D02*
X374549Y219085D01*
X378617Y205738D02*
X386243Y205738D01*
X390311Y211458D02*
X390311Y219085D01*
X390311Y211458D02*
X394124Y207645D01*
X397937Y211458D01*
X397937Y219085D01*
X407725Y219085D02*
X409631Y217178D01*
X407725Y219085D02*
X403911Y219085D01*
X402005Y217178D01*
X402005Y215272D01*
X403911Y213365D01*
X407725Y213365D01*
X409631Y211458D01*
X409631Y209552D01*
X407725Y207645D01*
X403911Y207645D01*
X402005Y209552D01*
X413699Y219085D02*
X421325Y219085D01*
X413699Y219085D02*
X413699Y207645D01*
X421325Y207645D01*
X417512Y213365D02*
X413699Y213365D01*
X425393Y219085D02*
X425393Y207645D01*
X433019Y207645D01*
D15*
X433100Y125200D02*
X328900Y125200D01*
X433100Y125200D02*
X433100Y154200D01*
X328900Y154200D01*
X328900Y125200D01*
D12*
X330000Y150700D02*
X432000Y150700D01*
D11*
X297864Y144282D02*
X290068Y144282D01*
X290068Y132588D01*
X297864Y132588D01*
X293966Y138435D02*
X290068Y138435D01*
X301762Y144282D02*
X309558Y132588D01*
X301762Y132588D02*
X309558Y144282D01*
X317354Y144282D02*
X317354Y132588D01*
X313456Y144282D02*
X321252Y144282D01*
M02*
