G04 EAGLE Gerber RS-274X export*
G75*
%MOMM*%
%FSLAX34Y34*%
%LPD*%
%INSilkscreen Bottom*%
%IPPOS*%
%AMOC8*
5,1,8,0,0,1.08239X$1,22.5*%
G01*
%ADD10C,0.076200*%
%ADD11C,0.152400*%
%ADD12C,0.127000*%
%ADD13C,0.050800*%

G36*
X395140Y514872D02*
X395140Y514872D01*
X395192Y514877D01*
X395214Y514891D01*
X395225Y514893D01*
X395233Y514902D01*
X395262Y514920D01*
X396151Y515682D01*
X396152Y515683D01*
X396154Y515685D01*
X397297Y516701D01*
X397300Y516705D01*
X397308Y516711D01*
X398197Y517600D01*
X398200Y517604D01*
X398207Y517611D01*
X399223Y518754D01*
X399239Y518786D01*
X399253Y518802D01*
X399255Y518818D01*
X399279Y518857D01*
X399279Y518870D01*
X399284Y518881D01*
X399277Y518940D01*
X399276Y518998D01*
X399268Y519013D01*
X399267Y519021D01*
X399259Y519031D01*
X399239Y519071D01*
X395653Y524017D01*
X396459Y525398D01*
X396460Y525404D01*
X396467Y525413D01*
X396975Y526429D01*
X396977Y526441D01*
X396991Y526469D01*
X397372Y527739D01*
X397372Y527740D01*
X397373Y527742D01*
X397836Y529366D01*
X403901Y530356D01*
X403960Y530384D01*
X404020Y530410D01*
X404023Y530414D01*
X404028Y530417D01*
X404063Y530472D01*
X404100Y530526D01*
X404101Y530533D01*
X404103Y530536D01*
X404103Y530545D01*
X404113Y530606D01*
X404113Y536194D01*
X404095Y536257D01*
X404079Y536321D01*
X404076Y536324D01*
X404074Y536329D01*
X404025Y536373D01*
X403978Y536418D01*
X403971Y536420D01*
X403969Y536423D01*
X403960Y536424D01*
X403901Y536444D01*
X397815Y537438D01*
X397496Y538183D01*
X397119Y539563D01*
X397113Y539573D01*
X397105Y539602D01*
X396343Y541253D01*
X396337Y541260D01*
X396330Y541277D01*
X395652Y542408D01*
X399116Y547481D01*
X399136Y547540D01*
X399159Y547599D01*
X399157Y547607D01*
X399160Y547615D01*
X399145Y547676D01*
X399134Y547737D01*
X399127Y547746D01*
X399126Y547752D01*
X399117Y547760D01*
X399086Y547803D01*
X398457Y548433D01*
X397445Y549570D01*
X397441Y549573D01*
X397435Y549581D01*
X396165Y550851D01*
X396156Y550856D01*
X396141Y550872D01*
X394998Y551761D01*
X394951Y551780D01*
X394908Y551806D01*
X394887Y551805D01*
X394868Y551813D01*
X394818Y551804D01*
X394767Y551803D01*
X394741Y551789D01*
X394729Y551787D01*
X394720Y551779D01*
X394694Y551766D01*
X389747Y548179D01*
X388111Y549114D01*
X388100Y549116D01*
X388079Y549129D01*
X386809Y549637D01*
X386804Y549638D01*
X386795Y549642D01*
X385035Y550229D01*
X384044Y556175D01*
X384021Y556222D01*
X384005Y556273D01*
X383991Y556285D01*
X383983Y556302D01*
X383938Y556330D01*
X383898Y556364D01*
X383873Y556371D01*
X383863Y556377D01*
X383851Y556376D01*
X383819Y556385D01*
X382549Y556512D01*
X382541Y556511D01*
X382524Y556513D01*
X379603Y556513D01*
X379596Y556511D01*
X379582Y556512D01*
X378058Y556385D01*
X378008Y556366D01*
X377957Y556355D01*
X377944Y556342D01*
X377926Y556335D01*
X377895Y556293D01*
X377857Y556255D01*
X377849Y556231D01*
X377842Y556222D01*
X377841Y556210D01*
X377830Y556179D01*
X376717Y550121D01*
X375738Y549903D01*
X375727Y549897D01*
X375690Y549887D01*
X373404Y548871D01*
X373398Y548867D01*
X373384Y548861D01*
X372380Y548304D01*
X367303Y551895D01*
X367261Y551909D01*
X367224Y551932D01*
X367196Y551932D01*
X367170Y551941D01*
X367127Y551931D01*
X367083Y551930D01*
X367045Y551912D01*
X367033Y551909D01*
X367027Y551902D01*
X367010Y551894D01*
X366121Y551259D01*
X366116Y551253D01*
X366101Y551244D01*
X365085Y550355D01*
X365082Y550350D01*
X365073Y550343D01*
X363803Y549073D01*
X363799Y549065D01*
X363784Y549052D01*
X362768Y547782D01*
X362748Y547734D01*
X362721Y547690D01*
X362722Y547670D01*
X362714Y547652D01*
X362723Y547601D01*
X362724Y547549D01*
X362736Y547524D01*
X362738Y547513D01*
X362746Y547504D01*
X362760Y547476D01*
X366227Y542648D01*
X366172Y542538D01*
X365287Y541021D01*
X365285Y541012D01*
X365275Y540998D01*
X364640Y539601D01*
X364639Y539591D01*
X364629Y539570D01*
X364166Y538066D01*
X358094Y536951D01*
X358049Y536928D01*
X358000Y536913D01*
X357987Y536897D01*
X357968Y536888D01*
X357942Y536844D01*
X357909Y536806D01*
X357901Y536778D01*
X357895Y536767D01*
X357896Y536756D01*
X357888Y536727D01*
X357761Y535457D01*
X357761Y535456D01*
X357761Y535455D01*
X357634Y534058D01*
X357635Y534050D01*
X357633Y534035D01*
X357633Y531114D01*
X357650Y531053D01*
X357664Y530992D01*
X357670Y530986D01*
X357672Y530979D01*
X357719Y530937D01*
X357764Y530892D01*
X357773Y530889D01*
X357777Y530885D01*
X357788Y530883D01*
X357840Y530865D01*
X363903Y529751D01*
X364371Y527878D01*
X364375Y527872D01*
X364377Y527859D01*
X364885Y526335D01*
X364892Y526324D01*
X364906Y526287D01*
X365714Y524902D01*
X362123Y519701D01*
X362107Y519655D01*
X362084Y519613D01*
X362085Y519590D01*
X362078Y519567D01*
X362089Y519521D01*
X362092Y519473D01*
X362109Y519443D01*
X362112Y519430D01*
X362119Y519423D01*
X362131Y519402D01*
X363020Y518259D01*
X363025Y518255D01*
X363031Y518246D01*
X364047Y517103D01*
X364051Y517100D01*
X364057Y517092D01*
X364946Y516203D01*
X364951Y516200D01*
X364958Y516191D01*
X365974Y515302D01*
X366025Y515279D01*
X366072Y515249D01*
X366088Y515249D01*
X366102Y515243D01*
X366157Y515250D01*
X366213Y515250D01*
X366232Y515259D01*
X366242Y515261D01*
X366252Y515269D01*
X366286Y515286D01*
X371224Y518742D01*
X372605Y517822D01*
X372617Y517818D01*
X372648Y517799D01*
X374172Y517164D01*
X374189Y517162D01*
X374205Y517153D01*
X374258Y517154D01*
X374312Y517148D01*
X374328Y517156D01*
X374345Y517157D01*
X374390Y517186D01*
X374438Y517210D01*
X374448Y517225D01*
X374463Y517235D01*
X374504Y517304D01*
X378441Y527210D01*
X378447Y527274D01*
X378457Y527337D01*
X378454Y527343D01*
X378455Y527351D01*
X378426Y527408D01*
X378401Y527466D01*
X378394Y527472D01*
X378391Y527477D01*
X378382Y527482D01*
X378340Y527519D01*
X377197Y528228D01*
X376242Y529137D01*
X375492Y530222D01*
X374979Y531437D01*
X374725Y532731D01*
X374739Y534049D01*
X375023Y535337D01*
X375563Y536540D01*
X376337Y537607D01*
X377312Y538495D01*
X378448Y539165D01*
X379696Y539589D01*
X381004Y539749D01*
X382357Y539630D01*
X383652Y539223D01*
X384829Y538549D01*
X385835Y537638D01*
X386623Y536533D01*
X387156Y535285D01*
X387409Y533952D01*
X387371Y532595D01*
X387044Y531278D01*
X386442Y530062D01*
X385593Y529003D01*
X384538Y528150D01*
X383300Y527530D01*
X383249Y527483D01*
X383197Y527436D01*
X383197Y527435D01*
X383196Y527435D01*
X383178Y527367D01*
X383160Y527300D01*
X383160Y527299D01*
X383160Y527297D01*
X383174Y527220D01*
X386730Y517060D01*
X386750Y517033D01*
X386760Y517001D01*
X386790Y516977D01*
X386812Y516946D01*
X386843Y516933D01*
X386869Y516911D01*
X386907Y516907D01*
X386942Y516892D01*
X386975Y516898D01*
X387009Y516894D01*
X387075Y516916D01*
X387081Y516917D01*
X387082Y516918D01*
X387086Y516919D01*
X389873Y518373D01*
X394954Y514903D01*
X395005Y514886D01*
X395052Y514863D01*
X395071Y514865D01*
X395088Y514859D01*
X395140Y514872D01*
G37*
D10*
X304419Y622681D02*
X297047Y622681D01*
X304419Y627596D01*
X297047Y627596D01*
X297047Y635080D02*
X304419Y630165D01*
X297047Y641335D02*
X298275Y642564D01*
X297047Y641335D02*
X297047Y638878D01*
X298275Y637649D01*
X303190Y637649D01*
X304419Y638878D01*
X304419Y641335D01*
X303190Y642564D01*
X466571Y317125D02*
X466571Y309753D01*
X466571Y317125D02*
X462885Y317125D01*
X461657Y315897D01*
X461657Y314668D01*
X462885Y313439D01*
X461657Y312210D01*
X461657Y310982D01*
X462885Y309753D01*
X466571Y309753D01*
X466571Y313439D02*
X462885Y313439D01*
X459087Y315897D02*
X459087Y317125D01*
X459087Y315897D02*
X456630Y313439D01*
X454172Y315897D01*
X454172Y317125D01*
X456630Y313439D02*
X456630Y309753D01*
X451603Y309753D02*
X451603Y317125D01*
X447917Y317125D01*
X446688Y315897D01*
X446688Y313439D01*
X447917Y312210D01*
X451603Y312210D01*
X314171Y309753D02*
X314171Y317125D01*
X310485Y317125D01*
X309257Y315897D01*
X309257Y314668D01*
X310485Y313439D01*
X309257Y312210D01*
X309257Y310982D01*
X310485Y309753D01*
X314171Y309753D01*
X314171Y313439D02*
X310485Y313439D01*
X306687Y315897D02*
X306687Y317125D01*
X306687Y315897D02*
X304230Y313439D01*
X301772Y315897D01*
X301772Y317125D01*
X304230Y313439D02*
X304230Y309753D01*
X299203Y309753D02*
X299203Y317125D01*
X295517Y317125D01*
X294288Y315897D01*
X294288Y313439D01*
X295517Y312210D01*
X299203Y312210D01*
X314171Y385953D02*
X314171Y393325D01*
X310485Y393325D01*
X309257Y392097D01*
X309257Y390868D01*
X310485Y389639D01*
X309257Y388410D01*
X309257Y387182D01*
X310485Y385953D01*
X314171Y385953D01*
X314171Y389639D02*
X310485Y389639D01*
X306687Y392097D02*
X306687Y393325D01*
X306687Y392097D02*
X304230Y389639D01*
X301772Y392097D01*
X301772Y393325D01*
X304230Y389639D02*
X304230Y385953D01*
X299203Y385953D02*
X299203Y393325D01*
X295517Y393325D01*
X294288Y392097D01*
X294288Y389639D01*
X295517Y388410D01*
X299203Y388410D01*
X466571Y385953D02*
X466571Y393325D01*
X462885Y393325D01*
X461657Y392097D01*
X461657Y390868D01*
X462885Y389639D01*
X461657Y388410D01*
X461657Y387182D01*
X462885Y385953D01*
X466571Y385953D01*
X466571Y389639D02*
X462885Y389639D01*
X459087Y392097D02*
X459087Y393325D01*
X459087Y392097D02*
X456630Y389639D01*
X454172Y392097D01*
X454172Y393325D01*
X456630Y389639D02*
X456630Y385953D01*
X451603Y385953D02*
X451603Y393325D01*
X447917Y393325D01*
X446688Y392097D01*
X446688Y389639D01*
X447917Y388410D01*
X451603Y388410D01*
X469141Y455597D02*
X470370Y456825D01*
X472827Y456825D01*
X474056Y455597D01*
X474056Y454368D01*
X472827Y453139D01*
X470370Y453139D01*
X469141Y451910D01*
X469141Y450682D01*
X470370Y449453D01*
X472827Y449453D01*
X474056Y450682D01*
X466571Y449453D02*
X466571Y456825D01*
X466571Y453139D02*
X461657Y453139D01*
X461657Y456825D02*
X461657Y449453D01*
X459087Y449453D02*
X459087Y456825D01*
X454172Y456825D01*
X456630Y453139D02*
X459087Y453139D01*
X449146Y449453D02*
X449146Y456825D01*
X451603Y456825D02*
X446688Y456825D01*
X317970Y456825D02*
X316741Y455597D01*
X317970Y456825D02*
X320427Y456825D01*
X321656Y455597D01*
X321656Y454368D01*
X320427Y453139D01*
X317970Y453139D01*
X316741Y451910D01*
X316741Y450682D01*
X317970Y449453D01*
X320427Y449453D01*
X321656Y450682D01*
X314171Y449453D02*
X314171Y456825D01*
X314171Y453139D02*
X309257Y453139D01*
X309257Y456825D02*
X309257Y449453D01*
X306687Y449453D02*
X306687Y456825D01*
X301772Y456825D01*
X304230Y453139D02*
X306687Y453139D01*
X296746Y449453D02*
X296746Y456825D01*
X299203Y456825D02*
X294288Y456825D01*
X317970Y380625D02*
X316741Y379397D01*
X317970Y380625D02*
X320427Y380625D01*
X321656Y379397D01*
X321656Y378168D01*
X320427Y376939D01*
X317970Y376939D01*
X316741Y375710D01*
X316741Y374482D01*
X317970Y373253D01*
X320427Y373253D01*
X321656Y374482D01*
X314171Y373253D02*
X314171Y380625D01*
X314171Y376939D02*
X309257Y376939D01*
X309257Y380625D02*
X309257Y373253D01*
X306687Y373253D02*
X306687Y380625D01*
X301772Y380625D01*
X304230Y376939D02*
X306687Y376939D01*
X296746Y373253D02*
X296746Y380625D01*
X299203Y380625D02*
X294288Y380625D01*
X469141Y379397D02*
X470370Y380625D01*
X472827Y380625D01*
X474056Y379397D01*
X474056Y378168D01*
X472827Y376939D01*
X470370Y376939D01*
X469141Y375710D01*
X469141Y374482D01*
X470370Y373253D01*
X472827Y373253D01*
X474056Y374482D01*
X466571Y373253D02*
X466571Y380625D01*
X466571Y376939D02*
X461657Y376939D01*
X461657Y380625D02*
X461657Y373253D01*
X459087Y373253D02*
X459087Y380625D01*
X454172Y380625D01*
X456630Y376939D02*
X459087Y376939D01*
X449146Y373253D02*
X449146Y380625D01*
X451603Y380625D02*
X446688Y380625D01*
X618497Y612521D02*
X618497Y621927D01*
X618497Y612521D02*
X612227Y612521D01*
X607574Y612521D02*
X604439Y612521D01*
X602871Y614089D01*
X602871Y617224D01*
X604439Y618792D01*
X607574Y618792D01*
X609142Y617224D01*
X609142Y614089D01*
X607574Y612521D01*
X599787Y612521D02*
X599787Y621927D01*
X595084Y621927D01*
X593516Y620359D01*
X593516Y617224D01*
X595084Y615656D01*
X599787Y615656D01*
X596652Y615656D02*
X593516Y612521D01*
X588864Y618792D02*
X585729Y618792D01*
X584161Y617224D01*
X584161Y612521D01*
X588864Y612521D01*
X590432Y614089D01*
X588864Y615656D01*
X584161Y615656D01*
X581077Y612521D02*
X581077Y621927D01*
X577941Y615656D02*
X581077Y612521D01*
X577941Y615656D02*
X574806Y612521D01*
X574806Y621927D01*
X570154Y618792D02*
X567018Y618792D01*
X565451Y617224D01*
X565451Y612521D01*
X570154Y612521D01*
X571721Y614089D01*
X570154Y615656D01*
X565451Y615656D01*
X562366Y612521D02*
X562366Y618792D01*
X557663Y618792D01*
X556095Y617224D01*
X556095Y612521D01*
X543656Y612521D02*
X543656Y621927D01*
X538953Y621927D01*
X537385Y620359D01*
X537385Y618792D01*
X538953Y617224D01*
X537385Y615656D01*
X537385Y614089D01*
X538953Y612521D01*
X543656Y612521D01*
X543656Y617224D02*
X538953Y617224D01*
X534301Y618792D02*
X534301Y612521D01*
X534301Y615656D02*
X531165Y618792D01*
X529598Y618792D01*
X526505Y621927D02*
X526505Y612521D01*
X526505Y615656D02*
X521802Y612521D01*
X526505Y615656D02*
X521802Y618792D01*
X517141Y612521D02*
X514006Y612521D01*
X512438Y614089D01*
X512438Y617224D01*
X514006Y618792D01*
X517141Y618792D01*
X518709Y617224D01*
X518709Y614089D01*
X517141Y612521D01*
X509353Y614089D02*
X509353Y618792D01*
X509353Y614089D02*
X507786Y612521D01*
X503083Y612521D01*
X503083Y618792D01*
X498431Y620359D02*
X498431Y614089D01*
X496863Y612521D01*
X496863Y618792D02*
X499998Y618792D01*
X484406Y618792D02*
X481271Y612521D01*
X478136Y618792D01*
X475051Y618792D02*
X471916Y621927D01*
X471916Y612521D01*
X475051Y612521D02*
X468780Y612521D01*
X465696Y612521D02*
X465696Y614089D01*
X464128Y614089D01*
X464128Y612521D01*
X465696Y612521D01*
X461018Y614089D02*
X461018Y620359D01*
X459451Y621927D01*
X456315Y621927D01*
X454748Y620359D01*
X454748Y614089D01*
X456315Y612521D01*
X459451Y612521D01*
X461018Y614089D01*
X454748Y620359D01*
X451663Y617224D02*
X445392Y617224D01*
X442308Y612521D02*
X436037Y612521D01*
X442308Y612521D02*
X436037Y618792D01*
X436037Y620359D01*
X437605Y621927D01*
X440740Y621927D01*
X442308Y620359D01*
X432953Y620359D02*
X432953Y614089D01*
X432953Y620359D02*
X431385Y621927D01*
X428250Y621927D01*
X426682Y620359D01*
X426682Y614089D01*
X428250Y612521D01*
X431385Y612521D01*
X432953Y614089D01*
X426682Y620359D01*
X423598Y612521D02*
X417327Y612521D01*
X423598Y612521D02*
X417327Y618792D01*
X417327Y620359D01*
X418895Y621927D01*
X422030Y621927D01*
X423598Y620359D01*
X414242Y618792D02*
X411107Y621927D01*
X411107Y612521D01*
X414242Y612521D02*
X407972Y612521D01*
X404887Y614089D02*
X404887Y620359D01*
X403320Y621927D01*
X400184Y621927D01*
X398617Y620359D01*
X398617Y614089D01*
X400184Y612521D01*
X403320Y612521D01*
X404887Y614089D01*
X398617Y620359D01*
X390829Y621927D02*
X390829Y612521D01*
X395532Y617224D02*
X390829Y621927D01*
X389261Y617224D02*
X395532Y617224D01*
X386177Y614089D02*
X386177Y620359D01*
X384609Y621927D01*
X381474Y621927D01*
X379906Y620359D01*
X379906Y614089D01*
X381474Y612521D01*
X384609Y612521D01*
X386177Y614089D01*
X379906Y620359D01*
X376822Y620359D02*
X375254Y621927D01*
X372119Y621927D01*
X370551Y620359D01*
X370551Y618792D01*
X372119Y617224D01*
X373686Y617224D01*
X372119Y617224D02*
X370551Y615656D01*
X370551Y614089D01*
X372119Y612521D01*
X375254Y612521D01*
X376822Y614089D01*
X618497Y606687D02*
X618497Y597281D01*
X618497Y601984D02*
X616930Y603552D01*
X613794Y603552D01*
X612227Y601984D01*
X612227Y597281D01*
X607574Y598849D02*
X607574Y605119D01*
X607574Y598849D02*
X606007Y597281D01*
X606007Y603552D02*
X609142Y603552D01*
X601338Y605119D02*
X601338Y598849D01*
X599770Y597281D01*
X599770Y603552D02*
X602905Y603552D01*
X596669Y603552D02*
X596669Y594146D01*
X596669Y603552D02*
X591966Y603552D01*
X590398Y601984D01*
X590398Y598849D01*
X591966Y597281D01*
X596669Y597281D01*
X587313Y603552D02*
X585746Y603552D01*
X585746Y601984D01*
X587313Y601984D01*
X587313Y603552D01*
X587313Y598849D02*
X585746Y598849D01*
X585746Y597281D01*
X587313Y597281D01*
X587313Y598849D01*
X582636Y597281D02*
X576365Y606687D01*
X567010Y606687D02*
X573281Y597281D01*
X563925Y598849D02*
X563925Y603552D01*
X563925Y598849D02*
X562358Y597281D01*
X560790Y598849D01*
X559222Y597281D01*
X557655Y598849D01*
X557655Y603552D01*
X554570Y603552D02*
X554570Y598849D01*
X553003Y597281D01*
X551435Y598849D01*
X549867Y597281D01*
X548299Y598849D01*
X548299Y603552D01*
X545215Y603552D02*
X545215Y598849D01*
X543647Y597281D01*
X542080Y598849D01*
X540512Y597281D01*
X538944Y598849D01*
X538944Y603552D01*
X535860Y598849D02*
X535860Y597281D01*
X535860Y598849D02*
X534292Y598849D01*
X534292Y597281D01*
X535860Y597281D01*
X531182Y598849D02*
X531182Y603552D01*
X531182Y598849D02*
X529615Y597281D01*
X524912Y597281D01*
X524912Y595713D02*
X524912Y603552D01*
X524912Y595713D02*
X526479Y594146D01*
X528047Y594146D01*
X520259Y597281D02*
X517124Y597281D01*
X515556Y598849D01*
X515556Y601984D01*
X517124Y603552D01*
X520259Y603552D01*
X521827Y601984D01*
X521827Y598849D01*
X520259Y597281D01*
X512472Y598849D02*
X512472Y603552D01*
X512472Y598849D02*
X510904Y597281D01*
X506201Y597281D01*
X506201Y603552D01*
X501549Y605119D02*
X501549Y598849D01*
X499981Y597281D01*
X499981Y603552D02*
X503117Y603552D01*
X496880Y603552D02*
X496880Y598849D01*
X495312Y597281D01*
X490609Y597281D01*
X490609Y603552D01*
X487525Y606687D02*
X487525Y597281D01*
X482822Y597281D01*
X481254Y598849D01*
X481254Y601984D01*
X482822Y603552D01*
X487525Y603552D01*
X476602Y597281D02*
X473466Y597281D01*
X476602Y597281D02*
X478169Y598849D01*
X478169Y601984D01*
X476602Y603552D01*
X473466Y603552D01*
X471899Y601984D01*
X471899Y600416D01*
X478169Y600416D01*
X468814Y598849D02*
X468814Y597281D01*
X468814Y598849D02*
X467247Y598849D01*
X467247Y597281D01*
X468814Y597281D01*
X462569Y603552D02*
X457866Y603552D01*
X462569Y603552D02*
X464137Y601984D01*
X464137Y598849D01*
X462569Y597281D01*
X457866Y597281D01*
X453214Y597281D02*
X450079Y597281D01*
X448511Y598849D01*
X448511Y601984D01*
X450079Y603552D01*
X453214Y603552D01*
X454782Y601984D01*
X454782Y598849D01*
X453214Y597281D01*
X445426Y597281D02*
X445426Y603552D01*
X443859Y603552D01*
X442291Y601984D01*
X442291Y597281D01*
X442291Y601984D02*
X440723Y603552D01*
X439156Y601984D01*
X439156Y597281D01*
X436071Y597281D02*
X429800Y606687D01*
X425148Y603552D02*
X420445Y603552D01*
X425148Y603552D02*
X426716Y601984D01*
X426716Y598849D01*
X425148Y597281D01*
X420445Y597281D01*
X417361Y597281D02*
X411090Y606687D01*
X408006Y606687D02*
X408006Y597281D01*
X408006Y606687D02*
X403303Y606687D01*
X401735Y605119D01*
X401735Y603552D01*
X403303Y601984D01*
X401735Y600416D01*
X401735Y598849D01*
X403303Y597281D01*
X408006Y597281D01*
X408006Y601984D02*
X403303Y601984D01*
X398650Y606687D02*
X398650Y597281D01*
X398650Y600416D02*
X392380Y606687D01*
X397083Y601984D02*
X392380Y597281D01*
X389295Y597281D02*
X389295Y606687D01*
X389295Y601984D02*
X383025Y601984D01*
X383025Y606687D02*
X383025Y597281D01*
X378372Y597281D02*
X375237Y597281D01*
X373669Y598849D01*
X373669Y601984D01*
X375237Y603552D01*
X378372Y603552D01*
X379940Y601984D01*
X379940Y598849D01*
X378372Y597281D01*
X370585Y597281D02*
X370585Y606687D01*
X370585Y597281D02*
X365882Y597281D01*
X364314Y598849D01*
X364314Y601984D01*
X365882Y603552D01*
X370585Y603552D01*
X361230Y606687D02*
X361230Y597281D01*
X356527Y597281D01*
X354959Y598849D01*
X354959Y601984D01*
X356527Y603552D01*
X361230Y603552D01*
X351874Y603552D02*
X351874Y598849D01*
X350307Y597281D01*
X345604Y597281D01*
X345604Y595713D02*
X345604Y603552D01*
X345604Y595713D02*
X347171Y594146D01*
X348739Y594146D01*
X195447Y629031D02*
X195447Y633946D01*
X195447Y629031D02*
X199133Y629031D01*
X197904Y631488D01*
X197904Y632717D01*
X199133Y633946D01*
X201590Y633946D01*
X202819Y632717D01*
X202819Y630260D01*
X201590Y629031D01*
X197904Y636515D02*
X202819Y638973D01*
X197904Y641430D01*
X220847Y626367D02*
X222075Y627596D01*
X220847Y626367D02*
X220847Y623910D01*
X222075Y622681D01*
X226990Y622681D01*
X228219Y623910D01*
X228219Y626367D01*
X226990Y627596D01*
X224533Y627596D01*
X224533Y625138D01*
X223304Y630165D02*
X228219Y630165D01*
X223304Y630165D02*
X223304Y633851D01*
X224533Y635080D01*
X228219Y635080D01*
X228219Y642564D02*
X220847Y642564D01*
X228219Y642564D02*
X228219Y638878D01*
X226990Y637649D01*
X224533Y637649D01*
X223304Y638878D01*
X223304Y642564D01*
X246247Y626367D02*
X247475Y627596D01*
X246247Y626367D02*
X246247Y623910D01*
X247475Y622681D01*
X248704Y622681D01*
X249933Y623910D01*
X249933Y626367D01*
X251162Y627596D01*
X252390Y627596D01*
X253619Y626367D01*
X253619Y623910D01*
X252390Y622681D01*
X246247Y633851D02*
X247475Y635080D01*
X246247Y633851D02*
X246247Y631394D01*
X247475Y630165D01*
X252390Y630165D01*
X253619Y631394D01*
X253619Y633851D01*
X252390Y635080D01*
X253619Y637649D02*
X246247Y637649D01*
X253619Y637649D02*
X253619Y642564D01*
X271647Y626367D02*
X272875Y627596D01*
X271647Y626367D02*
X271647Y623910D01*
X272875Y622681D01*
X274104Y622681D01*
X275333Y623910D01*
X275333Y626367D01*
X276562Y627596D01*
X277790Y627596D01*
X279019Y626367D01*
X279019Y623910D01*
X277790Y622681D01*
X279019Y630165D02*
X271647Y630165D01*
X279019Y630165D02*
X279019Y633851D01*
X277790Y635080D01*
X272875Y635080D01*
X271647Y633851D01*
X271647Y630165D01*
X274104Y637649D02*
X279019Y637649D01*
X274104Y637649D02*
X271647Y640107D01*
X274104Y642564D01*
X279019Y642564D01*
X275333Y642564D02*
X275333Y637649D01*
X322447Y630260D02*
X323675Y629031D01*
X322447Y630260D02*
X322447Y632717D01*
X323675Y633946D01*
X324904Y633946D01*
X326133Y632717D01*
X326133Y631488D01*
X326133Y632717D02*
X327362Y633946D01*
X328590Y633946D01*
X329819Y632717D01*
X329819Y630260D01*
X328590Y629031D01*
X324904Y636515D02*
X329819Y638973D01*
X324904Y641430D01*
X323675Y643999D02*
X322447Y645228D01*
X322447Y647685D01*
X323675Y648914D01*
X324904Y648914D01*
X326133Y647685D01*
X326133Y646457D01*
X326133Y647685D02*
X327362Y648914D01*
X328590Y648914D01*
X329819Y647685D01*
X329819Y645228D01*
X328590Y643999D01*
D11*
X294640Y440690D02*
X294640Y397510D01*
X314960Y440690D02*
X314958Y440790D01*
X314952Y440889D01*
X314942Y440989D01*
X314929Y441087D01*
X314911Y441186D01*
X314890Y441283D01*
X314865Y441379D01*
X314836Y441475D01*
X314803Y441569D01*
X314767Y441662D01*
X314727Y441753D01*
X314683Y441843D01*
X314636Y441931D01*
X314586Y442017D01*
X314532Y442101D01*
X314475Y442183D01*
X314415Y442262D01*
X314351Y442340D01*
X314285Y442414D01*
X314216Y442486D01*
X314144Y442555D01*
X314070Y442621D01*
X313992Y442685D01*
X313913Y442745D01*
X313831Y442802D01*
X313747Y442856D01*
X313661Y442906D01*
X313573Y442953D01*
X313483Y442997D01*
X313392Y443037D01*
X313299Y443073D01*
X313205Y443106D01*
X313109Y443135D01*
X313013Y443160D01*
X312916Y443181D01*
X312817Y443199D01*
X312719Y443212D01*
X312619Y443222D01*
X312520Y443228D01*
X312420Y443230D01*
X314960Y397510D02*
X314958Y397410D01*
X314952Y397311D01*
X314942Y397211D01*
X314929Y397113D01*
X314911Y397014D01*
X314890Y396917D01*
X314865Y396821D01*
X314836Y396725D01*
X314803Y396631D01*
X314767Y396538D01*
X314727Y396447D01*
X314683Y396357D01*
X314636Y396269D01*
X314586Y396183D01*
X314532Y396099D01*
X314475Y396017D01*
X314415Y395938D01*
X314351Y395860D01*
X314285Y395786D01*
X314216Y395714D01*
X314144Y395645D01*
X314070Y395579D01*
X313992Y395515D01*
X313913Y395455D01*
X313831Y395398D01*
X313747Y395344D01*
X313661Y395294D01*
X313573Y395247D01*
X313483Y395203D01*
X313392Y395163D01*
X313299Y395127D01*
X313205Y395094D01*
X313109Y395065D01*
X313013Y395040D01*
X312916Y395019D01*
X312817Y395001D01*
X312719Y394988D01*
X312619Y394978D01*
X312520Y394972D01*
X312420Y394970D01*
X297180Y394970D02*
X297080Y394972D01*
X296981Y394978D01*
X296881Y394988D01*
X296783Y395001D01*
X296684Y395019D01*
X296587Y395040D01*
X296491Y395065D01*
X296395Y395094D01*
X296301Y395127D01*
X296208Y395163D01*
X296117Y395203D01*
X296027Y395247D01*
X295939Y395294D01*
X295853Y395344D01*
X295769Y395398D01*
X295687Y395455D01*
X295608Y395515D01*
X295530Y395579D01*
X295456Y395645D01*
X295384Y395714D01*
X295315Y395786D01*
X295249Y395860D01*
X295185Y395938D01*
X295125Y396017D01*
X295068Y396099D01*
X295014Y396183D01*
X294964Y396269D01*
X294917Y396357D01*
X294873Y396447D01*
X294833Y396538D01*
X294797Y396631D01*
X294764Y396725D01*
X294735Y396821D01*
X294710Y396917D01*
X294689Y397014D01*
X294671Y397113D01*
X294658Y397211D01*
X294648Y397311D01*
X294642Y397410D01*
X294640Y397510D01*
X294640Y440690D02*
X294642Y440790D01*
X294648Y440889D01*
X294658Y440989D01*
X294671Y441087D01*
X294689Y441186D01*
X294710Y441283D01*
X294735Y441379D01*
X294764Y441475D01*
X294797Y441569D01*
X294833Y441662D01*
X294873Y441753D01*
X294917Y441843D01*
X294964Y441931D01*
X295014Y442017D01*
X295068Y442101D01*
X295125Y442183D01*
X295185Y442262D01*
X295249Y442340D01*
X295315Y442414D01*
X295384Y442486D01*
X295456Y442555D01*
X295530Y442621D01*
X295608Y442685D01*
X295687Y442745D01*
X295769Y442802D01*
X295853Y442856D01*
X295939Y442906D01*
X296027Y442953D01*
X296117Y442997D01*
X296208Y443037D01*
X296301Y443073D01*
X296395Y443106D01*
X296491Y443135D01*
X296587Y443160D01*
X296684Y443181D01*
X296783Y443199D01*
X296881Y443212D01*
X296981Y443222D01*
X297080Y443228D01*
X297180Y443230D01*
X312420Y443230D01*
X312420Y394970D02*
X297180Y394970D01*
X314960Y397510D02*
X314960Y440690D01*
D12*
X293378Y401962D02*
X295285Y400055D01*
X295285Y396242D01*
X293378Y394335D01*
X291472Y394335D01*
X289565Y396242D01*
X289565Y400055D01*
X287658Y401962D01*
X285752Y401962D01*
X283845Y400055D01*
X283845Y396242D01*
X285752Y394335D01*
X295285Y411749D02*
X293378Y413655D01*
X295285Y411749D02*
X295285Y407936D01*
X293378Y406029D01*
X285752Y406029D01*
X283845Y407936D01*
X283845Y411749D01*
X285752Y413655D01*
X283845Y417723D02*
X295285Y417723D01*
X295285Y423443D01*
X293378Y425349D01*
X291472Y425349D01*
X289565Y423443D01*
X287658Y425349D01*
X285752Y425349D01*
X283845Y423443D01*
X283845Y417723D01*
X289565Y417723D02*
X289565Y423443D01*
X293378Y429417D02*
X295285Y429417D01*
X293378Y429417D02*
X289565Y433230D01*
X293378Y437043D01*
X295285Y437043D01*
X289565Y433230D02*
X283845Y433230D01*
X283845Y441111D02*
X295285Y441111D01*
X295285Y446831D01*
X293378Y448737D01*
X289565Y448737D01*
X287658Y446831D01*
X287658Y441111D01*
D11*
X447040Y440690D02*
X447040Y397510D01*
X467360Y440690D02*
X467358Y440790D01*
X467352Y440889D01*
X467342Y440989D01*
X467329Y441087D01*
X467311Y441186D01*
X467290Y441283D01*
X467265Y441379D01*
X467236Y441475D01*
X467203Y441569D01*
X467167Y441662D01*
X467127Y441753D01*
X467083Y441843D01*
X467036Y441931D01*
X466986Y442017D01*
X466932Y442101D01*
X466875Y442183D01*
X466815Y442262D01*
X466751Y442340D01*
X466685Y442414D01*
X466616Y442486D01*
X466544Y442555D01*
X466470Y442621D01*
X466392Y442685D01*
X466313Y442745D01*
X466231Y442802D01*
X466147Y442856D01*
X466061Y442906D01*
X465973Y442953D01*
X465883Y442997D01*
X465792Y443037D01*
X465699Y443073D01*
X465605Y443106D01*
X465509Y443135D01*
X465413Y443160D01*
X465316Y443181D01*
X465217Y443199D01*
X465119Y443212D01*
X465019Y443222D01*
X464920Y443228D01*
X464820Y443230D01*
X467360Y397510D02*
X467358Y397410D01*
X467352Y397311D01*
X467342Y397211D01*
X467329Y397113D01*
X467311Y397014D01*
X467290Y396917D01*
X467265Y396821D01*
X467236Y396725D01*
X467203Y396631D01*
X467167Y396538D01*
X467127Y396447D01*
X467083Y396357D01*
X467036Y396269D01*
X466986Y396183D01*
X466932Y396099D01*
X466875Y396017D01*
X466815Y395938D01*
X466751Y395860D01*
X466685Y395786D01*
X466616Y395714D01*
X466544Y395645D01*
X466470Y395579D01*
X466392Y395515D01*
X466313Y395455D01*
X466231Y395398D01*
X466147Y395344D01*
X466061Y395294D01*
X465973Y395247D01*
X465883Y395203D01*
X465792Y395163D01*
X465699Y395127D01*
X465605Y395094D01*
X465509Y395065D01*
X465413Y395040D01*
X465316Y395019D01*
X465217Y395001D01*
X465119Y394988D01*
X465019Y394978D01*
X464920Y394972D01*
X464820Y394970D01*
X449580Y394970D02*
X449480Y394972D01*
X449381Y394978D01*
X449281Y394988D01*
X449183Y395001D01*
X449084Y395019D01*
X448987Y395040D01*
X448891Y395065D01*
X448795Y395094D01*
X448701Y395127D01*
X448608Y395163D01*
X448517Y395203D01*
X448427Y395247D01*
X448339Y395294D01*
X448253Y395344D01*
X448169Y395398D01*
X448087Y395455D01*
X448008Y395515D01*
X447930Y395579D01*
X447856Y395645D01*
X447784Y395714D01*
X447715Y395786D01*
X447649Y395860D01*
X447585Y395938D01*
X447525Y396017D01*
X447468Y396099D01*
X447414Y396183D01*
X447364Y396269D01*
X447317Y396357D01*
X447273Y396447D01*
X447233Y396538D01*
X447197Y396631D01*
X447164Y396725D01*
X447135Y396821D01*
X447110Y396917D01*
X447089Y397014D01*
X447071Y397113D01*
X447058Y397211D01*
X447048Y397311D01*
X447042Y397410D01*
X447040Y397510D01*
X447040Y440690D02*
X447042Y440790D01*
X447048Y440889D01*
X447058Y440989D01*
X447071Y441087D01*
X447089Y441186D01*
X447110Y441283D01*
X447135Y441379D01*
X447164Y441475D01*
X447197Y441569D01*
X447233Y441662D01*
X447273Y441753D01*
X447317Y441843D01*
X447364Y441931D01*
X447414Y442017D01*
X447468Y442101D01*
X447525Y442183D01*
X447585Y442262D01*
X447649Y442340D01*
X447715Y442414D01*
X447784Y442486D01*
X447856Y442555D01*
X447930Y442621D01*
X448008Y442685D01*
X448087Y442745D01*
X448169Y442802D01*
X448253Y442856D01*
X448339Y442906D01*
X448427Y442953D01*
X448517Y442997D01*
X448608Y443037D01*
X448701Y443073D01*
X448795Y443106D01*
X448891Y443135D01*
X448987Y443160D01*
X449084Y443181D01*
X449183Y443199D01*
X449281Y443212D01*
X449381Y443222D01*
X449480Y443228D01*
X449580Y443230D01*
X464820Y443230D01*
X464820Y394970D02*
X449580Y394970D01*
X467360Y397510D02*
X467360Y440690D01*
D12*
X445778Y401962D02*
X447685Y400055D01*
X447685Y396242D01*
X445778Y394335D01*
X443872Y394335D01*
X441965Y396242D01*
X441965Y400055D01*
X440058Y401962D01*
X438152Y401962D01*
X436245Y400055D01*
X436245Y396242D01*
X438152Y394335D01*
X436245Y406029D02*
X447685Y406029D01*
X436245Y406029D02*
X436245Y411749D01*
X438152Y413655D01*
X445778Y413655D01*
X447685Y411749D01*
X447685Y406029D01*
X447685Y417723D02*
X436245Y417723D01*
X447685Y417723D02*
X447685Y423443D01*
X445778Y425349D01*
X443872Y425349D01*
X441965Y423443D01*
X440058Y425349D01*
X438152Y425349D01*
X436245Y423443D01*
X436245Y417723D01*
X441965Y417723D02*
X441965Y423443D01*
X445778Y429417D02*
X447685Y429417D01*
X445778Y429417D02*
X441965Y433230D01*
X445778Y437043D01*
X447685Y437043D01*
X441965Y433230D02*
X436245Y433230D01*
X436245Y441111D02*
X447685Y441111D01*
X447685Y446831D01*
X445778Y448737D01*
X441965Y448737D01*
X440058Y446831D01*
X440058Y441111D01*
D11*
X447040Y364490D02*
X447040Y321310D01*
X467360Y364490D02*
X467358Y364590D01*
X467352Y364689D01*
X467342Y364789D01*
X467329Y364887D01*
X467311Y364986D01*
X467290Y365083D01*
X467265Y365179D01*
X467236Y365275D01*
X467203Y365369D01*
X467167Y365462D01*
X467127Y365553D01*
X467083Y365643D01*
X467036Y365731D01*
X466986Y365817D01*
X466932Y365901D01*
X466875Y365983D01*
X466815Y366062D01*
X466751Y366140D01*
X466685Y366214D01*
X466616Y366286D01*
X466544Y366355D01*
X466470Y366421D01*
X466392Y366485D01*
X466313Y366545D01*
X466231Y366602D01*
X466147Y366656D01*
X466061Y366706D01*
X465973Y366753D01*
X465883Y366797D01*
X465792Y366837D01*
X465699Y366873D01*
X465605Y366906D01*
X465509Y366935D01*
X465413Y366960D01*
X465316Y366981D01*
X465217Y366999D01*
X465119Y367012D01*
X465019Y367022D01*
X464920Y367028D01*
X464820Y367030D01*
X467360Y321310D02*
X467358Y321210D01*
X467352Y321111D01*
X467342Y321011D01*
X467329Y320913D01*
X467311Y320814D01*
X467290Y320717D01*
X467265Y320621D01*
X467236Y320525D01*
X467203Y320431D01*
X467167Y320338D01*
X467127Y320247D01*
X467083Y320157D01*
X467036Y320069D01*
X466986Y319983D01*
X466932Y319899D01*
X466875Y319817D01*
X466815Y319738D01*
X466751Y319660D01*
X466685Y319586D01*
X466616Y319514D01*
X466544Y319445D01*
X466470Y319379D01*
X466392Y319315D01*
X466313Y319255D01*
X466231Y319198D01*
X466147Y319144D01*
X466061Y319094D01*
X465973Y319047D01*
X465883Y319003D01*
X465792Y318963D01*
X465699Y318927D01*
X465605Y318894D01*
X465509Y318865D01*
X465413Y318840D01*
X465316Y318819D01*
X465217Y318801D01*
X465119Y318788D01*
X465019Y318778D01*
X464920Y318772D01*
X464820Y318770D01*
X449580Y318770D02*
X449480Y318772D01*
X449381Y318778D01*
X449281Y318788D01*
X449183Y318801D01*
X449084Y318819D01*
X448987Y318840D01*
X448891Y318865D01*
X448795Y318894D01*
X448701Y318927D01*
X448608Y318963D01*
X448517Y319003D01*
X448427Y319047D01*
X448339Y319094D01*
X448253Y319144D01*
X448169Y319198D01*
X448087Y319255D01*
X448008Y319315D01*
X447930Y319379D01*
X447856Y319445D01*
X447784Y319514D01*
X447715Y319586D01*
X447649Y319660D01*
X447585Y319738D01*
X447525Y319817D01*
X447468Y319899D01*
X447414Y319983D01*
X447364Y320069D01*
X447317Y320157D01*
X447273Y320247D01*
X447233Y320338D01*
X447197Y320431D01*
X447164Y320525D01*
X447135Y320621D01*
X447110Y320717D01*
X447089Y320814D01*
X447071Y320913D01*
X447058Y321011D01*
X447048Y321111D01*
X447042Y321210D01*
X447040Y321310D01*
X447040Y364490D02*
X447042Y364590D01*
X447048Y364689D01*
X447058Y364789D01*
X447071Y364887D01*
X447089Y364986D01*
X447110Y365083D01*
X447135Y365179D01*
X447164Y365275D01*
X447197Y365369D01*
X447233Y365462D01*
X447273Y365553D01*
X447317Y365643D01*
X447364Y365731D01*
X447414Y365817D01*
X447468Y365901D01*
X447525Y365983D01*
X447585Y366062D01*
X447649Y366140D01*
X447715Y366214D01*
X447784Y366286D01*
X447856Y366355D01*
X447930Y366421D01*
X448008Y366485D01*
X448087Y366545D01*
X448169Y366602D01*
X448253Y366656D01*
X448339Y366706D01*
X448427Y366753D01*
X448517Y366797D01*
X448608Y366837D01*
X448701Y366873D01*
X448795Y366906D01*
X448891Y366935D01*
X448987Y366960D01*
X449084Y366981D01*
X449183Y366999D01*
X449281Y367012D01*
X449381Y367022D01*
X449480Y367028D01*
X449580Y367030D01*
X464820Y367030D01*
X464820Y318770D02*
X449580Y318770D01*
X467360Y321310D02*
X467360Y364490D01*
D12*
X443157Y307630D02*
X445100Y305761D01*
X445173Y301948D01*
X443303Y300005D01*
X435678Y299859D01*
X433735Y301728D01*
X433662Y305541D01*
X435532Y307484D01*
X439344Y307557D01*
X439418Y303745D01*
X433548Y311514D02*
X433401Y319139D01*
X433548Y311514D02*
X441026Y319286D01*
X442933Y319322D01*
X444875Y317452D01*
X444949Y313640D01*
X443079Y311697D01*
X442854Y323389D02*
X444724Y325332D01*
X444651Y329144D01*
X442708Y331014D01*
X440802Y330977D01*
X438932Y329034D01*
X438969Y327128D01*
X438932Y329034D02*
X436989Y330904D01*
X435083Y330868D01*
X433213Y328925D01*
X433287Y325112D01*
X435229Y323242D01*
X433099Y334898D02*
X444536Y335117D01*
X444426Y340836D01*
X442484Y342706D01*
X440577Y342669D01*
X438708Y340726D01*
X436765Y342596D01*
X434859Y342559D01*
X432989Y340616D01*
X433099Y334898D01*
X438817Y335007D02*
X438708Y340726D01*
X442406Y346772D02*
X444312Y346809D01*
X442406Y346772D02*
X438520Y350512D01*
X442259Y354398D01*
X444165Y354434D01*
X438520Y350512D02*
X432801Y350402D01*
X432650Y358281D02*
X444087Y358501D01*
X443978Y364220D01*
X442035Y366089D01*
X438222Y366016D01*
X436352Y364073D01*
X436462Y358354D01*
D11*
X294640Y364490D02*
X294640Y321310D01*
X314960Y364490D02*
X314958Y364590D01*
X314952Y364689D01*
X314942Y364789D01*
X314929Y364887D01*
X314911Y364986D01*
X314890Y365083D01*
X314865Y365179D01*
X314836Y365275D01*
X314803Y365369D01*
X314767Y365462D01*
X314727Y365553D01*
X314683Y365643D01*
X314636Y365731D01*
X314586Y365817D01*
X314532Y365901D01*
X314475Y365983D01*
X314415Y366062D01*
X314351Y366140D01*
X314285Y366214D01*
X314216Y366286D01*
X314144Y366355D01*
X314070Y366421D01*
X313992Y366485D01*
X313913Y366545D01*
X313831Y366602D01*
X313747Y366656D01*
X313661Y366706D01*
X313573Y366753D01*
X313483Y366797D01*
X313392Y366837D01*
X313299Y366873D01*
X313205Y366906D01*
X313109Y366935D01*
X313013Y366960D01*
X312916Y366981D01*
X312817Y366999D01*
X312719Y367012D01*
X312619Y367022D01*
X312520Y367028D01*
X312420Y367030D01*
X314960Y321310D02*
X314958Y321210D01*
X314952Y321111D01*
X314942Y321011D01*
X314929Y320913D01*
X314911Y320814D01*
X314890Y320717D01*
X314865Y320621D01*
X314836Y320525D01*
X314803Y320431D01*
X314767Y320338D01*
X314727Y320247D01*
X314683Y320157D01*
X314636Y320069D01*
X314586Y319983D01*
X314532Y319899D01*
X314475Y319817D01*
X314415Y319738D01*
X314351Y319660D01*
X314285Y319586D01*
X314216Y319514D01*
X314144Y319445D01*
X314070Y319379D01*
X313992Y319315D01*
X313913Y319255D01*
X313831Y319198D01*
X313747Y319144D01*
X313661Y319094D01*
X313573Y319047D01*
X313483Y319003D01*
X313392Y318963D01*
X313299Y318927D01*
X313205Y318894D01*
X313109Y318865D01*
X313013Y318840D01*
X312916Y318819D01*
X312817Y318801D01*
X312719Y318788D01*
X312619Y318778D01*
X312520Y318772D01*
X312420Y318770D01*
X297180Y318770D02*
X297080Y318772D01*
X296981Y318778D01*
X296881Y318788D01*
X296783Y318801D01*
X296684Y318819D01*
X296587Y318840D01*
X296491Y318865D01*
X296395Y318894D01*
X296301Y318927D01*
X296208Y318963D01*
X296117Y319003D01*
X296027Y319047D01*
X295939Y319094D01*
X295853Y319144D01*
X295769Y319198D01*
X295687Y319255D01*
X295608Y319315D01*
X295530Y319379D01*
X295456Y319445D01*
X295384Y319514D01*
X295315Y319586D01*
X295249Y319660D01*
X295185Y319738D01*
X295125Y319817D01*
X295068Y319899D01*
X295014Y319983D01*
X294964Y320069D01*
X294917Y320157D01*
X294873Y320247D01*
X294833Y320338D01*
X294797Y320431D01*
X294764Y320525D01*
X294735Y320621D01*
X294710Y320717D01*
X294689Y320814D01*
X294671Y320913D01*
X294658Y321011D01*
X294648Y321111D01*
X294642Y321210D01*
X294640Y321310D01*
X294640Y364490D02*
X294642Y364590D01*
X294648Y364689D01*
X294658Y364789D01*
X294671Y364887D01*
X294689Y364986D01*
X294710Y365083D01*
X294735Y365179D01*
X294764Y365275D01*
X294797Y365369D01*
X294833Y365462D01*
X294873Y365553D01*
X294917Y365643D01*
X294964Y365731D01*
X295014Y365817D01*
X295068Y365901D01*
X295125Y365983D01*
X295185Y366062D01*
X295249Y366140D01*
X295315Y366214D01*
X295384Y366286D01*
X295456Y366355D01*
X295530Y366421D01*
X295608Y366485D01*
X295687Y366545D01*
X295769Y366602D01*
X295853Y366656D01*
X295939Y366706D01*
X296027Y366753D01*
X296117Y366797D01*
X296208Y366837D01*
X296301Y366873D01*
X296395Y366906D01*
X296491Y366935D01*
X296587Y366960D01*
X296684Y366981D01*
X296783Y366999D01*
X296881Y367012D01*
X296981Y367022D01*
X297080Y367028D01*
X297180Y367030D01*
X312420Y367030D01*
X312420Y318770D02*
X297180Y318770D01*
X314960Y321310D02*
X314960Y364490D01*
D12*
X289568Y314332D02*
X291475Y312425D01*
X291475Y308612D01*
X289568Y306705D01*
X281942Y306705D01*
X280035Y308612D01*
X280035Y312425D01*
X281942Y314332D01*
X285755Y314332D01*
X285755Y310518D01*
X287662Y318399D02*
X291475Y322212D01*
X280035Y322212D01*
X280035Y318399D02*
X280035Y326025D01*
X291475Y330093D02*
X291475Y337719D01*
X289568Y337719D01*
X281942Y330093D01*
X280035Y330093D01*
X280035Y341787D02*
X291475Y341787D01*
X291475Y347507D01*
X289568Y349413D01*
X287662Y349413D01*
X285755Y347507D01*
X283848Y349413D01*
X281942Y349413D01*
X280035Y347507D01*
X280035Y341787D01*
X285755Y341787D02*
X285755Y347507D01*
X289568Y353481D02*
X291475Y353481D01*
X289568Y353481D02*
X285755Y357294D01*
X289568Y361107D01*
X291475Y361107D01*
X285755Y357294D02*
X280035Y357294D01*
X280035Y365175D02*
X291475Y365175D01*
X291475Y370895D01*
X289568Y372801D01*
X285755Y372801D01*
X283848Y370895D01*
X283848Y365175D01*
D13*
X423988Y505714D02*
X426361Y505714D01*
X423988Y505714D02*
X422802Y506900D01*
X422802Y509273D01*
X423988Y510459D01*
X426361Y510459D01*
X427547Y509273D01*
X427547Y506900D01*
X426361Y505714D01*
X420531Y503341D02*
X420531Y510459D01*
X416972Y510459D01*
X415785Y509273D01*
X415785Y506900D01*
X416972Y505714D01*
X420531Y505714D01*
X412328Y505714D02*
X409955Y505714D01*
X412328Y505714D02*
X413514Y506900D01*
X413514Y509273D01*
X412328Y510459D01*
X409955Y510459D01*
X408769Y509273D01*
X408769Y508087D01*
X413514Y508087D01*
X406498Y505714D02*
X406498Y510459D01*
X402939Y510459D01*
X401752Y509273D01*
X401752Y505714D01*
X392465Y505714D02*
X388906Y505714D01*
X387720Y506900D01*
X388906Y508087D01*
X391279Y508087D01*
X392465Y509273D01*
X391279Y510459D01*
X387720Y510459D01*
X384262Y505714D02*
X381890Y505714D01*
X380703Y506900D01*
X380703Y509273D01*
X381890Y510459D01*
X384262Y510459D01*
X385449Y509273D01*
X385449Y506900D01*
X384262Y505714D01*
X378432Y506900D02*
X378432Y510459D01*
X378432Y506900D02*
X377246Y505714D01*
X373687Y505714D01*
X373687Y510459D01*
X371416Y510459D02*
X371416Y505714D01*
X371416Y508087D02*
X369043Y510459D01*
X367857Y510459D01*
X364383Y510459D02*
X360824Y510459D01*
X364383Y510459D02*
X365569Y509273D01*
X365569Y506900D01*
X364383Y505714D01*
X360824Y505714D01*
X357366Y505714D02*
X354994Y505714D01*
X357366Y505714D02*
X358553Y506900D01*
X358553Y509273D01*
X357366Y510459D01*
X354994Y510459D01*
X353807Y509273D01*
X353807Y508087D01*
X358553Y508087D01*
X413514Y501402D02*
X413514Y494284D01*
X413514Y497843D02*
X412328Y499029D01*
X409955Y499029D01*
X408769Y497843D01*
X408769Y494284D01*
X405311Y499029D02*
X402939Y499029D01*
X401752Y497843D01*
X401752Y494284D01*
X405311Y494284D01*
X406498Y495470D01*
X405311Y496657D01*
X401752Y496657D01*
X399481Y499029D02*
X399481Y494284D01*
X399481Y496657D02*
X397109Y499029D01*
X395922Y499029D01*
X388889Y501402D02*
X388889Y494284D01*
X392448Y494284D01*
X393634Y495470D01*
X393634Y497843D01*
X392448Y499029D01*
X388889Y499029D01*
X386618Y499029D02*
X386618Y495470D01*
X385432Y494284D01*
X384245Y495470D01*
X383059Y494284D01*
X381873Y495470D01*
X381873Y499029D01*
X378415Y499029D02*
X376043Y499029D01*
X374856Y497843D01*
X374856Y494284D01*
X378415Y494284D01*
X379602Y495470D01*
X378415Y496657D01*
X374856Y496657D01*
X372585Y499029D02*
X372585Y494284D01*
X372585Y496657D02*
X370213Y499029D01*
X369026Y499029D01*
X365552Y494284D02*
X363179Y494284D01*
X365552Y494284D02*
X366738Y495470D01*
X366738Y497843D01*
X365552Y499029D01*
X363179Y499029D01*
X361993Y497843D01*
X361993Y496657D01*
X366738Y496657D01*
M02*
