G04 EAGLE Gerber RS-274X export*
G75*
%MOMM*%
%FSLAX34Y34*%
%LPD*%
%INSoldermask Bottom*%
%IPPOS*%
%AMOC8*
5,1,8,0,0,1.08239X$1,22.5*%
G01*
%ADD10C,2.203200*%
%ADD11C,1.625600*%
%ADD12P,1.759533X8X112.500000*%
%ADD13C,1.524000*%
%ADD14R,1.803400X1.371600*%
%ADD15C,1.727200*%
%ADD16C,2.003200*%


D10*
X577850Y628650D03*
X177800Y114300D03*
D11*
X493300Y152200D03*
D12*
X518700Y152200D03*
X493300Y177600D03*
X518700Y177600D03*
X493300Y203000D03*
X518700Y203000D03*
X493300Y228400D03*
X518700Y228400D03*
X493300Y253800D03*
X518700Y253800D03*
X493300Y279200D03*
X518700Y279200D03*
X493300Y304600D03*
X518700Y304600D03*
X493300Y330000D03*
X518700Y330000D03*
X493300Y355400D03*
X518700Y355400D03*
X493300Y380800D03*
X518700Y380800D03*
X493300Y406200D03*
X518700Y406200D03*
X493300Y431600D03*
X518700Y431600D03*
X493300Y457000D03*
X518700Y457000D03*
X493300Y482400D03*
X518700Y482400D03*
X493300Y507800D03*
X518700Y507800D03*
X493300Y533200D03*
X518700Y533200D03*
X493300Y558600D03*
X518700Y558600D03*
X493300Y584000D03*
X518700Y584000D03*
D11*
X243300Y152200D03*
D12*
X268700Y152200D03*
X243300Y177600D03*
X268700Y177600D03*
X243300Y203000D03*
X268700Y203000D03*
X243300Y228400D03*
X268700Y228400D03*
X243300Y253800D03*
X268700Y253800D03*
X243300Y279200D03*
X268700Y279200D03*
X243300Y304600D03*
X268700Y304600D03*
X243300Y330000D03*
X268700Y330000D03*
X243300Y355400D03*
X268700Y355400D03*
X243300Y380800D03*
X268700Y380800D03*
X243300Y406200D03*
X268700Y406200D03*
X243300Y431600D03*
X268700Y431600D03*
X243300Y457000D03*
X268700Y457000D03*
X243300Y482400D03*
X268700Y482400D03*
X243300Y507800D03*
X268700Y507800D03*
X243300Y533200D03*
X268700Y533200D03*
X243300Y558600D03*
X268700Y558600D03*
X243300Y584000D03*
X268700Y584000D03*
D13*
X203200Y602996D02*
X203200Y616204D01*
X228600Y616204D02*
X228600Y602996D01*
X254000Y602996D02*
X254000Y616204D01*
X279400Y616204D02*
X279400Y602996D01*
X304800Y602996D02*
X304800Y616204D01*
X330200Y616204D02*
X330200Y602996D01*
X412496Y304800D02*
X425704Y304800D01*
X425704Y330200D02*
X412496Y330200D01*
X412496Y457200D02*
X425704Y457200D01*
X349504Y457200D02*
X336296Y457200D01*
X412496Y355600D02*
X425704Y355600D01*
X425704Y381000D02*
X412496Y381000D01*
X412496Y431800D02*
X425704Y431800D01*
X425704Y406400D02*
X412496Y406400D01*
X349504Y431800D02*
X336296Y431800D01*
X336296Y406400D02*
X349504Y406400D01*
X349504Y381000D02*
X336296Y381000D01*
X336296Y355600D02*
X349504Y355600D01*
X349504Y330200D02*
X336296Y330200D01*
X336296Y304800D02*
X349504Y304800D01*
D14*
X304800Y403860D03*
X304800Y419100D03*
X304800Y434340D03*
X457200Y403860D03*
X457200Y419100D03*
X457200Y434340D03*
X457200Y327660D03*
X457200Y342900D03*
X457200Y358140D03*
X304800Y327660D03*
X304800Y342900D03*
X304800Y358140D03*
D15*
X355600Y248920D02*
X355600Y233680D01*
X381000Y233680D02*
X381000Y248920D01*
X406400Y248920D02*
X406400Y233680D01*
D16*
X342900Y148700D02*
X342900Y130700D01*
X368300Y130700D02*
X368300Y148700D01*
X393700Y148700D02*
X393700Y130700D01*
X419100Y130700D02*
X419100Y148700D01*
M02*
