G04 EAGLE Gerber RS-274X export*
G75*
%MOMM*%
%FSLAX34Y34*%
%LPD*%
%INBottom Copper*%
%IPPOS*%
%AMOC8*
5,1,8,0,0,1.08239X$1,22.5*%
G01*
%ADD10C,1.422400*%
%ADD11P,1.539592X8X292.500000*%
%ADD12C,1.320800*%
%ADD13R,1.600200X1.168400*%
%ADD14C,1.524000*%
%ADD15C,1.800000*%
%ADD16C,0.254000*%

G36*
X582698Y111764D02*
X582698Y111764D01*
X582717Y111762D01*
X582819Y111784D01*
X582921Y111800D01*
X582938Y111810D01*
X582958Y111814D01*
X583047Y111867D01*
X583138Y111916D01*
X583152Y111930D01*
X583169Y111940D01*
X583236Y112019D01*
X583308Y112094D01*
X583316Y112112D01*
X583329Y112127D01*
X583368Y112223D01*
X583411Y112317D01*
X583413Y112337D01*
X583421Y112355D01*
X583439Y112522D01*
X583439Y608004D01*
X583432Y608049D01*
X583434Y608095D01*
X583412Y608170D01*
X583400Y608247D01*
X583378Y608287D01*
X583365Y608332D01*
X583321Y608396D01*
X583284Y608464D01*
X583251Y608496D01*
X583225Y608534D01*
X583162Y608580D01*
X583106Y608634D01*
X583065Y608653D01*
X583028Y608680D01*
X582953Y608704D01*
X582883Y608737D01*
X582837Y608742D01*
X582794Y608756D01*
X582716Y608756D01*
X582639Y608764D01*
X582594Y608755D01*
X582548Y608754D01*
X582417Y608716D01*
X582398Y608712D01*
X582394Y608709D01*
X582387Y608707D01*
X581860Y608489D01*
X573840Y608489D01*
X566430Y611559D01*
X560759Y617230D01*
X557689Y624640D01*
X557689Y632660D01*
X559233Y636387D01*
X559243Y636431D01*
X559263Y636473D01*
X559271Y636550D01*
X559289Y636626D01*
X559285Y636672D01*
X559290Y636717D01*
X559273Y636794D01*
X559266Y636871D01*
X559247Y636913D01*
X559238Y636958D01*
X559198Y637025D01*
X559166Y637096D01*
X559135Y637130D01*
X559111Y637169D01*
X559052Y637220D01*
X559000Y637277D01*
X558959Y637299D01*
X558924Y637329D01*
X558852Y637358D01*
X558784Y637395D01*
X558739Y637404D01*
X558696Y637421D01*
X558560Y637436D01*
X558542Y637439D01*
X558537Y637438D01*
X558530Y637439D01*
X176022Y637439D01*
X176002Y637436D01*
X175983Y637438D01*
X175881Y637416D01*
X175779Y637400D01*
X175762Y637390D01*
X175742Y637386D01*
X175653Y637333D01*
X175562Y637284D01*
X175548Y637270D01*
X175531Y637260D01*
X175464Y637181D01*
X175392Y637106D01*
X175384Y637088D01*
X175371Y637073D01*
X175332Y636977D01*
X175289Y636883D01*
X175287Y636863D01*
X175279Y636845D01*
X175261Y636678D01*
X175261Y135222D01*
X175264Y135202D01*
X175262Y135183D01*
X175284Y135081D01*
X175300Y134979D01*
X175310Y134962D01*
X175314Y134942D01*
X175367Y134853D01*
X175416Y134762D01*
X175430Y134748D01*
X175440Y134731D01*
X175519Y134664D01*
X175594Y134592D01*
X175612Y134584D01*
X175627Y134571D01*
X175723Y134532D01*
X175817Y134489D01*
X175837Y134487D01*
X175855Y134479D01*
X176022Y134461D01*
X181810Y134461D01*
X189220Y131391D01*
X194891Y125720D01*
X197961Y118310D01*
X197961Y112522D01*
X197964Y112502D01*
X197962Y112483D01*
X197984Y112381D01*
X198000Y112279D01*
X198010Y112262D01*
X198014Y112242D01*
X198067Y112153D01*
X198116Y112062D01*
X198130Y112048D01*
X198140Y112031D01*
X198219Y111964D01*
X198294Y111892D01*
X198312Y111884D01*
X198327Y111871D01*
X198423Y111832D01*
X198517Y111789D01*
X198537Y111787D01*
X198555Y111779D01*
X198722Y111761D01*
X582678Y111761D01*
X582698Y111764D01*
G37*
%LPC*%
G36*
X366105Y119667D02*
X366105Y119667D01*
X362050Y121347D01*
X358947Y124450D01*
X357267Y128505D01*
X357267Y150895D01*
X358947Y154950D01*
X362050Y158053D01*
X366105Y159733D01*
X366268Y159733D01*
X366288Y159736D01*
X366307Y159734D01*
X366409Y159756D01*
X366511Y159772D01*
X366528Y159782D01*
X366548Y159786D01*
X366637Y159839D01*
X366728Y159888D01*
X366742Y159902D01*
X366759Y159912D01*
X366826Y159991D01*
X366898Y160066D01*
X366906Y160084D01*
X366919Y160099D01*
X366958Y160195D01*
X367001Y160289D01*
X367003Y160309D01*
X367011Y160327D01*
X367029Y160494D01*
X367029Y161388D01*
X419384Y213743D01*
X419437Y213817D01*
X419497Y213886D01*
X419509Y213917D01*
X419528Y213943D01*
X419555Y214030D01*
X419589Y214115D01*
X419593Y214156D01*
X419600Y214178D01*
X419599Y214210D01*
X419607Y214281D01*
X419607Y252063D01*
X419593Y252153D01*
X419585Y252244D01*
X419573Y252273D01*
X419568Y252305D01*
X419525Y252386D01*
X419489Y252470D01*
X419463Y252502D01*
X419452Y252523D01*
X419429Y252545D01*
X419384Y252601D01*
X394461Y277524D01*
X394461Y325215D01*
X394447Y325305D01*
X394439Y325396D01*
X394427Y325425D01*
X394422Y325457D01*
X394379Y325538D01*
X394343Y325622D01*
X394317Y325654D01*
X394306Y325675D01*
X394283Y325697D01*
X394238Y325753D01*
X355471Y364520D01*
X355397Y364573D01*
X355328Y364633D01*
X355297Y364645D01*
X355271Y364664D01*
X355184Y364691D01*
X355099Y364725D01*
X355058Y364729D01*
X355036Y364736D01*
X355004Y364735D01*
X354933Y364743D01*
X353826Y364743D01*
X353730Y364728D01*
X353633Y364718D01*
X353609Y364708D01*
X353583Y364704D01*
X353497Y364658D01*
X353408Y364618D01*
X353389Y364601D01*
X353366Y364588D01*
X353299Y364518D01*
X353227Y364452D01*
X353215Y364429D01*
X353197Y364410D01*
X353156Y364322D01*
X353109Y364236D01*
X353104Y364211D01*
X353093Y364187D01*
X353082Y364090D01*
X353065Y363994D01*
X353069Y363968D01*
X353066Y363943D01*
X353087Y363847D01*
X353101Y363751D01*
X353113Y363728D01*
X353118Y363702D01*
X353168Y363618D01*
X353212Y363532D01*
X353231Y363514D01*
X353244Y363491D01*
X353318Y363428D01*
X353388Y363360D01*
X353416Y363344D01*
X353431Y363331D01*
X353462Y363319D01*
X353535Y363279D01*
X354396Y362922D01*
X356826Y360492D01*
X358141Y357318D01*
X358141Y353882D01*
X356826Y350708D01*
X354396Y348278D01*
X351222Y346963D01*
X334578Y346963D01*
X332560Y347799D01*
X332447Y347826D01*
X332333Y347854D01*
X332327Y347854D01*
X332321Y347855D01*
X332204Y347844D01*
X332088Y347835D01*
X332082Y347833D01*
X332076Y347832D01*
X331968Y347784D01*
X331862Y347739D01*
X331856Y347734D01*
X331851Y347732D01*
X331838Y347719D01*
X331731Y347634D01*
X325852Y341755D01*
X325799Y341681D01*
X325739Y341612D01*
X325727Y341581D01*
X325708Y341555D01*
X325681Y341468D01*
X325647Y341383D01*
X325643Y341342D01*
X325636Y341320D01*
X325637Y341288D01*
X325629Y341217D01*
X325629Y332388D01*
X319122Y325881D01*
X315595Y325881D01*
X315575Y325878D01*
X315556Y325880D01*
X315454Y325858D01*
X315352Y325842D01*
X315335Y325832D01*
X315315Y325828D01*
X315226Y325775D01*
X315135Y325726D01*
X315121Y325712D01*
X315104Y325702D01*
X315037Y325623D01*
X314965Y325548D01*
X314957Y325530D01*
X314944Y325515D01*
X314905Y325419D01*
X314862Y325325D01*
X314860Y325305D01*
X314852Y325287D01*
X314834Y325120D01*
X314834Y320976D01*
X313643Y319785D01*
X295957Y319785D01*
X294766Y320976D01*
X294766Y325120D01*
X294763Y325140D01*
X294765Y325159D01*
X294743Y325261D01*
X294727Y325363D01*
X294717Y325380D01*
X294713Y325400D01*
X294660Y325489D01*
X294611Y325580D01*
X294597Y325594D01*
X294587Y325611D01*
X294508Y325678D01*
X294433Y325750D01*
X294415Y325758D01*
X294400Y325771D01*
X294304Y325810D01*
X294210Y325853D01*
X294190Y325855D01*
X294172Y325863D01*
X294005Y325881D01*
X291240Y325881D01*
X280161Y336960D01*
X280161Y492093D01*
X280147Y492183D01*
X280139Y492274D01*
X280127Y492303D01*
X280122Y492335D01*
X280079Y492416D01*
X280043Y492500D01*
X280017Y492532D01*
X280006Y492553D01*
X279983Y492575D01*
X279938Y492631D01*
X273539Y499030D01*
X273523Y499042D01*
X273511Y499057D01*
X273439Y499103D01*
X273412Y499127D01*
X273396Y499133D01*
X273339Y499174D01*
X273320Y499179D01*
X273304Y499190D01*
X273203Y499216D01*
X273104Y499246D01*
X273084Y499245D01*
X273065Y499250D01*
X272962Y499242D01*
X272858Y499240D01*
X272840Y499233D01*
X272820Y499231D01*
X272725Y499191D01*
X272627Y499155D01*
X272612Y499143D01*
X272594Y499135D01*
X272534Y499087D01*
X272525Y499082D01*
X272515Y499072D01*
X272494Y499055D01*
X264912Y499055D01*
X259555Y504412D01*
X259555Y511988D01*
X264912Y517345D01*
X272488Y517345D01*
X277845Y511988D01*
X277845Y504381D01*
X277859Y504291D01*
X277867Y504200D01*
X277879Y504171D01*
X277884Y504139D01*
X277927Y504058D01*
X277963Y503974D01*
X277989Y503942D01*
X278000Y503921D01*
X278023Y503899D01*
X278068Y503843D01*
X283434Y498477D01*
X283492Y498435D01*
X283544Y498386D01*
X283591Y498364D01*
X283633Y498333D01*
X283702Y498312D01*
X283767Y498282D01*
X283819Y498276D01*
X283869Y498261D01*
X283940Y498263D01*
X284011Y498255D01*
X284062Y498266D01*
X284114Y498267D01*
X284182Y498292D01*
X284252Y498307D01*
X284297Y498334D01*
X284345Y498352D01*
X284401Y498397D01*
X284463Y498434D01*
X284497Y498473D01*
X284537Y498506D01*
X284576Y498566D01*
X284623Y498620D01*
X284642Y498669D01*
X284670Y498713D01*
X284688Y498782D01*
X284715Y498849D01*
X284723Y498920D01*
X284731Y498951D01*
X284729Y498974D01*
X284733Y499015D01*
X284733Y512667D01*
X284719Y512757D01*
X284711Y512848D01*
X284699Y512877D01*
X284694Y512909D01*
X284651Y512990D01*
X284615Y513074D01*
X284589Y513106D01*
X284578Y513127D01*
X284555Y513149D01*
X284510Y513205D01*
X273412Y524303D01*
X273396Y524315D01*
X273383Y524330D01*
X273296Y524386D01*
X273212Y524447D01*
X273193Y524452D01*
X273176Y524463D01*
X273076Y524489D01*
X272977Y524519D01*
X272957Y524518D01*
X272938Y524523D01*
X272835Y524515D01*
X272731Y524513D01*
X272713Y524506D01*
X272693Y524504D01*
X272598Y524464D01*
X272575Y524455D01*
X264912Y524455D01*
X259555Y529812D01*
X259555Y537388D01*
X264912Y542745D01*
X272488Y542745D01*
X277845Y537388D01*
X277845Y529527D01*
X277859Y529437D01*
X277867Y529346D01*
X277879Y529317D01*
X277884Y529285D01*
X277927Y529204D01*
X277963Y529120D01*
X277989Y529088D01*
X278000Y529067D01*
X278023Y529045D01*
X278068Y528989D01*
X291339Y515718D01*
X291339Y410877D01*
X291353Y410787D01*
X291361Y410696D01*
X291373Y410667D01*
X291378Y410635D01*
X291421Y410554D01*
X291457Y410470D01*
X291483Y410438D01*
X291494Y410417D01*
X291517Y410395D01*
X291562Y410339D01*
X293467Y408434D01*
X293525Y408392D01*
X293577Y408343D01*
X293624Y408321D01*
X293666Y408290D01*
X293735Y408269D01*
X293800Y408239D01*
X293852Y408233D01*
X293902Y408218D01*
X293973Y408220D01*
X294044Y408212D01*
X294095Y408223D01*
X294147Y408224D01*
X294215Y408249D01*
X294285Y408264D01*
X294330Y408291D01*
X294378Y408309D01*
X294434Y408354D01*
X294496Y408391D01*
X294530Y408430D01*
X294570Y408463D01*
X294609Y408523D01*
X294656Y408577D01*
X294675Y408626D01*
X294703Y408670D01*
X294721Y408739D01*
X294748Y408806D01*
X294756Y408877D01*
X294764Y408908D01*
X294762Y408931D01*
X294766Y408972D01*
X294766Y410544D01*
X295164Y410942D01*
X295176Y410958D01*
X295191Y410970D01*
X295247Y411057D01*
X295308Y411141D01*
X295313Y411160D01*
X295324Y411177D01*
X295349Y411278D01*
X295380Y411377D01*
X295379Y411396D01*
X295384Y411416D01*
X295376Y411519D01*
X295374Y411622D01*
X295367Y411641D01*
X295365Y411661D01*
X295325Y411756D01*
X295289Y411853D01*
X295277Y411869D01*
X295269Y411887D01*
X295164Y412018D01*
X294766Y412416D01*
X294766Y425784D01*
X295164Y426182D01*
X295176Y426198D01*
X295191Y426210D01*
X295247Y426297D01*
X295308Y426381D01*
X295313Y426400D01*
X295324Y426417D01*
X295349Y426518D01*
X295380Y426617D01*
X295379Y426636D01*
X295384Y426656D01*
X295376Y426759D01*
X295374Y426862D01*
X295367Y426881D01*
X295365Y426901D01*
X295325Y426996D01*
X295289Y427093D01*
X295277Y427109D01*
X295269Y427127D01*
X295164Y427258D01*
X294766Y427656D01*
X294766Y441024D01*
X295957Y442215D01*
X313643Y442215D01*
X314834Y441024D01*
X314834Y438404D01*
X314837Y438384D01*
X314835Y438365D01*
X314857Y438263D01*
X314873Y438161D01*
X314883Y438144D01*
X314887Y438124D01*
X314940Y438035D01*
X314989Y437944D01*
X315003Y437930D01*
X315013Y437913D01*
X315092Y437846D01*
X315167Y437774D01*
X315185Y437766D01*
X315200Y437753D01*
X315296Y437714D01*
X315390Y437671D01*
X315410Y437669D01*
X315428Y437661D01*
X315595Y437643D01*
X316071Y437643D01*
X316161Y437657D01*
X316252Y437665D01*
X316281Y437677D01*
X316313Y437682D01*
X316394Y437725D01*
X316478Y437761D01*
X316510Y437787D01*
X316531Y437798D01*
X316553Y437821D01*
X316609Y437866D01*
X329474Y450731D01*
X329486Y450747D01*
X329501Y450760D01*
X329558Y450847D01*
X329618Y450931D01*
X329624Y450950D01*
X329634Y450967D01*
X329660Y451067D01*
X329690Y451166D01*
X329690Y451186D01*
X329694Y451205D01*
X329686Y451308D01*
X329686Y451310D01*
X329687Y451318D01*
X329686Y451323D01*
X329684Y451412D01*
X329677Y451430D01*
X329675Y451450D01*
X329641Y451532D01*
X329635Y451558D01*
X329623Y451578D01*
X329599Y451643D01*
X329587Y451658D01*
X329579Y451677D01*
X329520Y451750D01*
X329509Y451769D01*
X329497Y451780D01*
X329474Y451808D01*
X328974Y452308D01*
X327659Y455482D01*
X327659Y458918D01*
X328974Y462092D01*
X331404Y464522D01*
X334578Y465837D01*
X351222Y465837D01*
X354396Y464522D01*
X356826Y462092D01*
X358141Y458918D01*
X358141Y455482D01*
X356826Y452308D01*
X354396Y449878D01*
X351222Y448563D01*
X336963Y448563D01*
X336873Y448549D01*
X336782Y448541D01*
X336753Y448529D01*
X336721Y448524D01*
X336640Y448481D01*
X336556Y448445D01*
X336524Y448419D01*
X336503Y448408D01*
X336481Y448385D01*
X336425Y448340D01*
X336171Y448086D01*
X336129Y448028D01*
X336080Y447976D01*
X336058Y447929D01*
X336027Y447887D01*
X336006Y447818D01*
X335976Y447753D01*
X335970Y447701D01*
X335955Y447651D01*
X335957Y447580D01*
X335949Y447509D01*
X335960Y447458D01*
X335961Y447406D01*
X335986Y447338D01*
X336001Y447268D01*
X336028Y447224D01*
X336046Y447175D01*
X336091Y447119D01*
X336128Y447057D01*
X336167Y447023D01*
X336200Y446983D01*
X336260Y446944D01*
X336314Y446897D01*
X336363Y446878D01*
X336407Y446850D01*
X336476Y446832D01*
X336543Y446805D01*
X336614Y446797D01*
X336645Y446789D01*
X336668Y446791D01*
X336709Y446787D01*
X359410Y446787D01*
X359430Y446790D01*
X359449Y446788D01*
X359551Y446810D01*
X359653Y446826D01*
X359670Y446836D01*
X359690Y446840D01*
X359779Y446893D01*
X359870Y446942D01*
X359884Y446956D01*
X359901Y446966D01*
X359968Y447045D01*
X360040Y447120D01*
X360048Y447138D01*
X360061Y447153D01*
X360100Y447249D01*
X360143Y447343D01*
X360145Y447363D01*
X360153Y447381D01*
X360171Y447548D01*
X360171Y494379D01*
X360157Y494469D01*
X360149Y494560D01*
X360137Y494589D01*
X360132Y494621D01*
X360089Y494702D01*
X360053Y494786D01*
X360027Y494818D01*
X360016Y494839D01*
X359993Y494861D01*
X359948Y494917D01*
X259463Y595402D01*
X259369Y595470D01*
X259275Y595540D01*
X259269Y595542D01*
X259264Y595546D01*
X259153Y595580D01*
X259041Y595616D01*
X259034Y595616D01*
X259028Y595618D01*
X258912Y595615D01*
X258795Y595614D01*
X258788Y595612D01*
X258783Y595612D01*
X258765Y595605D01*
X258634Y595567D01*
X255718Y594359D01*
X252282Y594359D01*
X249108Y595674D01*
X246678Y598104D01*
X245363Y601278D01*
X245363Y617922D01*
X246678Y621096D01*
X249108Y623526D01*
X252282Y624841D01*
X255718Y624841D01*
X258892Y623526D01*
X261322Y621096D01*
X262637Y617922D01*
X262637Y601885D01*
X262651Y601795D01*
X262659Y601704D01*
X262671Y601675D01*
X262676Y601643D01*
X262719Y601562D01*
X262755Y601478D01*
X262781Y601446D01*
X262792Y601425D01*
X262815Y601403D01*
X262860Y601347D01*
X366777Y497430D01*
X366777Y447453D01*
X366779Y447441D01*
X366778Y447432D01*
X366787Y447388D01*
X366791Y447363D01*
X366799Y447272D01*
X366811Y447243D01*
X366816Y447211D01*
X366859Y447130D01*
X366895Y447046D01*
X366921Y447014D01*
X366932Y446993D01*
X366955Y446971D01*
X367000Y446915D01*
X403621Y410294D01*
X403658Y410267D01*
X403690Y410233D01*
X403758Y410195D01*
X403821Y410150D01*
X403865Y410137D01*
X403905Y410114D01*
X403982Y410101D01*
X404056Y410078D01*
X404102Y410079D01*
X404147Y410071D01*
X404224Y410082D01*
X404302Y410084D01*
X404345Y410100D01*
X404390Y410107D01*
X404460Y410142D01*
X404533Y410169D01*
X404569Y410197D01*
X404610Y410218D01*
X404664Y410273D01*
X404725Y410322D01*
X404750Y410361D01*
X404782Y410394D01*
X404848Y410513D01*
X404858Y410529D01*
X404859Y410534D01*
X404863Y410541D01*
X405174Y411292D01*
X407604Y413722D01*
X410778Y415037D01*
X427422Y415037D01*
X430596Y413722D01*
X433026Y411292D01*
X434341Y408118D01*
X434341Y407321D01*
X434355Y407231D01*
X434363Y407140D01*
X434375Y407111D01*
X434380Y407079D01*
X434423Y406998D01*
X434459Y406914D01*
X434485Y406882D01*
X434496Y406861D01*
X434519Y406839D01*
X434564Y406783D01*
X437771Y403576D01*
X437845Y403523D01*
X437914Y403463D01*
X437945Y403451D01*
X437971Y403432D01*
X438058Y403405D01*
X438143Y403371D01*
X438184Y403367D01*
X438206Y403360D01*
X438238Y403361D01*
X438309Y403353D01*
X441801Y403353D01*
X441891Y403367D01*
X441982Y403375D01*
X442011Y403387D01*
X442043Y403392D01*
X442124Y403435D01*
X442208Y403471D01*
X442240Y403497D01*
X442261Y403508D01*
X442283Y403531D01*
X442339Y403576D01*
X444402Y405639D01*
X446405Y405639D01*
X446425Y405642D01*
X446444Y405640D01*
X446546Y405662D01*
X446648Y405678D01*
X446665Y405688D01*
X446685Y405692D01*
X446774Y405745D01*
X446865Y405794D01*
X446879Y405808D01*
X446896Y405818D01*
X446963Y405897D01*
X447035Y405972D01*
X447043Y405990D01*
X447056Y406005D01*
X447095Y406101D01*
X447138Y406195D01*
X447140Y406215D01*
X447148Y406233D01*
X447166Y406400D01*
X447166Y410544D01*
X447564Y410942D01*
X447576Y410958D01*
X447591Y410970D01*
X447647Y411057D01*
X447708Y411141D01*
X447713Y411160D01*
X447724Y411177D01*
X447749Y411278D01*
X447780Y411377D01*
X447779Y411396D01*
X447784Y411416D01*
X447776Y411519D01*
X447774Y411622D01*
X447767Y411641D01*
X447765Y411661D01*
X447725Y411756D01*
X447689Y411853D01*
X447677Y411869D01*
X447669Y411887D01*
X447564Y412018D01*
X447166Y412416D01*
X447166Y425784D01*
X447564Y426182D01*
X447576Y426198D01*
X447591Y426210D01*
X447647Y426297D01*
X447708Y426381D01*
X447713Y426400D01*
X447724Y426417D01*
X447749Y426518D01*
X447780Y426617D01*
X447779Y426636D01*
X447784Y426656D01*
X447776Y426759D01*
X447774Y426862D01*
X447767Y426881D01*
X447765Y426901D01*
X447725Y426996D01*
X447689Y427093D01*
X447677Y427109D01*
X447669Y427127D01*
X447564Y427258D01*
X447166Y427656D01*
X447166Y430276D01*
X447163Y430296D01*
X447165Y430315D01*
X447143Y430417D01*
X447127Y430519D01*
X447117Y430536D01*
X447113Y430556D01*
X447060Y430645D01*
X447011Y430736D01*
X446997Y430750D01*
X446987Y430767D01*
X446908Y430834D01*
X446833Y430906D01*
X446815Y430914D01*
X446800Y430927D01*
X446704Y430966D01*
X446610Y431009D01*
X446590Y431011D01*
X446572Y431019D01*
X446405Y431037D01*
X435102Y431037D01*
X435082Y431034D01*
X435063Y431036D01*
X434961Y431014D01*
X434859Y430998D01*
X434842Y430988D01*
X434822Y430984D01*
X434733Y430931D01*
X434642Y430882D01*
X434628Y430868D01*
X434611Y430858D01*
X434544Y430779D01*
X434472Y430704D01*
X434464Y430686D01*
X434451Y430671D01*
X434412Y430575D01*
X434369Y430481D01*
X434367Y430461D01*
X434359Y430443D01*
X434341Y430276D01*
X434341Y430082D01*
X433026Y426908D01*
X430596Y424478D01*
X427422Y423163D01*
X410778Y423163D01*
X407604Y424478D01*
X405174Y426908D01*
X403859Y430082D01*
X403859Y433518D01*
X405174Y436692D01*
X407604Y439122D01*
X410778Y440437D01*
X427422Y440437D01*
X430596Y439122D01*
X431853Y437866D01*
X431926Y437813D01*
X431996Y437753D01*
X432026Y437741D01*
X432052Y437722D01*
X432139Y437695D01*
X432224Y437661D01*
X432265Y437657D01*
X432287Y437650D01*
X432320Y437651D01*
X432391Y437643D01*
X446405Y437643D01*
X446425Y437646D01*
X446444Y437644D01*
X446546Y437666D01*
X446648Y437682D01*
X446665Y437692D01*
X446685Y437696D01*
X446774Y437749D01*
X446865Y437798D01*
X446879Y437812D01*
X446896Y437822D01*
X446963Y437901D01*
X447035Y437976D01*
X447043Y437994D01*
X447056Y438009D01*
X447095Y438105D01*
X447138Y438199D01*
X447140Y438219D01*
X447148Y438237D01*
X447166Y438404D01*
X447166Y441024D01*
X448357Y442215D01*
X466043Y442215D01*
X467234Y441024D01*
X467234Y427656D01*
X466836Y427258D01*
X466824Y427242D01*
X466809Y427230D01*
X466753Y427142D01*
X466692Y427059D01*
X466687Y427040D01*
X466676Y427023D01*
X466651Y426922D01*
X466620Y426823D01*
X466621Y426804D01*
X466616Y426784D01*
X466624Y426681D01*
X466626Y426578D01*
X466633Y426559D01*
X466635Y426539D01*
X466675Y426444D01*
X466711Y426347D01*
X466723Y426331D01*
X466731Y426313D01*
X466836Y426182D01*
X467234Y425784D01*
X467234Y425736D01*
X467245Y425666D01*
X467247Y425594D01*
X467265Y425545D01*
X467273Y425494D01*
X467307Y425430D01*
X467332Y425363D01*
X467364Y425322D01*
X467389Y425276D01*
X467441Y425227D01*
X467485Y425171D01*
X467529Y425143D01*
X467567Y425107D01*
X467632Y425077D01*
X467692Y425038D01*
X467743Y425025D01*
X467790Y425003D01*
X467861Y424995D01*
X467931Y424978D01*
X467983Y424982D01*
X468034Y424976D01*
X468105Y424991D01*
X468176Y424997D01*
X468224Y425017D01*
X468275Y425028D01*
X468336Y425065D01*
X468402Y425093D01*
X468458Y425138D01*
X468486Y425155D01*
X468501Y425172D01*
X468533Y425198D01*
X469676Y426341D01*
X469729Y426415D01*
X469789Y426484D01*
X469801Y426515D01*
X469820Y426541D01*
X469847Y426628D01*
X469881Y426713D01*
X469885Y426754D01*
X469892Y426776D01*
X469891Y426808D01*
X469899Y426879D01*
X469899Y441801D01*
X469885Y441891D01*
X469877Y441982D01*
X469865Y442011D01*
X469860Y442043D01*
X469817Y442124D01*
X469781Y442208D01*
X469755Y442240D01*
X469744Y442261D01*
X469721Y442283D01*
X469676Y442339D01*
X328039Y583976D01*
X327965Y584029D01*
X327896Y584089D01*
X327865Y584101D01*
X327839Y584120D01*
X327752Y584147D01*
X327667Y584181D01*
X327626Y584185D01*
X327604Y584192D01*
X327572Y584191D01*
X327501Y584199D01*
X293526Y584199D01*
X283067Y594658D01*
X282973Y594726D01*
X282879Y594796D01*
X282872Y594798D01*
X282867Y594802D01*
X282757Y594836D01*
X282645Y594872D01*
X282638Y594872D01*
X282632Y594874D01*
X282516Y594871D01*
X282399Y594870D01*
X282392Y594868D01*
X282386Y594868D01*
X282369Y594861D01*
X282238Y594823D01*
X281118Y594359D01*
X277682Y594359D01*
X274508Y595674D01*
X272078Y598104D01*
X270763Y601278D01*
X270763Y617922D01*
X272078Y621096D01*
X274508Y623526D01*
X277682Y624841D01*
X281118Y624841D01*
X284292Y623526D01*
X286722Y621096D01*
X288037Y617922D01*
X288037Y601278D01*
X287573Y600158D01*
X287546Y600045D01*
X287518Y599931D01*
X287518Y599925D01*
X287517Y599919D01*
X287528Y599802D01*
X287537Y599686D01*
X287539Y599680D01*
X287540Y599674D01*
X287588Y599567D01*
X287633Y599460D01*
X287638Y599454D01*
X287640Y599449D01*
X287653Y599436D01*
X287738Y599329D01*
X296039Y591028D01*
X296113Y590975D01*
X296182Y590915D01*
X296213Y590903D01*
X296239Y590884D01*
X296326Y590857D01*
X296411Y590823D01*
X296452Y590819D01*
X296474Y590812D01*
X296506Y590813D01*
X296577Y590805D01*
X330552Y590805D01*
X476505Y444852D01*
X476505Y423828D01*
X469998Y417321D01*
X467995Y417321D01*
X467975Y417318D01*
X467956Y417320D01*
X467854Y417298D01*
X467752Y417282D01*
X467735Y417272D01*
X467715Y417268D01*
X467626Y417215D01*
X467535Y417166D01*
X467521Y417152D01*
X467504Y417142D01*
X467437Y417063D01*
X467365Y416988D01*
X467357Y416970D01*
X467344Y416955D01*
X467305Y416859D01*
X467262Y416765D01*
X467260Y416745D01*
X467252Y416727D01*
X467234Y416560D01*
X467234Y412416D01*
X466836Y412018D01*
X466824Y412002D01*
X466809Y411990D01*
X466753Y411902D01*
X466692Y411819D01*
X466687Y411800D01*
X466676Y411783D01*
X466651Y411682D01*
X466620Y411583D01*
X466621Y411564D01*
X466616Y411544D01*
X466624Y411441D01*
X466626Y411338D01*
X466633Y411319D01*
X466635Y411299D01*
X466675Y411204D01*
X466711Y411107D01*
X466723Y411091D01*
X466731Y411073D01*
X466836Y410942D01*
X467234Y410544D01*
X467234Y408686D01*
X467237Y408666D01*
X467235Y408647D01*
X467257Y408545D01*
X467273Y408443D01*
X467283Y408426D01*
X467287Y408406D01*
X467340Y408317D01*
X467389Y408226D01*
X467403Y408212D01*
X467413Y408195D01*
X467492Y408128D01*
X467567Y408056D01*
X467585Y408048D01*
X467600Y408035D01*
X467696Y407996D01*
X467790Y407953D01*
X467810Y407951D01*
X467828Y407943D01*
X467995Y407925D01*
X472284Y407925D01*
X489641Y390568D01*
X489715Y390515D01*
X489784Y390455D01*
X489815Y390443D01*
X489841Y390424D01*
X489928Y390397D01*
X490013Y390363D01*
X490054Y390359D01*
X490076Y390352D01*
X490108Y390353D01*
X490179Y390345D01*
X497088Y390345D01*
X502445Y384988D01*
X502445Y377412D01*
X497088Y372055D01*
X489512Y372055D01*
X484155Y377412D01*
X484155Y384988D01*
X484479Y385312D01*
X484491Y385328D01*
X484506Y385340D01*
X484562Y385428D01*
X484623Y385511D01*
X484628Y385530D01*
X484639Y385547D01*
X484665Y385648D01*
X484695Y385746D01*
X484694Y385766D01*
X484699Y385786D01*
X484691Y385889D01*
X484689Y385992D01*
X484682Y386011D01*
X484680Y386031D01*
X484640Y386126D01*
X484604Y386223D01*
X484592Y386239D01*
X484584Y386257D01*
X484479Y386388D01*
X469771Y401096D01*
X469697Y401149D01*
X469628Y401209D01*
X469597Y401221D01*
X469571Y401240D01*
X469484Y401267D01*
X469399Y401301D01*
X469358Y401305D01*
X469336Y401312D01*
X469304Y401311D01*
X469233Y401319D01*
X467995Y401319D01*
X467975Y401316D01*
X467956Y401318D01*
X467854Y401296D01*
X467752Y401280D01*
X467735Y401270D01*
X467715Y401266D01*
X467626Y401213D01*
X467535Y401164D01*
X467521Y401150D01*
X467504Y401140D01*
X467437Y401061D01*
X467365Y400986D01*
X467357Y400968D01*
X467344Y400953D01*
X467305Y400857D01*
X467262Y400763D01*
X467260Y400743D01*
X467252Y400725D01*
X467234Y400558D01*
X467234Y397176D01*
X466043Y395985D01*
X448357Y395985D01*
X447166Y397176D01*
X447166Y397224D01*
X447155Y397294D01*
X447153Y397366D01*
X447135Y397415D01*
X447127Y397466D01*
X447093Y397530D01*
X447068Y397597D01*
X447036Y397638D01*
X447011Y397684D01*
X446959Y397733D01*
X446915Y397789D01*
X446871Y397817D01*
X446833Y397853D01*
X446768Y397883D01*
X446708Y397922D01*
X446657Y397935D01*
X446610Y397957D01*
X446539Y397965D01*
X446469Y397982D01*
X446417Y397978D01*
X446366Y397984D01*
X446295Y397969D01*
X446224Y397963D01*
X446176Y397943D01*
X446125Y397932D01*
X446064Y397895D01*
X445998Y397867D01*
X445942Y397822D01*
X445914Y397805D01*
X445899Y397788D01*
X445867Y397762D01*
X444852Y396747D01*
X437293Y396747D01*
X437223Y396736D01*
X437151Y396734D01*
X437102Y396716D01*
X437051Y396708D01*
X436987Y396674D01*
X436920Y396649D01*
X436879Y396617D01*
X436833Y396592D01*
X436784Y396540D01*
X436728Y396496D01*
X436700Y396452D01*
X436664Y396414D01*
X436634Y396349D01*
X436595Y396289D01*
X436582Y396238D01*
X436560Y396191D01*
X436552Y396120D01*
X436535Y396050D01*
X436539Y395998D01*
X436533Y395947D01*
X436548Y395876D01*
X436554Y395805D01*
X436574Y395757D01*
X436585Y395706D01*
X436622Y395645D01*
X436650Y395579D01*
X436695Y395523D01*
X436712Y395495D01*
X436729Y395480D01*
X436755Y395448D01*
X437771Y394432D01*
X437845Y394379D01*
X437914Y394319D01*
X437945Y394307D01*
X437971Y394288D01*
X438058Y394261D01*
X438143Y394227D01*
X438184Y394223D01*
X438206Y394216D01*
X438238Y394217D01*
X438309Y394209D01*
X449424Y394209D01*
X476505Y367128D01*
X476505Y346104D01*
X469998Y339597D01*
X467995Y339597D01*
X467975Y339594D01*
X467956Y339596D01*
X467854Y339574D01*
X467752Y339558D01*
X467735Y339548D01*
X467715Y339544D01*
X467626Y339491D01*
X467535Y339442D01*
X467521Y339428D01*
X467504Y339418D01*
X467437Y339339D01*
X467365Y339264D01*
X467357Y339246D01*
X467344Y339231D01*
X467305Y339135D01*
X467262Y339041D01*
X467260Y339021D01*
X467252Y339003D01*
X467234Y338836D01*
X467234Y336216D01*
X466836Y335818D01*
X466824Y335802D01*
X466809Y335790D01*
X466753Y335703D01*
X466692Y335619D01*
X466687Y335600D01*
X466676Y335583D01*
X466651Y335482D01*
X466620Y335383D01*
X466621Y335364D01*
X466616Y335344D01*
X466624Y335241D01*
X466626Y335138D01*
X466633Y335119D01*
X466635Y335099D01*
X466675Y335004D01*
X466711Y334907D01*
X466723Y334891D01*
X466731Y334873D01*
X466836Y334742D01*
X467234Y334344D01*
X467234Y330962D01*
X467237Y330942D01*
X467235Y330923D01*
X467257Y330821D01*
X467273Y330719D01*
X467283Y330702D01*
X467287Y330682D01*
X467340Y330593D01*
X467389Y330502D01*
X467403Y330488D01*
X467413Y330471D01*
X467492Y330404D01*
X467567Y330332D01*
X467585Y330324D01*
X467600Y330311D01*
X467696Y330272D01*
X467790Y330229D01*
X467810Y330227D01*
X467828Y330219D01*
X467995Y330201D01*
X482949Y330201D01*
X483039Y330215D01*
X483130Y330223D01*
X483159Y330235D01*
X483191Y330240D01*
X483272Y330283D01*
X483356Y330319D01*
X483388Y330345D01*
X483409Y330356D01*
X483431Y330379D01*
X483487Y330424D01*
X483932Y330869D01*
X483985Y330943D01*
X484045Y331012D01*
X484057Y331043D01*
X484076Y331069D01*
X484103Y331156D01*
X484137Y331241D01*
X484141Y331282D01*
X484148Y331304D01*
X484147Y331336D01*
X484155Y331407D01*
X484155Y334188D01*
X489512Y339545D01*
X497088Y339545D01*
X502445Y334188D01*
X502445Y326612D01*
X497088Y321255D01*
X489512Y321255D01*
X487124Y323643D01*
X487108Y323655D01*
X487096Y323670D01*
X487008Y323726D01*
X486925Y323787D01*
X486906Y323792D01*
X486889Y323803D01*
X486788Y323829D01*
X486690Y323859D01*
X486670Y323858D01*
X486650Y323863D01*
X486547Y323855D01*
X486444Y323853D01*
X486425Y323846D01*
X486405Y323844D01*
X486310Y323804D01*
X486213Y323768D01*
X486197Y323756D01*
X486179Y323748D01*
X486048Y323643D01*
X486000Y323595D01*
X467995Y323595D01*
X467975Y323592D01*
X467956Y323594D01*
X467854Y323572D01*
X467752Y323556D01*
X467735Y323546D01*
X467715Y323542D01*
X467626Y323489D01*
X467535Y323440D01*
X467521Y323426D01*
X467504Y323416D01*
X467437Y323337D01*
X467365Y323262D01*
X467357Y323244D01*
X467344Y323229D01*
X467305Y323133D01*
X467262Y323039D01*
X467260Y323019D01*
X467252Y323001D01*
X467234Y322834D01*
X467234Y320976D01*
X466043Y319785D01*
X448357Y319785D01*
X447166Y320976D01*
X447166Y321786D01*
X447155Y321856D01*
X447153Y321928D01*
X447135Y321977D01*
X447127Y322028D01*
X447093Y322092D01*
X447068Y322159D01*
X447036Y322200D01*
X447011Y322246D01*
X446959Y322295D01*
X446915Y322351D01*
X446871Y322379D01*
X446833Y322415D01*
X446768Y322445D01*
X446708Y322484D01*
X446657Y322497D01*
X446610Y322519D01*
X446539Y322527D01*
X446469Y322544D01*
X446417Y322540D01*
X446366Y322546D01*
X446295Y322531D01*
X446224Y322525D01*
X446176Y322505D01*
X446125Y322494D01*
X446064Y322457D01*
X445998Y322429D01*
X445942Y322384D01*
X445914Y322367D01*
X445899Y322350D01*
X445867Y322324D01*
X442566Y319023D01*
X439579Y319023D01*
X439509Y319012D01*
X439437Y319010D01*
X439388Y318992D01*
X439337Y318984D01*
X439273Y318950D01*
X439206Y318925D01*
X439165Y318893D01*
X439119Y318868D01*
X439070Y318816D01*
X439014Y318772D01*
X438986Y318728D01*
X438950Y318690D01*
X438920Y318625D01*
X438881Y318565D01*
X438868Y318514D01*
X438846Y318467D01*
X438838Y318396D01*
X438821Y318326D01*
X438825Y318274D01*
X438819Y318223D01*
X438834Y318152D01*
X438840Y318081D01*
X438860Y318033D01*
X438871Y317982D01*
X438908Y317921D01*
X438936Y317855D01*
X438981Y317799D01*
X438998Y317771D01*
X439015Y317756D01*
X439041Y317724D01*
X444501Y312264D01*
X444501Y197514D01*
X403033Y156046D01*
X403021Y156030D01*
X403006Y156018D01*
X402950Y155930D01*
X402889Y155846D01*
X402884Y155828D01*
X402873Y155811D01*
X402847Y155710D01*
X402817Y155611D01*
X402818Y155591D01*
X402813Y155572D01*
X402821Y155469D01*
X402823Y155366D01*
X402830Y155347D01*
X402832Y155327D01*
X402872Y155232D01*
X402908Y155135D01*
X402920Y155119D01*
X402928Y155101D01*
X403033Y154970D01*
X403053Y154950D01*
X404733Y150895D01*
X404733Y128505D01*
X403053Y124450D01*
X399950Y121347D01*
X395895Y119667D01*
X391505Y119667D01*
X387450Y121347D01*
X384347Y124450D01*
X382667Y128505D01*
X382667Y150895D01*
X384347Y154950D01*
X387450Y158053D01*
X391505Y159733D01*
X395895Y159733D01*
X396474Y159493D01*
X396587Y159466D01*
X396701Y159438D01*
X396707Y159438D01*
X396713Y159437D01*
X396830Y159448D01*
X396946Y159457D01*
X396952Y159459D01*
X396958Y159460D01*
X397065Y159508D01*
X397172Y159553D01*
X397178Y159558D01*
X397183Y159560D01*
X397196Y159573D01*
X397303Y159658D01*
X437672Y200027D01*
X437725Y200101D01*
X437785Y200170D01*
X437797Y200201D01*
X437816Y200227D01*
X437843Y200314D01*
X437877Y200399D01*
X437881Y200440D01*
X437888Y200462D01*
X437887Y200494D01*
X437895Y200565D01*
X437895Y309213D01*
X437881Y309303D01*
X437873Y309394D01*
X437861Y309423D01*
X437856Y309455D01*
X437813Y309536D01*
X437777Y309620D01*
X437751Y309652D01*
X437740Y309673D01*
X437717Y309695D01*
X437672Y309751D01*
X433195Y314228D01*
X433121Y314281D01*
X433052Y314341D01*
X433021Y314353D01*
X432995Y314372D01*
X432908Y314399D01*
X432823Y314433D01*
X432782Y314437D01*
X432760Y314444D01*
X432728Y314443D01*
X432657Y314451D01*
X430686Y314451D01*
X428623Y316514D01*
X428549Y316567D01*
X428480Y316627D01*
X428449Y316639D01*
X428423Y316658D01*
X428336Y316685D01*
X428251Y316719D01*
X428210Y316723D01*
X428188Y316730D01*
X428156Y316729D01*
X428085Y316737D01*
X405540Y316737D01*
X403382Y318895D01*
X402366Y319911D01*
X402308Y319953D01*
X402256Y320002D01*
X402209Y320024D01*
X402167Y320055D01*
X402098Y320076D01*
X402033Y320106D01*
X401981Y320112D01*
X401931Y320127D01*
X401860Y320125D01*
X401789Y320133D01*
X401738Y320122D01*
X401686Y320121D01*
X401618Y320096D01*
X401548Y320081D01*
X401503Y320054D01*
X401455Y320036D01*
X401399Y319991D01*
X401337Y319954D01*
X401303Y319915D01*
X401263Y319882D01*
X401224Y319822D01*
X401177Y319768D01*
X401158Y319719D01*
X401130Y319675D01*
X401112Y319606D01*
X401085Y319539D01*
X401077Y319468D01*
X401069Y319437D01*
X401071Y319414D01*
X401067Y319373D01*
X401067Y280575D01*
X401081Y280485D01*
X401089Y280394D01*
X401101Y280365D01*
X401106Y280333D01*
X401149Y280252D01*
X401185Y280168D01*
X401211Y280136D01*
X401222Y280115D01*
X401245Y280093D01*
X401290Y280037D01*
X426213Y255114D01*
X426213Y211230D01*
X374285Y159302D01*
X374258Y159265D01*
X374224Y159234D01*
X374187Y159165D01*
X374141Y159102D01*
X374128Y159058D01*
X374106Y159018D01*
X374092Y158942D01*
X374069Y158867D01*
X374070Y158821D01*
X374062Y158776D01*
X374073Y158699D01*
X374075Y158621D01*
X374091Y158578D01*
X374098Y158533D01*
X374133Y158463D01*
X374160Y158390D01*
X374188Y158354D01*
X374209Y158314D01*
X374265Y158259D01*
X374313Y158198D01*
X374352Y158173D01*
X374385Y158141D01*
X374505Y158075D01*
X374520Y158065D01*
X374525Y158064D01*
X374532Y158060D01*
X374550Y158053D01*
X377653Y154950D01*
X379333Y150895D01*
X379333Y128505D01*
X377653Y124450D01*
X374550Y121347D01*
X370495Y119667D01*
X366105Y119667D01*
G37*
%LPD*%
G36*
X294095Y332785D02*
X294095Y332785D01*
X294147Y332786D01*
X294215Y332811D01*
X294285Y332826D01*
X294330Y332853D01*
X294378Y332871D01*
X294434Y332916D01*
X294496Y332953D01*
X294530Y332992D01*
X294570Y333025D01*
X294609Y333085D01*
X294656Y333139D01*
X294675Y333188D01*
X294703Y333232D01*
X294721Y333301D01*
X294748Y333368D01*
X294756Y333439D01*
X294764Y333470D01*
X294762Y333493D01*
X294766Y333534D01*
X294766Y334344D01*
X295164Y334742D01*
X295176Y334758D01*
X295191Y334770D01*
X295247Y334857D01*
X295308Y334941D01*
X295313Y334960D01*
X295324Y334977D01*
X295349Y335078D01*
X295380Y335177D01*
X295379Y335196D01*
X295384Y335216D01*
X295376Y335319D01*
X295374Y335422D01*
X295367Y335441D01*
X295365Y335461D01*
X295325Y335556D01*
X295289Y335653D01*
X295277Y335669D01*
X295269Y335687D01*
X295164Y335818D01*
X294766Y336216D01*
X294766Y349584D01*
X295164Y349982D01*
X295176Y349998D01*
X295191Y350010D01*
X295247Y350097D01*
X295308Y350181D01*
X295313Y350200D01*
X295324Y350217D01*
X295349Y350318D01*
X295380Y350417D01*
X295379Y350436D01*
X295384Y350456D01*
X295376Y350559D01*
X295374Y350662D01*
X295367Y350681D01*
X295365Y350701D01*
X295325Y350796D01*
X295289Y350893D01*
X295277Y350909D01*
X295269Y350927D01*
X295164Y351058D01*
X294766Y351456D01*
X294766Y364824D01*
X295957Y366015D01*
X313643Y366015D01*
X314834Y364824D01*
X314834Y364776D01*
X314845Y364706D01*
X314847Y364634D01*
X314865Y364585D01*
X314873Y364534D01*
X314907Y364470D01*
X314932Y364403D01*
X314964Y364362D01*
X314989Y364316D01*
X315040Y364267D01*
X315085Y364211D01*
X315129Y364183D01*
X315167Y364147D01*
X315232Y364117D01*
X315292Y364078D01*
X315343Y364065D01*
X315390Y364043D01*
X315461Y364035D01*
X315531Y364018D01*
X315583Y364022D01*
X315634Y364016D01*
X315705Y364031D01*
X315776Y364037D01*
X315824Y364057D01*
X315875Y364068D01*
X315936Y364105D01*
X316002Y364133D01*
X316058Y364178D01*
X316086Y364195D01*
X316101Y364212D01*
X316133Y364238D01*
X328330Y376435D01*
X328398Y376530D01*
X328468Y376623D01*
X328470Y376629D01*
X328474Y376635D01*
X328508Y376746D01*
X328544Y376857D01*
X328544Y376864D01*
X328546Y376870D01*
X328543Y376986D01*
X328542Y377103D01*
X328540Y377110D01*
X328540Y377115D01*
X328533Y377133D01*
X328495Y377264D01*
X327659Y379282D01*
X327659Y382718D01*
X328974Y385892D01*
X331404Y388322D01*
X334578Y389637D01*
X351222Y389637D01*
X354396Y388322D01*
X356826Y385892D01*
X358141Y382718D01*
X358141Y379282D01*
X356826Y376108D01*
X354421Y373703D01*
X354409Y373686D01*
X354394Y373674D01*
X354337Y373587D01*
X354277Y373503D01*
X354271Y373484D01*
X354261Y373467D01*
X354235Y373367D01*
X354205Y373268D01*
X354205Y373248D01*
X354201Y373228D01*
X354209Y373126D01*
X354211Y373022D01*
X354218Y373003D01*
X354220Y372983D01*
X354260Y372888D01*
X354296Y372791D01*
X354308Y372775D01*
X354316Y372757D01*
X354421Y372626D01*
X355475Y371572D01*
X355549Y371519D01*
X355618Y371459D01*
X355649Y371447D01*
X355675Y371428D01*
X355762Y371401D01*
X355847Y371367D01*
X355888Y371363D01*
X355910Y371356D01*
X355942Y371357D01*
X356013Y371349D01*
X357984Y371349D01*
X393162Y336171D01*
X393220Y336129D01*
X393272Y336080D01*
X393319Y336058D01*
X393361Y336027D01*
X393430Y336006D01*
X393495Y335976D01*
X393547Y335970D01*
X393597Y335955D01*
X393668Y335957D01*
X393739Y335949D01*
X393790Y335960D01*
X393842Y335961D01*
X393910Y335986D01*
X393980Y336001D01*
X394025Y336028D01*
X394073Y336046D01*
X394129Y336091D01*
X394191Y336128D01*
X394225Y336167D01*
X394265Y336200D01*
X394304Y336260D01*
X394351Y336314D01*
X394370Y336363D01*
X394398Y336407D01*
X394416Y336476D01*
X394443Y336543D01*
X394451Y336614D01*
X394459Y336645D01*
X394457Y336668D01*
X394461Y336709D01*
X394461Y402939D01*
X394447Y403029D01*
X394439Y403120D01*
X394427Y403149D01*
X394422Y403181D01*
X394379Y403262D01*
X394343Y403346D01*
X394317Y403378D01*
X394306Y403399D01*
X394283Y403421D01*
X394238Y403477D01*
X357757Y439958D01*
X357683Y440011D01*
X357614Y440071D01*
X357583Y440083D01*
X357557Y440102D01*
X357470Y440129D01*
X357385Y440163D01*
X357344Y440167D01*
X357322Y440174D01*
X357290Y440173D01*
X357219Y440181D01*
X355175Y440181D01*
X355104Y440170D01*
X355032Y440168D01*
X354983Y440150D01*
X354932Y440142D01*
X354869Y440108D01*
X354801Y440083D01*
X354761Y440051D01*
X354715Y440026D01*
X354665Y439974D01*
X354609Y439930D01*
X354581Y439886D01*
X354545Y439848D01*
X354515Y439783D01*
X354476Y439723D01*
X354464Y439672D01*
X354442Y439625D01*
X354434Y439554D01*
X354416Y439484D01*
X354420Y439432D01*
X354415Y439381D01*
X354430Y439310D01*
X354435Y439239D01*
X354456Y439191D01*
X354467Y439140D01*
X354504Y439079D01*
X354532Y439013D01*
X354576Y438957D01*
X354593Y438929D01*
X354611Y438914D01*
X354636Y438882D01*
X356826Y436692D01*
X358141Y433518D01*
X358141Y430082D01*
X356826Y426908D01*
X354396Y424478D01*
X351222Y423163D01*
X334427Y423163D01*
X334350Y423151D01*
X334243Y423142D01*
X334239Y423141D01*
X334234Y423140D01*
X334204Y423127D01*
X334184Y423124D01*
X334122Y423091D01*
X334017Y423046D01*
X334013Y423043D01*
X334009Y423041D01*
X333998Y423031D01*
X333977Y423014D01*
X333966Y423008D01*
X333955Y422997D01*
X333886Y422941D01*
X325852Y414907D01*
X325799Y414833D01*
X325739Y414764D01*
X325727Y414733D01*
X325708Y414707D01*
X325681Y414620D01*
X325647Y414535D01*
X325643Y414494D01*
X325636Y414472D01*
X325637Y414440D01*
X325629Y414369D01*
X325629Y410112D01*
X316836Y401319D01*
X315595Y401319D01*
X315575Y401316D01*
X315556Y401318D01*
X315454Y401296D01*
X315352Y401280D01*
X315335Y401270D01*
X315315Y401266D01*
X315226Y401213D01*
X315135Y401164D01*
X315121Y401150D01*
X315104Y401140D01*
X315037Y401061D01*
X314965Y400986D01*
X314957Y400968D01*
X314944Y400953D01*
X314905Y400857D01*
X314862Y400763D01*
X314860Y400743D01*
X314852Y400725D01*
X314834Y400558D01*
X314834Y397176D01*
X313643Y395985D01*
X295957Y395985D01*
X294766Y397176D01*
X294766Y400558D01*
X294763Y400578D01*
X294765Y400597D01*
X294743Y400699D01*
X294727Y400801D01*
X294717Y400818D01*
X294713Y400838D01*
X294660Y400927D01*
X294611Y401018D01*
X294597Y401032D01*
X294587Y401049D01*
X294508Y401116D01*
X294433Y401188D01*
X294415Y401196D01*
X294400Y401209D01*
X294304Y401248D01*
X294210Y401291D01*
X294190Y401293D01*
X294172Y401301D01*
X294005Y401319D01*
X291240Y401319D01*
X289082Y403477D01*
X288066Y404493D01*
X288008Y404535D01*
X287956Y404584D01*
X287909Y404606D01*
X287867Y404637D01*
X287798Y404658D01*
X287733Y404688D01*
X287681Y404694D01*
X287631Y404709D01*
X287560Y404707D01*
X287489Y404715D01*
X287438Y404704D01*
X287386Y404703D01*
X287318Y404678D01*
X287248Y404663D01*
X287203Y404636D01*
X287155Y404618D01*
X287099Y404573D01*
X287037Y404536D01*
X287003Y404497D01*
X286963Y404464D01*
X286924Y404404D01*
X286877Y404350D01*
X286858Y404301D01*
X286830Y404257D01*
X286812Y404188D01*
X286785Y404121D01*
X286777Y404050D01*
X286769Y404019D01*
X286771Y403996D01*
X286767Y403955D01*
X286767Y340011D01*
X286781Y339921D01*
X286789Y339830D01*
X286801Y339801D01*
X286806Y339769D01*
X286849Y339688D01*
X286885Y339604D01*
X286911Y339572D01*
X286922Y339551D01*
X286945Y339529D01*
X286990Y339473D01*
X293467Y332996D01*
X293525Y332954D01*
X293577Y332905D01*
X293624Y332883D01*
X293666Y332852D01*
X293735Y332831D01*
X293800Y332801D01*
X293852Y332795D01*
X293902Y332780D01*
X293973Y332782D01*
X294044Y332774D01*
X294095Y332785D01*
G37*
G36*
X439605Y325643D02*
X439605Y325643D01*
X439696Y325651D01*
X439725Y325663D01*
X439757Y325668D01*
X439838Y325711D01*
X439922Y325747D01*
X439954Y325773D01*
X439975Y325784D01*
X439997Y325807D01*
X440053Y325852D01*
X442244Y328043D01*
X444402Y330201D01*
X446405Y330201D01*
X446425Y330204D01*
X446444Y330202D01*
X446546Y330224D01*
X446648Y330240D01*
X446665Y330250D01*
X446685Y330254D01*
X446774Y330307D01*
X446865Y330356D01*
X446879Y330370D01*
X446896Y330380D01*
X446963Y330459D01*
X447035Y330534D01*
X447043Y330552D01*
X447056Y330567D01*
X447095Y330663D01*
X447138Y330757D01*
X447140Y330777D01*
X447148Y330795D01*
X447166Y330962D01*
X447166Y334344D01*
X447564Y334742D01*
X447576Y334758D01*
X447591Y334770D01*
X447647Y334858D01*
X447708Y334941D01*
X447713Y334960D01*
X447724Y334977D01*
X447749Y335078D01*
X447780Y335177D01*
X447779Y335196D01*
X447784Y335216D01*
X447776Y335319D01*
X447774Y335422D01*
X447767Y335441D01*
X447765Y335461D01*
X447725Y335556D01*
X447689Y335653D01*
X447677Y335669D01*
X447669Y335687D01*
X447564Y335818D01*
X447166Y336216D01*
X447166Y349584D01*
X447564Y349982D01*
X447576Y349998D01*
X447591Y350010D01*
X447647Y350097D01*
X447708Y350181D01*
X447713Y350200D01*
X447724Y350217D01*
X447749Y350318D01*
X447780Y350417D01*
X447779Y350436D01*
X447784Y350456D01*
X447776Y350559D01*
X447774Y350662D01*
X447767Y350681D01*
X447765Y350701D01*
X447725Y350796D01*
X447689Y350893D01*
X447677Y350909D01*
X447669Y350927D01*
X447564Y351058D01*
X447166Y351456D01*
X447166Y354838D01*
X447163Y354858D01*
X447165Y354877D01*
X447143Y354979D01*
X447127Y355081D01*
X447117Y355098D01*
X447113Y355118D01*
X447060Y355207D01*
X447011Y355298D01*
X446997Y355312D01*
X446987Y355329D01*
X446908Y355396D01*
X446833Y355468D01*
X446815Y355476D01*
X446800Y355489D01*
X446704Y355528D01*
X446610Y355571D01*
X446590Y355573D01*
X446572Y355581D01*
X446405Y355599D01*
X435102Y355599D01*
X435082Y355596D01*
X435063Y355598D01*
X434961Y355576D01*
X434859Y355560D01*
X434842Y355550D01*
X434822Y355546D01*
X434733Y355493D01*
X434642Y355444D01*
X434628Y355430D01*
X434611Y355420D01*
X434544Y355341D01*
X434472Y355266D01*
X434464Y355248D01*
X434451Y355233D01*
X434412Y355137D01*
X434369Y355043D01*
X434367Y355023D01*
X434359Y355005D01*
X434341Y354838D01*
X434341Y353882D01*
X433026Y350708D01*
X430596Y348278D01*
X427422Y346963D01*
X410778Y346963D01*
X407604Y348278D01*
X405174Y350708D01*
X403859Y353882D01*
X403859Y357318D01*
X405174Y360492D01*
X407604Y362922D01*
X410778Y364237D01*
X427422Y364237D01*
X430596Y362922D01*
X431091Y362428D01*
X431164Y362375D01*
X431234Y362315D01*
X431264Y362303D01*
X431290Y362284D01*
X431377Y362257D01*
X431462Y362223D01*
X431503Y362219D01*
X431525Y362212D01*
X431558Y362213D01*
X431629Y362205D01*
X446405Y362205D01*
X446425Y362208D01*
X446444Y362206D01*
X446546Y362228D01*
X446648Y362244D01*
X446665Y362254D01*
X446685Y362258D01*
X446774Y362311D01*
X446865Y362360D01*
X446879Y362374D01*
X446896Y362384D01*
X446963Y362463D01*
X447035Y362538D01*
X447043Y362556D01*
X447056Y362571D01*
X447095Y362667D01*
X447138Y362761D01*
X447140Y362781D01*
X447148Y362799D01*
X447166Y362966D01*
X447166Y364824D01*
X448357Y366015D01*
X466043Y366015D01*
X467234Y364824D01*
X467234Y351456D01*
X466836Y351058D01*
X466824Y351042D01*
X466809Y351030D01*
X466753Y350942D01*
X466692Y350859D01*
X466687Y350840D01*
X466676Y350823D01*
X466651Y350722D01*
X466620Y350623D01*
X466621Y350604D01*
X466616Y350584D01*
X466624Y350481D01*
X466626Y350378D01*
X466633Y350359D01*
X466635Y350339D01*
X466675Y350244D01*
X466711Y350147D01*
X466723Y350131D01*
X466731Y350113D01*
X466836Y349982D01*
X467234Y349584D01*
X467234Y348012D01*
X467245Y347942D01*
X467247Y347870D01*
X467265Y347821D01*
X467273Y347770D01*
X467307Y347706D01*
X467332Y347639D01*
X467364Y347598D01*
X467389Y347552D01*
X467441Y347503D01*
X467485Y347447D01*
X467529Y347419D01*
X467567Y347383D01*
X467632Y347353D01*
X467692Y347314D01*
X467743Y347301D01*
X467790Y347279D01*
X467861Y347271D01*
X467931Y347254D01*
X467983Y347258D01*
X468034Y347252D01*
X468105Y347267D01*
X468176Y347273D01*
X468224Y347293D01*
X468275Y347304D01*
X468336Y347341D01*
X468402Y347369D01*
X468458Y347414D01*
X468486Y347431D01*
X468501Y347448D01*
X468533Y347474D01*
X469676Y348617D01*
X469729Y348691D01*
X469789Y348760D01*
X469801Y348791D01*
X469820Y348817D01*
X469847Y348904D01*
X469881Y348989D01*
X469885Y349030D01*
X469892Y349052D01*
X469891Y349084D01*
X469899Y349155D01*
X469899Y364077D01*
X469885Y364167D01*
X469877Y364258D01*
X469865Y364287D01*
X469860Y364319D01*
X469817Y364400D01*
X469781Y364484D01*
X469755Y364516D01*
X469744Y364537D01*
X469721Y364559D01*
X469676Y364615D01*
X446911Y387380D01*
X446837Y387433D01*
X446768Y387493D01*
X446737Y387505D01*
X446711Y387524D01*
X446624Y387551D01*
X446539Y387585D01*
X446498Y387589D01*
X446476Y387596D01*
X446444Y387595D01*
X446373Y387603D01*
X435258Y387603D01*
X430909Y391952D01*
X430835Y392005D01*
X430766Y392065D01*
X430735Y392077D01*
X430709Y392096D01*
X430622Y392123D01*
X430537Y392157D01*
X430496Y392161D01*
X430474Y392168D01*
X430442Y392167D01*
X430371Y392175D01*
X407826Y392175D01*
X402366Y397635D01*
X402308Y397677D01*
X402256Y397726D01*
X402209Y397748D01*
X402167Y397779D01*
X402098Y397800D01*
X402033Y397830D01*
X401981Y397836D01*
X401931Y397851D01*
X401860Y397849D01*
X401789Y397857D01*
X401738Y397846D01*
X401686Y397845D01*
X401618Y397820D01*
X401548Y397805D01*
X401503Y397778D01*
X401455Y397760D01*
X401399Y397715D01*
X401337Y397678D01*
X401303Y397639D01*
X401263Y397606D01*
X401224Y397546D01*
X401177Y397492D01*
X401158Y397443D01*
X401130Y397399D01*
X401112Y397330D01*
X401085Y397263D01*
X401077Y397192D01*
X401069Y397161D01*
X401071Y397138D01*
X401067Y397097D01*
X401067Y335439D01*
X401081Y335349D01*
X401089Y335258D01*
X401101Y335229D01*
X401106Y335197D01*
X401149Y335116D01*
X401185Y335032D01*
X401211Y335000D01*
X401222Y334979D01*
X401245Y334957D01*
X401290Y334901D01*
X403175Y333016D01*
X403212Y332989D01*
X403243Y332955D01*
X403311Y332918D01*
X403375Y332872D01*
X403418Y332859D01*
X403459Y332837D01*
X403535Y332823D01*
X403610Y332800D01*
X403655Y332801D01*
X403701Y332793D01*
X403778Y332804D01*
X403855Y332806D01*
X403899Y332822D01*
X403944Y332829D01*
X404013Y332864D01*
X404087Y332891D01*
X404122Y332920D01*
X404163Y332940D01*
X404218Y332996D01*
X404279Y333045D01*
X404303Y333083D01*
X404336Y333116D01*
X404401Y333236D01*
X404412Y333251D01*
X404413Y333256D01*
X404416Y333263D01*
X405174Y335092D01*
X407604Y337522D01*
X410778Y338837D01*
X427422Y338837D01*
X430596Y337522D01*
X433026Y335092D01*
X434341Y331918D01*
X434341Y328482D01*
X434100Y327901D01*
X434074Y327788D01*
X434045Y327674D01*
X434045Y327668D01*
X434044Y327662D01*
X434055Y327545D01*
X434064Y327429D01*
X434066Y327423D01*
X434067Y327417D01*
X434115Y327310D01*
X434160Y327203D01*
X434165Y327197D01*
X434167Y327192D01*
X434180Y327179D01*
X434265Y327072D01*
X435485Y325852D01*
X435559Y325799D01*
X435628Y325739D01*
X435659Y325727D01*
X435685Y325708D01*
X435772Y325681D01*
X435857Y325647D01*
X435898Y325643D01*
X435920Y325636D01*
X435952Y325637D01*
X436023Y325629D01*
X439515Y325629D01*
X439605Y325643D01*
G37*
%LPC*%
G36*
X340705Y119667D02*
X340705Y119667D01*
X336650Y121347D01*
X333547Y124450D01*
X331867Y128505D01*
X331867Y150895D01*
X333547Y154950D01*
X336650Y158053D01*
X340705Y159733D01*
X341122Y159733D01*
X341142Y159736D01*
X341161Y159734D01*
X341263Y159756D01*
X341365Y159772D01*
X341382Y159782D01*
X341402Y159786D01*
X341491Y159839D01*
X341582Y159888D01*
X341596Y159902D01*
X341613Y159912D01*
X341680Y159991D01*
X341752Y160066D01*
X341760Y160084D01*
X341773Y160099D01*
X341812Y160195D01*
X341855Y160289D01*
X341857Y160309D01*
X341865Y160327D01*
X341883Y160494D01*
X341883Y163674D01*
X343946Y165737D01*
X343999Y165811D01*
X344059Y165880D01*
X344071Y165911D01*
X344090Y165937D01*
X344117Y166024D01*
X344151Y166109D01*
X344155Y166150D01*
X344162Y166172D01*
X344161Y166204D01*
X344169Y166275D01*
X344169Y204822D01*
X346327Y206980D01*
X371124Y231777D01*
X371177Y231851D01*
X371237Y231920D01*
X371249Y231951D01*
X371268Y231977D01*
X371295Y232064D01*
X371329Y232149D01*
X371333Y232190D01*
X371340Y232212D01*
X371339Y232244D01*
X371347Y232315D01*
X371347Y250840D01*
X372817Y254388D01*
X375532Y257103D01*
X379080Y258573D01*
X382920Y258573D01*
X386468Y257103D01*
X389183Y254388D01*
X390653Y250840D01*
X390653Y231760D01*
X389183Y228212D01*
X386468Y225497D01*
X382920Y224027D01*
X379080Y224027D01*
X375532Y225497D01*
X375397Y225632D01*
X375381Y225643D01*
X375369Y225659D01*
X375281Y225715D01*
X375197Y225775D01*
X375178Y225781D01*
X375162Y225792D01*
X375061Y225817D01*
X374962Y225848D01*
X374942Y225847D01*
X374923Y225852D01*
X374820Y225844D01*
X374716Y225841D01*
X374698Y225834D01*
X374678Y225833D01*
X374583Y225793D01*
X374485Y225757D01*
X374470Y225744D01*
X374452Y225737D01*
X374321Y225632D01*
X350998Y202309D01*
X350945Y202235D01*
X350885Y202166D01*
X350873Y202135D01*
X350854Y202109D01*
X350827Y202022D01*
X350793Y201937D01*
X350789Y201896D01*
X350782Y201874D01*
X350783Y201842D01*
X350775Y201771D01*
X350775Y163224D01*
X348712Y161161D01*
X348659Y161087D01*
X348599Y161018D01*
X348587Y160987D01*
X348568Y160961D01*
X348541Y160874D01*
X348507Y160789D01*
X348503Y160748D01*
X348496Y160726D01*
X348497Y160694D01*
X348489Y160623D01*
X348489Y158835D01*
X348507Y158721D01*
X348525Y158604D01*
X348527Y158599D01*
X348528Y158593D01*
X348583Y158490D01*
X348636Y158385D01*
X348641Y158381D01*
X348644Y158375D01*
X348728Y158295D01*
X348812Y158213D01*
X348818Y158209D01*
X348822Y158206D01*
X348839Y158198D01*
X348959Y158132D01*
X349150Y158053D01*
X352253Y154950D01*
X353933Y150895D01*
X353933Y128505D01*
X352253Y124450D01*
X349150Y121347D01*
X345095Y119667D01*
X340705Y119667D01*
G37*
%LPD*%
%LPC*%
G36*
X404480Y224027D02*
X404480Y224027D01*
X400932Y225497D01*
X398217Y228212D01*
X396747Y231760D01*
X396747Y249777D01*
X396733Y249867D01*
X396725Y249958D01*
X396713Y249987D01*
X396708Y250019D01*
X396665Y250100D01*
X396629Y250184D01*
X396603Y250216D01*
X396592Y250237D01*
X396569Y250259D01*
X396524Y250315D01*
X385189Y261650D01*
X385115Y261703D01*
X385046Y261763D01*
X385015Y261775D01*
X384989Y261794D01*
X384902Y261821D01*
X384817Y261855D01*
X384776Y261859D01*
X384754Y261866D01*
X384722Y261865D01*
X384651Y261873D01*
X373536Y261873D01*
X371378Y264031D01*
X339469Y295940D01*
X339395Y295993D01*
X339326Y296053D01*
X339295Y296065D01*
X339269Y296084D01*
X339182Y296111D01*
X339097Y296145D01*
X339056Y296149D01*
X339034Y296156D01*
X339002Y296155D01*
X338931Y296163D01*
X334578Y296163D01*
X331404Y297478D01*
X328974Y299908D01*
X327659Y303082D01*
X327659Y306518D01*
X328974Y309692D01*
X331404Y312122D01*
X334578Y313437D01*
X351222Y313437D01*
X354396Y312122D01*
X356826Y309692D01*
X358141Y306518D01*
X358141Y303082D01*
X356826Y299908D01*
X354396Y297478D01*
X351222Y296163D01*
X350425Y296163D01*
X350355Y296152D01*
X350283Y296150D01*
X350234Y296132D01*
X350183Y296124D01*
X350119Y296090D01*
X350052Y296065D01*
X350011Y296033D01*
X349965Y296008D01*
X349916Y295956D01*
X349860Y295912D01*
X349832Y295868D01*
X349796Y295830D01*
X349766Y295765D01*
X349727Y295705D01*
X349714Y295654D01*
X349692Y295607D01*
X349684Y295536D01*
X349667Y295466D01*
X349671Y295414D01*
X349665Y295363D01*
X349680Y295292D01*
X349686Y295221D01*
X349706Y295173D01*
X349717Y295122D01*
X349754Y295061D01*
X349782Y294995D01*
X349827Y294939D01*
X349844Y294911D01*
X349861Y294896D01*
X349887Y294864D01*
X376049Y268702D01*
X376123Y268649D01*
X376192Y268589D01*
X376223Y268577D01*
X376249Y268558D01*
X376336Y268531D01*
X376421Y268497D01*
X376462Y268493D01*
X376484Y268486D01*
X376516Y268487D01*
X376587Y268479D01*
X387702Y268479D01*
X399467Y256714D01*
X399483Y256703D01*
X399495Y256687D01*
X399582Y256631D01*
X399666Y256571D01*
X399685Y256565D01*
X399702Y256554D01*
X399803Y256529D01*
X399901Y256498D01*
X399921Y256499D01*
X399941Y256494D01*
X400044Y256502D01*
X400147Y256505D01*
X400166Y256512D01*
X400186Y256513D01*
X400281Y256553D01*
X400378Y256589D01*
X400394Y256602D01*
X400412Y256609D01*
X400543Y256714D01*
X400932Y257103D01*
X404480Y258573D01*
X408320Y258573D01*
X411868Y257103D01*
X414583Y254388D01*
X416053Y250840D01*
X416053Y231760D01*
X414583Y228212D01*
X411868Y225497D01*
X408320Y224027D01*
X404480Y224027D01*
G37*
%LPD*%
%LPC*%
G36*
X353680Y224027D02*
X353680Y224027D01*
X350132Y225497D01*
X347417Y228212D01*
X345947Y231760D01*
X345947Y250840D01*
X347417Y254388D01*
X350132Y257103D01*
X353680Y258573D01*
X357520Y258573D01*
X361068Y257103D01*
X363783Y254388D01*
X365253Y250840D01*
X365253Y231760D01*
X363783Y228212D01*
X361068Y225497D01*
X357520Y224027D01*
X353680Y224027D01*
G37*
%LPD*%
%LPC*%
G36*
X328482Y594359D02*
X328482Y594359D01*
X325308Y595674D01*
X322878Y598104D01*
X321563Y601278D01*
X321563Y617922D01*
X322878Y621096D01*
X325308Y623526D01*
X328482Y624841D01*
X331918Y624841D01*
X335092Y623526D01*
X337522Y621096D01*
X338837Y617922D01*
X338837Y601278D01*
X337522Y598104D01*
X335092Y595674D01*
X331918Y594359D01*
X328482Y594359D01*
G37*
%LPD*%
%LPC*%
G36*
X303082Y594359D02*
X303082Y594359D01*
X299908Y595674D01*
X297478Y598104D01*
X296163Y601278D01*
X296163Y617922D01*
X297478Y621096D01*
X299908Y623526D01*
X303082Y624841D01*
X306518Y624841D01*
X309692Y623526D01*
X312122Y621096D01*
X313437Y617922D01*
X313437Y601278D01*
X312122Y598104D01*
X309692Y595674D01*
X306518Y594359D01*
X303082Y594359D01*
G37*
%LPD*%
%LPC*%
G36*
X201482Y594359D02*
X201482Y594359D01*
X198308Y595674D01*
X195878Y598104D01*
X194563Y601278D01*
X194563Y617922D01*
X195878Y621096D01*
X198308Y623526D01*
X201482Y624841D01*
X204918Y624841D01*
X208092Y623526D01*
X210522Y621096D01*
X211837Y617922D01*
X211837Y601278D01*
X210522Y598104D01*
X208092Y595674D01*
X204918Y594359D01*
X201482Y594359D01*
G37*
%LPD*%
%LPC*%
G36*
X264912Y245055D02*
X264912Y245055D01*
X259555Y250412D01*
X259555Y257988D01*
X264912Y263345D01*
X272488Y263345D01*
X277845Y257988D01*
X277845Y250412D01*
X272488Y245055D01*
X264912Y245055D01*
G37*
%LPD*%
%LPC*%
G36*
X239512Y245055D02*
X239512Y245055D01*
X234155Y250412D01*
X234155Y257988D01*
X239512Y263345D01*
X247088Y263345D01*
X252445Y257988D01*
X252445Y250412D01*
X247088Y245055D01*
X239512Y245055D01*
G37*
%LPD*%
%LPC*%
G36*
X514912Y245055D02*
X514912Y245055D01*
X509555Y250412D01*
X509555Y257988D01*
X514912Y263345D01*
X522488Y263345D01*
X527845Y257988D01*
X527845Y250412D01*
X522488Y245055D01*
X514912Y245055D01*
G37*
%LPD*%
%LPC*%
G36*
X489512Y245055D02*
X489512Y245055D01*
X484155Y250412D01*
X484155Y257988D01*
X489512Y263345D01*
X497088Y263345D01*
X502445Y257988D01*
X502445Y250412D01*
X497088Y245055D01*
X489512Y245055D01*
G37*
%LPD*%
%LPC*%
G36*
X514912Y219655D02*
X514912Y219655D01*
X509555Y225012D01*
X509555Y232588D01*
X514912Y237945D01*
X522488Y237945D01*
X527845Y232588D01*
X527845Y225012D01*
X522488Y219655D01*
X514912Y219655D01*
G37*
%LPD*%
%LPC*%
G36*
X489512Y219655D02*
X489512Y219655D01*
X484155Y225012D01*
X484155Y232588D01*
X489512Y237945D01*
X497088Y237945D01*
X502445Y232588D01*
X502445Y225012D01*
X497088Y219655D01*
X489512Y219655D01*
G37*
%LPD*%
%LPC*%
G36*
X489512Y549855D02*
X489512Y549855D01*
X484155Y555212D01*
X484155Y562788D01*
X489512Y568145D01*
X497088Y568145D01*
X502445Y562788D01*
X502445Y555212D01*
X497088Y549855D01*
X489512Y549855D01*
G37*
%LPD*%
%LPC*%
G36*
X264912Y219655D02*
X264912Y219655D01*
X259555Y225012D01*
X259555Y232588D01*
X264912Y237945D01*
X272488Y237945D01*
X277845Y232588D01*
X277845Y225012D01*
X272488Y219655D01*
X264912Y219655D01*
G37*
%LPD*%
%LPC*%
G36*
X239512Y549855D02*
X239512Y549855D01*
X234155Y555212D01*
X234155Y562788D01*
X239512Y568145D01*
X247088Y568145D01*
X252445Y562788D01*
X252445Y555212D01*
X247088Y549855D01*
X239512Y549855D01*
G37*
%LPD*%
%LPC*%
G36*
X489512Y524455D02*
X489512Y524455D01*
X484155Y529812D01*
X484155Y537388D01*
X489512Y542745D01*
X497088Y542745D01*
X502445Y537388D01*
X502445Y529812D01*
X497088Y524455D01*
X489512Y524455D01*
G37*
%LPD*%
%LPC*%
G36*
X239512Y524455D02*
X239512Y524455D01*
X234155Y529812D01*
X234155Y537388D01*
X239512Y542745D01*
X247088Y542745D01*
X252445Y537388D01*
X252445Y529812D01*
X247088Y524455D01*
X239512Y524455D01*
G37*
%LPD*%
%LPC*%
G36*
X514912Y524455D02*
X514912Y524455D01*
X509555Y529812D01*
X509555Y537388D01*
X514912Y542745D01*
X522488Y542745D01*
X527845Y537388D01*
X527845Y529812D01*
X522488Y524455D01*
X514912Y524455D01*
G37*
%LPD*%
%LPC*%
G36*
X514912Y499055D02*
X514912Y499055D01*
X509555Y504412D01*
X509555Y511988D01*
X514912Y517345D01*
X522488Y517345D01*
X527845Y511988D01*
X527845Y504412D01*
X522488Y499055D01*
X514912Y499055D01*
G37*
%LPD*%
%LPC*%
G36*
X489512Y499055D02*
X489512Y499055D01*
X484155Y504412D01*
X484155Y511988D01*
X489512Y517345D01*
X497088Y517345D01*
X502445Y511988D01*
X502445Y504412D01*
X497088Y499055D01*
X489512Y499055D01*
G37*
%LPD*%
%LPC*%
G36*
X239512Y499055D02*
X239512Y499055D01*
X234155Y504412D01*
X234155Y511988D01*
X239512Y517345D01*
X247088Y517345D01*
X252445Y511988D01*
X252445Y504412D01*
X247088Y499055D01*
X239512Y499055D01*
G37*
%LPD*%
%LPC*%
G36*
X514912Y473655D02*
X514912Y473655D01*
X509555Y479012D01*
X509555Y486588D01*
X514912Y491945D01*
X522488Y491945D01*
X527845Y486588D01*
X527845Y479012D01*
X522488Y473655D01*
X514912Y473655D01*
G37*
%LPD*%
%LPC*%
G36*
X489512Y473655D02*
X489512Y473655D01*
X484155Y479012D01*
X484155Y486588D01*
X489512Y491945D01*
X497088Y491945D01*
X502445Y486588D01*
X502445Y479012D01*
X497088Y473655D01*
X489512Y473655D01*
G37*
%LPD*%
%LPC*%
G36*
X264912Y473655D02*
X264912Y473655D01*
X259555Y479012D01*
X259555Y486588D01*
X264912Y491945D01*
X272488Y491945D01*
X277845Y486588D01*
X277845Y479012D01*
X272488Y473655D01*
X264912Y473655D01*
G37*
%LPD*%
%LPC*%
G36*
X239512Y473655D02*
X239512Y473655D01*
X234155Y479012D01*
X234155Y486588D01*
X239512Y491945D01*
X247088Y491945D01*
X252445Y486588D01*
X252445Y479012D01*
X247088Y473655D01*
X239512Y473655D01*
G37*
%LPD*%
%LPC*%
G36*
X514912Y448255D02*
X514912Y448255D01*
X509555Y453612D01*
X509555Y461188D01*
X514912Y466545D01*
X522488Y466545D01*
X527845Y461188D01*
X527845Y453612D01*
X522488Y448255D01*
X514912Y448255D01*
G37*
%LPD*%
%LPC*%
G36*
X489512Y448255D02*
X489512Y448255D01*
X484155Y453612D01*
X484155Y461188D01*
X489512Y466545D01*
X497088Y466545D01*
X502445Y461188D01*
X502445Y453612D01*
X497088Y448255D01*
X489512Y448255D01*
G37*
%LPD*%
%LPC*%
G36*
X264912Y448255D02*
X264912Y448255D01*
X259555Y453612D01*
X259555Y461188D01*
X264912Y466545D01*
X272488Y466545D01*
X277845Y461188D01*
X277845Y453612D01*
X272488Y448255D01*
X264912Y448255D01*
G37*
%LPD*%
%LPC*%
G36*
X239512Y448255D02*
X239512Y448255D01*
X234155Y453612D01*
X234155Y461188D01*
X239512Y466545D01*
X247088Y466545D01*
X252445Y461188D01*
X252445Y453612D01*
X247088Y448255D01*
X239512Y448255D01*
G37*
%LPD*%
%LPC*%
G36*
X239512Y219655D02*
X239512Y219655D01*
X234155Y225012D01*
X234155Y232588D01*
X239512Y237945D01*
X247088Y237945D01*
X252445Y232588D01*
X252445Y225012D01*
X247088Y219655D01*
X239512Y219655D01*
G37*
%LPD*%
%LPC*%
G36*
X514912Y194255D02*
X514912Y194255D01*
X509555Y199612D01*
X509555Y207188D01*
X514912Y212545D01*
X522488Y212545D01*
X527845Y207188D01*
X527845Y199612D01*
X522488Y194255D01*
X514912Y194255D01*
G37*
%LPD*%
%LPC*%
G36*
X489512Y194255D02*
X489512Y194255D01*
X484155Y199612D01*
X484155Y207188D01*
X489512Y212545D01*
X497088Y212545D01*
X502445Y207188D01*
X502445Y199612D01*
X497088Y194255D01*
X489512Y194255D01*
G37*
%LPD*%
%LPC*%
G36*
X264912Y194255D02*
X264912Y194255D01*
X259555Y199612D01*
X259555Y207188D01*
X264912Y212545D01*
X272488Y212545D01*
X277845Y207188D01*
X277845Y199612D01*
X272488Y194255D01*
X264912Y194255D01*
G37*
%LPD*%
%LPC*%
G36*
X239512Y194255D02*
X239512Y194255D01*
X234155Y199612D01*
X234155Y207188D01*
X239512Y212545D01*
X247088Y212545D01*
X252445Y207188D01*
X252445Y199612D01*
X247088Y194255D01*
X239512Y194255D01*
G37*
%LPD*%
%LPC*%
G36*
X514912Y422855D02*
X514912Y422855D01*
X509555Y428212D01*
X509555Y435788D01*
X514912Y441145D01*
X522488Y441145D01*
X527845Y435788D01*
X527845Y428212D01*
X522488Y422855D01*
X514912Y422855D01*
G37*
%LPD*%
%LPC*%
G36*
X489512Y422855D02*
X489512Y422855D01*
X484155Y428212D01*
X484155Y435788D01*
X489512Y441145D01*
X497088Y441145D01*
X502445Y435788D01*
X502445Y428212D01*
X497088Y422855D01*
X489512Y422855D01*
G37*
%LPD*%
%LPC*%
G36*
X264912Y422855D02*
X264912Y422855D01*
X259555Y428212D01*
X259555Y435788D01*
X264912Y441145D01*
X272488Y441145D01*
X277845Y435788D01*
X277845Y428212D01*
X272488Y422855D01*
X264912Y422855D01*
G37*
%LPD*%
%LPC*%
G36*
X239512Y422855D02*
X239512Y422855D01*
X234155Y428212D01*
X234155Y435788D01*
X239512Y441145D01*
X247088Y441145D01*
X252445Y435788D01*
X252445Y428212D01*
X247088Y422855D01*
X239512Y422855D01*
G37*
%LPD*%
%LPC*%
G36*
X514912Y397455D02*
X514912Y397455D01*
X509555Y402812D01*
X509555Y410388D01*
X514912Y415745D01*
X522488Y415745D01*
X527845Y410388D01*
X527845Y402812D01*
X522488Y397455D01*
X514912Y397455D01*
G37*
%LPD*%
%LPC*%
G36*
X264912Y397455D02*
X264912Y397455D01*
X259555Y402812D01*
X259555Y410388D01*
X264912Y415745D01*
X272488Y415745D01*
X277845Y410388D01*
X277845Y402812D01*
X272488Y397455D01*
X264912Y397455D01*
G37*
%LPD*%
%LPC*%
G36*
X239512Y397455D02*
X239512Y397455D01*
X234155Y402812D01*
X234155Y410388D01*
X239512Y415745D01*
X247088Y415745D01*
X252445Y410388D01*
X252445Y402812D01*
X247088Y397455D01*
X239512Y397455D01*
G37*
%LPD*%
%LPC*%
G36*
X489512Y397455D02*
X489512Y397455D01*
X484155Y402812D01*
X484155Y410388D01*
X489512Y415745D01*
X497088Y415745D01*
X502445Y410388D01*
X502445Y402812D01*
X497088Y397455D01*
X489512Y397455D01*
G37*
%LPD*%
%LPC*%
G36*
X514912Y168855D02*
X514912Y168855D01*
X509555Y174212D01*
X509555Y181788D01*
X514912Y187145D01*
X522488Y187145D01*
X527845Y181788D01*
X527845Y174212D01*
X522488Y168855D01*
X514912Y168855D01*
G37*
%LPD*%
%LPC*%
G36*
X489512Y168855D02*
X489512Y168855D01*
X484155Y174212D01*
X484155Y181788D01*
X489512Y187145D01*
X497088Y187145D01*
X502445Y181788D01*
X502445Y174212D01*
X497088Y168855D01*
X489512Y168855D01*
G37*
%LPD*%
%LPC*%
G36*
X264912Y168855D02*
X264912Y168855D01*
X259555Y174212D01*
X259555Y181788D01*
X264912Y187145D01*
X272488Y187145D01*
X277845Y181788D01*
X277845Y174212D01*
X272488Y168855D01*
X264912Y168855D01*
G37*
%LPD*%
%LPC*%
G36*
X239512Y168855D02*
X239512Y168855D01*
X234155Y174212D01*
X234155Y181788D01*
X239512Y187145D01*
X247088Y187145D01*
X252445Y181788D01*
X252445Y174212D01*
X247088Y168855D01*
X239512Y168855D01*
G37*
%LPD*%
%LPC*%
G36*
X514912Y143455D02*
X514912Y143455D01*
X509555Y148812D01*
X509555Y156388D01*
X514912Y161745D01*
X522488Y161745D01*
X527845Y156388D01*
X527845Y148812D01*
X522488Y143455D01*
X514912Y143455D01*
G37*
%LPD*%
%LPC*%
G36*
X514912Y372055D02*
X514912Y372055D01*
X509555Y377412D01*
X509555Y384988D01*
X514912Y390345D01*
X522488Y390345D01*
X527845Y384988D01*
X527845Y377412D01*
X522488Y372055D01*
X514912Y372055D01*
G37*
%LPD*%
%LPC*%
G36*
X264912Y372055D02*
X264912Y372055D01*
X259555Y377412D01*
X259555Y384988D01*
X264912Y390345D01*
X272488Y390345D01*
X277845Y384988D01*
X277845Y377412D01*
X272488Y372055D01*
X264912Y372055D01*
G37*
%LPD*%
%LPC*%
G36*
X239512Y372055D02*
X239512Y372055D01*
X234155Y377412D01*
X234155Y384988D01*
X239512Y390345D01*
X247088Y390345D01*
X252445Y384988D01*
X252445Y377412D01*
X247088Y372055D01*
X239512Y372055D01*
G37*
%LPD*%
%LPC*%
G36*
X489512Y143455D02*
X489512Y143455D01*
X484155Y148812D01*
X484155Y156388D01*
X489512Y161745D01*
X497088Y161745D01*
X502445Y156388D01*
X502445Y148812D01*
X497088Y143455D01*
X489512Y143455D01*
G37*
%LPD*%
%LPC*%
G36*
X264912Y143455D02*
X264912Y143455D01*
X259555Y148812D01*
X259555Y156388D01*
X264912Y161745D01*
X272488Y161745D01*
X277845Y156388D01*
X277845Y148812D01*
X272488Y143455D01*
X264912Y143455D01*
G37*
%LPD*%
%LPC*%
G36*
X239512Y143455D02*
X239512Y143455D01*
X234155Y148812D01*
X234155Y156388D01*
X239512Y161745D01*
X247088Y161745D01*
X252445Y156388D01*
X252445Y148812D01*
X247088Y143455D01*
X239512Y143455D01*
G37*
%LPD*%
%LPC*%
G36*
X514912Y346655D02*
X514912Y346655D01*
X509555Y352012D01*
X509555Y359588D01*
X514912Y364945D01*
X522488Y364945D01*
X527845Y359588D01*
X527845Y352012D01*
X522488Y346655D01*
X514912Y346655D01*
G37*
%LPD*%
%LPC*%
G36*
X489512Y346655D02*
X489512Y346655D01*
X484155Y352012D01*
X484155Y359588D01*
X489512Y364945D01*
X497088Y364945D01*
X502445Y359588D01*
X502445Y352012D01*
X497088Y346655D01*
X489512Y346655D01*
G37*
%LPD*%
%LPC*%
G36*
X264912Y346655D02*
X264912Y346655D01*
X259555Y352012D01*
X259555Y359588D01*
X264912Y364945D01*
X272488Y364945D01*
X277845Y359588D01*
X277845Y352012D01*
X272488Y346655D01*
X264912Y346655D01*
G37*
%LPD*%
%LPC*%
G36*
X239512Y346655D02*
X239512Y346655D01*
X234155Y352012D01*
X234155Y359588D01*
X239512Y364945D01*
X247088Y364945D01*
X252445Y359588D01*
X252445Y352012D01*
X247088Y346655D01*
X239512Y346655D01*
G37*
%LPD*%
%LPC*%
G36*
X514912Y321255D02*
X514912Y321255D01*
X509555Y326612D01*
X509555Y334188D01*
X514912Y339545D01*
X522488Y339545D01*
X527845Y334188D01*
X527845Y326612D01*
X522488Y321255D01*
X514912Y321255D01*
G37*
%LPD*%
%LPC*%
G36*
X264912Y321255D02*
X264912Y321255D01*
X259555Y326612D01*
X259555Y334188D01*
X264912Y339545D01*
X272488Y339545D01*
X277845Y334188D01*
X277845Y326612D01*
X272488Y321255D01*
X264912Y321255D01*
G37*
%LPD*%
%LPC*%
G36*
X239512Y321255D02*
X239512Y321255D01*
X234155Y326612D01*
X234155Y334188D01*
X239512Y339545D01*
X247088Y339545D01*
X252445Y334188D01*
X252445Y326612D01*
X247088Y321255D01*
X239512Y321255D01*
G37*
%LPD*%
%LPC*%
G36*
X514912Y270455D02*
X514912Y270455D01*
X509555Y275812D01*
X509555Y283388D01*
X514912Y288745D01*
X522488Y288745D01*
X527845Y283388D01*
X527845Y275812D01*
X522488Y270455D01*
X514912Y270455D01*
G37*
%LPD*%
%LPC*%
G36*
X489512Y295855D02*
X489512Y295855D01*
X484155Y301212D01*
X484155Y308788D01*
X489512Y314145D01*
X497088Y314145D01*
X502445Y308788D01*
X502445Y301212D01*
X497088Y295855D01*
X489512Y295855D01*
G37*
%LPD*%
%LPC*%
G36*
X264912Y295855D02*
X264912Y295855D01*
X259555Y301212D01*
X259555Y308788D01*
X264912Y314145D01*
X272488Y314145D01*
X277845Y308788D01*
X277845Y301212D01*
X272488Y295855D01*
X264912Y295855D01*
G37*
%LPD*%
%LPC*%
G36*
X514912Y295855D02*
X514912Y295855D01*
X509555Y301212D01*
X509555Y308788D01*
X514912Y314145D01*
X522488Y314145D01*
X527845Y308788D01*
X527845Y301212D01*
X522488Y295855D01*
X514912Y295855D01*
G37*
%LPD*%
%LPC*%
G36*
X239512Y295855D02*
X239512Y295855D01*
X234155Y301212D01*
X234155Y308788D01*
X239512Y314145D01*
X247088Y314145D01*
X252445Y308788D01*
X252445Y301212D01*
X247088Y295855D01*
X239512Y295855D01*
G37*
%LPD*%
%LPC*%
G36*
X264912Y270455D02*
X264912Y270455D01*
X259555Y275812D01*
X259555Y283388D01*
X264912Y288745D01*
X272488Y288745D01*
X277845Y283388D01*
X277845Y275812D01*
X272488Y270455D01*
X264912Y270455D01*
G37*
%LPD*%
%LPC*%
G36*
X239512Y270455D02*
X239512Y270455D01*
X234155Y275812D01*
X234155Y283388D01*
X239512Y288745D01*
X247088Y288745D01*
X252445Y283388D01*
X252445Y275812D01*
X247088Y270455D01*
X239512Y270455D01*
G37*
%LPD*%
%LPC*%
G36*
X489512Y270455D02*
X489512Y270455D01*
X484155Y275812D01*
X484155Y283388D01*
X489512Y288745D01*
X497088Y288745D01*
X502445Y283388D01*
X502445Y275812D01*
X497088Y270455D01*
X489512Y270455D01*
G37*
%LPD*%
%LPC*%
G36*
X516881Y549855D02*
X516881Y549855D01*
X513520Y551247D01*
X510947Y553820D01*
X509555Y557181D01*
X509555Y560819D01*
X510947Y564180D01*
X513520Y566753D01*
X516881Y568145D01*
X520519Y568145D01*
X523880Y566753D01*
X526453Y564180D01*
X527845Y560819D01*
X527845Y557181D01*
X526453Y553820D01*
X523880Y551247D01*
X520519Y549855D01*
X516881Y549855D01*
G37*
%LPD*%
%LPC*%
G36*
X266881Y549855D02*
X266881Y549855D01*
X263520Y551247D01*
X260947Y553820D01*
X259555Y557181D01*
X259555Y560819D01*
X260947Y564180D01*
X263520Y566753D01*
X266881Y568145D01*
X270519Y568145D01*
X273880Y566753D01*
X276453Y564180D01*
X277845Y560819D01*
X277845Y557181D01*
X276453Y553820D01*
X273880Y551247D01*
X270519Y549855D01*
X266881Y549855D01*
G37*
%LPD*%
%LPC*%
G36*
X420623Y141223D02*
X420623Y141223D01*
X420623Y160143D01*
X421802Y159957D01*
X423530Y159395D01*
X425149Y158571D01*
X426618Y157503D01*
X427903Y156218D01*
X428971Y154749D01*
X429795Y153130D01*
X430357Y151402D01*
X430641Y149608D01*
X430641Y141223D01*
X420623Y141223D01*
G37*
%LPD*%
%LPC*%
G36*
X420623Y138177D02*
X420623Y138177D01*
X430641Y138177D01*
X430641Y129792D01*
X430357Y127998D01*
X429795Y126270D01*
X428971Y124651D01*
X427903Y123182D01*
X426618Y121897D01*
X425149Y120829D01*
X423530Y120005D01*
X421802Y119443D01*
X420623Y119257D01*
X420623Y138177D01*
G37*
%LPD*%
%LPC*%
G36*
X407559Y141223D02*
X407559Y141223D01*
X407559Y149608D01*
X407843Y151402D01*
X408405Y153130D01*
X409229Y154749D01*
X410297Y156218D01*
X411582Y157503D01*
X413051Y158571D01*
X414670Y159395D01*
X416398Y159957D01*
X417577Y160143D01*
X417577Y141223D01*
X407559Y141223D01*
G37*
%LPD*%
%LPC*%
G36*
X416398Y119443D02*
X416398Y119443D01*
X414670Y120005D01*
X413051Y120829D01*
X411582Y121897D01*
X410297Y123182D01*
X409229Y124651D01*
X408405Y126270D01*
X407843Y127998D01*
X407559Y129792D01*
X407559Y138177D01*
X417577Y138177D01*
X417577Y119257D01*
X416398Y119443D01*
G37*
%LPD*%
%LPC*%
G36*
X230123Y611123D02*
X230123Y611123D01*
X230123Y625225D01*
X231267Y624997D01*
X232932Y624308D01*
X234430Y623307D01*
X235703Y622034D01*
X236704Y620536D01*
X237393Y618871D01*
X237745Y617105D01*
X237745Y611123D01*
X230123Y611123D01*
G37*
%LPD*%
%LPC*%
G36*
X420623Y458723D02*
X420623Y458723D01*
X420623Y466345D01*
X426605Y466345D01*
X428371Y465993D01*
X430036Y465304D01*
X431534Y464303D01*
X432807Y463030D01*
X433808Y461532D01*
X434497Y459867D01*
X434725Y458723D01*
X420623Y458723D01*
G37*
%LPD*%
%LPC*%
G36*
X420623Y306323D02*
X420623Y306323D01*
X420623Y313945D01*
X426605Y313945D01*
X428371Y313593D01*
X430036Y312904D01*
X431534Y311903D01*
X432807Y310630D01*
X433808Y309132D01*
X434497Y307467D01*
X434725Y306323D01*
X420623Y306323D01*
G37*
%LPD*%
%LPC*%
G36*
X344423Y407923D02*
X344423Y407923D01*
X344423Y415545D01*
X350405Y415545D01*
X352171Y415193D01*
X353836Y414504D01*
X355334Y413503D01*
X356607Y412230D01*
X357608Y410732D01*
X358297Y409067D01*
X358525Y407923D01*
X344423Y407923D01*
G37*
%LPD*%
%LPC*%
G36*
X344423Y331723D02*
X344423Y331723D01*
X344423Y339345D01*
X350405Y339345D01*
X352171Y338993D01*
X353836Y338304D01*
X355334Y337303D01*
X356607Y336030D01*
X357608Y334532D01*
X358297Y332867D01*
X358525Y331723D01*
X344423Y331723D01*
G37*
%LPD*%
%LPC*%
G36*
X420623Y382523D02*
X420623Y382523D01*
X420623Y390145D01*
X426605Y390145D01*
X428371Y389793D01*
X430036Y389104D01*
X431534Y388103D01*
X432807Y386830D01*
X433808Y385332D01*
X434497Y383667D01*
X434725Y382523D01*
X420623Y382523D01*
G37*
%LPD*%
%LPC*%
G36*
X403475Y382523D02*
X403475Y382523D01*
X403703Y383667D01*
X404392Y385332D01*
X405393Y386830D01*
X406666Y388103D01*
X408164Y389104D01*
X409829Y389793D01*
X411595Y390145D01*
X417577Y390145D01*
X417577Y382523D01*
X403475Y382523D01*
G37*
%LPD*%
%LPC*%
G36*
X230123Y608077D02*
X230123Y608077D01*
X237745Y608077D01*
X237745Y602095D01*
X237393Y600329D01*
X236704Y598664D01*
X235703Y597166D01*
X234430Y595893D01*
X232932Y594892D01*
X231267Y594203D01*
X230123Y593975D01*
X230123Y608077D01*
G37*
%LPD*%
%LPC*%
G36*
X327275Y331723D02*
X327275Y331723D01*
X327503Y332867D01*
X328192Y334532D01*
X329193Y336030D01*
X330466Y337303D01*
X331964Y338304D01*
X333629Y338993D01*
X335395Y339345D01*
X341377Y339345D01*
X341377Y331723D01*
X327275Y331723D01*
G37*
%LPD*%
%LPC*%
G36*
X403475Y458723D02*
X403475Y458723D01*
X403703Y459867D01*
X404392Y461532D01*
X405393Y463030D01*
X406666Y464303D01*
X408164Y465304D01*
X409829Y465993D01*
X411595Y466345D01*
X417577Y466345D01*
X417577Y458723D01*
X403475Y458723D01*
G37*
%LPD*%
%LPC*%
G36*
X403475Y306323D02*
X403475Y306323D01*
X403703Y307467D01*
X404392Y309132D01*
X405393Y310630D01*
X406666Y311903D01*
X408164Y312904D01*
X409829Y313593D01*
X411595Y313945D01*
X417577Y313945D01*
X417577Y306323D01*
X403475Y306323D01*
G37*
%LPD*%
%LPC*%
G36*
X327275Y407923D02*
X327275Y407923D01*
X327503Y409067D01*
X328192Y410732D01*
X329193Y412230D01*
X330466Y413503D01*
X331964Y414504D01*
X333629Y415193D01*
X335395Y415545D01*
X341377Y415545D01*
X341377Y407923D01*
X327275Y407923D01*
G37*
%LPD*%
%LPC*%
G36*
X219455Y611123D02*
X219455Y611123D01*
X219455Y617105D01*
X219807Y618871D01*
X220496Y620536D01*
X221497Y622034D01*
X222770Y623307D01*
X224268Y624308D01*
X225933Y624997D01*
X227077Y625225D01*
X227077Y611123D01*
X219455Y611123D01*
G37*
%LPD*%
%LPC*%
G36*
X420623Y295655D02*
X420623Y295655D01*
X420623Y303277D01*
X434725Y303277D01*
X434497Y302133D01*
X433808Y300468D01*
X432807Y298970D01*
X431534Y297697D01*
X430036Y296696D01*
X428371Y296007D01*
X426605Y295655D01*
X420623Y295655D01*
G37*
%LPD*%
%LPC*%
G36*
X344423Y321055D02*
X344423Y321055D01*
X344423Y328677D01*
X358525Y328677D01*
X358297Y327533D01*
X357608Y325868D01*
X356607Y324370D01*
X355334Y323097D01*
X353836Y322096D01*
X352171Y321407D01*
X350405Y321055D01*
X344423Y321055D01*
G37*
%LPD*%
%LPC*%
G36*
X344423Y397255D02*
X344423Y397255D01*
X344423Y404877D01*
X358525Y404877D01*
X358297Y403733D01*
X357608Y402068D01*
X356607Y400570D01*
X355334Y399297D01*
X353836Y398296D01*
X352171Y397607D01*
X350405Y397255D01*
X344423Y397255D01*
G37*
%LPD*%
%LPC*%
G36*
X420623Y448055D02*
X420623Y448055D01*
X420623Y455677D01*
X434725Y455677D01*
X434497Y454533D01*
X433808Y452868D01*
X432807Y451370D01*
X431534Y450097D01*
X430036Y449096D01*
X428371Y448407D01*
X426605Y448055D01*
X420623Y448055D01*
G37*
%LPD*%
%LPC*%
G36*
X420623Y371855D02*
X420623Y371855D01*
X420623Y379477D01*
X434725Y379477D01*
X434497Y378333D01*
X433808Y376668D01*
X432807Y375170D01*
X431534Y373897D01*
X430036Y372896D01*
X428371Y372207D01*
X426605Y371855D01*
X420623Y371855D01*
G37*
%LPD*%
%LPC*%
G36*
X225933Y594203D02*
X225933Y594203D01*
X224268Y594892D01*
X222770Y595893D01*
X221497Y597166D01*
X220496Y598664D01*
X219807Y600329D01*
X219455Y602095D01*
X219455Y608077D01*
X227077Y608077D01*
X227077Y593975D01*
X225933Y594203D01*
G37*
%LPD*%
%LPC*%
G36*
X411595Y448055D02*
X411595Y448055D01*
X409829Y448407D01*
X408164Y449096D01*
X406666Y450097D01*
X405393Y451370D01*
X404392Y452868D01*
X403703Y454533D01*
X403475Y455677D01*
X417577Y455677D01*
X417577Y448055D01*
X411595Y448055D01*
G37*
%LPD*%
%LPC*%
G36*
X335395Y397255D02*
X335395Y397255D01*
X333629Y397607D01*
X331964Y398296D01*
X330466Y399297D01*
X329193Y400570D01*
X328192Y402068D01*
X327503Y403733D01*
X327275Y404877D01*
X341377Y404877D01*
X341377Y397255D01*
X335395Y397255D01*
G37*
%LPD*%
%LPC*%
G36*
X411595Y295655D02*
X411595Y295655D01*
X409829Y296007D01*
X408164Y296696D01*
X406666Y297697D01*
X405393Y298970D01*
X404392Y300468D01*
X403703Y302133D01*
X403475Y303277D01*
X417577Y303277D01*
X417577Y295655D01*
X411595Y295655D01*
G37*
%LPD*%
%LPC*%
G36*
X335395Y321055D02*
X335395Y321055D01*
X333629Y321407D01*
X331964Y322096D01*
X330466Y323097D01*
X329193Y324370D01*
X328192Y325868D01*
X327503Y327533D01*
X327275Y328677D01*
X341377Y328677D01*
X341377Y321055D01*
X335395Y321055D01*
G37*
%LPD*%
%LPC*%
G36*
X411595Y371855D02*
X411595Y371855D01*
X409829Y372207D01*
X408164Y372896D01*
X406666Y373897D01*
X405393Y375170D01*
X404392Y376668D01*
X403703Y378333D01*
X403475Y379477D01*
X417577Y379477D01*
X417577Y371855D01*
X411595Y371855D01*
G37*
%LPD*%
%LPC*%
G36*
X244823Y128723D02*
X244823Y128723D01*
X244823Y136853D01*
X247298Y136853D01*
X252953Y131198D01*
X252953Y128723D01*
X244823Y128723D01*
G37*
%LPD*%
%LPC*%
G36*
X520223Y128723D02*
X520223Y128723D01*
X520223Y136853D01*
X522698Y136853D01*
X528353Y131198D01*
X528353Y128723D01*
X520223Y128723D01*
G37*
%LPD*%
%LPC*%
G36*
X494823Y128723D02*
X494823Y128723D01*
X494823Y136853D01*
X497298Y136853D01*
X502953Y131198D01*
X502953Y128723D01*
X494823Y128723D01*
G37*
%LPD*%
%LPC*%
G36*
X270223Y128723D02*
X270223Y128723D01*
X270223Y136853D01*
X272698Y136853D01*
X278353Y131198D01*
X278353Y128723D01*
X270223Y128723D01*
G37*
%LPD*%
%LPC*%
G36*
X509047Y128723D02*
X509047Y128723D01*
X509047Y131198D01*
X514702Y136853D01*
X517177Y136853D01*
X517177Y128723D01*
X509047Y128723D01*
G37*
%LPD*%
%LPC*%
G36*
X483647Y128723D02*
X483647Y128723D01*
X483647Y131198D01*
X489302Y136853D01*
X491777Y136853D01*
X491777Y128723D01*
X483647Y128723D01*
G37*
%LPD*%
%LPC*%
G36*
X259047Y128723D02*
X259047Y128723D01*
X259047Y131198D01*
X264702Y136853D01*
X267177Y136853D01*
X267177Y128723D01*
X259047Y128723D01*
G37*
%LPD*%
%LPC*%
G36*
X233647Y128723D02*
X233647Y128723D01*
X233647Y131198D01*
X239302Y136853D01*
X241777Y136853D01*
X241777Y128723D01*
X233647Y128723D01*
G37*
%LPD*%
%LPC*%
G36*
X494823Y117547D02*
X494823Y117547D01*
X494823Y125677D01*
X502953Y125677D01*
X502953Y123202D01*
X497298Y117547D01*
X494823Y117547D01*
G37*
%LPD*%
%LPC*%
G36*
X520223Y117547D02*
X520223Y117547D01*
X520223Y125677D01*
X528353Y125677D01*
X528353Y123202D01*
X522698Y117547D01*
X520223Y117547D01*
G37*
%LPD*%
%LPC*%
G36*
X270223Y117547D02*
X270223Y117547D01*
X270223Y125677D01*
X278353Y125677D01*
X278353Y123202D01*
X272698Y117547D01*
X270223Y117547D01*
G37*
%LPD*%
%LPC*%
G36*
X244823Y117547D02*
X244823Y117547D01*
X244823Y125677D01*
X252953Y125677D01*
X252953Y123202D01*
X247298Y117547D01*
X244823Y117547D01*
G37*
%LPD*%
%LPC*%
G36*
X489302Y117547D02*
X489302Y117547D01*
X483647Y123202D01*
X483647Y125677D01*
X491777Y125677D01*
X491777Y117547D01*
X489302Y117547D01*
G37*
%LPD*%
%LPC*%
G36*
X239302Y117547D02*
X239302Y117547D01*
X233647Y123202D01*
X233647Y125677D01*
X241777Y125677D01*
X241777Y117547D01*
X239302Y117547D01*
G37*
%LPD*%
%LPC*%
G36*
X264702Y117547D02*
X264702Y117547D01*
X259047Y123202D01*
X259047Y125677D01*
X267177Y125677D01*
X267177Y117547D01*
X264702Y117547D01*
G37*
%LPD*%
%LPC*%
G36*
X514702Y117547D02*
X514702Y117547D01*
X509047Y123202D01*
X509047Y125677D01*
X517177Y125677D01*
X517177Y117547D01*
X514702Y117547D01*
G37*
%LPD*%
%LPC*%
G36*
X493299Y127199D02*
X493299Y127199D01*
X493299Y127201D01*
X493301Y127201D01*
X493301Y127199D01*
X493299Y127199D01*
G37*
%LPD*%
%LPC*%
G36*
X268699Y127199D02*
X268699Y127199D01*
X268699Y127201D01*
X268701Y127201D01*
X268701Y127199D01*
X268699Y127199D01*
G37*
%LPD*%
%LPC*%
G36*
X243299Y127199D02*
X243299Y127199D01*
X243299Y127201D01*
X243301Y127201D01*
X243301Y127199D01*
X243299Y127199D01*
G37*
%LPD*%
%LPC*%
G36*
X342899Y406399D02*
X342899Y406399D01*
X342899Y406401D01*
X342901Y406401D01*
X342901Y406399D01*
X342899Y406399D01*
G37*
%LPD*%
%LPC*%
G36*
X419099Y380999D02*
X419099Y380999D01*
X419099Y381001D01*
X419101Y381001D01*
X419101Y380999D01*
X419099Y380999D01*
G37*
%LPD*%
%LPC*%
G36*
X419099Y457199D02*
X419099Y457199D01*
X419099Y457201D01*
X419101Y457201D01*
X419101Y457199D01*
X419099Y457199D01*
G37*
%LPD*%
%LPC*%
G36*
X342899Y330199D02*
X342899Y330199D01*
X342899Y330201D01*
X342901Y330201D01*
X342901Y330199D01*
X342899Y330199D01*
G37*
%LPD*%
%LPC*%
G36*
X419099Y139699D02*
X419099Y139699D01*
X419099Y139701D01*
X419101Y139701D01*
X419101Y139699D01*
X419099Y139699D01*
G37*
%LPD*%
%LPC*%
G36*
X419099Y304799D02*
X419099Y304799D01*
X419099Y304801D01*
X419101Y304801D01*
X419101Y304799D01*
X419099Y304799D01*
G37*
%LPD*%
%LPC*%
G36*
X518699Y127199D02*
X518699Y127199D01*
X518699Y127201D01*
X518701Y127201D01*
X518701Y127199D01*
X518699Y127199D01*
G37*
%LPD*%
%LPC*%
G36*
X228599Y609599D02*
X228599Y609599D01*
X228599Y609601D01*
X228601Y609601D01*
X228601Y609599D01*
X228599Y609599D01*
G37*
%LPD*%
D10*
X268700Y559000D03*
D11*
X243300Y559000D03*
X268700Y533600D03*
X243300Y533600D03*
X268700Y508200D03*
X243300Y508200D03*
X268700Y482800D03*
X243300Y482800D03*
X268700Y457400D03*
X243300Y457400D03*
X268700Y432000D03*
X243300Y432000D03*
X268700Y406600D03*
X243300Y406600D03*
X268700Y381200D03*
X243300Y381200D03*
X268700Y355800D03*
X243300Y355800D03*
X268700Y330400D03*
X243300Y330400D03*
X268700Y305000D03*
X243300Y305000D03*
X268700Y279600D03*
X243300Y279600D03*
X268700Y254200D03*
X243300Y254200D03*
X268700Y228800D03*
X243300Y228800D03*
X268700Y203400D03*
X243300Y203400D03*
X268700Y178000D03*
X243300Y178000D03*
X268700Y152600D03*
X243300Y152600D03*
X268700Y127200D03*
X243300Y127200D03*
D10*
X518700Y559000D03*
D11*
X493300Y559000D03*
X518700Y533600D03*
X493300Y533600D03*
X518700Y508200D03*
X493300Y508200D03*
X518700Y482800D03*
X493300Y482800D03*
X518700Y457400D03*
X493300Y457400D03*
X518700Y432000D03*
X493300Y432000D03*
X518700Y406600D03*
X493300Y406600D03*
X518700Y381200D03*
X493300Y381200D03*
X518700Y355800D03*
X493300Y355800D03*
X518700Y330400D03*
X493300Y330400D03*
X518700Y305000D03*
X493300Y305000D03*
X518700Y279600D03*
X493300Y279600D03*
X518700Y254200D03*
X493300Y254200D03*
X518700Y228800D03*
X493300Y228800D03*
X518700Y203400D03*
X493300Y203400D03*
X518700Y178000D03*
X493300Y178000D03*
X518700Y152600D03*
X493300Y152600D03*
X518700Y127200D03*
X493300Y127200D03*
D12*
X203200Y602996D02*
X203200Y616204D01*
X228600Y616204D02*
X228600Y602996D01*
X254000Y602996D02*
X254000Y616204D01*
X279400Y616204D02*
X279400Y602996D01*
X304800Y602996D02*
X304800Y616204D01*
X330200Y616204D02*
X330200Y602996D01*
X412496Y304800D02*
X425704Y304800D01*
X425704Y330200D02*
X412496Y330200D01*
X412496Y457200D02*
X425704Y457200D01*
X349504Y457200D02*
X336296Y457200D01*
X412496Y355600D02*
X425704Y355600D01*
X425704Y381000D02*
X412496Y381000D01*
X412496Y431800D02*
X425704Y431800D01*
X425704Y406400D02*
X412496Y406400D01*
X349504Y431800D02*
X336296Y431800D01*
X336296Y406400D02*
X349504Y406400D01*
X349504Y381000D02*
X336296Y381000D01*
X336296Y355600D02*
X349504Y355600D01*
X349504Y330200D02*
X336296Y330200D01*
X336296Y304800D02*
X349504Y304800D01*
D13*
X304800Y403860D03*
X304800Y419100D03*
X304800Y434340D03*
X457200Y403860D03*
X457200Y419100D03*
X457200Y434340D03*
X457200Y327660D03*
X457200Y342900D03*
X457200Y358140D03*
X304800Y327660D03*
X304800Y342900D03*
X304800Y358140D03*
D14*
X355600Y248920D02*
X355600Y233680D01*
X381000Y233680D02*
X381000Y248920D01*
X406400Y248920D02*
X406400Y233680D01*
D15*
X342900Y148700D02*
X342900Y130700D01*
X368300Y130700D02*
X368300Y148700D01*
X393700Y148700D02*
X393700Y130700D01*
X419100Y130700D02*
X419100Y148700D01*
D16*
X342900Y297180D02*
X342900Y304800D01*
X342900Y297180D02*
X374904Y265176D01*
X386334Y265176D01*
X404622Y246888D01*
X404622Y242316D01*
X406400Y241300D01*
X457200Y342900D02*
X468630Y342900D01*
X473202Y347472D01*
X473202Y365760D01*
X448056Y390906D01*
X436626Y390906D01*
X432054Y395478D01*
X409194Y395478D01*
X402336Y402336D01*
X402336Y406908D01*
X363474Y445770D01*
X363474Y496062D01*
X256032Y603504D01*
X256032Y608076D01*
X254000Y609600D01*
X304800Y434340D02*
X317754Y434340D01*
X340614Y457200D01*
X342900Y457200D01*
X422910Y358902D02*
X457200Y358902D01*
X422910Y358902D02*
X420624Y356616D01*
X457200Y358140D02*
X457200Y358902D01*
X420624Y356616D02*
X419100Y355600D01*
X315468Y358902D02*
X306324Y358902D01*
X315468Y358902D02*
X336042Y379476D01*
X342900Y379476D01*
X306324Y358902D02*
X304800Y358140D01*
X342900Y379476D02*
X342900Y381000D01*
X457200Y404622D02*
X470916Y404622D01*
X493776Y381762D01*
X457200Y403860D02*
X457200Y404622D01*
X493300Y381200D02*
X493776Y381762D01*
X432054Y404622D02*
X420624Y404622D01*
X432054Y404622D02*
X436626Y400050D01*
X443484Y400050D01*
X445770Y402336D01*
X457200Y402336D01*
X420624Y404622D02*
X419100Y406400D01*
X457200Y403860D02*
X457200Y402336D01*
X315468Y404622D02*
X306324Y404622D01*
X315468Y404622D02*
X322326Y411480D01*
X322326Y416052D01*
X336042Y429768D01*
X342900Y429768D01*
X306324Y404622D02*
X304800Y403860D01*
X342900Y429768D02*
X342900Y431800D01*
X288036Y514350D02*
X269748Y532638D01*
X288036Y514350D02*
X288036Y409194D01*
X292608Y404622D01*
X304038Y404622D01*
X269748Y532638D02*
X268700Y533600D01*
X304038Y404622D02*
X304800Y403860D01*
X379476Y240030D02*
X379476Y235458D01*
X347472Y203454D01*
X347472Y164592D01*
X345186Y162306D01*
X345186Y144018D01*
X342900Y141732D01*
X379476Y240030D02*
X381000Y241300D01*
X342900Y141732D02*
X342900Y139700D01*
X315468Y342900D02*
X304800Y342900D01*
X315468Y342900D02*
X322326Y349758D01*
X322326Y358902D01*
X333756Y370332D01*
X352044Y370332D01*
X354330Y368046D01*
X356616Y368046D01*
X397764Y326898D01*
X397764Y278892D01*
X422910Y253746D01*
X422910Y212598D01*
X370332Y160020D01*
X370332Y141732D01*
X368300Y139700D01*
X317754Y420624D02*
X306324Y420624D01*
X317754Y420624D02*
X322326Y425196D01*
X322326Y432054D01*
X333756Y443484D01*
X358902Y443484D01*
X397764Y404622D01*
X397764Y333756D01*
X402336Y329184D01*
X402336Y324612D01*
X406908Y320040D01*
X429768Y320040D01*
X432054Y317754D01*
X434340Y317754D01*
X441198Y310896D01*
X441198Y198882D01*
X395478Y153162D01*
X395478Y141732D01*
X304800Y419100D02*
X306324Y420624D01*
X395478Y141732D02*
X393700Y139700D01*
X457200Y420624D02*
X468630Y420624D01*
X473202Y425196D01*
X473202Y443484D01*
X329184Y587502D01*
X294894Y587502D01*
X281178Y601218D01*
X281178Y608076D01*
X457200Y420624D02*
X457200Y419100D01*
X281178Y608076D02*
X279400Y609600D01*
X422910Y434340D02*
X457200Y434340D01*
X422910Y434340D02*
X420624Y432054D01*
X419100Y431800D01*
X317754Y329184D02*
X306324Y329184D01*
X317754Y329184D02*
X322326Y333756D01*
X322326Y342900D01*
X333756Y354330D01*
X342900Y354330D01*
X306324Y329184D02*
X304800Y327660D01*
X342900Y354330D02*
X342900Y355600D01*
X283464Y493776D02*
X269748Y507492D01*
X283464Y493776D02*
X283464Y338328D01*
X292608Y329184D01*
X304038Y329184D01*
X269748Y507492D02*
X268700Y508200D01*
X304038Y329184D02*
X304800Y327660D01*
X457200Y326898D02*
X484632Y326898D01*
X486918Y329184D01*
X491490Y329184D01*
X493300Y330400D01*
X427482Y329184D02*
X420624Y329184D01*
X427482Y329184D02*
X434340Y322326D01*
X441198Y322326D01*
X445770Y326898D01*
X457200Y326898D01*
X420624Y329184D02*
X419100Y330200D01*
X457200Y327660D02*
X457200Y326898D01*
M02*
